<svg width="18" height="12" viewBox="0 0 18 12" fill="none" xmlns="http://www.w3.org/2000/svg">
<path d="M6.578 6.00001C6.578 5.67802 6.64105 5.356 6.76236 5.05849C6.88367 4.76095 7.06318 4.48801 7.28742 4.26022C7.5116 4.0326 7.78022 3.85021 8.0732 3.72692C8.3661 3.60371 8.68297 3.53964 9.00005 3.53964C9.31705 3.53964 9.63394 3.60369 9.92692 3.72692C10.2198 3.85021 10.4885 4.0326 10.7126 4.26022C10.9368 4.48799 11.1164 4.76095 11.2377 5.05849C11.359 5.356 11.422 5.67802 11.422 6.00001C11.422 6.32211 11.359 6.64402 11.2377 6.94151C11.1164 7.23905 10.9368 7.51197 10.7126 7.73976C10.4885 7.96753 10.2198 8.14981 9.92692 8.27313C9.63394 8.39631 9.31705 8.46038 9.00005 8.46038C8.68297 8.46038 8.3661 8.39633 8.0732 8.27313C7.78022 8.14981 7.5116 7.96753 7.28742 7.73976C7.06318 7.51199 6.88367 7.23905 6.76236 6.94151C6.64105 6.64404 6.578 6.32213 6.578 6.00001ZM8.81812 0C3.09618 0 0 5.9951 0 5.9951C0 5.9951 4.019 12 9.06421 12C14.1093 12 18 5.94292 18 5.94292C18 5.94292 14.5401 0 8.81812 0ZM9.00003 10.3841C6.61645 10.3841 4.6842 8.42133 4.6842 6.00001C4.6842 3.57869 6.61647 1.61587 9.00003 1.61587C11.3835 1.61587 13.3158 3.57871 13.3158 6.00001C13.3158 8.42131 11.3836 10.3841 9.00003 10.3841Z" fill="#3578DB"/>
</svg>
