<svg width="344" height="54" viewBox="0 0 344 54" fill="none" xmlns="http://www.w3.org/2000/svg">
<path d="M166 15.998L278 15.9981" stroke="#D2D2D2" stroke-width="2"/>
<path d="M54 15.998L173 15.9981" stroke="#D2D2D2" stroke-width="2"/>
<path d="M30.996 50.21L28.119 47.347L29.176 46.29L32.039 49.153L30.996 50.21ZM27.37 50.21C26.362 50.21 25.4986 49.9907 24.78 49.552C24.0613 49.1087 23.5083 48.4927 23.121 47.704C22.7383 46.9153 22.547 46.0007 22.547 44.96C22.547 43.9193 22.7383 43.0047 23.121 42.216C23.5083 41.4273 24.0613 40.8137 24.78 40.375C25.4986 39.9317 26.362 39.71 27.37 39.71C28.378 39.71 29.2413 39.9317 29.96 40.375C30.6833 40.8137 31.2363 41.4273 31.619 42.216C32.0063 43.0047 32.2 43.9193 32.2 44.96C32.2 46.0007 32.0063 46.9153 31.619 47.704C31.2363 48.4927 30.6833 49.1087 29.96 49.552C29.2413 49.9907 28.378 50.21 27.37 50.21ZM27.37 48.621C28.0466 48.6257 28.609 48.4763 29.057 48.173C29.5096 47.8697 29.848 47.4427 30.072 46.892C30.3006 46.3413 30.415 45.6973 30.415 44.96C30.415 44.2227 30.3006 43.5833 30.072 43.042C29.848 42.496 29.5096 42.0713 29.057 41.768C28.609 41.4647 28.0466 41.3083 27.37 41.299C26.6933 41.2943 26.131 41.4437 25.683 41.747C25.235 42.0503 24.8966 42.4773 24.668 43.028C24.444 43.5787 24.332 44.2227 24.332 44.96C24.332 45.6973 24.444 46.339 24.668 46.885C24.892 47.4263 25.228 47.8487 25.676 48.152C26.1286 48.4553 26.6933 48.6117 27.37 48.621ZM36.4283 50.217C35.8683 50.217 35.4063 50.1237 35.0423 49.937C34.6783 49.7503 34.3889 49.5123 34.1743 49.223C33.9596 48.9337 33.8009 48.6257 33.6983 48.299C33.5956 47.9723 33.5279 47.6643 33.4953 47.375C33.4673 47.081 33.4533 46.843 33.4533 46.661V42.44H35.1613V46.08C35.1613 46.3133 35.1776 46.577 35.2103 46.871C35.2429 47.1603 35.3176 47.4403 35.4343 47.711C35.5556 47.977 35.7329 48.1963 35.9663 48.369C36.2043 48.5417 36.5239 48.628 36.9253 48.628C37.1399 48.628 37.3523 48.593 37.5623 48.523C37.7723 48.453 37.9613 48.334 38.1293 48.166C38.3019 47.9933 38.4396 47.7577 38.5423 47.459C38.6449 47.1603 38.6963 46.7823 38.6963 46.325L39.6973 46.752C39.6973 47.396 39.5713 47.9793 39.3193 48.502C39.0719 49.0247 38.7056 49.4423 38.2203 49.755C37.7349 50.063 37.1376 50.217 36.4283 50.217ZM38.8993 50V47.655H38.6963V42.44H40.3903V50H38.8993ZM44.471 50.21C43.925 50.21 43.463 50.1073 43.085 49.902C42.707 49.692 42.42 49.4143 42.224 49.069C42.0326 48.7237 41.937 48.3433 41.937 47.928C41.937 47.564 41.9976 47.2373 42.119 46.948C42.2403 46.654 42.427 46.402 42.679 46.192C42.931 45.9773 43.2576 45.8023 43.659 45.667C43.9623 45.569 44.317 45.4803 44.723 45.401C45.1336 45.3217 45.577 45.2493 46.053 45.184C46.5336 45.114 47.0353 45.0393 47.558 44.96L46.956 45.303C46.9606 44.7803 46.844 44.3953 46.606 44.148C46.368 43.9007 45.9666 43.777 45.402 43.777C45.0613 43.777 44.7323 43.8563 44.415 44.015C44.0976 44.1737 43.876 44.4467 43.75 44.834L42.21 44.351C42.3966 43.7117 42.7513 43.1983 43.274 42.811C43.8013 42.4237 44.5106 42.23 45.402 42.23C46.074 42.23 46.6643 42.3397 47.173 42.559C47.6863 42.7783 48.0666 43.1377 48.314 43.637C48.4493 43.903 48.531 44.176 48.559 44.456C48.587 44.7313 48.601 45.0323 48.601 45.359V50H47.124V48.362L47.369 48.628C47.0283 49.174 46.6293 49.5753 46.172 49.832C45.7193 50.084 45.1523 50.21 44.471 50.21ZM44.807 48.866C45.1896 48.866 45.5163 48.7983 45.787 48.663C46.0576 48.5277 46.2723 48.362 46.431 48.166C46.5943 47.97 46.704 47.7857 46.76 47.613C46.8486 47.3983 46.8976 47.1533 46.907 46.878C46.921 46.598 46.928 46.3717 46.928 46.199L47.446 46.353C46.9373 46.4323 46.501 46.5023 46.137 46.563C45.773 46.6237 45.4603 46.682 45.199 46.738C44.9376 46.7893 44.7066 46.8477 44.506 46.913C44.31 46.983 44.1443 47.0647 44.009 47.158C43.8736 47.2513 43.7686 47.3587 43.694 47.48C43.624 47.6013 43.589 47.7437 43.589 47.907C43.589 48.0937 43.6356 48.2593 43.729 48.404C43.8223 48.544 43.9576 48.656 44.135 48.74C44.317 48.824 44.541 48.866 44.807 48.866ZM55.6524 50V46.36C55.6524 46.122 55.636 45.8583 55.6034 45.569C55.5707 45.2797 55.4937 45.002 55.3724 44.736C55.2557 44.4653 55.0784 44.2437 54.8404 44.071C54.607 43.8983 54.2897 43.812 53.8884 43.812C53.6737 43.812 53.4614 43.847 53.2514 43.917C53.0414 43.987 52.85 44.1083 52.6774 44.281C52.5094 44.449 52.374 44.6823 52.2714 44.981C52.1687 45.275 52.1174 45.653 52.1174 46.115L51.1164 45.688C51.1164 45.044 51.24 44.4607 51.4874 43.938C51.7394 43.4153 52.108 43 52.5934 42.692C53.0787 42.3793 53.676 42.223 54.3854 42.223C54.9454 42.223 55.4074 42.3163 55.7714 42.503C56.1354 42.6897 56.4247 42.9277 56.6394 43.217C56.854 43.5063 57.0127 43.8143 57.1154 44.141C57.218 44.4677 57.2834 44.778 57.3114 45.072C57.344 45.3613 57.3604 45.597 57.3604 45.779V50H55.6524ZM50.4094 50V42.44H51.9144V44.785H52.1174V50H50.4094ZM63.618 50C63.1187 50.0933 62.6287 50.133 62.148 50.119C61.672 50.1097 61.245 50.0233 60.867 49.86C60.489 49.692 60.202 49.4283 60.006 49.069C59.8334 48.7423 59.7424 48.4087 59.733 48.068C59.7237 47.7273 59.719 47.3423 59.719 46.913V40.34H61.399V46.815C61.399 47.1183 61.4014 47.3843 61.406 47.613C61.4154 47.8417 61.4644 48.0283 61.553 48.173C61.721 48.453 61.9894 48.6093 62.358 48.642C62.7267 48.6747 63.1467 48.656 63.618 48.586V50ZM58.347 43.763V42.44H63.618V43.763H58.347ZM65.3837 41.292V39.745H67.0707V41.292H65.3837ZM65.3837 50V42.44H67.0707V50H65.3837ZM73.5985 50C73.0992 50.0933 72.6092 50.133 72.1285 50.119C71.6525 50.1097 71.2255 50.0233 70.8475 49.86C70.4695 49.692 70.1825 49.4283 69.9865 49.069C69.8138 48.7423 69.7228 48.4087 69.7135 48.068C69.7042 47.7273 69.6995 47.3423 69.6995 46.913V40.34H71.3795V46.815C71.3795 47.1183 71.3818 47.3843 71.3865 47.613C71.3958 47.8417 71.4448 48.0283 71.5335 48.173C71.7015 48.453 71.9698 48.6093 72.3385 48.642C72.7072 48.6747 73.1272 48.656 73.5985 48.586V50ZM68.3275 43.763V42.44H73.5985V43.763H68.3275ZM76.0131 53.36L77.4691 49.363L77.4971 50.539L74.2001 42.44H75.9571L78.2951 48.432H77.8471L80.1221 42.44H81.8091L77.5951 53.36H76.0131Z" fill="#323232"/>
<rect x="37" width="32" height="32" rx="16" fill="#2AACE3"/>
<path d="M52.7891 21.5H54.1484V10.2266H52.7734L49.7734 12.3828V13.7969L52.7578 11.7188H52.7891V21.5Z" fill="white"/>
<path d="M145.787 50V39.92H148.895C148.997 39.92 149.177 39.9223 149.434 39.927C149.69 39.9317 149.935 39.9503 150.169 39.983C150.948 40.0857 151.599 40.3703 152.122 40.837C152.649 41.299 153.046 41.887 153.312 42.601C153.578 43.315 153.711 44.1013 153.711 44.96C153.711 45.8187 153.578 46.605 153.312 47.319C153.046 48.033 152.649 48.6233 152.122 49.09C151.599 49.552 150.948 49.8343 150.169 49.937C149.935 49.965 149.688 49.9837 149.427 49.993C149.17 49.9977 148.993 50 148.895 50H145.787ZM147.068 48.81H148.895C149.072 48.81 149.27 48.8053 149.49 48.796C149.709 48.782 149.9 48.761 150.064 48.733C150.614 48.6303 151.06 48.3993 151.401 48.04C151.741 47.6807 151.991 47.2327 152.15 46.696C152.308 46.1593 152.388 45.5807 152.388 44.96C152.388 44.3253 152.306 43.7397 152.143 43.203C151.984 42.6663 151.734 42.2207 151.394 41.866C151.053 41.5113 150.61 41.285 150.064 41.187C149.9 41.1543 149.707 41.1333 149.483 41.124C149.259 41.1147 149.063 41.11 148.895 41.11H147.068V48.81ZM158.592 50.21C157.85 50.21 157.201 50.0467 156.646 49.72C156.095 49.3887 155.666 48.929 155.358 48.341C155.05 47.7483 154.896 47.0577 154.896 46.269C154.896 45.443 155.048 44.729 155.351 44.127C155.654 43.5203 156.077 43.0537 156.618 42.727C157.164 42.3957 157.803 42.23 158.536 42.23C159.297 42.23 159.943 42.405 160.475 42.755C161.012 43.105 161.413 43.6043 161.679 44.253C161.95 44.9017 162.066 45.674 162.029 46.57H160.769V46.122C160.755 45.1933 160.566 44.5003 160.202 44.043C159.838 43.581 159.297 43.35 158.578 43.35C157.808 43.35 157.222 43.5973 156.821 44.092C156.42 44.5867 156.219 45.296 156.219 46.22C156.219 47.1113 156.42 47.802 156.821 48.292C157.222 48.782 157.794 49.027 158.536 49.027C159.035 49.027 159.469 48.9127 159.838 48.684C160.207 48.4553 160.496 48.1263 160.706 47.697L161.903 48.11C161.609 48.7773 161.166 49.2953 160.573 49.664C159.985 50.028 159.325 50.21 158.592 50.21ZM155.799 46.57V45.569H161.385V46.57H155.799ZM172.419 50L172.426 45.163C172.426 44.5983 172.275 44.1573 171.971 43.84C171.673 43.518 171.283 43.357 170.802 43.357C170.522 43.357 170.256 43.4223 170.004 43.553C169.752 43.679 169.547 43.8797 169.388 44.155C169.23 44.4257 169.15 44.7733 169.15 45.198L168.492 44.932C168.483 44.3953 168.593 43.9263 168.821 43.525C169.055 43.119 169.372 42.804 169.773 42.58C170.175 42.356 170.627 42.244 171.131 42.244C171.92 42.244 172.541 42.4843 172.993 42.965C173.446 43.441 173.672 44.0827 173.672 44.89L173.665 50H172.419ZM163.375 50V42.44H164.488V44.463H164.628V50H163.375ZM167.904 50L167.911 45.212C167.911 44.6333 167.762 44.1807 167.463 43.854C167.165 43.5227 166.768 43.357 166.273 43.357C165.783 43.357 165.387 43.525 165.083 43.861C164.78 44.197 164.628 44.6427 164.628 45.198L163.97 44.806C163.97 44.316 164.087 43.8773 164.32 43.49C164.554 43.1027 164.871 42.7993 165.272 42.58C165.674 42.356 166.129 42.244 166.637 42.244C167.146 42.244 167.589 42.3513 167.967 42.566C168.345 42.7807 168.637 43.0887 168.842 43.49C169.048 43.8867 169.15 44.3603 169.15 44.911L169.143 50H167.904ZM177.645 50.21C177.08 50.21 176.606 50.1073 176.224 49.902C175.846 49.692 175.559 49.4167 175.363 49.076C175.171 48.7353 175.076 48.362 175.076 47.956C175.076 47.5593 175.15 47.2163 175.3 46.927C175.454 46.633 175.668 46.3903 175.944 46.199C176.219 46.003 176.548 45.849 176.931 45.737C177.29 45.639 177.691 45.555 178.135 45.485C178.583 45.4103 179.035 45.3427 179.493 45.282C179.95 45.2213 180.377 45.163 180.774 45.107L180.326 45.366C180.34 44.694 180.204 44.197 179.92 43.875C179.64 43.553 179.154 43.392 178.464 43.392C178.006 43.392 177.605 43.497 177.26 43.707C176.919 43.9123 176.679 44.2483 176.539 44.715L175.356 44.358C175.538 43.6953 175.89 43.175 176.413 42.797C176.935 42.419 177.624 42.23 178.478 42.23C179.164 42.23 179.752 42.3537 180.242 42.601C180.736 42.8437 181.091 43.2123 181.306 43.707C181.413 43.9403 181.481 44.1947 181.509 44.47C181.537 44.7407 181.551 45.0253 181.551 45.324V50H180.445V48.187L180.704 48.355C180.419 48.9663 180.02 49.4283 179.507 49.741C178.998 50.0537 178.377 50.21 177.645 50.21ZM177.834 49.167C178.282 49.167 178.669 49.0877 178.996 48.929C179.327 48.7657 179.593 48.5533 179.794 48.292C179.994 48.026 180.125 47.7367 180.186 47.424C180.256 47.1907 180.293 46.9317 180.298 46.647C180.307 46.3577 180.312 46.136 180.312 45.982L180.746 46.171C180.34 46.227 179.941 46.2807 179.549 46.332C179.157 46.3833 178.786 46.4393 178.436 46.5C178.086 46.556 177.771 46.6237 177.491 46.703C177.285 46.7683 177.092 46.8523 176.91 46.955C176.732 47.0577 176.588 47.1907 176.476 47.354C176.368 47.5127 176.315 47.711 176.315 47.949C176.315 48.1543 176.366 48.3503 176.469 48.537C176.576 48.7237 176.739 48.8753 176.959 48.992C177.183 49.1087 177.474 49.167 177.834 49.167ZM188.754 50V46.213C188.754 45.8537 188.721 45.5083 188.656 45.177C188.595 44.8457 188.485 44.5493 188.327 44.288C188.173 44.022 187.963 43.812 187.697 43.658C187.435 43.504 187.104 43.427 186.703 43.427C186.39 43.427 186.105 43.4807 185.849 43.588C185.597 43.6907 185.38 43.8493 185.198 44.064C185.016 44.2787 184.873 44.5493 184.771 44.876C184.673 45.198 184.624 45.5783 184.624 46.017L183.805 45.765C183.805 45.0323 183.935 44.4047 184.197 43.882C184.463 43.3547 184.834 42.951 185.31 42.671C185.79 42.3863 186.355 42.244 187.004 42.244C187.494 42.244 187.911 42.321 188.257 42.475C188.602 42.629 188.889 42.8343 189.118 43.091C189.346 43.343 189.526 43.6277 189.657 43.945C189.787 44.2577 189.878 44.5773 189.93 44.904C189.986 45.226 190.014 45.5317 190.014 45.821V50H188.754ZM183.364 50V42.44H184.484V44.463H184.624V50H183.364ZM194.733 50.21C194.028 50.21 193.424 50.035 192.92 49.685C192.416 49.3303 192.026 48.852 191.751 48.25C191.48 47.648 191.345 46.969 191.345 46.213C191.345 45.457 191.48 44.778 191.751 44.176C192.026 43.574 192.416 43.1003 192.92 42.755C193.424 42.405 194.026 42.23 194.726 42.23C195.44 42.23 196.04 42.4027 196.525 42.748C197.01 43.0933 197.377 43.567 197.624 44.169C197.876 44.771 198.002 45.4523 198.002 46.213C198.002 46.9643 197.876 47.6433 197.624 48.25C197.377 48.852 197.01 49.3303 196.525 49.685C196.04 50.035 195.442 50.21 194.733 50.21ZM194.887 49.069C195.396 49.069 195.813 48.9477 196.14 48.705C196.467 48.4577 196.707 48.1193 196.861 47.69C197.02 47.256 197.099 46.7637 197.099 46.213C197.099 45.653 197.02 45.1607 196.861 44.736C196.707 44.3067 196.469 43.973 196.147 43.735C195.825 43.4923 195.417 43.371 194.922 43.371C194.409 43.371 193.984 43.497 193.648 43.749C193.317 44.001 193.069 44.3417 192.906 44.771C192.747 45.2003 192.668 45.681 192.668 46.213C192.668 46.7497 192.75 47.235 192.913 47.669C193.076 48.0983 193.321 48.439 193.648 48.691C193.979 48.943 194.392 49.069 194.887 49.069ZM197.099 50V44.435H196.959V39.92H198.212V50H197.099Z" fill="#110000" fill-opacity="0.38"/>
<rect x="156.5" width="32" height="32" rx="16" fill="#D2D2D2"/>
<path d="M168.414 21.5H175.852V20.25H170.344V20.2188L173.023 17.4688C175.094 15.3516 175.664 14.4219 175.664 13.1875V13.1719C175.664 11.4062 174.172 10.0391 172.133 10.0391C170.031 10.0391 168.344 11.4844 168.344 13.4375V13.4844H169.703V13.4453C169.703 12.2344 170.75 11.2656 172.156 11.2656C173.383 11.2656 174.25 12.0938 174.258 13.2422V13.2578C174.258 14.1953 173.906 14.8047 172.383 16.3906L168.414 20.5312V21.5Z" fill="white"/>
<path d="M264.501 50V39.92H267.609C267.712 39.92 267.892 39.9223 268.148 39.927C268.405 39.9317 268.65 39.9503 268.883 39.983C269.663 40.0857 270.314 40.3703 270.836 40.837C271.364 41.299 271.76 41.887 272.026 42.601C272.292 43.315 272.425 44.1013 272.425 44.96C272.425 45.8187 272.292 46.605 272.026 47.319C271.76 48.033 271.364 48.6233 270.836 49.09C270.314 49.552 269.663 49.8343 268.883 49.937C268.65 49.965 268.403 49.9837 268.141 49.993C267.885 49.9977 267.707 50 267.609 50H264.501ZM265.782 48.81H267.609C267.787 48.81 267.985 48.8053 268.204 48.796C268.424 48.782 268.615 48.761 268.778 48.733C269.329 48.6303 269.775 48.3993 270.115 48.04C270.456 47.6807 270.706 47.2327 270.864 46.696C271.023 46.1593 271.102 45.5807 271.102 44.96C271.102 44.3253 271.021 43.7397 270.857 43.203C270.699 42.6663 270.449 42.2207 270.108 41.866C269.768 41.5113 269.324 41.285 268.778 41.187C268.615 41.1543 268.421 41.1333 268.197 41.124C267.973 41.1147 267.777 41.11 267.609 41.11H265.782V48.81ZM276.901 50.196C276.415 50.196 275.998 50.119 275.648 49.965C275.302 49.811 275.015 49.6057 274.787 49.349C274.558 49.0923 274.378 48.8077 274.248 48.495C274.117 48.1823 274.024 47.8627 273.968 47.536C273.916 47.2093 273.891 46.9037 273.891 46.619V42.44H275.151V46.227C275.151 46.5817 275.183 46.9247 275.249 47.256C275.314 47.5873 275.424 47.886 275.578 48.152C275.736 48.418 275.946 48.628 276.208 48.782C276.474 48.936 276.805 49.013 277.202 49.013C277.514 49.013 277.799 48.9593 278.056 48.852C278.312 48.7447 278.532 48.586 278.714 48.376C278.896 48.1613 279.036 47.8907 279.134 47.564C279.232 47.2373 279.281 46.857 279.281 46.423L280.1 46.675C280.1 47.403 279.967 48.0307 279.701 48.558C279.439 49.0853 279.068 49.4913 278.588 49.776C278.112 50.056 277.549 50.196 276.901 50.196ZM279.421 50V47.977H279.281V42.44H280.534V50H279.421ZM282.494 50V42.44H283.607V44.267L283.425 44.029C283.513 43.7957 283.628 43.581 283.768 43.385C283.912 43.189 284.073 43.028 284.251 42.902C284.447 42.7433 284.668 42.622 284.916 42.538C285.163 42.454 285.415 42.405 285.672 42.391C285.928 42.3723 286.169 42.3887 286.393 42.44V43.609C286.131 43.539 285.844 43.5203 285.532 43.553C285.219 43.5857 284.93 43.7 284.664 43.896C284.421 44.0687 284.232 44.2787 284.097 44.526C283.966 44.7733 283.875 45.0417 283.824 45.331C283.772 45.6157 283.747 45.9073 283.747 46.206V50H282.494ZM289.619 50.21C289.055 50.21 288.581 50.1073 288.198 49.902C287.82 49.692 287.533 49.4167 287.337 49.076C287.146 48.7353 287.05 48.362 287.05 47.956C287.05 47.5593 287.125 47.2163 287.274 46.927C287.428 46.633 287.643 46.3903 287.918 46.199C288.194 46.003 288.523 45.849 288.905 45.737C289.265 45.639 289.666 45.555 290.109 45.485C290.557 45.4103 291.01 45.3427 291.467 45.282C291.925 45.2213 292.352 45.163 292.748 45.107L292.3 45.366C292.314 44.694 292.179 44.197 291.894 43.875C291.614 43.553 291.129 43.392 290.438 43.392C289.981 43.392 289.58 43.497 289.234 43.707C288.894 43.9123 288.653 44.2483 288.513 44.715L287.33 44.358C287.512 43.6953 287.865 43.175 288.387 42.797C288.91 42.419 289.598 42.23 290.452 42.23C291.138 42.23 291.726 42.3537 292.216 42.601C292.711 42.8437 293.066 43.2123 293.28 43.707C293.388 43.9403 293.455 44.1947 293.483 44.47C293.511 44.7407 293.525 45.0253 293.525 45.324V50H292.419V48.187L292.678 48.355C292.394 48.9663 291.995 49.4283 291.481 49.741C290.973 50.0537 290.352 50.21 289.619 50.21ZM289.808 49.167C290.256 49.167 290.644 49.0877 290.97 48.929C291.302 48.7657 291.568 48.5533 291.768 48.292C291.969 48.026 292.1 47.7367 292.16 47.424C292.23 47.1907 292.268 46.9317 292.272 46.647C292.282 46.3577 292.286 46.136 292.286 45.982L292.72 46.171C292.314 46.227 291.915 46.2807 291.523 46.332C291.131 46.3833 290.76 46.4393 290.41 46.5C290.06 46.556 289.745 46.6237 289.465 46.703C289.26 46.7683 289.066 46.8523 288.884 46.955C288.707 47.0577 288.562 47.1907 288.45 47.354C288.343 47.5127 288.289 47.711 288.289 47.949C288.289 48.1543 288.341 48.3503 288.443 48.537C288.551 48.7237 288.714 48.8753 288.933 48.992C289.157 49.1087 289.449 49.167 289.808 49.167ZM299.566 50C299.118 50.0887 298.675 50.1237 298.236 50.105C297.802 50.091 297.415 50.0047 297.074 49.846C296.734 49.6827 296.475 49.4307 296.297 49.09C296.148 48.7913 296.066 48.4903 296.052 48.187C296.043 47.879 296.038 47.5313 296.038 47.144V40.34H297.284V47.088C297.284 47.396 297.287 47.6597 297.291 47.879C297.301 48.0983 297.35 48.2873 297.438 48.446C297.606 48.7447 297.872 48.9197 298.236 48.971C298.605 49.0223 299.048 49.0083 299.566 48.929V50ZM294.505 43.469V42.44H299.566V43.469H294.505ZM301.241 41.103V39.815H302.487V41.103H301.241ZM301.241 50V42.44H302.487V50H301.241ZM307.807 50.21C307.056 50.21 306.407 50.0397 305.861 49.699C305.32 49.3583 304.902 48.887 304.608 48.285C304.314 47.683 304.167 46.9923 304.167 46.213C304.167 45.4197 304.317 44.7243 304.615 44.127C304.914 43.5297 305.336 43.0653 305.882 42.734C306.428 42.398 307.07 42.23 307.807 42.23C308.563 42.23 309.214 42.4003 309.76 42.741C310.306 43.077 310.724 43.546 311.013 44.148C311.307 44.7453 311.454 45.4337 311.454 46.213C311.454 47.0017 311.307 47.697 311.013 48.299C310.719 48.8963 310.299 49.3653 309.753 49.706C309.207 50.042 308.559 50.21 307.807 50.21ZM307.807 49.027C308.591 49.027 309.175 48.7657 309.557 48.243C309.94 47.7203 310.131 47.0437 310.131 46.213C310.131 45.359 309.938 44.68 309.55 44.176C309.163 43.6673 308.582 43.413 307.807 43.413C307.28 43.413 306.846 43.532 306.505 43.77C306.165 44.008 305.91 44.337 305.742 44.757C305.574 45.177 305.49 45.6623 305.49 46.213C305.49 47.0623 305.686 47.7437 306.078 48.257C306.47 48.7703 307.047 49.027 307.807 49.027ZM318.379 50V46.213C318.379 45.8537 318.346 45.5083 318.281 45.177C318.22 44.8457 318.11 44.5493 317.952 44.288C317.798 44.022 317.588 43.812 317.322 43.658C317.06 43.504 316.729 43.427 316.328 43.427C316.015 43.427 315.73 43.4807 315.474 43.588C315.222 43.6907 315.005 43.8493 314.823 44.064C314.641 44.2787 314.498 44.5493 314.396 44.876C314.298 45.198 314.249 45.5783 314.249 46.017L313.43 45.765C313.43 45.0323 313.56 44.4047 313.822 43.882C314.088 43.3547 314.459 42.951 314.935 42.671C315.415 42.3863 315.98 42.244 316.629 42.244C317.119 42.244 317.536 42.321 317.882 42.475C318.227 42.629 318.514 42.8343 318.743 43.091C318.971 43.343 319.151 43.6277 319.282 43.945C319.412 44.2577 319.503 44.5773 319.555 44.904C319.611 45.226 319.639 45.5317 319.639 45.821V50H318.379ZM312.989 50V42.44H314.109V44.463H314.249V50H312.989Z" fill="#110000" fill-opacity="0.38"/>
<rect x="276.5" width="32" height="32" rx="16" fill="#D2D2D2"/>
<path d="M292.211 21.6875C294.469 21.6875 296.125 20.2969 296.125 18.4141V18.3984C296.125 16.7969 295.008 15.7734 293.367 15.6328V15.6016C294.773 15.3047 295.758 14.3516 295.758 12.9609V12.9453C295.758 11.2344 294.344 10.0391 292.195 10.0391C290.086 10.0391 288.633 11.2656 288.453 13.1016L288.445 13.1797H289.797L289.805 13.1016C289.922 11.9609 290.867 11.2578 292.195 11.2578C293.57 11.2578 294.344 11.9375 294.344 13.1172V13.1328C294.344 14.2578 293.406 15.0859 292.062 15.0859H290.711V16.2734H292.125C293.703 16.2734 294.695 17.0469 294.695 18.4297V18.4453C294.695 19.6406 293.688 20.4688 292.211 20.4688C290.711 20.4688 289.695 19.7031 289.578 18.5938L289.57 18.5156H288.219L288.227 18.6094C288.375 20.3906 289.883 21.6875 292.211 21.6875Z" fill="white"/>
</svg>
