<svg width="344" height="54" viewBox="0 0 344 54" fill="none" xmlns="http://www.w3.org/2000/svg">
<path d="M166 15.998L278 15.9981" stroke="#D2D2D2" stroke-width="2"/>
<path d="M54 15.998L173 15.9981" stroke="#2AACE3" stroke-width="2"/>
<path d="M32.8013 50.203L30.1133 47.529L30.8133 46.829L33.4873 49.503L32.8013 50.203ZM28.9653 50.21C27.962 50.21 27.115 49.9883 26.4243 49.545C25.7336 49.097 25.211 48.4787 24.8563 47.69C24.5016 46.9013 24.3243 45.9913 24.3243 44.96C24.3243 43.9287 24.5016 43.0187 24.8563 42.23C25.211 41.4413 25.7336 40.8253 26.4243 40.382C27.115 39.934 27.962 39.71 28.9653 39.71C29.9733 39.71 30.8203 39.934 31.5063 40.382C32.197 40.8253 32.7196 41.4413 33.0743 42.23C33.4336 43.0187 33.6133 43.9287 33.6133 44.96C33.6133 45.9913 33.4336 46.9013 33.0743 47.69C32.7196 48.4787 32.197 49.097 31.5063 49.545C30.8203 49.9883 29.9733 50.21 28.9653 50.21ZM28.9653 49.223C29.754 49.223 30.412 49.0433 30.9393 48.684C31.4666 48.3247 31.861 47.8253 32.1223 47.186C32.3883 46.542 32.5213 45.8 32.5213 44.96C32.5213 44.12 32.3883 43.3803 32.1223 42.741C31.861 42.1017 31.4666 41.6023 30.9393 41.243C30.412 40.8837 29.754 40.7017 28.9653 40.697C28.1766 40.697 27.521 40.8767 26.9983 41.236C26.4756 41.5953 26.0813 42.097 25.8153 42.741C25.554 43.3803 25.421 44.12 25.4163 44.96C25.4116 45.8 25.54 46.5397 25.8013 47.179C26.0673 47.8137 26.464 48.313 26.9913 48.677C27.5186 49.0363 28.1766 49.2183 28.9653 49.223ZM37.9062 50.189C37.4535 50.189 37.0568 50.119 36.7162 49.979C36.3802 49.839 36.0932 49.65 35.8552 49.412C35.6218 49.174 35.4328 48.9033 35.2882 48.6C35.1435 48.292 35.0385 47.9677 34.9732 47.627C34.9078 47.2817 34.8752 46.9387 34.8752 46.598V42.44H35.9112V46.297C35.9112 46.7123 35.9508 47.0973 36.0302 47.452C36.1095 47.8067 36.2355 48.117 36.4082 48.383C36.5855 48.6443 36.8118 48.8473 37.0872 48.992C37.3672 49.1367 37.7055 49.209 38.1022 49.209C38.4662 49.209 38.7858 49.146 39.0612 49.02C39.3412 48.894 39.5745 48.7143 39.7612 48.481C39.9525 48.243 40.0972 47.956 40.1952 47.62C40.2932 47.2793 40.3422 46.8967 40.3422 46.472L41.0702 46.633C41.0702 47.4077 40.9348 48.0587 40.6642 48.586C40.3935 49.1133 40.0202 49.5123 39.5442 49.783C39.0682 50.0537 38.5222 50.189 37.9062 50.189ZM40.4472 50V48.138H40.3422V42.44H41.3712V50H40.4472ZM45.4907 50.21C44.9213 50.21 44.443 50.1073 44.0557 49.902C43.673 49.6967 43.386 49.4237 43.1947 49.083C43.0033 48.7423 42.9077 48.3713 42.9077 47.97C42.9077 47.5593 42.9893 47.2093 43.1527 46.92C43.3207 46.626 43.547 46.3857 43.8317 46.199C44.121 46.0123 44.4547 45.87 44.8327 45.772C45.2153 45.6787 45.6377 45.597 46.0997 45.527C46.5663 45.4523 47.0213 45.3893 47.4647 45.338C47.9127 45.282 48.3047 45.2283 48.6407 45.177L48.2767 45.401C48.2907 44.6543 48.146 44.1013 47.8427 43.742C47.5393 43.3827 47.012 43.203 46.2607 43.203C45.7427 43.203 45.304 43.3197 44.9447 43.553C44.59 43.7863 44.3403 44.155 44.1957 44.659L43.1947 44.365C43.3673 43.6883 43.715 43.1633 44.2377 42.79C44.7603 42.4167 45.4393 42.23 46.2747 42.23C46.9653 42.23 47.551 42.3607 48.0317 42.622C48.517 42.8787 48.86 43.252 49.0607 43.742C49.154 43.9613 49.2147 44.2063 49.2427 44.477C49.2707 44.7477 49.2847 45.023 49.2847 45.303V50H48.3677V48.103L48.6337 48.215C48.377 48.8637 47.978 49.3583 47.4367 49.699C46.8953 50.0397 46.2467 50.21 45.4907 50.21ZM45.6097 49.321C46.0903 49.321 46.5103 49.2347 46.8697 49.062C47.229 48.8893 47.5183 48.6537 47.7377 48.355C47.957 48.0517 48.0993 47.711 48.1647 47.333C48.2207 47.0903 48.251 46.8243 48.2557 46.535C48.2603 46.241 48.2627 46.0217 48.2627 45.877L48.6547 46.08C48.3047 46.1267 47.9243 46.1733 47.5137 46.22C47.1077 46.2667 46.7063 46.3203 46.3097 46.381C45.9177 46.4417 45.563 46.514 45.2457 46.598C45.031 46.6587 44.8233 46.745 44.6227 46.857C44.422 46.9643 44.2563 47.109 44.1257 47.291C43.9997 47.473 43.9367 47.6993 43.9367 47.97C43.9367 48.1893 43.9903 48.4017 44.0977 48.607C44.2097 48.8123 44.387 48.9827 44.6297 49.118C44.877 49.2533 45.2037 49.321 45.6097 49.321ZM56.567 50V46.143C56.567 45.723 56.5273 45.338 56.448 44.988C56.3686 44.6333 56.2403 44.3253 56.063 44.064C55.8903 43.798 55.664 43.5927 55.384 43.448C55.1086 43.3033 54.7726 43.231 54.376 43.231C54.012 43.231 53.69 43.294 53.41 43.42C53.1346 43.546 52.9013 43.728 52.71 43.966C52.5233 44.1993 52.381 44.484 52.283 44.82C52.185 45.156 52.136 45.5387 52.136 45.968L51.408 45.807C51.408 45.0323 51.5433 44.3813 51.814 43.854C52.0846 43.3267 52.458 42.9277 52.934 42.657C53.41 42.3863 53.956 42.251 54.572 42.251C55.0246 42.251 55.419 42.321 55.755 42.461C56.0956 42.601 56.3826 42.79 56.616 43.028C56.854 43.266 57.0453 43.539 57.19 43.847C57.3346 44.1503 57.4396 44.4747 57.505 44.82C57.5703 45.1607 57.603 45.5013 57.603 45.842V50H56.567ZM51.1 50V42.44H52.031V44.302H52.136V50H51.1ZM63.5355 50C63.1108 50.0887 62.6908 50.1237 62.2755 50.105C61.8648 50.0863 61.4961 49.9977 61.1695 49.839C60.8475 49.6803 60.6025 49.433 60.4345 49.097C60.2991 48.817 60.2245 48.5347 60.2105 48.25C60.2011 47.9607 60.1965 47.6317 60.1965 47.263V40.34H61.2185V47.221C61.2185 47.5383 61.2208 47.8043 61.2255 48.019C61.2348 48.229 61.2838 48.4157 61.3725 48.579C61.5405 48.8917 61.8065 49.0783 62.1705 49.139C62.5391 49.1997 62.9941 49.1857 63.5355 49.097V50ZM58.5795 43.322V42.44H63.5355V43.322H58.5795ZM65.1649 41.005V39.85H66.1939V41.005H65.1649ZM65.1649 50V42.44H66.1939V50H65.1649ZM72.4085 50C71.9838 50.0887 71.5638 50.1237 71.1485 50.105C70.7378 50.0863 70.3692 49.9977 70.0425 49.839C69.7205 49.6803 69.4755 49.433 69.3075 49.097C69.1722 48.817 69.0975 48.5347 69.0835 48.25C69.0742 47.9607 69.0695 47.6317 69.0695 47.263V40.34H70.0915V47.221C70.0915 47.5383 70.0938 47.8043 70.0985 48.019C70.1078 48.229 70.1568 48.4157 70.2455 48.579C70.4135 48.8917 70.6795 49.0783 71.0435 49.139C71.4122 49.1997 71.8672 49.1857 72.4085 49.097V50ZM67.4525 43.322V42.44H72.4085V43.322H67.4525ZM74.7709 53.36L76.2339 49.391L76.2549 50.567L72.9439 42.44H74.0359L76.7519 49.237H76.3039L78.8099 42.44H79.8599L75.7999 53.36H74.7709Z" fill="#323232"/>
<rect x="36.5" width="32" height="32" rx="16" fill="#81C784"/>
<g clip-path="url(#clip0_7698_13668)">
<path d="M49.4984 20.1996L45.2984 15.9996L43.8984 17.3996L49.4984 22.9996L61.4984 10.9996L60.0984 9.59961L49.4984 20.1996Z" fill="white"/>
</g>
<path d="M145.001 50V39.92H148.214C148.298 39.92 148.463 39.9223 148.711 39.927C148.963 39.9317 149.205 39.948 149.439 39.976C150.237 40.0787 150.911 40.3633 151.462 40.83C152.017 41.292 152.437 41.8823 152.722 42.601C153.006 43.3197 153.149 44.106 153.149 44.96C153.149 45.814 153.006 46.6003 152.722 47.319C152.437 48.0377 152.017 48.6303 151.462 49.097C150.911 49.559 150.237 49.8413 149.439 49.944C149.21 49.972 148.97 49.9883 148.718 49.993C148.466 49.9977 148.298 50 148.214 50H145.001ZM146.716 48.411H148.214C148.354 48.411 148.531 48.4063 148.746 48.397C148.965 48.3877 149.159 48.3667 149.327 48.334C149.803 48.2453 150.19 48.033 150.489 47.697C150.787 47.361 151.007 46.9527 151.147 46.472C151.291 45.9913 151.364 45.4873 151.364 44.96C151.364 44.414 151.291 43.9007 151.147 43.42C151.002 42.9393 150.778 42.5357 150.475 42.209C150.176 41.8823 149.793 41.6747 149.327 41.586C149.159 41.5487 148.965 41.5277 148.746 41.523C148.531 41.5137 148.354 41.509 148.214 41.509H146.716V48.411ZM158.24 50.21C157.475 50.21 156.803 50.0443 156.224 49.713C155.646 49.3817 155.193 48.922 154.866 48.334C154.544 47.746 154.383 47.0693 154.383 46.304C154.383 45.478 154.542 44.7617 154.859 44.155C155.177 43.5437 155.618 43.07 156.182 42.734C156.747 42.398 157.4 42.23 158.142 42.23C158.926 42.23 159.591 42.4143 160.137 42.783C160.688 43.147 161.096 43.6627 161.362 44.33C161.628 44.9973 161.729 45.7837 161.663 46.689H159.99V46.073C159.986 45.2517 159.841 44.652 159.556 44.274C159.272 43.896 158.824 43.707 158.212 43.707C157.522 43.707 157.008 43.9217 156.672 44.351C156.336 44.7757 156.168 45.3987 156.168 46.22C156.168 46.9853 156.336 47.578 156.672 47.998C157.008 48.418 157.498 48.628 158.142 48.628C158.558 48.628 158.915 48.537 159.213 48.355C159.517 48.1683 159.75 47.9 159.913 47.55L161.579 48.054C161.29 48.7353 160.842 49.265 160.235 49.643C159.633 50.021 158.968 50.21 158.24 50.21ZM155.636 46.689V45.415H160.837V46.689H155.636ZM172.099 50V45.408C172.099 44.89 171.971 44.4863 171.714 44.197C171.457 43.903 171.11 43.756 170.671 43.756C170.4 43.756 170.158 43.819 169.943 43.945C169.728 44.0663 169.558 44.2483 169.432 44.491C169.306 44.729 169.243 45.0137 169.243 45.345L168.494 44.904C168.489 44.3813 168.606 43.9217 168.844 43.525C169.087 43.1237 169.413 42.811 169.824 42.587C170.235 42.363 170.692 42.251 171.196 42.251C172.031 42.251 172.671 42.503 173.114 43.007C173.562 43.5063 173.786 44.1643 173.786 44.981V50H172.099ZM163.006 50V42.44H164.497V44.785H164.707V50H163.006ZM167.563 50V45.429C167.563 44.9017 167.435 44.491 167.178 44.197C166.921 43.903 166.571 43.756 166.128 43.756C165.699 43.756 165.353 43.903 165.092 44.197C164.835 44.491 164.707 44.8737 164.707 45.345L163.951 44.841C163.951 44.351 164.072 43.91 164.315 43.518C164.558 43.126 164.884 42.818 165.295 42.594C165.71 42.3653 166.175 42.251 166.688 42.251C167.253 42.251 167.724 42.3723 168.102 42.615C168.485 42.853 168.769 43.1797 168.956 43.595C169.147 44.0057 169.243 44.47 169.243 44.988V50H167.563ZM177.726 50.21C177.18 50.21 176.718 50.1073 176.34 49.902C175.962 49.692 175.675 49.4143 175.479 49.069C175.288 48.7237 175.192 48.3433 175.192 47.928C175.192 47.564 175.253 47.2373 175.374 46.948C175.495 46.654 175.682 46.402 175.934 46.192C176.186 45.9773 176.513 45.8023 176.914 45.667C177.217 45.569 177.572 45.4803 177.978 45.401C178.389 45.3217 178.832 45.2493 179.308 45.184C179.789 45.114 180.29 45.0393 180.813 44.96L180.211 45.303C180.216 44.7803 180.099 44.3953 179.861 44.148C179.623 43.9007 179.222 43.777 178.657 43.777C178.316 43.777 177.987 43.8563 177.67 44.015C177.353 44.1737 177.131 44.4467 177.005 44.834L175.465 44.351C175.652 43.7117 176.006 43.1983 176.529 42.811C177.056 42.4237 177.766 42.23 178.657 42.23C179.329 42.23 179.919 42.3397 180.428 42.559C180.941 42.7783 181.322 43.1377 181.569 43.637C181.704 43.903 181.786 44.176 181.814 44.456C181.842 44.7313 181.856 45.0323 181.856 45.359V50H180.379V48.362L180.624 48.628C180.283 49.174 179.884 49.5753 179.427 49.832C178.974 50.084 178.407 50.21 177.726 50.21ZM178.062 48.866C178.445 48.866 178.771 48.7983 179.042 48.663C179.313 48.5277 179.527 48.362 179.686 48.166C179.849 47.97 179.959 47.7857 180.015 47.613C180.104 47.3983 180.153 47.1533 180.162 46.878C180.176 46.598 180.183 46.3717 180.183 46.199L180.701 46.353C180.192 46.4323 179.756 46.5023 179.392 46.563C179.028 46.6237 178.715 46.682 178.454 46.738C178.193 46.7893 177.962 46.8477 177.761 46.913C177.565 46.983 177.399 47.0647 177.264 47.158C177.129 47.2513 177.024 47.3587 176.949 47.48C176.879 47.6013 176.844 47.7437 176.844 47.907C176.844 48.0937 176.891 48.2593 176.984 48.404C177.077 48.544 177.213 48.656 177.39 48.74C177.572 48.824 177.796 48.866 178.062 48.866ZM188.907 50V46.36C188.907 46.122 188.891 45.8583 188.858 45.569C188.826 45.2797 188.749 45.002 188.627 44.736C188.511 44.4653 188.333 44.2437 188.095 44.071C187.862 43.8983 187.545 43.812 187.143 43.812C186.929 43.812 186.716 43.847 186.506 43.917C186.296 43.987 186.105 44.1083 185.932 44.281C185.764 44.449 185.629 44.6823 185.526 44.981C185.424 45.275 185.372 45.653 185.372 46.115L184.371 45.688C184.371 45.044 184.495 44.4607 184.742 43.938C184.994 43.4153 185.363 43 185.848 42.692C186.334 42.3793 186.931 42.223 187.64 42.223C188.2 42.223 188.662 42.3163 189.026 42.503C189.39 42.6897 189.68 42.9277 189.894 43.217C190.109 43.5063 190.268 43.8143 190.37 44.141C190.473 44.4677 190.538 44.778 190.566 45.072C190.599 45.3613 190.615 45.597 190.615 45.779V50H188.907ZM183.664 50V42.44H185.169V44.785H185.372V50H183.664ZM195.35 50.21C194.655 50.21 194.048 50.035 193.53 49.685C193.012 49.335 192.611 48.859 192.326 48.257C192.041 47.655 191.899 46.976 191.899 46.22C191.899 45.4547 192.041 44.7733 192.326 44.176C192.615 43.574 193.024 43.1003 193.551 42.755C194.078 42.405 194.699 42.23 195.413 42.23C196.132 42.23 196.734 42.405 197.219 42.755C197.709 43.1003 198.08 43.574 198.332 44.176C198.584 44.778 198.71 45.4593 198.71 46.22C198.71 46.9713 198.584 47.6503 198.332 48.257C198.08 48.859 197.704 49.335 197.205 49.685C196.706 50.035 196.087 50.21 195.35 50.21ZM195.609 48.698C196.062 48.698 196.426 48.5953 196.701 48.39C196.981 48.18 197.184 47.8883 197.31 47.515C197.441 47.1417 197.506 46.71 197.506 46.22C197.506 45.7253 197.441 45.2937 197.31 44.925C197.184 44.5517 196.986 44.2623 196.715 44.057C196.444 43.847 196.094 43.742 195.665 43.742C195.212 43.742 194.839 43.854 194.545 44.078C194.251 44.2973 194.034 44.596 193.894 44.974C193.754 45.3473 193.684 45.7627 193.684 46.22C193.684 46.682 193.752 47.102 193.887 47.48C194.027 47.8533 194.239 48.1497 194.524 48.369C194.809 48.5883 195.17 48.698 195.609 48.698ZM197.506 50V44.694H197.296V39.92H198.997V50H197.506Z" fill="#323232"/>
<rect x="157" width="32" height="32" rx="16" fill="#2AACE3"/>
<path d="M168.914 21.5H176.352V20.25H170.844V20.2188L173.523 17.4688C175.594 15.3516 176.164 14.4219 176.164 13.1875V13.1719C176.164 11.4062 174.672 10.0391 172.633 10.0391C170.531 10.0391 168.844 11.4844 168.844 13.4375V13.4844H170.203V13.4453C170.203 12.2344 171.25 11.2656 172.656 11.2656C173.883 11.2656 174.75 12.0938 174.758 13.2422V13.2578C174.758 14.1953 174.406 14.8047 172.883 16.3906L168.914 20.5312V21.5Z" fill="white"/>
<path d="M264.501 50V39.92H267.609C267.712 39.92 267.892 39.9223 268.148 39.927C268.405 39.9317 268.65 39.9503 268.883 39.983C269.663 40.0857 270.314 40.3703 270.836 40.837C271.364 41.299 271.76 41.887 272.026 42.601C272.292 43.315 272.425 44.1013 272.425 44.96C272.425 45.8187 272.292 46.605 272.026 47.319C271.76 48.033 271.364 48.6233 270.836 49.09C270.314 49.552 269.663 49.8343 268.883 49.937C268.65 49.965 268.403 49.9837 268.141 49.993C267.885 49.9977 267.707 50 267.609 50H264.501ZM265.782 48.81H267.609C267.787 48.81 267.985 48.8053 268.204 48.796C268.424 48.782 268.615 48.761 268.778 48.733C269.329 48.6303 269.775 48.3993 270.115 48.04C270.456 47.6807 270.706 47.2327 270.864 46.696C271.023 46.1593 271.102 45.5807 271.102 44.96C271.102 44.3253 271.021 43.7397 270.857 43.203C270.699 42.6663 270.449 42.2207 270.108 41.866C269.768 41.5113 269.324 41.285 268.778 41.187C268.615 41.1543 268.421 41.1333 268.197 41.124C267.973 41.1147 267.777 41.11 267.609 41.11H265.782V48.81ZM276.901 50.196C276.415 50.196 275.998 50.119 275.648 49.965C275.302 49.811 275.015 49.6057 274.787 49.349C274.558 49.0923 274.378 48.8077 274.248 48.495C274.117 48.1823 274.024 47.8627 273.968 47.536C273.916 47.2093 273.891 46.9037 273.891 46.619V42.44H275.151V46.227C275.151 46.5817 275.183 46.9247 275.249 47.256C275.314 47.5873 275.424 47.886 275.578 48.152C275.736 48.418 275.946 48.628 276.208 48.782C276.474 48.936 276.805 49.013 277.202 49.013C277.514 49.013 277.799 48.9593 278.056 48.852C278.312 48.7447 278.532 48.586 278.714 48.376C278.896 48.1613 279.036 47.8907 279.134 47.564C279.232 47.2373 279.281 46.857 279.281 46.423L280.1 46.675C280.1 47.403 279.967 48.0307 279.701 48.558C279.439 49.0853 279.068 49.4913 278.588 49.776C278.112 50.056 277.549 50.196 276.901 50.196ZM279.421 50V47.977H279.281V42.44H280.534V50H279.421ZM282.494 50V42.44H283.607V44.267L283.425 44.029C283.513 43.7957 283.628 43.581 283.768 43.385C283.912 43.189 284.073 43.028 284.251 42.902C284.447 42.7433 284.668 42.622 284.916 42.538C285.163 42.454 285.415 42.405 285.672 42.391C285.928 42.3723 286.169 42.3887 286.393 42.44V43.609C286.131 43.539 285.844 43.5203 285.532 43.553C285.219 43.5857 284.93 43.7 284.664 43.896C284.421 44.0687 284.232 44.2787 284.097 44.526C283.966 44.7733 283.875 45.0417 283.824 45.331C283.772 45.6157 283.747 45.9073 283.747 46.206V50H282.494ZM289.619 50.21C289.055 50.21 288.581 50.1073 288.198 49.902C287.82 49.692 287.533 49.4167 287.337 49.076C287.146 48.7353 287.05 48.362 287.05 47.956C287.05 47.5593 287.125 47.2163 287.274 46.927C287.428 46.633 287.643 46.3903 287.918 46.199C288.194 46.003 288.523 45.849 288.905 45.737C289.265 45.639 289.666 45.555 290.109 45.485C290.557 45.4103 291.01 45.3427 291.467 45.282C291.925 45.2213 292.352 45.163 292.748 45.107L292.3 45.366C292.314 44.694 292.179 44.197 291.894 43.875C291.614 43.553 291.129 43.392 290.438 43.392C289.981 43.392 289.58 43.497 289.234 43.707C288.894 43.9123 288.653 44.2483 288.513 44.715L287.33 44.358C287.512 43.6953 287.865 43.175 288.387 42.797C288.91 42.419 289.598 42.23 290.452 42.23C291.138 42.23 291.726 42.3537 292.216 42.601C292.711 42.8437 293.066 43.2123 293.28 43.707C293.388 43.9403 293.455 44.1947 293.483 44.47C293.511 44.7407 293.525 45.0253 293.525 45.324V50H292.419V48.187L292.678 48.355C292.394 48.9663 291.995 49.4283 291.481 49.741C290.973 50.0537 290.352 50.21 289.619 50.21ZM289.808 49.167C290.256 49.167 290.644 49.0877 290.97 48.929C291.302 48.7657 291.568 48.5533 291.768 48.292C291.969 48.026 292.1 47.7367 292.16 47.424C292.23 47.1907 292.268 46.9317 292.272 46.647C292.282 46.3577 292.286 46.136 292.286 45.982L292.72 46.171C292.314 46.227 291.915 46.2807 291.523 46.332C291.131 46.3833 290.76 46.4393 290.41 46.5C290.06 46.556 289.745 46.6237 289.465 46.703C289.26 46.7683 289.066 46.8523 288.884 46.955C288.707 47.0577 288.562 47.1907 288.45 47.354C288.343 47.5127 288.289 47.711 288.289 47.949C288.289 48.1543 288.341 48.3503 288.443 48.537C288.551 48.7237 288.714 48.8753 288.933 48.992C289.157 49.1087 289.449 49.167 289.808 49.167ZM299.566 50C299.118 50.0887 298.675 50.1237 298.236 50.105C297.802 50.091 297.415 50.0047 297.074 49.846C296.734 49.6827 296.475 49.4307 296.297 49.09C296.148 48.7913 296.066 48.4903 296.052 48.187C296.043 47.879 296.038 47.5313 296.038 47.144V40.34H297.284V47.088C297.284 47.396 297.287 47.6597 297.291 47.879C297.301 48.0983 297.35 48.2873 297.438 48.446C297.606 48.7447 297.872 48.9197 298.236 48.971C298.605 49.0223 299.048 49.0083 299.566 48.929V50ZM294.505 43.469V42.44H299.566V43.469H294.505ZM301.241 41.103V39.815H302.487V41.103H301.241ZM301.241 50V42.44H302.487V50H301.241ZM307.807 50.21C307.056 50.21 306.407 50.0397 305.861 49.699C305.32 49.3583 304.902 48.887 304.608 48.285C304.314 47.683 304.167 46.9923 304.167 46.213C304.167 45.4197 304.317 44.7243 304.615 44.127C304.914 43.5297 305.336 43.0653 305.882 42.734C306.428 42.398 307.07 42.23 307.807 42.23C308.563 42.23 309.214 42.4003 309.76 42.741C310.306 43.077 310.724 43.546 311.013 44.148C311.307 44.7453 311.454 45.4337 311.454 46.213C311.454 47.0017 311.307 47.697 311.013 48.299C310.719 48.8963 310.299 49.3653 309.753 49.706C309.207 50.042 308.559 50.21 307.807 50.21ZM307.807 49.027C308.591 49.027 309.175 48.7657 309.557 48.243C309.94 47.7203 310.131 47.0437 310.131 46.213C310.131 45.359 309.938 44.68 309.55 44.176C309.163 43.6673 308.582 43.413 307.807 43.413C307.28 43.413 306.846 43.532 306.505 43.77C306.165 44.008 305.91 44.337 305.742 44.757C305.574 45.177 305.49 45.6623 305.49 46.213C305.49 47.0623 305.686 47.7437 306.078 48.257C306.47 48.7703 307.047 49.027 307.807 49.027ZM318.379 50V46.213C318.379 45.8537 318.346 45.5083 318.281 45.177C318.22 44.8457 318.11 44.5493 317.952 44.288C317.798 44.022 317.588 43.812 317.322 43.658C317.06 43.504 316.729 43.427 316.328 43.427C316.015 43.427 315.73 43.4807 315.474 43.588C315.222 43.6907 315.005 43.8493 314.823 44.064C314.641 44.2787 314.498 44.5493 314.396 44.876C314.298 45.198 314.249 45.5783 314.249 46.017L313.43 45.765C313.43 45.0323 313.56 44.4047 313.822 43.882C314.088 43.3547 314.459 42.951 314.935 42.671C315.415 42.3863 315.98 42.244 316.629 42.244C317.119 42.244 317.536 42.321 317.882 42.475C318.227 42.629 318.514 42.8343 318.743 43.091C318.971 43.343 319.151 43.6277 319.282 43.945C319.412 44.2577 319.503 44.5773 319.555 44.904C319.611 45.226 319.639 45.5317 319.639 45.821V50H318.379ZM312.989 50V42.44H314.109V44.463H314.249V50H312.989Z" fill="#110000" fill-opacity="0.38"/>
<rect x="276.5" width="32" height="32" rx="16" fill="#D2D2D2"/>
<path d="M292.211 21.6875C294.469 21.6875 296.125 20.2969 296.125 18.4141V18.3984C296.125 16.7969 295.008 15.7734 293.367 15.6328V15.6016C294.773 15.3047 295.758 14.3516 295.758 12.9609V12.9453C295.758 11.2344 294.344 10.0391 292.195 10.0391C290.086 10.0391 288.633 11.2656 288.453 13.1016L288.445 13.1797H289.797L289.805 13.1016C289.922 11.9609 290.867 11.2578 292.195 11.2578C293.57 11.2578 294.344 11.9375 294.344 13.1172V13.1328C294.344 14.2578 293.406 15.0859 292.062 15.0859H290.711V16.2734H292.125C293.703 16.2734 294.695 17.0469 294.695 18.4297V18.4453C294.695 19.6406 293.688 20.4688 292.211 20.4688C290.711 20.4688 289.695 19.7031 289.578 18.5938L289.57 18.5156H288.219L288.227 18.6094C288.375 20.3906 289.883 21.6875 292.211 21.6875Z" fill="white"/>
<defs>
<clipPath id="clip0_7698_13668">
<rect width="24" height="24" fill="white" transform="translate(40.5 4)"/>
</clipPath>
</defs>
</svg>
