<svg width="344" height="54" viewBox="0 0 344 54" fill="none" xmlns="http://www.w3.org/2000/svg">
<path d="M166 15.998L278 15.9981" stroke="#2AACE3" stroke-width="2"/>
<path d="M54 15.998L173 15.9981" stroke="#2AACE3" stroke-width="2"/>
<path d="M32.8013 50.203L30.1133 47.529L30.8133 46.829L33.4873 49.503L32.8013 50.203ZM28.9653 50.21C27.962 50.21 27.115 49.9883 26.4243 49.545C25.7336 49.097 25.211 48.4787 24.8563 47.69C24.5016 46.9013 24.3243 45.9913 24.3243 44.96C24.3243 43.9287 24.5016 43.0187 24.8563 42.23C25.211 41.4413 25.7336 40.8253 26.4243 40.382C27.115 39.934 27.962 39.71 28.9653 39.71C29.9733 39.71 30.8203 39.934 31.5063 40.382C32.197 40.8253 32.7196 41.4413 33.0743 42.23C33.4336 43.0187 33.6133 43.9287 33.6133 44.96C33.6133 45.9913 33.4336 46.9013 33.0743 47.69C32.7196 48.4787 32.197 49.097 31.5063 49.545C30.8203 49.9883 29.9733 50.21 28.9653 50.21ZM28.9653 49.223C29.754 49.223 30.412 49.0433 30.9393 48.684C31.4666 48.3247 31.861 47.8253 32.1223 47.186C32.3883 46.542 32.5213 45.8 32.5213 44.96C32.5213 44.12 32.3883 43.3803 32.1223 42.741C31.861 42.1017 31.4666 41.6023 30.9393 41.243C30.412 40.8837 29.754 40.7017 28.9653 40.697C28.1766 40.697 27.521 40.8767 26.9983 41.236C26.4756 41.5953 26.0813 42.097 25.8153 42.741C25.554 43.3803 25.421 44.12 25.4163 44.96C25.4116 45.8 25.54 46.5397 25.8013 47.179C26.0673 47.8137 26.464 48.313 26.9913 48.677C27.5186 49.0363 28.1766 49.2183 28.9653 49.223ZM37.9062 50.189C37.4535 50.189 37.0568 50.119 36.7162 49.979C36.3802 49.839 36.0932 49.65 35.8552 49.412C35.6218 49.174 35.4328 48.9033 35.2882 48.6C35.1435 48.292 35.0385 47.9677 34.9732 47.627C34.9078 47.2817 34.8752 46.9387 34.8752 46.598V42.44H35.9112V46.297C35.9112 46.7123 35.9508 47.0973 36.0302 47.452C36.1095 47.8067 36.2355 48.117 36.4082 48.383C36.5855 48.6443 36.8118 48.8473 37.0872 48.992C37.3672 49.1367 37.7055 49.209 38.1022 49.209C38.4662 49.209 38.7858 49.146 39.0612 49.02C39.3412 48.894 39.5745 48.7143 39.7612 48.481C39.9525 48.243 40.0972 47.956 40.1952 47.62C40.2932 47.2793 40.3422 46.8967 40.3422 46.472L41.0702 46.633C41.0702 47.4077 40.9348 48.0587 40.6642 48.586C40.3935 49.1133 40.0202 49.5123 39.5442 49.783C39.0682 50.0537 38.5222 50.189 37.9062 50.189ZM40.4472 50V48.138H40.3422V42.44H41.3712V50H40.4472ZM45.4907 50.21C44.9213 50.21 44.443 50.1073 44.0557 49.902C43.673 49.6967 43.386 49.4237 43.1947 49.083C43.0033 48.7423 42.9077 48.3713 42.9077 47.97C42.9077 47.5593 42.9893 47.2093 43.1527 46.92C43.3207 46.626 43.547 46.3857 43.8317 46.199C44.121 46.0123 44.4547 45.87 44.8327 45.772C45.2153 45.6787 45.6377 45.597 46.0997 45.527C46.5663 45.4523 47.0213 45.3893 47.4647 45.338C47.9127 45.282 48.3047 45.2283 48.6407 45.177L48.2767 45.401C48.2907 44.6543 48.146 44.1013 47.8427 43.742C47.5393 43.3827 47.012 43.203 46.2607 43.203C45.7427 43.203 45.304 43.3197 44.9447 43.553C44.59 43.7863 44.3403 44.155 44.1957 44.659L43.1947 44.365C43.3673 43.6883 43.715 43.1633 44.2377 42.79C44.7603 42.4167 45.4393 42.23 46.2747 42.23C46.9653 42.23 47.551 42.3607 48.0317 42.622C48.517 42.8787 48.86 43.252 49.0607 43.742C49.154 43.9613 49.2147 44.2063 49.2427 44.477C49.2707 44.7477 49.2847 45.023 49.2847 45.303V50H48.3677V48.103L48.6337 48.215C48.377 48.8637 47.978 49.3583 47.4367 49.699C46.8953 50.0397 46.2467 50.21 45.4907 50.21ZM45.6097 49.321C46.0903 49.321 46.5103 49.2347 46.8697 49.062C47.229 48.8893 47.5183 48.6537 47.7377 48.355C47.957 48.0517 48.0993 47.711 48.1647 47.333C48.2207 47.0903 48.251 46.8243 48.2557 46.535C48.2603 46.241 48.2627 46.0217 48.2627 45.877L48.6547 46.08C48.3047 46.1267 47.9243 46.1733 47.5137 46.22C47.1077 46.2667 46.7063 46.3203 46.3097 46.381C45.9177 46.4417 45.563 46.514 45.2457 46.598C45.031 46.6587 44.8233 46.745 44.6227 46.857C44.422 46.9643 44.2563 47.109 44.1257 47.291C43.9997 47.473 43.9367 47.6993 43.9367 47.97C43.9367 48.1893 43.9903 48.4017 44.0977 48.607C44.2097 48.8123 44.387 48.9827 44.6297 49.118C44.877 49.2533 45.2037 49.321 45.6097 49.321ZM56.567 50V46.143C56.567 45.723 56.5273 45.338 56.448 44.988C56.3686 44.6333 56.2403 44.3253 56.063 44.064C55.8903 43.798 55.664 43.5927 55.384 43.448C55.1086 43.3033 54.7726 43.231 54.376 43.231C54.012 43.231 53.69 43.294 53.41 43.42C53.1346 43.546 52.9013 43.728 52.71 43.966C52.5233 44.1993 52.381 44.484 52.283 44.82C52.185 45.156 52.136 45.5387 52.136 45.968L51.408 45.807C51.408 45.0323 51.5433 44.3813 51.814 43.854C52.0846 43.3267 52.458 42.9277 52.934 42.657C53.41 42.3863 53.956 42.251 54.572 42.251C55.0246 42.251 55.419 42.321 55.755 42.461C56.0956 42.601 56.3826 42.79 56.616 43.028C56.854 43.266 57.0453 43.539 57.19 43.847C57.3346 44.1503 57.4396 44.4747 57.505 44.82C57.5703 45.1607 57.603 45.5013 57.603 45.842V50H56.567ZM51.1 50V42.44H52.031V44.302H52.136V50H51.1ZM63.5355 50C63.1108 50.0887 62.6908 50.1237 62.2755 50.105C61.8648 50.0863 61.4961 49.9977 61.1695 49.839C60.8475 49.6803 60.6025 49.433 60.4345 49.097C60.2991 48.817 60.2245 48.5347 60.2105 48.25C60.2011 47.9607 60.1965 47.6317 60.1965 47.263V40.34H61.2185V47.221C61.2185 47.5383 61.2208 47.8043 61.2255 48.019C61.2348 48.229 61.2838 48.4157 61.3725 48.579C61.5405 48.8917 61.8065 49.0783 62.1705 49.139C62.5391 49.1997 62.9941 49.1857 63.5355 49.097V50ZM58.5795 43.322V42.44H63.5355V43.322H58.5795ZM65.1649 41.005V39.85H66.1939V41.005H65.1649ZM65.1649 50V42.44H66.1939V50H65.1649ZM72.4085 50C71.9838 50.0887 71.5638 50.1237 71.1485 50.105C70.7378 50.0863 70.3692 49.9977 70.0425 49.839C69.7205 49.6803 69.4755 49.433 69.3075 49.097C69.1722 48.817 69.0975 48.5347 69.0835 48.25C69.0742 47.9607 69.0695 47.6317 69.0695 47.263V40.34H70.0915V47.221C70.0915 47.5383 70.0938 47.8043 70.0985 48.019C70.1078 48.229 70.1568 48.4157 70.2455 48.579C70.4135 48.8917 70.6795 49.0783 71.0435 49.139C71.4122 49.1997 71.8672 49.1857 72.4085 49.097V50ZM67.4525 43.322V42.44H72.4085V43.322H67.4525ZM74.7709 53.36L76.2339 49.391L76.2549 50.567L72.9439 42.44H74.0359L76.7519 49.237H76.3039L78.8099 42.44H79.8599L75.7999 53.36H74.7709Z" fill="#323232"/>
<rect x="36.5" width="32" height="32" rx="16" fill="#81C784"/>
<g clip-path="url(#clip0_8002_13333)">
<path d="M49.4984 20.1996L45.2984 15.9996L43.8984 17.3996L49.4984 22.9996L61.4984 10.9996L60.0984 9.59961L49.4984 20.1996Z" fill="white"/>
</g>
<path d="M146.176 50V39.92H149.235C149.343 39.92 149.525 39.9223 149.781 39.927C150.043 39.9317 150.292 39.9503 150.53 39.983C151.296 40.0903 151.935 40.375 152.448 40.837C152.962 41.299 153.347 41.887 153.603 42.601C153.86 43.315 153.988 44.1013 153.988 44.96C153.988 45.8187 153.86 46.605 153.603 47.319C153.347 48.033 152.962 48.621 152.448 49.083C151.935 49.545 151.296 49.8297 150.53 49.937C150.297 49.965 150.047 49.9837 149.781 49.993C149.515 49.9977 149.333 50 149.235 50H146.176ZM147.24 49.013H149.235C149.427 49.013 149.632 49.0083 149.851 48.999C150.075 48.985 150.267 48.9617 150.425 48.929C151.013 48.8263 151.487 48.5883 151.846 48.215C152.21 47.8417 152.476 47.375 152.644 46.815C152.812 46.2503 152.896 45.632 152.896 44.96C152.896 44.2833 152.812 43.6627 152.644 43.098C152.476 42.5333 152.21 42.0667 151.846 41.698C151.482 41.3293 151.009 41.0937 150.425 40.991C150.267 40.9583 150.073 40.9373 149.844 40.928C149.62 40.914 149.417 40.907 149.235 40.907H147.24V49.013ZM158.782 50.21C158.044 50.21 157.405 50.0467 156.864 49.72C156.327 49.3933 155.909 48.9337 155.611 48.341C155.312 47.7483 155.163 47.053 155.163 46.255C155.163 45.429 155.31 44.715 155.604 44.113C155.898 43.511 156.311 43.0467 156.843 42.72C157.379 42.3933 158.012 42.23 158.74 42.23C159.486 42.23 160.123 42.4027 160.651 42.748C161.178 43.0887 161.577 43.5787 161.848 44.218C162.118 44.8573 162.242 45.6203 162.219 46.507H161.169V46.143C161.15 45.163 160.938 44.4233 160.532 43.924C160.13 43.4247 159.542 43.175 158.768 43.175C157.956 43.175 157.333 43.4387 156.899 43.966C156.469 44.4933 156.255 45.2447 156.255 46.22C156.255 47.172 156.469 47.9117 156.899 48.439C157.333 48.9617 157.946 49.223 158.74 49.223C159.281 49.223 159.752 49.0993 160.154 48.852C160.56 48.6 160.879 48.2383 161.113 47.767L162.072 48.138C161.773 48.796 161.332 49.307 160.749 49.671C160.17 50.0303 159.514 50.21 158.782 50.21ZM155.891 46.507V45.646H161.666V46.507H155.891ZM172.583 50L172.59 45.037C172.59 44.4537 172.427 43.9963 172.1 43.665C171.778 43.329 171.367 43.161 170.868 43.161C170.583 43.161 170.306 43.2263 170.035 43.357C169.764 43.4877 169.54 43.6977 169.363 43.987C169.19 44.2763 169.104 44.6543 169.104 45.121L168.495 44.946C168.481 44.4047 168.586 43.931 168.81 43.525C169.039 43.119 169.351 42.804 169.748 42.58C170.149 42.3513 170.602 42.237 171.106 42.237C171.867 42.237 172.476 42.4727 172.933 42.944C173.39 43.4107 173.619 44.043 173.619 44.841L173.612 50H172.583ZM163.56 50V42.44H164.484V44.302H164.596V50H163.56ZM168.082 50L168.089 45.107C168.089 44.505 167.928 44.0313 167.606 43.686C167.289 43.336 166.869 43.161 166.346 43.161C165.823 43.161 165.401 43.3407 165.079 43.7C164.757 44.0547 164.596 44.5283 164.596 45.121L163.98 44.785C163.98 44.2997 164.094 43.8657 164.323 43.483C164.552 43.0957 164.864 42.7923 165.261 42.573C165.658 42.349 166.108 42.237 166.612 42.237C167.093 42.237 167.52 42.3397 167.893 42.545C168.271 42.7503 168.567 43.049 168.782 43.441C168.997 43.833 169.104 44.309 169.104 44.869L169.097 50H168.082ZM177.597 50.21C177.028 50.21 176.549 50.1073 176.162 49.902C175.779 49.6967 175.492 49.4237 175.301 49.083C175.11 48.7423 175.014 48.3713 175.014 47.97C175.014 47.5593 175.096 47.2093 175.259 46.92C175.427 46.626 175.653 46.3857 175.938 46.199C176.227 46.0123 176.561 45.87 176.939 45.772C177.322 45.6787 177.744 45.597 178.206 45.527C178.673 45.4523 179.128 45.3893 179.571 45.338C180.019 45.282 180.411 45.2283 180.747 45.177L180.383 45.401C180.397 44.6543 180.252 44.1013 179.949 43.742C179.646 43.3827 179.118 43.203 178.367 43.203C177.849 43.203 177.41 43.3197 177.051 43.553C176.696 43.7863 176.447 44.155 176.302 44.659L175.301 44.365C175.474 43.6883 175.821 43.1633 176.344 42.79C176.867 42.4167 177.546 42.23 178.381 42.23C179.072 42.23 179.657 42.3607 180.138 42.622C180.623 42.8787 180.966 43.252 181.167 43.742C181.26 43.9613 181.321 44.2063 181.349 44.477C181.377 44.7477 181.391 45.023 181.391 45.303V50H180.474V48.103L180.74 48.215C180.483 48.8637 180.084 49.3583 179.543 49.699C179.002 50.0397 178.353 50.21 177.597 50.21ZM177.716 49.321C178.197 49.321 178.617 49.2347 178.976 49.062C179.335 48.8893 179.625 48.6537 179.844 48.355C180.063 48.0517 180.206 47.711 180.271 47.333C180.327 47.0903 180.357 46.8243 180.362 46.535C180.367 46.241 180.369 46.0217 180.369 45.877L180.761 46.08C180.411 46.1267 180.031 46.1733 179.62 46.22C179.214 46.2667 178.813 46.3203 178.416 46.381C178.024 46.4417 177.669 46.514 177.352 46.598C177.137 46.6587 176.93 46.745 176.729 46.857C176.528 46.9643 176.363 47.109 176.232 47.291C176.106 47.473 176.043 47.6993 176.043 47.97C176.043 48.1893 176.097 48.4017 176.204 48.607C176.316 48.8123 176.493 48.9827 176.736 49.118C176.983 49.2533 177.31 49.321 177.716 49.321ZM188.673 50V46.143C188.673 45.723 188.634 45.338 188.554 44.988C188.475 44.6333 188.347 44.3253 188.169 44.064C187.997 43.798 187.77 43.5927 187.49 43.448C187.215 43.3033 186.879 43.231 186.482 43.231C186.118 43.231 185.796 43.294 185.516 43.42C185.241 43.546 185.008 43.728 184.816 43.966C184.63 44.1993 184.487 44.484 184.389 44.82C184.291 45.156 184.242 45.5387 184.242 45.968L183.514 45.807C183.514 45.0323 183.65 44.3813 183.92 43.854C184.191 43.3267 184.564 42.9277 185.04 42.657C185.516 42.3863 186.062 42.251 186.678 42.251C187.131 42.251 187.525 42.321 187.861 42.461C188.202 42.601 188.489 42.79 188.722 43.028C188.96 43.266 189.152 43.539 189.296 43.847C189.441 44.1503 189.546 44.4747 189.611 44.82C189.677 45.1607 189.709 45.5013 189.709 45.842V50H188.673ZM183.206 50V42.44H184.137V44.302H184.242V50H183.206ZM194.418 50.21C193.713 50.21 193.111 50.035 192.612 49.685C192.113 49.3303 191.73 48.852 191.464 48.25C191.198 47.648 191.065 46.969 191.065 46.213C191.065 45.4617 191.196 44.785 191.457 44.183C191.723 43.581 192.103 43.105 192.598 42.755C193.093 42.405 193.685 42.23 194.376 42.23C195.085 42.23 195.683 42.4027 196.168 42.748C196.653 43.0933 197.02 43.567 197.267 44.169C197.519 44.7663 197.645 45.4477 197.645 46.213C197.645 46.9643 197.521 47.6433 197.274 48.25C197.027 48.852 196.663 49.3303 196.182 49.685C195.701 50.035 195.113 50.21 194.418 50.21ZM194.523 49.251C195.06 49.251 195.503 49.1203 195.853 48.859C196.203 48.5977 196.464 48.2383 196.637 47.781C196.81 47.319 196.896 46.7963 196.896 46.213C196.896 45.6203 196.81 45.0977 196.637 44.645C196.464 44.1877 196.203 43.8307 195.853 43.574C195.508 43.3173 195.071 43.189 194.544 43.189C194.003 43.189 193.555 43.322 193.2 43.588C192.845 43.854 192.582 44.2157 192.409 44.673C192.241 45.1303 192.157 45.6437 192.157 46.213C192.157 46.787 192.243 47.305 192.416 47.767C192.593 48.2243 192.857 48.586 193.207 48.852C193.557 49.118 193.996 49.251 194.523 49.251ZM196.896 50V44.309H196.784V39.92H197.82V50H196.896Z" fill="#323232"/>
<rect x="158" width="32" height="32" rx="16" fill="#81C784"/>
<g clip-path="url(#clip1_8002_13333)">
<path d="M170.998 20.1996L166.798 15.9996L165.398 17.3996L170.998 22.9996L182.998 10.9996L181.598 9.59961L170.998 20.1996Z" fill="white"/>
</g>
<path d="M263.257 50V39.92H266.47C266.554 39.92 266.72 39.9223 266.967 39.927C267.219 39.9317 267.462 39.948 267.695 39.976C268.493 40.0787 269.168 40.3633 269.718 40.83C270.274 41.292 270.694 41.8823 270.978 42.601C271.263 43.3197 271.405 44.106 271.405 44.96C271.405 45.814 271.263 46.6003 270.978 47.319C270.694 48.0377 270.274 48.6303 269.718 49.097C269.168 49.559 268.493 49.8413 267.695 49.944C267.467 49.972 267.226 49.9883 266.974 49.993C266.722 49.9977 266.554 50 266.47 50H263.257ZM264.972 48.411H266.47C266.61 48.411 266.788 48.4063 267.002 48.397C267.222 48.3877 267.415 48.3667 267.583 48.334C268.059 48.2453 268.447 48.033 268.745 47.697C269.044 47.361 269.263 46.9527 269.403 46.472C269.548 45.9913 269.62 45.4873 269.62 44.96C269.62 44.414 269.548 43.9007 269.403 43.42C269.259 42.9393 269.035 42.5357 268.731 42.209C268.433 41.8823 268.05 41.6747 267.583 41.586C267.415 41.5487 267.222 41.5277 267.002 41.523C266.788 41.5137 266.61 41.509 266.47 41.509H264.972V48.411ZM275.895 50.217C275.335 50.217 274.873 50.1237 274.509 49.937C274.145 49.7503 273.856 49.5123 273.641 49.223C273.426 48.9337 273.268 48.6257 273.165 48.299C273.062 47.9723 272.995 47.6643 272.962 47.375C272.934 47.081 272.92 46.843 272.92 46.661V42.44H274.628V46.08C274.628 46.3133 274.644 46.577 274.677 46.871C274.71 47.1603 274.784 47.4403 274.901 47.711C275.022 47.977 275.2 48.1963 275.433 48.369C275.671 48.5417 275.991 48.628 276.392 48.628C276.607 48.628 276.819 48.593 277.029 48.523C277.239 48.453 277.428 48.334 277.596 48.166C277.769 47.9933 277.906 47.7577 278.009 47.459C278.112 47.1603 278.163 46.7823 278.163 46.325L279.164 46.752C279.164 47.396 279.038 47.9793 278.786 48.502C278.539 49.0247 278.172 49.4423 277.687 49.755C277.202 50.063 276.604 50.217 275.895 50.217ZM278.366 50V47.655H278.163V42.44H279.857V50H278.366ZM281.824 50V42.44H283.315V44.281L283.133 44.043C283.226 43.791 283.35 43.5623 283.504 43.357C283.662 43.147 283.851 42.9743 284.071 42.839C284.257 42.713 284.463 42.615 284.687 42.545C284.915 42.4703 285.149 42.426 285.387 42.412C285.625 42.3933 285.856 42.4027 286.08 42.44V44.015C285.856 43.9497 285.597 43.9287 285.303 43.952C285.013 43.9753 284.752 44.057 284.519 44.197C284.285 44.323 284.094 44.484 283.945 44.68C283.8 44.876 283.693 45.1 283.623 45.352C283.553 45.5993 283.518 45.8677 283.518 46.157V50H281.824ZM289.352 50.21C288.806 50.21 288.344 50.1073 287.966 49.902C287.588 49.692 287.301 49.4143 287.105 49.069C286.913 48.7237 286.818 48.3433 286.818 47.928C286.818 47.564 286.878 47.2373 287 46.948C287.121 46.654 287.308 46.402 287.56 46.192C287.812 45.9773 288.138 45.8023 288.54 45.667C288.843 45.569 289.198 45.4803 289.604 45.401C290.014 45.3217 290.458 45.2493 290.934 45.184C291.414 45.114 291.916 45.0393 292.439 44.96L291.837 45.303C291.841 44.7803 291.725 44.3953 291.487 44.148C291.249 43.9007 290.847 43.777 290.283 43.777C289.942 43.777 289.613 43.8563 289.296 44.015C288.978 44.1737 288.757 44.4467 288.631 44.834L287.091 44.351C287.277 43.7117 287.632 43.1983 288.155 42.811C288.682 42.4237 289.391 42.23 290.283 42.23C290.955 42.23 291.545 42.3397 292.054 42.559C292.567 42.7783 292.947 43.1377 293.195 43.637C293.33 43.903 293.412 44.176 293.44 44.456C293.468 44.7313 293.482 45.0323 293.482 45.359V50H292.005V48.362L292.25 48.628C291.909 49.174 291.51 49.5753 291.053 49.832C290.6 50.084 290.033 50.21 289.352 50.21ZM289.688 48.866C290.07 48.866 290.397 48.7983 290.668 48.663C290.938 48.5277 291.153 48.362 291.312 48.166C291.475 47.97 291.585 47.7857 291.641 47.613C291.729 47.3983 291.778 47.1533 291.788 46.878C291.802 46.598 291.809 46.3717 291.809 46.199L292.327 46.353C291.818 46.4323 291.382 46.5023 291.018 46.563C290.654 46.6237 290.341 46.682 290.08 46.738C289.818 46.7893 289.587 46.8477 289.387 46.913C289.191 46.983 289.025 47.0647 288.89 47.158C288.754 47.2513 288.649 47.3587 288.575 47.48C288.505 47.6013 288.47 47.7437 288.47 47.907C288.47 48.0937 288.516 48.2593 288.61 48.404C288.703 48.544 288.838 48.656 289.016 48.74C289.198 48.824 289.422 48.866 289.688 48.866ZM299.735 50C299.236 50.0933 298.746 50.133 298.265 50.119C297.789 50.1097 297.362 50.0233 296.984 49.86C296.606 49.692 296.319 49.4283 296.123 49.069C295.951 48.7423 295.86 48.4087 295.85 48.068C295.841 47.7273 295.836 47.3423 295.836 46.913V40.34H297.516V46.815C297.516 47.1183 297.519 47.3843 297.523 47.613C297.533 47.8417 297.582 48.0283 297.67 48.173C297.838 48.453 298.107 48.6093 298.475 48.642C298.844 48.6747 299.264 48.656 299.735 48.586V50ZM294.464 43.763V42.44H299.735V43.763H294.464ZM301.501 41.292V39.745H303.188V41.292H301.501ZM301.501 50V42.44H303.188V50H301.501ZM308.624 50.21C307.868 50.21 307.207 50.0397 306.643 49.699C306.078 49.3583 305.639 48.8893 305.327 48.292C305.019 47.69 304.865 46.9993 304.865 46.22C304.865 45.4267 305.023 44.7313 305.341 44.134C305.658 43.5367 306.099 43.07 306.664 42.734C307.228 42.398 307.882 42.23 308.624 42.23C309.384 42.23 310.047 42.4003 310.612 42.741C311.176 43.0817 311.615 43.553 311.928 44.155C312.24 44.7523 312.397 45.4407 312.397 46.22C312.397 47.004 312.238 47.697 311.921 48.299C311.608 48.8963 311.169 49.3653 310.605 49.706C310.04 50.042 309.38 50.21 308.624 50.21ZM308.624 48.628C309.296 48.628 309.795 48.404 310.122 47.956C310.448 47.508 310.612 46.9293 310.612 46.22C310.612 45.4873 310.446 44.904 310.115 44.47C309.783 44.0313 309.286 43.812 308.624 43.812C308.171 43.812 307.798 43.9147 307.504 44.12C307.214 44.3207 307 44.603 306.86 44.967C306.72 45.3263 306.65 45.744 306.65 46.22C306.65 46.9527 306.815 47.5383 307.147 47.977C307.483 48.411 307.975 48.628 308.624 48.628ZM319.168 50V46.36C319.168 46.122 319.152 45.8583 319.119 45.569C319.086 45.2797 319.009 45.002 318.888 44.736C318.771 44.4653 318.594 44.2437 318.356 44.071C318.123 43.8983 317.805 43.812 317.404 43.812C317.189 43.812 316.977 43.847 316.767 43.917C316.557 43.987 316.366 44.1083 316.193 44.281C316.025 44.449 315.89 44.6823 315.787 44.981C315.684 45.275 315.633 45.653 315.633 46.115L314.632 45.688C314.632 45.044 314.756 44.4607 315.003 43.938C315.255 43.4153 315.624 43 316.109 42.692C316.594 42.3793 317.192 42.223 317.901 42.223C318.461 42.223 318.923 42.3163 319.287 42.503C319.651 42.6897 319.94 42.9277 320.155 43.217C320.37 43.5063 320.528 43.8143 320.631 44.141C320.734 44.4677 320.799 44.778 320.827 45.072C320.86 45.3613 320.876 45.597 320.876 45.779V50H319.168ZM313.925 50V42.44H315.43V44.785H315.633V50H313.925Z" fill="#323232"/>
<rect x="277" width="32" height="32" rx="16" fill="#2AACE3"/>
<path d="M292.711 21.6875C294.969 21.6875 296.625 20.2969 296.625 18.4141V18.3984C296.625 16.7969 295.508 15.7734 293.867 15.6328V15.6016C295.273 15.3047 296.258 14.3516 296.258 12.9609V12.9453C296.258 11.2344 294.844 10.0391 292.695 10.0391C290.586 10.0391 289.133 11.2656 288.953 13.1016L288.945 13.1797H290.297L290.305 13.1016C290.422 11.9609 291.367 11.2578 292.695 11.2578C294.07 11.2578 294.844 11.9375 294.844 13.1172V13.1328C294.844 14.2578 293.906 15.0859 292.562 15.0859H291.211V16.2734H292.625C294.203 16.2734 295.195 17.0469 295.195 18.4297V18.4453C295.195 19.6406 294.188 20.4688 292.711 20.4688C291.211 20.4688 290.195 19.7031 290.078 18.5938L290.07 18.5156H288.719L288.727 18.6094C288.875 20.3906 290.383 21.6875 292.711 21.6875Z" fill="white"/>
<defs>
<clipPath id="clip0_8002_13333">
<rect width="24" height="24" fill="white" transform="translate(40.5 4)"/>
</clipPath>
<clipPath id="clip1_8002_13333">
<rect width="24" height="24" fill="white" transform="translate(162 4)"/>
</clipPath>
</defs>
</svg>
