<svg width="91" height="96" viewBox="0 0 91 96" fill="none" xmlns="http://www.w3.org/2000/svg">
<path d="M27.0683 52.5938L78.7814 53.0628L78.9569 33.7361L82.6313 33.7693C86.2023 33.8026 89.1233 30.9332 89.1547 27.3622V27.2311C89.188 23.6601 86.3204 20.739 82.7494 20.7076L79.075 20.6744L79.2504 1.34773L59.9238 1.17232L59.8813 5.86781C59.8481 9.43882 56.9288 12.3063 53.3578 12.275H53.2267C49.6557 12.2417 46.7882 9.32065 46.8196 5.74964L46.8621 1.05415L32.4063 0.92305C29.716 0.899046 27.5151 3.05938 27.4911 5.74964L27.0664 52.5919L27.0683 52.5938Z" fill="#FF9A2E" stroke="#3578DB" stroke-linejoin="round"/>
<path d="M4.11708 85.5026L7.53114 78.4105C8.66116 76.0636 9.1357 73.4583 8.89566 70.8659C8.89566 70.8659 6.9846 56.5837 6.3365 47.6248C6.08908 44.1904 6.63378 40.9259 8.27895 38.4259C16.8243 25.4343 18.1574 24.4779 23.4862 16.8447C24.9431 14.7582 26.5328 14.448 27.1606 13.582L27.0665 52.5917L29.3099 52.612C31.0234 50.1212 32.218 45.7488 35.4991 34.925L35.4899 34.9804C36.3153 31.8488 39.445 29.923 42.5618 31.5017C44.4156 32.4397 45.3776 34.5373 45.0452 36.5886L45.0415 36.609C43.8617 42.1778 42.3383 47.5122 42.0522 49.1924C41.1345 54.5803 40.2057 61.6577 40.0303 63.122C39.3711 68.6225 37.5136 73.8516 33.0674 77.1567L30.752 78.8795C29.2693 79.9818 28.1374 81.4903 27.4948 83.2223L24.631 90.9312L4.11523 85.5026H4.11708Z" fill="white" stroke="#3578DB" stroke-linecap="round" stroke-linejoin="round"/>
<path d="M3.72493 76.9968L1.00594 85.1135C0.73191 85.9316 1.17292 86.8169 1.99095 87.0909L25.5797 94.9927C26.3977 95.2668 27.283 94.8258 27.5571 94.0077L30.2761 85.8909C30.5501 85.0729 30.1091 84.1876 29.291 83.9136L5.70229 76.0117C4.88425 75.7377 3.99896 76.1787 3.72493 76.9968Z" fill="#E0E0E0" stroke="#3578DB" stroke-linejoin="round"/>
<path d="M19.5664 88.3818L23.5861 89.6799" stroke="#3578DB" stroke-linecap="round" stroke-linejoin="round"/>
</svg>
