<svg width="115" height="121" viewBox="0 0 115 121" fill="none" xmlns="http://www.w3.org/2000/svg">
<path fill-rule="evenodd" clip-rule="evenodd" d="M27.8208 80.9089L15.5188 73.7803L6.00586 79.2862L18.3066 86.4174L27.8208 80.9089Z" fill="#C84637"/>
<path fill-rule="evenodd" clip-rule="evenodd" d="M55.7641 64.7337L43.4608 57.6025L43.457 73.4336L55.7578 80.5635L55.7641 64.7337Z" fill="#C03B2B"/>
<path fill-rule="evenodd" clip-rule="evenodd" d="M30.2973 95.3021L17.9902 88.1797L40.981 74.8721L53.283 81.9945L30.2973 95.3021Z" fill="#E64D3C"/>
<path fill-rule="evenodd" clip-rule="evenodd" d="M65.2877 39.533L52.987 32.4043L30.7383 45.2792L43.039 52.4104L65.2877 39.533Z" fill="#E64D3C"/>
<path fill-rule="evenodd" clip-rule="evenodd" d="M55.7641 64.7337L43.4608 57.6025L43.457 73.4336L55.7578 80.5635L55.7641 64.7337Z" fill="#C03B2B"/>
<path fill-rule="evenodd" clip-rule="evenodd" d="M18.4973 101.9L6.19531 94.7718L6.29183 94.8108L6.40089 94.8171L6.51997 94.7995L6.64783 94.7441L18.9486 101.873L18.8207 101.924L18.7042 101.946L18.5926 101.939L18.4973 101.9Z" fill="#E64D3C"/>
<path fill-rule="evenodd" clip-rule="evenodd" d="M18.9492 101.872L6.64844 94.7437L15.5146 89.6113L27.8153 96.7413L18.9492 101.872Z" fill="#E64D3C"/>
<path fill-rule="evenodd" clip-rule="evenodd" d="M53.2878 66.1697L40.987 59.041L18 72.3474L30.3033 79.4773L53.2878 66.1697Z" fill="#E64D3C"/>
<path fill-rule="evenodd" clip-rule="evenodd" d="M53.2825 81.9944L40.9805 74.872L40.9867 59.041L53.2875 66.1697L53.2825 81.9944Z" fill="#E64D3C"/>
<path fill-rule="evenodd" clip-rule="evenodd" d="M43.0395 52.4105L30.7387 45.2793L30.7324 62.1016L43.0332 69.2315L43.0395 52.4105Z" fill="#E64D3C"/>
<path fill-rule="evenodd" clip-rule="evenodd" d="M43.0395 52.4105L30.7387 45.2793L30.7324 62.1016L43.0332 69.2315L43.0395 52.4105Z" fill="#E64D3C"/>
<path fill-rule="evenodd" clip-rule="evenodd" d="M65.2784 59.2249L52.9751 52.1025L43.4609 57.6022L55.7642 64.7334L65.2784 59.2249Z" fill="#C03B2B"/>
<path fill-rule="evenodd" clip-rule="evenodd" d="M65.2877 39.533L52.987 32.4043L30.7383 45.2792L43.039 52.4104L65.2877 39.533Z" fill="#C84637"/>
<path fill-rule="evenodd" clip-rule="evenodd" d="M65.099 21.174L52.7982 14.0491L52.7017 14.0101L52.5914 14L52.4736 14.0214L52.3457 14.0767L64.6465 21.2079L64.7743 21.1501L64.8922 21.1287L65.0037 21.14L65.099 21.174Z" fill="#E64D3C"/>
<path fill-rule="evenodd" clip-rule="evenodd" d="M40.562 53.8424L28.2612 46.7188L6.01758 59.5949L18.3196 66.7198L40.562 53.8424Z" fill="#C03B2B"/>
<path fill-rule="evenodd" clip-rule="evenodd" d="M55.7816 26.3374L43.4809 19.21L43.4746 35.0397L55.7754 42.1621L55.7816 26.3374Z" fill="#E64D3C"/>
<path fill-rule="evenodd" clip-rule="evenodd" d="M40.5591 70.6634L28.2559 63.541L28.2621 46.7188L40.5629 53.8424L40.5591 70.6634Z" fill="#C03B2B"/>
<path fill-rule="evenodd" clip-rule="evenodd" d="M55.7816 26.3374L43.4809 19.21L43.4746 35.0397L55.7754 42.1621L55.7816 26.3374Z" fill="#C84637"/>
<path fill-rule="evenodd" clip-rule="evenodd" d="M30.3129 41.0769L18.0121 33.9482L18.0059 49.7793L30.3066 56.9092L30.3129 41.0769Z" fill="#A9382A"/>
<path fill-rule="evenodd" clip-rule="evenodd" d="M30.3066 56.9096L18.0059 49.7797L40.9929 36.4746L53.2999 43.602L30.3066 56.9096Z" fill="#C03B2B"/>
<path fill-rule="evenodd" clip-rule="evenodd" d="M18.3196 63.849L6.01758 56.7179L15.5318 51.2119L27.8325 58.3406L18.3196 63.849Z" fill="#E64D3C"/>
<path fill-rule="evenodd" clip-rule="evenodd" d="M6.53516 59.2984L6.54142 41.3428L18.1966 48.0953L18.1916 66.0485L6.53516 59.2984Z" fill="#9B9C9C"/>
<path fill-rule="evenodd" clip-rule="evenodd" d="M18.1793 85.7394L6.52539 78.9906L6.53166 70.5625L18.1793 77.3125V85.7394Z" fill="#9B9C9C"/>
<path fill-rule="evenodd" clip-rule="evenodd" d="M18.3008 101.464L6 94.335V94.3576L18.3008 101.485V101.464Z" fill="#E64D3C"/>
<path fill-rule="evenodd" clip-rule="evenodd" d="M18.3008 101.485L6 94.3574L6.01755 94.497L6.05766 94.6153L6.11909 94.7046L6.19555 94.7713L18.4976 101.9L18.4198 101.833L18.3584 101.744L18.3196 101.626L18.3008 101.485Z" fill="#E64D3C"/>
<path fill-rule="evenodd" clip-rule="evenodd" d="M53.3012 43.6016L40.9941 36.4742L40.9979 20.6406L53.3062 27.7718L53.3012 43.6016Z" fill="#C03B2B"/>
<path fill-rule="evenodd" clip-rule="evenodd" d="M27.832 58.3411L15.5312 51.2124L15.535 35.3877L27.8383 42.5101L27.832 58.3411Z" fill="#E64D3C"/>
<path fill-rule="evenodd" clip-rule="evenodd" d="M53.2949 28.5038L40.9941 21.3814L43.4811 19.96L55.7819 27.0886L53.2949 28.5038Z" fill="#9B9C9C"/>
<path fill-rule="evenodd" clip-rule="evenodd" d="M65.2784 59.2249L52.9751 52.1025L43.4609 57.6022L55.7642 64.7334L65.2784 59.2249Z" fill="#C03B2B"/>
<path fill-rule="evenodd" clip-rule="evenodd" d="M65.099 21.174L52.7982 14.0491L52.7017 14.0101L52.5914 14L52.4736 14.0214L52.3457 14.0767L64.6465 21.2079L64.7743 21.1501L64.8922 21.1287L65.0037 21.14L65.099 21.174Z" fill="#E64D3C"/>
<path fill-rule="evenodd" clip-rule="evenodd" d="M64.6474 21.2083L52.3466 14.0771L43.4805 19.2107L55.7812 26.3382L64.6474 21.2083Z" fill="#E64D3C"/>
<path fill-rule="evenodd" clip-rule="evenodd" d="M26.9458 42.9132L15.3809 36.2084L18.101 34.6523L29.6672 41.3571L26.9458 42.9132Z" fill="#9B9C9C"/>
<path fill-rule="evenodd" clip-rule="evenodd" d="M18.1309 47.9888L64.2239 21.4365L64.4019 74.8997L18.1923 101.429L18.1309 47.9888Z" fill="#E6EAEA"/>
<path fill-rule="evenodd" clip-rule="evenodd" d="M43.0395 52.4106L43.0332 69.2316L65.2794 56.3542L65.2882 39.5332L43.0395 52.4106Z" fill="#E64D3C"/>
<path fill-rule="evenodd" clip-rule="evenodd" d="M55.7641 64.7335L55.7578 80.5645L64.5964 75.4498L64.6127 75.4384C64.9712 75.2259 65.2595 74.7177 65.272 74.2975V74.2761L65.2783 59.2275L55.7653 64.7347L55.7641 64.7335Z" fill="#C03B2B"/>
<path fill-rule="evenodd" clip-rule="evenodd" d="M27.8333 58.3408L27.8395 42.5098L19.001 47.6308L18.9834 47.6371C18.6337 47.8547 18.3366 48.3642 18.3266 48.778V48.7994L18.3203 63.848L27.8333 58.3408Z" fill="#E64D3C"/>
<path fill-rule="evenodd" clip-rule="evenodd" d="M27.8157 96.7414L27.8219 80.9092L18.309 86.4164L18.3027 101.464V101.485C18.314 101.89 18.5998 102.057 18.9558 101.871L27.8157 96.7402V96.7414Z" fill="#E64D3C"/>
<path fill-rule="evenodd" clip-rule="evenodd" d="M53.2999 43.6012L53.3049 27.7715L30.3129 41.0766L30.3066 56.9088L53.2999 43.6012Z" fill="#C03B2B"/>
<path fill-rule="evenodd" clip-rule="evenodd" d="M53.2826 81.9946L53.2876 66.1699L30.3031 79.4775L30.2969 95.3023L53.2826 81.9946Z" fill="#E64D3C"/>
<path fill-rule="evenodd" clip-rule="evenodd" d="M30.3035 79.4774L29.6567 79.1025L29.6504 94.9273L30.2972 95.3021L30.3035 79.4774Z" fill="#C84637"/>
<path fill-rule="evenodd" clip-rule="evenodd" d="M55.7682 64.7333L55.1239 64.3584L55.1113 80.1882L55.7581 80.563L55.7682 64.7333Z" fill="#A9382A"/>
<path fill-rule="evenodd" clip-rule="evenodd" d="M43.0398 52.411L42.398 52.0361L42.3867 68.8571L43.0335 69.232L43.0398 52.411Z" fill="#C84637"/>
<path fill-rule="evenodd" clip-rule="evenodd" d="M30.3139 41.0764L29.6671 40.7041L29.6621 56.5339L30.3077 56.9087L30.3139 41.0764Z" fill="#A9382A"/>
<path fill-rule="evenodd" clip-rule="evenodd" d="M55.78 26.3378L55.132 25.9629L55.127 41.7876L55.7738 42.1625L55.78 26.3378Z" fill="#C84637"/>
<path fill-rule="evenodd" clip-rule="evenodd" d="M65.2819 39.5331L64.6401 39.1582L42.3965 52.0356L43.0383 52.4105L65.2819 39.5331Z" fill="#C84637"/>
<path fill-rule="evenodd" clip-rule="evenodd" d="M40.5624 53.8419L39.9168 53.4658L17.6719 66.3432L18.3199 66.7193L40.5624 53.8419Z" fill="#C03B2B"/>
<path fill-rule="evenodd" clip-rule="evenodd" d="M27.8388 42.5101L15.5355 35.3877L6.69824 40.5037L6.68069 40.5075L6.55283 40.6043L6.43124 40.72L6.31842 40.8546L6.22441 41.0069L6.14042 41.1628L6.079 41.3301L6.04014 41.4924L6.02384 41.6497V41.6723L6.01758 56.7184L18.3196 63.8496L18.3246 48.801V48.7783L18.3409 48.6223L18.3798 48.455L18.4412 48.2915L18.5252 48.1355L18.6204 47.9833L18.732 47.8487L18.8536 47.733L18.9815 47.6374L19.0003 47.6261L27.8388 42.5101Z" fill="#C84637"/>
<path fill-rule="evenodd" clip-rule="evenodd" d="M55.7817 26.3376L55.7754 42.1623L65.2883 36.6564L65.2946 21.609V21.5851C65.2833 21.1826 65 21.014 64.6478 21.2065L55.7817 26.3376Z" fill="#E64D3C"/>
<path fill-rule="evenodd" clip-rule="evenodd" d="M64.6474 21.2083L52.3466 14.0771L43.4805 19.2107L55.7812 26.3382L64.6474 21.2083Z" fill="#C84637"/>
<path fill-rule="evenodd" clip-rule="evenodd" d="M53.3045 27.7718L40.9962 20.6406L18.0117 33.9482L30.3125 41.0769L53.3045 27.7718Z" fill="#A9382A"/>
<path fill-rule="evenodd" clip-rule="evenodd" d="M18.3192 66.7196L6.01714 59.5947L6.00586 76.4157L18.3129 83.5469L18.3192 66.7196Z" fill="#A9382A"/>
<path fill-rule="evenodd" clip-rule="evenodd" d="M18.307 86.4173L6.00627 79.2861L6 94.3347L18.3008 101.463L18.307 86.4173Z" fill="#C84637"/>
<path fill-rule="evenodd" clip-rule="evenodd" d="M43.0395 52.4106L43.0332 69.2316L65.2794 56.3542L65.2882 39.5332L43.0395 52.4106Z" fill="#E64D3C"/>
<path fill-rule="evenodd" clip-rule="evenodd" d="M55.7817 26.3376L55.7754 42.1623L65.2883 36.6564L65.2946 21.609V21.5851C65.2833 21.1826 65 21.014 64.6478 21.2065L55.7817 26.3376Z" fill="#E64D3C"/>
<path fill-rule="evenodd" clip-rule="evenodd" d="M55.766 64.7335L55.7598 80.5645L64.5983 75.4498L64.6146 75.4384C64.9731 75.2259 65.2614 74.7177 65.274 74.2975V74.2761L65.2802 59.2275L55.7673 64.7347L55.766 64.7335Z" fill="#C03B2B"/>
<path fill-rule="evenodd" clip-rule="evenodd" d="M40.5594 70.6628L40.5631 53.8418L18.3207 66.7192L18.3145 83.5402L40.5594 70.6628Z" fill="#C03B2B"/>
<path fill-rule="evenodd" clip-rule="evenodd" d="M27.8333 58.3408L27.8395 42.5098L19.001 47.6308L18.9834 47.6371C18.6337 47.8547 18.3366 48.3642 18.3266 48.778V48.7994L18.3203 63.848L27.8333 58.3408Z" fill="#E64D3C"/>
<path fill-rule="evenodd" clip-rule="evenodd" d="M27.8157 96.7414L27.8219 80.9092L18.309 86.4164L18.3027 101.464V101.485C18.314 101.89 18.5998 102.057 18.9558 101.871L27.8157 96.7402V96.7414Z" fill="#E64D3C"/>
<path fill-rule="evenodd" clip-rule="evenodd" d="M53.3019 43.6012L53.3069 27.7715L30.3149 41.0766L30.3086 56.9088L53.3019 43.6012Z" fill="#C03B2B"/>
<path fill-rule="evenodd" clip-rule="evenodd" d="M53.2826 81.9946L53.2876 66.1699L30.3031 79.4775L30.2969 95.3023L53.2826 81.9946Z" fill="#E64D3C"/>
<path fill-rule="evenodd" clip-rule="evenodd" d="M27.8208 80.9088L27.1727 80.5352L17.666 86.0411L18.3066 86.4172L27.8208 80.9088Z" fill="#C84637"/>
<path fill-rule="evenodd" clip-rule="evenodd" d="M53.2875 66.1698L52.6407 65.7949L29.6562 79.1025L30.3031 79.4774L53.2875 66.1698Z" fill="#C84637"/>
<path fill-rule="evenodd" clip-rule="evenodd" d="M65.2797 59.2246L64.3521 58.6875V59.0183L55.125 64.3582L55.7693 64.7331L65.2797 59.2246Z" fill="#A9382A"/>
<path d="M73.4567 96.1118C83.5939 96.1118 91.8078 92.5752 91.8078 88.2109L91.8139 88.8039C91.8139 93.1682 83.5939 96.7048 73.4567 96.7048C63.3195 96.7048 55.0996 93.1682 55.0996 88.8039V88.2109C55.0996 92.5722 63.3165 96.1118 73.4567 96.1118Z" fill="url(#paint0_linear_10060_25895)"/>
<path d="M56.9869 85.2942C59.9848 82.8111 66.2302 81.1045 73.4479 81.1045C80.819 81.1045 87.1758 82.8863 90.0984 85.4537L91.808 83.8976V88.6261C91.808 92.7797 83.5881 96.1478 73.4509 96.1478C63.3137 96.1478 55.0938 92.7797 55.0938 88.6261V83.9398L56.9869 85.2942Z" fill="url(#paint1_linear_10060_25895)"/>
<path d="M55.0987 84.076C55.0987 84.0791 55.0987 84.0851 55.0987 84.0881C55.1168 88.3922 63.3277 91.8776 73.4558 91.8776C83.584 91.8776 91.7949 88.3922 91.813 84.0881C91.813 84.0821 91.813 84.0791 91.813 84.073C91.813 84.07 91.813 84.064 91.813 84.061C91.813 83.7901 91.7799 83.5222 91.7136 83.2604C90.7565 79.3325 82.9459 76.2715 73.4558 76.2715C64.0199 76.2715 56.2455 79.2994 55.2131 83.1911C55.1378 83.4771 55.0987 83.766 55.0957 84.061C55.0987 84.067 55.0987 84.073 55.0987 84.076Z" fill="url(#paint2_linear_10060_25895)"/>
<path d="M55.3281 83.796C55.3281 83.7991 55.3281 83.8051 55.3281 83.8081C55.3462 87.9557 63.4547 91.3177 73.4535 91.3177C83.4552 91.3177 91.5638 87.9557 91.5789 83.8081C91.5789 83.8021 91.5789 83.7991 91.5789 83.796C91.5789 83.793 91.5789 83.787 91.5789 83.784C91.5789 83.5222 91.5457 83.2663 91.4825 83.0105C90.5374 79.2241 82.8262 76.2744 73.4535 76.2744C64.135 76.2744 56.4598 79.191 55.4425 82.9473C55.3673 83.2212 55.3281 83.5011 55.3281 83.787C55.3281 83.787 55.3281 83.79 55.3281 83.796Z" fill="url(#paint3_linear_10060_25895)"/>
<path d="M73.4567 90.0899C82.581 90.0899 89.9778 87.1428 89.9778 83.5074C89.9778 79.8719 82.581 76.9248 73.4567 76.9248C64.3323 76.9248 56.9355 79.8719 56.9355 83.5074C56.9355 87.1428 64.3323 90.0899 73.4567 90.0899Z" fill="url(#paint4_linear_10060_25895)"/>
<path d="M89.6076 84.4193C89.6076 80.7834 82.3779 77.8368 73.4567 77.8368C64.5354 77.8368 57.3058 80.7834 57.3058 84.4193C57.3058 84.621 57.3268 84.8197 57.372 85.0153C57.086 84.5307 56.9355 84.0251 56.9355 83.5074C56.9355 79.8715 64.3308 76.9248 73.4567 76.9248C82.5825 76.9248 89.9778 79.8715 89.9778 83.5074C89.9778 84.0251 89.8273 84.5307 89.5413 85.0153C89.5835 84.8197 89.6076 84.621 89.6076 84.4193Z" fill="url(#paint5_linear_10060_25895)"/>
<path d="M73.3649 89.4956C83.5021 89.4956 91.716 85.959 91.716 81.5947L91.7221 82.1877C91.7221 86.552 83.5021 90.0885 73.3649 90.0885C63.2277 90.0885 55.0078 86.552 55.0078 82.1877V81.5947C55.0078 85.956 63.2277 89.4956 73.3649 89.4956Z" fill="url(#paint6_linear_10060_25895)"/>
<path d="M56.8962 78.678C59.894 76.1949 66.1395 74.4883 73.3571 74.4883C80.7283 74.4883 87.0851 76.2701 90.0077 78.8375L91.7143 77.2814V82.0099C91.7143 86.1635 83.4943 89.5315 73.3571 89.5315C63.2199 89.5315 55 86.1635 55 82.0099L55.003 77.3206L56.8962 78.678Z" fill="url(#paint7_linear_10060_25895)"/>
<path d="M55.0069 77.4598C55.0069 77.4628 55.0069 77.4689 55.0069 77.4719C55.025 81.776 63.2359 85.2614 73.364 85.2614C83.4922 85.2614 91.7031 81.776 91.7212 77.4719C91.7212 77.4659 91.7212 77.4628 91.7212 77.4568C91.7212 77.4538 91.7212 77.4478 91.7212 77.4448C91.7212 77.1739 91.688 76.906 91.6218 76.6442C90.6647 72.7163 82.8541 69.6553 73.364 69.6553C63.9281 69.6553 56.1537 72.6832 55.1213 76.5749C55.046 76.8609 55.0069 77.1498 55.0039 77.4448C55.0069 77.4508 55.0069 77.4568 55.0069 77.4598Z" fill="url(#paint8_linear_10060_25895)"/>
<path d="M55.2383 77.1798C55.2383 77.1828 55.2383 77.1889 55.2383 77.1919C55.2563 81.3395 63.3649 84.7015 73.3636 84.7015C83.3654 84.7015 91.474 81.3395 91.489 77.1919C91.489 77.1859 91.489 77.1828 91.489 77.1798C91.489 77.1768 91.489 77.1708 91.489 77.1678C91.489 76.9059 91.4559 76.6501 91.3927 76.3943C90.4476 72.6079 82.7363 69.6582 73.3636 69.6582C64.0451 69.6582 56.37 72.5748 55.3527 76.3311C55.2774 76.605 55.2383 76.8849 55.2383 77.1708C55.2383 77.1708 55.2383 77.1768 55.2383 77.1798Z" fill="url(#paint9_linear_10060_25895)"/>
<path d="M73.3629 83.4737C82.4873 83.4737 89.884 80.5266 89.884 76.8912C89.884 73.2557 82.4873 70.3086 73.3629 70.3086C64.2385 70.3086 56.8418 73.2557 56.8418 76.8912C56.8418 80.5266 64.2385 83.4737 73.3629 83.4737Z" fill="url(#paint10_linear_10060_25895)"/>
<path d="M89.5138 77.8031C89.5138 74.1672 82.2841 71.2206 73.3629 71.2206C64.4447 71.2206 57.212 74.1672 57.212 77.8031C57.212 78.0048 57.2331 78.2034 57.2782 78.3991C56.9923 77.9145 56.8418 77.4088 56.8418 76.8912C56.8418 73.2552 64.237 70.3086 73.3629 70.3086C82.4888 70.3086 89.884 73.2552 89.884 76.8912C89.884 77.4088 89.7335 77.9145 89.4476 78.3991C89.4927 78.2034 89.5138 78.0048 89.5138 77.8031Z" fill="url(#paint11_linear_10060_25895)"/>
<path d="M73.4567 83.2388C83.5939 83.2388 91.8078 79.7022 91.8078 75.3379L91.8139 75.9308C91.8139 80.2951 83.5939 83.8317 73.4567 83.8317C63.3195 83.8317 55.0996 80.2951 55.0996 75.9308V75.3379C55.0996 79.6992 63.3165 83.2388 73.4567 83.2388Z" fill="url(#paint12_linear_10060_25895)"/>
<path d="M56.9869 72.4251C59.9848 69.9419 66.2302 68.2354 73.4479 68.2354C80.819 68.2354 87.1758 70.0172 90.0984 72.5846L91.808 71.0285V75.757C91.808 79.9106 83.5881 83.2786 73.4509 83.2786C63.3137 83.2786 55.0938 79.9106 55.0938 75.757L55.0968 71.0676L56.9869 72.4251Z" fill="url(#paint13_linear_10060_25895)"/>
<path d="M55.0987 71.203C55.0987 71.206 55.0987 71.212 55.0987 71.215C55.1168 75.5191 63.3277 79.0046 73.4558 79.0046C83.584 79.0046 91.7949 75.5191 91.813 71.215C91.813 71.209 91.813 71.206 91.813 71.2C91.813 71.197 91.813 71.191 91.813 71.188C91.813 70.9171 91.7799 70.6492 91.7136 70.3873C90.7565 66.4595 82.9459 63.3984 73.4558 63.3984C64.0199 63.3984 56.2455 66.4264 55.2131 70.3181C55.1378 70.604 55.0987 70.893 55.0957 71.188C55.0987 71.194 55.0987 71.2 55.0987 71.203Z" fill="url(#paint14_linear_10060_25895)"/>
<path d="M55.3281 70.923C55.3281 70.926 55.3281 70.932 55.3281 70.935C55.3462 75.0826 63.4547 78.4446 73.4535 78.4446C83.4552 78.4446 91.5638 75.0826 91.5789 70.935C91.5789 70.929 91.5789 70.926 91.5789 70.923C91.5789 70.92 91.5789 70.914 91.5789 70.911C91.5789 70.6491 91.5457 70.3933 91.4825 70.1374C90.5374 66.351 82.8262 63.4014 73.4535 63.4014C64.135 63.4014 56.4598 66.3179 55.4425 70.0742C55.3673 70.3481 55.3281 70.628 55.3281 70.914C55.3281 70.914 55.3281 70.92 55.3281 70.923Z" fill="url(#paint15_linear_10060_25895)"/>
<path d="M73.4567 77.2159C82.581 77.2159 89.9778 74.2688 89.9778 70.6333C89.9778 66.9979 82.581 64.0508 73.4567 64.0508C64.3323 64.0508 56.9355 66.9979 56.9355 70.6333C56.9355 74.2688 64.3323 77.2159 73.4567 77.2159Z" fill="url(#paint16_linear_10060_25895)"/>
<path d="M89.6076 71.5453C89.6076 67.9094 82.3779 64.9628 73.4567 64.9628C64.5354 64.9628 57.3058 67.9094 57.3058 71.5453C57.3058 71.747 57.3268 71.9456 57.372 72.1413C57.086 71.6567 56.9355 71.151 56.9355 70.6333C56.9355 66.9974 64.3308 64.0508 73.4567 64.0508C82.5825 64.0508 89.9778 66.9974 89.9778 70.6333C89.9778 71.151 89.8273 71.6567 89.5413 72.1413C89.5835 71.9456 89.6076 71.747 89.6076 71.5453Z" fill="url(#paint17_linear_10060_25895)"/>
<path d="M73.3649 76.6226C83.5021 76.6226 91.716 73.086 91.716 68.7217L91.7221 69.3146C91.7221 73.6789 83.5021 77.2155 73.3649 77.2155C63.2277 77.2155 55.0078 73.6789 55.0078 69.3146V68.7217C55.0078 73.086 63.2277 76.6226 73.3649 76.6226Z" fill="url(#paint18_linear_10060_25895)"/>
<path d="M56.8962 65.8089C59.894 63.3257 66.1395 61.6191 73.3571 61.6191C80.7283 61.6191 87.0851 63.401 90.0077 65.9684L91.7143 64.4123V69.1408C91.7143 73.2944 83.4943 76.6624 73.3571 76.6624C63.2199 76.6624 55 73.2944 55 69.1408L55.003 64.4514L56.8962 65.8089Z" fill="url(#paint19_linear_10060_25895)"/>
<path d="M55.0069 64.5868C55.0069 64.5898 55.0069 64.5958 55.0069 64.5988C55.025 68.9029 63.2359 72.3883 73.364 72.3883C83.4922 72.3883 91.7031 68.9029 91.7212 64.5988C91.7212 64.5928 91.7212 64.5898 91.7212 64.5838C91.7212 64.5808 91.7212 64.5747 91.7212 64.5717C91.7212 64.3008 91.688 64.033 91.6218 63.7711C90.6647 59.8433 82.8541 56.7822 73.364 56.7822C63.9281 56.7822 56.1537 59.8101 55.1213 63.7019C55.046 63.9878 55.0069 64.2768 55.0039 64.5717C55.0069 64.5778 55.0069 64.5838 55.0069 64.5868Z" fill="url(#paint20_linear_10060_25895)"/>
<path d="M55.2383 64.3068C55.2383 64.3098 55.2383 64.3158 55.2383 64.3188C55.2563 68.4664 63.3649 71.8284 73.3636 71.8284C83.3654 71.8284 91.474 68.4664 91.489 64.3188C91.489 64.3128 91.489 64.3098 91.489 64.3068C91.489 64.3038 91.489 64.2978 91.489 64.2948C91.489 64.0329 91.4559 63.7771 91.3927 63.5212C90.4476 59.7348 82.7363 56.7852 73.3636 56.7852C64.0451 56.7852 56.37 59.7017 55.3527 63.458C55.2774 63.7319 55.2383 64.0118 55.2383 64.2978C55.2383 64.2978 55.2383 64.3038 55.2383 64.3068Z" fill="url(#paint21_linear_10060_25895)"/>
<path d="M73.3629 70.6007C82.4873 70.6007 89.884 67.6536 89.884 64.0181C89.884 60.3827 82.4873 57.4355 73.3629 57.4355C64.2385 57.4355 56.8418 60.3827 56.8418 64.0181C56.8418 67.6536 64.2385 70.6007 73.3629 70.6007Z" fill="url(#paint22_linear_10060_25895)"/>
<path d="M89.5138 64.9301C89.5138 61.2942 82.2841 58.3475 73.3629 58.3475C64.4447 58.3475 57.212 61.2942 57.212 64.9301C57.212 65.1318 57.2331 65.3304 57.2782 65.526C56.9923 65.0415 56.8418 64.5358 56.8418 64.0181C56.8418 60.3822 64.237 57.4355 73.3629 57.4355C82.4888 57.4355 89.884 60.3822 89.884 64.0181C89.884 64.5358 89.7335 65.0415 89.4476 65.526C89.4927 65.3304 89.5138 65.1318 89.5138 64.9301Z" fill="url(#paint23_linear_10060_25895)"/>
<path d="M73.4567 70.3286C83.5939 70.3286 91.8078 66.792 91.8078 62.4277L91.8139 63.0207C91.8139 67.385 83.5939 70.9216 73.4567 70.9216C63.3195 70.9216 55.0996 67.385 55.0996 63.0207V62.4277C55.0996 66.789 63.3165 70.3286 73.4567 70.3286Z" fill="url(#paint24_linear_10060_25895)"/>
<path d="M56.9869 59.511C59.9848 57.0279 66.2302 55.3213 73.4479 55.3213C80.819 55.3213 87.1758 57.1031 90.0984 59.6705L91.808 58.1144V62.8429C91.808 66.9965 83.5881 70.3646 73.4509 70.3646C63.3137 70.3646 55.0938 66.9965 55.0938 62.8429L55.0968 58.1536L56.9869 59.511Z" fill="url(#paint25_linear_10060_25895)"/>
<path d="M55.1007 58.2928C55.1007 58.2959 55.1007 58.3019 55.1007 58.3049C55.1187 62.609 63.3296 66.0944 73.4578 66.0944C83.586 66.0944 91.7969 62.609 91.8149 58.3049C91.8149 58.2989 91.8149 58.2959 91.8149 58.2898C91.8149 58.2868 91.8149 58.2808 91.8149 58.2778C91.8149 58.0069 91.7818 57.739 91.7156 57.4772C90.7585 53.5493 82.9479 50.4883 73.4578 50.4883C64.0219 50.4883 56.2474 53.5162 55.215 57.4079C55.1398 57.6939 55.1007 57.9828 55.0977 58.2778C55.1007 58.2838 55.1007 58.2868 55.1007 58.2928Z" fill="url(#paint26_linear_10060_25895)"/>
<path d="M55.3281 58.0128C55.3281 58.0159 55.3281 58.0219 55.3281 58.0249C55.3462 62.1725 63.4547 65.5345 73.4535 65.5345C83.4552 65.5345 91.5638 62.1725 91.5789 58.0249C91.5789 58.0189 91.5789 58.0159 91.5789 58.0128C91.5789 58.0098 91.5789 58.0038 91.5789 58.0008C91.5789 57.739 91.5457 57.4831 91.4825 57.2273C90.5374 53.4409 82.8262 50.4912 73.4535 50.4912C64.135 50.4912 56.4598 53.4078 55.4425 57.1641C55.3673 57.438 55.3281 57.7179 55.3281 58.0038C55.3281 58.0038 55.3281 58.0068 55.3281 58.0128Z" fill="url(#paint27_linear_10060_25895)"/>
<path d="M73.4567 64.3067C82.581 64.3067 89.9778 61.3596 89.9778 57.7242C89.9778 54.0887 82.581 51.1416 73.4567 51.1416C64.3323 51.1416 56.9355 54.0887 56.9355 57.7242C56.9355 61.3596 64.3323 64.3067 73.4567 64.3067Z" fill="url(#paint28_linear_10060_25895)"/>
<path d="M89.6076 58.6361C89.6076 55.0002 82.3779 52.0536 73.4567 52.0536C64.5354 52.0536 57.3058 55.0002 57.3058 58.6361C57.3058 58.8378 57.3268 59.0365 57.372 59.2321C57.086 58.7475 56.9355 58.2419 56.9355 57.7242C56.9355 54.0883 64.3308 51.1416 73.4567 51.1416C82.5825 51.1416 89.9778 54.0883 89.9778 57.7242C89.9778 58.2419 89.8273 58.7475 89.5413 59.2321C89.5835 59.0365 89.6076 58.8378 89.6076 58.6361Z" fill="url(#paint29_linear_10060_25895)"/>
<path d="M73.3649 63.7134C83.5021 63.7134 91.716 60.1768 91.716 55.8125L91.7221 56.4054C91.7221 60.7697 83.5021 64.3063 73.3649 64.3063C63.2277 64.3063 55.0078 60.7697 55.0078 56.4054V55.8125C55.0078 60.1738 63.2277 63.7134 73.3649 63.7134Z" fill="url(#paint30_linear_10060_25895)"/>
<path d="M56.8962 52.8948C59.894 50.4117 66.1395 48.7051 73.3571 48.7051C80.7283 48.7051 87.0851 50.4869 90.0077 53.0543L91.7143 51.4982V56.2267C91.7143 60.3803 83.4943 63.7483 73.3571 63.7483C63.2199 63.7483 55 60.3803 55 56.2267L55.003 51.5374L56.8962 52.8948Z" fill="url(#paint31_linear_10060_25895)"/>
<path d="M55.0069 51.6766C55.0069 51.6796 55.0069 51.6857 55.0069 51.6887C55.025 55.9928 63.2359 59.4782 73.364 59.4782C83.4922 59.4782 91.7031 55.9928 91.7212 51.6887C91.7212 51.6827 91.7212 51.6796 91.7212 51.6736C91.7212 51.6706 91.7212 51.6646 91.7212 51.6616C91.7212 51.3907 91.688 51.1228 91.6218 50.861C90.6647 46.9331 82.8541 43.8721 73.364 43.8721C63.9281 43.8721 56.1537 46.9 55.1213 50.7917C55.046 51.0777 55.0069 51.3666 55.0039 51.6616C55.0069 51.6676 55.0069 51.6736 55.0069 51.6766Z" fill="url(#paint32_linear_10060_25895)"/>
<path d="M55.2383 51.3966C55.2383 51.3996 55.2383 51.4057 55.2383 51.4087C55.2563 55.5563 63.3649 58.9183 73.3636 58.9183C83.3654 58.9183 91.474 55.5563 91.489 51.4087C91.489 51.4027 91.489 51.3996 91.489 51.3966C91.489 51.3936 91.489 51.3876 91.489 51.3846C91.489 51.1227 91.4559 50.8669 91.3927 50.6111C90.4476 46.8247 82.7363 43.875 73.3636 43.875C64.0451 43.875 56.37 46.7916 55.3527 50.5479C55.2774 50.8218 55.2383 51.1017 55.2383 51.3876C55.2383 51.3876 55.2383 51.3906 55.2383 51.3966Z" fill="url(#paint33_linear_10060_25895)"/>
<path d="M73.3629 57.6905C82.4873 57.6905 89.884 54.7434 89.884 51.1079C89.884 47.4725 82.4873 44.5254 73.3629 44.5254C64.2385 44.5254 56.8418 47.4725 56.8418 51.1079C56.8418 54.7434 64.2385 57.6905 73.3629 57.6905Z" fill="url(#paint34_linear_10060_25895)"/>
<path d="M89.5138 52.0199C89.5138 48.384 82.2841 45.4374 73.3629 45.4374C64.4447 45.4374 57.212 48.384 57.212 52.0199C57.212 52.2216 57.2331 52.4202 57.2782 52.6159C56.9923 52.1313 56.8418 51.6256 56.8418 51.1079C56.8418 47.472 64.237 44.5254 73.3629 44.5254C82.4888 44.5254 89.884 47.472 89.884 51.1079C89.884 51.6256 89.7335 52.1313 89.4476 52.6159C89.4927 52.4202 89.5138 52.2216 89.5138 52.0199Z" fill="url(#paint35_linear_10060_25895)"/>
<path d="M73.4567 57.4565C83.5939 57.4565 91.8078 53.92 91.8078 49.5557L91.8139 50.1486C91.8139 54.5129 83.5939 58.0495 73.4567 58.0495C63.3195 58.0495 55.0996 54.5129 55.0996 50.1486V49.5557C55.0996 53.9169 63.3165 57.4565 73.4567 57.4565Z" fill="url(#paint36_linear_10060_25895)"/>
<path d="M56.9869 46.638C59.9848 44.1548 66.2302 42.4482 73.4479 42.4482C80.819 42.4482 87.1758 44.2301 90.0984 46.7975L91.808 45.2414V49.9699C91.808 54.1235 83.5881 57.4915 73.4509 57.4915C63.3137 57.4915 55.0938 54.1235 55.0938 49.9699L55.0968 45.2805L56.9869 46.638Z" fill="url(#paint37_linear_10060_25895)"/>
<path d="M55.1007 45.4198C55.1007 45.4228 55.1007 45.4288 55.1007 45.4318C55.1187 49.7359 63.3296 53.2213 73.4578 53.2213C83.586 53.2213 91.7969 49.7359 91.8149 45.4318C91.8149 45.4258 91.8149 45.4228 91.8149 45.4168C91.8149 45.4138 91.8149 45.4078 91.8149 45.4047C91.8149 45.1339 91.7818 44.866 91.7156 44.6041C90.7585 40.6763 82.9479 37.6152 73.4578 37.6152C64.0219 37.6152 56.2474 40.6432 55.215 44.5349C55.1398 44.8208 55.1007 45.1098 55.0977 45.4047C55.1007 45.4108 55.1007 45.4168 55.1007 45.4198Z" fill="url(#paint38_linear_10060_25895)"/>
<path d="M55.3281 45.1398C55.3281 45.1428 55.3281 45.1488 55.3281 45.1518C55.3462 49.2994 63.4547 52.6614 73.4535 52.6614C83.4552 52.6614 91.5638 49.2994 91.5789 45.1518C91.5789 45.1458 91.5789 45.1428 91.5789 45.1398C91.5789 45.1368 91.5789 45.1308 91.5789 45.1278C91.5789 44.8659 91.5457 44.6101 91.4825 44.3542C90.5374 40.5678 82.8262 37.6182 73.4535 37.6182C64.135 37.6182 56.4598 40.5347 55.4425 44.291C55.3673 44.5649 55.3281 44.8448 55.3281 45.1308C55.3281 45.1308 55.3281 45.1338 55.3281 45.1398Z" fill="url(#paint39_linear_10060_25895)"/>
<path d="M73.4567 51.4337C82.581 51.4337 89.9778 48.4866 89.9778 44.8511C89.9778 41.2157 82.581 38.2686 73.4567 38.2686C64.3323 38.2686 56.9355 41.2157 56.9355 44.8511C56.9355 48.4866 64.3323 51.4337 73.4567 51.4337Z" fill="url(#paint40_linear_10060_25895)"/>
<path d="M89.6076 45.7631C89.6076 42.1272 82.3779 39.1805 73.4567 39.1805C64.5354 39.1805 57.3058 42.1272 57.3058 45.7631C57.3058 45.9648 57.3268 46.1634 57.372 46.3591C57.086 45.8745 56.9355 45.3688 56.9355 44.8511C56.9355 41.2152 64.3308 38.2686 73.4567 38.2686C82.5825 38.2686 89.9778 41.2152 89.9778 44.8511C89.9778 45.3688 89.8273 45.8745 89.5413 46.3591C89.5835 46.1634 89.6076 45.9648 89.6076 45.7631Z" fill="url(#paint41_linear_10060_25895)"/>
<path d="M73.3649 50.8403C83.5021 50.8403 91.716 47.3037 91.716 42.9395L91.7221 43.5324C91.7221 47.8967 83.5021 51.4333 73.3649 51.4333C63.2277 51.4333 55.0078 47.8967 55.0078 43.5324V42.9395C55.0078 47.3007 63.2277 50.8403 73.3649 50.8403Z" fill="url(#paint42_linear_10060_25895)"/>
<path d="M56.8962 40.0266C59.894 37.5435 66.1395 35.8369 73.3571 35.8369C80.7283 35.8369 87.0851 37.6187 90.0077 40.1862L91.7143 38.6301V43.3585C91.7143 47.5122 83.4943 50.8802 73.3571 50.8802C63.2199 50.8802 55 47.5122 55 43.3585L55.003 38.6692L56.8962 40.0266Z" fill="url(#paint43_linear_10060_25895)"/>
<path d="M55.0069 38.8046C55.0069 38.8076 55.0069 38.8136 55.0069 38.8166C55.025 43.1207 63.2359 46.6061 73.364 46.6061C83.4922 46.6061 91.7031 43.1207 91.7212 38.8166C91.7212 38.8106 91.7212 38.8076 91.7212 38.8016C91.7212 38.7985 91.7212 38.7925 91.7212 38.7895C91.7212 38.5186 91.688 38.2507 91.6218 37.9889C90.6647 34.061 82.8541 31 73.364 31C63.9281 31 56.1537 34.0279 55.1213 37.9197C55.046 38.2056 55.0069 38.4945 55.0039 38.7895C55.0069 38.7955 55.0069 38.8016 55.0069 38.8046Z" fill="url(#paint44_linear_10060_25895)"/>
<path d="M55.2383 38.5246C55.2383 38.5276 55.2383 38.5336 55.2383 38.5366C55.2563 42.6842 63.3649 46.0462 73.3636 46.0462C83.3654 46.0462 91.474 42.6842 91.489 38.5366C91.489 38.5306 91.489 38.5276 91.489 38.5246C91.489 38.5216 91.489 38.5155 91.489 38.5125C91.489 38.2507 91.4559 37.9948 91.3927 37.739C90.4476 33.9526 82.7363 31.0029 73.3636 31.0029C64.0451 31.0029 56.37 33.9195 55.3527 37.6758C55.2774 37.9497 55.2383 38.2296 55.2383 38.5155C55.2383 38.5155 55.2383 38.5216 55.2383 38.5246Z" fill="url(#paint45_linear_10060_25895)"/>
<path d="M73.3629 44.8184C82.4873 44.8184 89.884 41.8713 89.884 38.2359C89.884 34.6004 82.4873 31.6533 73.3629 31.6533C64.2385 31.6533 56.8418 34.6004 56.8418 38.2359C56.8418 41.8713 64.2385 44.8184 73.3629 44.8184Z" fill="url(#paint46_linear_10060_25895)"/>
<path d="M89.5138 39.1479C89.5138 35.512 82.2841 32.5653 73.3629 32.5653C64.4447 32.5653 57.212 35.512 57.212 39.1479C57.212 39.3495 57.2331 39.5482 57.2782 39.7438C56.9923 39.2592 56.8418 38.7536 56.8418 38.2359C56.8418 34.6 64.237 31.6533 73.3629 31.6533C82.4888 31.6533 89.884 34.6 89.884 38.2359C89.884 38.7536 89.7335 39.2592 89.4476 39.7438C89.4927 39.5482 89.5138 39.3495 89.5138 39.1479Z" fill="url(#paint47_linear_10060_25895)"/>
<path d="M96.3649 100.841C106.502 100.841 114.716 97.3047 114.716 92.9404L114.722 93.5334C114.722 97.8977 106.502 101.434 96.3649 101.434C86.2277 101.434 78.0078 97.8977 78.0078 93.5334V92.9404C78.0078 97.3017 86.2277 100.841 96.3649 100.841Z" fill="url(#paint48_linear_10060_25895)"/>
<path d="M79.8962 90.0227C82.894 87.5396 89.1395 85.833 96.3571 85.833C103.728 85.833 110.085 87.6148 113.008 90.1823L114.714 88.6262V93.3546C114.714 97.5082 106.494 100.876 96.3571 100.876C86.2199 100.876 78 97.5082 78 93.3546L78.003 88.6653L79.8962 90.0227Z" fill="url(#paint49_linear_10060_25895)"/>
<path d="M78.0069 88.8046C78.0069 88.8076 78.0069 88.8136 78.0069 88.8166C78.025 93.1207 86.2359 96.6061 96.364 96.6061C106.492 96.6061 114.703 93.1207 114.721 88.8166C114.721 88.8106 114.721 88.8076 114.721 88.8016C114.721 88.7985 114.721 88.7925 114.721 88.7895C114.721 88.5186 114.688 88.2507 114.622 87.9889C113.665 84.061 105.854 81 96.364 81C86.9281 81 79.1537 84.0279 78.1213 87.9197C78.046 88.2056 78.0069 88.4945 78.0039 88.7895C78.0069 88.7955 78.0069 88.8015 78.0069 88.8046Z" fill="url(#paint50_linear_10060_25895)"/>
<path d="M78.2383 88.5246C78.2383 88.5276 78.2383 88.5336 78.2383 88.5366C78.2563 92.6842 86.3649 96.0462 96.3636 96.0462C106.365 96.0462 114.474 92.6842 114.489 88.5366C114.489 88.5306 114.489 88.5276 114.489 88.5246C114.489 88.5216 114.489 88.5155 114.489 88.5125C114.489 88.2507 114.456 87.9948 114.393 87.739C113.448 83.9526 105.736 81.0029 96.3636 81.0029C87.0451 81.0029 79.37 83.9195 78.3527 87.6758C78.2774 87.9497 78.2383 88.2296 78.2383 88.5155C78.2383 88.5155 78.2383 88.5185 78.2383 88.5246Z" fill="url(#paint51_linear_10060_25895)"/>
<path d="M96.3629 94.8184C105.487 94.8184 112.884 91.8713 112.884 88.2359C112.884 84.6004 105.487 81.6533 96.3629 81.6533C87.2385 81.6533 79.8418 84.6004 79.8418 88.2359C79.8418 91.8713 87.2385 94.8184 96.3629 94.8184Z" fill="url(#paint52_linear_10060_25895)"/>
<path d="M112.514 89.1479C112.514 85.512 105.284 82.5653 96.3629 82.5653C87.4447 82.5653 80.212 85.512 80.212 89.1479C80.212 89.3495 80.2331 89.5482 80.2782 89.7438C79.9923 89.2592 79.8418 88.7536 79.8418 88.2359C79.8418 84.6 87.237 81.6533 96.3629 81.6533C105.489 81.6533 112.884 84.6 112.884 88.2359C112.884 88.7536 112.734 89.2592 112.448 89.7438C112.493 89.5482 112.514 89.3495 112.514 89.1479Z" fill="url(#paint53_linear_10060_25895)"/>
<path d="M96.3649 93.8413C106.502 93.8413 114.716 90.3047 114.716 85.9404L114.722 86.5334C114.722 90.8977 106.502 94.4342 96.3649 94.4342C86.2277 94.4342 78.0078 90.8977 78.0078 86.5334V85.9404C78.0078 90.3017 86.2277 93.8413 96.3649 93.8413Z" fill="url(#paint54_linear_10060_25895)"/>
<path d="M79.8962 83.0227C82.894 80.5396 89.1395 78.833 96.3571 78.833C103.728 78.833 110.085 80.6148 113.008 83.1823L114.714 81.6262V86.3546C114.714 90.5082 106.494 93.8763 96.3571 93.8763C86.2199 93.8763 78 90.5082 78 86.3546L78.003 81.6653L79.8962 83.0227Z" fill="url(#paint55_linear_10060_25895)"/>
<path d="M78.0069 81.8046C78.0069 81.8076 78.0069 81.8136 78.0069 81.8166C78.025 86.1207 86.2359 89.6061 96.364 89.6061C106.492 89.6061 114.703 86.1207 114.721 81.8166C114.721 81.8106 114.721 81.8076 114.721 81.8016C114.721 81.7985 114.721 81.7925 114.721 81.7895C114.721 81.5186 114.688 81.2507 114.622 80.9889C113.665 77.061 105.854 74 96.364 74C86.9281 74 79.1537 77.0279 78.1213 80.9197C78.046 81.2056 78.0069 81.4945 78.0039 81.7895C78.0069 81.7955 78.0069 81.8015 78.0069 81.8046Z" fill="url(#paint56_linear_10060_25895)"/>
<path d="M78.2383 81.5246C78.2383 81.5276 78.2383 81.5336 78.2383 81.5366C78.2563 85.6842 86.3649 89.0462 96.3636 89.0462C106.365 89.0462 114.474 85.6842 114.489 81.5366C114.489 81.5306 114.489 81.5276 114.489 81.5246C114.489 81.5216 114.489 81.5155 114.489 81.5125C114.489 81.2507 114.456 80.9948 114.393 80.739C113.448 76.9526 105.736 74.0029 96.3636 74.0029C87.0451 74.0029 79.37 76.9195 78.3527 80.6758C78.2774 80.9497 78.2383 81.2296 78.2383 81.5155C78.2383 81.5155 78.2383 81.5185 78.2383 81.5246Z" fill="url(#paint57_linear_10060_25895)"/>
<path d="M96.3629 87.8184C105.487 87.8184 112.884 84.8713 112.884 81.2359C112.884 77.6004 105.487 74.6533 96.3629 74.6533C87.2385 74.6533 79.8418 77.6004 79.8418 81.2359C79.8418 84.8713 87.2385 87.8184 96.3629 87.8184Z" fill="url(#paint58_linear_10060_25895)"/>
<path d="M112.514 82.1479C112.514 78.512 105.284 75.5653 96.3629 75.5653C87.4447 75.5653 80.212 78.512 80.212 82.1479C80.212 82.3495 80.2331 82.5482 80.2782 82.7438C79.9923 82.2592 79.8418 81.7536 79.8418 81.2359C79.8418 77.6 87.237 74.6533 96.3629 74.6533C105.489 74.6533 112.884 77.6 112.884 81.2359C112.884 81.7536 112.734 82.2592 112.448 82.7438C112.493 82.5482 112.514 82.3495 112.514 82.1479Z" fill="url(#paint59_linear_10060_25895)"/>
<path d="M96.3649 86.8413C106.502 86.8413 114.716 83.3047 114.716 78.9404L114.722 79.5334C114.722 83.8977 106.502 87.4342 96.3649 87.4342C86.2277 87.4342 78.0078 83.8977 78.0078 79.5334V78.9404C78.0078 83.3017 86.2277 86.8413 96.3649 86.8413Z" fill="url(#paint60_linear_10060_25895)"/>
<path d="M79.8962 76.0227C82.894 73.5396 89.1395 71.833 96.3571 71.833C103.728 71.833 110.085 73.6148 113.008 76.1823L114.714 74.6262V79.3546C114.714 83.5082 106.494 86.8763 96.3571 86.8763C86.2199 86.8763 78 83.5082 78 79.3546L78.003 74.6653L79.8962 76.0227Z" fill="url(#paint61_linear_10060_25895)"/>
<path d="M78.0069 74.8046C78.0069 74.8076 78.0069 74.8136 78.0069 74.8166C78.025 79.1207 86.2359 82.6061 96.364 82.6061C106.492 82.6061 114.703 79.1207 114.721 74.8166C114.721 74.8106 114.721 74.8076 114.721 74.8016C114.721 74.7985 114.721 74.7925 114.721 74.7895C114.721 74.5186 114.688 74.2507 114.622 73.9889C113.665 70.061 105.854 67 96.364 67C86.9281 67 79.1537 70.0279 78.1213 73.9197C78.046 74.2056 78.0069 74.4945 78.0039 74.7895C78.0069 74.7955 78.0069 74.8015 78.0069 74.8046Z" fill="url(#paint62_linear_10060_25895)"/>
<path d="M78.2383 74.5246C78.2383 74.5276 78.2383 74.5336 78.2383 74.5366C78.2563 78.6842 86.3649 82.0462 96.3636 82.0462C106.365 82.0462 114.474 78.6842 114.489 74.5366C114.489 74.5306 114.489 74.5276 114.489 74.5246C114.489 74.5216 114.489 74.5155 114.489 74.5125C114.489 74.2507 114.456 73.9948 114.393 73.739C113.448 69.9526 105.736 67.0029 96.3636 67.0029C87.0451 67.0029 79.37 69.9195 78.3527 73.6758C78.2774 73.9497 78.2383 74.2296 78.2383 74.5155C78.2383 74.5155 78.2383 74.5185 78.2383 74.5246Z" fill="url(#paint63_linear_10060_25895)"/>
<path d="M96.3629 80.8184C105.487 80.8184 112.884 77.8713 112.884 74.2359C112.884 70.6004 105.487 67.6533 96.3629 67.6533C87.2385 67.6533 79.8418 70.6004 79.8418 74.2359C79.8418 77.8713 87.2385 80.8184 96.3629 80.8184Z" fill="url(#paint64_linear_10060_25895)"/>
<path d="M112.514 75.1479C112.514 71.512 105.284 68.5653 96.3629 68.5653C87.4447 68.5653 80.212 71.512 80.212 75.1479C80.212 75.3495 80.2331 75.5482 80.2782 75.7438C79.9923 75.2592 79.8418 74.7536 79.8418 74.2359C79.8418 70.6 87.237 67.6533 96.3629 67.6533C105.489 67.6533 112.884 70.6 112.884 74.2359C112.884 74.7536 112.734 75.2592 112.448 75.7438C112.493 75.5482 112.514 75.3495 112.514 75.1479Z" fill="url(#paint65_linear_10060_25895)"/>
<defs>
<linearGradient id="paint0_linear_10060_25895" x1="95.9263" y1="92.4827" x2="55.297" y2="92.3848" gradientUnits="userSpaceOnUse">
<stop offset="0.2029" stop-color="#EA9F44"/>
<stop offset="0.2298" stop-color="#E69C44"/>
<stop offset="0.2549" stop-color="#DB9142"/>
<stop offset="0.2794" stop-color="#C88040"/>
<stop offset="0.3032" stop-color="#AE683C"/>
<stop offset="0.3054" stop-color="#AB653C"/>
<stop offset="0.3482" stop-color="#B16C3D"/>
<stop offset="0.4108" stop-color="#C2803E"/>
<stop offset="0.4851" stop-color="#DE9F41"/>
<stop offset="0.5123" stop-color="#EAAD42"/>
<stop offset="0.5851" stop-color="#DA9B3C"/>
<stop offset="0.7493" stop-color="#BA7631"/>
<stop offset="0.8828" stop-color="#A7602A"/>
<stop offset="0.968" stop-color="#A05828"/>
</linearGradient>
<linearGradient id="paint1_linear_10060_25895" x1="95.9291" y1="88.6759" x2="55.2916" y2="88.578" gradientUnits="userSpaceOnUse">
<stop offset="0.152" stop-color="#F9C248"/>
<stop offset="0.1842" stop-color="#F5BC45"/>
<stop offset="0.229" stop-color="#EBAA3D"/>
<stop offset="0.2811" stop-color="#D98C30"/>
<stop offset="0.3338" stop-color="#C3671F"/>
<stop offset="0.5262" stop-color="#FDCA58"/>
<stop offset="0.7375" stop-color="#FCBD3D"/>
<stop offset="0.9816" stop-color="#BC6F1B"/>
</linearGradient>
<linearGradient id="paint2_linear_10060_25895" x1="92.4681" y1="84.076" x2="52.9211" y2="84.076" gradientUnits="userSpaceOnUse">
<stop stop-color="#B77500"/>
<stop offset="0.1978" stop-color="#F9C248"/>
<stop offset="0.2045" stop-color="#F9C54D"/>
<stop offset="0.2557" stop-color="#FBD76B"/>
<stop offset="0.2992" stop-color="#FDE37E"/>
<stop offset="0.3297" stop-color="#FDE785"/>
<stop offset="0.3688" stop-color="#FDE37D"/>
<stop offset="0.428" stop-color="#FDD769"/>
<stop offset="0.4934" stop-color="#FCC54A"/>
<stop offset="0.7832" stop-color="#F3BA44"/>
<stop offset="0.9322" stop-color="#A35F21"/>
</linearGradient>
<linearGradient id="paint3_linear_10060_25895" x1="87.7712" y1="73.0336" x2="60.2466" y2="93.7254" gradientUnits="userSpaceOnUse">
<stop offset="0.2795" stop-color="#F9C248"/>
<stop offset="0.313" stop-color="#F9C44B"/>
<stop offset="0.3373" stop-color="#FAC954"/>
<stop offset="0.3586" stop-color="#FBD364"/>
<stop offset="0.3781" stop-color="#FCE07A"/>
<stop offset="0.3857" stop-color="#FDE785"/>
<stop offset="0.4059" stop-color="#FDEA8D"/>
<stop offset="0.4366" stop-color="#FEF2A1"/>
<stop offset="0.4704" stop-color="#FFFDC0"/>
<stop offset="0.4847" stop-color="#FFF7B5"/>
<stop offset="0.5099" stop-color="#FEE997"/>
<stop offset="0.5431" stop-color="#FDD166"/>
<stop offset="0.5519" stop-color="#FDCA58"/>
<stop offset="0.7375" stop-color="#FCBD3D"/>
<stop offset="0.9816" stop-color="#BC6F1B"/>
</linearGradient>
<linearGradient id="paint4_linear_10060_25895" x1="98.1098" y1="60.0178" x2="52.6809" y2="103.301" gradientUnits="userSpaceOnUse">
<stop offset="0.3857" stop-color="#FDE785"/>
<stop offset="0.4405" stop-color="#FDD86E"/>
<stop offset="0.5022" stop-color="#FDCA58"/>
<stop offset="0.547" stop-color="#FCBD3D"/>
<stop offset="0.6193" stop-color="#EDAC31"/>
<stop offset="0.706" stop-color="#E19F27"/>
<stop offset="0.7838" stop-color="#DD9A24"/>
</linearGradient>
<linearGradient id="paint5_linear_10060_25895" x1="92.9807" y1="81.0743" x2="57.5667" y2="80.9402" gradientUnits="userSpaceOnUse">
<stop stop-color="#DD9912"/>
<stop offset="0.5239" stop-color="#D6751D"/>
<stop offset="0.8524" stop-color="#F9C248"/>
</linearGradient>
<linearGradient id="paint6_linear_10060_25895" x1="95.8355" y1="85.8669" x2="55.2063" y2="85.769" gradientUnits="userSpaceOnUse">
<stop offset="0.2029" stop-color="#EA9F44"/>
<stop offset="0.2298" stop-color="#E69C44"/>
<stop offset="0.2549" stop-color="#DB9142"/>
<stop offset="0.2794" stop-color="#C88040"/>
<stop offset="0.3032" stop-color="#AE683C"/>
<stop offset="0.3054" stop-color="#AB653C"/>
<stop offset="0.3482" stop-color="#B16C3D"/>
<stop offset="0.4108" stop-color="#C2803E"/>
<stop offset="0.4851" stop-color="#DE9F41"/>
<stop offset="0.5123" stop-color="#EAAD42"/>
<stop offset="0.5851" stop-color="#DA9B3C"/>
<stop offset="0.7493" stop-color="#BA7631"/>
<stop offset="0.8828" stop-color="#A7602A"/>
<stop offset="0.968" stop-color="#A05828"/>
</linearGradient>
<linearGradient id="paint7_linear_10060_25895" x1="95.8367" y1="82.0601" x2="55.1989" y2="81.9622" gradientUnits="userSpaceOnUse">
<stop offset="0.152" stop-color="#F9C248"/>
<stop offset="0.1842" stop-color="#F5BC45"/>
<stop offset="0.229" stop-color="#EBAA3D"/>
<stop offset="0.2811" stop-color="#D98C30"/>
<stop offset="0.3338" stop-color="#C3671F"/>
<stop offset="0.5262" stop-color="#FDCA58"/>
<stop offset="0.7375" stop-color="#FCBD3D"/>
<stop offset="0.9816" stop-color="#BC6F1B"/>
</linearGradient>
<linearGradient id="paint8_linear_10060_25895" x1="92.3777" y1="77.4602" x2="52.8304" y2="77.4602" gradientUnits="userSpaceOnUse">
<stop stop-color="#B77500"/>
<stop offset="0.1978" stop-color="#F9C248"/>
<stop offset="0.2045" stop-color="#F9C54D"/>
<stop offset="0.2557" stop-color="#FBD76B"/>
<stop offset="0.2992" stop-color="#FDE37E"/>
<stop offset="0.3297" stop-color="#FDE785"/>
<stop offset="0.3688" stop-color="#FDE37D"/>
<stop offset="0.428" stop-color="#FDD769"/>
<stop offset="0.4934" stop-color="#FCC54A"/>
<stop offset="0.7832" stop-color="#F3BA44"/>
<stop offset="0.9322" stop-color="#A35F21"/>
</linearGradient>
<linearGradient id="paint9_linear_10060_25895" x1="87.6794" y1="66.4178" x2="60.1548" y2="87.1096" gradientUnits="userSpaceOnUse">
<stop offset="0.2795" stop-color="#F9C248"/>
<stop offset="0.313" stop-color="#F9C44B"/>
<stop offset="0.3373" stop-color="#FAC954"/>
<stop offset="0.3586" stop-color="#FBD364"/>
<stop offset="0.3781" stop-color="#FCE07A"/>
<stop offset="0.3857" stop-color="#FDE785"/>
<stop offset="0.4059" stop-color="#FDEA8D"/>
<stop offset="0.4366" stop-color="#FEF2A1"/>
<stop offset="0.4704" stop-color="#FFFDC0"/>
<stop offset="0.4847" stop-color="#FFF7B5"/>
<stop offset="0.5099" stop-color="#FEE997"/>
<stop offset="0.5431" stop-color="#FDD166"/>
<stop offset="0.5519" stop-color="#FDCA58"/>
<stop offset="0.7375" stop-color="#FCBD3D"/>
<stop offset="0.9816" stop-color="#BC6F1B"/>
</linearGradient>
<linearGradient id="paint10_linear_10060_25895" x1="98.0174" y1="53.402" x2="52.5885" y2="96.6854" gradientUnits="userSpaceOnUse">
<stop offset="0.3857" stop-color="#FDE785"/>
<stop offset="0.4405" stop-color="#FDD86E"/>
<stop offset="0.5022" stop-color="#FDCA58"/>
<stop offset="0.547" stop-color="#FCBD3D"/>
<stop offset="0.6193" stop-color="#EDAC31"/>
<stop offset="0.706" stop-color="#E19F27"/>
<stop offset="0.7838" stop-color="#DD9A24"/>
</linearGradient>
<linearGradient id="paint11_linear_10060_25895" x1="92.888" y1="74.4585" x2="57.474" y2="74.3244" gradientUnits="userSpaceOnUse">
<stop stop-color="#DD9912"/>
<stop offset="0.5239" stop-color="#D6751D"/>
<stop offset="0.8524" stop-color="#F9C248"/>
</linearGradient>
<linearGradient id="paint12_linear_10060_25895" x1="95.9263" y1="79.6102" x2="55.297" y2="79.5123" gradientUnits="userSpaceOnUse">
<stop offset="0.2029" stop-color="#EA9F44"/>
<stop offset="0.2298" stop-color="#E69C44"/>
<stop offset="0.2549" stop-color="#DB9142"/>
<stop offset="0.2794" stop-color="#C88040"/>
<stop offset="0.3032" stop-color="#AE683C"/>
<stop offset="0.3054" stop-color="#AB653C"/>
<stop offset="0.3482" stop-color="#B16C3D"/>
<stop offset="0.4108" stop-color="#C2803E"/>
<stop offset="0.4851" stop-color="#DE9F41"/>
<stop offset="0.5123" stop-color="#EAAD42"/>
<stop offset="0.5851" stop-color="#DA9B3C"/>
<stop offset="0.7493" stop-color="#BA7631"/>
<stop offset="0.8828" stop-color="#A7602A"/>
<stop offset="0.968" stop-color="#A05828"/>
</linearGradient>
<linearGradient id="paint13_linear_10060_25895" x1="95.9291" y1="75.8043" x2="55.2916" y2="75.7064" gradientUnits="userSpaceOnUse">
<stop offset="0.152" stop-color="#F9C248"/>
<stop offset="0.1842" stop-color="#F5BC45"/>
<stop offset="0.229" stop-color="#EBAA3D"/>
<stop offset="0.2811" stop-color="#D98C30"/>
<stop offset="0.3338" stop-color="#C3671F"/>
<stop offset="0.5262" stop-color="#FDCA58"/>
<stop offset="0.7375" stop-color="#FCBD3D"/>
<stop offset="0.9816" stop-color="#BC6F1B"/>
</linearGradient>
<linearGradient id="paint14_linear_10060_25895" x1="92.4681" y1="71.2035" x2="52.9211" y2="71.2035" gradientUnits="userSpaceOnUse">
<stop stop-color="#B77500"/>
<stop offset="0.1978" stop-color="#F9C248"/>
<stop offset="0.2045" stop-color="#F9C54D"/>
<stop offset="0.2557" stop-color="#FBD76B"/>
<stop offset="0.2992" stop-color="#FDE37E"/>
<stop offset="0.3297" stop-color="#FDE785"/>
<stop offset="0.3688" stop-color="#FDE37D"/>
<stop offset="0.428" stop-color="#FDD769"/>
<stop offset="0.4934" stop-color="#FCC54A"/>
<stop offset="0.7832" stop-color="#F3BA44"/>
<stop offset="0.9322" stop-color="#A35F21"/>
</linearGradient>
<linearGradient id="paint15_linear_10060_25895" x1="87.7712" y1="60.161" x2="60.2466" y2="80.8529" gradientUnits="userSpaceOnUse">
<stop offset="0.2795" stop-color="#F9C248"/>
<stop offset="0.313" stop-color="#F9C44B"/>
<stop offset="0.3373" stop-color="#FAC954"/>
<stop offset="0.3586" stop-color="#FBD364"/>
<stop offset="0.3781" stop-color="#FCE07A"/>
<stop offset="0.3857" stop-color="#FDE785"/>
<stop offset="0.4059" stop-color="#FDEA8D"/>
<stop offset="0.4366" stop-color="#FEF2A1"/>
<stop offset="0.4704" stop-color="#FFFDC0"/>
<stop offset="0.4847" stop-color="#FFF7B5"/>
<stop offset="0.5099" stop-color="#FEE997"/>
<stop offset="0.5431" stop-color="#FDD166"/>
<stop offset="0.5519" stop-color="#FDCA58"/>
<stop offset="0.7375" stop-color="#FCBD3D"/>
<stop offset="0.9816" stop-color="#BC6F1B"/>
</linearGradient>
<linearGradient id="paint16_linear_10060_25895" x1="98.1098" y1="47.1443" x2="52.6809" y2="90.4277" gradientUnits="userSpaceOnUse">
<stop offset="0.3857" stop-color="#FDE785"/>
<stop offset="0.4405" stop-color="#FDD86E"/>
<stop offset="0.5022" stop-color="#FDCA58"/>
<stop offset="0.547" stop-color="#FCBD3D"/>
<stop offset="0.6193" stop-color="#EDAC31"/>
<stop offset="0.706" stop-color="#E19F27"/>
<stop offset="0.7838" stop-color="#DD9A24"/>
</linearGradient>
<linearGradient id="paint17_linear_10060_25895" x1="92.9807" y1="68.2008" x2="57.5667" y2="68.0667" gradientUnits="userSpaceOnUse">
<stop stop-color="#DD9912"/>
<stop offset="0.5239" stop-color="#D6751D"/>
<stop offset="0.8524" stop-color="#F9C248"/>
</linearGradient>
<linearGradient id="paint18_linear_10060_25895" x1="95.8355" y1="72.9944" x2="55.2063" y2="72.8965" gradientUnits="userSpaceOnUse">
<stop offset="0.2029" stop-color="#EA9F44"/>
<stop offset="0.2298" stop-color="#E69C44"/>
<stop offset="0.2549" stop-color="#DB9142"/>
<stop offset="0.2794" stop-color="#C88040"/>
<stop offset="0.3032" stop-color="#AE683C"/>
<stop offset="0.3054" stop-color="#AB653C"/>
<stop offset="0.3482" stop-color="#B16C3D"/>
<stop offset="0.4108" stop-color="#C2803E"/>
<stop offset="0.4851" stop-color="#DE9F41"/>
<stop offset="0.5123" stop-color="#EAAD42"/>
<stop offset="0.5851" stop-color="#DA9B3C"/>
<stop offset="0.7493" stop-color="#BA7631"/>
<stop offset="0.8828" stop-color="#A7602A"/>
<stop offset="0.968" stop-color="#A05828"/>
</linearGradient>
<linearGradient id="paint19_linear_10060_25895" x1="95.8367" y1="69.1885" x2="55.1989" y2="69.0906" gradientUnits="userSpaceOnUse">
<stop offset="0.152" stop-color="#F9C248"/>
<stop offset="0.1842" stop-color="#F5BC45"/>
<stop offset="0.229" stop-color="#EBAA3D"/>
<stop offset="0.2811" stop-color="#D98C30"/>
<stop offset="0.3338" stop-color="#C3671F"/>
<stop offset="0.5262" stop-color="#FDCA58"/>
<stop offset="0.7375" stop-color="#FCBD3D"/>
<stop offset="0.9816" stop-color="#BC6F1B"/>
</linearGradient>
<linearGradient id="paint20_linear_10060_25895" x1="92.3777" y1="64.5877" x2="52.8304" y2="64.5877" gradientUnits="userSpaceOnUse">
<stop stop-color="#B77500"/>
<stop offset="0.1978" stop-color="#F9C248"/>
<stop offset="0.2045" stop-color="#F9C54D"/>
<stop offset="0.2557" stop-color="#FBD76B"/>
<stop offset="0.2992" stop-color="#FDE37E"/>
<stop offset="0.3297" stop-color="#FDE785"/>
<stop offset="0.3688" stop-color="#FDE37D"/>
<stop offset="0.428" stop-color="#FDD769"/>
<stop offset="0.4934" stop-color="#FCC54A"/>
<stop offset="0.7832" stop-color="#F3BA44"/>
<stop offset="0.9322" stop-color="#A35F21"/>
</linearGradient>
<linearGradient id="paint21_linear_10060_25895" x1="87.6794" y1="53.5452" x2="60.1548" y2="74.2371" gradientUnits="userSpaceOnUse">
<stop offset="0.2795" stop-color="#F9C248"/>
<stop offset="0.313" stop-color="#F9C44B"/>
<stop offset="0.3373" stop-color="#FAC954"/>
<stop offset="0.3586" stop-color="#FBD364"/>
<stop offset="0.3781" stop-color="#FCE07A"/>
<stop offset="0.3857" stop-color="#FDE785"/>
<stop offset="0.4059" stop-color="#FDEA8D"/>
<stop offset="0.4366" stop-color="#FEF2A1"/>
<stop offset="0.4704" stop-color="#FFFDC0"/>
<stop offset="0.4847" stop-color="#FFF7B5"/>
<stop offset="0.5099" stop-color="#FEE997"/>
<stop offset="0.5431" stop-color="#FDD166"/>
<stop offset="0.5519" stop-color="#FDCA58"/>
<stop offset="0.7375" stop-color="#FCBD3D"/>
<stop offset="0.9816" stop-color="#BC6F1B"/>
</linearGradient>
<linearGradient id="paint22_linear_10060_25895" x1="98.0174" y1="40.5294" x2="52.5885" y2="83.8129" gradientUnits="userSpaceOnUse">
<stop offset="0.3857" stop-color="#FDE785"/>
<stop offset="0.4405" stop-color="#FDD86E"/>
<stop offset="0.5022" stop-color="#FDCA58"/>
<stop offset="0.547" stop-color="#FCBD3D"/>
<stop offset="0.6193" stop-color="#EDAC31"/>
<stop offset="0.706" stop-color="#E19F27"/>
<stop offset="0.7838" stop-color="#DD9A24"/>
</linearGradient>
<linearGradient id="paint23_linear_10060_25895" x1="92.888" y1="61.586" x2="57.474" y2="61.4518" gradientUnits="userSpaceOnUse">
<stop stop-color="#DD9912"/>
<stop offset="0.5239" stop-color="#D6751D"/>
<stop offset="0.8524" stop-color="#F9C248"/>
</linearGradient>
<linearGradient id="paint24_linear_10060_25895" x1="95.9263" y1="66.6991" x2="55.297" y2="66.6012" gradientUnits="userSpaceOnUse">
<stop offset="0.2029" stop-color="#EA9F44"/>
<stop offset="0.2298" stop-color="#E69C44"/>
<stop offset="0.2549" stop-color="#DB9142"/>
<stop offset="0.2794" stop-color="#C88040"/>
<stop offset="0.3032" stop-color="#AE683C"/>
<stop offset="0.3054" stop-color="#AB653C"/>
<stop offset="0.3482" stop-color="#B16C3D"/>
<stop offset="0.4108" stop-color="#C2803E"/>
<stop offset="0.4851" stop-color="#DE9F41"/>
<stop offset="0.5123" stop-color="#EAAD42"/>
<stop offset="0.5851" stop-color="#DA9B3C"/>
<stop offset="0.7493" stop-color="#BA7631"/>
<stop offset="0.8828" stop-color="#A7602A"/>
<stop offset="0.968" stop-color="#A05828"/>
</linearGradient>
<linearGradient id="paint25_linear_10060_25895" x1="95.9291" y1="62.8923" x2="55.2916" y2="62.7944" gradientUnits="userSpaceOnUse">
<stop offset="0.152" stop-color="#F9C248"/>
<stop offset="0.1842" stop-color="#F5BC45"/>
<stop offset="0.229" stop-color="#EBAA3D"/>
<stop offset="0.2811" stop-color="#D98C30"/>
<stop offset="0.3338" stop-color="#C3671F"/>
<stop offset="0.5262" stop-color="#FDCA58"/>
<stop offset="0.7375" stop-color="#FCBD3D"/>
<stop offset="0.9816" stop-color="#BC6F1B"/>
</linearGradient>
<linearGradient id="paint26_linear_10060_25895" x1="92.4701" y1="58.2924" x2="52.9231" y2="58.2924" gradientUnits="userSpaceOnUse">
<stop stop-color="#B77500"/>
<stop offset="0.1978" stop-color="#F9C248"/>
<stop offset="0.2045" stop-color="#F9C54D"/>
<stop offset="0.2557" stop-color="#FBD76B"/>
<stop offset="0.2992" stop-color="#FDE37E"/>
<stop offset="0.3297" stop-color="#FDE785"/>
<stop offset="0.3688" stop-color="#FDE37D"/>
<stop offset="0.428" stop-color="#FDD769"/>
<stop offset="0.4934" stop-color="#FCC54A"/>
<stop offset="0.7832" stop-color="#F3BA44"/>
<stop offset="0.9322" stop-color="#A35F21"/>
</linearGradient>
<linearGradient id="paint27_linear_10060_25895" x1="87.7712" y1="47.2499" x2="60.2466" y2="67.9418" gradientUnits="userSpaceOnUse">
<stop offset="0.2795" stop-color="#F9C248"/>
<stop offset="0.313" stop-color="#F9C44B"/>
<stop offset="0.3373" stop-color="#FAC954"/>
<stop offset="0.3586" stop-color="#FBD364"/>
<stop offset="0.3781" stop-color="#FCE07A"/>
<stop offset="0.3857" stop-color="#FDE785"/>
<stop offset="0.4059" stop-color="#FDEA8D"/>
<stop offset="0.4366" stop-color="#FEF2A1"/>
<stop offset="0.4704" stop-color="#FFFDC0"/>
<stop offset="0.4847" stop-color="#FFF7B5"/>
<stop offset="0.5099" stop-color="#FEE997"/>
<stop offset="0.5431" stop-color="#FDD166"/>
<stop offset="0.5519" stop-color="#FDCA58"/>
<stop offset="0.7375" stop-color="#FCBD3D"/>
<stop offset="0.9816" stop-color="#BC6F1B"/>
</linearGradient>
<linearGradient id="paint28_linear_10060_25895" x1="98.1098" y1="34.2341" x2="52.6809" y2="77.5176" gradientUnits="userSpaceOnUse">
<stop offset="0.3857" stop-color="#FDE785"/>
<stop offset="0.4405" stop-color="#FDD86E"/>
<stop offset="0.5022" stop-color="#FDCA58"/>
<stop offset="0.547" stop-color="#FCBD3D"/>
<stop offset="0.6193" stop-color="#EDAC31"/>
<stop offset="0.706" stop-color="#E19F27"/>
<stop offset="0.7838" stop-color="#DD9A24"/>
</linearGradient>
<linearGradient id="paint29_linear_10060_25895" x1="92.9807" y1="55.2907" x2="57.5667" y2="55.1565" gradientUnits="userSpaceOnUse">
<stop stop-color="#DD9912"/>
<stop offset="0.5239" stop-color="#D6751D"/>
<stop offset="0.8524" stop-color="#F9C248"/>
</linearGradient>
<linearGradient id="paint30_linear_10060_25895" x1="95.8355" y1="60.0842" x2="55.2063" y2="59.9864" gradientUnits="userSpaceOnUse">
<stop offset="0.2029" stop-color="#EA9F44"/>
<stop offset="0.2298" stop-color="#E69C44"/>
<stop offset="0.2549" stop-color="#DB9142"/>
<stop offset="0.2794" stop-color="#C88040"/>
<stop offset="0.3032" stop-color="#AE683C"/>
<stop offset="0.3054" stop-color="#AB653C"/>
<stop offset="0.3482" stop-color="#B16C3D"/>
<stop offset="0.4108" stop-color="#C2803E"/>
<stop offset="0.4851" stop-color="#DE9F41"/>
<stop offset="0.5123" stop-color="#EAAD42"/>
<stop offset="0.5851" stop-color="#DA9B3C"/>
<stop offset="0.7493" stop-color="#BA7631"/>
<stop offset="0.8828" stop-color="#A7602A"/>
<stop offset="0.968" stop-color="#A05828"/>
</linearGradient>
<linearGradient id="paint31_linear_10060_25895" x1="95.8367" y1="56.2765" x2="55.1989" y2="56.1786" gradientUnits="userSpaceOnUse">
<stop offset="0.152" stop-color="#F9C248"/>
<stop offset="0.1842" stop-color="#F5BC45"/>
<stop offset="0.229" stop-color="#EBAA3D"/>
<stop offset="0.2811" stop-color="#D98C30"/>
<stop offset="0.3338" stop-color="#C3671F"/>
<stop offset="0.5262" stop-color="#FDCA58"/>
<stop offset="0.7375" stop-color="#FCBD3D"/>
<stop offset="0.9816" stop-color="#BC6F1B"/>
</linearGradient>
<linearGradient id="paint32_linear_10060_25895" x1="92.3777" y1="51.6765" x2="52.8304" y2="51.6765" gradientUnits="userSpaceOnUse">
<stop stop-color="#B77500"/>
<stop offset="0.1978" stop-color="#F9C248"/>
<stop offset="0.2045" stop-color="#F9C54D"/>
<stop offset="0.2557" stop-color="#FBD76B"/>
<stop offset="0.2992" stop-color="#FDE37E"/>
<stop offset="0.3297" stop-color="#FDE785"/>
<stop offset="0.3688" stop-color="#FDE37D"/>
<stop offset="0.428" stop-color="#FDD769"/>
<stop offset="0.4934" stop-color="#FCC54A"/>
<stop offset="0.7832" stop-color="#F3BA44"/>
<stop offset="0.9322" stop-color="#A35F21"/>
</linearGradient>
<linearGradient id="paint33_linear_10060_25895" x1="87.6794" y1="40.6341" x2="60.1548" y2="61.3259" gradientUnits="userSpaceOnUse">
<stop offset="0.2795" stop-color="#F9C248"/>
<stop offset="0.313" stop-color="#F9C44B"/>
<stop offset="0.3373" stop-color="#FAC954"/>
<stop offset="0.3586" stop-color="#FBD364"/>
<stop offset="0.3781" stop-color="#FCE07A"/>
<stop offset="0.3857" stop-color="#FDE785"/>
<stop offset="0.4059" stop-color="#FDEA8D"/>
<stop offset="0.4366" stop-color="#FEF2A1"/>
<stop offset="0.4704" stop-color="#FFFDC0"/>
<stop offset="0.4847" stop-color="#FFF7B5"/>
<stop offset="0.5099" stop-color="#FEE997"/>
<stop offset="0.5431" stop-color="#FDD166"/>
<stop offset="0.5519" stop-color="#FDCA58"/>
<stop offset="0.7375" stop-color="#FCBD3D"/>
<stop offset="0.9816" stop-color="#BC6F1B"/>
</linearGradient>
<linearGradient id="paint34_linear_10060_25895" x1="98.0174" y1="27.6183" x2="52.5885" y2="70.9017" gradientUnits="userSpaceOnUse">
<stop offset="0.3857" stop-color="#FDE785"/>
<stop offset="0.4405" stop-color="#FDD86E"/>
<stop offset="0.5022" stop-color="#FDCA58"/>
<stop offset="0.547" stop-color="#FCBD3D"/>
<stop offset="0.6193" stop-color="#EDAC31"/>
<stop offset="0.706" stop-color="#E19F27"/>
<stop offset="0.7838" stop-color="#DD9A24"/>
</linearGradient>
<linearGradient id="paint35_linear_10060_25895" x1="92.888" y1="48.6748" x2="57.474" y2="48.5407" gradientUnits="userSpaceOnUse">
<stop stop-color="#DD9912"/>
<stop offset="0.5239" stop-color="#D6751D"/>
<stop offset="0.8524" stop-color="#F9C248"/>
</linearGradient>
<linearGradient id="paint36_linear_10060_25895" x1="95.9263" y1="53.8276" x2="55.297" y2="53.7296" gradientUnits="userSpaceOnUse">
<stop offset="0.2029" stop-color="#EA9F44"/>
<stop offset="0.2298" stop-color="#E69C44"/>
<stop offset="0.2549" stop-color="#DB9142"/>
<stop offset="0.2794" stop-color="#C88040"/>
<stop offset="0.3032" stop-color="#AE683C"/>
<stop offset="0.3054" stop-color="#AB653C"/>
<stop offset="0.3482" stop-color="#B16C3D"/>
<stop offset="0.4108" stop-color="#C2803E"/>
<stop offset="0.4851" stop-color="#DE9F41"/>
<stop offset="0.5123" stop-color="#EAAD42"/>
<stop offset="0.5851" stop-color="#DA9B3C"/>
<stop offset="0.7493" stop-color="#BA7631"/>
<stop offset="0.8828" stop-color="#A7602A"/>
<stop offset="0.968" stop-color="#A05828"/>
</linearGradient>
<linearGradient id="paint37_linear_10060_25895" x1="95.9291" y1="50.0198" x2="55.2916" y2="49.9219" gradientUnits="userSpaceOnUse">
<stop offset="0.152" stop-color="#F9C248"/>
<stop offset="0.1842" stop-color="#F5BC45"/>
<stop offset="0.229" stop-color="#EBAA3D"/>
<stop offset="0.2811" stop-color="#D98C30"/>
<stop offset="0.3338" stop-color="#C3671F"/>
<stop offset="0.5262" stop-color="#FDCA58"/>
<stop offset="0.7375" stop-color="#FCBD3D"/>
<stop offset="0.9816" stop-color="#BC6F1B"/>
</linearGradient>
<linearGradient id="paint38_linear_10060_25895" x1="92.4701" y1="45.4198" x2="52.9231" y2="45.4198" gradientUnits="userSpaceOnUse">
<stop stop-color="#B77500"/>
<stop offset="0.1978" stop-color="#F9C248"/>
<stop offset="0.2045" stop-color="#F9C54D"/>
<stop offset="0.2557" stop-color="#FBD76B"/>
<stop offset="0.2992" stop-color="#FDE37E"/>
<stop offset="0.3297" stop-color="#FDE785"/>
<stop offset="0.3688" stop-color="#FDE37D"/>
<stop offset="0.428" stop-color="#FDD769"/>
<stop offset="0.4934" stop-color="#FCC54A"/>
<stop offset="0.7832" stop-color="#F3BA44"/>
<stop offset="0.9322" stop-color="#A35F21"/>
</linearGradient>
<linearGradient id="paint39_linear_10060_25895" x1="87.7712" y1="34.3774" x2="60.2466" y2="55.0692" gradientUnits="userSpaceOnUse">
<stop offset="0.2795" stop-color="#F9C248"/>
<stop offset="0.313" stop-color="#F9C44B"/>
<stop offset="0.3373" stop-color="#FAC954"/>
<stop offset="0.3586" stop-color="#FBD364"/>
<stop offset="0.3781" stop-color="#FCE07A"/>
<stop offset="0.3857" stop-color="#FDE785"/>
<stop offset="0.4059" stop-color="#FDEA8D"/>
<stop offset="0.4366" stop-color="#FEF2A1"/>
<stop offset="0.4704" stop-color="#FFFDC0"/>
<stop offset="0.4847" stop-color="#FFF7B5"/>
<stop offset="0.5099" stop-color="#FEE997"/>
<stop offset="0.5431" stop-color="#FDD166"/>
<stop offset="0.5519" stop-color="#FDCA58"/>
<stop offset="0.7375" stop-color="#FCBD3D"/>
<stop offset="0.9816" stop-color="#BC6F1B"/>
</linearGradient>
<linearGradient id="paint40_linear_10060_25895" x1="98.1098" y1="21.3616" x2="52.6809" y2="64.645" gradientUnits="userSpaceOnUse">
<stop offset="0.3857" stop-color="#FDE785"/>
<stop offset="0.4405" stop-color="#FDD86E"/>
<stop offset="0.5022" stop-color="#FDCA58"/>
<stop offset="0.547" stop-color="#FCBD3D"/>
<stop offset="0.6193" stop-color="#EDAC31"/>
<stop offset="0.706" stop-color="#E19F27"/>
<stop offset="0.7838" stop-color="#DD9A24"/>
</linearGradient>
<linearGradient id="paint41_linear_10060_25895" x1="92.9807" y1="42.4181" x2="57.5667" y2="42.284" gradientUnits="userSpaceOnUse">
<stop stop-color="#DD9912"/>
<stop offset="0.5239" stop-color="#D6751D"/>
<stop offset="0.8524" stop-color="#F9C248"/>
</linearGradient>
<linearGradient id="paint42_linear_10060_25895" x1="95.8355" y1="47.2117" x2="55.2063" y2="47.1139" gradientUnits="userSpaceOnUse">
<stop offset="0.2029" stop-color="#EA9F44"/>
<stop offset="0.2298" stop-color="#E69C44"/>
<stop offset="0.2549" stop-color="#DB9142"/>
<stop offset="0.2794" stop-color="#C88040"/>
<stop offset="0.3032" stop-color="#AE683C"/>
<stop offset="0.3054" stop-color="#AB653C"/>
<stop offset="0.3482" stop-color="#B16C3D"/>
<stop offset="0.4108" stop-color="#C2803E"/>
<stop offset="0.4851" stop-color="#DE9F41"/>
<stop offset="0.5123" stop-color="#EAAD42"/>
<stop offset="0.5851" stop-color="#DA9B3C"/>
<stop offset="0.7493" stop-color="#BA7631"/>
<stop offset="0.8828" stop-color="#A7602A"/>
<stop offset="0.968" stop-color="#A05828"/>
</linearGradient>
<linearGradient id="paint43_linear_10060_25895" x1="95.8367" y1="43.4059" x2="55.1989" y2="43.3079" gradientUnits="userSpaceOnUse">
<stop offset="0.152" stop-color="#F9C248"/>
<stop offset="0.1842" stop-color="#F5BC45"/>
<stop offset="0.229" stop-color="#EBAA3D"/>
<stop offset="0.2811" stop-color="#D98C30"/>
<stop offset="0.3338" stop-color="#C3671F"/>
<stop offset="0.5262" stop-color="#FDCA58"/>
<stop offset="0.7375" stop-color="#FCBD3D"/>
<stop offset="0.9816" stop-color="#BC6F1B"/>
</linearGradient>
<linearGradient id="paint44_linear_10060_25895" x1="92.3777" y1="38.805" x2="52.8304" y2="38.805" gradientUnits="userSpaceOnUse">
<stop stop-color="#B77500"/>
<stop offset="0.1978" stop-color="#F9C248"/>
<stop offset="0.2045" stop-color="#F9C54D"/>
<stop offset="0.2557" stop-color="#FBD76B"/>
<stop offset="0.2992" stop-color="#FDE37E"/>
<stop offset="0.3297" stop-color="#FDE785"/>
<stop offset="0.3688" stop-color="#FDE37D"/>
<stop offset="0.428" stop-color="#FDD769"/>
<stop offset="0.4934" stop-color="#FCC54A"/>
<stop offset="0.7832" stop-color="#F3BA44"/>
<stop offset="0.9322" stop-color="#A35F21"/>
</linearGradient>
<linearGradient id="paint45_linear_10060_25895" x1="87.6794" y1="27.7625" x2="60.1548" y2="48.4544" gradientUnits="userSpaceOnUse">
<stop offset="0.2795" stop-color="#F9C248"/>
<stop offset="0.313" stop-color="#F9C44B"/>
<stop offset="0.3373" stop-color="#FAC954"/>
<stop offset="0.3586" stop-color="#FBD364"/>
<stop offset="0.3781" stop-color="#FCE07A"/>
<stop offset="0.3857" stop-color="#FDE785"/>
<stop offset="0.4059" stop-color="#FDEA8D"/>
<stop offset="0.4366" stop-color="#FEF2A1"/>
<stop offset="0.4704" stop-color="#FFFDC0"/>
<stop offset="0.4847" stop-color="#FFF7B5"/>
<stop offset="0.5099" stop-color="#FEE997"/>
<stop offset="0.5431" stop-color="#FDD166"/>
<stop offset="0.5519" stop-color="#FDCA58"/>
<stop offset="0.7375" stop-color="#FCBD3D"/>
<stop offset="0.9816" stop-color="#BC6F1B"/>
</linearGradient>
<linearGradient id="paint46_linear_10060_25895" x1="98.0174" y1="14.7467" x2="52.5885" y2="58.0302" gradientUnits="userSpaceOnUse">
<stop offset="0.3857" stop-color="#FDE785"/>
<stop offset="0.4405" stop-color="#FDD86E"/>
<stop offset="0.5022" stop-color="#FDCA58"/>
<stop offset="0.547" stop-color="#FCBD3D"/>
<stop offset="0.6193" stop-color="#EDAC31"/>
<stop offset="0.706" stop-color="#E19F27"/>
<stop offset="0.7838" stop-color="#DD9A24"/>
</linearGradient>
<linearGradient id="paint47_linear_10060_25895" x1="92.888" y1="35.8033" x2="57.474" y2="35.6691" gradientUnits="userSpaceOnUse">
<stop stop-color="#DD9912"/>
<stop offset="0.5239" stop-color="#D6751D"/>
<stop offset="0.8524" stop-color="#F9C248"/>
</linearGradient>
<linearGradient id="paint48_linear_10060_25895" x1="118.836" y1="97.2122" x2="78.2063" y2="97.1143" gradientUnits="userSpaceOnUse">
<stop offset="0.2029" stop-color="#EA9F44"/>
<stop offset="0.2298" stop-color="#E69C44"/>
<stop offset="0.2549" stop-color="#DB9142"/>
<stop offset="0.2794" stop-color="#C88040"/>
<stop offset="0.3032" stop-color="#AE683C"/>
<stop offset="0.3054" stop-color="#AB653C"/>
<stop offset="0.3482" stop-color="#B16C3D"/>
<stop offset="0.4108" stop-color="#C2803E"/>
<stop offset="0.4851" stop-color="#DE9F41"/>
<stop offset="0.5123" stop-color="#EAAD42"/>
<stop offset="0.5851" stop-color="#DA9B3C"/>
<stop offset="0.7493" stop-color="#BA7631"/>
<stop offset="0.8828" stop-color="#A7602A"/>
<stop offset="0.968" stop-color="#A05828"/>
</linearGradient>
<linearGradient id="paint49_linear_10060_25895" x1="118.837" y1="93.4044" x2="78.1989" y2="93.3065" gradientUnits="userSpaceOnUse">
<stop offset="0.152" stop-color="#F9C248"/>
<stop offset="0.1842" stop-color="#F5BC45"/>
<stop offset="0.229" stop-color="#EBAA3D"/>
<stop offset="0.2811" stop-color="#D98C30"/>
<stop offset="0.3338" stop-color="#C3671F"/>
<stop offset="0.5262" stop-color="#FDCA58"/>
<stop offset="0.7375" stop-color="#FCBD3D"/>
<stop offset="0.9816" stop-color="#BC6F1B"/>
</linearGradient>
<linearGradient id="paint50_linear_10060_25895" x1="115.378" y1="88.8045" x2="75.8304" y2="88.8045" gradientUnits="userSpaceOnUse">
<stop stop-color="#B77500"/>
<stop offset="0.1978" stop-color="#F9C248"/>
<stop offset="0.2045" stop-color="#F9C54D"/>
<stop offset="0.2557" stop-color="#FBD76B"/>
<stop offset="0.2992" stop-color="#FDE37E"/>
<stop offset="0.3297" stop-color="#FDE785"/>
<stop offset="0.3688" stop-color="#FDE37D"/>
<stop offset="0.428" stop-color="#FDD769"/>
<stop offset="0.4934" stop-color="#FCC54A"/>
<stop offset="0.7832" stop-color="#F3BA44"/>
<stop offset="0.9322" stop-color="#A35F21"/>
</linearGradient>
<linearGradient id="paint51_linear_10060_25895" x1="110.679" y1="77.762" x2="83.1548" y2="98.4539" gradientUnits="userSpaceOnUse">
<stop offset="0.2795" stop-color="#F9C248"/>
<stop offset="0.313" stop-color="#F9C44B"/>
<stop offset="0.3373" stop-color="#FAC954"/>
<stop offset="0.3586" stop-color="#FBD364"/>
<stop offset="0.3781" stop-color="#FCE07A"/>
<stop offset="0.3857" stop-color="#FDE785"/>
<stop offset="0.4059" stop-color="#FDEA8D"/>
<stop offset="0.4366" stop-color="#FEF2A1"/>
<stop offset="0.4704" stop-color="#FFFDC0"/>
<stop offset="0.4847" stop-color="#FFF7B5"/>
<stop offset="0.5099" stop-color="#FEE997"/>
<stop offset="0.5431" stop-color="#FDD166"/>
<stop offset="0.5519" stop-color="#FDCA58"/>
<stop offset="0.7375" stop-color="#FCBD3D"/>
<stop offset="0.9816" stop-color="#BC6F1B"/>
</linearGradient>
<linearGradient id="paint52_linear_10060_25895" x1="121.017" y1="64.7462" x2="75.5885" y2="108.03" gradientUnits="userSpaceOnUse">
<stop offset="0.3857" stop-color="#FDE785"/>
<stop offset="0.4405" stop-color="#FDD86E"/>
<stop offset="0.5022" stop-color="#FDCA58"/>
<stop offset="0.547" stop-color="#FCBD3D"/>
<stop offset="0.6193" stop-color="#EDAC31"/>
<stop offset="0.706" stop-color="#E19F27"/>
<stop offset="0.7838" stop-color="#DD9A24"/>
</linearGradient>
<linearGradient id="paint53_linear_10060_25895" x1="115.888" y1="85.8028" x2="80.474" y2="85.6686" gradientUnits="userSpaceOnUse">
<stop stop-color="#DD9912"/>
<stop offset="0.5239" stop-color="#D6751D"/>
<stop offset="0.8524" stop-color="#F9C248"/>
</linearGradient>
<linearGradient id="paint54_linear_10060_25895" x1="118.836" y1="90.2122" x2="78.2063" y2="90.1143" gradientUnits="userSpaceOnUse">
<stop offset="0.2029" stop-color="#EA9F44"/>
<stop offset="0.2298" stop-color="#E69C44"/>
<stop offset="0.2549" stop-color="#DB9142"/>
<stop offset="0.2794" stop-color="#C88040"/>
<stop offset="0.3032" stop-color="#AE683C"/>
<stop offset="0.3054" stop-color="#AB653C"/>
<stop offset="0.3482" stop-color="#B16C3D"/>
<stop offset="0.4108" stop-color="#C2803E"/>
<stop offset="0.4851" stop-color="#DE9F41"/>
<stop offset="0.5123" stop-color="#EAAD42"/>
<stop offset="0.5851" stop-color="#DA9B3C"/>
<stop offset="0.7493" stop-color="#BA7631"/>
<stop offset="0.8828" stop-color="#A7602A"/>
<stop offset="0.968" stop-color="#A05828"/>
</linearGradient>
<linearGradient id="paint55_linear_10060_25895" x1="118.837" y1="86.4044" x2="78.1989" y2="86.3065" gradientUnits="userSpaceOnUse">
<stop offset="0.152" stop-color="#F9C248"/>
<stop offset="0.1842" stop-color="#F5BC45"/>
<stop offset="0.229" stop-color="#EBAA3D"/>
<stop offset="0.2811" stop-color="#D98C30"/>
<stop offset="0.3338" stop-color="#C3671F"/>
<stop offset="0.5262" stop-color="#FDCA58"/>
<stop offset="0.7375" stop-color="#FCBD3D"/>
<stop offset="0.9816" stop-color="#BC6F1B"/>
</linearGradient>
<linearGradient id="paint56_linear_10060_25895" x1="115.378" y1="81.8045" x2="75.8304" y2="81.8045" gradientUnits="userSpaceOnUse">
<stop stop-color="#B77500"/>
<stop offset="0.1978" stop-color="#F9C248"/>
<stop offset="0.2045" stop-color="#F9C54D"/>
<stop offset="0.2557" stop-color="#FBD76B"/>
<stop offset="0.2992" stop-color="#FDE37E"/>
<stop offset="0.3297" stop-color="#FDE785"/>
<stop offset="0.3688" stop-color="#FDE37D"/>
<stop offset="0.428" stop-color="#FDD769"/>
<stop offset="0.4934" stop-color="#FCC54A"/>
<stop offset="0.7832" stop-color="#F3BA44"/>
<stop offset="0.9322" stop-color="#A35F21"/>
</linearGradient>
<linearGradient id="paint57_linear_10060_25895" x1="110.679" y1="70.762" x2="83.1548" y2="91.4539" gradientUnits="userSpaceOnUse">
<stop offset="0.2795" stop-color="#F9C248"/>
<stop offset="0.313" stop-color="#F9C44B"/>
<stop offset="0.3373" stop-color="#FAC954"/>
<stop offset="0.3586" stop-color="#FBD364"/>
<stop offset="0.3781" stop-color="#FCE07A"/>
<stop offset="0.3857" stop-color="#FDE785"/>
<stop offset="0.4059" stop-color="#FDEA8D"/>
<stop offset="0.4366" stop-color="#FEF2A1"/>
<stop offset="0.4704" stop-color="#FFFDC0"/>
<stop offset="0.4847" stop-color="#FFF7B5"/>
<stop offset="0.5099" stop-color="#FEE997"/>
<stop offset="0.5431" stop-color="#FDD166"/>
<stop offset="0.5519" stop-color="#FDCA58"/>
<stop offset="0.7375" stop-color="#FCBD3D"/>
<stop offset="0.9816" stop-color="#BC6F1B"/>
</linearGradient>
<linearGradient id="paint58_linear_10060_25895" x1="121.017" y1="57.7462" x2="75.5885" y2="101.03" gradientUnits="userSpaceOnUse">
<stop offset="0.3857" stop-color="#FDE785"/>
<stop offset="0.4405" stop-color="#FDD86E"/>
<stop offset="0.5022" stop-color="#FDCA58"/>
<stop offset="0.547" stop-color="#FCBD3D"/>
<stop offset="0.6193" stop-color="#EDAC31"/>
<stop offset="0.706" stop-color="#E19F27"/>
<stop offset="0.7838" stop-color="#DD9A24"/>
</linearGradient>
<linearGradient id="paint59_linear_10060_25895" x1="115.888" y1="78.8028" x2="80.474" y2="78.6686" gradientUnits="userSpaceOnUse">
<stop stop-color="#DD9912"/>
<stop offset="0.5239" stop-color="#D6751D"/>
<stop offset="0.8524" stop-color="#F9C248"/>
</linearGradient>
<linearGradient id="paint60_linear_10060_25895" x1="118.836" y1="83.2122" x2="78.2063" y2="83.1143" gradientUnits="userSpaceOnUse">
<stop offset="0.2029" stop-color="#EA9F44"/>
<stop offset="0.2298" stop-color="#E69C44"/>
<stop offset="0.2549" stop-color="#DB9142"/>
<stop offset="0.2794" stop-color="#C88040"/>
<stop offset="0.3032" stop-color="#AE683C"/>
<stop offset="0.3054" stop-color="#AB653C"/>
<stop offset="0.3482" stop-color="#B16C3D"/>
<stop offset="0.4108" stop-color="#C2803E"/>
<stop offset="0.4851" stop-color="#DE9F41"/>
<stop offset="0.5123" stop-color="#EAAD42"/>
<stop offset="0.5851" stop-color="#DA9B3C"/>
<stop offset="0.7493" stop-color="#BA7631"/>
<stop offset="0.8828" stop-color="#A7602A"/>
<stop offset="0.968" stop-color="#A05828"/>
</linearGradient>
<linearGradient id="paint61_linear_10060_25895" x1="118.837" y1="79.4044" x2="78.1989" y2="79.3065" gradientUnits="userSpaceOnUse">
<stop offset="0.152" stop-color="#F9C248"/>
<stop offset="0.1842" stop-color="#F5BC45"/>
<stop offset="0.229" stop-color="#EBAA3D"/>
<stop offset="0.2811" stop-color="#D98C30"/>
<stop offset="0.3338" stop-color="#C3671F"/>
<stop offset="0.5262" stop-color="#FDCA58"/>
<stop offset="0.7375" stop-color="#FCBD3D"/>
<stop offset="0.9816" stop-color="#BC6F1B"/>
</linearGradient>
<linearGradient id="paint62_linear_10060_25895" x1="115.378" y1="74.8045" x2="75.8304" y2="74.8045" gradientUnits="userSpaceOnUse">
<stop stop-color="#B77500"/>
<stop offset="0.1978" stop-color="#F9C248"/>
<stop offset="0.2045" stop-color="#F9C54D"/>
<stop offset="0.2557" stop-color="#FBD76B"/>
<stop offset="0.2992" stop-color="#FDE37E"/>
<stop offset="0.3297" stop-color="#FDE785"/>
<stop offset="0.3688" stop-color="#FDE37D"/>
<stop offset="0.428" stop-color="#FDD769"/>
<stop offset="0.4934" stop-color="#FCC54A"/>
<stop offset="0.7832" stop-color="#F3BA44"/>
<stop offset="0.9322" stop-color="#A35F21"/>
</linearGradient>
<linearGradient id="paint63_linear_10060_25895" x1="110.679" y1="63.762" x2="83.1548" y2="84.4539" gradientUnits="userSpaceOnUse">
<stop offset="0.2795" stop-color="#F9C248"/>
<stop offset="0.313" stop-color="#F9C44B"/>
<stop offset="0.3373" stop-color="#FAC954"/>
<stop offset="0.3586" stop-color="#FBD364"/>
<stop offset="0.3781" stop-color="#FCE07A"/>
<stop offset="0.3857" stop-color="#FDE785"/>
<stop offset="0.4059" stop-color="#FDEA8D"/>
<stop offset="0.4366" stop-color="#FEF2A1"/>
<stop offset="0.4704" stop-color="#FFFDC0"/>
<stop offset="0.4847" stop-color="#FFF7B5"/>
<stop offset="0.5099" stop-color="#FEE997"/>
<stop offset="0.5431" stop-color="#FDD166"/>
<stop offset="0.5519" stop-color="#FDCA58"/>
<stop offset="0.7375" stop-color="#FCBD3D"/>
<stop offset="0.9816" stop-color="#BC6F1B"/>
</linearGradient>
<linearGradient id="paint64_linear_10060_25895" x1="121.017" y1="50.7462" x2="75.5885" y2="94.0297" gradientUnits="userSpaceOnUse">
<stop offset="0.3857" stop-color="#FDE785"/>
<stop offset="0.4405" stop-color="#FDD86E"/>
<stop offset="0.5022" stop-color="#FDCA58"/>
<stop offset="0.547" stop-color="#FCBD3D"/>
<stop offset="0.6193" stop-color="#EDAC31"/>
<stop offset="0.706" stop-color="#E19F27"/>
<stop offset="0.7838" stop-color="#DD9A24"/>
</linearGradient>
<linearGradient id="paint65_linear_10060_25895" x1="115.888" y1="71.8028" x2="80.474" y2="71.6686" gradientUnits="userSpaceOnUse">
<stop stop-color="#DD9912"/>
<stop offset="0.5239" stop-color="#D6751D"/>
<stop offset="0.8524" stop-color="#F9C248"/>
</linearGradient>
</defs>
</svg>
