<svg width="122" height="97" viewBox="0 0 122 97" fill="none" xmlns="http://www.w3.org/2000/svg">
<path d="M48.4227 35.2674L24.4648 43.9873L36.1217 76.0143L60.0796 67.2944L48.4227 35.2674Z" fill="white" stroke="#3578DB" stroke-linecap="round" stroke-linejoin="round"/>
<path d="M89.4934 73.5886L60.0722 67.298L48.4154 35.271L66.907 11.533L89.4934 73.5886Z" fill="#FF9A2E" stroke="#3578DB" stroke-linecap="round" stroke-linejoin="round"/>
<path d="M80.9688 16.6071C87.3963 19.8055 93.3233 26.6921 96.6101 35.7227C99.897 44.7532 99.7765 54.1495 96.7613 60.7504" stroke="#FF9A2E" stroke-linecap="round" stroke-linejoin="round"/>
<path d="M88.0245 4.21569C96.9761 8.67272 105.245 18.273 109.824 30.8537C114.403 43.4344 114.234 56.5347 110.041 65.7416" stroke="#FF9A2E" stroke-linecap="round" stroke-linejoin="round"/>
<path d="M22.6703 96.0888C34.4518 96.0888 43.927 86.463 43.8337 74.5889C43.7404 62.7147 34.114 53.0889 22.3324 53.0889C10.5508 53.0889 1.07563 62.7147 1.16893 74.5889C1.26222 86.463 10.8887 96.0888 22.6703 96.0888Z" fill="white" stroke="#3578DB" stroke-linecap="round" stroke-linejoin="round"/>
<g clip-path="url(#clip0_7698_13941)">
<path d="M17.2798 81.6563L10.4254 74.7478L8.14062 77.0507L17.2798 86.2619L36.8637 66.5235L34.5789 64.2207L17.2798 81.6563Z" fill="#FF9A2E"/>
</g>
<defs>
<clipPath id="clip0_7698_13941">
<rect width="39.1678" height="39.4768" fill="white" transform="translate(2.59375 55.0098)"/>
</clipPath>
</defs>
</svg>
