<svg width="69" height="96" viewBox="0 0 69 96" fill="none" xmlns="http://www.w3.org/2000/svg">
<path d="M39.3383 27.1694C44.3395 25.0979 46.7144 19.3644 44.6428 14.3632C42.5713 9.36209 36.8377 6.98718 31.8366 9.05872C26.8355 11.1303 24.4606 16.8638 26.5321 21.8649C28.6036 26.8661 34.3372 29.241 39.3383 27.1694Z" fill="white" stroke="#3578DB" stroke-linecap="round" stroke-linejoin="round"/>
<path d="M25.9776 55.3926L26.1355 78.7552C26.0956 80.7398 24.2956 83.2628 20.7071 83.3194C20.6007 83.3194 20.4943 83.316 20.3863 83.3094C17.6039 83.1349 15.9418 80.5154 16.118 77.9009C16.118 77.9009 15.9052 47.8084 15.9468 47.3979C16.3224 43.6914 14.5373 32.4024 28.858 32.3492C29.0924 32.3492 29.2786 32.3276 29.4647 32.3276H45.1118C46.8404 32.3276 48.0221 32.9592 49.7308 34.2556L56.3078 28.3352C56.8529 27.8033 57.1222 27.0487 57.0358 26.2924L54.7022 5.98648C54.6423 3.19913 56.8546 0.893785 59.6419 0.833949C62.411 0.780762 64.7346 2.98804 64.7928 5.77373L67.3159 29.7679C67.3491 31.3369 66.6494 32.8312 65.4261 33.8135L53.6367 44.1917C53.1913 44.5474 52.6644 44.9961 51.7935 45.6776C50.8976 46.3757 50.2959 47.3264 50.2959 48.4616V95.1685H26.2652L26.0657 66.3708" fill="white"/>
<path d="M25.9776 55.3926L26.1355 78.7552C26.0956 80.7398 24.2956 83.2628 20.7071 83.3194C20.6007 83.3194 20.4943 83.316 20.3863 83.3094C17.6039 83.1349 15.9418 80.5154 16.118 77.9009C16.118 77.9009 15.9052 47.8084 15.9468 47.3979C16.3224 43.6914 14.5373 32.4024 28.858 32.3492C29.0924 32.3492 29.2786 32.3276 29.4647 32.3276H45.1118C46.8404 32.3276 48.0221 32.9592 49.7308 34.2556L56.3077 28.3352C56.8529 27.8033 57.1222 27.0487 57.0358 26.2924L54.7022 5.98648C54.6423 3.19913 56.8546 0.893785 59.6419 0.833949C62.411 0.780762 64.7346 2.98804 64.7928 5.77373L67.3159 29.7679C67.3491 31.3369 66.6494 32.8312 65.4261 33.8135L53.6367 44.1917C53.1913 44.5474 52.6644 44.9961 51.7935 45.6776C50.8976 46.3757 50.2959 47.3264 50.2959 48.4616V95.1685H26.2652L26.0657 66.3709" stroke="#3578DB" stroke-linecap="round" stroke-linejoin="round"/>
<path d="M41.895 60.9824H34.1562V95.167H41.895V60.9824Z" fill="white" stroke="#3578DB" stroke-linecap="round" stroke-linejoin="round"/>
<path d="M65.2169 45.998H10V64.6552H65.2169V45.998Z" fill="#FF9A2E" stroke="#3578DB" stroke-linecap="round" stroke-linejoin="round"/>
<path d="M38.4453 31.8789V45.9137" stroke="#3578DB" stroke-linecap="round" stroke-linejoin="round"/>
<path d="M43.3048 30.7535C40.6039 28.5812 38.478 31.0594 37.9279 32.4489C37.6071 33.26 37.1949 34.2489 36.801 35.1232L29.9149 44.2233L28.6965 45.9967C28.4705 46.3192 28.9841 47.1319 29.27 47.3696C29.5326 47.5874 30.4368 47.9281 30.721 47.6372L32.2252 46.1197L39.8825 37.7028C40.7418 37.0995 41.6959 36.3615 42.5236 35.9642C43.7336 35.3858 45.8163 32.7747 43.3015 30.7519L43.3048 30.7535Z" fill="#E0E0E0" stroke="#3578DB" stroke-linecap="round" stroke-linejoin="round"/>
<path d="M42.9422 35.6566C42.9422 35.6566 40.5804 34.3851 38.2617 31.8936L42.9422 35.6566Z" fill="white"/>
<path d="M42.9422 35.6566C42.9422 35.6566 40.5804 34.3851 38.2617 31.8936" stroke="#3578DB" stroke-linecap="round" stroke-linejoin="round"/>
<path d="M4.75391 3.49707L17.5571 13.1007" stroke="#3578DB" stroke-linecap="round" stroke-linejoin="round"/>
<path d="M17.5571 24.6455L4.75391 34.2492" stroke="#3578DB" stroke-linecap="round" stroke-linejoin="round"/>
<path d="M0.832031 18.6621H13.253" stroke="#3578DB" stroke-linecap="round" stroke-linejoin="round"/>
<path d="M32 50.998H44V58.998H32V50.998ZM38 52.998C38.5304 52.998 39.0391 53.2088 39.4142 53.5838C39.7893 53.9589 40 54.4676 40 54.998C40 55.5285 39.7893 56.0372 39.4142 56.4123C39.0391 56.7873 38.5304 56.998 38 56.998C37.4696 56.998 36.9609 56.7873 36.5858 56.4123C36.2107 56.0372 36 55.5285 36 54.998C36 54.4676 36.2107 53.9589 36.5858 53.5838C36.9609 53.2088 37.4696 52.998 38 52.998ZM34.6667 52.3314C34.6667 52.685 34.5262 53.0241 34.2761 53.2742C34.0261 53.5242 33.687 53.6647 33.3333 53.6647V56.3314C33.687 56.3314 34.0261 56.4719 34.2761 56.7219C34.5262 56.972 34.6667 57.3111 34.6667 57.6647H41.3333C41.3333 57.3111 41.4738 56.972 41.7239 56.7219C41.9739 56.4719 42.313 56.3314 42.6667 56.3314V53.6647C42.313 53.6647 41.9739 53.5242 41.7239 53.2742C41.4738 53.0241 41.3333 52.685 41.3333 52.3314H34.6667Z" fill="white"/>
</svg>
