<svg width="30" height="24" viewBox="0 0 30 24" fill="none" xmlns="http://www.w3.org/2000/svg">
<g clip-path="url(#clip0_11538_33404)">
<path d="M29.4738 13.6107C29.2304 14.2015 28.794 14.4125 28.1544 14.4112C19.2082 14.398 10.2627 14.4026 1.3165 14.4013C1.14177 14.4013 0.961761 14.4119 0.792965 14.3749C0.343283 14.2774 0.00569108 13.8428 0.003713 13.3681C-0.00156187 12.3599 -0.000902507 11.3518 0.003713 10.3436C0.00635044 9.71526 0.450758 9.27283 1.08374 9.27283C10.1829 9.27151 19.2827 9.27283 28.3819 9.26953C28.9476 9.26953 29.2588 9.5913 29.4744 10.0594V13.6101L29.4738 13.6107Z" fill="#3578DB"/>
<path d="M9.01298 0C9.08748 0.0369241 9.16001 0.0784637 9.23716 0.109454C9.96245 0.396934 10.3798 1.12025 10.248 1.86533C10.1128 2.62754 9.45079 3.17218 8.66747 3.16624C7.90327 3.16031 7.24853 2.60974 7.1193 1.86533C6.9894 1.11695 7.40546 0.396275 8.13075 0.108794C8.2079 0.0784637 8.28043 0.0362647 8.35494 0C8.5745 0 8.79341 0 9.01298 0V0Z" fill="#3578DB"/>
<path d="M3.1585 15.4688H26.298C26.304 15.5861 26.3132 15.6923 26.3132 15.7984C26.3139 18.1438 26.3145 20.4891 26.3132 22.8338C26.3132 23.594 25.9004 24.0002 25.1297 24.0002C18.2005 24.0002 11.2706 24.0002 4.34139 24.0002C3.57389 24.0002 3.1585 23.5907 3.1585 22.8331C3.15784 20.4878 3.1585 18.1425 3.1585 15.7978V15.4688Z" fill="#2AACE3"/>
<path d="M26.2687 8.2028H18.9314C18.9314 7.42871 18.8938 6.66452 18.9445 5.90559C18.9788 5.38602 19.4226 5.02997 19.9692 5.02601C21.7218 5.01216 23.475 5.01216 25.2276 5.02601C25.7768 5.02997 26.2193 5.38009 26.2549 5.9023C26.3069 6.66122 26.268 7.42608 26.268 8.20346L26.2687 8.2028Z" fill="#2AACE3"/>
<path d="M12.7911 8.20686H4.57422C4.89335 6.37846 6.76856 4.97271 8.83697 5.0004C10.6845 5.02546 12.5465 6.53209 12.7911 8.20686Z" fill="#3578DB"/>
</g>
<defs>
<clipPath id="clip0_11538_33404">
<rect width="29.474" height="24" fill="white"/>
</clipPath>
</defs>
</svg>
