<svg width="78" height="68" viewBox="0 0 78 68" fill="none" xmlns="http://www.w3.org/2000/svg">
<g clip-path="url(#clip0_3176_5742)">
<path d="M38.6725 0.00373208C48.67 0.00373208 58.6676 0.00373208 68.6651 0.00373208C72.233 0.00373208 74.8861 1.5758 76.5067 4.78529C77.0253 5.84582 77.2851 7.01419 77.2648 8.19455C77.2648 19.3969 77.2648 30.5993 77.2648 41.8017C77.2648 46.2603 73.779 49.7704 69.2196 49.9851C69.0179 49.9944 68.8182 49.9944 68.6165 49.9944C48.6227 49.9944 28.6283 49.9944 8.63331 49.9944C5.06535 49.9944 2.40666 48.4373 0.776711 45.2315C0.252918 44.1731 -0.0107913 43.0049 0.00748053 41.8241C0.00748053 30.6068 0.00748053 19.3889 0.00748053 8.17028C0.00748053 3.73226 3.48769 0.23525 8.03586 0.0112019C8.26738 -4.55576e-07 8.49889 0 8.7304 0L38.6725 0.00373208ZM38.6837 4.53884H13.652C11.9044 4.53884 10.1587 4.53884 8.413 4.53884C6.11838 4.5519 4.54258 6.13891 4.54071 8.42607C4.54071 9.26064 4.54071 10.0952 4.54071 10.9298C4.54071 21.1601 4.54071 31.3897 4.54071 41.6187C4.54071 42.7483 4.91412 43.708 5.7431 44.4716C6.57208 45.2353 7.52428 45.4668 8.60158 45.4668C28.5966 45.4668 48.5916 45.4668 68.5866 45.4668C68.7267 45.4668 68.8648 45.4668 69.0049 45.4668C71.1707 45.4014 72.739 43.8163 72.739 41.671C72.739 30.562 72.739 19.4517 72.739 8.34018C72.7414 7.98533 72.6994 7.63157 72.6139 7.28716C72.1733 5.6068 70.689 4.54444 68.7808 4.54444L38.6837 4.53884Z" fill="white"/>
<path d="M16.628 26.0287C17.2628 27.6923 19.4622 31.3928 20.5489 32.6045C20.6217 31.5179 20.7001 30.5004 20.7468 29.4791C20.7468 29.3689 20.6049 29.2289 20.4985 29.1393C20.2865 28.9835 20.1131 28.7811 19.9917 28.5477C19.8703 28.3143 19.8041 28.0561 19.7983 27.7931C20.9864 28.2737 22.3161 28.2663 23.4988 27.7726C23.4956 28.0402 23.4277 28.3031 23.3009 28.5387C23.1741 28.7744 22.9922 28.976 22.7707 29.1262C22.6747 29.1849 22.5986 29.2711 22.5523 29.3737C22.506 29.4763 22.4916 29.5904 22.5112 29.7012C22.5914 30.646 22.6549 31.5926 22.7296 32.5821C23.7789 31.4974 26.2565 27.3301 26.6392 26.0138C27.7125 26.0963 28.7558 26.4069 29.6994 26.9249C32.7296 28.5213 34.5071 32.0668 33.9227 35.3024C33.6295 36.9249 32.6419 37.8865 31.0903 38.2375C30.1292 38.4651 29.1466 38.5903 28.159 38.6109C23.8032 38.6501 19.4473 38.6408 15.0896 38.6109C14.2404 38.5981 13.3942 38.5075 12.5616 38.3402C10.4817 37.9406 9.45105 36.8372 9.28114 34.733C9.12178 32.6532 9.76651 30.5915 11.0824 28.973C12.3983 27.3546 14.285 26.3027 16.3536 26.0343C16.4448 26.0256 16.5365 26.0237 16.628 26.0287Z" fill="white"/>
<path d="M53.0489 22.963C57.3133 22.963 61.5771 22.963 65.8402 22.963C66.9604 22.963 67.7427 23.5773 67.9593 24.5911C68.0182 24.8715 68.0171 25.1611 67.956 25.441C67.8948 25.7209 67.7752 25.9847 67.6048 26.2151C67.4344 26.4454 67.2172 26.6371 66.9675 26.7774C66.7177 26.9178 66.4411 27.0037 66.1557 27.0295C66.0176 27.0407 65.8775 27.0388 65.7394 27.0388H40.2969C38.9563 27.0388 38.0564 26.2005 38.0695 24.972C38.0685 24.4565 38.2666 23.9605 38.6225 23.5876C38.9784 23.2146 39.4645 22.9936 39.9795 22.9705C40.5396 22.9443 41.0997 22.9611 41.6486 22.9611L53.0489 22.963Z" fill="white"/>
<path d="M53.0397 18.4186C48.7604 18.4186 44.4811 18.4186 40.2017 18.4186C38.9079 18.4186 38.0117 17.4981 38.0714 16.2584C38.0961 15.7673 38.2996 15.3022 38.6435 14.9507C38.9874 14.5992 39.448 14.3857 39.9385 14.3503C40.0766 14.3409 40.2167 14.3409 40.3548 14.3409H65.7469C66.8672 14.3409 67.6513 14.8712 67.9183 15.7916C68.0098 16.0916 68.0303 16.4088 67.9782 16.718C67.9261 17.0273 67.8029 17.3202 67.6182 17.5737C67.4335 17.8272 67.1925 18.0342 66.9141 18.1786C66.6357 18.323 66.3275 18.4007 66.0139 18.4055C64.5613 18.4298 63.1088 18.4055 61.6562 18.4055L53.0397 18.4186Z" fill="white"/>
<path d="M46.8616 35.6628C44.608 35.6628 42.3526 35.6778 40.0991 35.6628C39.7692 35.6653 39.4436 35.5873 39.1507 35.4356C38.8578 35.2838 38.6063 35.0628 38.4181 34.7919C38.23 34.5209 38.1107 34.2081 38.0708 33.8806C38.0309 33.5531 38.0715 33.2209 38.189 32.9126C38.3396 32.5122 38.6122 32.1693 38.9684 31.9324C39.3246 31.6955 39.7463 31.5766 40.1737 31.5926C42.2107 31.5926 44.2495 31.5926 46.2865 31.5926C48.7566 31.5926 51.2268 31.5926 53.6969 31.5926C54.1793 31.5859 54.6479 31.7535 55.0166 32.0646C55.3853 32.3757 55.6294 32.8094 55.704 33.286C55.7885 33.7623 55.6981 34.253 55.4494 34.6679C55.2006 35.0827 54.8103 35.3936 54.3504 35.5433C54.0685 35.6221 53.7766 35.6592 53.484 35.6535C51.2753 35.6684 49.0684 35.6647 46.8616 35.6628Z" fill="white"/>
<path d="M27.8267 17.7203C27.7296 20.1662 27.2964 22.3189 25.9857 24.1916C25.553 24.8108 25.0344 25.3652 24.4454 25.8383C22.7445 27.1901 20.6142 27.1807 18.876 25.885C17.7817 25.0609 16.9433 23.9435 16.4581 22.6624C15.575 20.4219 15.0709 18.1311 15.8121 15.7543C16.2073 14.424 17.042 13.2671 18.1797 12.4725C19.3175 11.6779 20.6911 11.2927 22.0761 11.3798C24.7572 11.5366 27.1545 13.7173 27.6773 16.4992C27.7707 16.966 27.7949 17.4458 27.8267 17.7203ZM16.2938 19.0739C16.5403 21.1426 17.1246 22.9574 18.51 24.4212C20.4013 26.4208 22.991 26.3835 24.845 24.3503C25.7468 23.3424 26.3771 22.1216 26.6766 20.8028C26.8128 20.2576 26.8931 19.6994 27.0164 19.0553L26.165 19.4007C26.2042 18.8237 26.305 18.2804 26.2639 17.7483C26.2113 17.0924 26.0943 16.4433 25.9148 15.8103C25.8102 15.4369 25.5283 15.3006 25.0783 15.4966C23.9998 15.9884 22.8283 16.2429 21.6429 16.2429C20.4576 16.2429 19.2861 15.9884 18.2075 15.4966C17.7576 15.3099 17.4869 15.4406 17.3674 15.8084C17.1952 16.3316 17.0843 16.8729 17.0369 17.4216C16.9809 18.0713 17.0238 18.7285 17.0238 19.3652L16.2938 19.0739Z" fill="white"/>
</g>
<path d="M6.31047 65.15C5.59047 65.15 4.97714 64.9933 4.47047 64.68C3.9638 64.3633 3.57547 63.9233 3.30547 63.36C3.0388 62.7967 2.90547 62.1433 2.90547 61.4C2.90547 60.6567 3.0388 60.0033 3.30547 59.44C3.57547 58.8767 3.9638 58.4383 4.47047 58.125C4.97714 57.8083 5.59047 57.65 6.31047 57.65C7.14047 57.65 7.82714 57.86 8.37047 58.28C8.91714 58.7 9.29714 59.265 9.51047 59.975L8.45047 60.26C8.31047 59.7567 8.06047 59.3617 7.70047 59.075C7.3438 58.7883 6.88047 58.645 6.31047 58.645C5.80047 58.645 5.37547 58.76 5.03547 58.99C4.69547 59.22 4.4388 59.5417 4.26547 59.955C4.09547 60.3683 4.01047 60.85 4.01047 61.4C4.00714 61.95 4.09047 62.4317 4.26047 62.845C4.4338 63.2583 4.69047 63.58 5.03047 63.81C5.3738 64.04 5.80047 64.155 6.31047 64.155C6.88047 64.155 7.3438 64.0117 7.70047 63.725C8.06047 63.435 8.31047 63.04 8.45047 62.54L9.51047 62.825C9.29714 63.535 8.91714 64.1 8.37047 64.52C7.82714 64.94 7.14047 65.15 6.31047 65.15ZM10.6102 65V57.8H11.6702L15.2152 63.15V57.8H16.2752V65H15.2152L11.6702 59.645V65H10.6102ZM17.7707 65V57.8H18.8157V65H17.7707ZM23.3222 65.15C22.6022 65.15 21.9889 64.9933 21.4822 64.68C20.9755 64.3633 20.5872 63.9233 20.3172 63.36C20.0505 62.7967 19.9172 62.1433 19.9172 61.4C19.9172 60.6567 20.0505 60.0033 20.3172 59.44C20.5872 58.8767 20.9755 58.4383 21.4822 58.125C21.9889 57.8083 22.6022 57.65 23.3222 57.65C24.1522 57.65 24.8389 57.86 25.3822 58.28C25.9289 58.7 26.3089 59.265 26.5222 59.975L25.4622 60.26C25.3222 59.7567 25.0722 59.3617 24.7122 59.075C24.3555 58.7883 23.8922 58.645 23.3222 58.645C22.8122 58.645 22.3872 58.76 22.0472 58.99C21.7072 59.22 21.4505 59.5417 21.2772 59.955C21.1072 60.3683 21.0222 60.85 21.0222 61.4C21.0189 61.95 21.1022 62.4317 21.2722 62.845C21.4455 63.2583 21.7022 63.58 22.0422 63.81C22.3855 64.04 22.8122 64.155 23.3222 64.155C23.8922 64.155 24.3555 64.0117 24.7122 63.725C25.0722 63.435 25.3222 63.04 25.4622 62.54L26.5222 62.825C26.3089 63.535 25.9289 64.1 25.3822 64.52C24.8389 64.94 24.1522 65.15 23.3222 65.15ZM29.6238 65V57.8H33.8888V58.845H30.6688V60.875H33.2888V61.925H30.6688V65H29.6238ZM34.7898 65V59.6H35.7198V60.91L35.5898 60.74C35.6565 60.5667 35.7432 60.4083 35.8498 60.265C35.9565 60.1183 36.0798 59.9983 36.2198 59.905C36.3565 59.805 36.5082 59.7283 36.6748 59.675C36.8448 59.6183 37.0182 59.585 37.1948 59.575C37.3715 59.5617 37.5415 59.57 37.7048 59.6V60.58C37.5282 60.5333 37.3315 60.52 37.1148 60.54C36.9015 60.56 36.7048 60.6283 36.5248 60.745C36.3548 60.855 36.2198 60.9883 36.1198 61.145C36.0232 61.3017 35.9532 61.4767 35.9098 61.67C35.8665 61.86 35.8448 62.0617 35.8448 62.275V65H34.7898ZM40.9044 65.15C40.3644 65.15 39.896 65.0283 39.4994 64.785C39.1027 64.5417 38.796 64.2067 38.5794 63.78C38.366 63.35 38.2594 62.855 38.2594 62.295C38.2594 61.7317 38.3694 61.2367 38.5894 60.81C38.8094 60.38 39.1177 60.0467 39.5144 59.81C39.911 59.57 40.3744 59.45 40.9044 59.45C41.4444 59.45 41.9127 59.5717 42.3094 59.815C42.706 60.0583 43.0127 60.3933 43.2294 60.82C43.446 61.2467 43.5544 61.7383 43.5544 62.295C43.5544 62.8583 43.4444 63.355 43.2244 63.785C43.0077 64.2117 42.701 64.5467 42.3044 64.79C41.9077 65.03 41.441 65.15 40.9044 65.15ZM40.9044 64.165C41.421 64.165 41.806 63.9917 42.0594 63.645C42.316 63.295 42.4444 62.845 42.4444 62.295C42.4444 61.7317 42.3144 61.2817 42.0544 60.945C41.7977 60.605 41.4144 60.435 40.9044 60.435C40.5544 60.435 40.266 60.515 40.0394 60.675C39.8127 60.8317 39.6444 61.05 39.5344 61.33C39.4244 61.6067 39.3694 61.9283 39.3694 62.295C39.3694 62.8617 39.4994 63.315 39.7594 63.655C40.0194 63.995 40.401 64.165 40.9044 64.165ZM48.4431 65V62.345C48.4431 62.135 48.4248 61.92 48.3881 61.7C48.3548 61.4767 48.2881 61.27 48.1881 61.08C48.0915 60.89 47.9531 60.7367 47.7731 60.62C47.5965 60.5033 47.3648 60.445 47.0781 60.445C46.8915 60.445 46.7148 60.4767 46.5481 60.54C46.3815 60.6 46.2348 60.6983 46.1081 60.835C45.9848 60.9717 45.8865 61.1517 45.8131 61.375C45.7431 61.5983 45.7081 61.87 45.7081 62.19L45.0581 61.945C45.0581 61.455 45.1498 61.0233 45.3331 60.65C45.5165 60.2733 45.7798 59.98 46.1231 59.77C46.4665 59.56 46.8815 59.455 47.3681 59.455C47.7415 59.455 48.0548 59.515 48.3081 59.635C48.5615 59.755 48.7665 59.9133 48.9231 60.11C49.0831 60.3033 49.2048 60.515 49.2881 60.745C49.3715 60.975 49.4281 61.2 49.4581 61.42C49.4881 61.64 49.5031 61.8333 49.5031 62V65H48.4431ZM44.6481 65V59.6H45.5831V61.16H45.7081V65H44.6481ZM53.8955 65C53.5555 65.0667 53.2221 65.095 52.8955 65.085C52.5688 65.075 52.2771 65.0117 52.0205 64.895C51.7638 64.7783 51.5705 64.595 51.4405 64.345C51.3238 64.1217 51.2605 63.895 51.2505 63.665C51.2438 63.4317 51.2405 63.1683 51.2405 62.875V58.1H52.2905V62.825C52.2905 63.0417 52.2921 63.23 52.2955 63.39C52.3021 63.55 52.3371 63.685 52.4005 63.795C52.5205 64.0017 52.7105 64.12 52.9705 64.15C53.2338 64.1767 53.5421 64.165 53.8955 64.115V65ZM50.2055 60.44V59.6H53.8955V60.44H50.2055ZM59.1009 65.145C58.4443 65.145 57.9093 65 57.4959 64.71C57.0826 64.42 56.8293 64.0117 56.7359 63.485L57.8059 63.32C57.8726 63.6 58.0259 63.8217 58.2659 63.985C58.5093 64.145 58.8109 64.225 59.1709 64.225C59.4976 64.225 59.7526 64.1583 59.9359 64.025C60.1226 63.8917 60.2159 63.7083 60.2159 63.475C60.2159 63.3383 60.1826 63.2283 60.1159 63.145C60.0526 63.0583 59.9176 62.9767 59.7109 62.9C59.5043 62.8233 59.1893 62.7283 58.7659 62.615C58.3026 62.495 57.9343 62.3667 57.6609 62.23C57.3909 62.09 57.1976 61.9283 57.0809 61.745C56.9676 61.5583 56.9109 61.3333 56.9109 61.07C56.9109 60.7433 56.9976 60.4583 57.1709 60.215C57.3443 59.9717 57.5876 59.7833 57.9009 59.65C58.2176 59.5167 58.5876 59.45 59.0109 59.45C59.4243 59.45 59.7926 59.515 60.1159 59.645C60.4393 59.775 60.7009 59.96 60.9009 60.2C61.1009 60.4367 61.2209 60.715 61.2609 61.035L60.1909 61.23C60.1543 60.97 60.0326 60.765 59.8259 60.615C59.6193 60.465 59.3509 60.3833 59.0209 60.37C58.7043 60.3567 58.4476 60.41 58.2509 60.53C58.0543 60.6467 57.9559 60.8083 57.9559 61.015C57.9559 61.135 57.9926 61.2367 58.0659 61.32C58.1426 61.4033 58.2893 61.4833 58.5059 61.56C58.7226 61.6367 59.0426 61.7283 59.4659 61.835C59.9193 61.9517 60.2793 62.0817 60.5459 62.225C60.8126 62.365 61.0026 62.5333 61.1159 62.73C61.2326 62.9233 61.2909 63.1583 61.2909 63.435C61.2909 63.9683 61.0959 64.3867 60.7059 64.69C60.3193 64.9933 59.7843 65.145 59.1009 65.145ZM62.4973 58.715V57.7H63.5423V58.715H62.4973ZM62.4973 65V59.6H63.5423V65H62.4973ZM67.1888 65.15C66.6854 65.15 66.2504 65.025 65.8838 64.775C65.5204 64.525 65.2388 64.185 65.0388 63.755C64.8421 63.3217 64.7438 62.835 64.7438 62.295C64.7438 61.7517 64.8438 61.2667 65.0438 60.84C65.2438 60.41 65.5271 60.0717 65.8938 59.825C66.2638 59.575 66.7021 59.45 67.2088 59.45C67.7188 59.45 68.1471 59.575 68.4938 59.825C68.8438 60.0717 69.1071 60.41 69.2838 60.84C69.4638 61.27 69.5538 61.755 69.5538 62.295C69.5538 62.835 69.4638 63.32 69.2838 63.75C69.1038 64.18 68.8388 64.5217 68.4888 64.775C68.1388 65.025 67.7054 65.15 67.1888 65.15ZM67.3338 64.205C67.6771 64.205 67.9571 64.1233 68.1738 63.96C68.3904 63.7967 68.5488 63.5717 68.6488 63.285C68.7488 62.9983 68.7988 62.6683 68.7988 62.295C68.7988 61.9217 68.7471 61.5917 68.6438 61.305C68.5438 61.0183 68.3871 60.795 68.1738 60.635C67.9638 60.475 67.6954 60.395 67.3688 60.395C67.0221 60.395 66.7371 60.48 66.5138 60.65C66.2904 60.82 66.1238 61.0483 66.0138 61.335C65.9071 61.6217 65.8538 61.9417 65.8538 62.295C65.8538 62.6517 65.9071 62.975 66.0138 63.265C66.1238 63.5517 66.2871 63.78 66.5038 63.95C66.7238 64.12 67.0004 64.205 67.3338 64.205ZM68.7988 65V61.115H68.6788V57.8H69.7288V65H68.7988ZM73.5227 65.15C72.9861 65.15 72.5144 65.0333 72.1077 64.8C71.7044 64.5633 71.3894 64.235 71.1627 63.815C70.9394 63.3917 70.8277 62.9017 70.8277 62.345C70.8277 61.755 70.9377 61.2433 71.1577 60.81C71.3811 60.3767 71.6911 60.0417 72.0877 59.805C72.4844 59.5683 72.9461 59.45 73.4727 59.45C74.0227 59.45 74.4911 59.5783 74.8777 59.835C75.2644 60.0883 75.5527 60.45 75.7427 60.92C75.9361 61.39 76.0127 61.9483 75.9727 62.595H74.9277V62.215C74.9211 61.5883 74.8011 61.125 74.5677 60.825C74.3377 60.525 73.9861 60.375 73.5127 60.375C72.9894 60.375 72.5961 60.54 72.3327 60.87C72.0694 61.2 71.9377 61.6767 71.9377 62.3C71.9377 62.8933 72.0694 63.3533 72.3327 63.68C72.5961 64.0033 72.9761 64.165 73.4727 64.165C73.7994 64.165 74.0811 64.0917 74.3177 63.945C74.5577 63.795 74.7444 63.5817 74.8777 63.305L75.9027 63.63C75.6927 64.1133 75.3744 64.4883 74.9477 64.755C74.5211 65.0183 74.0461 65.15 73.5227 65.15ZM71.5977 62.595V61.78H75.4527V62.595H71.5977Z" fill="white"/>
<defs>
<clipPath id="clip0_3176_5742">
<rect width="77.2741" height="50" fill="white"/>
</clipPath>
</defs>
</svg>
