<svg width="24" height="25" viewBox="0 0 24 25" fill="none" xmlns="http://www.w3.org/2000/svg">
<path d="M12.1707 0.5C13.673 1.25094 15.1753 2.00235 16.6781 2.75235C18.8651 3.84424 21.0527 4.93566 23.2397 6.02755C23.3073 6.06136 23.3739 6.09706 23.4893 6.1567H0.488281C0.585369 6.10363 0.643059 6.06935 0.702626 6.03976C4.33241 4.2284 7.96219 2.4175 11.592 0.606606C11.6609 0.572323 11.7285 0.535692 11.7965 0.5C11.9212 0.5 12.046 0.5 12.1707 0.5Z" fill="#2AACE3"/>
<path d="M0 23.6078C0.238734 23.0729 0.527184 22.5695 0.885988 22.1031C1.11487 21.8049 1.38222 21.6804 1.764 21.6809C8.59066 21.6898 15.4168 21.6889 22.2435 21.6823C22.5878 21.6823 22.8387 21.7913 23.0465 22.0622C23.3851 22.5037 23.6919 22.9621 23.8987 23.4815C24.1126 24.0178 23.7955 24.4973 23.2233 24.4973C15.7334 24.4982 8.24405 24.4973 0.754192 24.5006C0.372406 24.5006 0.151026 24.3024 0 23.9835V23.6087L0 23.6078Z" fill="#2AACE3"/>
<path d="M0 7.57788H24C23.863 7.92353 23.7552 8.24476 23.6112 8.54861C23.3354 9.13142 22.9503 9.64191 22.5179 10.1176C22.3448 10.3078 22.1356 10.3919 21.8753 10.3919C15.2832 10.3891 8.6915 10.3886 2.09935 10.3924C1.80903 10.3924 1.59187 10.283 1.40614 10.0721C0.791245 9.37469 0.28376 8.61576 0.0272034 7.70938C0.0234512 7.69529 0.0093805 7.68449 0 7.67181C0 7.64034 0 7.60935 0 7.57788H0Z" fill="#2AACE3"/>
<path d="M2.82617 11.8069H7.05443V20.2677H2.82617V11.8069Z" fill="#2AACE3"/>
<path d="M16.9102 20.2611V11.8101H21.1398V20.2611H16.9102Z" fill="#2AACE3"/>
<path d="M14.0739 20.2676H9.89062V11.8152H14.0739V20.2676Z" fill="#2AACE3"/>
</svg>
