<svg width="24" height="24" viewBox="0 0 24 24" fill="none" xmlns="http://www.w3.org/2000/svg">
<rect width="24" height="24" rx="3" fill="#2AACE3"/>
<g clip-path="url(#clip0_11582_35868)">
<path d="M21.9997 18.1964C21.863 18.5533 21.6444 18.6673 21.3469 18.6666C15.1102 18.659 8.8741 18.6611 2.63744 18.659C2.53464 18.659 2.42766 18.6513 2.33059 18.6124C2.12968 18.531 2.01174 18.3084 2.0013 18.0315C1.99922 17.971 2.00026 17.9098 2.00026 17.8493C2.00026 13.9532 2.00026 10.0571 2.00026 6.16107C1.99974 5.5705 2.17143 5.33956 2.61031 5.33956C5.98878 5.33956 9.36725 5.33956 12.7462 5.33956C13.026 5.33956 13.1648 5.46755 13.1689 5.7291C13.1736 5.99552 13.0296 6.13185 12.7374 6.13185C10.3029 6.13185 7.86797 6.13185 5.43353 6.13185H5.16217C5.16217 6.26054 5.16217 6.3621 5.16217 6.46296C5.16217 8.66733 5.16217 10.871 5.16217 13.0754C5.16217 13.1533 5.16634 13.2326 5.15956 13.3098C5.14077 13.524 5.00822 13.6736 4.85219 13.6632C4.7045 13.6534 4.59074 13.5039 4.57769 13.2952C4.57247 13.2089 4.57456 13.122 4.57456 13.035C4.57456 10.848 4.57456 8.66177 4.57456 6.47479V6.14994H2.59987V17.8486H4.57404C4.57404 17.386 4.57404 16.9367 4.57404 16.488C4.57404 16.3579 4.57091 16.2272 4.5756 16.0978C4.58395 15.8536 4.69824 15.6992 4.86575 15.6992C5.03222 15.6992 5.15695 15.855 5.15956 16.095C5.1653 16.5805 5.16164 17.0667 5.16164 17.553C5.16164 17.6469 5.16164 17.7408 5.16164 17.8521H21.4022V6.13185H21.1632C19.1452 6.13185 17.1272 6.13185 15.1092 6.13185C15.0309 6.13185 14.9526 6.13464 14.8754 6.12281C14.7105 6.09777 14.614 5.95517 14.6113 5.74579C14.6087 5.53085 14.7152 5.36947 14.8817 5.34443C14.9396 5.33539 14.9986 5.34026 15.0575 5.34026C17.1538 5.34026 19.2501 5.34513 21.3459 5.334C21.6433 5.33261 21.8625 5.44738 21.9987 5.80492V18.1971L21.9997 18.1964Z" fill="white"/>
<path d="M14.6942 14.2757C16.3474 14.2757 18.0011 14.2757 19.6544 14.2757C19.7259 14.2757 19.7984 14.2729 19.8689 14.2855C20.0191 14.3112 20.1173 14.4566 20.123 14.6493C20.1287 14.8433 20.0416 15.0068 19.8976 15.0506C19.8355 15.0701 19.7681 15.0659 19.7034 15.0659C16.3704 15.0659 13.0373 15.0659 9.70473 15.0659C9.64002 15.0659 9.57322 15.0722 9.51008 15.0548C9.3624 15.0145 9.25802 14.8239 9.27055 14.6367C9.28307 14.4545 9.39266 14.3049 9.53826 14.2834C9.60923 14.2729 9.68125 14.2757 9.75274 14.2757C11.3997 14.2757 13.0467 14.2757 14.6936 14.2757H14.6942Z" fill="white"/>
<path d="M14.7032 13.5021C13.0369 13.5021 11.3701 13.5021 9.70383 13.5007C9.6266 13.5007 9.54623 13.4979 9.47369 13.4687C9.34062 13.4152 9.25869 13.2406 9.27069 13.0701C9.2827 12.8983 9.38446 12.7502 9.52014 12.7209C9.5838 12.707 9.64956 12.707 9.71479 12.707C13.0411 12.707 16.3679 12.707 19.6942 12.707C19.7526 12.707 19.8116 12.707 19.8695 12.7189C20.0229 12.7509 20.1174 12.8907 20.1231 13.084C20.1289 13.2795 20.0438 13.4388 19.8972 13.484C19.8288 13.5049 19.7552 13.5014 19.6837 13.5014C18.0237 13.5021 16.3637 13.5014 14.7037 13.5014L14.7032 13.5021Z" fill="white"/>
<path d="M7.7952 8.41654C8.27009 8.41654 8.74498 8.41445 9.21934 8.41862C9.29553 8.41932 9.37694 8.43115 9.44635 8.4694C9.56585 8.53479 9.62169 8.67182 9.61282 8.84503C9.60395 9.01823 9.5335 9.13997 9.4093 9.18657C9.33571 9.21439 9.25535 9.21857 9.17811 9.21857C8.25444 9.22066 7.33128 9.21996 6.4076 9.21857C6.34289 9.21857 6.27714 9.21579 6.21399 9.1984C6.06579 9.15875 5.98438 9.03076 5.97707 8.84155C5.96924 8.64609 6.05222 8.4854 6.19729 8.43671C6.25887 8.41584 6.32619 8.41723 6.3909 8.41723C6.859 8.41584 7.32763 8.41654 7.79573 8.41654H7.7952Z" fill="white"/>
<path d="M18.2525 15.9362C18.7138 15.9362 19.1751 15.9362 19.6359 15.9362C19.6881 15.9362 19.7398 15.9341 19.7919 15.9376C20.009 15.9529 20.1265 16.0955 20.1238 16.3375C20.1212 16.5754 19.997 16.7305 19.7852 16.7312C18.9925 16.7354 18.2003 16.7333 17.4076 16.7333C17.1999 16.7333 16.9912 16.7201 16.784 16.7368C16.4829 16.7605 16.3665 16.5469 16.3634 16.3417C16.3592 16.0669 16.4944 15.9369 16.7903 15.9362C17.2777 15.9348 17.7645 15.9362 18.252 15.9362H18.2525Z" fill="white"/>
<path d="M7.12172 7.16226C7.38787 7.16226 7.65453 7.15879 7.92068 7.16365C8.0955 7.16713 8.215 7.28121 8.24683 7.45998C8.2938 7.72153 8.1743 7.9469 7.95721 7.95177C7.39882 7.96429 6.83992 7.9629 6.28154 7.95317C6.08115 7.94969 5.97104 7.78413 5.97678 7.54693C5.98199 7.32017 6.10463 7.16852 6.30346 7.16365C6.57638 7.1567 6.84931 7.16226 7.12172 7.16226Z" fill="white"/>
</g>
<defs>
<clipPath id="clip0_11582_35868">
<rect width="20" height="13.3333" fill="white" transform="translate(2 5.33398)"/>
</clipPath>
</defs>
</svg>
