<svg width="24" height="24" viewBox="0 0 24 24" fill="none" xmlns="http://www.w3.org/2000/svg">
<path d="M12.1707 0C13.673 0.750939 15.1753 1.50235 16.6781 2.25235C18.8651 3.34424 21.0527 4.43566 23.2397 5.52755C23.3073 5.56136 23.3739 5.59706 23.4893 5.6567H0.488281C0.585369 5.60363 0.643059 5.56935 0.702626 5.53976C4.33241 3.7284 7.96219 1.9175 11.592 0.106606C11.6609 0.0723231 11.7285 0.0356919 11.7965 0C11.9212 0 12.046 0 12.1707 0Z" fill="#2AACE3"/>
<path d="M0 23.1078C0.238734 22.5729 0.527184 22.0695 0.885988 21.6031C1.11487 21.3049 1.38222 21.1804 1.764 21.1809C8.59066 21.1898 15.4168 21.1889 22.2435 21.1823C22.5878 21.1823 22.8387 21.2913 23.0465 21.5622C23.3851 22.0037 23.6919 22.4621 23.8987 22.9815C24.1126 23.5178 23.7955 23.9973 23.2233 23.9973C15.7334 23.9982 8.24405 23.9973 0.754192 24.0006C0.372406 24.0006 0.151026 23.8024 0 23.4835V23.1087L0 23.1078Z" fill="#2AACE3"/>
<path d="M0 7.07788H24C23.863 7.42353 23.7552 7.74476 23.6112 8.04861C23.3354 8.63142 22.9503 9.14191 22.5179 9.61764C22.3448 9.80784 22.1356 9.89191 21.8753 9.89191C15.2832 9.88909 8.6915 9.88862 2.09935 9.89238C1.80903 9.89238 1.59187 9.78295 1.40614 9.57209C0.791245 8.87469 0.28376 8.11576 0.0272034 7.20938C0.0234512 7.19529 0.0093805 7.18449 0 7.17181C0 7.14034 0 7.10935 0 7.07788H0Z" fill="#2AACE3"/>
<path d="M2.82617 11.3069H7.05443V19.7677H2.82617V11.3069V11.3069Z" fill="#2AACE3"/>
<path d="M16.9102 19.7611V11.3101H21.1398V19.7611H16.9102Z" fill="#2AACE3"/>
<path d="M14.0739 19.7676H9.89062V11.3152H14.0739V19.7676Z" fill="#2AACE3"/>
</svg>
