<svg width="96" height="96" viewBox="0 0 96 96" fill="none" xmlns="http://www.w3.org/2000/svg">
<g clip-path="url(#clip0_7698_13742)">
<path d="M93.9785 44.7376C95.7791 70.1315 76.6555 92.1789 51.2617 93.9795C25.8678 95.7801 3.82037 76.6565 2.01975 51.2626C0.219136 25.8687 19.3427 3.82134 44.7366 2.02073C70.1305 0.220113 92.1779 19.3437 93.9785 44.7376Z" fill="#E0E0E0" stroke="#3578DB" stroke-linecap="round" stroke-linejoin="round"/>
<path d="M74.8502 74.8495C89.6803 60.0193 89.6803 35.9748 74.8502 21.1447C60.02 6.3145 35.9755 6.3145 21.1454 21.1447C6.3152 35.9748 6.3152 60.0193 21.1454 74.8495C35.9755 89.6796 60.02 89.6796 74.8502 74.8495Z" fill="white" stroke="#3578DB" stroke-linecap="round" stroke-linejoin="round"/>
<path d="M49.1328 45.942V16.9932" stroke="#3578DB" stroke-linecap="round" stroke-linejoin="round"/>
<path d="M42.9907 50.5391H25.6445" stroke="#3578DB" stroke-linecap="round" stroke-linejoin="round"/>
<path d="M44.1835 50.2373C44.004 52.7906 45.9262 55.0081 48.4795 55.1933C51.0328 55.3728 53.2503 53.4506 53.4355 50.8973C53.615 48.3441 51.6928 46.1266 49.1395 45.9413C46.5862 45.7618 44.3688 47.684 44.1835 50.2373Z" fill="white" stroke="#3578DB" stroke-linecap="round" stroke-linejoin="round"/>
</g>
<path d="M45.27 41L40 46.27V53.73L45.27 59H52.73C54.5 57.24 58 53.73 58 53.73V46.27L52.73 41" fill="#FF9A2E"/>
<path d="M45.8788 45.8301L44.4688 47.2401L47.3488 50.1201L44.4688 53.0001L45.8788 54.4101L48.7588 51.5301L51.6388 54.4101L53.0487 53.0001L50.1688 50.1201L53.0487 47.2401L51.6388 45.8301L48.7588 48.7101" fill="white"/>
<path d="M81.0836 87.9207C81.0836 87.9207 80.6649 87.1036 80.5691 86.8757C79.9337 85.3626 79.2567 83.868 79.5129 82.2502C79.8316 80.232 80.1545 77.717 78.7463 72.9395C78.2672 71.3135 76.7256 67.9567 75.959 66.4436L75.234 65.0105C74.6549 63.8649 73.5383 63.1813 72.2947 63.7376C70.8052 64.4028 70.4094 65.7065 71.0406 66.9548L70.3677 65.6265C69.7553 64.4152 68.397 63.9122 67.0305 64.4726C66.1743 64.8237 65.0077 66.0083 65.6222 67.2196L65.4368 66.8542C64.8723 65.7394 63.7182 65.1296 62.3641 65.5608C60.7163 66.0843 60.4434 67.9629 61.1038 69.2666C61.1038 69.2666 57.2061 61.5717 55.7062 58.6111C55.0459 57.3074 53.8168 56.0797 52.0752 56.9358C50.1275 57.8946 50.7337 59.7567 51.2982 60.8695C53.5668 65.3472 60.5205 79.0741 60.5205 79.0741C60.5205 79.0741 58.7144 79.0248 55 75.2205C54.1813 74.3808 52.3898 73.0216 50.9961 74.3294C49.7837 75.4668 50.4399 76.713 50.8045 77.1688C50.8045 77.1688 51.7044 78.2898 52.5585 79.2896C56.2041 83.56 56.8957 85.2682 64.4619 89.1341C65.4618 89.6453 66.6534 90.6082 67.6096 92.0803C68.0741 92.7927 68.7345 93.9999 68.7345 93.9999" fill="white"/>
<path d="M81.0836 87.9207C81.0836 87.9207 80.6649 87.1036 80.5691 86.8757C79.9337 85.3626 79.2567 83.868 79.5129 82.2502C79.8316 80.232 80.1545 77.717 78.7463 72.9395C78.2672 71.3135 76.7256 67.9567 75.959 66.4436L75.234 65.0105C74.6549 63.8649 73.5383 63.1813 72.2947 63.7376C70.8052 64.4028 70.4094 65.7065 71.0406 66.9548L70.3677 65.6265C69.7553 64.4152 68.397 63.9122 67.0305 64.4726C66.1743 64.8237 65.0077 66.0083 65.6222 67.2196L65.4368 66.8542C64.8723 65.7394 63.7182 65.1296 62.3641 65.5608C60.7163 66.0843 60.4434 67.9629 61.1038 69.2666C61.1038 69.2666 57.2061 61.5717 55.7062 58.6111C55.0459 57.3074 53.8168 56.0797 52.0752 56.9358C50.1275 57.8946 50.7337 59.7567 51.2982 60.8695C53.5668 65.3472 60.5205 79.0741 60.5205 79.0741C60.5205 79.0741 58.7144 79.0248 55 75.2205C54.1813 74.3808 52.3898 73.0216 50.9961 74.3294C49.7837 75.4668 50.4399 76.713 50.8045 77.1688C50.8045 77.1688 51.7044 78.2898 52.5585 79.2896C56.2041 83.56 56.8957 85.2682 64.4619 89.1341C65.4618 89.6453 66.6534 90.6082 67.6096 92.0803C68.0741 92.7927 68.7345 93.9999 68.7345 93.9999" stroke="#3578DB" stroke-linecap="round" stroke-linejoin="round"/>
<path d="M65.9507 67.8747L65.3945 66.7783" stroke="#3578DB" stroke-linecap="round" stroke-linejoin="round"/>
<path d="M70.3398 65.1172L70.6732 65.7742" stroke="#3578DB" stroke-linecap="round" stroke-linejoin="round"/>
<defs>
<clipPath id="clip0_7698_13742">
<rect width="96" height="96" fill="white"/>
</clipPath>
</defs>
</svg>
