<svg width="94" height="96" viewBox="0 0 94 96" fill="none" xmlns="http://www.w3.org/2000/svg">
<path d="M78.1536 58.8463C78.1536 57.1501 76.7992 55.7789 75.128 55.7789H63.8505V53.02C63.8505 50.3402 61.7084 48.1689 59.0661 48.1689H58.9703C56.328 48.1689 54.1859 50.3402 54.1859 53.02V55.7789H39.8828V70.2862H43.3586C46.0008 70.2862 48.1429 72.4575 48.1429 75.1373V75.2373C48.1429 77.9171 46.0008 80.0884 43.3586 80.0884H39.8828V94.5957H75.1321C76.8033 94.5957 78.1578 93.2204 78.1578 91.5284V58.8504L78.1536 58.8463Z" fill="white" stroke="#3578DB" stroke-linecap="round" stroke-linejoin="round"/>
<path d="M43.2657 70.2612H40.5442V55.7789H26.2453V53.02C26.2453 50.3402 24.1032 48.1689 21.4609 48.1689H21.3651C18.7228 48.1689 16.5807 50.3402 16.5807 53.02V55.7789H2.27344V91.5242C2.27344 93.2204 3.6279 94.5915 5.29909 94.5915H40.5484V80.0634H43.2698C45.9121 80.0634 48.0542 77.8921 48.0542 75.2123V75.1123C48.0542 72.4325 45.9121 70.2612 43.2698 70.2612H43.2657Z" fill="#E0E0E0" stroke="#3578DB" stroke-linecap="round" stroke-linejoin="round"/>
<path d="M5.20248 17.6084H40.631V32.1866H43.3649C46.0197 32.1866 48.1743 34.3704 48.1743 37.0626V37.1626C48.1743 39.8549 46.0197 42.0387 43.3649 42.0387H40.631V56.6169H26.2529V53.0744C26.2529 50.3822 24.0983 48.1984 21.4435 48.1984H21.3477C18.6929 48.1984 16.5383 50.3822 16.5383 53.0744V56.6169H2.17683C2.17683 56.6169 2.16016 56.6085 2.16016 56.6002V20.6966C2.16016 18.992 3.52295 17.6126 5.20248 17.6126V17.6084Z" fill="white" stroke="#3578DB" stroke-linecap="round" stroke-linejoin="round"/>
<path d="M78.1669 38.5163V37.6369C78.1669 34.9571 76.0248 32.7858 73.3826 32.7858H73.2867C70.6445 32.7858 68.5023 34.9571 68.5023 37.6369V40.4208H54.1367V25.8427H57.0707C59.7254 25.8427 61.8801 23.6589 61.8801 20.9666V20.8666C61.8801 18.1743 59.7254 15.9905 57.0707 15.9905H54.1367V1.4082H87.8482C90.1987 1.4082 92.1033 3.34196 92.1033 5.72581V38.0953C92.1033 39.3789 91.0739 40.4208 89.807 40.4208H78.1669V38.5163Z" fill="#FF9A2E" stroke="#3578DB" stroke-linejoin="round"/>
</svg>
