<svg width="36" height="47" viewBox="0 0 36 47" fill="none" xmlns="http://www.w3.org/2000/svg">
<g clip-path="url(#clip0_11516_28334)">
<path fill-rule="evenodd" clip-rule="evenodd" d="M30.7287 29.1572C37.7329 33.2573 37.7329 39.8631 30.7287 43.9633C23.7246 48.0635 12.2769 48.0635 5.27267 43.9633C-1.73152 39.8631 -1.73152 33.2573 5.27267 29.1572C12.2769 25.057 23.7246 25.057 30.7287 29.1572Z" fill="#F5F5F5"/>
<path fill-rule="evenodd" clip-rule="evenodd" d="M28.4674 30.4474C34.2666 33.7882 34.2666 39.331 28.4674 42.6719C22.6682 46.0887 13.254 46.0887 7.45484 42.6719C1.65568 39.2551 1.65568 33.7882 7.45484 30.4474C13.254 27.0306 22.6682 27.0306 28.4674 30.4474Z" fill="#E9E9EB"/>
<path fill-rule="evenodd" clip-rule="evenodd" d="M26.2842 31.7383C30.8783 34.3958 30.8783 38.7237 26.2842 41.3812C21.69 44.0387 14.3093 44.0387 9.71514 41.3812C5.121 38.7237 5.121 34.3958 9.71514 31.7383C14.3093 29.0807 21.69 29.0807 26.2842 31.7383Z" fill="#DDDEE1"/>
<path fill-rule="evenodd" clip-rule="evenodd" d="M24.101 33.0294C27.4901 35.0036 27.4901 38.1167 24.101 40.0908C20.7118 42.065 15.2892 42.065 11.9754 40.0908C8.58631 38.1167 8.58631 35.0036 11.9754 33.0294C15.3646 31.0553 20.7871 31.0553 24.101 33.0294Z" fill="#D1D2D6"/>
<path fill-rule="evenodd" clip-rule="evenodd" d="M9.86657 34.092C7.75779 34.0161 4.66992 32.8772 4.66992 30.2956V16.5525C4.66992 14.2746 5.04649 13.3635 7.07996 12.1486C12.7285 8.88365 17.3226 6.15021 22.9712 2.88527L23.5737 2.58155L24.1762 2.27783H24.3268L24.4775 2.12598H25.4565L27.0381 4.25199C27.6406 3.94827 28.0925 3.94827 28.6197 4.25199L29.5988 4.78349H28.5444L28.3938 4.93535C22.3687 8.42808 17.5486 11.3134 11.5235 14.8061L10.921 15.1098H10.7703V15.2617H10.6197V15.4135H10.4691V15.5654H10.3185V15.7173H10.1678V15.8691H10.0172V16.021H9.86657V16.2488H9.71595V16.4765H9.64063V16.7043H9.56532V16.9321H9.49001V17.1599V17.3877V17.6155V17.8433V18.0711V33.6365L9.64063 33.7883H9.71595V34.0161L10.2431 34.168L9.86657 34.092Z" fill="#3578DB"/>
<path fill-rule="evenodd" clip-rule="evenodd" d="M28.2441 4.93566C29.1478 4.40416 30.0516 4.78381 30.0516 5.92274C30.0516 13.8193 29.9763 12.8323 29.9763 20.7289C29.9763 21.7919 29.2232 23.1586 28.3194 23.6901C23.7253 26.4235 15.3654 31.2071 10.7713 33.9405C9.86751 34.472 9.03906 34.0164 9.03906 32.9534V18.1473C9.03906 17.0084 9.86751 15.7176 10.8466 15.1101C17.0223 11.4655 22.0684 8.50432 28.3194 4.93566H28.2441Z" fill="#2AACE3"/>
<path fill-rule="evenodd" clip-rule="evenodd" d="M23.1955 20.7282L22.5177 20.4245L22.4424 20.2726L22.2917 20.1208L22.2164 19.9689L22.1411 19.7411L22.0658 19.5133L21.9905 19.2856L21.9152 18.9818V18.7541L21.8398 18.4503V18.1466V17.767V17.4633V17.1595L21.9152 16.7799V16.4762L21.9905 16.0965L22.0658 15.7928L22.1411 15.4891L22.2164 15.1854L22.2917 14.8817L22.4424 14.6539L22.593 14.3502L22.6683 14.1224L22.8189 13.8946L22.9695 13.7427L23.1955 13.5909L23.3461 13.439L30.049 9.56666V9.03516H30.1244H30.1997L30.275 9.11109L30.7269 9.33887L30.9528 9.49073L31.3294 9.71852L31.2541 9.64259H31.1788L31.0281 9.71852L24.0239 13.8187L23.798 13.9705L23.6474 14.1224L23.4967 14.2743L23.3461 14.502L23.1955 14.7298L23.0449 14.9576L22.9695 15.2613L22.8942 15.565L22.7436 15.8688L22.6683 16.1725L22.593 16.4762V16.8558L22.5177 17.1595V17.5392V17.8429V18.1466V18.4503V18.83V19.1337L22.593 19.3615V19.6652L22.6683 19.893L22.7436 20.1208L22.8942 20.3486L22.9695 20.5004L23.0449 20.6523L23.1955 20.7282Z" fill="#BAB8B8"/>
<path fill-rule="evenodd" clip-rule="evenodd" d="M31.0304 16.6289L23.9509 20.729C21.9174 21.868 21.9174 14.9584 23.9509 13.8195L31.0304 9.71935C32.1601 9.03599 32.2354 15.9455 31.0304 16.6289Z" fill="#3578DB"/>
<path fill-rule="evenodd" clip-rule="evenodd" d="M24.4771 19.1346L24.0252 18.8308L23.7993 18.6031L23.6487 18.2993V17.9197L23.498 17.4641V16.7808L23.6487 16.553V16.3252L23.7993 16.0974V15.8696L24.0252 15.6418L24.1759 15.414L24.3265 15.1863L24.4771 14.9585L24.6278 14.8066L24.7784 14.6547L24.929 14.5029L25.0796 14.351C25.6068 13.9714 25.9834 13.8955 26.5859 14.1232L27.0378 14.427H26.7365L26.4353 14.2751H26.0587L25.6821 14.5029L25.4562 14.6547L25.3056 14.8066L25.155 14.9585L25.0043 15.1103L24.8537 15.2622L24.7031 15.49L24.5524 15.7178L24.4018 15.9455L24.2512 16.1733V16.4011L24.0252 16.6289V16.8567L23.8746 17.0845V18.5271L24.1006 18.8308L24.3265 19.0586L24.4771 19.1346Z" fill="#C2CED1"/>
<path fill-rule="evenodd" clip-rule="evenodd" d="M25.7578 14.5784C26.8122 13.971 27.6407 14.4265 27.6407 15.7173C27.6407 17.0081 26.8122 18.4508 25.7578 19.0582C24.7035 19.6656 23.875 19.1341 23.875 17.9193C23.875 16.7044 24.7035 15.1858 25.7578 14.5784Z" fill="#E6EAEB"/>
<path fill-rule="evenodd" clip-rule="evenodd" d="M8.28408 13.819L7.8322 13.5153C7.8322 13.5153 7.45563 12.9838 7.68157 12.756V12.6042C9.79036 9.49109 11.7485 6.378 13.7067 3.18899V2.9612H13.8573V2.73341H14.0079V2.58155H14.1586V2.4297H14.3092V2.27784H14.4598V2.12598H14.6858V1.97412H14.9117V1.82227H15.9661L16.9452 2.35377H15.8155V2.50563H15.5895V2.65748H15.4389V2.80934H15.2883V2.9612H15.1376V3.11306H14.987V3.26492H14.8364V3.4927H14.6858V3.72049C12.5017 7.06136 10.3929 10.4022 8.28408 13.7431V13.819Z" fill="#B2C1C4"/>
<path fill-rule="evenodd" clip-rule="evenodd" d="M11.7485 11.465L10.3928 13.8188L10.1669 13.9707C10.1669 13.9707 9.18783 14.3503 8.88657 14.1225L8.35938 13.8188C10.4682 10.4779 12.5769 7.13706 14.6857 3.79619C15.4389 2.58132 16.5686 2.04982 17.2464 2.5054L19.2799 4.0999L11.7485 11.465Z" fill="#BDBDBD"/>
<path fill-rule="evenodd" clip-rule="evenodd" d="M11.5977 11.6168L13.4805 9.79452C13.4805 9.79452 13.4805 9.4908 13.4805 9.33894L15.7399 5.77028C15.7399 5.77028 16.0412 5.46657 16.1165 5.5425L16.3424 5.69436C16.3424 5.69436 16.4177 5.99807 16.3424 6.14993L15.1374 8.04815L17.8487 5.39064L16.719 4.47949C16.719 4.47949 16.0412 4.47949 15.7399 4.93507L11.5977 11.5409V11.6168Z" fill="#27AE60"/>
<path fill-rule="evenodd" clip-rule="evenodd" d="M11.8993 12.9841L10.1671 13.9712C10.1671 13.9712 9.18797 14.3508 8.88672 14.123L22.5185 0.683603L22.6691 0.531745L22.8198 0.379888L22.9704 0.22803H23.121L23.2717 0.0761719H24.1754L25.2298 0.683603H24.1001L23.9495 0.91139L23.7989 1.06325L23.6482 1.21511L23.4976 1.36696L11.8993 12.9841Z" fill="#B2C1C4"/>
<path fill-rule="evenodd" clip-rule="evenodd" d="M26.8878 3.94829V4.25201L25.6075 5.0113L25.005 3.26493C25.005 3.26493 24.4778 2.88529 24.1012 3.26493L17.5489 9.64296L11.9004 12.9079L23.574 1.29078C24.5531 0.379635 25.5322 0.379635 25.9088 1.29078L26.6619 3.34086L26.8878 3.94829Z" fill="#BDBDBD"/>
<path fill-rule="evenodd" clip-rule="evenodd" d="M25.6055 5.01104L17.5469 9.71864L24.0992 3.34061C24.0992 3.34061 24.8523 2.96096 25.0029 3.34061L25.6055 5.08697V5.01104Z" fill="#27AE60"/>
<path fill-rule="evenodd" clip-rule="evenodd" d="M21.0111 6.83316L23.7977 4.09972C23.7977 4.09972 24.099 3.94786 24.1743 4.09972L24.3249 4.40343C24.3249 4.40343 24.3249 4.78308 24.1743 4.93494L21.8396 7.2128L20.9358 7.74431L20.7852 7.44059C20.7852 7.44059 20.7852 7.06095 20.9358 6.90909L21.0111 6.83316Z" fill="#BDBDBD"/>
<path fill-rule="evenodd" clip-rule="evenodd" d="M9.41469 16.7046L5.04649 14.123C4.74524 14.7305 4.74524 15.5657 4.66992 16.5528V30.2959C4.66992 32.8775 7.68247 34.0164 9.79126 34.0923L9.33938 33.9405H9.26406V33.7127L9.11344 33.5608V33.2571L8.96281 33.1053V18.1473V17.9195V17.6917V17.4639V17.2361V17.0083H9.03812V16.7806H9.11344L9.41469 16.7046Z" fill="#23CFEF"/>
</g>
<defs>
<clipPath id="clip0_11516_28334">
<rect width="36" height="47" fill="white"/>
</clipPath>
</defs>
</svg>
