<svg width="42" height="52" viewBox="0 0 42 52" fill="none" xmlns="http://www.w3.org/2000/svg">
<g clip-path="url(#clip0_11461_111349)">
<path fill-rule="evenodd" clip-rule="evenodd" d="M35.4191 31.5994C43.4925 36.2872 43.4925 43.8398 35.4191 48.5276C27.3456 53.2154 14.1503 53.2154 6.07682 48.5276C-1.99664 43.8398 -1.99664 36.2872 6.07682 31.5994C14.1503 26.9115 27.3456 26.9115 35.4191 31.5994Z" fill="#F5F5F5"/>
<path fill-rule="evenodd" clip-rule="evenodd" d="M32.8148 33.0751C39.4992 36.8948 39.4992 43.2321 32.8148 47.0518C26.1303 50.8715 15.2789 50.8715 8.59441 47.0518C1.90994 43.2321 1.90994 36.8948 8.59441 33.0751C15.2789 29.1686 26.1303 29.1686 32.8148 33.0751Z" fill="#E9E9EB"/>
<path fill-rule="evenodd" clip-rule="evenodd" d="M30.2972 34.5509C35.5927 37.5893 35.5927 42.5375 30.2972 45.5759C25.0017 48.6143 16.4942 48.6143 11.1987 45.5759C5.90318 42.5375 5.90318 37.5893 11.1987 34.5509C16.4942 31.5125 25.0017 31.5125 30.2972 34.5509Z" fill="#DDDEE1"/>
<path fill-rule="evenodd" clip-rule="evenodd" d="M27.7796 36.0267C31.6861 38.2838 31.6861 41.843 27.7796 44.1001C23.873 46.3572 17.6226 46.3572 13.8029 44.1001C9.89642 41.843 9.89642 38.2838 13.8029 36.0267C17.7094 33.7696 23.9599 33.7696 27.7796 36.0267Z" fill="#D1D2D6"/>
<path fill-rule="evenodd" clip-rule="evenodd" d="M12.2405 36.2004L36.0268 22.4842C37.1553 21.7897 38.1102 20.1402 38.1102 18.8381V5.55594C38.1102 4.16696 37.1553 3.64609 36.0268 4.34058L12.2405 18.0568C11.1119 18.7513 10.157 20.4007 10.157 21.7029V34.8982C10.157 36.2872 11.1119 36.808 12.2405 36.1135V36.2004Z" fill="#E6EAEB"/>
<path fill-rule="evenodd" clip-rule="evenodd" d="M21.8766 25.8698C20.9216 25.4358 20.314 24.2204 20.314 22.4842C20.314 20.748 20.9216 18.7513 21.8766 17.2755V25.8698Z" fill="#9E9E9E"/>
<path fill-rule="evenodd" clip-rule="evenodd" d="M26.3906 12.1536C28.04 12.5009 29.1686 14.4107 29.1686 17.3623C29.1686 20.3139 28.04 23.5259 26.3906 25.783V26.3039C29.6026 24.394 32.9015 22.571 36.1135 20.6612C36.4607 20.4007 36.808 19.8799 36.808 19.359V6.5109C36.808 5.99004 36.4607 5.81641 36.1135 5.99004C32.9015 7.89989 29.6026 9.72292 26.3906 11.6328V12.1536Z" fill="#9E9E9E"/>
<path fill-rule="evenodd" clip-rule="evenodd" d="M26.3906 23.2655C27.3455 21.7029 27.9532 19.793 27.9532 18.0568C27.9532 16.3206 27.3455 15.1052 26.3906 14.6711V23.2655Z" fill="#9E9E9E"/>
<path fill-rule="evenodd" clip-rule="evenodd" d="M21.8766 14.7579C20.2272 16.9282 19.0986 20.227 19.0986 23.1786C19.0986 26.1302 20.2272 28.04 21.8766 28.3873V28.9082C18.6646 30.818 15.3657 32.641 12.1537 34.5509C11.7197 34.8113 11.4592 34.5509 11.4592 34.03V21.2688C11.4592 20.7479 11.8065 20.227 12.1537 19.9666C15.3657 18.0567 18.6646 16.2337 21.8766 14.3239V14.8447V14.7579Z" fill="#9E9E9E"/>
<path fill-rule="evenodd" clip-rule="evenodd" d="M32.728 9.11525L35.7664 7.37903C35.7664 7.37903 36.0268 7.37903 36.0268 7.55265V7.98671C36.0268 7.98671 35.94 8.42076 35.7664 8.50758L32.728 10.2438C32.728 10.2438 32.4675 10.2438 32.4675 10.0702V9.63612C32.4675 9.63612 32.5543 9.20207 32.728 9.11525Z" fill="#E6EAEB"/>
<path fill-rule="evenodd" clip-rule="evenodd" d="M32.728 20.4007L35.7664 18.6644C35.7664 18.6644 36.0268 18.6644 36.0268 18.8381V19.2721C36.0268 19.2721 35.94 19.7062 35.7664 19.793L32.728 21.5292C32.728 21.5292 32.4675 21.5292 32.4675 21.3556V20.9215C32.4675 20.9215 32.5543 20.4875 32.728 20.4007Z" fill="#E6EAEB"/>
<path fill-rule="evenodd" clip-rule="evenodd" d="M34.3775 13.0217C35.072 12.6745 35.5928 13.0217 35.5928 13.7162C35.5928 14.4107 35.072 15.3656 34.3775 15.7129C33.683 16.0601 33.1621 15.7129 33.1621 15.0184C33.1621 14.3239 33.683 13.369 34.3775 13.0217Z" fill="#E6EAEB"/>
<path fill-rule="evenodd" clip-rule="evenodd" d="M15.5393 19.0117L12.5009 20.748C12.5009 20.748 12.2405 21.0952 12.2405 21.2688V21.7029C12.2405 21.7029 12.3273 21.9633 12.5009 21.8765L15.5393 20.1403C15.5393 20.1403 15.7997 19.793 15.7997 19.6194V19.1854C15.7997 19.1854 15.7129 18.9249 15.5393 19.0117Z" fill="#E6EAEB"/>
<path fill-rule="evenodd" clip-rule="evenodd" d="M15.5393 30.2971L12.5009 32.0334C12.5009 32.0334 12.2405 32.3806 12.2405 32.5542V32.9883C12.2405 32.9883 12.3273 33.2487 12.5009 33.1619L15.5393 31.4257C15.5393 31.4257 15.7997 31.0784 15.7997 30.9048V30.4708C15.7997 30.4708 15.7129 30.2103 15.5393 30.2971Z" fill="#E6EAEB"/>
<path fill-rule="evenodd" clip-rule="evenodd" d="M13.8899 24.8281C13.1954 25.1754 12.6746 26.1303 12.6746 26.8248C12.6746 27.5193 13.1954 27.8665 13.8899 27.5193C14.5844 27.172 15.1053 26.2171 15.1053 25.5226C15.1053 24.8281 14.5844 24.4809 13.8899 24.8281Z" fill="#E6EAEB"/>
<path fill-rule="evenodd" clip-rule="evenodd" d="M26.9116 9.54932L21.3557 12.8481V30.9049L26.9116 27.6929V9.54932Z" fill="#E6EAEB"/>
<path fill-rule="evenodd" clip-rule="evenodd" d="M23.005 11.8932L21.8765 12.5009V30.6444L23.005 29.9499V11.8932Z" fill="#F0B11D"/>
<path fill-rule="evenodd" clip-rule="evenodd" d="M23.5259 11.5459L24.1336 11.1987L24.6544 10.8514V28.995L24.1336 29.3423L23.5259 29.6895V11.5459Z" fill="#F0B11D"/>
<path fill-rule="evenodd" clip-rule="evenodd" d="M25.8699 10.2437L25.2622 10.5042V28.6477L25.8699 28.3005L26.3908 28.0401V9.89648L25.8699 10.2437Z" fill="#F0B11D"/>
<path fill-rule="evenodd" clip-rule="evenodd" d="M37.5025 4.16694L30.5576 0.173623L30.384 0H30.2104H30.0368H29.8631H29.6895L29.4291 0.0868113L29.2555 0.173623L28.995 0.260434L5.20872 14.0634H5.1219L5.03509 14.1503L4.86147 14.2371L4.77466 14.3239L4.68785 14.4107L4.60104 14.4975L4.51423 14.5843L4.42741 14.6711L4.3406 14.8447L4.25379 14.9316L4.16698 15.0184L4.08017 15.1052L3.99336 15.2788L3.90655 15.3656L3.81973 15.4524L3.73292 15.626L3.64611 15.7129L3.5593 15.8865V15.9733L3.47249 16.1469L3.38568 16.2337V16.4073L3.29887 16.4942V16.6678L3.21206 16.7546V16.9282V17.1018L3.12524 17.1886V17.3623V17.4491V17.6227V17.7095V30.9048V31.1653V31.4257L3.21206 31.5993L3.29887 31.773L3.38568 31.9466L3.47249 32.1202L3.5593 32.207L3.73292 32.2938L10.6778 36.374L10.591 36.2871L10.4174 36.1135L10.3306 36.0267L10.2438 35.8531L10.157 35.6795V35.419L10.0702 35.2454V34.985V21.7896V21.616V21.5292L10.157 21.3556V21.2688V21.0952V21.0083L10.2438 20.8347V20.6611L10.3306 20.5743V20.4007L10.4174 20.3139V20.1402L10.5042 20.0534L10.591 19.8798L10.6778 19.793V19.6194L10.7646 19.5326L10.8515 19.4457L10.9383 19.2721L11.0251 19.1853L11.1119 19.0985L11.1987 18.9249L11.2855 18.8381L11.3723 18.7513L11.4591 18.6644L11.6328 18.5776L11.7196 18.4908L11.8064 18.404L11.8932 18.3172L11.98 18.2304L12.0668 18.1436L12.2404 18.0568L36.0267 4.34057L36.2872 4.25376L36.4608 4.16694L36.6344 4.08013H36.8949H37.0685H37.2421H37.4157L37.5025 4.16694Z" fill="#C8CFD4"/>
<path fill-rule="evenodd" clip-rule="evenodd" d="M36.9815 3.90657L36.6343 3.64614H36.5475L36.3739 3.55933H36.2002H36.0266H35.7662L35.5926 3.64614L35.4189 3.73295L35.1585 3.81976L11.3722 17.6228H11.2854L11.1118 17.7096L11.0249 17.7964L10.9381 17.8832L10.8513 17.97L10.7645 18.0568L10.6777 18.1436L10.5041 18.2304L10.4173 18.3173L10.3305 18.4909L10.2436 18.5777L10.1568 18.6645L10.07 18.8381L9.98321 18.9249L9.8964 19.0117V19.1854L9.80958 19.2722L9.72277 19.4458L9.63596 19.5326V19.7062L9.54915 19.793L9.46234 19.9667V20.0535L9.37553 20.2271V20.3139V20.4875L9.28872 20.5744V20.748V20.8348V21.0084L9.2019 21.0952V21.2688V34.4642L9.28872 34.7246V34.985L9.37553 35.1587V35.3323L9.46234 35.5059L9.63596 35.6795L9.72277 35.7663L9.8964 35.8531L10.2436 36.0268L10.07 35.94L9.98321 35.8531L9.80958 35.6795L9.72277 35.5059V35.3323L9.63596 35.1587V34.8982L9.54915 34.7246V21.4425V21.3557L9.63596 21.182V21.0952V20.9216V20.8348L9.72277 20.6612V20.5744V20.4007L9.80958 20.3139V20.1403L9.8964 20.0535L9.98321 19.8799V19.793L10.07 19.6194L10.1568 19.5326L10.2436 19.359V19.2722L10.3305 19.0986L10.4173 19.0117L10.5041 18.9249L10.5909 18.7513L10.6777 18.6645L10.7645 18.5777L10.8513 18.4909L11.0249 18.3173L11.1118 18.2304L11.1986 18.1436L11.2854 18.0568L11.3722 17.97L11.459 17.8832H11.6326L11.7194 17.7964L35.5057 3.99338L35.7662 3.90657L35.9398 3.81976H36.1134L36.3739 3.73295H36.5475H36.7211L36.8947 3.81976L36.9815 3.90657Z" fill="#9EA4A8"/>
<path fill-rule="evenodd" clip-rule="evenodd" d="M36.2003 3.3857L35.853 3.21207L35.6794 3.12526H35.5926L35.419 3.03845L35.1586 3.12526H34.9849L34.8113 3.21207H34.5509L34.3772 3.3857L10.5909 17.1019L10.4173 17.1887L10.3305 17.2755L10.2437 17.3623L10.1569 17.4491L10.0701 17.5359L9.89645 17.6228L9.80964 17.7096L9.72282 17.7964L9.63601 17.8832L9.5492 17.97L9.46239 18.1436L9.37558 18.2304L9.28877 18.3172L9.20196 18.4909L9.11514 18.5777L9.02833 18.6645V18.8381L8.94152 18.9249L8.85471 19.0986L8.7679 19.1854V19.359L8.68109 19.4458V19.6194L8.59428 19.7062V19.8799L8.50747 20.0535V20.1403V20.3139L8.42065 20.4007V20.5743V20.6612V20.8348V34.0301V34.2905L8.50747 34.4642V34.7246L8.59428 34.8982L8.68109 35.0718L8.7679 35.1587L8.94152 35.3323L9.02833 35.4191L9.37558 35.5927L9.28877 35.5059L9.11514 35.3323L9.02833 35.2455L8.94152 35.0718L8.85471 34.8982V34.7246L8.7679 34.4642V34.2037V21.0084V20.8348V20.748V20.5743L8.85471 20.4875V20.3139V20.2271L8.94152 20.0535V19.9667L9.02833 19.793V19.7062L9.11514 19.5326V19.4458L9.20196 19.2722L9.28877 19.1854L9.37558 19.0117V18.9249L9.46239 18.7513L9.5492 18.6645L9.63601 18.5777L9.72282 18.4041L9.80964 18.3172L9.89645 18.2304L9.98326 18.0568L10.0701 17.97L10.1569 17.8832L10.2437 17.7964L10.4173 17.7096L10.5041 17.6228L10.5909 17.5359L10.6777 17.4491L10.7646 17.3623L10.9382 17.2755L34.7245 3.55932L34.8981 3.47251L35.1586 3.3857L35.3322 3.29889H35.5058H35.7662H35.9399L36.0267 3.3857H36.2003Z" fill="#9EA4A8"/>
<path fill-rule="evenodd" clip-rule="evenodd" d="M35.419 2.95162L35.0718 2.77799L34.8982 2.69118L34.7245 2.60437H34.5509H34.3773H34.2037L34.0301 2.69118L33.7696 2.77799L33.596 2.8648L9.72288 16.6678L9.63607 16.7546H9.54925L9.46244 16.8414L9.28882 16.9282L9.20201 17.0151L9.1152 17.1019L9.02839 17.1887L8.94157 17.2755L8.85476 17.4491L8.76795 17.5359L8.68114 17.6227L8.59433 17.7095L8.50752 17.8832L8.42071 17.97L8.3339 18.1436L8.24708 18.2304L8.16027 18.3172L8.07346 18.4908V18.5777L7.98665 18.7513L7.89984 18.8381V19.0117L7.81303 19.1853V19.2722L7.72622 19.4458V19.5326V19.7062L7.6394 19.793V19.9666V20.0535V20.2271V20.3139V33.5092V33.7696V34.0301L7.72622 34.2037L7.81303 34.3773L7.89984 34.5509L7.98665 34.7246L8.07346 34.8114L8.24708 34.8982L8.59433 35.1586L8.42071 34.985L8.3339 34.8982L8.24708 34.7246L8.16027 34.6378L8.07346 34.3773L7.98665 34.2037V34.0301V33.7696V20.4875V20.4007V20.2271V20.1403V19.9666L8.07346 19.8798V19.7062V19.6194L8.16027 19.4458V19.359L8.24708 19.1853V19.0985L8.3339 18.9249L8.42071 18.8381V18.6645L8.50752 18.5777L8.59433 18.404L8.68114 18.3172L8.76795 18.2304L8.85476 18.0568L8.94157 17.97L9.02839 17.8832L9.1152 17.7095L9.20201 17.6227L9.28882 17.5359L9.37563 17.4491L9.46244 17.3623L9.54925 17.2755L9.63607 17.1887L9.80969 17.1019L9.8965 17.0151L9.98331 16.9282L10.0701 16.8414L33.9432 3.12524L34.1169 2.95162L34.3773 2.8648H34.5509L34.7245 2.77799H34.8982L35.0718 2.8648H35.2454L35.419 2.95162Z" fill="#9EA4A8"/>
<path fill-rule="evenodd" clip-rule="evenodd" d="M34.6378 2.51753L34.2905 2.2571H34.1169L33.9433 2.17029H33.7697H33.5961H33.4224L33.162 2.2571L32.9884 2.34391L32.7279 2.43072L8.94163 16.1469L8.85482 16.2337L8.68119 16.3205L8.59438 16.4073L8.50757 16.4942L8.42076 16.581L8.33395 16.6678L8.24714 16.7546L8.07351 16.8414L7.9867 16.9282L7.89989 17.1018L7.81308 17.1887L7.72627 17.2755L7.63946 17.3623L7.55264 17.5359V17.6227L7.46583 17.7963L7.37902 17.8831L7.29221 18.0568L7.2054 18.1436V18.3172L7.11859 18.404L7.03178 18.5776V18.6644L6.94497 18.8381V18.9249V19.0985L6.85815 19.1853V19.3589V19.4457V19.6194V19.7062V19.8798V33.0751V33.3356V33.5092L6.94497 33.7696V33.9432L7.03178 34.1169L7.2054 34.2037L7.29221 34.3773L7.46583 34.4641L7.81308 34.6377L7.63946 34.5509L7.55264 34.4641L7.37902 34.2905L7.29221 34.1169V33.9432L7.2054 33.7696V33.5092V33.2488V20.0534V19.9666V19.793V19.7062V19.5326V19.4457L7.29221 19.2721V19.1853V19.0117L7.37902 18.8381V18.7513L7.46583 18.5776L7.55264 18.4908V18.3172L7.63946 18.2304L7.72627 18.0568L7.81308 17.97L7.89989 17.8831V17.7095L7.9867 17.6227L8.07351 17.4491L8.16032 17.3623L8.24714 17.2755L8.33395 17.1887L8.42076 17.015L8.59438 16.9282L8.68119 16.8414L8.768 16.7546L8.85482 16.6678L8.94163 16.581L9.02844 16.4942L9.20206 16.4073H9.28887L33.0752 2.60434L33.3356 2.51753L33.5092 2.43072L33.7697 2.34391H33.9433H34.1169H34.2905L34.4642 2.43072L34.6378 2.51753Z" fill="#9EA4A8"/>
<path fill-rule="evenodd" clip-rule="evenodd" d="M33.7696 1.99666L33.4224 1.82304L33.2488 1.73623H33.1619L32.9883 1.64941H32.7279L32.5543 1.73623H32.3806L32.1202 1.82304L31.9466 1.99666L8.16027 15.7129L7.98665 15.7997L7.89984 15.8865H7.81303L7.72622 15.9733L7.63941 16.0601L7.46578 16.1469L7.37897 16.3205L7.29216 16.4073L7.20535 16.4942L7.11854 16.581L7.03173 16.6678L6.94492 16.8414L6.8581 16.9282L6.77129 17.015L6.68448 17.1886L6.59767 17.2755V17.4491L6.51086 17.5359L6.42405 17.7095L6.33724 17.7963V17.9699L6.25042 18.0568V18.2304L6.16361 18.3172V18.4908L6.0768 18.5776V18.7513V18.8381L5.98999 19.0117V19.0985V19.2721V19.3589V32.6411V32.8147L6.0768 33.0751V33.2487L6.16361 33.5092L6.25042 33.596L6.33724 33.7696L6.51086 33.8564L6.59767 33.9432L6.94492 34.2037L6.8581 34.1169L6.68448 33.9432L6.59767 33.8564L6.51086 33.6828L6.42405 33.5092V33.2487L6.33724 33.0751V32.8147V19.6194V19.4457V19.3589V19.1853L6.42405 19.0985V18.9249V18.8381L6.51086 18.6644V18.5776L6.59767 18.404V18.3172L6.68448 18.1436V18.0568L6.77129 17.8831L6.8581 17.7963L6.94492 17.6227V17.5359L7.03173 17.3623L7.11854 17.2755L7.20535 17.1018L7.29216 17.015L7.37897 16.9282L7.46578 16.7546L7.55259 16.6678L7.63941 16.581L7.72622 16.4942L7.81303 16.4073L7.98665 16.3205L8.07346 16.2337L8.16027 16.1469L8.24709 16.0601L8.3339 15.9733L8.50752 15.8865L32.2938 2.17028L32.4675 2.08347L32.7279 1.99666L32.9015 1.90985H33.0751H33.3356H33.5092H33.6828L33.7696 1.99666Z" fill="#9EA4A8"/>
<path fill-rule="evenodd" clip-rule="evenodd" d="M32.9884 1.56258L32.6411 1.38895L32.4675 1.30214L32.2939 1.21533H32.1203H31.9466H31.773L31.5994 1.30214L31.339 1.38895L31.1653 1.47577L7.29221 15.2788H7.2054L7.11859 15.3656L7.03178 15.4524L6.85816 15.5392L6.77134 15.626L6.68453 15.7128L6.59772 15.7996L6.51091 15.8865L6.4241 16.0601L6.33729 16.1469L6.25048 16.2337L6.16366 16.3205L6.07685 16.4941L5.99004 16.5809L5.90323 16.6678L5.81642 16.8414L5.72961 16.9282V17.1018L5.6428 17.1886L5.55599 17.3622L5.46917 17.4491V17.6227L5.38236 17.7095V17.8831L5.29555 17.9699V18.1435V18.3172L5.20874 18.404V18.5776V18.6644V18.838V18.9248V32.1202V32.3806V32.641L5.29555 32.8147L5.38236 32.9883L5.46917 33.1619L5.55599 33.3355L5.72961 33.4223L5.81642 33.5092L6.16366 33.6828L5.99004 33.596L5.90323 33.5092L5.81642 33.3355L5.72961 33.1619L5.6428 32.9883L5.55599 32.8147V32.5542V32.3806V19.0985V19.0117V18.838V18.7512V18.5776L5.6428 18.4908V18.3172V18.2304L5.72961 18.0567V17.9699L5.81642 17.7963V17.7095L5.90323 17.5359L5.99004 17.4491V17.2754L6.07685 17.1886L6.16366 17.015L6.25048 16.9282L6.33729 16.7546L6.4241 16.6678L6.51091 16.5809L6.59772 16.4073L6.68453 16.3205L6.77134 16.2337L6.85816 16.1469L6.94497 16.0601L7.03178 15.8865L7.11859 15.7996L7.2054 15.7128L7.37902 15.626H7.46584L7.55265 15.5392L7.63946 15.4524L31.5126 1.7362L31.6862 1.56258L31.9466 1.47577H32.1203L32.2939 1.38895H32.4675L32.6411 1.47577H32.8148L32.9884 1.56258Z" fill="#9EA4A8"/>
<path fill-rule="evenodd" clip-rule="evenodd" d="M32.2071 1.1285L31.8599 0.868061L31.6863 0.78125H31.5126H31.339H31.1654H30.9918L30.7313 0.868061L30.5577 0.954873L30.2973 1.04168L6.51096 14.7579L6.42415 14.8447L6.33734 14.9315L6.16372 15.0183L6.07691 15.1051L5.99009 15.1919L5.90328 15.2787L5.81647 15.3656L5.72966 15.4524L5.55604 15.5392L5.46923 15.626L5.38242 15.7996L5.2956 15.8864L5.20879 15.9732L5.12198 16.1469V16.2337L5.03517 16.4073L4.94836 16.4941L4.86155 16.5809L4.77474 16.7545V16.8414L4.68792 17.015V17.1018L4.60111 17.2754V17.449L4.5143 17.5358V17.7095L4.42749 17.7963V17.9699V18.0567V18.2303V18.3171V18.4908V31.6861V31.9465V32.1201L4.5143 32.3806L4.60111 32.5542L4.68792 32.7278L4.77474 32.8146L4.86155 32.9883L5.03517 33.0751L5.38242 33.2487L5.20879 33.1619L5.12198 33.0751L5.03517 32.9015L4.94836 32.7278L4.86155 32.5542L4.77474 32.3806V32.1201V31.8597V18.6644V18.4908V18.404V18.2303V18.1435V17.9699L4.86155 17.8831V17.7095L4.94836 17.6227V17.449L5.03517 17.3622V17.1886L5.12198 17.1018V16.9282L5.20879 16.8414L5.2956 16.6677L5.38242 16.5809L5.46923 16.4073L5.55604 16.3205V16.2337L5.64285 16.06L5.72966 15.9732L5.81647 15.8864L5.90328 15.7128L6.07691 15.626L6.16372 15.5392L6.25053 15.4524L6.33734 15.3656L6.42415 15.2787L6.51096 15.1919L6.68459 15.1051L6.7714 15.0183H6.85821L30.6445 1.21531L30.905 1.1285L31.0786 1.04168L31.339 0.954873H31.5126H31.6863H31.8599L32.0335 1.04168L32.2071 1.1285Z" fill="#9EA4A8"/>
<path fill-rule="evenodd" clip-rule="evenodd" d="M31.339 0.607621L30.9917 0.433999L30.9049 0.347187L30.7313 0.260376H30.5577H30.384L30.1236 0.347187H29.95L29.7764 0.433999L29.5159 0.607621L5.72961 14.3238L5.55599 14.4106H5.46918L5.38236 14.4974L5.29555 14.5842L5.20874 14.6711L5.03512 14.7579L4.94831 14.8447L4.8615 15.0183L4.77469 15.1051L4.68787 15.1919L4.60106 15.2787L4.51425 15.4524L4.42744 15.5392L4.34063 15.626L4.25382 15.7996L4.16701 15.8864V16.06L4.08019 16.1469L3.99338 16.3205L3.90657 16.4073V16.5809L3.81976 16.6677V16.8413L3.73295 16.9282V17.1018L3.64614 17.1886V17.3622V17.449V17.6226L3.55933 17.7095V17.8831V17.9699V31.252V31.4256L3.64614 31.6861V31.8597L3.73295 32.0333L3.81976 32.207L3.90657 32.3806L4.08019 32.4674L4.16701 32.5542L4.51425 32.8146L4.42744 32.7278L4.25382 32.5542L4.16701 32.4674L4.08019 32.2938L3.99338 32.1201V31.8597L3.90657 31.6861V31.4256V18.2303V18.0567V17.9699L3.99338 17.7963V17.7095V17.5358V17.449L4.08019 17.2754V17.1018L4.16701 17.015V16.8413L4.25382 16.7545V16.5809L4.34063 16.4941L4.42744 16.3205L4.51425 16.2337V16.06L4.60106 15.9732L4.68787 15.8864L4.77469 15.7128L4.8615 15.626L4.94831 15.5392L5.03512 15.3656L5.12193 15.2787L5.20874 15.1919L5.29555 15.1051L5.38236 15.0183L5.55599 14.9315L5.6428 14.8447L5.72961 14.7579L5.81642 14.6711L5.90323 14.5842L6.07686 14.4974L29.8632 0.781244L30.1236 0.694433L30.2972 0.607621L30.4708 0.52081H30.7313H30.9049H31.0785H31.2521L31.339 0.607621Z" fill="#9EA4A8"/>
<path fill-rule="evenodd" clip-rule="evenodd" d="M26.9115 9.54925L19.8797 5.46912C16.6677 7.37897 17.1886 7.03172 13.9766 8.85476L21.0083 12.9349C24.2203 11.025 23.6994 11.3723 26.9115 9.54925Z" fill="#E6EAEB"/>
<path fill-rule="evenodd" clip-rule="evenodd" d="M18.8379 6.16365L18.2303 6.5109L25.262 10.591L25.8697 10.2438L26.4773 9.89654L19.4456 5.81641L18.8379 6.16365ZM17.1017 7.11858L17.7094 6.77133L24.7411 10.8515L24.1334 11.1987L23.5258 11.546L16.494 7.46582L17.1017 7.11858ZM22.9181 11.8064L21.7895 12.5009L14.7578 8.42075L15.8864 7.72626L22.9181 11.8064Z" fill="#F0B11D"/>
<path fill-rule="evenodd" clip-rule="evenodd" d="M3.81973 15.5392L3.73292 15.626L3.64611 15.7128L3.5593 15.8864V15.9732L3.47249 16.1469L3.38568 16.2337V16.4073L3.29887 16.4941V16.6677L3.21206 16.7545V16.9282V17.1018L3.12524 17.1886V17.3622V17.449V17.6227V17.7095V30.9048V31.1652V31.4257L3.21206 31.5993L3.29887 31.7729L3.38568 31.9465L3.47249 32.1202L3.5593 32.207L3.73292 32.2938L10.6778 36.3739L10.591 36.2871L10.4174 36.1135L10.3306 36.0267L10.2438 35.853L10.157 35.6794V35.419L10.0702 35.2454V34.9849V21.7896V21.616V21.5292L10.157 21.3555V21.2687V21.0951V21.0083L10.2438 20.8347V20.6611L10.3306 20.5742V20.4006L10.4174 20.3138V20.1402L10.5042 20.0534L10.591 19.8798L10.6778 19.7929V19.6193L10.7646 19.5325L3.81973 15.5392Z" fill="#B7BEC3"/>
<path fill-rule="evenodd" clip-rule="evenodd" d="M9.8964 19.0117V19.1853L9.80958 19.2722L9.72277 19.4458L9.63596 19.5326V19.7062L9.54915 19.793L9.46234 19.9666V20.0535L9.37553 20.2271V20.3139V20.4875L9.28872 20.5743V20.7479V20.8348V21.0084L9.2019 21.0952V21.2688V34.4641L9.28872 34.7246V34.985L9.37553 35.1586V35.3323L9.46234 35.5059L9.63596 35.6795L9.72277 35.7663L9.8964 35.8531L10.2436 36.0267L10.07 35.9399L9.98321 35.8531L9.80958 35.6795L9.72277 35.5059V35.3323L9.63596 35.1586V34.8982L9.54915 34.6378V21.4424V21.3556L9.63596 21.182V21.0952V20.9216V20.8348L9.72277 20.6611V20.5743V20.4007L9.80958 20.3139V20.1403L9.8964 20.0535L9.98321 19.8798V19.793L10.07 19.6194L10.1568 19.5326L10.2436 19.359V19.2722L9.8964 19.0117Z" fill="#8D9397"/>
<path fill-rule="evenodd" clip-rule="evenodd" d="M9.11514 18.5776L9.02833 18.6644V18.8381L8.94152 18.9249L8.85471 19.0985L8.7679 19.1853V19.3589L8.68109 19.4457V19.6194L8.59428 19.7062V19.8798L8.50747 19.9666V20.1402V20.3139L8.42065 20.4007V20.5743V20.6611V20.8347V34.0301V34.2905L8.50747 34.4641V34.7245L8.59428 34.8982L8.68109 35.0718L8.7679 35.1586L8.94152 35.3322L9.02833 35.419L9.37558 35.5927L9.28877 35.5059L9.11514 35.3322L9.02833 35.2454L8.94152 35.0718L8.85471 34.8982V34.7245L8.7679 34.4641V34.2037V21.0084V20.8347V20.7479V20.5743L8.85471 20.4875V20.3139V20.2271L8.94152 20.0534V19.9666L9.02833 19.793V19.7062L9.11514 19.5326V19.4457L9.20196 19.2721L9.28877 19.1853L9.37558 19.0117V18.9249L9.46239 18.7513L9.11514 18.5776Z" fill="#8D9397"/>
<path fill-rule="evenodd" clip-rule="evenodd" d="M8.3339 18.1436L8.24708 18.2304L8.16027 18.3172L8.07346 18.4908V18.5776L7.98665 18.7512L7.89984 18.838V19.0117L7.81303 19.1853V19.2721L7.72622 19.4457V19.5325V19.7062L7.6394 19.793V19.9666V20.0534V20.227V20.3138V33.5092V33.7696V34.03L7.72622 34.2037L7.81303 34.3773L7.89984 34.5509L7.98665 34.7245L8.07346 34.8113L8.24708 34.8981L8.59433 35.1586L8.42071 34.985L8.3339 34.8981L8.24708 34.7245L8.16027 34.6377L8.07346 34.3773L7.98665 34.2037V34.03V33.7696V20.4875V20.4006V20.227V20.1402V19.9666L8.07346 19.8798V19.7062V19.6193L8.16027 19.4457V19.3589L8.24708 19.1853V19.0985L8.3339 18.9249L8.42071 18.838V18.6644L8.50752 18.5776L8.59433 18.404L8.68114 18.3172L8.3339 18.1436Z" fill="#8D9397"/>
<path fill-rule="evenodd" clip-rule="evenodd" d="M7.46583 17.6227V17.7963L7.37902 17.8831L7.29221 18.0567L7.2054 18.1435V18.3172L7.11859 18.404L7.03178 18.5776V18.6644L6.94497 18.838V18.9249V19.0985L6.85815 19.1853V19.3589V19.4457V19.6193V19.7062V19.8798V33.0751V33.3355V33.5092L6.94497 33.7696V33.9432L7.03178 34.1168L7.2054 34.2036L7.29221 34.3773L7.46583 34.4641L7.81308 34.6377L7.63946 34.5509L7.55265 34.4641L7.37902 34.2905L7.29221 34.1168V33.9432L7.2054 33.7696V33.5092V33.2487V20.0534V19.9666V19.793V19.7062V19.5325V19.4457L7.29221 19.2721V19.1853V19.0117L7.37902 18.838V18.7512L7.46583 18.5776L7.55265 18.4908V18.3172L7.63946 18.2304L7.72627 18.0567L7.81308 17.9699L7.89989 17.8831L7.46583 17.6227Z" fill="#8D9397"/>
<path fill-rule="evenodd" clip-rule="evenodd" d="M6.68448 17.1886L6.59767 17.2754V17.449L6.51086 17.5358L6.42405 17.7095L6.33724 17.7963V17.9699L6.25042 18.0567V18.2303L6.16361 18.3171V18.4908L6.0768 18.5776V18.7512V18.838L5.98999 19.0116V19.0984V19.2721V19.3589V32.641V32.8146L6.0768 33.0751V33.2487L6.16361 33.5091L6.25042 33.5959L6.33724 33.7696L6.51086 33.8564L6.59767 33.9432L6.94492 34.2036L6.8581 34.1168L6.68448 33.9432L6.59767 33.8564L6.51086 33.6828L6.42405 33.5091V33.2487L6.33724 33.0751V32.8146V19.6193V19.4457V19.3589V19.1853L6.42405 19.0984V18.9248V18.838L6.51086 18.6644V18.5776L6.59767 18.404V18.3171L6.68448 18.1435V18.0567L6.77129 17.8831L6.8581 17.7963L6.94492 17.6227V17.5358L7.03173 17.3622L6.68448 17.1886Z" fill="#8D9397"/>
<path fill-rule="evenodd" clip-rule="evenodd" d="M5.90323 16.7546L5.81642 16.8415L5.72961 16.9283V17.1019L5.6428 17.1887L5.55599 17.3623L5.46917 17.4491V17.6228L5.38236 17.7096V17.8832L5.29555 17.97V18.1436V18.3172L5.20874 18.4041V18.5777V18.6645V18.8381V18.9249V32.1202V32.3807V32.6411L5.29555 32.8147L5.38236 32.9884L5.46917 33.162L5.55599 33.3356L5.72961 33.4224L5.81642 33.5092L6.16366 33.6829L5.99004 33.596L5.90323 33.5092L5.81642 33.3356L5.72961 33.162L5.6428 32.9884L5.55599 32.8147V32.5543V32.3807V19.0985V19.0117V18.8381V18.7513V18.5777L5.6428 18.4909V18.3172V18.2304L5.72961 18.0568V17.97L5.81642 17.7964V17.7096L5.90323 17.5359L5.99004 17.4491V17.2755L6.07685 17.1887L6.16366 17.0151L6.25048 16.9283L5.90323 16.7546Z" fill="#8D9397"/>
<path fill-rule="evenodd" clip-rule="evenodd" d="M5.12198 16.2338L5.03517 16.4074L4.94836 16.4942L4.86155 16.581L4.77474 16.7546V16.8414L4.68792 17.0151V17.1019L4.60111 17.2755V17.4491L4.5143 17.5359V17.7096L4.42749 17.7964V17.97V18.0568V18.2304V18.3172V18.4909V31.6862V31.9466V32.1202L4.5143 32.3807L4.60111 32.5543L4.68792 32.7279L4.77474 32.8147L4.86155 32.9884L5.03517 33.0752L5.38242 33.2488L5.20879 33.162L5.12198 33.0752L5.03517 32.9015L4.94836 32.7279L4.86155 32.5543L4.77474 32.3807V32.1202V31.8598V18.6645V18.4909V18.404V18.2304V18.1436V17.97L4.86155 17.8832V17.7096L4.94836 17.6227V17.4491L5.03517 17.3623V17.1887L5.12198 17.1019V16.9283L5.20879 16.8414L5.2956 16.6678L5.38242 16.581L5.46923 16.4942L5.12198 16.2338Z" fill="#8D9397"/>
<path fill-rule="evenodd" clip-rule="evenodd" d="M4.25382 15.7997L4.16701 15.8865V16.0601L4.08019 16.1469L3.99338 16.3206L3.90657 16.4074V16.581L3.81976 16.6678V16.8414L3.73295 16.9282V17.1019L3.64614 17.1887V17.3623V17.4491V17.6227L3.55933 17.7095V17.8832V17.97V31.2521V31.4257L3.64614 31.6862V31.8598L3.73295 32.0334L3.81976 32.207L3.90657 32.3806L4.08019 32.4675L4.16701 32.5543L4.51425 32.8147L4.42744 32.7279L4.25382 32.5543L4.16701 32.4675L4.08019 32.2938L3.99338 32.1202V31.8598L3.90657 31.6862V31.4257V18.2304V18.0568V17.97L3.99338 17.7963V17.7095V17.5359V17.4491L4.08019 17.2755V17.1019L4.16701 17.015V16.8414L4.25382 16.7546V16.581L4.34063 16.4942L4.42744 16.3206L4.51425 16.2337V16.0601L4.60106 15.9733L4.25382 15.7997Z" fill="#8D9397"/>
</g>
<defs>
<clipPath id="clip0_11461_111349">
<rect width="41.4958" height="52" fill="white"/>
</clipPath>
</defs>
</svg>
