<svg width="42" height="52" viewBox="0 0 42 52" fill="none" xmlns="http://www.w3.org/2000/svg">
<g clip-path="url(#clip0_5360_23667)">
<path fill-rule="evenodd" clip-rule="evenodd" d="M35.9188 31.5989C43.9923 36.2867 43.9923 43.8393 35.9188 48.5271C27.8454 53.2149 14.65 53.2149 6.57658 48.5271C-1.49688 43.8393 -1.49688 36.2867 6.57658 31.5989C14.65 26.9111 27.8454 26.9111 35.9188 31.5989Z" fill="#F5F5F5"/>
<path fill-rule="evenodd" clip-rule="evenodd" d="M33.3138 33.0754C39.9983 36.8951 39.9983 43.2323 33.3138 47.052C26.6293 50.8717 15.7779 50.8717 9.09343 47.052C2.40896 43.2323 2.40896 36.8951 9.09343 33.0754C15.7779 29.1689 26.6293 29.1689 33.3138 33.0754Z" fill="#E9E9EB"/>
<path fill-rule="evenodd" clip-rule="evenodd" d="M30.7967 34.5513C36.0922 37.5897 36.0922 42.5379 30.7967 45.5763C25.5012 48.6147 16.9937 48.6147 11.6982 45.5763C6.40269 42.5379 6.40269 37.5897 11.6982 34.5513C16.9937 31.5129 25.5012 31.5129 30.7967 34.5513Z" fill="#DDDEE1"/>
<path fill-rule="evenodd" clip-rule="evenodd" d="M28.2796 36.0268C32.1861 38.2839 32.1861 41.8432 28.2796 44.1003C24.373 46.3574 18.1226 46.3574 14.3029 44.1003C10.3964 41.8432 10.3964 38.2839 14.3029 36.0268C18.2094 33.7697 24.4599 33.7697 28.2796 36.0268Z" fill="#D1D2D6"/>
<path fill-rule="evenodd" clip-rule="evenodd" d="M12.7397 36.2002L36.526 22.484C37.6546 21.7895 38.6095 20.1401 38.6095 18.838V5.55582C38.6095 4.16684 37.6546 3.64597 36.526 4.34046L12.7397 18.0567C11.6112 18.7511 10.6562 20.4006 10.6562 21.7027V34.8981C10.6562 36.287 11.6112 36.8079 12.7397 36.1134V36.2002Z" fill="#E6EAEB"/>
<path fill-rule="evenodd" clip-rule="evenodd" d="M22.3751 25.8697C21.4202 25.4357 20.8125 24.2203 20.8125 22.4841C20.8125 20.7478 21.4202 18.7512 22.3751 17.2754V25.8697Z" fill="#27AE60"/>
<path fill-rule="evenodd" clip-rule="evenodd" d="M26.8906 12.1535C28.54 12.5008 29.6686 14.4106 29.6686 17.3622C29.6686 20.3138 28.54 23.5258 26.8906 25.7829V26.3038C30.1026 24.3939 33.4015 22.5709 36.6135 20.661C36.9607 20.4006 37.308 19.8797 37.308 19.3589V6.51078C37.308 5.98991 36.9607 5.81629 36.6135 5.98991C33.4015 7.89976 30.1026 9.7228 26.8906 11.6327V12.1535Z" fill="#27AE60"/>
<path fill-rule="evenodd" clip-rule="evenodd" d="M26.8906 23.2652C27.8455 21.7026 28.4532 19.7928 28.4532 18.0565C28.4532 16.3203 27.8455 15.105 26.8906 14.6709V23.2652Z" fill="#27AE60"/>
<path fill-rule="evenodd" clip-rule="evenodd" d="M22.3763 14.7583C20.7269 16.9286 19.5984 20.2274 19.5984 23.179C19.5984 26.1306 20.7269 28.0404 22.3763 28.3877V28.9085C19.1643 30.8184 15.8655 32.6414 12.6535 34.5513C12.2194 34.8117 11.959 34.5513 11.959 34.0304V21.2691C11.959 20.7483 12.3062 20.2274 12.6535 19.967C15.8655 18.0571 19.1643 16.2341 22.3763 14.3242V14.8451V14.7583Z" fill="#27AE60"/>
<path fill-rule="evenodd" clip-rule="evenodd" d="M33.2272 9.11513L36.2656 7.37891C36.2656 7.37891 36.5261 7.37891 36.5261 7.55253V7.98659C36.5261 7.98659 36.4392 8.42064 36.2656 8.50745L33.2272 10.2437C33.2272 10.2437 32.9668 10.2437 32.9668 10.0701V9.636C32.9668 9.636 33.0536 9.20194 33.2272 9.11513Z" fill="#E6EAEB"/>
<path fill-rule="evenodd" clip-rule="evenodd" d="M33.2272 20.4003L36.2656 18.6641C36.2656 18.6641 36.5261 18.6641 36.5261 18.8377V19.2717C36.5261 19.2717 36.4392 19.7058 36.2656 19.7926L33.2272 21.5288C33.2272 21.5288 32.9668 21.5288 32.9668 21.3552V20.9212C32.9668 20.9212 33.0536 20.4871 33.2272 20.4003Z" fill="#E6EAEB"/>
<path fill-rule="evenodd" clip-rule="evenodd" d="M34.8775 13.022C35.572 12.6747 36.0928 13.022 36.0928 13.7165C36.0928 14.411 35.572 15.3659 34.8775 15.7131C34.183 16.0604 33.6621 15.7131 33.6621 15.0186C33.6621 14.3241 34.183 13.3692 34.8775 13.022Z" fill="#E6EAEB"/>
<path fill-rule="evenodd" clip-rule="evenodd" d="M16.0391 19.0119L13.0007 20.7481C13.0007 20.7481 12.7402 21.0953 12.7402 21.269V21.703C12.7402 21.703 12.827 21.9634 13.0007 21.8766L16.0391 20.1404C16.0391 20.1404 16.2995 19.7932 16.2995 19.6195V19.1855C16.2995 19.1855 16.2127 18.925 16.0391 19.0119Z" fill="#E6EAEB"/>
<path fill-rule="evenodd" clip-rule="evenodd" d="M16.0391 30.297L13.0007 32.0332C13.0007 32.0332 12.7402 32.3805 12.7402 32.5541V32.9882C12.7402 32.9882 12.827 33.2486 13.0007 33.1618L16.0391 31.4256C16.0391 31.4256 16.2995 31.0783 16.2995 30.9047V30.4706C16.2995 30.4706 16.2127 30.2102 16.0391 30.297Z" fill="#E6EAEB"/>
<path fill-rule="evenodd" clip-rule="evenodd" d="M14.3892 24.8276C13.6947 25.1749 13.1738 26.1298 13.1738 26.8243C13.1738 27.5188 13.6947 27.866 14.3892 27.5188C15.0837 27.1715 15.6045 26.2166 15.6045 25.5221C15.6045 24.8276 15.0837 24.4804 14.3892 24.8276Z" fill="#E6EAEB"/>
<path fill-rule="evenodd" clip-rule="evenodd" d="M27.4114 9.54883L21.8555 12.8477V30.9044L27.4114 27.6924V9.54883Z" fill="#E6EAEB"/>
<path fill-rule="evenodd" clip-rule="evenodd" d="M23.5035 11.8926L22.375 12.5003V30.6438L23.5035 29.9493V11.8926Z" fill="#F0B11D"/>
<path fill-rule="evenodd" clip-rule="evenodd" d="M24.0254 11.5461L24.6331 11.1988L25.1539 10.8516V28.9951L24.6331 29.3424L24.0254 29.6896V11.5461Z" fill="#F0B11D"/>
<path fill-rule="evenodd" clip-rule="evenodd" d="M26.3694 10.2437L25.7617 10.5042V28.6477L26.3694 28.3005L26.8903 28.0401V9.89648L26.3694 10.2437Z" fill="#F0B11D"/>
<path fill-rule="evenodd" clip-rule="evenodd" d="M38.0023 4.16694L31.0574 0.173623L30.8838 0H30.7101H30.5365H30.3629H30.1893L29.9288 0.0868113L29.7552 0.173623L29.4948 0.260434L5.70847 14.0634H5.62166L5.53485 14.1503L5.36123 14.2371L5.27442 14.3239L5.1876 14.4107L5.10079 14.4975L5.01398 14.5843L4.92717 14.6711L4.84036 14.8447L4.75355 14.9316L4.66674 15.0184L4.57992 15.1052L4.49311 15.2788L4.4063 15.3656L4.31949 15.4524L4.23268 15.626L4.14587 15.7129L4.05906 15.8865V15.9733L3.97225 16.1469L3.88543 16.2337V16.4073L3.79862 16.4942V16.6678L3.71181 16.7546V16.9282V17.1018L3.625 17.1886V17.3623V17.4491V17.6227V17.7095V30.9048V31.1653V31.4257L3.71181 31.5993L3.79862 31.773L3.88543 31.9466L3.97225 32.1202L4.05906 32.207L4.23268 32.2938L11.1776 36.374L11.0908 36.2871L10.9172 36.1135L10.8303 36.0267L10.7435 35.8531L10.6567 35.6795V35.419L10.5699 35.2454V34.985V21.7896V21.616V21.5292L10.6567 21.3556V21.2688V21.0952V21.0083L10.7435 20.8347V20.6611L10.8303 20.5743V20.4007L10.9172 20.3139V20.1402L11.004 20.0534L11.0908 19.8798L11.1776 19.793V19.6194L11.2644 19.5326L11.3512 19.4457L11.438 19.2721L11.5248 19.1853L11.6116 19.0985L11.6985 18.9249L11.7853 18.8381L11.8721 18.7513L11.9589 18.6644L12.1325 18.5776L12.2193 18.4908L12.3061 18.404L12.3929 18.3172L12.4798 18.2304L12.5666 18.1436L12.7402 18.0568L36.5265 4.34057L36.7869 4.25376L36.9606 4.16694L37.1342 4.08013H37.3946H37.5682H37.7419H37.9155L38.0023 4.16694Z" fill="#C8CFD4"/>
<path fill-rule="evenodd" clip-rule="evenodd" d="M37.4808 3.90682L37.1336 3.64638H37.0467L36.8731 3.55957H36.6995H36.5259H36.2654L36.0918 3.64638L35.9182 3.73319L35.6578 3.82L11.8715 17.623H11.7846L11.611 17.7098L11.5242 17.7966L11.4374 17.8834L11.3506 17.9703L11.2638 18.0571L11.177 18.1439L11.0033 18.2307L10.9165 18.3175L10.8297 18.4911L10.7429 18.5779L10.6561 18.6647L10.5693 18.8384L10.4825 18.9252L10.3957 19.012V19.1856L10.3089 19.2724L10.222 19.446L10.1352 19.5329V19.7065L10.0484 19.7933L9.96161 19.9669V20.0537L9.8748 20.2274V20.3142V20.4878L9.78798 20.5746V20.7482V20.835V21.0087L9.70117 21.0955V21.2691V34.4644L9.78798 34.7248V34.9853L9.8748 35.1589V35.3325L9.96161 35.5061L10.1352 35.6798L10.222 35.7666L10.3957 35.8534L10.7429 36.027L10.5693 35.9402L10.4825 35.8534L10.3089 35.6798L10.222 35.5061V35.3325L10.1352 35.1589V34.8985L10.0484 34.7248V21.4427V21.3559L10.1352 21.1823V21.0955V20.9218V20.835L10.222 20.6614V20.5746V20.401L10.3089 20.3142V20.1405L10.3957 20.0537L10.4825 19.8801V19.7933L10.5693 19.6197L10.6561 19.5329L10.7429 19.3592V19.2724L10.8297 19.0988L10.9165 19.012L11.0033 18.9252L11.0902 18.7516L11.177 18.6647L11.2638 18.5779L11.3506 18.4911L11.5242 18.3175L11.611 18.2307L11.6978 18.1439L11.7846 18.0571L11.8715 17.9703L11.9583 17.8834H12.1319L12.2187 17.7966L36.005 3.99363L36.2654 3.90682L36.4391 3.82H36.6127L36.8731 3.73319H37.0467H37.2204L37.394 3.82L37.4808 3.90682Z" fill="#9EA4A8"/>
<path fill-rule="evenodd" clip-rule="evenodd" d="M36.6996 3.38533L36.3523 3.21171L36.1787 3.1249H36.0919L35.9183 3.03809L35.6578 3.1249H35.4842L35.3106 3.21171H35.0501L34.8765 3.38533L11.0902 17.1015L10.9166 17.1883L10.8298 17.2751L10.743 17.362L10.6561 17.4488L10.5693 17.5356L10.3957 17.6224L10.3089 17.7092L10.2221 17.796L10.1353 17.8828L10.0485 17.9696L9.96166 18.1433L9.87485 18.2301L9.78804 18.3169L9.70122 18.4905L9.61441 18.5773L9.5276 18.6641V18.8378L9.44079 18.9246L9.35398 19.0982L9.26717 19.185V19.3586L9.18036 19.4454V19.6191L9.09354 19.7059V19.8795L9.00673 20.0531V20.1399V20.3135L8.91992 20.4004V20.574V20.6608V20.8344V34.0297V34.2902L9.00673 34.4638V34.7242L9.09354 34.8979L9.18036 35.0715L9.26717 35.1583L9.44079 35.3319L9.5276 35.4187L9.87485 35.5923L9.78804 35.5055L9.61441 35.3319L9.5276 35.2451L9.44079 35.0715L9.35398 34.8979V34.7242L9.26717 34.4638V34.2034V21.008V20.8344V20.7476V20.574L9.35398 20.4872V20.3135V20.2267L9.44079 20.0531V19.9663L9.5276 19.7927V19.7059L9.61441 19.5322V19.4454L9.70122 19.2718L9.78804 19.185L9.87485 19.0114V18.9246L9.96166 18.7509L10.0485 18.6641L10.1353 18.5773L10.2221 18.4037L10.3089 18.3169L10.3957 18.2301L10.4825 18.0564L10.5693 17.9696L10.6561 17.8828L10.743 17.796L10.9166 17.7092L11.0034 17.6224L11.0902 17.5356L11.177 17.4488L11.2638 17.362L11.4375 17.2751L35.2238 3.55895L35.3974 3.47214L35.6578 3.38533L35.8314 3.29852H36.0051H36.2655H36.4391L36.5259 3.38533H36.6996Z" fill="#9EA4A8"/>
<path fill-rule="evenodd" clip-rule="evenodd" d="M35.9183 2.95174L35.5711 2.77811L35.3974 2.6913L35.2238 2.60449H35.0502H34.8766H34.7029L34.5293 2.6913L34.2689 2.77811L34.0953 2.86493L10.2221 16.6679L10.1353 16.7547H10.0485L9.96171 16.8416L9.78809 16.9284L9.70128 17.0152L9.61446 17.102L9.52765 17.1888L9.44084 17.2756L9.35403 17.4492L9.26722 17.536L9.18041 17.6229L9.0936 17.7097L9.00679 17.8833L8.91997 17.9701L8.83316 18.1437L8.74635 18.2305L8.65954 18.3173L8.57273 18.491V18.5778L8.48592 18.7514L8.39911 18.8382V19.0118L8.31229 19.1855V19.2723L8.22548 19.4459V19.5327V19.7063L8.13867 19.7931V19.9668V20.0536V20.2272V20.314V33.5093V33.7698V34.0302L8.22548 34.2038L8.31229 34.3774L8.39911 34.5511L8.48592 34.7247L8.57273 34.8115L8.74635 34.8983L9.0936 35.1588L8.91997 34.9851L8.83316 34.8983L8.74635 34.7247L8.65954 34.6379L8.57273 34.3774L8.48592 34.2038V34.0302V33.7698V20.4876V20.4008V20.2272V20.1404V19.9668L8.57273 19.88V19.7063V19.6195L8.65954 19.4459V19.3591L8.74635 19.1855V19.0986L8.83316 18.925L8.91997 18.8382V18.6646L9.00679 18.5778L9.0936 18.4042L9.18041 18.3173L9.26722 18.2305L9.35403 18.0569L9.44084 17.9701L9.52765 17.8833L9.61446 17.7097L9.70128 17.6229L9.78809 17.536L9.8749 17.4492L9.96171 17.3624L10.0485 17.2756L10.1353 17.1888L10.309 17.102L10.3958 17.0152L10.4826 16.9284L10.5694 16.8416L34.4425 3.12536L34.6161 2.95174L34.8766 2.86493H35.0502L35.2238 2.77811H35.3974L35.5711 2.86493H35.7447L35.9183 2.95174Z" fill="#9EA4A8"/>
<path fill-rule="evenodd" clip-rule="evenodd" d="M35.1371 2.51717L34.7898 2.25673H34.6162L34.4426 2.16992H34.2689H34.0953H33.9217L33.6613 2.25673L33.4876 2.34354L33.2272 2.43036L9.44089 16.1465L9.35408 16.2334L9.18046 16.3202L9.09365 16.407L9.00684 16.4938L8.92003 16.5806L8.83321 16.6674L8.7464 16.7542L8.57278 16.841L8.48597 16.9279L8.39916 17.1015L8.31235 17.1883L8.22554 17.2751L8.13872 17.3619L8.05191 17.5355V17.6223L7.9651 17.796L7.87829 17.8828L7.79148 18.0564L7.70467 18.1432V18.3168L7.61786 18.4036L7.53104 18.5773V18.6641L7.44423 18.8377V18.9245V19.0981L7.35742 19.1849V19.3586V19.4454V19.619V19.7058V19.8794V33.0748V33.3352V33.5088L7.44423 33.7693V33.9429L7.53104 34.1165L7.70467 34.2033L7.79148 34.3769L7.9651 34.4637L8.31235 34.6374L8.13872 34.5506L8.05191 34.4637L7.87829 34.2901L7.79148 34.1165V33.9429L7.70467 33.7693V33.5088V33.2484V20.0531V19.9662V19.7926V19.7058V19.5322V19.4454L7.79148 19.2718V19.1849V19.0113L7.87829 18.8377V18.7509L7.9651 18.5773L8.05191 18.4905V18.3168L8.13872 18.23L8.22554 18.0564L8.31235 17.9696L8.39916 17.8828V17.7092L8.48597 17.6223L8.57278 17.4487L8.65959 17.3619L8.7464 17.2751L8.83321 17.1883L8.92003 17.0147L9.09365 16.9279L9.18046 16.841L9.26727 16.7542L9.35408 16.6674L9.44089 16.5806L9.52771 16.4938L9.70133 16.407H9.78814L33.5744 2.60398L33.8349 2.51717L34.0085 2.43036L34.2689 2.34354H34.4426H34.6162H34.7898L34.9634 2.43036L35.1371 2.51717Z" fill="#9EA4A8"/>
<path fill-rule="evenodd" clip-rule="evenodd" d="M34.2699 1.99666L33.9226 1.82304L33.749 1.73623H33.6622L33.4886 1.64941H33.2281L33.0545 1.73623H32.8809L32.6205 1.82304L32.4468 1.99666L8.66052 15.7129L8.4869 15.7997L8.40008 15.8865H8.31327L8.22646 15.9733L8.13965 16.0601L7.96603 16.1469L7.87922 16.3205L7.7924 16.4073L7.70559 16.4942L7.61878 16.581L7.53197 16.6678L7.44516 16.8414L7.35835 16.9282L7.27154 17.015L7.18473 17.1886L7.09791 17.2755V17.4491L7.0111 17.5359L6.92429 17.7095L6.83748 17.7963V17.9699L6.75067 18.0568V18.2304L6.66386 18.3172V18.4908L6.57705 18.5776V18.7513V18.8381L6.49023 19.0117V19.0985V19.2721V19.3589V32.6411V32.8147L6.57705 33.0751V33.2487L6.66386 33.5092L6.75067 33.596L6.83748 33.7696L7.0111 33.8564L7.09791 33.9432L7.44516 34.2037L7.35835 34.1169L7.18473 33.9432L7.09791 33.8564L7.0111 33.6828L6.92429 33.5092V33.2487L6.83748 33.0751V32.8147V19.6194V19.4457V19.3589V19.1853L6.92429 19.0985V18.9249V18.8381L7.0111 18.6644V18.5776L7.09791 18.404V18.3172L7.18473 18.1436V18.0568L7.27154 17.8831L7.35835 17.7963L7.44516 17.6227V17.5359L7.53197 17.3623L7.61878 17.2755L7.70559 17.1018L7.7924 17.015L7.87922 16.9282L7.96603 16.7546L8.05284 16.6678L8.13965 16.581L8.22646 16.4942L8.31327 16.4073L8.4869 16.3205L8.57371 16.2337L8.66052 16.1469L8.74733 16.0601L8.83414 15.9733L9.00776 15.8865L32.7941 2.17028L32.9677 2.08347L33.2281 1.99666L33.4018 1.90985H33.5754H33.8358H34.0094H34.1831L34.2699 1.99666Z" fill="#9EA4A8"/>
<path fill-rule="evenodd" clip-rule="evenodd" d="M33.4886 1.56307L33.1414 1.38944L32.9678 1.30263L32.7941 1.21582H32.6205H32.4469H32.2733L32.0996 1.30263L31.8392 1.38944L31.6656 1.47625L7.79246 15.2793H7.70565L7.61883 15.3661L7.53202 15.4529L7.3584 15.5397L7.27159 15.6265L7.18478 15.7133L7.09797 15.8001L7.01115 15.8869L6.92434 16.0606L6.83753 16.1474L6.75072 16.2342L6.66391 16.321L6.5771 16.4946L6.49029 16.5814L6.40348 16.6682L6.31666 16.8419L6.22985 16.9287V17.1023L6.14304 17.1891L6.05623 17.3627L5.96942 17.4495V17.6232L5.88261 17.71V17.8836L5.7958 17.9704V18.144V18.3177L5.70898 18.4045V18.5781V18.6649V18.8385V18.9253V32.1207V32.3811V32.6415L5.7958 32.8152L5.88261 32.9888L5.96942 33.1624L6.05623 33.336L6.22985 33.4228L6.31666 33.5096L6.66391 33.6833L6.49029 33.5965L6.40348 33.5096L6.31666 33.336L6.22985 33.1624L6.14304 32.9888L6.05623 32.8152V32.5547V32.3811V19.099V19.0121V18.8385V18.7517V18.5781L6.14304 18.4913V18.3177V18.2308L6.22985 18.0572V17.9704L6.31666 17.7968V17.71L6.40348 17.5364L6.49029 17.4495V17.2759L6.5771 17.1891L6.66391 17.0155L6.75072 16.9287L6.83753 16.7551L6.92434 16.6682L7.01115 16.5814L7.09797 16.4078L7.18478 16.321L7.27159 16.2342L7.3584 16.1474L7.44521 16.0606L7.53202 15.8869L7.61883 15.8001L7.70565 15.7133L7.87927 15.6265H7.96608L8.05289 15.5397L8.1397 15.4529L32.0128 1.73669L32.1865 1.56307L32.4469 1.47625H32.6205L32.7941 1.38944H32.9678L33.1414 1.47625H33.315L33.4886 1.56307Z" fill="#9EA4A8"/>
<path fill-rule="evenodd" clip-rule="evenodd" d="M32.7074 1.1285L32.3601 0.868061L32.1865 0.78125H32.0129H31.8393H31.6656H31.492L31.2316 0.868061L31.058 0.954873L30.7975 1.04168L7.01121 14.7579L6.9244 14.8447L6.83758 14.9315L6.66396 15.0183L6.57715 15.1051L6.49034 15.1919L6.40353 15.2787L6.31672 15.3656L6.22991 15.4524L6.05628 15.5392L5.96947 15.626L5.88266 15.7996L5.79585 15.8864L5.70904 15.9732L5.62223 16.1469V16.2337L5.53541 16.4073L5.4486 16.4941L5.36179 16.5809L5.27498 16.7545V16.8414L5.18817 17.015V17.1018L5.10136 17.2754V17.449L5.01455 17.5358V17.7095L4.92773 17.7963V17.9699V18.0567V18.2303V18.3171V18.4908V31.6861V31.9465V32.1201L5.01455 32.3806L5.10136 32.5542L5.18817 32.7278L5.27498 32.8146L5.36179 32.9883L5.53541 33.0751L5.88266 33.2487L5.70904 33.1619L5.62223 33.0751L5.53541 32.9015L5.4486 32.7278L5.36179 32.5542L5.27498 32.3806V32.1201V31.8597V18.6644V18.4908V18.404V18.2303V18.1435V17.9699L5.36179 17.8831V17.7095L5.4486 17.6227V17.449L5.53541 17.3622V17.1886L5.62223 17.1018V16.9282L5.70904 16.8414L5.79585 16.6677L5.88266 16.5809L5.96947 16.4073L6.05628 16.3205V16.2337L6.14309 16.06L6.22991 15.9732L6.31672 15.8864L6.40353 15.7128L6.57715 15.626L6.66396 15.5392L6.75077 15.4524L6.83758 15.3656L6.9244 15.2787L7.01121 15.1919L7.18483 15.1051L7.27164 15.0183H7.35845L31.1448 1.21531L31.4052 1.1285L31.5788 1.04168L31.8393 0.954873H32.0129H32.1865H32.3601L32.5337 1.04168L32.7074 1.1285Z" fill="#9EA4A8"/>
<path fill-rule="evenodd" clip-rule="evenodd" d="M31.8382 0.607988L31.491 0.434365L31.4042 0.347554L31.2305 0.260742H31.0569H30.8833L30.6229 0.347554H30.4492L30.2756 0.434365L30.0152 0.607988L6.22888 14.3242L6.05525 14.411H5.96844L5.88163 14.4978L5.79482 14.5846L5.70801 14.6714L5.53439 14.7582L5.44758 14.845L5.36076 15.0187L5.27395 15.1055L5.18714 15.1923L5.10033 15.2791L5.01352 15.4527L4.92671 15.5395L4.8399 15.6264L4.75308 15.8L4.66627 15.8868V16.0604L4.57946 16.1472L4.49265 16.3208L4.40584 16.4077V16.5813L4.31903 16.6681V16.8417L4.23222 16.9285V17.1021L4.14541 17.189V17.3626V17.4494V17.623L4.05859 17.7098V17.8834V17.9703V31.2524V31.426L4.14541 31.6865V31.8601L4.23222 32.0337L4.31903 32.2073L4.40584 32.3809L4.57946 32.4678L4.66627 32.5546L5.01352 32.815L4.92671 32.7282L4.75308 32.5546L4.66627 32.4678L4.57946 32.2941L4.49265 32.1205V31.8601L4.40584 31.6865V31.426V18.2307V18.0571V17.9703L4.49265 17.7966V17.7098V17.5362V17.4494L4.57946 17.2758V17.1021L4.66627 17.0153V16.8417L4.75308 16.7549V16.5813L4.8399 16.4945L4.92671 16.3208L5.01352 16.234V16.0604L5.10033 15.9736L5.18714 15.8868L5.27395 15.7132L5.36076 15.6264L5.44758 15.5395L5.53439 15.3659L5.6212 15.2791L5.70801 15.1923L5.79482 15.1055L5.88163 15.0187L6.05525 14.9319L6.14207 14.845L6.22888 14.7582L6.31569 14.6714L6.4025 14.5846L6.57612 14.4978L30.3624 0.78161L30.6229 0.694799L30.7965 0.607988L30.9701 0.521176H31.2305H31.4042H31.5778H31.7514L31.8382 0.607988Z" fill="#9EA4A8"/>
<path fill-rule="evenodd" clip-rule="evenodd" d="M27.4115 9.54888L20.3797 5.46875C17.1677 7.3786 17.6886 7.03135 14.4766 8.85439L21.5083 12.9345C24.7203 11.0247 24.1994 11.3719 27.4115 9.54888Z" fill="#E6EAEB"/>
<path fill-rule="evenodd" clip-rule="evenodd" d="M19.3379 6.16365L18.7303 6.5109L25.762 10.591L26.3697 10.2438L26.9773 9.89654L19.9456 5.81641L19.3379 6.16365ZM17.6017 7.11858L18.2094 6.77133L25.2411 10.8515L24.6334 11.1987L24.0258 11.546L16.994 7.46582L17.6017 7.11858ZM23.4181 11.8064L22.2895 12.5009L15.2578 8.42075L16.3864 7.72626L23.4181 11.8064Z" fill="#F0B11D"/>
<path fill-rule="evenodd" clip-rule="evenodd" d="M4.31949 15.5391L4.23268 15.6259L4.14587 15.7127L4.05906 15.8863V15.9731L3.97225 16.1467L3.88543 16.2336V16.4072L3.79862 16.494V16.6676L3.71181 16.7544V16.928V17.1017L3.625 17.1885V17.3621V17.4489V17.6225V17.7093V30.9047V31.1651V31.4255L3.71181 31.5992L3.79862 31.7728L3.88543 31.9464L3.97225 32.12L4.05906 32.2068L4.23268 32.2937L11.1776 36.3738L11.0908 36.287L10.9172 36.1134L10.8303 36.0265L10.7435 35.8529L10.6567 35.6793V35.4189L10.5699 35.2452V34.9848V21.7895V21.6159V21.529L10.6567 21.3554V21.2686V21.095V21.0082L10.7435 20.8346V20.6609L10.8303 20.5741V20.4005L10.9172 20.3137V20.1401L11.004 20.0533L11.0908 19.8796L11.1776 19.7928V19.6192L11.2644 19.5324L4.31949 15.5391Z" fill="#B7BEC3"/>
<path fill-rule="evenodd" clip-rule="evenodd" d="M10.3957 19.0117V19.1853L10.3089 19.2722L10.222 19.4458L10.1352 19.5326V19.7062L10.0484 19.793L9.96161 19.9666V20.0535L9.8748 20.2271V20.3139V20.4875L9.78798 20.5743V20.7479V20.8348V21.0084L9.70117 21.0952V21.2688V34.4641L9.78798 34.7246V34.985L9.8748 35.1586V35.3323L9.96161 35.5059L10.1352 35.6795L10.222 35.7663L10.3957 35.8531L10.7429 36.0267L10.5693 35.9399L10.4825 35.8531L10.3089 35.6795L10.222 35.5059V35.3323L10.1352 35.1586V34.8982L10.0484 34.6378V21.4424V21.3556L10.1352 21.182V21.0952V20.9216V20.8348L10.222 20.6611V20.5743V20.4007L10.3089 20.3139V20.1403L10.3957 20.0535L10.4825 19.8798V19.793L10.5693 19.6194L10.6561 19.5326L10.7429 19.359V19.2722L10.3957 19.0117Z" fill="#8D9397"/>
<path fill-rule="evenodd" clip-rule="evenodd" d="M9.61441 18.5771L9.5276 18.664V18.8376L9.44079 18.9244L9.35398 19.098L9.26717 19.1848V19.3584L9.18036 19.4453V19.6189L9.09354 19.7057V19.8793L9.00673 19.9661V20.1398V20.3134L8.91992 20.4002V20.5738V20.6606V20.8342V34.0296V34.29L9.00673 34.4636V34.7241L9.09354 34.8977L9.18036 35.0713L9.26717 35.1581L9.44079 35.3317L9.5276 35.4186L9.87485 35.5922L9.78804 35.5054L9.61441 35.3317L9.5276 35.2449L9.44079 35.0713L9.35398 34.8977V34.7241L9.26717 34.4636V34.2032V21.0079V20.8342V20.7474V20.5738L9.35398 20.487V20.3134V20.2266L9.44079 20.0529V19.9661L9.5276 19.7925V19.7057L9.61441 19.5321V19.4453L9.70122 19.2716L9.78804 19.1848L9.87485 19.0112V18.9244L9.96166 18.7508L9.61441 18.5771Z" fill="#8D9397"/>
<path fill-rule="evenodd" clip-rule="evenodd" d="M8.83316 18.1436L8.74635 18.2304L8.65954 18.3172L8.57273 18.4908V18.5776L8.48592 18.7512L8.39911 18.838V19.0117L8.31229 19.1853V19.2721L8.22548 19.4457V19.5325V19.7062L8.13867 19.793V19.9666V20.0534V20.227V20.3138V33.5092V33.7696V34.03L8.22548 34.2037L8.31229 34.3773L8.39911 34.5509L8.48592 34.7245L8.57273 34.8113L8.74635 34.8981L9.0936 35.1586L8.91997 34.985L8.83316 34.8981L8.74635 34.7245L8.65954 34.6377L8.57273 34.3773L8.48592 34.2037V34.03V33.7696V20.4875V20.4006V20.227V20.1402V19.9666L8.57273 19.8798V19.7062V19.6193L8.65954 19.4457V19.3589L8.74635 19.1853V19.0985L8.83316 18.9249L8.91997 18.838V18.6644L9.00679 18.5776L9.0936 18.404L9.18041 18.3172L8.83316 18.1436Z" fill="#8D9397"/>
<path fill-rule="evenodd" clip-rule="evenodd" d="M7.9651 17.623V17.7967L7.87829 17.8835L7.79148 18.0571L7.70467 18.1439V18.3175L7.61786 18.4043L7.53104 18.578V18.6648L7.44423 18.8384V18.9252V19.0988L7.35742 19.1857V19.3593V19.4461V19.6197V19.7065V19.8801V33.0755V33.3359V33.5095L7.44423 33.77V33.9436L7.53104 34.1172L7.70467 34.204L7.79148 34.3776L7.9651 34.4644L8.31235 34.6381L8.13872 34.5513L8.05191 34.4644L7.87829 34.2908L7.79148 34.1172V33.9436L7.70467 33.77V33.5095V33.2491V20.0538V19.967V19.7933V19.7065V19.5329V19.4461L7.79148 19.2725V19.1857V19.012L7.87829 18.8384V18.7516L7.9651 18.578L8.05191 18.4912V18.3175L8.13872 18.2307L8.22554 18.0571L8.31235 17.9703L8.39916 17.8835L7.9651 17.623Z" fill="#8D9397"/>
<path fill-rule="evenodd" clip-rule="evenodd" d="M7.18473 17.1885L7.09791 17.2753V17.4489L7.0111 17.5357L6.92429 17.7093L6.83748 17.7962V17.9698L6.75067 18.0566V18.2302L6.66386 18.317V18.4906L6.57705 18.5775V18.7511V18.8379L6.49023 19.0115V19.0983V19.2719V19.3588V32.6409V32.8145L6.57705 33.075V33.2486L6.66386 33.509L6.75067 33.5958L6.83748 33.7694L7.0111 33.8563L7.09791 33.9431L7.44516 34.2035L7.35835 34.1167L7.18473 33.9431L7.09791 33.8563L7.0111 33.6826L6.92429 33.509V33.2486L6.83748 33.075V32.8145V19.6192V19.4456V19.3588V19.1851L6.92429 19.0983V18.9247V18.8379L7.0111 18.6643V18.5775L7.09791 18.4038V18.317L7.18473 18.1434V18.0566L7.27154 17.883L7.35835 17.7962L7.44516 17.6225V17.5357L7.53197 17.3621L7.18473 17.1885Z" fill="#8D9397"/>
<path fill-rule="evenodd" clip-rule="evenodd" d="M6.40348 16.7549L6.31666 16.8417L6.22985 16.9285V17.1021L6.14304 17.1889L6.05623 17.3626L5.96942 17.4494V17.623L5.88261 17.7098V17.8834L5.7958 17.9702V18.1439V18.3175L5.70898 18.4043V18.5779V18.6647V18.8384V18.9252V32.1205V32.3809V32.6414L5.7958 32.815L5.88261 32.9886L5.96942 33.1622L6.05623 33.3358L6.22985 33.4227L6.31666 33.5095L6.66391 33.6831L6.49029 33.5963L6.40348 33.5095L6.31666 33.3358L6.22985 33.1622L6.14304 32.9886L6.05623 32.815V32.5545V32.3809V19.0988V19.012V18.8384V18.7515V18.5779L6.14304 18.4911V18.3175V18.2307L6.22985 18.0571V17.9702L6.31666 17.7966V17.7098L6.40348 17.5362L6.49029 17.4494V17.2758L6.5771 17.1889L6.66391 17.0153L6.75072 16.9285L6.40348 16.7549Z" fill="#8D9397"/>
<path fill-rule="evenodd" clip-rule="evenodd" d="M5.62223 16.2334L5.53541 16.407L5.4486 16.4938L5.36179 16.5806L5.27498 16.7543V16.8411L5.18817 17.0147V17.1015L5.10136 17.2751V17.4488L5.01455 17.5356V17.7092L4.92773 17.796V17.9696V18.0564V18.2301V18.3169V18.4905V31.6858V31.9463V32.1199L5.01455 32.3803L5.10136 32.5539L5.18817 32.7276L5.27498 32.8144L5.36179 32.988L5.53541 33.0748L5.88266 33.2484L5.70904 33.1616L5.62223 33.0748L5.53541 32.9012L5.4486 32.7276L5.36179 32.5539L5.27498 32.3803V32.1199V31.8594V18.6641V18.4905V18.4037V18.2301V18.1432V17.9696L5.36179 17.8828V17.7092L5.4486 17.6224V17.4488L5.53541 17.3619V17.1883L5.62223 17.1015V16.9279L5.70904 16.8411L5.79585 16.6675L5.88266 16.5806L5.96947 16.4938L5.62223 16.2334Z" fill="#8D9397"/>
<path fill-rule="evenodd" clip-rule="evenodd" d="M4.75308 15.7998L4.66627 15.8866V16.0602L4.57946 16.147L4.49265 16.3207L4.40584 16.4075V16.5811L4.31903 16.6679V16.8415L4.23222 16.9284V17.102L4.14541 17.1888V17.3624V17.4492V17.6228L4.05859 17.7097V17.8833V17.9701V31.2522V31.4258L4.14541 31.6863V31.8599L4.23222 32.0335L4.31903 32.2071L4.40584 32.3808L4.57946 32.4676L4.66627 32.5544L5.01352 32.8148L4.92671 32.728L4.75308 32.5544L4.66627 32.4676L4.57946 32.294L4.49265 32.1203V31.8599L4.40584 31.6863V31.4258V18.2305V18.0569V17.9701L4.49265 17.7965V17.7097V17.536V17.4492L4.57946 17.2756V17.102L4.66627 17.0152V16.8415L4.75308 16.7547V16.5811L4.8399 16.4943L4.92671 16.3207L5.01352 16.2339V16.0602L5.10033 15.9734L4.75308 15.7998Z" fill="#8D9397"/>
</g>
<defs>
<clipPath id="clip0_5360_23667">
<rect width="41.4958" height="52" fill="white" transform="translate(0.5)"/>
</clipPath>
</defs>
</svg>
