<svg width="42" height="52" viewBox="0 0 42 52" fill="none" xmlns="http://www.w3.org/2000/svg">
<g clip-path="url(#clip0_5360_23342)">
<path fill-rule="evenodd" clip-rule="evenodd" d="M35.1013 32.0154C43.0178 36.5872 43.0178 43.9988 35.1013 48.5706C27.187 53.1424 14.3516 53.1424 6.43778 48.5706C-1.47926 43.9988 -1.47926 36.5872 6.43778 32.0154C14.3516 27.4441 27.187 27.4441 35.1013 32.0154Z" fill="#F5F6F6"/>
<path fill-rule="evenodd" clip-rule="evenodd" d="M32.6045 33.4586C39.1414 37.232 39.1414 43.3526 32.6045 47.1276C26.0687 50.9037 15.4697 50.9037 8.93392 47.1276C2.39703 43.3521 2.39703 37.232 8.93392 33.4586C15.4697 29.6831 26.0687 29.6831 32.6045 33.4586Z" fill="#EAE9EB"/>
<path fill-rule="evenodd" clip-rule="evenodd" d="M30.108 34.8988C35.2636 37.8786 35.2636 42.7072 30.108 45.687C24.9496 48.6646 16.5882 48.6646 11.4293 45.687C6.27358 42.7077 6.27358 37.8786 11.4293 34.8988C16.5882 31.9217 24.9501 31.9217 30.108 34.8988Z" fill="#DDDEE1"/>
<path fill-rule="evenodd" clip-rule="evenodd" d="M27.611 36.3421C31.3914 38.5234 31.3914 42.0611 27.611 44.244C23.8349 46.428 17.7078 46.428 13.929 44.244C10.1487 42.0611 10.1487 38.5234 13.929 36.3421C17.7078 34.1581 23.8349 34.1581 27.611 36.3421Z" fill="#D2D2D6"/>
<path fill-rule="evenodd" clip-rule="evenodd" d="M17.3943 28.754L12.0889 25.6904L7.98633 28.0566L13.2912 31.1213L17.3943 28.754Z" fill="#C84637"/>
<path fill-rule="evenodd" clip-rule="evenodd" d="M29.4462 21.8029L24.1403 18.7383L24.1387 25.5417L29.4435 28.6058L29.4462 21.8029Z" fill="#C03B2B"/>
<path fill-rule="evenodd" clip-rule="evenodd" d="M18.4619 34.94L13.1543 31.8791L23.0694 26.1602L28.3748 29.221L18.4619 34.94Z" fill="#E64D3C"/>
<path fill-rule="evenodd" clip-rule="evenodd" d="M33.5523 10.9727L28.2474 7.90918L18.6523 13.4422L23.9572 16.5068L33.5523 10.9727Z" fill="#E64D3C"/>
<path fill-rule="evenodd" clip-rule="evenodd" d="M29.4462 21.8029L24.1403 18.7383L24.1387 25.5417L29.4435 28.6058L29.4462 21.8029Z" fill="#C03B2B"/>
<path fill-rule="evenodd" clip-rule="evenodd" d="M13.3738 37.7757L8.06836 34.7121L8.10998 34.7288L8.15702 34.7316L8.20837 34.724L8.26351 34.7002L13.5684 37.7638L13.5132 37.7859L13.463 37.7951L13.4149 37.7924L13.3738 37.7757Z" fill="#E64D3C"/>
<path fill-rule="evenodd" clip-rule="evenodd" d="M13.5685 37.7633L8.26367 34.6998L12.0873 32.4941L17.3922 35.5582L13.5685 37.7633Z" fill="#E64D3C"/>
<path fill-rule="evenodd" clip-rule="evenodd" d="M28.3785 22.42L23.0736 19.3564L13.1602 25.0749L18.4661 28.139L28.3785 22.42Z" fill="#E64D3C"/>
<path fill-rule="evenodd" clip-rule="evenodd" d="M28.3757 29.2207L23.0703 26.1599L23.073 19.3564L28.3779 22.42L28.3757 29.2207Z" fill="#E64D3C"/>
<path fill-rule="evenodd" clip-rule="evenodd" d="M23.958 16.507L18.6531 13.4424L18.6504 20.6718L23.9553 23.7359L23.958 16.507Z" fill="#E64D3C"/>
<path fill-rule="evenodd" clip-rule="evenodd" d="M23.958 16.507L18.6531 13.4424L18.6504 20.6718L23.9553 23.7359L23.958 16.507Z" fill="#E64D3C"/>
<path fill-rule="evenodd" clip-rule="evenodd" d="M33.5497 19.4359L28.2438 16.375L24.1406 18.7385L29.4466 21.8031L33.5497 19.4359Z" fill="#C03B2B"/>
<path fill-rule="evenodd" clip-rule="evenodd" d="M33.5523 10.9727L28.2474 7.90918L18.6523 13.4422L23.9572 16.5068L33.5523 10.9727Z" fill="#C84637"/>
<path fill-rule="evenodd" clip-rule="evenodd" d="M33.4727 3.08302L28.1678 0.0210833L28.1262 0.00432477L28.0786 0L28.0278 0.00919014L27.9727 0.0329764L33.2775 3.09762L33.3327 3.07275L33.3835 3.06356L33.4316 3.06843L33.4727 3.08302Z" fill="#E64D3C"/>
<path fill-rule="evenodd" clip-rule="evenodd" d="M22.89 17.1219L17.5851 14.0605L7.99219 19.5941L13.2976 22.656L22.89 17.1219Z" fill="#C03B2B"/>
<path fill-rule="evenodd" clip-rule="evenodd" d="M29.4541 5.30228L24.1492 2.23926L24.1465 9.04213L29.4514 12.103L29.4541 5.30228Z" fill="#E64D3C"/>
<path fill-rule="evenodd" clip-rule="evenodd" d="M22.888 24.3508L17.582 21.2899L17.5847 14.0605L22.8896 17.1219L22.888 24.3508Z" fill="#C03B2B"/>
<path fill-rule="evenodd" clip-rule="evenodd" d="M29.4541 5.30228L24.1492 2.23926L24.1465 9.04213L29.4514 12.103L29.4541 5.30228Z" fill="#C84637"/>
<path fill-rule="evenodd" clip-rule="evenodd" d="M18.4697 11.6368L13.1648 8.57324L13.1621 15.3767L18.467 18.4408L18.4697 11.6368Z" fill="#A9382A"/>
<path fill-rule="evenodd" clip-rule="evenodd" d="M18.467 18.4402L13.1621 15.3761L23.0756 9.6582L28.3832 12.7212L18.467 18.4402Z" fill="#C03B2B"/>
<path fill-rule="evenodd" clip-rule="evenodd" d="M13.2976 21.423L7.99219 18.3584L12.0953 15.9922L17.4002 19.0557L13.2976 21.423Z" fill="#E64D3C"/>
<path fill-rule="evenodd" clip-rule="evenodd" d="M8.21484 19.4665L8.21755 11.75L13.244 14.6519L13.2419 22.3673L8.21484 19.4665Z" fill="#9B9C9C"/>
<path fill-rule="evenodd" clip-rule="evenodd" d="M13.2369 30.8299L8.21094 27.9296L8.21364 24.3076L13.2369 27.2085V30.8299Z" fill="#9B9C9C"/>
<path fill-rule="evenodd" clip-rule="evenodd" d="M13.2893 37.588L7.98438 34.5244V34.5341L13.2893 37.5972V37.588Z" fill="#E64D3C"/>
<path fill-rule="evenodd" clip-rule="evenodd" d="M13.2893 37.5972L7.98438 34.5342L7.99194 34.5942L8.00924 34.645L8.03573 34.6834L8.06871 34.712L13.3741 37.7756L13.3406 37.7469L13.3141 37.7086L13.2974 37.6577L13.2893 37.5972Z" fill="#E64D3C"/>
<path fill-rule="evenodd" clip-rule="evenodd" d="M28.3838 12.721L23.0762 9.65801L23.0778 2.85352L28.3859 5.91816L28.3838 12.721Z" fill="#C03B2B"/>
<path fill-rule="evenodd" clip-rule="evenodd" d="M17.4006 19.0557L12.0957 15.9921L12.0973 9.19141L17.4033 12.2523L17.4006 19.0557Z" fill="#E64D3C"/>
<path fill-rule="evenodd" clip-rule="evenodd" d="M28.381 6.23326L23.0762 3.1724L24.1487 2.56152L29.4536 5.62509L28.381 6.23326Z" fill="#9B9C9C"/>
<path fill-rule="evenodd" clip-rule="evenodd" d="M33.5497 19.4359L28.2438 16.375L24.1406 18.7385L29.4466 21.8031L33.5497 19.4359Z" fill="#C03B2B"/>
<path fill-rule="evenodd" clip-rule="evenodd" d="M33.4727 3.08302L28.1678 0.0210833L28.1262 0.00432477L28.0786 0L28.0278 0.00919014L27.9727 0.0329764L33.2775 3.09762L33.3327 3.07275L33.3835 3.06356L33.4316 3.06843L33.4727 3.08302Z" fill="#E64D3C"/>
<path fill-rule="evenodd" clip-rule="evenodd" d="M33.277 3.09785L27.9721 0.0332031L24.1484 2.23938L29.4533 5.3024L33.277 3.09785Z" fill="#E64D3C"/>
<path fill-rule="evenodd" clip-rule="evenodd" d="M17.0168 12.4261L12.0293 9.5447L13.2024 8.87598L18.1905 11.7574L17.0168 12.4261Z" fill="#9B9C9C"/>
<path fill-rule="evenodd" clip-rule="evenodd" d="M13.2148 14.6072L33.0931 3.19629L33.1699 26.1722L13.2413 37.5734L13.2148 14.6072Z" fill="#E6EAEA"/>
<path fill-rule="evenodd" clip-rule="evenodd" d="M23.9578 16.5067L23.9551 23.7356L33.5491 18.2015L33.5528 10.9727L23.9578 16.5067Z" fill="#E64D3C"/>
<path fill-rule="evenodd" clip-rule="evenodd" d="M29.4461 21.8027L29.4434 28.6061L33.2551 26.4081L33.2621 26.4032C33.4167 26.3118 33.5411 26.0934 33.5465 25.9129V25.9037L33.5492 19.4365L29.4466 21.8033L29.4461 21.8027Z" fill="#C03B2B"/>
<path fill-rule="evenodd" clip-rule="evenodd" d="M17.3995 19.0554L17.4022 12.252L13.5904 14.4527L13.5829 14.4554C13.432 14.5489 13.3039 14.7679 13.2996 14.9457V14.9549L13.2969 21.4221L17.3995 19.0554Z" fill="#E64D3C"/>
<path fill-rule="evenodd" clip-rule="evenodd" d="M17.3916 35.5579L17.3944 28.7539L13.2918 31.1206L13.2891 37.5873V37.5964C13.2939 37.7705 13.4172 37.8424 13.5707 37.7624L17.3916 35.5573V35.5579Z" fill="#E64D3C"/>
<path fill-rule="evenodd" clip-rule="evenodd" d="M28.383 12.7208L28.3851 5.91797L18.4695 11.6359L18.4668 18.4398L28.383 12.7208Z" fill="#C03B2B"/>
<path fill-rule="evenodd" clip-rule="evenodd" d="M28.3758 29.2206L28.378 22.4199L18.4656 28.1389L18.4629 34.9396L28.3758 29.2206Z" fill="#E64D3C"/>
<path fill-rule="evenodd" clip-rule="evenodd" d="M18.4652 28.1396L18.1863 27.9785L18.1836 34.7792L18.4625 34.9403L18.4652 28.1396Z" fill="#C84637"/>
<path fill-rule="evenodd" clip-rule="evenodd" d="M29.4473 21.8027L29.1695 21.6416L29.1641 28.4445L29.443 28.6056L29.4473 21.8027Z" fill="#A9382A"/>
<path fill-rule="evenodd" clip-rule="evenodd" d="M23.9574 16.5068L23.6806 16.3457L23.6758 23.5746L23.9547 23.7357L23.9574 16.5068Z" fill="#C84637"/>
<path fill-rule="evenodd" clip-rule="evenodd" d="M18.4706 11.6366L18.1916 11.4766L18.1895 18.2794L18.4679 18.4405L18.4706 11.6366Z" fill="#A9382A"/>
<path fill-rule="evenodd" clip-rule="evenodd" d="M29.4535 5.30172L29.174 5.14062L29.1719 11.9413L29.4508 12.1024L29.4535 5.30172Z" fill="#C84637"/>
<path fill-rule="evenodd" clip-rule="evenodd" d="M33.5513 10.9726L33.2745 10.8115L23.6816 16.3456L23.9584 16.5067L33.5513 10.9726Z" fill="#C84637"/>
<path fill-rule="evenodd" clip-rule="evenodd" d="M22.8894 17.1226L22.611 16.9609L13.0176 22.495L13.2971 22.6567L22.8894 17.1226Z" fill="#C03B2B"/>
<path fill-rule="evenodd" clip-rule="evenodd" d="M17.4029 12.2523L12.0969 9.19141L8.28573 11.39L8.27816 11.3916L8.22302 11.4333L8.17058 11.483L8.12193 11.5408L8.08139 11.6063L8.04517 11.6733L8.01868 11.7452L8.00192 11.8149L7.99489 11.8825V11.8922L7.99219 18.3583L13.2976 21.4229L13.2998 14.9558V14.9461L13.3068 14.879L13.3236 14.8071L13.35 14.7368L13.3863 14.6698L13.4273 14.6044L13.4755 14.5466L13.5279 14.4968L13.583 14.4557L13.5911 14.4509L17.4029 12.2523Z" fill="#C84637"/>
<path fill-rule="evenodd" clip-rule="evenodd" d="M29.4539 5.30178L29.4512 12.1025L33.5538 9.73629L33.5565 3.26968V3.2594C33.5516 3.08641 33.4294 3.01397 33.2775 3.09668L29.4539 5.30178Z" fill="#E64D3C"/>
<path fill-rule="evenodd" clip-rule="evenodd" d="M33.277 3.09785L27.9721 0.0332031L24.1484 2.23938L29.4533 5.3024L33.277 3.09785Z" fill="#C84637"/>
<path fill-rule="evenodd" clip-rule="evenodd" d="M28.3846 5.91816L23.0764 2.85352L13.1641 8.57249L18.4689 11.636L28.3846 5.91816Z" fill="#A9382A"/>
<path fill-rule="evenodd" clip-rule="evenodd" d="M13.2966 22.6567L7.99119 19.5947L7.98633 26.8236L13.2939 29.8882L13.2966 22.6567Z" fill="#A9382A"/>
<path fill-rule="evenodd" clip-rule="evenodd" d="M13.292 31.1213L7.98708 28.0566L7.98438 34.5238L13.2893 37.5874L13.292 31.1213Z" fill="#C84637"/>
<path fill-rule="evenodd" clip-rule="evenodd" d="M23.9578 16.5067L23.9551 23.7356L33.5491 18.2015L33.5528 10.9727L23.9578 16.5067Z" fill="#E64D3C"/>
<path fill-rule="evenodd" clip-rule="evenodd" d="M29.4519 5.30178L29.4492 12.1025L33.5518 9.73629L33.5545 3.26968V3.2594C33.5496 3.08641 33.4275 3.01397 33.2756 3.09668L29.4519 5.30178Z" fill="#E64D3C"/>
<path fill-rule="evenodd" clip-rule="evenodd" d="M29.4461 21.8027L29.4434 28.6061L33.2551 26.4081L33.2621 26.4032C33.4167 26.3118 33.5411 26.0934 33.5465 25.9129V25.9037L33.5492 19.4365L29.4466 21.8033L29.4461 21.8027Z" fill="#C03B2B"/>
<path fill-rule="evenodd" clip-rule="evenodd" d="M22.8864 24.3509L22.888 17.1221L13.2957 22.6562L13.293 29.885L22.8864 24.3509Z" fill="#C03B2B"/>
<path fill-rule="evenodd" clip-rule="evenodd" d="M17.3995 19.0554L17.4022 12.252L13.5904 14.4527L13.5829 14.4554C13.432 14.5489 13.3039 14.7679 13.2996 14.9457V14.9549L13.2969 21.4221L17.3995 19.0554Z" fill="#E64D3C"/>
<path fill-rule="evenodd" clip-rule="evenodd" d="M17.3916 35.5579L17.3944 28.7539L13.2918 31.1206L13.2891 37.5873V37.5964C13.2939 37.7705 13.4172 37.8424 13.5707 37.7624L17.3916 35.5573V35.5579Z" fill="#E64D3C"/>
<path fill-rule="evenodd" clip-rule="evenodd" d="M28.383 12.7208L28.3851 5.91797L18.4695 11.6359L18.4668 18.4398L28.383 12.7208Z" fill="#C03B2B"/>
<path fill-rule="evenodd" clip-rule="evenodd" d="M28.3758 29.2206L28.378 22.4199L18.4656 28.1389L18.4629 34.9396L28.3758 29.2206Z" fill="#E64D3C"/>
<path fill-rule="evenodd" clip-rule="evenodd" d="M17.395 28.7543L17.1155 28.5938L13.0156 30.9599L13.2919 31.1216L17.395 28.7543Z" fill="#C84637"/>
<path fill-rule="evenodd" clip-rule="evenodd" d="M28.3769 22.4199L28.0979 22.2588L18.1855 27.9778L18.4645 28.1389L28.3769 22.4199Z" fill="#C84637"/>
<path fill-rule="evenodd" clip-rule="evenodd" d="M33.5493 19.4359L33.1493 19.2051V19.3473L29.1699 21.6421L29.4478 21.8032L33.5493 19.4359Z" fill="#A9382A"/>
</g>
<defs>
<clipPath id="clip0_5360_23342">
<rect width="40.5388" height="52" fill="white" transform="translate(0.5)"/>
</clipPath>
</defs>
</svg>
