<svg width="90" height="26" viewBox="0 0 90 26" fill="none" xmlns="http://www.w3.org/2000/svg">
<path d="M11.6895 17H13.1367L16.1484 8.54492H14.7246L12.4629 15.418H12.3633L10.1016 8.54492H8.67773L11.6895 17ZM18.1406 9.5C18.5742 9.5 18.9375 9.14258 18.9375 8.70898C18.9375 8.26953 18.5742 7.91211 18.1406 7.91211C17.7012 7.91211 17.3438 8.26953 17.3438 8.70898C17.3438 9.14258 17.7012 9.5 18.1406 9.5ZM17.502 17H18.7676V10.6367H17.502V17ZM23.291 17.123C24.9199 17.123 25.7988 16.1855 26.0098 15.3477L26.0215 15.2949L24.7969 15.3008L24.7734 15.3477C24.6211 15.6758 24.1348 16.0801 23.3203 16.0801C22.2715 16.0801 21.6035 15.3711 21.5801 14.1523H26.0918V13.707C26.0918 11.7969 25.002 10.5137 23.2266 10.5137C21.4512 10.5137 20.3027 11.8438 20.3027 13.8301V13.8359C20.3027 15.8516 21.4277 17.123 23.291 17.123ZM23.2324 11.5566C24.0938 11.5566 24.7324 12.1074 24.832 13.2441H21.5977C21.709 12.1484 22.3652 11.5566 23.2324 11.5566ZM28.7812 17H30.0762L31.3887 12.2539H31.4883L32.8066 17H34.1133L35.8652 10.6367H34.6055L33.4688 15.5469H33.3691L32.0566 10.6367H30.8496L29.5371 15.5469H29.4434L28.3008 10.6367H27.0234L28.7812 17ZM40.4473 17H41.7188V13.0918C41.7188 12.2598 42.2871 11.6035 43.0547 11.6035C43.8047 11.6035 44.2793 12.0605 44.2793 12.7871V17H45.5449V12.9746C45.5449 12.207 46.0781 11.6035 46.8867 11.6035C47.7188 11.6035 48.1172 12.0371 48.1172 12.916V17H49.3828V12.6113C49.3828 11.2871 48.6328 10.5137 47.3496 10.5137C46.4648 10.5137 45.7324 10.9648 45.4102 11.6504H45.3105C45.0293 10.9648 44.4141 10.5137 43.5469 10.5137C42.7148 10.5137 42.0938 10.918 41.8125 11.6152H41.7188V10.6367H40.4473V17ZM53.8535 17.123C55.7168 17.123 56.8594 15.875 56.8594 13.8242V13.8125C56.8594 11.7617 55.7109 10.5137 53.8535 10.5137C51.9902 10.5137 50.8418 11.7676 50.8418 13.8125V13.8242C50.8418 15.875 51.9844 17.123 53.8535 17.123ZM53.8535 16.0625C52.7578 16.0625 52.1426 15.2363 52.1426 13.8242V13.8125C52.1426 12.4004 52.7578 11.5742 53.8535 11.5742C54.9434 11.5742 55.5645 12.4004 55.5645 13.8125V13.8242C55.5645 15.2305 54.9434 16.0625 53.8535 16.0625ZM58.377 17H59.6484V13.1973C59.6484 12.2773 60.3105 11.6797 61.2832 11.6797C61.5234 11.6797 61.7402 11.709 61.9688 11.7559V10.584C61.8398 10.5547 61.6172 10.5254 61.4121 10.5254C60.5625 10.5254 59.9707 10.9238 59.7422 11.5977H59.6484V10.6367H58.377V17ZM65.6895 17.123C67.3184 17.123 68.1973 16.1855 68.4082 15.3477L68.4199 15.2949L67.1953 15.3008L67.1719 15.3477C67.0195 15.6758 66.5332 16.0801 65.7188 16.0801C64.6699 16.0801 64.002 15.3711 63.9785 14.1523H68.4902V13.707C68.4902 11.7969 67.4004 10.5137 65.625 10.5137C63.8496 10.5137 62.7012 11.8438 62.7012 13.8301V13.8359C62.7012 15.8516 63.8262 17.123 65.6895 17.123ZM65.6309 11.5566C66.4922 11.5566 67.1309 12.1074 67.2305 13.2441H63.9961C64.1074 12.1484 64.7637 11.5566 65.6309 11.5566Z" fill="#3578DB"/>
<path d="M81.9131 13C81.9087 12.7671 81.8296 12.5825 81.6406 12.3979L78.3315 9.16357C78.1909 9.02734 78.0283 8.95703 77.8262 8.95703C77.4219 8.95703 77.0879 9.28662 77.0879 9.68652C77.0879 9.88867 77.1714 10.0732 77.3252 10.2271L80.1904 12.9956L77.3252 15.7729C77.1714 15.9224 77.0879 16.1069 77.0879 16.3135C77.0879 16.7134 77.4219 17.043 77.8262 17.043C78.0239 17.043 78.1909 16.9771 78.3315 16.8364L81.6406 13.6021C81.8296 13.4175 81.9131 13.2285 81.9131 13Z" fill="#3578DB"/>
<rect x="1" y="1" width="88" height="24" rx="4" stroke="#3578DB"/>
</svg>
