<svg width="48" height="49" viewBox="0 0 48 49" fill="none" xmlns="http://www.w3.org/2000/svg">
<g clip-path="url(#clip0_2740_5684)">
<rect y="0.118164" width="48" height="48.6316" rx="24" fill="white"/>
<g clip-path="url(#clip1_2740_5684)">
<path d="M10.9092 32.0008V18.4188C11.4322 16.9962 11.9514 16.6334 13.4625 16.6334C14.6785 16.6334 15.8951 16.6398 17.1129 16.6251C17.2718 16.6164 17.4228 16.5517 17.5396 16.4421C18.2143 15.7738 18.8852 15.103 19.5316 14.4048C19.962 13.9412 20.4196 13.5421 21.042 13.3801H27.0211C27.646 13.5344 28.1105 13.9291 28.5441 14.3889C29.1958 15.0797 29.8597 15.7573 30.5361 16.4217C30.6693 16.5436 30.8402 16.6148 31.0195 16.6232C32.3285 16.6391 33.6376 16.6277 34.9467 16.634C35.9713 16.6385 36.7505 17.2468 37.0287 18.2403C37.0457 18.3002 37.0702 18.3582 37.0916 18.4176V32.0008C36.9702 32.2795 36.8758 32.5747 36.7222 32.8298C36.4075 33.3584 35.8933 33.6154 35.3294 33.7862H12.6714C12.3876 33.6587 12.0861 33.5586 11.8237 33.3947C11.3151 33.0772 11.0722 32.5613 10.9092 32.0008ZM24.0133 30.5616C24.7773 30.5593 25.5334 30.4044 26.2383 30.1058C26.9432 29.8072 27.5831 29.3707 28.1214 28.8214C28.6597 28.2721 29.0858 27.6206 29.3754 26.9043C29.665 26.188 29.8124 25.4209 29.8092 24.6468C29.7985 21.3852 27.1916 18.7459 23.9875 18.7536C20.7834 18.7612 18.1816 21.4196 18.1904 24.6729C18.1992 27.9262 20.8085 30.5718 24.0133 30.5616ZM35.4546 19.1375C35.4531 18.9012 35.3598 18.675 35.1949 18.5079C35.03 18.3408 34.8067 18.2463 34.5735 18.2447C34.3404 18.251 34.1188 18.349 33.9556 18.5178C33.7925 18.6867 33.7005 18.9133 33.6993 19.1496C33.7016 19.3861 33.7965 19.6121 33.9632 19.7778C34.1298 19.9435 34.3545 20.0354 34.588 20.0334C34.7031 20.0328 34.817 20.0091 34.923 19.9636C35.0291 19.9182 35.1252 19.8519 35.2058 19.7686C35.2864 19.6853 35.3499 19.5866 35.3926 19.4783C35.4353 19.3699 35.4564 19.2541 35.4546 19.1375Z" fill="black"/>
<path d="M23.9919 20.2042C25.1583 20.2042 26.2771 20.6728 27.1029 21.5073C27.9288 22.3417 28.3944 23.4739 28.3975 24.6556C28.4013 27.1125 26.4257 29.1256 24.0077 29.1288C22.8409 29.1263 21.7225 28.6559 20.897 27.8204C20.0714 26.985 19.6059 25.8525 19.6021 24.6703C19.6008 24.085 19.7134 23.5052 19.9333 22.964C20.1533 22.4228 20.4763 21.9307 20.8839 21.516C21.2916 21.1013 21.7759 20.772 22.3091 20.5469C22.8424 20.3218 23.4142 20.2054 23.9919 20.2042Z" fill="black"/>
</g>
</g>
<defs>
<clipPath id="clip0_2740_5684">
<rect y="0.118164" width="48" height="48.6316" rx="10" fill="white"/>
</clipPath>
<clipPath id="clip1_2740_5684">
<rect width="26.1818" height="20.4049" fill="white" transform="translate(10.9092 13.3813)"/>
</clipPath>
</defs>
</svg>
