<svg width="18" height="17" viewBox="0 0 18 17" fill="none" xmlns="http://www.w3.org/2000/svg">
<path d="M16.2505 4.00195H13.873L12.5005 2.50195H8.00049V4.00195H11.8405L13.213 5.50195H16.2505V14.502H4.25049V7.75195H2.75049V14.502C2.75049 15.327 3.42549 16.002 4.25049 16.002H16.2505C17.0755 16.002 17.7505 15.327 17.7505 14.502V5.50195C17.7505 4.67695 17.0755 4.00195 16.2505 4.00195ZM6.50049 10.002C6.50049 12.072 8.18049 13.752 10.2505 13.752C12.3205 13.752 14.0005 12.072 14.0005 10.002C14.0005 7.93195 12.3205 6.25195 10.2505 6.25195C8.18049 6.25195 6.50049 7.93195 6.50049 10.002ZM10.2505 7.75195C11.488 7.75195 12.5005 8.76445 12.5005 10.002C12.5005 11.2395 11.488 12.252 10.2505 12.252C9.01299 12.252 8.00049 11.2395 8.00049 10.002C8.00049 8.76445 9.01299 7.75195 10.2505 7.75195ZM4.25049 4.00195H6.50049V2.50195H4.25049V0.251953H2.75049V2.50195H0.500488V4.00195H2.75049V6.25195H4.25049V4.00195Z" fill="#2AACE3"/>
</svg>
