<svg width="36" height="36" viewBox="0 0 36 36" fill="none" xmlns="http://www.w3.org/2000/svg">
<circle cx="17.9999" cy="17.9999" r="17.9999" fill="#D9D9D9"/>
<g clip-path="url(#clip0_12691_18504)">
<path d="M14.7919 10.0719L13.0398 11.9868H10.0047C8.95154 11.9868 8.08984 12.8485 8.08984 13.9017V25.3909C8.08984 26.4441 8.95154 27.3058 10.0047 27.3058H25.3238C26.377 27.3058 27.2387 26.4441 27.2387 25.3909V13.9017C27.2387 12.8485 26.377 11.9868 25.3238 11.9868H22.2887L20.5366 10.0719H14.7919ZM17.6642 24.4335C15.0217 24.4335 12.877 22.2888 12.877 19.6463C12.877 17.0038 15.0217 14.8591 17.6642 14.8591C20.3068 14.8591 22.4515 17.0038 22.4515 19.6463C22.4515 22.2888 20.3068 24.4335 17.6642 24.4335Z" fill="black"/>
<path d="M17.6637 23.4759L18.8605 20.843L21.4935 19.6462L18.8605 18.4494L17.6637 15.8164L16.4669 18.4494L13.834 19.6462L16.4669 20.843L17.6637 23.4759Z" fill="black"/>
</g>
<defs>
<clipPath id="clip0_12691_18504">
<rect width="22.9786" height="22.9786" fill="white" transform="translate(6.17578 7.19995)"/>
</clipPath>
</defs>
</svg>
