<svg width="24" height="16" viewBox="0 0 24 16" fill="none" xmlns="http://www.w3.org/2000/svg">
<g clip-path="url(#clip0_11827_708)">
<path d="M24.0008 1.34251V5.4203C23.8311 5.78311 23.5452 5.91872 23.1466 5.94455C21.9789 6.0197 21.1036 7.09286 21.2644 8.27757C21.3819 9.1435 22.0734 9.88203 22.9382 10.0282C23.0075 10.04 23.0773 10.0605 23.146 10.0582C23.5476 10.0417 23.8311 10.2137 24.0008 10.5771V14.6549C23.834 14.9907 23.5793 15.1662 23.1889 15.1657C18.2205 15.1615 13.2521 15.1627 8.28433 15.1621C8.2174 15.1621 8.15048 15.1522 8.06946 15.1457V14.8698C8.06946 13.87 8.06946 12.8702 8.06946 11.8698C8.06946 11.7841 8.07298 11.6973 8.06477 11.6121C8.02485 11.2024 7.61566 10.9229 7.21704 11.0303C6.89121 11.1184 6.70276 11.365 6.70159 11.7213C6.69924 12.7757 6.70042 13.8307 6.70042 14.885C6.70042 14.969 6.70042 15.0524 6.70042 15.1498C6.59944 15.1545 6.52371 15.1616 6.44739 15.1616C4.58051 15.1621 2.71362 15.1621 0.846156 15.1616C0.768075 15.1616 0.688821 15.1627 0.612502 15.1498C0.237364 15.0888 0.00371039 14.8205 0.00253625 14.4377C-0.000399098 13.2189 -0.00274738 12.0002 0.00723281 10.782C0.00840695 10.6429 0.0618303 10.4891 0.13404 10.3681C0.263782 10.1503 0.487456 10.0728 0.734025 10.0646C1.03402 10.0546 1.32403 9.99475 1.59056 9.85679C2.25277 9.51453 2.6514 8.98088 2.73769 8.2306C2.8193 7.51966 2.58095 6.92848 2.05493 6.4512C1.68156 6.11187 1.23421 5.9563 0.734025 5.93046C0.263782 5.90698 0.00312332 5.63341 0.00253625 5.16786C0.000775042 3.98022 0.000775042 2.79316 0.00371039 1.60552C0.00371039 1.51335 0.0107552 1.41707 0.0377604 1.3296C0.138736 1.00201 0.395873 0.835873 0.799777 0.835873C2.69777 0.834112 4.59577 0.834699 6.49435 0.835286C6.55482 0.835286 6.61529 0.842331 6.70042 0.848201C6.70042 0.945068 6.70042 1.02843 6.70042 1.11238C6.70042 2.12038 6.70042 3.12779 6.70042 4.13579C6.70042 4.20624 6.69807 4.27669 6.70218 4.34655C6.72859 4.79272 7.15539 5.08861 7.58337 4.95945C7.89099 4.86669 8.06711 4.62189 8.06829 4.26906C8.07064 3.21468 8.06946 2.15972 8.06946 1.10534C8.06946 1.02256 8.06946 0.939784 8.06946 0.835286C8.19392 0.835286 8.2855 0.835286 8.37767 0.835286C13.2832 0.835286 18.1894 0.835286 23.0949 0.835286C23.1654 0.835286 23.2358 0.83235 23.3057 0.837634C23.5922 0.858769 23.8094 0.987924 23.9409 1.24976C23.9573 1.28263 23.9802 1.31199 24.0008 1.3431V1.34251ZM8.06887 8.01221C8.06887 7.70811 8.0724 7.40401 8.06829 7.09991C8.06242 6.68661 7.77886 6.3966 7.38729 6.39542C6.99395 6.39484 6.70511 6.68426 6.70218 7.0958C6.69748 7.69637 6.69807 8.29636 6.70218 8.89693C6.70511 9.30964 6.9916 9.60024 7.38376 9.60141C7.7771 9.602 8.06242 9.31316 8.06887 8.90104C8.07357 8.60457 8.07005 8.30868 8.07005 8.01221H8.06887Z" fill="#2AACE3"/>
</g>
<defs>
<clipPath id="clip0_11827_708">
<rect width="24" height="14.3315" fill="white" transform="translate(0 0.834229)"/>
</clipPath>
</defs>
</svg>
