<svg width="18" height="18" viewBox="0 0 18 18" fill="none" xmlns="http://www.w3.org/2000/svg">
<rect width="18" height="18" rx="3.85714" transform="matrix(-1 0 0 1 18 0)" fill="#2AACE3"/>
<g clip-path="url(#clip0_11516_28252)">
<path d="M4.60973 8.80119C3.25234 8.52141 2.30744 7.5834 2.05708 6.28367C1.72029 4.53545 2.96601 2.81938 4.71906 2.61814C4.84508 2.60363 4.97227 2.59252 5.09881 2.59239C7.70153 2.59096 10.3042 2.58795 12.907 2.59252C14.3776 2.59514 15.638 3.62998 15.9302 5.05934C16.2857 6.79893 15.1901 8.45254 13.4616 8.78551C13.4468 8.78838 13.432 8.79244 13.3963 8.8008V8.97617C13.3963 10.4907 13.3966 12.0053 13.3963 13.52C13.396 14.6319 12.627 15.4095 11.5271 15.4097C9.83936 15.4101 8.15166 15.4104 6.46395 15.4097C5.38565 15.4093 4.61038 14.6254 4.60999 13.5357C4.60934 12.0211 4.60986 10.5065 4.60986 8.99185V8.80132L4.60973 8.80119ZM5.58607 6.21206C5.58607 6.27674 5.58607 6.32261 5.58607 6.36861C5.58607 8.76068 5.58568 11.1528 5.58633 13.5448C5.58646 14.0781 5.9261 14.4231 6.45218 14.4234C8.14467 14.4243 9.83703 14.424 11.5295 14.4236C12.0863 14.4235 12.4198 14.0861 12.42 13.523C12.4203 11.1413 12.4201 8.75937 12.4201 6.37763C12.4201 6.32366 12.4201 6.26969 12.4201 6.21206H5.58594H5.58607ZM4.60973 7.79523C4.60973 7.10459 4.60921 6.44257 4.60986 5.78043C4.61025 5.41387 4.80135 5.21864 5.16531 5.21851C7.72287 5.21772 10.2804 5.21772 12.8379 5.21851C13.2027 5.21851 13.3955 5.41335 13.396 5.77781C13.3968 6.38887 13.3963 7.00005 13.3963 7.6111V7.78726C13.4572 7.77197 13.5016 7.76334 13.5446 7.74975C14.5218 7.44096 15.1508 6.44244 15.0061 5.42982C14.8554 4.37511 13.9859 3.58228 12.9472 3.5798C10.3185 3.57353 7.68975 3.57052 5.06103 3.58045C3.55058 3.5862 2.54668 5.19107 3.16941 6.58514C3.44992 7.21319 3.9324 7.60496 4.60986 7.79523H4.60973Z" fill="#F8F8F8"/>
<path d="M8.51376 11.0565C8.51376 11.0013 8.51376 10.9462 8.51376 10.891C8.51376 10.0592 8.51324 9.22748 8.51402 8.39571C8.5144 8.06862 8.71366 7.85117 9.0071 7.85378C9.29149 7.85627 9.4892 8.07463 9.48958 8.39192C9.49062 9.22369 9.48997 10.0555 9.48997 10.8872V11.0968C9.6508 10.9347 9.78083 10.7869 9.92898 10.6606C10.0184 10.5844 10.13 10.5128 10.2418 10.4904C10.4435 10.4498 10.6094 10.5411 10.7198 10.7189C10.8247 10.888 10.8274 11.12 10.689 11.2657C10.3549 11.6169 10.0252 11.9776 9.6552 12.2877C9.24983 12.6273 8.64625 12.5824 8.25343 12.2183C7.93916 11.9269 7.64079 11.6173 7.34489 11.3066C7.15831 11.1106 7.17125 10.8114 7.35498 10.6252C7.54414 10.4335 7.83733 10.4279 8.04021 10.6231C8.19081 10.7679 8.32951 10.9253 8.47365 11.077C8.4871 11.0703 8.50043 11.0635 8.51389 11.0568L8.51376 11.0565Z" fill="#F8F8F8"/>
</g>
<defs>
<clipPath id="clip0_11516_28252">
<rect width="13.9951" height="12.82" fill="white" transform="translate(2.00195 2.59009)"/>
</clipPath>
</defs>
</svg>
