<svg width="24" height="25" viewBox="0 0 24 25" fill="none" xmlns="http://www.w3.org/2000/svg">
<path d="M8.5109 17.1403C8.5109 16.451 8.57584 15.7866 8.70572 15.1471C8.84559 14.4977 9.07039 13.8983 9.38011 13.3488C9.64986 12.8193 9.94959 12.3996 10.2793 12.0899C10.609 11.7702 10.9787 11.4555 11.3883 11.1458C11.7979 10.8261 12.2525 10.4015 12.752 9.87193C13.1617 9.42234 13.4314 8.97775 13.5613 8.53815C13.6912 8.08856 13.7561 7.60899 13.7561 7.09945C13.7561 6.76975 13.7212 6.46004 13.6512 6.1703C13.5813 5.88056 13.4564 5.63079 13.2766 5.42098C12.9968 5.05132 12.6371 4.79155 12.1975 4.64169C11.7579 4.48183 11.2884 4.40191 10.7888 4.40191C10.3792 4.40191 9.98456 4.45686 9.6049 4.56676C9.23524 4.66667 8.92053 4.82652 8.66076 5.04632C8.36103 5.2861 8.14123 5.58084 8.00136 5.93052C7.86149 6.2802 7.79655 6.66485 7.80654 7.08447H4C4.09991 6.08538 4.36966 5.16122 4.80926 4.31199C5.25886 3.45277 5.84832 2.76839 6.57766 2.25886C7.14714 1.83924 7.78656 1.52452 8.49591 1.31471C9.21526 1.1049 9.9346 1 10.654 1C11.753 1 12.787 1.16985 13.7561 1.50954C14.7352 1.84923 15.5495 2.40872 16.1989 3.18801C16.6485 3.69755 16.9882 4.28701 17.218 4.9564C17.4578 5.62579 17.5777 6.30518 17.5777 6.99455C17.5777 8.02361 17.3529 8.96276 16.9033 9.81199C16.4637 10.6612 15.9042 11.4455 15.2248 12.1649C14.9051 12.5045 14.6004 12.8043 14.3106 13.064C14.0209 13.3238 13.7511 13.5786 13.5014 13.8283C13.2616 14.0681 13.0618 14.3229 12.9019 14.5926C12.6222 15.0622 12.4573 15.4619 12.4074 15.7916C12.3574 16.1113 12.3324 16.5609 12.3324 17.1403H8.5109ZM8.54087 23V19.0286H12.3324V23H8.54087Z" fill="#2AACE3"/>
</svg>
