<svg width="34" height="34" viewBox="0 0 34 34" fill="none" xmlns="http://www.w3.org/2000/svg">
<rect width="34" height="34" rx="8.54932" fill="#2AACE3"/>
<mask id="mask0_12052_24522" style="mask-type:alpha" maskUnits="userSpaceOnUse" x="2" y="2" width="30" height="30">
<rect x="2.07031" y="2.06982" width="29.8609" height="29.8609" fill="#D9D9D9"/>
</mask>
<g mask="url(#mask0_12052_24522)">
<path d="M19.2 6.1662H16.3833C12.9167 6.1662 10.75 8.33287 10.75 11.7995V16.187H17.5208C17.965 16.187 18.3333 16.5554 18.3333 16.9995C18.3333 17.4437 17.965 17.812 17.5208 17.812H10.75V22.1995C10.75 25.6662 12.9167 27.8329 16.3833 27.8329H19.1892C22.6558 27.8329 24.8225 25.6662 24.8225 22.1995V11.7995C24.8333 8.33287 22.6667 6.1662 19.2 6.1662Z" fill="#F8F8F8"/>
<path d="M5.94055 16.187L8.18305 13.9445C8.34555 13.782 8.42138 13.5762 8.42138 13.3703C8.42138 13.1645 8.34555 12.9478 8.18305 12.7962C7.86888 12.482 7.34888 12.482 7.03471 12.7962L3.40555 16.4253C3.09138 16.7395 3.09138 17.2595 3.40555 17.5737L7.03471 21.2028C7.34888 21.517 7.86888 21.517 8.18305 21.2028C8.49721 20.8887 8.49721 20.3687 8.18305 20.0545L5.94055 17.812H10.7505V16.187H5.94055Z" fill="#F8F8F8"/>
</g>
</svg>
