<svg width="263" height="88" viewBox="0 0 263 88" fill="none" xmlns="http://www.w3.org/2000/svg">
<path d="M27.5502 17.002L244.55 17.0019" stroke="#2AACE3" stroke-width="2"/>
<rect x="228.501" y="0.00195312" width="32" height="32" rx="16" fill="white"/>
<circle cx="244.501" cy="16.002" r="6" fill="#2AACE3"/>
<g clip-path="url(#clip0_4575_60689)">
<path d="M250.745 37.4653H261.672V63.2214H227.331V37.4653H239.819" stroke="#3578DB" stroke-linejoin="round"/>
<path d="M236.729 45.002H231.001V54.002H236.729V45.002Z" stroke="#FF9A2E" stroke-linejoin="round"/>
<path d="M233.865 54.0024H236.729V52.5963C236.593 52.4318 235.193 51.5479 233.865 51.5479C232.537 51.5479 231.137 52.4318 231.001 52.5963V54.0024H233.865Z" stroke="#FF9A2E" stroke-linejoin="round"/>
<path d="M233.865 46.6387C233.19 46.6387 232.638 47.2718 232.638 48.0493V48.5008C232.638 49.2783 233.19 49.9114 233.865 49.9114C234.54 49.9114 235.092 49.2783 235.092 48.5008V48.0493C235.092 47.2718 234.54 46.6387 233.865 46.6387Z" stroke="#FF9A2E" stroke-linejoin="round"/>
<path d="M241.167 45.3354H257.167" stroke="#FF9A2E" stroke-linejoin="round"/>
<path d="M241.167 51.668H257.167" stroke="#FF9A2E" stroke-linejoin="round"/>
<path d="M230.501 58.002L257.168 58.002" stroke="#FF9A2E" stroke-linejoin="round"/>
<path d="M239.038 40.5874H251.526" stroke="#3578DB" stroke-linejoin="round"/>
<path d="M237.477 40.5874H235.916" stroke="#3578DB" stroke-linejoin="round"/>
<path d="M253.087 40.5874H254.648" stroke="#3578DB" stroke-linejoin="round"/>
<path d="M248.404 32.7822H242.16V40.5871H248.404V32.7822Z" stroke="#3578DB" stroke-linejoin="round"/>
</g>
<path d="M229.239 83.002V72.922H233.236C233.918 72.922 234.475 73.0596 234.909 73.335C235.348 73.6056 235.672 73.9533 235.882 74.378C236.097 74.8026 236.204 75.2413 236.204 75.694C236.204 76.2493 236.071 76.7206 235.805 77.108C235.544 77.4953 235.187 77.7566 234.734 77.892V77.542C235.369 77.6866 235.85 77.9876 236.176 78.445C236.508 78.9023 236.673 79.4226 236.673 80.006C236.673 80.6033 236.559 81.126 236.33 81.574C236.102 82.022 235.761 82.372 235.308 82.624C234.86 82.876 234.305 83.002 233.642 83.002H229.239ZM230.947 81.413H233.432C233.726 81.413 233.99 81.3546 234.223 81.238C234.457 81.1166 234.639 80.9486 234.769 80.734C234.905 80.5146 234.972 80.2556 234.972 79.957C234.972 79.6863 234.914 79.4436 234.797 79.229C234.681 79.0143 234.51 78.844 234.286 78.718C234.062 78.5873 233.794 78.522 233.481 78.522H230.947V81.413ZM230.947 76.947H233.215C233.458 76.947 233.675 76.9003 233.866 76.807C234.058 76.7136 234.209 76.576 234.321 76.394C234.433 76.212 234.489 75.988 234.489 75.722C234.489 75.372 234.377 75.0803 234.153 74.847C233.929 74.6136 233.617 74.497 233.215 74.497H230.947V76.947ZM240.185 83.212C239.639 83.212 239.177 83.1093 238.799 82.904C238.421 82.694 238.134 82.4163 237.938 82.071C237.747 81.7256 237.651 81.3453 237.651 80.93C237.651 80.566 237.712 80.2393 237.833 79.95C237.955 79.656 238.141 79.404 238.393 79.194C238.645 78.9793 238.972 78.8043 239.373 78.669C239.677 78.571 240.031 78.4823 240.437 78.403C240.848 78.3236 241.291 78.2513 241.767 78.186C242.248 78.116 242.75 78.0413 243.272 77.962L242.67 78.305C242.675 77.7823 242.558 77.3973 242.32 77.15C242.082 76.9026 241.681 76.779 241.116 76.779C240.776 76.779 240.447 76.8583 240.129 77.017C239.812 77.1756 239.59 77.4486 239.464 77.836L237.924 77.353C238.111 76.7136 238.466 76.2003 238.988 75.813C239.516 75.4256 240.225 75.232 241.116 75.232C241.788 75.232 242.379 75.3416 242.887 75.561C243.401 75.7803 243.781 76.1396 244.028 76.639C244.164 76.905 244.245 77.178 244.273 77.458C244.301 77.7333 244.315 78.0343 244.315 78.361V83.002H242.838V81.364L243.083 81.63C242.743 82.176 242.344 82.5773 241.886 82.834C241.434 83.086 240.867 83.212 240.185 83.212ZM240.521 81.868C240.904 81.868 241.231 81.8003 241.501 81.665C241.772 81.5296 241.987 81.364 242.145 81.168C242.309 80.972 242.418 80.7876 242.474 80.615C242.563 80.4003 242.612 80.1553 242.621 79.88C242.635 79.6 242.642 79.3736 242.642 79.201L243.16 79.355C242.652 79.4343 242.215 79.5043 241.851 79.565C241.487 79.6256 241.175 79.684 240.913 79.74C240.652 79.7913 240.421 79.8496 240.22 79.915C240.024 79.985 239.859 80.0666 239.723 80.16C239.588 80.2533 239.483 80.3606 239.408 80.482C239.338 80.6033 239.303 80.7456 239.303 80.909C239.303 81.0956 239.35 81.2613 239.443 81.406C239.537 81.546 239.672 81.658 239.849 81.742C240.031 81.826 240.255 81.868 240.521 81.868ZM249.421 83.212C248.641 83.212 247.976 83.0393 247.426 82.694C246.875 82.344 246.453 81.868 246.159 81.266C245.869 80.664 245.722 79.9826 245.718 79.222C245.722 78.4473 245.874 77.7613 246.173 77.164C246.476 76.562 246.905 76.0906 247.461 75.75C248.016 75.4046 248.676 75.232 249.442 75.232C250.3 75.232 251.026 75.449 251.619 75.883C252.216 76.3123 252.606 76.9003 252.788 77.647L251.108 78.102C250.977 77.696 250.76 77.381 250.457 77.157C250.153 76.9283 249.808 76.814 249.421 76.814C248.982 76.814 248.62 76.919 248.336 77.129C248.051 77.3343 247.841 77.619 247.706 77.983C247.57 78.347 247.503 78.76 247.503 79.222C247.503 79.9406 247.664 80.5216 247.986 80.965C248.308 81.4083 248.786 81.63 249.421 81.63C249.869 81.63 250.221 81.5273 250.478 81.322C250.739 81.1166 250.935 80.8203 251.066 80.433L252.788 80.818C252.554 81.588 252.146 82.1806 251.563 82.596C250.979 83.0066 250.265 83.212 249.421 83.212ZM254.176 83.002L254.19 72.922H255.898V79.082L258.663 75.442H260.77L257.837 79.222L261.022 83.002H258.789L255.898 79.362V83.002H254.176Z" fill="#323232"/>
<rect x="2.50146" y="0.00195312" width="32" height="32" rx="16" fill="white"/>
<path d="M15.5015 20.2021L11.3015 16.0021L9.90149 17.4021L15.5015 23.0021L27.5015 11.0021L26.1015 9.60205L15.5015 20.2021Z" fill="#81C784"/>
<g opacity="0.46" clip-path="url(#clip1_4575_60689)">
<path d="M24.7454 37.4653H35.6722V63.2214H1.33075V37.4653H13.8186" stroke="#3578DB" stroke-linejoin="round"/>
<path d="M17.721 44.4897H5.23315V59.319H17.721V44.4897Z" stroke="#FF9A2E" stroke-linejoin="round"/>
<path d="M11.4771 59.3192H17.721V56.6499C17.4244 56.3377 14.3727 54.6597 11.4771 54.6597C8.58145 54.6597 5.52974 56.3377 5.23315 56.6499V59.3192H11.4771Z" stroke="#FF9A2E" stroke-linejoin="round"/>
<path d="M11.4771 46.8311C10.1893 46.8311 9.13562 47.8925 9.13562 49.1959V49.953C9.13562 51.2564 10.1893 52.3179 11.4771 52.3179C12.7649 52.3179 13.8185 51.2564 13.8185 49.953V49.1959C13.8185 47.8925 12.7649 46.8311 11.4771 46.8311Z" stroke="#FF9A2E" stroke-linejoin="round"/>
<path d="M21.6234 47.6118H31.7698" stroke="#FF9A2E" stroke-linejoin="round"/>
<path d="M21.6234 50.7339H31.7698" stroke="#FF9A2E" stroke-linejoin="round"/>
<path d="M21.6234 53.8555H27.0868" stroke="#FF9A2E" stroke-linejoin="round"/>
<path d="M13.038 40.5874H25.5258" stroke="#3578DB" stroke-linejoin="round"/>
<path d="M11.4771 40.5874H9.91608" stroke="#3578DB" stroke-linejoin="round"/>
<path d="M27.0868 40.5874H28.6478" stroke="#3578DB" stroke-linejoin="round"/>
<path d="M22.4039 32.7822H16.16V40.5871H22.4039V32.7822Z" stroke="#3578DB" stroke-linejoin="round"/>
</g>
<path d="M2.39846 83.002V72.922H8.18746V73.951H3.42746V77.451H7.34746V78.473H3.42746V83.002H2.39846ZM9.45314 83.002V75.442H10.3771V77.262L10.1951 77.024C10.2791 76.8 10.3888 76.5946 10.5241 76.408C10.6595 76.2166 10.8065 76.0603 10.9651 75.939C11.1611 75.7663 11.3898 75.6356 11.6511 75.547C11.9125 75.4536 12.1761 75.4 12.4421 75.386C12.7081 75.3673 12.9508 75.386 13.1701 75.442V76.408C12.8948 76.338 12.5938 76.3216 12.2671 76.359C11.9405 76.3963 11.6395 76.527 11.3641 76.751C11.1121 76.947 10.9231 77.1826 10.7971 77.458C10.6711 77.7286 10.5871 78.018 10.5451 78.326C10.5031 78.6293 10.4821 78.9303 10.4821 79.229V83.002H9.45314ZM17.5183 83.212C16.767 83.212 16.1253 83.0416 15.5933 82.701C15.0613 82.3603 14.653 81.889 14.3683 81.287C14.0837 80.685 13.9413 79.9943 13.9413 79.215C13.9413 78.4216 14.086 77.7263 14.3753 77.129C14.6647 76.5316 15.0753 76.0673 15.6073 75.736C16.144 75.4 16.781 75.232 17.5183 75.232C18.2743 75.232 18.9183 75.4023 19.4503 75.743C19.987 76.079 20.3953 76.548 20.6753 77.15C20.96 77.7473 21.1023 78.4356 21.1023 79.215C21.1023 80.0083 20.96 80.706 20.6753 81.308C20.3907 81.9053 19.98 82.372 19.4433 82.708C18.9067 83.044 18.265 83.212 17.5183 83.212ZM17.5183 82.225C18.3583 82.225 18.9837 81.9473 19.3943 81.392C19.805 80.832 20.0103 80.1063 20.0103 79.215C20.0103 78.3003 19.8027 77.5723 19.3873 77.031C18.9767 76.4896 18.3537 76.219 17.5183 76.219C16.9537 76.219 16.487 76.3473 16.1183 76.604C15.7543 76.856 15.4813 77.2083 15.2993 77.661C15.122 78.109 15.0333 78.627 15.0333 79.215C15.0333 80.125 15.2433 80.8553 15.6633 81.406C16.0833 81.952 16.7017 82.225 17.5183 82.225ZM28.1065 83.002V79.145C28.1065 78.725 28.0668 78.34 27.9875 77.99C27.9082 77.6353 27.7798 77.3273 27.6025 77.066C27.4298 76.8 27.2035 76.5946 26.9235 76.45C26.6482 76.3053 26.3122 76.233 25.9155 76.233C25.5515 76.233 25.2295 76.296 24.9495 76.422C24.6742 76.548 24.4408 76.73 24.2495 76.968C24.0628 77.2013 23.9205 77.486 23.8225 77.822C23.7245 78.158 23.6755 78.5406 23.6755 78.97L22.9475 78.809C22.9475 78.0343 23.0828 77.3833 23.3535 76.856C23.6242 76.3286 23.9975 75.9296 24.4735 75.659C24.9495 75.3883 25.4955 75.253 26.1115 75.253C26.5642 75.253 26.9585 75.323 27.2945 75.463C27.6352 75.603 27.9222 75.792 28.1555 76.03C28.3935 76.268 28.5848 76.541 28.7295 76.849C28.8742 77.1523 28.9792 77.4766 29.0445 77.822C29.1098 78.1626 29.1425 78.5033 29.1425 78.844V83.002H28.1065ZM22.6395 83.002V75.442H23.5705V77.304H23.6755V83.002H22.6395ZM35.075 83.002C34.6503 83.0906 34.2303 83.1256 33.815 83.107C33.4043 83.0883 33.0357 82.9996 32.709 82.841C32.387 82.6823 32.142 82.435 31.974 82.099C31.8387 81.819 31.764 81.5366 31.75 81.252C31.7407 80.9626 31.736 80.6336 31.736 80.265V73.342H32.758V80.223C32.758 80.5403 32.7603 80.8063 32.765 81.021C32.7743 81.231 32.8233 81.4176 32.912 81.581C33.08 81.8936 33.346 82.0803 33.71 82.141C34.0787 82.2016 34.5337 82.1876 35.075 82.099V83.002ZM30.119 76.324V75.442H35.075V76.324H30.119Z" fill="#323232"/>
<defs>
<clipPath id="clip0_4575_60689">
<rect width="35.9024" height="32" fill="white" transform="translate(226.55 32.002)"/>
</clipPath>
<clipPath id="clip1_4575_60689">
<rect width="35.9024" height="32" fill="white" transform="translate(0.550232 32.002)"/>
</clipPath>
</defs>
</svg>
