<svg width="343" height="179" viewBox="0 0 343 179" fill="none" xmlns="http://www.w3.org/2000/svg">
<path d="M34.6316 99.002V86.042H39.7526C39.8786 86.042 40.0286 86.048 40.2026 86.06C40.3766 86.066 40.5446 86.084 40.7066 86.114C41.4086 86.222 41.9966 86.462 42.4706 86.834C42.9506 87.206 43.3106 87.677 43.5506 88.247C43.7906 88.811 43.9106 89.438 43.9106 90.128C43.9106 90.812 43.7876 91.439 43.5416 92.009C43.3016 92.573 42.9416 93.044 42.4616 93.422C41.9876 93.794 41.4026 94.034 40.7066 94.142C40.5446 94.166 40.3766 94.184 40.2026 94.196C40.0286 94.208 39.8786 94.214 39.7526 94.214H36.2336V99.002H34.6316ZM36.2336 92.693H39.6986C39.8126 92.693 39.9416 92.687 40.0856 92.675C40.2356 92.663 40.3766 92.642 40.5086 92.612C40.9226 92.516 41.2586 92.342 41.5166 92.09C41.7806 91.832 41.9726 91.532 42.0926 91.19C42.2126 90.842 42.2726 90.488 42.2726 90.128C42.2726 89.768 42.2126 89.417 42.0926 89.075C41.9726 88.727 41.7806 88.424 41.5166 88.166C41.2586 87.908 40.9226 87.734 40.5086 87.644C40.3766 87.608 40.2356 87.587 40.0856 87.581C39.9416 87.569 39.8126 87.563 39.6986 87.563H36.2336V92.693ZM45.7058 99.002V89.282H47.1368V91.631L46.9028 91.325C47.0168 91.025 47.1638 90.749 47.3438 90.497C47.5298 90.245 47.7368 90.038 47.9648 89.876C48.2168 89.672 48.5018 89.516 48.8198 89.408C49.1378 89.3 49.4618 89.237 49.7918 89.219C50.1218 89.195 50.4308 89.216 50.7188 89.282V90.785C50.3828 90.695 50.0138 90.671 49.6118 90.713C49.2098 90.755 48.8378 90.902 48.4958 91.154C48.1838 91.376 47.9408 91.646 47.7668 91.964C47.5988 92.282 47.4818 92.627 47.4158 92.999C47.3498 93.365 47.3168 93.74 47.3168 94.124V99.002H45.7058ZM56.3849 99.272C55.4189 99.272 54.5849 99.053 53.8829 98.615C53.1869 98.177 52.6499 97.571 52.2719 96.797C51.8939 96.023 51.7049 95.135 51.7049 94.133C51.7049 93.113 51.8969 92.219 52.2809 91.451C52.6649 90.683 53.2079 90.086 53.9099 89.66C54.6119 89.228 55.4369 89.012 56.3849 89.012C57.3569 89.012 58.1939 89.231 58.8959 89.669C59.5979 90.101 60.1349 90.704 60.5069 91.478C60.8849 92.246 61.0739 93.131 61.0739 94.133C61.0739 95.147 60.8849 96.041 60.5069 96.815C60.1289 97.583 59.5889 98.186 58.8869 98.624C58.1849 99.056 57.3509 99.272 56.3849 99.272ZM56.3849 97.751C57.3929 97.751 58.1429 97.415 58.6349 96.743C59.1269 96.071 59.3729 95.201 59.3729 94.133C59.3729 93.035 59.1239 92.162 58.6259 91.514C58.1279 90.86 57.3809 90.533 56.3849 90.533C55.7069 90.533 55.1489 90.686 54.7109 90.992C54.2729 91.298 53.9459 91.721 53.7299 92.261C53.5139 92.801 53.4059 93.425 53.4059 94.133C53.4059 95.225 53.6579 96.101 54.1619 96.761C54.6659 97.421 55.4069 97.751 56.3849 97.751ZM67.1954 99.272C66.2294 99.272 65.3954 99.053 64.6934 98.615C63.9974 98.177 63.4604 97.571 63.0824 96.797C62.7044 96.023 62.5154 95.135 62.5154 94.133C62.5154 93.113 62.7074 92.219 63.0914 91.451C63.4754 90.683 64.0184 90.086 64.7204 89.66C65.4224 89.228 66.2474 89.012 67.1954 89.012C68.1674 89.012 69.0044 89.231 69.7064 89.669C70.4084 90.101 70.9454 90.704 71.3174 91.478C71.6954 92.246 71.8844 93.131 71.8844 94.133C71.8844 95.147 71.6954 96.041 71.3174 96.815C70.9394 97.583 70.3994 98.186 69.6974 98.624C68.9954 99.056 68.1614 99.272 67.1954 99.272ZM67.1954 97.751C68.2034 97.751 68.9534 97.415 69.4454 96.743C69.9374 96.071 70.1834 95.201 70.1834 94.133C70.1834 93.035 69.9344 92.162 69.4364 91.514C68.9384 90.86 68.1914 90.533 67.1954 90.533C66.5174 90.533 65.9594 90.686 65.5214 90.992C65.0834 91.298 64.7564 91.721 64.5404 92.261C64.3244 92.801 64.2164 93.425 64.2164 94.133C64.2164 95.225 64.4684 96.101 64.9724 96.761C65.4764 97.421 66.2174 97.751 67.1954 97.751ZM74.793 99.002V88.751C74.793 88.499 74.805 88.244 74.829 87.986C74.853 87.722 74.907 87.467 74.991 87.221C75.075 86.969 75.213 86.738 75.405 86.528C75.627 86.282 75.87 86.108 76.134 86.006C76.398 85.898 76.665 85.832 76.935 85.808C77.211 85.784 77.472 85.772 77.718 85.772H78.951V87.104H77.808C77.334 87.104 76.98 87.221 76.746 87.455C76.512 87.683 76.395 88.031 76.395 88.499V99.002H74.793ZM73.146 90.605V89.282H78.951V90.605H73.146ZM88.131 99.272C87.165 99.272 86.331 99.053 85.629 98.615C84.933 98.177 84.396 97.571 84.018 96.797C83.64 96.023 83.451 95.135 83.451 94.133C83.451 93.113 83.643 92.219 84.027 91.451C84.411 90.683 84.954 90.086 85.656 89.66C86.358 89.228 87.183 89.012 88.131 89.012C89.103 89.012 89.94 89.231 90.642 89.669C91.344 90.101 91.881 90.704 92.253 91.478C92.631 92.246 92.82 93.131 92.82 94.133C92.82 95.147 92.631 96.041 92.253 96.815C91.875 97.583 91.335 98.186 90.633 98.624C89.931 99.056 89.097 99.272 88.131 99.272ZM88.131 97.751C89.139 97.751 89.889 97.415 90.381 96.743C90.873 96.071 91.119 95.201 91.119 94.133C91.119 93.035 90.87 92.162 90.372 91.514C89.874 90.86 89.127 90.533 88.131 90.533C87.453 90.533 86.895 90.686 86.457 90.992C86.019 91.298 85.692 91.721 85.476 92.261C85.26 92.801 85.152 93.425 85.152 94.133C85.152 95.225 85.404 96.101 85.908 96.761C86.412 97.421 87.153 97.751 88.131 97.751ZM95.7285 99.002V88.751C95.7285 88.499 95.7405 88.244 95.7645 87.986C95.7885 87.722 95.8425 87.467 95.9265 87.221C96.0105 86.969 96.1485 86.738 96.3405 86.528C96.5625 86.282 96.8055 86.108 97.0695 86.006C97.3335 85.898 97.6005 85.832 97.8705 85.808C98.1465 85.784 98.4075 85.772 98.6535 85.772H99.8865V87.104H98.7435C98.2695 87.104 97.9155 87.221 97.6815 87.455C97.4475 87.683 97.3305 88.031 97.3305 88.499V99.002H95.7285ZM94.0815 90.605V89.282H99.8865V90.605H94.0815ZM104.927 99.002V86.042H110.048C110.174 86.042 110.324 86.048 110.498 86.06C110.672 86.066 110.84 86.084 111.002 86.114C111.704 86.222 112.292 86.462 112.766 86.834C113.246 87.206 113.606 87.677 113.846 88.247C114.086 88.811 114.206 89.438 114.206 90.128C114.206 90.812 114.083 91.439 113.837 92.009C113.597 92.573 113.237 93.044 112.757 93.422C112.283 93.794 111.698 94.034 111.002 94.142C110.84 94.166 110.672 94.184 110.498 94.196C110.324 94.208 110.174 94.214 110.048 94.214H106.529V99.002H104.927ZM106.529 92.693H109.994C110.108 92.693 110.237 92.687 110.381 92.675C110.531 92.663 110.672 92.642 110.804 92.612C111.218 92.516 111.554 92.342 111.812 92.09C112.076 91.832 112.268 91.532 112.388 91.19C112.508 90.842 112.568 90.488 112.568 90.128C112.568 89.768 112.508 89.417 112.388 89.075C112.268 88.727 112.076 88.424 111.812 88.166C111.554 87.908 111.218 87.734 110.804 87.644C110.672 87.608 110.531 87.587 110.381 87.581C110.237 87.569 110.108 87.563 109.994 87.563H106.529V92.693ZM119.691 99.254C119.067 99.254 118.53 99.155 118.08 98.957C117.636 98.759 117.267 98.495 116.973 98.165C116.679 97.835 116.448 97.469 116.28 97.067C116.112 96.665 115.992 96.254 115.92 95.834C115.854 95.414 115.821 95.021 115.821 94.655V89.282H117.441V94.151C117.441 94.607 117.483 95.048 117.567 95.474C117.651 95.9 117.792 96.284 117.99 96.626C118.194 96.968 118.464 97.238 118.8 97.436C119.142 97.634 119.568 97.733 120.078 97.733C120.48 97.733 120.846 97.664 121.176 97.526C121.506 97.388 121.788 97.184 122.022 96.914C122.256 96.638 122.436 96.29 122.562 95.87C122.688 95.45 122.751 94.961 122.751 94.403L123.804 94.727C123.804 95.663 123.633 96.47 123.291 97.148C122.955 97.826 122.478 98.348 121.86 98.714C121.248 99.074 120.525 99.254 119.691 99.254ZM122.931 99.002V96.401H122.751V89.282H124.362V99.002H122.931ZM126.882 99.002V89.282H128.313V91.631L128.079 91.325C128.193 91.025 128.34 90.749 128.52 90.497C128.706 90.245 128.913 90.038 129.141 89.876C129.393 89.672 129.678 89.516 129.996 89.408C130.314 89.3 130.638 89.237 130.968 89.219C131.298 89.195 131.607 89.216 131.895 89.282V90.785C131.559 90.695 131.19 90.671 130.788 90.713C130.386 90.755 130.014 90.902 129.672 91.154C129.36 91.376 129.117 91.646 128.943 91.964C128.775 92.282 128.658 92.627 128.592 92.999C128.526 93.365 128.493 93.74 128.493 94.124V99.002H126.882ZM137.516 99.272C136.532 99.272 135.695 99.053 135.005 98.615C134.321 98.171 133.799 97.562 133.439 96.788C133.079 96.014 132.893 95.132 132.881 94.142C132.893 93.128 133.082 92.237 133.448 91.469C133.82 90.695 134.351 90.092 135.041 89.66C135.731 89.228 136.562 89.012 137.534 89.012C138.56 89.012 139.442 89.264 140.18 89.768C140.924 90.272 141.422 90.962 141.674 91.838L140.09 92.315C139.886 91.751 139.553 91.313 139.091 91.001C138.635 90.689 138.11 90.533 137.516 90.533C136.85 90.533 136.301 90.689 135.869 91.001C135.437 91.307 135.116 91.733 134.906 92.279C134.696 92.819 134.588 93.44 134.582 94.142C134.594 95.222 134.843 96.095 135.329 96.761C135.821 97.421 136.55 97.751 137.516 97.751C138.152 97.751 138.68 97.607 139.1 97.319C139.52 97.025 139.838 96.602 140.054 96.05L141.674 96.473C141.338 97.379 140.813 98.072 140.099 98.552C139.385 99.032 138.524 99.272 137.516 99.272ZM150.431 99.002V94.133C150.431 93.671 150.389 93.227 150.305 92.801C150.227 92.375 150.086 91.994 149.882 91.658C149.684 91.316 149.414 91.046 149.072 90.848C148.736 90.65 148.31 90.551 147.794 90.551C147.392 90.551 147.026 90.62 146.696 90.758C146.372 90.89 146.093 91.094 145.859 91.37C145.625 91.646 145.442 91.994 145.31 92.414C145.184 92.828 145.121 93.317 145.121 93.881L144.068 93.557C144.068 92.615 144.236 91.808 144.572 91.136C144.914 90.458 145.391 89.939 146.003 89.579C146.621 89.213 147.347 89.03 148.181 89.03C148.811 89.03 149.348 89.129 149.792 89.327C150.236 89.525 150.605 89.789 150.899 90.119C151.193 90.443 151.424 90.809 151.592 91.217C151.76 91.619 151.877 92.03 151.943 92.45C152.015 92.864 152.051 93.257 152.051 93.629V99.002H150.431ZM143.501 99.002V86.042H144.941V93.197H145.121V99.002H143.501ZM157.154 99.272C156.428 99.272 155.819 99.14 155.327 98.876C154.841 98.606 154.472 98.252 154.22 97.814C153.974 97.376 153.851 96.896 153.851 96.374C153.851 95.864 153.947 95.423 154.139 95.051C154.337 94.673 154.613 94.361 154.967 94.115C155.321 93.863 155.744 93.665 156.236 93.521C156.698 93.395 157.214 93.287 157.784 93.197C158.36 93.101 158.942 93.014 159.53 92.936C160.118 92.858 160.667 92.783 161.177 92.711L160.601 93.044C160.619 92.18 160.445 91.541 160.079 91.127C159.719 90.713 159.095 90.506 158.207 90.506C157.619 90.506 157.103 90.641 156.659 90.911C156.221 91.175 155.912 91.607 155.732 92.207L154.211 91.748C154.445 90.896 154.898 90.227 155.57 89.741C156.242 89.255 157.127 89.012 158.225 89.012C159.107 89.012 159.863 89.171 160.493 89.489C161.129 89.801 161.585 90.275 161.861 90.911C161.999 91.211 162.086 91.538 162.122 91.892C162.158 92.24 162.176 92.606 162.176 92.99V99.002H160.754V96.671L161.087 96.887C160.721 97.673 160.208 98.267 159.548 98.669C158.894 99.071 158.096 99.272 157.154 99.272ZM157.397 97.931C157.973 97.931 158.471 97.829 158.891 97.625C159.317 97.415 159.659 97.142 159.917 96.806C160.175 96.464 160.343 96.092 160.421 95.69C160.511 95.39 160.559 95.057 160.565 94.691C160.577 94.319 160.583 94.034 160.583 93.836L161.141 94.079C160.619 94.151 160.106 94.22 159.602 94.286C159.098 94.352 158.621 94.424 158.171 94.502C157.721 94.574 157.316 94.661 156.956 94.763C156.692 94.847 156.443 94.955 156.209 95.087C155.981 95.219 155.795 95.39 155.651 95.6C155.513 95.804 155.444 96.059 155.444 96.365C155.444 96.629 155.51 96.881 155.642 97.121C155.78 97.361 155.99 97.556 156.272 97.706C156.56 97.856 156.935 97.931 157.397 97.931ZM168.188 99.263C167.03 99.263 166.079 99.011 165.335 98.507C164.597 97.997 164.144 97.286 163.976 96.374L165.614 96.113C165.746 96.641 166.049 97.061 166.523 97.373C166.997 97.679 167.585 97.832 168.287 97.832C168.953 97.832 169.475 97.694 169.853 97.418C170.231 97.142 170.42 96.767 170.42 96.293C170.42 96.017 170.357 95.795 170.231 95.627C170.105 95.453 169.844 95.291 169.448 95.141C169.058 94.991 168.467 94.811 167.675 94.601C166.817 94.373 166.142 94.136 165.65 93.89C165.158 93.644 164.807 93.359 164.597 93.035C164.387 92.711 164.282 92.318 164.282 91.856C164.282 91.286 164.438 90.788 164.75 90.362C165.062 89.93 165.497 89.597 166.055 89.363C166.619 89.129 167.273 89.012 168.017 89.012C168.755 89.012 169.415 89.129 169.997 89.363C170.579 89.597 171.047 89.93 171.401 90.362C171.761 90.788 171.974 91.286 172.04 91.856L170.402 92.153C170.324 91.631 170.072 91.22 169.646 90.92C169.226 90.62 168.683 90.461 168.017 90.443C167.387 90.419 166.874 90.53 166.478 90.776C166.088 91.022 165.893 91.355 165.893 91.775C165.893 92.009 165.965 92.21 166.109 92.378C166.259 92.546 166.532 92.705 166.928 92.855C167.33 93.005 167.912 93.176 168.674 93.368C169.532 93.584 170.207 93.821 170.699 94.079C171.197 94.331 171.551 94.631 171.761 94.979C171.971 95.321 172.076 95.744 172.076 96.248C172.076 97.184 171.731 97.922 171.041 98.462C170.351 98.996 169.4 99.263 168.188 99.263ZM178.273 99.272C177.319 99.272 176.485 99.062 175.771 98.642C175.063 98.216 174.511 97.625 174.115 96.869C173.719 96.107 173.521 95.219 173.521 94.205C173.521 93.143 173.716 92.225 174.106 91.451C174.496 90.671 175.039 90.071 175.735 89.651C176.437 89.225 177.259 89.012 178.201 89.012C179.179 89.012 180.01 89.237 180.694 89.687C181.384 90.137 181.9 90.779 182.242 91.613C182.59 92.447 182.74 93.44 182.692 94.592H181.072V94.016C181.054 92.822 180.811 91.931 180.343 91.343C179.875 90.749 179.179 90.452 178.255 90.452C177.265 90.452 176.512 90.77 175.996 91.406C175.48 92.042 175.222 92.954 175.222 94.142C175.222 95.288 175.48 96.176 175.996 96.806C176.512 97.436 177.247 97.751 178.201 97.751C178.843 97.751 179.401 97.604 179.875 97.31C180.349 97.016 180.721 96.593 180.991 96.041L182.53 96.572C182.152 97.43 181.582 98.096 180.82 98.57C180.064 99.038 179.215 99.272 178.273 99.272ZM174.682 94.592V93.305H181.864V94.592H174.682ZM190.37 99.002L187.4 89.273L188.993 89.282L191.162 96.392L193.349 89.282H194.762L196.94 96.392L199.118 89.282H200.702L197.732 99.002H196.4L194.051 91.613L191.702 99.002H190.37ZM202.507 87.563V85.907H204.109V87.563H202.507ZM202.507 99.002V89.282H204.109V99.002H202.507ZM206.989 99.002V85.772H208.591V99.002H206.989ZM211.472 99.002V85.772H213.074V99.002H211.472ZM223.842 99.272C222.93 99.272 222.162 99.047 221.538 98.597C220.914 98.141 220.44 97.526 220.116 96.752C219.798 95.972 219.639 95.099 219.639 94.133C219.639 93.155 219.798 92.279 220.116 91.505C220.44 90.731 220.914 90.122 221.538 89.678C222.168 89.234 222.939 89.012 223.851 89.012C224.751 89.012 225.525 89.237 226.173 89.687C226.827 90.131 227.328 90.74 227.676 91.514C228.024 92.288 228.198 93.161 228.198 94.133C228.198 95.105 228.024 95.978 227.676 96.752C227.328 97.526 226.827 98.141 226.173 98.597C225.525 99.047 224.748 99.272 223.842 99.272ZM219.369 99.002V86.042H220.98V91.847H220.8V99.002H219.369ZM223.644 97.805C224.286 97.805 224.817 97.643 225.237 97.319C225.657 96.995 225.972 96.557 226.182 96.005C226.392 95.447 226.497 94.823 226.497 94.133C226.497 93.449 226.392 92.831 226.182 92.279C225.978 91.727 225.66 91.289 225.228 90.965C224.802 90.641 224.259 90.479 223.599 90.479C222.969 90.479 222.447 90.635 222.033 90.947C221.619 91.253 221.31 91.682 221.106 92.234C220.902 92.78 220.8 93.413 220.8 94.133C220.8 94.841 220.899 95.474 221.097 96.032C221.301 96.584 221.613 97.019 222.033 97.337C222.453 97.649 222.99 97.805 223.644 97.805ZM234.383 99.272C233.429 99.272 232.595 99.062 231.881 98.642C231.173 98.216 230.621 97.625 230.225 96.869C229.829 96.107 229.631 95.219 229.631 94.205C229.631 93.143 229.826 92.225 230.216 91.451C230.606 90.671 231.149 90.071 231.845 89.651C232.547 89.225 233.369 89.012 234.311 89.012C235.289 89.012 236.12 89.237 236.804 89.687C237.494 90.137 238.01 90.779 238.352 91.613C238.7 92.447 238.85 93.44 238.802 94.592H237.182V94.016C237.164 92.822 236.921 91.931 236.453 91.343C235.985 90.749 235.289 90.452 234.365 90.452C233.375 90.452 232.622 90.77 232.106 91.406C231.59 92.042 231.332 92.954 231.332 94.142C231.332 95.288 231.59 96.176 232.106 96.806C232.622 97.436 233.357 97.751 234.311 97.751C234.953 97.751 235.511 97.604 235.985 97.31C236.459 97.016 236.831 96.593 237.101 96.041L238.64 96.572C238.262 97.43 237.692 98.096 236.93 98.57C236.174 99.038 235.325 99.272 234.383 99.272ZM230.792 94.592V93.305H237.974V94.592H230.792ZM248.621 99.272C247.667 99.272 246.833 99.062 246.119 98.642C245.411 98.216 244.859 97.625 244.463 96.869C244.067 96.107 243.869 95.219 243.869 94.205C243.869 93.143 244.064 92.225 244.454 91.451C244.844 90.671 245.387 90.071 246.083 89.651C246.785 89.225 247.607 89.012 248.549 89.012C249.527 89.012 250.358 89.237 251.042 89.687C251.732 90.137 252.248 90.779 252.59 91.613C252.938 92.447 253.088 93.44 253.04 94.592H251.42V94.016C251.402 92.822 251.159 91.931 250.691 91.343C250.223 90.749 249.527 90.452 248.603 90.452C247.613 90.452 246.86 90.77 246.344 91.406C245.828 92.042 245.57 92.954 245.57 94.142C245.57 95.288 245.828 96.176 246.344 96.806C246.86 97.436 247.595 97.751 248.549 97.751C249.191 97.751 249.749 97.604 250.223 97.31C250.697 97.016 251.069 96.593 251.339 96.041L252.878 96.572C252.5 97.43 251.93 98.096 251.168 98.57C250.412 99.038 249.563 99.272 248.621 99.272ZM245.03 94.592V93.305H252.212V94.592H245.03ZM266.399 99.002L266.408 92.783C266.408 92.057 266.213 91.49 265.823 91.082C265.439 90.668 264.938 90.461 264.32 90.461C263.96 90.461 263.618 90.545 263.294 90.713C262.97 90.875 262.706 91.133 262.502 91.487C262.298 91.835 262.196 92.282 262.196 92.828L261.35 92.486C261.338 91.796 261.479 91.193 261.773 90.677C262.073 90.155 262.481 89.75 262.997 89.462C263.513 89.174 264.095 89.03 264.743 89.03C265.757 89.03 266.555 89.339 267.137 89.957C267.719 90.569 268.01 91.394 268.01 92.432L268.001 99.002H266.399ZM254.771 99.002V89.282H256.202V91.883H256.382V99.002H254.771ZM260.594 99.002L260.603 92.846C260.603 92.102 260.411 91.52 260.027 91.1C259.643 90.674 259.133 90.461 258.497 90.461C257.867 90.461 257.357 90.677 256.967 91.109C256.577 91.541 256.382 92.114 256.382 92.828L255.536 92.324C255.536 91.694 255.686 91.13 255.986 90.632C256.286 90.134 256.694 89.744 257.21 89.462C257.726 89.174 258.311 89.03 258.965 89.03C259.619 89.03 260.189 89.168 260.675 89.444C261.161 89.72 261.536 90.116 261.8 90.632C262.064 91.142 262.196 91.751 262.196 92.459L262.187 99.002H260.594ZM273.117 99.272C272.391 99.272 271.782 99.14 271.29 98.876C270.804 98.606 270.435 98.252 270.183 97.814C269.937 97.376 269.814 96.896 269.814 96.374C269.814 95.864 269.91 95.423 270.102 95.051C270.3 94.673 270.576 94.361 270.93 94.115C271.284 93.863 271.707 93.665 272.199 93.521C272.661 93.395 273.177 93.287 273.747 93.197C274.323 93.101 274.905 93.014 275.493 92.936C276.081 92.858 276.63 92.783 277.14 92.711L276.564 93.044C276.582 92.18 276.408 91.541 276.042 91.127C275.682 90.713 275.058 90.506 274.17 90.506C273.582 90.506 273.066 90.641 272.622 90.911C272.184 91.175 271.875 91.607 271.695 92.207L270.174 91.748C270.408 90.896 270.861 90.227 271.533 89.741C272.205 89.255 273.09 89.012 274.188 89.012C275.07 89.012 275.826 89.171 276.456 89.489C277.092 89.801 277.548 90.275 277.824 90.911C277.962 91.211 278.049 91.538 278.085 91.892C278.121 92.24 278.139 92.606 278.139 92.99V99.002H276.717V96.671L277.05 96.887C276.684 97.673 276.171 98.267 275.511 98.669C274.857 99.071 274.059 99.272 273.117 99.272ZM273.36 97.931C273.936 97.931 274.434 97.829 274.854 97.625C275.28 97.415 275.622 97.142 275.88 96.806C276.138 96.464 276.306 96.092 276.384 95.69C276.474 95.39 276.522 95.057 276.528 94.691C276.54 94.319 276.546 94.034 276.546 93.836L277.104 94.079C276.582 94.151 276.069 94.22 275.565 94.286C275.061 94.352 274.584 94.424 274.134 94.502C273.684 94.574 273.279 94.661 272.919 94.763C272.655 94.847 272.406 94.955 272.172 95.087C271.944 95.219 271.758 95.39 271.614 95.6C271.476 95.804 271.407 96.059 271.407 96.365C271.407 96.629 271.473 96.881 271.605 97.121C271.743 97.361 271.953 97.556 272.235 97.706C272.523 97.856 272.898 97.931 273.36 97.931ZM280.659 87.563V85.907H282.261V87.563H280.659ZM280.659 99.002V89.282H282.261V99.002H280.659ZM285.142 99.002V85.772H286.744V99.002H285.142ZM293.656 99.272C292.702 99.272 291.868 99.062 291.154 98.642C290.446 98.216 289.894 97.625 289.498 96.869C289.102 96.107 288.904 95.219 288.904 94.205C288.904 93.143 289.099 92.225 289.489 91.451C289.879 90.671 290.422 90.071 291.118 89.651C291.82 89.225 292.642 89.012 293.584 89.012C294.562 89.012 295.393 89.237 296.077 89.687C296.767 90.137 297.283 90.779 297.625 91.613C297.973 92.447 298.123 93.44 298.075 94.592H296.455V94.016C296.437 92.822 296.194 91.931 295.726 91.343C295.258 90.749 294.562 90.452 293.638 90.452C292.648 90.452 291.895 90.77 291.379 91.406C290.863 92.042 290.605 92.954 290.605 94.142C290.605 95.288 290.863 96.176 291.379 96.806C291.895 97.436 292.63 97.751 293.584 97.751C294.226 97.751 294.784 97.604 295.258 97.31C295.732 97.016 296.104 96.593 296.374 96.041L297.913 96.572C297.535 97.43 296.965 98.096 296.203 98.57C295.447 99.038 294.598 99.272 293.656 99.272ZM290.065 94.592V93.305H297.247V94.592H290.065ZM303.895 99.272C302.989 99.272 302.212 99.047 301.564 98.597C300.916 98.141 300.415 97.526 300.061 96.752C299.713 95.978 299.539 95.105 299.539 94.133C299.539 93.161 299.713 92.288 300.061 91.514C300.415 90.74 300.916 90.131 301.564 89.687C302.212 89.237 302.986 89.012 303.886 89.012C304.804 89.012 305.575 89.234 306.199 89.678C306.823 90.122 307.294 90.731 307.612 91.505C307.936 92.279 308.098 93.155 308.098 94.133C308.098 95.099 307.936 95.972 307.612 96.752C307.294 97.526 306.823 98.141 306.199 98.597C305.575 99.047 304.807 99.272 303.895 99.272ZM304.093 97.805C304.747 97.805 305.284 97.649 305.704 97.337C306.124 97.019 306.433 96.584 306.631 96.032C306.835 95.474 306.937 94.841 306.937 94.133C306.937 93.413 306.835 92.78 306.631 92.234C306.433 91.682 306.127 91.253 305.713 90.947C305.299 90.635 304.774 90.479 304.138 90.479C303.478 90.479 302.932 90.641 302.5 90.965C302.074 91.289 301.756 91.727 301.546 92.279C301.342 92.831 301.24 93.449 301.24 94.133C301.24 94.823 301.345 95.447 301.555 96.005C301.765 96.557 302.08 96.995 302.5 97.319C302.926 97.643 303.457 97.805 304.093 97.805ZM306.937 99.002V91.847H306.757V86.042H308.368V99.002H306.937ZM40.202 124.263C39.044 124.263 38.093 124.011 37.349 123.507C36.611 122.997 36.158 122.286 35.99 121.374L37.628 121.113C37.76 121.641 38.063 122.061 38.537 122.373C39.011 122.679 39.599 122.832 40.301 122.832C40.967 122.832 41.489 122.694 41.867 122.418C42.245 122.142 42.434 121.767 42.434 121.293C42.434 121.017 42.371 120.795 42.245 120.627C42.119 120.453 41.858 120.291 41.462 120.141C41.072 119.991 40.481 119.811 39.689 119.601C38.831 119.373 38.156 119.136 37.664 118.89C37.172 118.644 36.821 118.359 36.611 118.035C36.401 117.711 36.296 117.318 36.296 116.856C36.296 116.286 36.452 115.788 36.764 115.362C37.076 114.93 37.511 114.597 38.069 114.363C38.633 114.129 39.287 114.012 40.031 114.012C40.769 114.012 41.429 114.129 42.011 114.363C42.593 114.597 43.061 114.93 43.415 115.362C43.775 115.788 43.988 116.286 44.054 116.856L42.416 117.153C42.338 116.631 42.086 116.22 41.66 115.92C41.24 115.62 40.697 115.461 40.031 115.443C39.401 115.419 38.888 115.53 38.492 115.776C38.102 116.022 37.907 116.355 37.907 116.775C37.907 117.009 37.979 117.21 38.123 117.378C38.273 117.546 38.546 117.705 38.942 117.855C39.344 118.005 39.926 118.176 40.688 118.368C41.546 118.584 42.221 118.821 42.713 119.079C43.211 119.331 43.565 119.631 43.775 119.979C43.985 120.321 44.09 120.744 44.09 121.248C44.09 122.184 43.745 122.922 43.055 123.462C42.365 123.996 41.414 124.263 40.202 124.263ZM52.9959 124.002V119.133C52.9959 118.671 52.9539 118.227 52.8699 117.801C52.7919 117.375 52.6509 116.994 52.4469 116.658C52.2489 116.316 51.9789 116.046 51.6369 115.848C51.3009 115.65 50.8749 115.551 50.3589 115.551C49.9569 115.551 49.5909 115.62 49.2609 115.758C48.9369 115.89 48.6579 116.094 48.4239 116.37C48.1899 116.646 48.0069 116.994 47.8749 117.414C47.7489 117.828 47.6859 118.317 47.6859 118.881L46.6329 118.557C46.6329 117.615 46.8009 116.808 47.1369 116.136C47.4789 115.458 47.9559 114.939 48.5679 114.579C49.1859 114.213 49.9119 114.03 50.7459 114.03C51.3759 114.03 51.9129 114.129 52.3569 114.327C52.8009 114.525 53.1699 114.789 53.4639 115.119C53.7579 115.443 53.9889 115.809 54.1569 116.217C54.3249 116.619 54.4419 117.03 54.5079 117.45C54.5799 117.864 54.6159 118.257 54.6159 118.629V124.002H52.9959ZM46.0659 124.002V111.042H47.5059V118.197H47.6859V124.002H46.0659ZM61.0958 124.272C60.1298 124.272 59.2958 124.053 58.5938 123.615C57.8978 123.177 57.3608 122.571 56.9828 121.797C56.6048 121.023 56.4158 120.135 56.4158 119.133C56.4158 118.113 56.6078 117.219 56.9918 116.451C57.3758 115.683 57.9188 115.086 58.6208 114.66C59.3228 114.228 60.1478 114.012 61.0958 114.012C62.0678 114.012 62.9048 114.231 63.6068 114.669C64.3088 115.101 64.8458 115.704 65.2178 116.478C65.5958 117.246 65.7848 118.131 65.7848 119.133C65.7848 120.147 65.5958 121.041 65.2178 121.815C64.8398 122.583 64.2998 123.186 63.5978 123.624C62.8958 124.056 62.0618 124.272 61.0958 124.272ZM61.0958 122.751C62.1038 122.751 62.8538 122.415 63.3458 121.743C63.8378 121.071 64.0838 120.201 64.0838 119.133C64.0838 118.035 63.8348 117.162 63.3368 116.514C62.8388 115.86 62.0918 115.533 61.0958 115.533C60.4178 115.533 59.8598 115.686 59.4218 115.992C58.9838 116.298 58.6568 116.721 58.4408 117.261C58.2248 117.801 58.1168 118.425 58.1168 119.133C58.1168 120.225 58.3688 121.101 58.8728 121.761C59.3768 122.421 60.1178 122.751 61.0958 122.751ZM67.7663 124.002V114.282H69.1973V116.631L68.9633 116.325C69.0773 116.025 69.2243 115.749 69.4043 115.497C69.5903 115.245 69.7973 115.038 70.0253 114.876C70.2773 114.672 70.5623 114.516 70.8803 114.408C71.1983 114.3 71.5223 114.237 71.8523 114.219C72.1823 114.195 72.4913 114.216 72.7793 114.282V115.785C72.4433 115.695 72.0743 115.671 71.6723 115.713C71.2703 115.755 70.8983 115.902 70.5563 116.154C70.2443 116.376 70.0013 116.646 69.8273 116.964C69.6593 117.282 69.5423 117.627 69.4763 117.999C69.4103 118.365 69.3773 118.74 69.3773 119.124V124.002H67.7663ZM79.9082 124.002C79.3322 124.116 78.7622 124.161 78.1982 124.137C77.6402 124.119 77.1422 124.008 76.7042 123.804C76.2662 123.594 75.9332 123.27 75.7052 122.832C75.5132 122.448 75.4082 122.061 75.3902 121.671C75.3782 121.275 75.3722 120.828 75.3722 120.33V111.582H76.9742V120.258C76.9742 120.654 76.9772 120.993 76.9832 121.275C76.9952 121.557 77.0582 121.8 77.1722 122.004C77.3882 122.388 77.7302 122.613 78.1982 122.679C78.6722 122.745 79.2422 122.727 79.9082 122.625V124.002ZM73.4012 115.605V114.282H79.9082V115.605H73.4012ZM82.0616 124.002V110.772H83.6636V124.002H82.0616ZM87.714 128.322L89.595 123.21L89.622 124.722L85.374 114.282H87.057L90.387 122.679H89.811L92.934 114.282H94.563L89.271 128.322H87.714ZM102.416 124.272C101.69 124.272 101.081 124.14 100.589 123.876C100.103 123.606 99.7341 123.252 99.4821 122.814C99.2361 122.376 99.1131 121.896 99.1131 121.374C99.1131 120.864 99.2091 120.423 99.4011 120.051C99.5991 119.673 99.8751 119.361 100.229 119.115C100.583 118.863 101.006 118.665 101.498 118.521C101.96 118.395 102.476 118.287 103.046 118.197C103.622 118.101 104.204 118.014 104.792 117.936C105.38 117.858 105.929 117.783 106.439 117.711L105.863 118.044C105.881 117.18 105.707 116.541 105.341 116.127C104.981 115.713 104.357 115.506 103.469 115.506C102.881 115.506 102.365 115.641 101.921 115.911C101.483 116.175 101.174 116.607 100.994 117.207L99.4731 116.748C99.7071 115.896 100.16 115.227 100.832 114.741C101.504 114.255 102.389 114.012 103.487 114.012C104.369 114.012 105.125 114.171 105.755 114.489C106.391 114.801 106.847 115.275 107.123 115.911C107.261 116.211 107.348 116.538 107.384 116.892C107.42 117.24 107.438 117.606 107.438 117.99V124.002H106.016V121.671L106.349 121.887C105.983 122.673 105.47 123.267 104.81 123.669C104.156 124.071 103.358 124.272 102.416 124.272ZM102.659 122.931C103.235 122.931 103.733 122.829 104.153 122.625C104.579 122.415 104.921 122.142 105.179 121.806C105.437 121.464 105.605 121.092 105.683 120.69C105.773 120.39 105.821 120.057 105.827 119.691C105.839 119.319 105.845 119.034 105.845 118.836L106.403 119.079C105.881 119.151 105.368 119.22 104.864 119.286C104.36 119.352 103.883 119.424 103.433 119.502C102.983 119.574 102.578 119.661 102.218 119.763C101.954 119.847 101.705 119.955 101.471 120.087C101.243 120.219 101.057 120.39 100.913 120.6C100.775 120.804 100.706 121.059 100.706 121.365C100.706 121.629 100.772 121.881 100.904 122.121C101.042 122.361 101.252 122.556 101.534 122.706C101.822 122.856 102.197 122.931 102.659 122.931ZM110.705 124.002V113.751C110.705 113.499 110.717 113.244 110.741 112.986C110.765 112.722 110.819 112.467 110.903 112.221C110.987 111.969 111.125 111.738 111.317 111.528C111.539 111.282 111.782 111.108 112.046 111.006C112.31 110.898 112.577 110.832 112.847 110.808C113.123 110.784 113.384 110.772 113.63 110.772H114.863V112.104H113.72C113.246 112.104 112.892 112.221 112.658 112.455C112.424 112.683 112.307 113.031 112.307 113.499V124.002H110.705ZM109.058 115.605V114.282H114.863V115.605H109.058ZM121.727 124.002C121.151 124.116 120.581 124.161 120.017 124.137C119.459 124.119 118.961 124.008 118.523 123.804C118.085 123.594 117.752 123.27 117.524 122.832C117.332 122.448 117.227 122.061 117.209 121.671C117.197 121.275 117.191 120.828 117.191 120.33V111.582H118.793V120.258C118.793 120.654 118.796 120.993 118.802 121.275C118.814 121.557 118.877 121.8 118.991 122.004C119.207 122.388 119.549 122.613 120.017 122.679C120.491 122.745 121.061 122.727 121.727 122.625V124.002ZM115.22 115.605V114.282H121.727V115.605H115.22ZM127.508 124.272C126.554 124.272 125.72 124.062 125.006 123.642C124.298 123.216 123.746 122.625 123.35 121.869C122.954 121.107 122.756 120.219 122.756 119.205C122.756 118.143 122.951 117.225 123.341 116.451C123.731 115.671 124.274 115.071 124.97 114.651C125.672 114.225 126.494 114.012 127.436 114.012C128.414 114.012 129.245 114.237 129.929 114.687C130.619 115.137 131.135 115.779 131.477 116.613C131.825 117.447 131.975 118.44 131.927 119.592H130.307V119.016C130.289 117.822 130.046 116.931 129.578 116.343C129.11 115.749 128.414 115.452 127.49 115.452C126.5 115.452 125.747 115.77 125.231 116.406C124.715 117.042 124.457 117.954 124.457 119.142C124.457 120.288 124.715 121.176 125.231 121.806C125.747 122.436 126.482 122.751 127.436 122.751C128.078 122.751 128.636 122.604 129.11 122.31C129.584 122.016 129.956 121.593 130.226 121.041L131.765 121.572C131.387 122.43 130.817 123.096 130.055 123.57C129.299 124.038 128.45 124.272 127.508 124.272ZM123.917 119.592V118.305H131.099V119.592H123.917ZM133.93 124.002V114.282H135.361V116.631L135.127 116.325C135.241 116.025 135.388 115.749 135.568 115.497C135.754 115.245 135.961 115.038 136.189 114.876C136.441 114.672 136.726 114.516 137.044 114.408C137.362 114.3 137.686 114.237 138.016 114.219C138.346 114.195 138.655 114.216 138.943 114.282V115.785C138.607 115.695 138.238 115.671 137.836 115.713C137.434 115.755 137.062 115.902 136.72 116.154C136.408 116.376 136.165 116.646 135.991 116.964C135.823 117.282 135.706 117.627 135.64 117.999C135.574 118.365 135.541 118.74 135.541 119.124V124.002H133.93ZM144.429 112.563V110.907H146.031V112.563H144.429ZM144.429 124.002V114.282H146.031V124.002H144.429ZM152.547 124.272C151.641 124.272 150.864 124.047 150.216 123.597C149.568 123.141 149.067 122.526 148.713 121.752C148.365 120.978 148.191 120.105 148.191 119.133C148.191 118.161 148.365 117.288 148.713 116.514C149.067 115.74 149.568 115.131 150.216 114.687C150.864 114.237 151.638 114.012 152.538 114.012C153.456 114.012 154.227 114.234 154.851 114.678C155.475 115.122 155.946 115.731 156.264 116.505C156.588 117.279 156.75 118.155 156.75 119.133C156.75 120.099 156.588 120.972 156.264 121.752C155.946 122.526 155.475 123.141 154.851 123.597C154.227 124.047 153.459 124.272 152.547 124.272ZM152.745 122.805C153.399 122.805 153.936 122.649 154.356 122.337C154.776 122.019 155.085 121.584 155.283 121.032C155.487 120.474 155.589 119.841 155.589 119.133C155.589 118.413 155.487 117.78 155.283 117.234C155.085 116.682 154.779 116.253 154.365 115.947C153.951 115.635 153.426 115.479 152.79 115.479C152.13 115.479 151.584 115.641 151.152 115.965C150.726 116.289 150.408 116.727 150.198 117.279C149.994 117.831 149.892 118.449 149.892 119.133C149.892 119.823 149.997 120.447 150.207 121.005C150.417 121.557 150.732 121.995 151.152 122.319C151.578 122.643 152.109 122.805 152.745 122.805ZM155.589 124.002V116.847H155.409V111.042H157.02V124.002H155.589ZM163.754 124.272C162.8 124.272 161.966 124.062 161.252 123.642C160.544 123.216 159.992 122.625 159.596 121.869C159.2 121.107 159.002 120.219 159.002 119.205C159.002 118.143 159.197 117.225 159.587 116.451C159.977 115.671 160.52 115.071 161.216 114.651C161.918 114.225 162.74 114.012 163.682 114.012C164.66 114.012 165.491 114.237 166.175 114.687C166.865 115.137 167.381 115.779 167.723 116.613C168.071 117.447 168.221 118.44 168.173 119.592H166.553V119.016C166.535 117.822 166.292 116.931 165.824 116.343C165.356 115.749 164.66 115.452 163.736 115.452C162.746 115.452 161.993 115.77 161.477 116.406C160.961 117.042 160.703 117.954 160.703 119.142C160.703 120.288 160.961 121.176 161.477 121.806C161.993 122.436 162.728 122.751 163.682 122.751C164.324 122.751 164.882 122.604 165.356 122.31C165.83 122.016 166.202 121.593 166.472 121.041L168.011 121.572C167.633 122.43 167.063 123.096 166.301 123.57C165.545 124.038 164.696 124.272 163.754 124.272ZM160.163 119.592V118.305H167.345V119.592H160.163ZM176.834 124.002V119.133C176.834 118.671 176.792 118.227 176.708 117.801C176.63 117.375 176.489 116.994 176.285 116.658C176.087 116.316 175.817 116.046 175.475 115.848C175.139 115.65 174.713 115.551 174.197 115.551C173.795 115.551 173.429 115.62 173.099 115.758C172.775 115.89 172.496 116.094 172.262 116.37C172.028 116.646 171.845 116.994 171.713 117.414C171.587 117.828 171.524 118.317 171.524 118.881L170.471 118.557C170.471 117.615 170.639 116.808 170.975 116.136C171.317 115.458 171.794 114.939 172.406 114.579C173.024 114.213 173.75 114.03 174.584 114.03C175.214 114.03 175.751 114.129 176.195 114.327C176.639 114.525 177.008 114.789 177.302 115.119C177.596 115.443 177.827 115.809 177.995 116.217C178.163 116.619 178.28 117.03 178.346 117.45C178.418 117.864 178.454 118.257 178.454 118.629V124.002H176.834ZM169.904 124.002V114.282H171.344V116.883H171.524V124.002H169.904ZM186.221 124.002C185.645 124.116 185.075 124.161 184.511 124.137C183.953 124.119 183.455 124.008 183.017 123.804C182.579 123.594 182.246 123.27 182.018 122.832C181.826 122.448 181.721 122.061 181.703 121.671C181.691 121.275 181.685 120.828 181.685 120.33V111.582H183.287V120.258C183.287 120.654 183.29 120.993 183.296 121.275C183.308 121.557 183.371 121.8 183.485 122.004C183.701 122.388 184.043 122.613 184.511 122.679C184.985 122.745 185.555 122.727 186.221 122.625V124.002ZM179.714 115.605V114.282H186.221V115.605H179.714ZM188.374 112.563V110.907H189.976V112.563H188.374ZM188.374 124.002V114.282H189.976V124.002H188.374ZM198.104 124.002C197.528 124.116 196.958 124.161 196.394 124.137C195.836 124.119 195.338 124.008 194.9 123.804C194.462 123.594 194.129 123.27 193.901 122.832C193.709 122.448 193.604 122.061 193.586 121.671C193.574 121.275 193.568 120.828 193.568 120.33V111.582H195.17V120.258C195.17 120.654 195.173 120.993 195.179 121.275C195.191 121.557 195.254 121.8 195.368 122.004C195.584 122.388 195.926 122.613 196.394 122.679C196.868 122.745 197.438 122.727 198.104 122.625V124.002ZM191.597 115.605V114.282H198.104V115.605H191.597ZM201.163 128.322L203.044 123.21L203.071 124.722L198.823 114.282H200.506L203.836 122.679H203.26L206.383 114.282H208.012L202.72 128.322H201.163ZM215.73 124.002L212.202 114.282H213.822L216.549 121.959L219.267 114.282H220.896L217.368 124.002H215.73ZM226.385 124.272C225.431 124.272 224.597 124.062 223.883 123.642C223.175 123.216 222.623 122.625 222.227 121.869C221.831 121.107 221.633 120.219 221.633 119.205C221.633 118.143 221.828 117.225 222.218 116.451C222.608 115.671 223.151 115.071 223.847 114.651C224.549 114.225 225.371 114.012 226.313 114.012C227.291 114.012 228.122 114.237 228.806 114.687C229.496 115.137 230.012 115.779 230.354 116.613C230.702 117.447 230.852 118.44 230.804 119.592H229.184V119.016C229.166 117.822 228.923 116.931 228.455 116.343C227.987 115.749 227.291 115.452 226.367 115.452C225.377 115.452 224.624 115.77 224.108 116.406C223.592 117.042 223.334 117.954 223.334 119.142C223.334 120.288 223.592 121.176 224.108 121.806C224.624 122.436 225.359 122.751 226.313 122.751C226.955 122.751 227.513 122.604 227.987 122.31C228.461 122.016 228.833 121.593 229.103 121.041L230.642 121.572C230.264 122.43 229.694 123.096 228.932 123.57C228.176 124.038 227.327 124.272 226.385 124.272ZM222.794 119.592V118.305H229.976V119.592H222.794ZM232.807 124.002V114.282H234.238V116.631L234.004 116.325C234.118 116.025 234.265 115.749 234.445 115.497C234.631 115.245 234.838 115.038 235.066 114.876C235.318 114.672 235.603 114.516 235.921 114.408C236.239 114.3 236.563 114.237 236.893 114.219C237.223 114.195 237.532 114.216 237.82 114.282V115.785C237.484 115.695 237.115 115.671 236.713 115.713C236.311 115.755 235.939 115.902 235.597 116.154C235.285 116.376 235.042 116.646 234.868 116.964C234.7 117.282 234.583 117.627 234.517 117.999C234.451 118.365 234.418 118.74 234.418 119.124V124.002H232.807ZM239.702 112.563V110.907H241.304V112.563H239.702ZM239.702 124.002V114.282H241.304V124.002H239.702ZM244.932 124.002V113.751C244.932 113.499 244.944 113.244 244.968 112.986C244.992 112.722 245.046 112.467 245.13 112.221C245.214 111.969 245.352 111.738 245.544 111.528C245.766 111.282 246.009 111.108 246.273 111.006C246.537 110.898 246.804 110.832 247.074 110.808C247.35 110.784 247.611 110.772 247.857 110.772H249.09V112.104H247.947C247.473 112.104 247.119 112.221 246.885 112.455C246.651 112.683 246.534 113.031 246.534 113.499V124.002H244.932ZM243.285 115.605V114.282H249.09V115.605H243.285ZM250.98 112.563V110.907H252.582V112.563H250.98ZM250.98 124.002V114.282H252.582V124.002H250.98ZM259.385 124.272C258.401 124.272 257.564 124.053 256.874 123.615C256.19 123.171 255.668 122.562 255.308 121.788C254.948 121.014 254.762 120.132 254.75 119.142C254.762 118.128 254.951 117.237 255.317 116.469C255.689 115.695 256.22 115.092 256.91 114.66C257.6 114.228 258.431 114.012 259.403 114.012C260.429 114.012 261.311 114.264 262.049 114.768C262.793 115.272 263.291 115.962 263.543 116.838L261.959 117.315C261.755 116.751 261.422 116.313 260.96 116.001C260.504 115.689 259.979 115.533 259.385 115.533C258.719 115.533 258.17 115.689 257.738 116.001C257.306 116.307 256.985 116.733 256.775 117.279C256.565 117.819 256.457 118.44 256.451 119.142C256.463 120.222 256.712 121.095 257.198 121.761C257.69 122.421 258.419 122.751 259.385 122.751C260.021 122.751 260.549 122.607 260.969 122.319C261.389 122.025 261.707 121.602 261.923 121.05L263.543 121.473C263.207 122.379 262.682 123.072 261.968 123.552C261.254 124.032 260.393 124.272 259.385 124.272ZM268.055 124.272C267.329 124.272 266.72 124.14 266.228 123.876C265.742 123.606 265.373 123.252 265.121 122.814C264.875 122.376 264.752 121.896 264.752 121.374C264.752 120.864 264.848 120.423 265.04 120.051C265.238 119.673 265.514 119.361 265.868 119.115C266.222 118.863 266.645 118.665 267.137 118.521C267.599 118.395 268.115 118.287 268.685 118.197C269.261 118.101 269.843 118.014 270.431 117.936C271.019 117.858 271.568 117.783 272.078 117.711L271.502 118.044C271.52 117.18 271.346 116.541 270.98 116.127C270.62 115.713 269.996 115.506 269.108 115.506C268.52 115.506 268.004 115.641 267.56 115.911C267.122 116.175 266.813 116.607 266.633 117.207L265.112 116.748C265.346 115.896 265.799 115.227 266.471 114.741C267.143 114.255 268.028 114.012 269.126 114.012C270.008 114.012 270.764 114.171 271.394 114.489C272.03 114.801 272.486 115.275 272.762 115.911C272.9 116.211 272.987 116.538 273.023 116.892C273.059 117.24 273.077 117.606 273.077 117.99V124.002H271.655V121.671L271.988 121.887C271.622 122.673 271.109 123.267 270.449 123.669C269.795 124.071 268.997 124.272 268.055 124.272ZM268.298 122.931C268.874 122.931 269.372 122.829 269.792 122.625C270.218 122.415 270.56 122.142 270.818 121.806C271.076 121.464 271.244 121.092 271.322 120.69C271.412 120.39 271.46 120.057 271.466 119.691C271.478 119.319 271.484 119.034 271.484 118.836L272.042 119.079C271.52 119.151 271.007 119.22 270.503 119.286C269.999 119.352 269.522 119.424 269.072 119.502C268.622 119.574 268.217 119.661 267.857 119.763C267.593 119.847 267.344 119.955 267.11 120.087C266.882 120.219 266.696 120.39 266.552 120.6C266.414 120.804 266.345 121.059 266.345 121.365C266.345 121.629 266.411 121.881 266.543 122.121C266.681 122.361 266.891 122.556 267.173 122.706C267.461 122.856 267.836 122.931 268.298 122.931ZM280.844 124.002C280.268 124.116 279.698 124.161 279.134 124.137C278.576 124.119 278.078 124.008 277.64 123.804C277.202 123.594 276.869 123.27 276.641 122.832C276.449 122.448 276.344 122.061 276.326 121.671C276.314 121.275 276.308 120.828 276.308 120.33V111.582H277.91V120.258C277.91 120.654 277.913 120.993 277.919 121.275C277.931 121.557 277.994 121.8 278.108 122.004C278.324 122.388 278.666 122.613 279.134 122.679C279.608 122.745 280.178 122.727 280.844 122.625V124.002ZM274.337 115.605V114.282H280.844V115.605H274.337ZM282.997 112.563V110.907H284.599V112.563H282.997ZM282.997 124.002V114.282H284.599V124.002H282.997ZM291.44 124.272C290.474 124.272 289.64 124.053 288.938 123.615C288.242 123.177 287.705 122.571 287.327 121.797C286.949 121.023 286.76 120.135 286.76 119.133C286.76 118.113 286.952 117.219 287.336 116.451C287.72 115.683 288.263 115.086 288.965 114.66C289.667 114.228 290.492 114.012 291.44 114.012C292.412 114.012 293.249 114.231 293.951 114.669C294.653 115.101 295.19 115.704 295.562 116.478C295.94 117.246 296.129 118.131 296.129 119.133C296.129 120.147 295.94 121.041 295.562 121.815C295.184 122.583 294.644 123.186 293.942 123.624C293.24 124.056 292.406 124.272 291.44 124.272ZM291.44 122.751C292.448 122.751 293.198 122.415 293.69 121.743C294.182 121.071 294.428 120.201 294.428 119.133C294.428 118.035 294.179 117.162 293.681 116.514C293.183 115.86 292.436 115.533 291.44 115.533C290.762 115.533 290.204 115.686 289.766 115.992C289.328 116.298 289.001 116.721 288.785 117.261C288.569 117.801 288.461 118.425 288.461 119.133C288.461 120.225 288.713 121.101 289.217 121.761C289.721 122.421 290.462 122.751 291.44 122.751ZM305.031 124.002V119.133C305.031 118.671 304.989 118.227 304.905 117.801C304.827 117.375 304.686 116.994 304.482 116.658C304.284 116.316 304.014 116.046 303.672 115.848C303.336 115.65 302.91 115.551 302.394 115.551C301.992 115.551 301.626 115.62 301.296 115.758C300.972 115.89 300.693 116.094 300.459 116.37C300.225 116.646 300.042 116.994 299.91 117.414C299.784 117.828 299.721 118.317 299.721 118.881L298.668 118.557C298.668 117.615 298.836 116.808 299.172 116.136C299.514 115.458 299.991 114.939 300.603 114.579C301.221 114.213 301.947 114.03 302.781 114.03C303.411 114.03 303.948 114.129 304.392 114.327C304.836 114.525 305.205 114.789 305.499 115.119C305.793 115.443 306.024 115.809 306.192 116.217C306.36 116.619 306.477 117.03 306.543 117.45C306.615 117.864 306.651 118.257 306.651 118.629V124.002H305.031ZM298.101 124.002V114.282H299.541V116.883H299.721V124.002H298.101ZM74.7037 152.296C74.0017 151.486 73.3987 150.577 72.8947 149.569C72.3907 148.561 72.0037 147.502 71.7337 146.392C71.4637 145.282 71.3347 144.172 71.3467 143.062C71.3347 141.946 71.4637 140.833 71.7337 139.723C72.0037 138.613 72.3907 137.557 72.8947 136.555C73.3987 135.547 74.0017 134.638 74.7037 133.828L75.8917 134.728C75.1837 135.568 74.6017 136.441 74.1457 137.347C73.6957 138.253 73.3627 139.186 73.1467 140.146C72.9307 141.1 72.8197 142.072 72.8137 143.062C72.8197 144.04 72.9307 145.012 73.1467 145.978C73.3687 146.938 73.7047 147.874 74.1547 148.786C74.6107 149.692 75.1897 150.559 75.8917 151.387L74.7037 152.296ZM80.3204 149.272C79.5944 149.272 78.9854 149.14 78.4934 148.876C78.0074 148.606 77.6384 148.252 77.3864 147.814C77.1404 147.376 77.0174 146.896 77.0174 146.374C77.0174 145.864 77.1134 145.423 77.3054 145.051C77.5034 144.673 77.7794 144.361 78.1334 144.115C78.4874 143.863 78.9104 143.665 79.4024 143.521C79.8644 143.395 80.3804 143.287 80.9504 143.197C81.5264 143.101 82.1084 143.014 82.6964 142.936C83.2844 142.858 83.8334 142.783 84.3434 142.711L83.7674 143.044C83.7854 142.18 83.6114 141.541 83.2454 141.127C82.8854 140.713 82.2614 140.506 81.3734 140.506C80.7854 140.506 80.2694 140.641 79.8254 140.911C79.3874 141.175 79.0784 141.607 78.8984 142.207L77.3774 141.748C77.6114 140.896 78.0644 140.227 78.7364 139.741C79.4084 139.255 80.2934 139.012 81.3914 139.012C82.2734 139.012 83.0294 139.171 83.6594 139.489C84.2954 139.801 84.7514 140.275 85.0274 140.911C85.1654 141.211 85.2524 141.538 85.2884 141.892C85.3244 142.24 85.3424 142.606 85.3424 142.99V149.002H83.9204V146.671L84.2534 146.887C83.8874 147.673 83.3744 148.267 82.7144 148.669C82.0604 149.071 81.2624 149.272 80.3204 149.272ZM80.5634 147.931C81.1394 147.931 81.6374 147.829 82.0574 147.625C82.4834 147.415 82.8254 147.142 83.0834 146.806C83.3414 146.464 83.5094 146.092 83.5874 145.69C83.6774 145.39 83.7254 145.057 83.7314 144.691C83.7434 144.319 83.7494 144.034 83.7494 143.836L84.3074 144.079C83.7854 144.151 83.2724 144.22 82.7684 144.286C82.2644 144.352 81.7874 144.424 81.3374 144.502C80.8874 144.574 80.4824 144.661 80.1224 144.763C79.8584 144.847 79.6094 144.955 79.3754 145.087C79.1474 145.219 78.9614 145.39 78.8174 145.6C78.6794 145.804 78.6104 146.059 78.6104 146.365C78.6104 146.629 78.6764 146.881 78.8084 147.121C78.9464 147.361 79.1564 147.556 79.4384 147.706C79.7264 147.856 80.1014 147.931 80.5634 147.931ZM92.1464 149.272C91.2344 149.272 90.4664 149.047 89.8424 148.597C89.2184 148.141 88.7444 147.526 88.4204 146.752C88.1024 145.972 87.9434 145.099 87.9434 144.133C87.9434 143.155 88.1024 142.279 88.4204 141.505C88.7444 140.731 89.2184 140.122 89.8424 139.678C90.4724 139.234 91.2434 139.012 92.1554 139.012C93.0554 139.012 93.8294 139.237 94.4774 139.687C95.1314 140.131 95.6324 140.74 95.9804 141.514C96.3284 142.288 96.5024 143.161 96.5024 144.133C96.5024 145.105 96.3284 145.978 95.9804 146.752C95.6324 147.526 95.1314 148.141 94.4774 148.597C93.8294 149.047 93.0524 149.272 92.1464 149.272ZM87.6734 153.322V139.282H89.1044V146.437H89.2844V153.322H87.6734ZM91.9484 147.805C92.5904 147.805 93.1214 147.643 93.5414 147.319C93.9614 146.995 94.2764 146.557 94.4864 146.005C94.6964 145.447 94.8014 144.823 94.8014 144.133C94.8014 143.449 94.6964 142.831 94.4864 142.279C94.2824 141.727 93.9644 141.289 93.5324 140.965C93.1064 140.641 92.5634 140.479 91.9034 140.479C91.2734 140.479 90.7514 140.635 90.3374 140.947C89.9234 141.253 89.6144 141.682 89.4104 142.234C89.2064 142.78 89.1044 143.413 89.1044 144.133C89.1044 144.841 89.2034 145.474 89.4014 146.032C89.6054 146.584 89.9174 147.019 90.3374 147.337C90.7574 147.649 91.2944 147.805 91.9484 147.805ZM102.939 149.272C102.027 149.272 101.259 149.047 100.635 148.597C100.011 148.141 99.5373 147.526 99.2133 146.752C98.8953 145.972 98.7363 145.099 98.7363 144.133C98.7363 143.155 98.8953 142.279 99.2133 141.505C99.5373 140.731 100.011 140.122 100.635 139.678C101.265 139.234 102.036 139.012 102.948 139.012C103.848 139.012 104.622 139.237 105.27 139.687C105.924 140.131 106.425 140.74 106.773 141.514C107.121 142.288 107.295 143.161 107.295 144.133C107.295 145.105 107.121 145.978 106.773 146.752C106.425 147.526 105.924 148.141 105.27 148.597C104.622 149.047 103.845 149.272 102.939 149.272ZM98.4663 153.322V139.282H99.8973V146.437H100.077V153.322H98.4663ZM102.741 147.805C103.383 147.805 103.914 147.643 104.334 147.319C104.754 146.995 105.069 146.557 105.279 146.005C105.489 145.447 105.594 144.823 105.594 144.133C105.594 143.449 105.489 142.831 105.279 142.279C105.075 141.727 104.757 141.289 104.325 140.965C103.899 140.641 103.356 140.479 102.696 140.479C102.066 140.479 101.544 140.635 101.13 140.947C100.716 141.253 100.407 141.682 100.203 142.234C99.9993 142.78 99.8973 143.413 99.8973 144.133C99.8973 144.841 99.9963 145.474 100.194 146.032C100.398 146.584 100.71 147.019 101.13 147.337C101.55 147.649 102.087 147.805 102.741 147.805ZM109.268 149.002V139.282H110.699V141.631L110.465 141.325C110.579 141.025 110.726 140.749 110.906 140.497C111.092 140.245 111.299 140.038 111.527 139.876C111.779 139.672 112.064 139.516 112.382 139.408C112.7 139.3 113.024 139.237 113.354 139.219C113.684 139.195 113.993 139.216 114.281 139.282V140.785C113.945 140.695 113.576 140.671 113.174 140.713C112.772 140.755 112.4 140.902 112.058 141.154C111.746 141.376 111.503 141.646 111.329 141.964C111.161 142.282 111.044 142.627 110.978 142.999C110.912 143.365 110.879 143.74 110.879 144.124V149.002H109.268ZM119.947 149.272C118.981 149.272 118.147 149.053 117.445 148.615C116.749 148.177 116.212 147.571 115.834 146.797C115.456 146.023 115.267 145.135 115.267 144.133C115.267 143.113 115.459 142.219 115.843 141.451C116.227 140.683 116.77 140.086 117.472 139.66C118.174 139.228 118.999 139.012 119.947 139.012C120.919 139.012 121.756 139.231 122.458 139.669C123.16 140.101 123.697 140.704 124.069 141.478C124.447 142.246 124.636 143.131 124.636 144.133C124.636 145.147 124.447 146.041 124.069 146.815C123.691 147.583 123.151 148.186 122.449 148.624C121.747 149.056 120.913 149.272 119.947 149.272ZM119.947 147.751C120.955 147.751 121.705 147.415 122.197 146.743C122.689 146.071 122.935 145.201 122.935 144.133C122.935 143.035 122.686 142.162 122.188 141.514C121.69 140.86 120.943 140.533 119.947 140.533C119.269 140.533 118.711 140.686 118.273 140.992C117.835 141.298 117.508 141.721 117.292 142.261C117.076 142.801 116.968 143.425 116.968 144.133C116.968 145.225 117.22 146.101 117.724 146.761C118.228 147.421 118.969 147.751 119.947 147.751ZM125.309 149.002L129.026 144.088L125.39 139.282H127.298L129.962 142.846L132.599 139.282H134.507L130.871 144.088L134.597 149.002H132.68L129.962 145.33L127.226 149.002H125.309ZM136.328 149.002V147.238H138.092V149.002H136.328ZM148.05 149.254C147.408 149.254 146.811 149.137 146.259 148.903C145.707 148.663 145.23 148.327 144.828 147.895C144.432 147.457 144.141 146.938 143.955 146.338L145.494 145.897C145.692 146.497 146.022 146.953 146.484 147.265C146.946 147.577 147.465 147.73 148.041 147.724C148.569 147.712 149.025 147.592 149.409 147.364C149.799 147.13 150.099 146.812 150.309 146.41C150.525 146.008 150.633 145.543 150.633 145.015C150.633 144.211 150.393 143.56 149.913 143.062C149.433 142.558 148.803 142.306 148.023 142.306C147.807 142.306 147.579 142.336 147.339 142.396C147.105 142.456 146.886 142.54 146.682 142.648L145.908 141.379L150.714 137.032L150.921 137.572H144.468V136.042H152.109V137.581L148.014 141.505L147.996 140.938C148.854 140.878 149.604 141.019 150.246 141.361C150.888 141.703 151.386 142.192 151.74 142.828C152.1 143.464 152.28 144.193 152.28 145.015C152.28 145.843 152.094 146.575 151.722 147.211C151.35 147.847 150.846 148.348 150.21 148.714C149.574 149.074 148.854 149.254 148.05 149.254ZM160.293 149.002L157.323 139.273L158.916 139.282L161.085 146.392L163.272 139.282H164.685L166.863 146.392L169.041 139.282H170.625L167.655 149.002H166.323L163.974 141.613L161.625 149.002H160.293ZM176.039 149.272C175.073 149.272 174.239 149.053 173.537 148.615C172.841 148.177 172.304 147.571 171.926 146.797C171.548 146.023 171.359 145.135 171.359 144.133C171.359 143.113 171.551 142.219 171.935 141.451C172.319 140.683 172.862 140.086 173.564 139.66C174.266 139.228 175.091 139.012 176.039 139.012C177.011 139.012 177.848 139.231 178.55 139.669C179.252 140.101 179.789 140.704 180.161 141.478C180.539 142.246 180.728 143.131 180.728 144.133C180.728 145.147 180.539 146.041 180.161 146.815C179.783 147.583 179.243 148.186 178.541 148.624C177.839 149.056 177.005 149.272 176.039 149.272ZM176.039 147.751C177.047 147.751 177.797 147.415 178.289 146.743C178.781 146.071 179.027 145.201 179.027 144.133C179.027 143.035 178.778 142.162 178.28 141.514C177.782 140.86 177.035 140.533 176.039 140.533C175.361 140.533 174.803 140.686 174.365 140.992C173.927 141.298 173.6 141.721 173.384 142.261C173.168 142.801 173.06 143.425 173.06 144.133C173.06 145.225 173.312 146.101 173.816 146.761C174.32 147.421 175.061 147.751 176.039 147.751ZM182.71 149.002V139.282H184.141V141.631L183.907 141.325C184.021 141.025 184.168 140.749 184.348 140.497C184.534 140.245 184.741 140.038 184.969 139.876C185.221 139.672 185.506 139.516 185.824 139.408C186.142 139.3 186.466 139.237 186.796 139.219C187.126 139.195 187.435 139.216 187.723 139.282V140.785C187.387 140.695 187.018 140.671 186.616 140.713C186.214 140.755 185.842 140.902 185.5 141.154C185.188 141.376 184.945 141.646 184.771 141.964C184.603 142.282 184.486 142.627 184.42 142.999C184.354 143.365 184.321 143.74 184.321 144.124V149.002H182.71ZM189.416 149.002L189.425 136.042H191.045V143.962L195.122 139.282H197.201L192.908 144.142L197.705 149.002H195.464L191.045 144.322V149.002H189.416ZM198.78 137.563V135.907H200.382V137.563H198.78ZM198.78 149.002V139.282H200.382V149.002H198.78ZM210.004 149.002V144.133C210.004 143.671 209.962 143.227 209.878 142.801C209.8 142.375 209.659 141.994 209.455 141.658C209.257 141.316 208.987 141.046 208.645 140.848C208.309 140.65 207.883 140.551 207.367 140.551C206.965 140.551 206.599 140.62 206.269 140.758C205.945 140.89 205.666 141.094 205.432 141.37C205.198 141.646 205.015 141.994 204.883 142.414C204.757 142.828 204.694 143.317 204.694 143.881L203.641 143.557C203.641 142.615 203.809 141.808 204.145 141.136C204.487 140.458 204.964 139.939 205.576 139.579C206.194 139.213 206.92 139.03 207.754 139.03C208.384 139.03 208.921 139.129 209.365 139.327C209.809 139.525 210.178 139.789 210.472 140.119C210.766 140.443 210.997 140.809 211.165 141.217C211.333 141.619 211.45 142.03 211.516 142.45C211.588 142.864 211.624 143.257 211.624 143.629V149.002H210.004ZM203.074 149.002V139.282H204.514V141.883H204.694V149.002H203.074ZM217.897 153.592C217.387 153.592 216.889 153.514 216.403 153.358C215.917 153.202 215.47 152.965 215.062 152.647C214.66 152.335 214.324 151.939 214.054 151.459L215.521 150.685C215.761 151.159 216.1 151.504 216.538 151.72C216.982 151.936 217.438 152.044 217.906 152.044C218.524 152.044 219.037 151.93 219.445 151.702C219.853 151.48 220.153 151.147 220.345 150.703C220.543 150.259 220.639 149.707 220.633 149.047V146.392H220.822V139.282H222.244V149.065C222.244 149.329 222.235 149.584 222.217 149.83C222.205 150.076 222.175 150.319 222.127 150.559C222.001 151.249 221.752 151.816 221.38 152.26C221.008 152.71 220.528 153.043 219.94 153.259C219.352 153.481 218.671 153.592 217.897 153.592ZM217.78 149.272C216.874 149.272 216.097 149.047 215.449 148.597C214.801 148.141 214.3 147.526 213.946 146.752C213.598 145.978 213.424 145.105 213.424 144.133C213.424 143.161 213.598 142.288 213.946 141.514C214.3 140.74 214.801 140.131 215.449 139.687C216.097 139.237 216.871 139.012 217.771 139.012C218.689 139.012 219.46 139.234 220.084 139.678C220.708 140.122 221.179 140.731 221.497 141.505C221.821 142.279 221.983 143.155 221.983 144.133C221.983 145.099 221.821 145.972 221.497 146.752C221.179 147.526 220.708 148.141 220.084 148.597C219.46 149.047 218.692 149.272 217.78 149.272ZM217.978 147.805C218.632 147.805 219.169 147.649 219.589 147.337C220.009 147.019 220.318 146.584 220.516 146.032C220.72 145.474 220.822 144.841 220.822 144.133C220.822 143.413 220.72 142.78 220.516 142.234C220.318 141.682 220.012 141.253 219.598 140.947C219.184 140.635 218.659 140.479 218.023 140.479C217.363 140.479 216.817 140.641 216.385 140.965C215.959 141.289 215.641 141.727 215.431 142.279C215.227 142.831 215.125 143.449 215.125 144.133C215.125 144.823 215.23 145.447 215.44 146.005C215.65 146.557 215.965 146.995 216.385 147.319C216.811 147.643 217.342 147.805 217.978 147.805ZM232.176 149.272C231.27 149.272 230.493 149.047 229.845 148.597C229.197 148.141 228.696 147.526 228.342 146.752C227.994 145.978 227.82 145.105 227.82 144.133C227.82 143.161 227.994 142.288 228.342 141.514C228.696 140.74 229.197 140.131 229.845 139.687C230.493 139.237 231.267 139.012 232.167 139.012C233.085 139.012 233.856 139.234 234.48 139.678C235.104 140.122 235.575 140.731 235.893 141.505C236.217 142.279 236.379 143.155 236.379 144.133C236.379 145.099 236.217 145.972 235.893 146.752C235.575 147.526 235.104 148.141 234.48 148.597C233.856 149.047 233.088 149.272 232.176 149.272ZM232.374 147.805C233.028 147.805 233.565 147.649 233.985 147.337C234.405 147.019 234.714 146.584 234.912 146.032C235.116 145.474 235.218 144.841 235.218 144.133C235.218 143.413 235.116 142.78 234.912 142.234C234.714 141.682 234.408 141.253 233.994 140.947C233.58 140.635 233.055 140.479 232.419 140.479C231.759 140.479 231.213 140.641 230.781 140.965C230.355 141.289 230.037 141.727 229.827 142.279C229.623 142.831 229.521 143.449 229.521 144.133C229.521 144.823 229.626 145.447 229.836 146.005C230.046 146.557 230.361 146.995 230.781 147.319C231.207 147.643 231.738 147.805 232.374 147.805ZM235.218 149.002V141.847H235.038V136.042H236.649V149.002H235.218ZM241.934 149.272C241.208 149.272 240.599 149.14 240.107 148.876C239.621 148.606 239.252 148.252 239 147.814C238.754 147.376 238.631 146.896 238.631 146.374C238.631 145.864 238.727 145.423 238.919 145.051C239.117 144.673 239.393 144.361 239.747 144.115C240.101 143.863 240.524 143.665 241.016 143.521C241.478 143.395 241.994 143.287 242.564 143.197C243.14 143.101 243.722 143.014 244.31 142.936C244.898 142.858 245.447 142.783 245.957 142.711L245.381 143.044C245.399 142.18 245.225 141.541 244.859 141.127C244.499 140.713 243.875 140.506 242.987 140.506C242.399 140.506 241.883 140.641 241.439 140.911C241.001 141.175 240.692 141.607 240.512 142.207L238.991 141.748C239.225 140.896 239.678 140.227 240.35 139.741C241.022 139.255 241.907 139.012 243.005 139.012C243.887 139.012 244.643 139.171 245.273 139.489C245.909 139.801 246.365 140.275 246.641 140.911C246.779 141.211 246.866 141.538 246.902 141.892C246.938 142.24 246.956 142.606 246.956 142.99V149.002H245.534V146.671L245.867 146.887C245.501 147.673 244.988 148.267 244.328 148.669C243.674 149.071 242.876 149.272 241.934 149.272ZM242.177 147.931C242.753 147.931 243.251 147.829 243.671 147.625C244.097 147.415 244.439 147.142 244.697 146.806C244.955 146.464 245.123 146.092 245.201 145.69C245.291 145.39 245.339 145.057 245.345 144.691C245.357 144.319 245.363 144.034 245.363 143.836L245.921 144.079C245.399 144.151 244.886 144.22 244.382 144.286C243.878 144.352 243.401 144.424 242.951 144.502C242.501 144.574 242.096 144.661 241.736 144.763C241.472 144.847 241.223 144.955 240.989 145.087C240.761 145.219 240.575 145.39 240.431 145.6C240.293 145.804 240.224 146.059 240.224 146.365C240.224 146.629 240.29 146.881 240.422 147.121C240.56 147.361 240.77 147.556 241.052 147.706C241.34 147.856 241.715 147.931 242.177 147.931ZM250.101 153.322L251.982 148.21L252.009 149.722L247.761 139.282H249.444L252.774 147.679H252.198L255.321 139.282H256.95L251.658 153.322H250.101ZM262.108 149.263C260.95 149.263 259.999 149.011 259.255 148.507C258.517 147.997 258.064 147.286 257.896 146.374L259.534 146.113C259.666 146.641 259.969 147.061 260.443 147.373C260.917 147.679 261.505 147.832 262.207 147.832C262.873 147.832 263.395 147.694 263.773 147.418C264.151 147.142 264.34 146.767 264.34 146.293C264.34 146.017 264.277 145.795 264.151 145.627C264.025 145.453 263.764 145.291 263.368 145.141C262.978 144.991 262.387 144.811 261.595 144.601C260.737 144.373 260.062 144.136 259.57 143.89C259.078 143.644 258.727 143.359 258.517 143.035C258.307 142.711 258.202 142.318 258.202 141.856C258.202 141.286 258.358 140.788 258.67 140.362C258.982 139.93 259.417 139.597 259.975 139.363C260.539 139.129 261.193 139.012 261.937 139.012C262.675 139.012 263.335 139.129 263.917 139.363C264.499 139.597 264.967 139.93 265.321 140.362C265.681 140.788 265.894 141.286 265.96 141.856L264.322 142.153C264.244 141.631 263.992 141.22 263.566 140.92C263.146 140.62 262.603 140.461 261.937 140.443C261.307 140.419 260.794 140.53 260.398 140.776C260.008 141.022 259.813 141.355 259.813 141.775C259.813 142.009 259.885 142.21 260.029 142.378C260.179 142.546 260.452 142.705 260.848 142.855C261.25 143.005 261.832 143.176 262.594 143.368C263.452 143.584 264.127 143.821 264.619 144.079C265.117 144.331 265.471 144.631 265.681 144.979C265.891 145.321 265.996 145.744 265.996 146.248C265.996 147.184 265.651 147.922 264.961 148.462C264.271 148.996 263.32 149.263 262.108 149.263ZM268.305 152.296L267.117 151.387C267.819 150.559 268.395 149.692 268.845 148.786C269.301 147.874 269.64 146.938 269.862 145.978C270.084 145.012 270.195 144.04 270.195 143.062C270.195 142.072 270.084 141.1 269.862 140.146C269.646 139.186 269.31 138.253 268.854 137.347C268.404 136.441 267.825 135.568 267.117 134.728L268.305 133.828C269.007 134.638 269.61 135.547 270.114 136.555C270.624 137.557 271.011 138.613 271.275 139.723C271.545 140.833 271.674 141.946 271.662 143.062C271.674 144.172 271.545 145.282 271.275 146.392C271.011 147.502 270.624 148.561 270.114 149.569C269.61 150.577 269.007 151.486 268.305 152.296Z" fill="#4E4E4E"/>
<rect x="0.500488" y="34.502" width="342" height="143" rx="4.5" stroke="#FF9A2E"/>
<path d="M171.291 1.00195C168.83 4.53403 152.439 11.7869 146 11.7869V37.4012C146 49.4399 169.867 62.611 171.277 63.002C172.688 62.6245 196.554 48.5232 196.554 38.7493V11.7869C189.53 11.7869 173.752 4.53403 171.291 1.00195Z" fill="white" stroke="#FF9A2E" stroke-linejoin="round"/>
<path d="M171.079 5.57031C168.955 8.58627 154.811 14.7793 149.255 14.7793V36.6507C149.255 46.9303 169.851 58.1768 171.068 58.5107C172.285 58.1883 192.881 46.1475 192.881 37.8019V14.7793C186.819 14.7793 173.203 8.58627 171.079 5.57031Z" fill="white" stroke="#FF9A2E" stroke-linejoin="round"/>
<g clip-path="url(#clip0_4432_15811)">
<path d="M167.18 37.661L161.245 31.7099L159.267 33.6936L167.18 41.6284L184.138 24.6253L182.159 22.6416L167.18 37.661Z" fill="#FF9A2E"/>
</g>
<defs>
<clipPath id="clip0_4432_15811">
<rect width="33.9153" height="34.0062" fill="white" transform="translate(154.462 14.707)"/>
</clipPath>
</defs>
</svg>
