<svg width="27" height="24" viewBox="0 0 27 24" fill="none" xmlns="http://www.w3.org/2000/svg">
<g clip-path="url(#clip0_11827_701)">
<path d="M0 12.1661C0.182322 11.5258 0.626044 11.2106 1.25813 11.0464C2.77217 10.6526 4.27467 10.2133 5.78432 9.80255C5.97048 9.75202 6.04901 9.66526 6.0869 9.47854C6.31371 8.36484 6.55369 7.25334 6.78928 6.14129C6.80521 6.06605 6.82662 5.99247 6.85134 5.89526C7.32636 5.99301 7.78711 6.08527 8.24676 6.18302C10.1798 6.5938 12.1123 7.00786 14.0464 7.41369C14.1684 7.43951 14.3089 7.42303 14.4314 7.39063C15.4281 7.12484 16.4188 6.83598 17.4183 6.58336C18.0734 6.41752 18.6984 6.76623 18.934 7.39997C19.0405 7.68608 19.1234 7.98263 19.1904 8.28027C19.2311 8.45875 19.3091 8.53563 19.4914 8.57352C21.4349 8.97661 23.3767 9.38958 25.3185 9.80035C25.4976 9.83824 25.676 9.87778 25.8836 9.92281C25.7947 10.349 25.709 10.7647 25.6206 11.1793C25.3262 12.5648 25.0379 13.952 24.7342 15.3353C24.5475 16.1854 23.8984 16.5863 23.0499 16.404C22.5118 16.2881 21.9725 16.175 21.4338 16.0624C21.4189 16.0591 21.4014 16.0707 21.3596 16.0828C21.4953 16.5671 21.6441 17.0476 21.7605 17.5364C21.8242 17.8044 21.8929 18.0943 21.8544 18.3596C21.7715 18.9324 21.403 19.2844 20.8423 19.4398C19.0394 19.9395 17.2382 20.4447 15.4358 20.9445C11.8641 21.9352 8.29179 22.9231 4.72004 23.9132C3.74967 24.1823 3.11265 23.8243 2.84575 22.8605C1.91657 19.5079 0.986294 16.1552 0.0554653 12.8032C0.0444821 12.7642 0.0186715 12.729 0 12.6922C0 12.5171 0 12.3413 0 12.1661H0ZM2.28781 16.7593C2.30593 16.8494 2.31581 16.9186 2.33394 16.9856C2.85399 18.8632 3.37515 20.7407 3.89685 22.6178C3.98636 22.9396 4.07038 22.9824 4.41526 22.8863C9.76079 21.4014 15.1069 19.9165 20.4524 18.4315C20.8077 18.3327 20.844 18.269 20.7451 17.9093C20.3849 16.6039 20.0252 15.298 19.6638 13.9926C19.4897 13.3633 19.3118 12.7351 19.1295 12.0849C13.5099 13.6445 7.91232 15.1975 2.28781 16.7588V16.7593ZM18.4952 9.79705C18.32 9.16113 18.1575 8.57188 17.9955 7.98263C17.8944 7.61579 17.8263 7.57625 17.4545 7.67949C14.751 8.428 12.0475 9.17705 9.34398 9.92611C6.71624 10.6543 4.08906 11.3841 1.46132 12.1123C1.06263 12.2227 1.03242 12.2776 1.145 12.6884C1.2422 13.0426 1.33666 13.3974 1.43551 13.7505C1.50251 13.9905 1.57554 14.2288 1.64693 14.4726C7.27254 12.9113 12.8707 11.3572 18.4952 9.79651V9.79705ZM20.8797 12.7186C20.8747 13.092 20.9736 13.2776 21.2443 13.3413C21.906 13.4984 22.5722 13.639 23.2411 13.7604C23.5211 13.8114 23.7359 13.6714 23.8007 13.3985C23.9577 12.7367 24.0999 12.0706 24.2191 11.4017C24.2729 11.0986 24.0977 10.8937 23.7847 10.8103C23.6414 10.7718 23.4937 10.752 23.3487 10.7207C22.9138 10.6274 22.4794 10.5296 22.0433 10.4396C21.5826 10.3446 21.3481 10.5016 21.2498 10.9613C21.224 11.0804 21.1943 11.1991 21.1696 11.3188C21.0664 11.8141 20.9642 12.3095 20.8797 12.7186Z" fill="black"/>
<path d="M7.55914 3.04998C7.62779 2.59253 7.69204 2.16199 7.75739 1.7309C7.78485 1.54913 7.8189 1.36845 7.84306 1.18668C7.9507 0.378313 8.64868 -0.136251 9.44771 0.0317926C12.2797 0.626534 15.1101 1.22951 17.941 1.8292C20.5413 2.38001 23.1405 2.93301 25.7413 3.48217C26.643 3.67273 27.0439 4.25155 26.8973 5.15712C26.7957 5.78591 26.7035 6.41634 26.6019 7.07973C20.2536 5.73648 13.9272 4.39763 7.55859 3.05053L7.55914 3.04998Z" fill="#2AACE3"/>
<path d="M7.42301 20.5529C7.42411 20.7989 7.31208 20.9867 7.05123 21.0647C6.39828 21.2602 5.74038 21.4414 5.08029 21.6111C4.82822 21.6759 4.57506 21.5408 4.49543 21.28C4.29389 20.6199 4.10827 19.9543 3.94462 19.2843C3.86994 18.9779 4.0215 18.7462 4.32464 18.6561C4.95288 18.4688 5.58497 18.2937 6.21925 18.1284C6.49932 18.0553 6.76182 18.1695 6.84364 18.432C7.05233 19.0987 7.22806 19.7753 7.41587 20.448C7.42521 20.481 7.42081 20.5178 7.42246 20.5529H7.42301Z" fill="#2AACE3"/>
</g>
<defs>
<clipPath id="clip0_11827_701">
<rect width="26.927" height="24" fill="white"/>
</clipPath>
</defs>
</svg>
