<svg width="19" height="19" viewBox="0 0 19 19" fill="none" xmlns="http://www.w3.org/2000/svg">
<path fill-rule="evenodd" clip-rule="evenodd" d="M11.1736 9.49443L18.6406 2.02743C19.1045 1.56391 19.1045 0.811825 18.6406 0.348304C18.1767 -0.115613 17.4254 -0.115613 16.9615 0.348304L9.49446 7.8153L2.02706 0.348304C1.56315 -0.115613 0.811854 -0.115613 0.347937 0.348304C-0.115979 0.811825 -0.115979 1.56391 0.347937 2.02743L7.81533 9.49443L0.347937 16.9614C-0.115979 17.4249 -0.115979 18.177 0.347937 18.6406C0.579896 18.8721 0.883896 18.9881 1.1875 18.9881C1.4911 18.9881 1.7951 18.8721 2.02706 18.6402L9.49446 11.1732L16.9615 18.6402C17.1934 18.8721 17.4974 18.9881 17.801 18.9881C18.1046 18.9881 18.4086 18.8721 18.6406 18.6402C19.1045 18.1766 19.1045 17.4246 18.6406 16.961L11.1736 9.49443Z" fill="#3B4161"/>
</svg>
