<svg width="29" height="30" viewBox="0 0 29 30" fill="none" xmlns="http://www.w3.org/2000/svg">
<path fill-rule="evenodd" clip-rule="evenodd" d="M8.70347 0.500022H24.2536V3.47329C24.2536 4.13327 24.7997 4.66955 25.4718 4.66955H28.4997V25.8496C28.4997 26.1369 28.2611 26.3709 27.9688 26.3709H25.9751V7.07976C25.9751 6.68803 25.8227 6.32635 25.5404 6.04931L22.5581 3.1208C22.276 2.84378 21.9077 2.69397 21.5087 2.69397H8.17262V1.02179C8.17262 0.734468 8.4114 0.5 8.70378 0.5L8.70347 0.500022ZM21.7289 3.6747V6.6026C21.7289 6.74648 21.8484 6.86338 21.9944 6.86338H24.9761C24.9504 6.80811 24.9138 6.75701 24.8667 6.71072L21.8844 3.78221C21.8372 3.73571 21.7852 3.69993 21.7289 3.6747ZM5.22612 3.62952C4.93352 3.62952 4.69519 3.86376 4.69519 4.15087V10.2206L7.69046 8.9491L15.6253 12.3174V18.5982C15.6253 22.9597 12.4286 26.7646 8.0444 27.522L7.6906 27.5832L7.3368 27.522C6.39487 27.3593 5.50795 27.0555 4.69536 26.6364V28.9786C4.69536 29.266 4.93391 29.5 5.22629 29.5H24.4908C24.7834 29.5 25.0218 29.2658 25.0218 28.9786V7.7986H21.9939C21.3218 7.7986 20.7757 7.26233 20.7757 6.60235V3.62908L5.22556 3.62886L5.22612 3.62952ZM14.1845 26.0297H20.874C21.1372 26.0297 21.3502 25.8204 21.3502 25.5621C21.3502 25.3037 21.1371 25.0944 20.874 25.0944L14.1845 25.0942C13.9214 25.0942 13.7083 25.3035 13.7083 25.5618C13.7079 25.82 13.9214 26.0297 14.1845 26.0297ZM8.84311 8.62118H17.4796C17.7427 8.62118 17.9558 8.41193 17.9558 8.15356C17.9558 7.89519 17.7427 7.68595 17.4796 7.68595L8.84311 7.68573C8.57999 7.68573 8.3669 7.89497 8.3669 8.15334C8.36668 8.41194 8.58021 8.62118 8.84311 8.62118ZM16.73 12.1029H20.8744C21.1375 12.1029 21.3506 11.8936 21.3506 11.6353C21.3506 11.3769 21.1375 11.1676 20.8744 11.1676L16.73 11.1674C16.4668 11.1674 16.2538 11.3767 16.2538 11.635C16.2535 11.8936 16.4666 12.1029 16.73 12.1029ZM16.73 15.5846H20.8744C21.1375 15.5846 21.3506 15.3753 21.3506 15.117C21.3506 14.8586 21.1375 14.6493 20.8744 14.6493L16.73 14.6491C16.4668 14.6491 16.2538 14.8584 16.2538 15.1167C16.2535 15.3753 16.4666 15.5846 16.73 15.5846ZM16.73 19.0661H20.8744C21.1375 19.0661 21.3506 18.8568 21.3506 18.5984C21.3506 18.3401 21.1375 18.1308 20.8744 18.1308L16.73 18.1306C16.4668 18.1306 16.2538 18.3398 16.2538 18.5982C16.2535 18.8566 16.4666 19.0661 16.73 19.0661ZM16.1716 22.5478H20.8739C21.1371 22.5478 21.3501 22.3385 21.3501 22.0801C21.3501 21.8218 21.1371 21.6125 20.8739 21.6125L16.1716 21.6123C15.9084 21.6123 15.6954 21.8215 15.6954 22.0799C15.6951 22.3385 15.9087 22.5478 16.1716 22.5478ZM25.206 0.544566V3.47247C25.206 3.61635 25.3255 3.73325 25.4716 3.73325H28.4533C28.4276 3.67798 28.3909 3.62688 28.3438 3.58059L25.3615 0.652075C25.3144 0.605577 25.2623 0.569794 25.206 0.544566Z" fill="#3B4161"/>
<path fill-rule="evenodd" clip-rule="evenodd" d="M7.69028 9.96826L0.708008 12.9321V18.5981C0.708008 22.5053 3.57262 25.9216 7.50101 26.6005L7.68975 26.6332L7.87849 26.6005C11.8074 25.9221 14.6715 22.5055 14.6715 18.5981L14.6717 12.9321L7.69028 9.96826ZM7.69028 24.0741C8.96008 23.7957 10.0552 23.0948 10.8396 22.1433C11.6464 21.1653 12.1235 19.921 12.1235 18.5979V14.5866L7.69028 12.7045L3.25704 14.5866V18.5979C3.25704 19.9205 3.73391 21.1648 4.54091 22.1433C5.32536 23.0945 6.42048 23.7953 7.69028 24.0741ZM11.5765 22.7315C12.5189 21.5888 13.0762 20.1381 13.0762 18.598V14.2818C13.0762 14.0734 12.9377 13.8973 12.7461 13.8367L7.87815 11.7704C7.75329 11.7173 7.61793 11.7213 7.50223 11.7704L2.5928 13.8545C2.41367 13.9304 2.30668 14.1017 2.30623 14.282H2.30422V18.5982C2.30422 20.1384 2.86128 21.589 3.80389 22.7317C4.74113 23.8683 6.06159 24.6989 7.59545 25.0077C7.66446 25.0216 7.73326 25.0198 7.79759 25.0051C9.32602 24.6941 10.6418 23.8652 11.5766 22.7315L11.5765 22.7315Z" fill="#19959E"/>
</svg>
