<svg width="9" height="6" viewBox="0 0 9 6" fill="none" xmlns="http://www.w3.org/2000/svg">
<path d="M4.95703 5.41309C5.18994 5.40869 5.37451 5.32959 5.55908 5.14062L8.79346 1.83154C8.92969 1.69092 9 1.52832 9 1.32617C9 0.921875 8.67041 0.587891 8.27051 0.587891C8.06836 0.587891 7.88379 0.671387 7.72998 0.825195L4.96143 3.69043L2.18408 0.825195C2.03467 0.671386 1.8501 0.58789 1.64355 0.58789C1.24365 0.58789 0.914062 0.921875 0.914062 1.32617C0.914062 1.52393 0.97998 1.69092 1.12061 1.83154L4.35498 5.14062C4.53955 5.32959 4.72852 5.41309 4.95703 5.41309Z" fill="currentColor"/>
</svg>
