<svg width="25" height="25" viewBox="0 0 25 25" fill="none" xmlns="http://www.w3.org/2000/svg">
<path d="M12.5 0C5.6 0 0 5.6 0 12.5C0 19.4 5.6 25 12.5 25C19.4 25 25 19.4 25 12.5C25 5.6 19.4 0 12.5 0ZM12.5 20.625C11.4625 20.625 10.625 19.7875 10.625 18.75H14.375C14.375 19.7875 13.5375 20.625 12.5 20.625ZM18.75 17.5H6.25V16.25L7.5 15V11.7375C7.5 9.0875 8.7875 6.8375 11.25 6.25V5.625C11.25 4.9125 11.7875 4.375 12.5 4.375C13.2125 4.375 13.75 4.9125 13.75 5.625V6.25C16.2125 6.8375 17.5 9.1 17.5 11.7375V15L18.75 16.25V17.5Z" fill="#2AACE3"/>
</svg>
