<svg width="29" height="30" viewBox="0 0 29 30" fill="none" xmlns="http://www.w3.org/2000/svg">
<rect x="7" y="7" width="17" height="17" rx="5" fill="#2AACE3"/>
<path d="M14.916 2.5C8.02352 2.5 2.41602 8.1075 2.41602 15C2.41602 21.8925 8.02352 27.5 14.916 27.5C21.8085 27.5 27.416 21.8925 27.416 15C27.416 8.1075 21.8085 2.5 14.916 2.5ZM16.166 22.5H13.666V20H16.166V22.5ZM17.386 16.3937C17.141 16.5912 16.9048 16.78 16.7173 16.9675C16.2073 17.4763 16.1673 17.9387 16.166 17.9587V18.125H13.666V17.9163C13.666 17.7688 13.7023 16.445 14.9485 15.1988C15.1923 14.955 15.4948 14.7075 15.8123 14.45C16.7298 13.7063 17.3323 13.1637 17.3323 12.4162C17.3177 11.7848 17.0566 11.1841 16.6048 10.7426C16.153 10.3012 15.5464 10.0542 14.9148 10.0543C14.2831 10.0545 13.6766 10.3019 13.2251 10.7435C12.7735 11.1852 12.5127 11.786 12.4985 12.4175H9.99852C9.99852 9.70625 12.2048 7.5 14.916 7.5C17.6273 7.5 19.8335 9.70625 19.8335 12.4175C19.8335 14.4137 18.3598 15.605 17.386 16.3937Z" fill="#2AACE3"/>
<g clip-path="url(#clip0_9927_27862)">
<path d="M21.2433 14.1868C21.0899 14.1561 20.9466 14.0875 20.8265 13.9871C20.7065 13.8868 20.6136 13.7579 20.5563 13.6123L20.5541 13.6059L20.1228 12.5562C20.0566 12.4127 20.0286 12.2546 20.0413 12.0972C20.0541 11.9397 20.1073 11.7882 20.1957 11.6573L20.1936 11.6608L20.8934 10.7272C20.9788 10.605 21.0217 10.4581 21.0154 10.3091C21.0092 10.1602 20.9541 10.0174 20.8587 9.90275L20.8594 9.90417L20.093 9.13562C19.9776 9.0407 19.8342 8.9863 19.6848 8.9808C19.5355 8.9753 19.3885 9.01899 19.2664 9.10517L19.2685 9.10375L18.3363 9.80358C18.2049 9.89194 18.0529 9.94478 17.895 9.95694C17.7371 9.9691 17.5787 9.94019 17.4353 9.873L17.441 9.87512L16.3912 9.44375C16.2448 9.38834 16.1148 9.29671 16.0133 9.17743C15.9119 9.05814 15.8423 8.91508 15.8111 8.76162L15.8104 8.75596L15.6482 7.60067C15.6214 7.45387 15.5498 7.31901 15.443 7.21471C15.3363 7.11041 15.1999 7.04182 15.0525 7.01842L15.0483 7.01771C15.0483 7.01771 14.8641 7 14.4986 7C14.1331 7 13.9539 7.01842 13.9539 7.01842C13.8056 7.03989 13.6678 7.10703 13.5595 7.2105C13.4512 7.31396 13.3779 7.44861 13.3497 7.59571L13.349 7.59996L13.1839 8.75383C13.1534 8.90715 13.0848 9.05031 12.9844 9.17014C12.884 9.28996 12.7551 9.3826 12.6095 9.4395L12.6031 9.44162L11.5533 9.873C11.4098 9.93898 11.2517 9.96686 11.0942 9.95395C10.9368 9.94105 10.7853 9.8878 10.6545 9.79933L10.658 9.80146L9.72442 9.10162C9.60222 9.01609 9.45536 8.97296 9.30632 8.97884C9.15728 8.98473 9.01428 9.0393 8.89921 9.13421L8.90063 9.1335L8.13633 9.90346C8.04109 10.0184 7.98641 10.1616 7.98077 10.3108C7.97514 10.46 8.01886 10.6068 8.10517 10.7287L8.10375 10.7265L8.80358 11.6601C8.89116 11.7919 8.94357 11.9438 8.95585 12.1015C8.96812 12.2592 8.93985 12.4174 8.87371 12.5611L8.87583 12.5555L8.44304 13.6052C8.32829 13.902 8.07329 14.1223 7.76092 14.1853L7.75525 14.186L6.59996 14.349C6.45301 14.3767 6.31834 14.4495 6.21464 14.5573C6.11094 14.6651 6.04335 14.8024 6.02125 14.9503L6.02054 14.9546C6.02054 14.9546 6 15.1359 6 15.4993C6 15.8627 6.01913 16.0447 6.01913 16.0447C6.06446 16.3507 6.2975 16.5922 6.59571 16.6482L6.59996 16.6489L7.75383 16.8132C8.07188 16.8777 8.32758 17.0966 8.44092 17.3877L8.44304 17.3941L8.87583 18.4438C8.94219 18.5873 8.97021 18.7455 8.95718 18.9031C8.94414 19.0606 8.89049 19.2121 8.80146 19.3427L8.80358 19.3392L8.10375 20.2727C8.01844 20.3674 7.96395 20.4858 7.9475 20.6122C7.93105 20.7386 7.95343 20.867 8.01167 20.9804L8.01025 20.9768C8.13421 21.1305 8.48979 21.5095 8.4905 21.5109L8.75613 21.7546C8.90063 21.8877 9.49421 22.0726 9.72796 21.8984L10.6608 21.1985C10.7922 21.11 10.9443 21.0571 11.1022 21.045C11.2602 21.033 11.4186 21.0622 11.5618 21.1298L11.5562 21.1277L12.6059 21.5591C12.9034 21.6731 13.1237 21.9288 13.186 22.2412L13.1868 22.2469L13.349 23.3986C13.4056 23.7018 13.6465 23.9348 13.9482 23.9809L13.9525 23.9816C13.9525 23.9816 14.1345 23.9993 14.4993 23.9993C14.8641 23.9993 15.0447 23.9802 15.0447 23.9802C15.3493 23.9327 15.5887 23.6997 15.644 23.4022L15.6447 23.3979L15.8104 22.244C15.8742 21.926 16.0938 21.6703 16.3849 21.5584L16.3912 21.5562L17.441 21.1235C17.5845 21.0571 17.7427 21.0291 17.9002 21.0421C18.0578 21.0552 18.2093 21.1088 18.3399 21.1978L18.3363 21.1957L19.2699 21.8955C19.3924 21.9811 19.5395 22.024 19.6887 22.0177C19.838 22.0115 19.981 21.9563 20.0958 21.8608L20.0944 21.8615L20.8608 21.0937C20.9556 20.9783 21.0101 20.835 21.0158 20.6858C21.0216 20.5365 20.9783 20.3895 20.8927 20.2671L20.8941 20.2692L20.1943 19.3356C20.093 19.1843 20.0393 19.0063 20.0399 18.8242C20.0399 18.6847 20.0703 18.5529 20.1256 18.4346L20.1235 18.4403L20.5548 17.3905C20.6703 17.093 20.926 16.8735 21.2384 16.8104L21.244 16.8097L22.3965 16.6454C22.6997 16.5887 22.9334 16.3479 22.9788 16.0461L22.9795 16.0419C22.9795 16.0419 22.9986 15.8655 22.9986 15.5C22.9986 15.1345 22.9795 14.9546 22.9795 14.9546C22.9576 14.8062 22.8901 14.6684 22.7862 14.5602C22.6824 14.452 22.5474 14.3789 22.4 14.3511L22.3958 14.3504L21.2433 14.1868ZM14.4979 17.6257C14.0777 17.6256 13.667 17.5009 13.3176 17.2673C12.9683 17.0338 12.696 16.702 12.5353 16.3137C12.3745 15.9255 12.3324 15.4984 12.4144 15.0862C12.4964 14.6741 12.6987 14.2955 12.9957 13.9984C13.2928 13.7012 13.6713 13.4988 14.0834 13.4167C14.4955 13.3346 14.9227 13.3765 15.311 13.5371C15.6992 13.6978 16.0312 13.9699 16.2648 14.3192C16.4985 14.6684 16.6233 15.0791 16.6236 15.4993V15.5C16.6237 15.7792 16.5688 16.0556 16.462 16.3136C16.3552 16.5715 16.1986 16.8059 16.0012 17.0033C15.8038 17.2007 15.5694 17.3573 15.3115 17.4641C15.0535 17.5709 14.7771 17.6258 14.4979 17.6257Z" fill="white"/>
<circle cx="14.5" cy="15.5" r="3.5" fill="#2AACE3"/>
</g>
<defs>
<clipPath id="clip0_9927_27862">
<rect width="17" height="17" fill="white" transform="translate(6 7)"/>
</clipPath>
</defs>
</svg>
