<svg width="25" height="25" viewBox="0 0 25 25" fill="none" xmlns="http://www.w3.org/2000/svg">
<path d="M12.5 0C5.6075 0 0 5.6075 0 12.5C0 19.3925 5.6075 25 12.5 25C19.3925 25 25 19.3925 25 12.5C25 5.6075 19.3925 0 12.5 0ZM13.75 20H11.25V17.5H13.75V20ZM14.97 13.8937C14.725 14.0912 14.4888 14.28 14.3013 14.4675C13.7913 14.9763 13.7513 15.4387 13.75 15.4587V15.625H11.25V15.4163C11.25 15.2688 11.2863 13.945 12.5325 12.6988C12.7762 12.455 13.0787 12.2075 13.3962 11.95C14.3138 11.2063 14.9162 10.6637 14.9162 9.91625C14.9017 9.28477 14.6406 8.68406 14.1888 8.24265C13.737 7.80123 13.1304 7.55418 12.4988 7.55434C11.8671 7.5545 11.2606 7.80187 10.8091 8.24352C10.3575 8.68517 10.0967 9.28602 10.0825 9.9175H7.5825C7.5825 7.20625 9.78875 5 12.5 5C15.2113 5 17.4175 7.20625 17.4175 9.9175C17.4175 11.9137 15.9437 13.105 14.97 13.8937Z" fill="#2AACE3"/>
<ellipse cx="12.5" cy="13" rx="8.5" ry="9" fill="#2AACE3"/>
<path d="M16.1667 9.33333H17.3889C17.551 9.33333 17.7064 9.39855 17.821 9.51465C17.9356 9.63074 18 9.7882 18 9.95238V17.381C18 17.5451 17.9356 17.7026 17.821 17.8187C17.7064 17.9348 17.551 18 17.3889 18H7.61111C7.44903 18 7.2936 17.9348 7.17899 17.8187C7.06438 17.7026 7 17.5451 7 17.381V9.95238C7 9.7882 7.06438 9.63074 7.17899 9.51465C7.2936 9.39855 7.44903 9.33333 7.61111 9.33333H8.83333V8.71429C8.83333 7.7292 9.21964 6.78445 9.90728 6.08789C10.5949 5.39133 11.5275 5 12.5 5C13.4725 5 14.4051 5.39133 15.0927 6.08789C15.7804 6.78445 16.1667 7.7292 16.1667 8.71429V9.33333ZM14.9444 9.33333V8.71429C14.9444 8.05756 14.6869 7.42773 14.2285 6.96335C13.7701 6.49898 13.1483 6.2381 12.5 6.2381C11.8517 6.2381 11.2299 6.49898 10.7715 6.96335C10.3131 7.42773 10.0556 8.05756 10.0556 8.71429V9.33333H14.9444ZM11.8889 13.0476V14.2857H13.1111V13.0476H11.8889ZM9.44444 13.0476V14.2857H10.6667V13.0476H9.44444ZM14.3333 13.0476V14.2857H15.5556V13.0476H14.3333Z" fill="white"/>
</svg>
