<svg width="26" height="26" viewBox="0 0 26 26" fill="none" xmlns="http://www.w3.org/2000/svg">
<path d="M12.916 0.5C6.02352 0.5 0.416016 6.1075 0.416016 13C0.416016 19.8925 6.02352 25.5 12.916 25.5C19.8085 25.5 25.416 19.8925 25.416 13C25.416 6.1075 19.8085 0.5 12.916 0.5ZM14.166 20.5H11.666V18H14.166V20.5ZM15.386 14.3937C15.141 14.5912 14.9048 14.78 14.7173 14.9675C14.2073 15.4763 14.1673 15.9387 14.166 15.9587V16.125H11.666V15.9163C11.666 15.7688 11.7023 14.445 12.9485 13.1988C13.1923 12.955 13.4948 12.7075 13.8123 12.45C14.7298 11.7063 15.3323 11.1637 15.3323 10.4162C15.3177 9.78477 15.0566 9.18406 14.6048 8.74265C14.153 8.30123 13.5464 8.05418 12.9148 8.05434C12.2831 8.0545 11.6766 8.30187 11.2251 8.74352C10.7735 9.18517 10.5127 9.78602 10.4985 10.4175H7.99852C7.99852 7.70625 10.2048 5.5 12.916 5.5C15.6273 5.5 17.8335 7.70625 17.8335 10.4175C17.8335 12.4137 16.3598 13.605 15.386 14.3937Z" fill="#2AACE3"/>
</svg>
