<svg width="29" height="30" viewBox="0 0 29 30" fill="none" xmlns="http://www.w3.org/2000/svg">
<path d="M14.916 2.5C8.02352 2.5 2.41602 8.1075 2.41602 15C2.41602 21.8925 8.02352 27.5 14.916 27.5C21.8085 27.5 27.416 21.8925 27.416 15C27.416 8.1075 21.8085 2.5 14.916 2.5ZM16.166 22.5H13.666V20H16.166V22.5ZM17.386 16.3937C17.141 16.5912 16.9048 16.78 16.7173 16.9675C16.2073 17.4763 16.1673 17.9387 16.166 17.9587V18.125H13.666V17.9163C13.666 17.7688 13.7023 16.445 14.9485 15.1988C15.1923 14.955 15.4948 14.7075 15.8123 14.45C16.7298 13.7063 17.3323 13.1637 17.3323 12.4162C17.3177 11.7848 17.0566 11.1841 16.6048 10.7426C16.153 10.3012 15.5464 10.0542 14.9148 10.0543C14.2831 10.0545 13.6766 10.3019 13.2251 10.7435C12.7735 11.1852 12.5127 11.786 12.4985 12.4175H9.99852C9.99852 9.70625 12.2048 7.5 14.916 7.5C17.6273 7.5 19.8335 9.70625 19.8335 12.4175C19.8335 14.4137 18.3598 15.605 17.386 16.3937Z" fill="#2AACE3"/>
<rect x="6" y="7" width="17" height="17" rx="5" fill="#2AACE3"/>
<path d="M15.5 17C15.8978 17 16.2794 17.158 16.5607 17.4393C16.842 17.7206 17 18.1022 17 18.5V19C17 20.971 15.14 23 12 23C8.86 23 7 20.971 7 19V18.5C7 18.1022 7.15804 17.7206 7.43934 17.4393C7.72064 17.158 8.10218 17 8.5 17H15.5ZM12 10.5C12.7293 10.5 13.4288 10.7897 13.9445 11.3055C14.4603 11.8212 14.75 12.5207 14.75 13.25C14.75 13.9793 14.4603 14.6788 13.9445 15.1945C13.4288 15.7103 12.7293 16 12 16C11.2707 16 10.5712 15.7103 10.0555 15.1945C9.53973 14.6788 9.25 13.9793 9.25 13.25C9.25 12.5207 9.53973 11.8212 10.0555 11.3055C10.5712 10.7897 11.2707 10.5 12 10.5ZM21 7C21.5044 7.00009 21.9901 7.19077 22.3599 7.53384C22.7297 7.8769 22.9562 8.34702 22.994 8.85L23 9V11C23.0002 11.5046 22.8096 11.9906 22.4665 12.3605C22.1234 12.7305 21.6532 12.9572 21.15 12.995L21 13H19.499L18.301 14.6C17.771 15.306 16.697 15.02 16.524 14.224L16.507 14.113L16.5 14V12.935L16.422 12.915C16.0626 12.8061 15.741 12.5983 15.494 12.3154C15.2469 12.0325 15.0844 11.6858 15.025 11.315L15.005 11.149L15 11V9C14.9998 8.49542 15.1904 8.00943 15.5335 7.63945C15.8766 7.26947 16.3468 7.04284 16.85 7.005L17 7H21Z" fill="white"/>
</svg>
