<svg width="199" height="192" viewBox="0 0 199 192" fill="none" xmlns="http://www.w3.org/2000/svg">
<path d="M67.273 72.488C74.3977 67.6824 81.259 63.0475 88.1295 58.4173C91.7426 55.9822 92.4819 56.0145 96.1736 58.468C107.618 66.0821 119.095 73.6548 130.498 81.3335C131.483 81.9976 131.69 81.6932 132.199 80.9922C135.941 75.8362 139.762 70.7355 143.435 65.5287C144.489 64.0391 145.256 63.8823 146.73 64.9753C154.136 70.4634 161.594 75.8777 169.079 81.2597C170.372 82.1867 170.511 82.8139 169.513 84.1605C163.469 92.2912 157.532 100.505 151.572 108.696C151.23 109.166 150.505 109.604 150.819 110.24C151.179 110.969 152.039 110.669 152.699 110.729C153.697 110.812 154.427 110.245 155.208 109.729C157.837 107.99 160.341 107.995 162.91 109.821C164.717 111.107 166.491 111.14 168.224 109.848C169.19 109.129 170.224 108.737 171.384 108.571C171.772 108.516 172.188 108.456 172.308 108.963C172.415 109.41 172.507 110.019 171.934 110.121C170.132 110.448 168.861 111.873 167.143 112.33C165.137 112.855 163.326 112.334 161.691 111.163C159.907 109.89 158.184 109.848 156.373 111.131C153.744 112.989 151.096 112.957 148.453 111.08C146.674 109.816 144.937 109.881 143.131 111.163C140.589 112.961 137.942 112.948 135.405 111.14C133.358 109.687 131.316 109.835 129.394 111.14C126.904 112.832 124.57 112.842 122.154 111.094C120.149 109.641 118.037 109.825 116.12 111.144C113.722 112.795 111.495 112.874 109.115 111.149C107.068 109.669 104.846 109.812 102.859 111.177C100.503 112.795 98.3128 112.763 96.0396 111.154C93.9696 109.687 91.8165 109.696 89.802 111.117C87.3856 112.818 85.0661 112.708 82.7606 111.071C80.6352 109.563 78.5098 109.761 76.5415 111.144C74.1805 112.805 71.9396 112.662 69.708 111.098C67.5087 109.558 65.3232 109.747 63.2625 111.172C60.9755 112.749 58.8131 112.648 56.6415 111.107C54.627 109.678 52.5848 109.692 50.6258 111.043C48.2093 112.712 45.8991 112.597 43.5751 110.974C41.5514 109.558 39.426 109.627 37.5455 110.974C35.0412 112.772 32.7264 112.699 30.3654 110.923C28.2446 109.332 26.1285 109.705 24.1602 111.043C21.8778 112.597 19.72 112.463 17.4976 111.061C16.6521 110.526 15.8158 109.978 14.7855 109.862C14.134 109.789 13.4548 109.558 13.6812 108.76C13.8891 108.022 14.6053 108.124 15.2429 108.23C16.4811 108.433 17.5947 108.875 18.5973 109.65C20.0204 110.743 21.6606 110.992 23.0975 109.918C25.7219 107.958 28.3971 107.75 31.6406 109.447C29.5799 105.407 27.7919 101.745 26.6183 97.8023C22.9867 85.5718 24.3912 73.6594 28.6605 61.8946C30.5548 56.674 33.0267 51.7439 36.0947 47.1183C37.624 44.8123 38.7191 44.6555 41.0015 46.2697C42.5078 47.335 44.0833 48.3127 45.5249 49.4565C46.3473 50.1113 46.7031 50.0099 47.2853 49.189C49.5123 46.0621 52.2614 43.2166 53.971 39.8454C55.6528 36.5295 58.0323 33.8039 60.0006 30.7462C61.0032 29.1874 63.184 28.6202 63.4474 26.3834C63.5259 25.7286 64.5747 25.6179 65.2124 26.1206C65.8546 26.6232 65.85 27.3704 65.4203 27.9791C65.1246 28.3942 64.5609 28.6063 64.1681 28.9614C63.2395 29.8008 63.184 30.4326 64.3668 31.2628C68.1463 33.9007 71.8287 36.6724 75.5481 39.3934C75.9594 39.6978 76.5924 39.8777 76.4306 40.5741C76.2828 41.2151 75.6821 41.2704 75.1647 41.4042C73.395 41.8469 71.0248 41.4918 69.9945 42.8246C69.0196 44.0883 70.1192 46.2051 70.2486 47.9484C70.2855 48.4695 70.4842 49.0644 69.9159 49.4242C69.2182 49.8623 68.7885 49.272 68.308 48.9215C64.7041 46.302 61.0586 43.7332 57.5194 41.0352C56.4521 40.2189 55.893 40.0206 55.0336 41.2889C53.1809 44.0191 51.208 46.6709 49.1842 49.2766C48.1354 50.6232 48.1585 51.4349 49.6832 52.4588C54.2759 55.5349 58.7438 58.8046 63.3134 61.9176C64.7318 62.8815 65.6328 63.9238 65.8407 65.7455C66.0902 67.9361 66.7463 70.0806 67.2869 72.4972L67.273 72.488Z" fill="#38A0FC"/>
<path d="M128.281 126.277C133.659 126.277 139.032 126.277 144.411 126.277C145.312 126.277 146.508 126.074 146.531 127.384C146.554 128.703 145.358 128.541 144.452 128.541C133.622 128.546 122.792 128.546 111.962 128.541C111.056 128.541 109.855 128.698 109.836 127.421C109.813 126.111 111.005 126.277 111.92 126.272C117.372 126.272 122.829 126.272 128.281 126.272V126.277Z" fill="#38A0FC"/>
<path d="M161.501 63.0296C161.501 64.367 160.018 65.912 158.803 65.8428C157.5 65.769 156.229 64.3116 156.229 62.8958C156.229 61.706 157.824 59.9212 158.872 59.9258C160.046 59.9304 161.501 61.6552 161.501 63.0249V63.0296Z" fill="#38A0FC"/>
<path d="M103.575 143.354C99.7356 143.354 95.8961 143.354 92.0612 143.354C91.1325 143.354 89.9404 143.446 89.9173 142.224C89.8942 140.956 91.0955 141.094 92.0196 141.094C99.8512 141.094 107.683 141.094 115.51 141.094C116.434 141.094 117.589 140.997 117.529 142.307C117.478 143.405 116.415 143.359 115.551 143.354C111.559 143.349 107.567 143.354 103.575 143.354V143.354Z" fill="#38A0FC"/>
<path d="M94.0437 128.55C90.7401 128.55 87.4365 128.55 84.133 128.55C83.2828 128.55 82.2756 128.615 82.2571 127.411C82.2386 126.171 83.2643 126.286 84.1052 126.286C90.7909 126.286 97.472 126.286 104.158 126.286C105.031 126.286 106.061 126.277 106.071 127.402C106.08 128.514 105.059 128.555 104.185 128.555C100.803 128.555 97.4258 128.555 94.0437 128.555V128.55Z" fill="#38A0FC"/>
<path d="M176.993 66.1385C176.933 68.7442 174.979 70.635 172.451 70.5243C169.799 70.4091 168.113 68.449 168.214 65.6035C168.302 63.1131 170.178 61.3053 172.645 61.3283C175.279 61.356 177.058 63.3253 176.998 66.1385H176.993Z" fill="#38A0FC"/>
<path d="M45.8157 130.935C43.6072 130.861 42.526 129.685 42.5676 127.393C42.5999 125.553 44.1062 124.008 45.8573 124.022C47.9226 124.035 49.5952 125.71 49.4843 127.651C49.378 129.537 47.7424 130.999 45.8111 130.935H45.8157Z" fill="#E3EDF5"/>
<path d="M176.027 53.4887C173.828 53.5071 173.324 52.3173 173.338 50.9291C173.352 49.4441 174.299 48.471 175.782 48.4572C177.376 48.4433 178.397 49.4395 178.328 51.049C178.259 52.6493 177.15 53.4103 176.023 53.4887H176.027Z" fill="#38A0FC"/>
<path d="M157.574 126.282C158.031 126.282 158.488 126.282 158.946 126.282C159.717 126.268 160.369 126.517 160.41 127.366C160.457 128.228 159.814 128.528 159.047 128.542C158.059 128.565 157.065 128.551 156.077 128.555C155.24 128.555 154.478 128.376 154.506 127.356C154.533 126.485 155.222 126.291 155.97 126.291C156.506 126.291 157.038 126.291 157.569 126.291L157.574 126.282Z" fill="#38A0FC"/>
<path d="M70.71 126.277C71.0935 126.277 71.477 126.277 71.8605 126.277C72.7522 126.263 73.7225 126.332 73.6855 127.476C73.6578 128.449 72.7615 128.551 71.9483 128.551C71.1028 128.551 70.2572 128.546 69.4163 128.551C68.5846 128.555 67.7345 128.371 67.6929 127.435C67.6513 126.462 68.483 126.254 69.3285 126.277C69.7906 126.291 70.248 126.277 70.71 126.277V126.277Z" fill="#38A0FC"/>
<path d="M63.3547 135.09C63.29 136.151 62.7726 136.857 61.7099 136.94C60.5455 137.032 59.8109 136.405 59.737 135.233C59.663 134.149 60.3376 133.481 61.3495 133.398C62.4815 133.305 63.1976 133.928 63.3547 135.09Z" fill="#38A0FC"/>
<path d="M26.4376 140.37C26.3637 141.541 25.6984 142.081 24.6588 142.09C23.5176 142.1 22.7321 141.528 22.7783 140.315C22.8245 139.111 23.6654 138.571 24.7789 138.641C25.8093 138.705 26.4192 139.337 26.433 140.37H26.4376Z" fill="#38A0FC"/>
<path d="M175.478 110.352C174.665 110.214 173.412 110.671 173.399 109.49C173.38 107.959 174.803 108.498 175.686 108.443C176.476 108.392 177.714 108.189 177.719 109.282C177.728 110.786 176.291 110.154 175.478 110.348V110.352Z" fill="#38A0FC"/>
<path d="M122.606 142.473C122.523 143.391 122.102 143.908 121.326 143.94C120.421 143.977 119.889 143.391 119.917 142.533C119.94 141.758 120.55 141.316 121.299 141.32C122.07 141.325 122.5 141.837 122.611 142.473H122.606Z" fill="#38A0FC"/>
<path d="M11.3426 108.259C11.8323 108.355 12.1742 108.609 12.1003 109.149C12.0449 109.559 11.7353 109.776 11.3241 109.799C10.7835 109.831 10.4277 109.471 10.4277 109.024C10.4277 108.563 10.8066 108.24 11.3472 108.259H11.3426Z" fill="#38A0FC"/>
<path d="M26.1789 85.8683C26.3452 70.2895 30.5729 58.8475 37.3279 48.185C38.1364 46.9075 38.8156 46.7092 40.0585 47.59C47.5759 52.9259 55.1256 58.2203 62.6753 63.5147C63.6132 64.1696 64.0984 64.9951 64.3063 66.1434C65.1241 70.5939 66.0667 75.0258 66.9307 79.467C67.3511 81.6115 68.1043 83.6223 69.4857 85.3149C70.2158 86.2142 70.3729 86.8414 69.629 87.8744C65.101 94.1742 60.647 100.52 56.2021 106.875C55.546 107.816 54.9223 108.457 53.624 108.305C52.1778 108.134 50.9441 108.877 49.8121 109.707C48.2597 110.846 46.6518 110.924 45.104 109.808C42.2578 107.751 39.4486 107.687 36.5794 109.73C34.6711 111.095 33.784 109.67 32.9847 108.3C28.4336 100.497 25.9017 92.1542 26.1743 85.8637L26.1789 85.8683Z" fill="#F3F8FB"/>
<path d="M86.5402 61.5591C87.1732 61.0703 87.589 60.7336 88.0187 60.4246C91.8998 57.6252 92.1586 57.7036 96.072 60.3232C106.537 67.3193 117.058 74.2417 127.551 81.1963C128.558 81.8604 130.318 82.5061 129.953 83.6498C129.445 85.2409 128.054 86.5737 126.936 87.9342C126.553 88.4046 126.146 87.7682 125.781 87.5514C122.145 85.43 118.361 86.0111 116.106 89.0411C113.911 91.988 114.526 95.9312 117.705 98.6291C118.435 99.2471 118.684 99.5976 118.037 100.442C115.847 103.305 113.699 106.202 111.606 109.139C110.959 110.048 110.52 110.131 109.633 109.416C109.009 108.913 108.053 108.415 107.327 108.517C104.213 108.955 102.148 107.05 99.9254 105.496C90.9388 99.1871 81.9475 92.8873 73.0209 86.4953C70.2857 84.5353 69.0751 81.6714 68.2758 78.3739C67.4626 75.0395 68.2573 73.0057 71.3391 71.7236C71.547 71.636 71.7134 71.4561 71.9074 71.3316C75.3727 69.1272 74.2684 68.7859 77.9786 71.3501C82.2063 74.2786 86.4663 77.161 90.7263 80.0434C93.7572 82.091 97.5413 81.3531 99.6713 78.3416C101.672 75.5146 101.071 71.6775 98.142 69.5745C94.4041 66.8904 90.5692 64.3355 86.5356 61.5638L86.5402 61.5591Z" fill="#FEFEFE"/>
<path d="M102.434 109.448C100.743 110.974 98.9544 111.149 97.2033 109.867C94.4033 107.815 91.6958 107.852 88.9143 109.821C87.2695 110.988 85.62 110.919 83.9982 109.747C81.3045 107.801 78.6155 107.801 75.8895 109.715C74.203 110.9 72.5304 110.928 70.7747 109.674C68.0995 107.76 65.355 107.755 62.6705 109.743C61.8389 110.361 60.9194 110.684 59.866 110.582C57.1861 110.315 56.6086 109.125 58.1287 106.98C62.3887 100.966 66.6718 94.9665 70.8902 88.9203C71.5139 88.021 71.8143 87.629 72.9278 88.4223C82.5659 95.2801 92.2549 102.059 101.925 108.867C102.096 108.986 102.212 109.194 102.434 109.448Z" fill="#F3F8FB"/>
<path d="M161.089 92.7307C160.831 93.1227 160.59 93.5101 160.327 93.8882C158.354 96.7199 156.344 99.5285 154.422 102.392C153.826 103.283 153.396 103.218 152.602 102.655C145.653 97.7299 138.69 92.8183 131.69 87.9712C130.609 87.2241 130.553 86.7676 131.343 85.7207C133.464 82.9028 135.451 79.9882 137.433 77.0689C137.923 76.3494 138.191 76.1603 139.004 76.7414C145.944 81.6807 152.934 86.5508 159.883 91.4809C160.322 91.7945 161.043 91.9605 161.089 92.7353V92.7307Z" fill="#DDEAF3"/>
<path d="M168.2 83.1477C167.711 83.7979 167.202 84.4667 166.703 85.1446C165.243 87.1139 164.088 90.273 162.254 90.7249C160.401 91.1861 158.257 88.4098 156.261 87.017C150.781 83.1984 145.325 79.3475 139.813 75.5843C138.847 74.9248 138.819 74.565 139.517 73.6796C141.18 71.572 142.719 69.3721 144.281 67.1861C144.872 66.3606 145.237 65.9179 146.374 66.7664C153.276 71.8902 160.267 76.8894 167.225 81.944C167.637 82.2391 168.219 82.4328 168.205 83.1431L168.2 83.1477Z" fill="#EDF3F9"/>
<path d="M140.464 96.0089C144.133 98.5177 147.802 101.036 151.479 103.535C152.297 104.089 152.685 104.624 151.858 105.528C151.188 106.261 150.583 107.073 150.075 107.926C149.46 108.959 148.767 109.194 147.617 108.756C145.676 108.023 143.81 108.442 142.165 109.641C140.238 111.043 138.362 111.136 136.463 109.66C134.435 108.087 132.171 108.276 129.865 108.765C128.516 109.13 127.5 110.153 126.197 110.615C125.494 110.734 124.801 110.781 124.224 110.246C123.6 109.6 123.027 108.881 122.025 108.811C120.791 108.655 119.557 108.493 118.328 108.336C117.945 108.143 117.589 108.359 117.219 108.396C116.494 108.47 115.768 109.503 115.131 108.793C114.341 107.912 115.487 107.271 115.889 106.658C117.829 103.697 119.511 103.254 122.542 105.113C124.672 106.418 126.446 105.98 128.766 105.352C133.072 104.181 134.911 100.847 137.216 97.766C138.016 96.6961 138.699 95.3309 140.469 96.0135L140.464 96.0089Z" fill="#E8F0F7"/>
<path d="M140.465 96.0093C139.536 96.1984 138.709 96.4336 138.205 97.4251C137.729 98.3613 136.805 99.0854 136.385 100.04C134.523 104.278 130.286 105.104 126.705 106.829C125.458 107.428 124.118 106.819 123.027 106.058C119.035 103.278 116.975 104.532 115.265 108.447C116.314 109.167 117.28 107.073 118.324 108.337C116.346 108.586 115.034 110.518 112.521 110.721C114.711 107.71 116.628 105.058 118.559 102.415C121.775 98.0154 125.014 93.6296 128.207 89.2114C128.84 88.3352 129.26 88.0216 130.327 88.8148C133.645 91.296 137.078 93.625 140.465 96.0093V96.0093Z" fill="#F3F8FB"/>
<path d="M73.4175 39.8564C71.5555 40.7142 69.2915 40.1378 68.2473 41.5029C67.1939 42.8818 68.7094 44.8557 68.2612 46.8572C64.5233 44.1501 60.8963 41.5121 57.2601 38.8926C56.5993 38.4175 56.6594 37.9933 57.1168 37.3891C58.4105 35.6827 59.6719 33.9533 60.8917 32.1916C61.4507 31.3845 61.9035 31.2969 62.726 31.9241C66.1866 34.5528 69.7074 37.1124 73.4175 39.8564V39.8564Z" fill="#F3F8FB"/>
<path d="M86.9829 64.0352C89.8568 65.7185 92.5689 67.6416 95.1979 69.6847C95.6092 72.8853 95.5861 76.0813 95.2211 79.2819C93.7379 79.9691 92.5274 79.162 91.4 78.4425C89.5472 77.2665 87.7915 75.9429 85.9941 74.6793C86.2991 71.6585 86.2344 68.6285 86.239 65.6032C86.239 65.0313 85.9202 64.1689 86.9829 64.0352V64.0352Z" fill="#FBFCFD"/>
<path d="M86.9836 64.0359C86.9605 66.7892 86.8958 69.5424 86.9328 72.2957C86.9467 73.2642 86.7803 74.0666 85.9995 74.68C83.2134 72.8307 80.4412 70.9583 77.632 69.1412C76.6109 68.4817 76.5924 68.0343 77.6412 67.3841C79.5171 66.2173 81.4392 65.092 83.1487 63.7131C84.6734 62.4817 85.8147 62.6569 86.9836 64.0359V64.0359Z" fill="#E2EDF5"/>
<path d="M121.849 87.791C122.311 87.9063 122.93 87.9847 123.494 88.2061C125.721 89.0823 125.859 89.6127 124.455 91.5497C123.203 93.2791 121.9 94.9763 120.726 96.761C119.89 98.0385 119.151 97.9186 118.194 96.9501C116.609 95.3406 115.963 93.5097 116.776 91.3283C117.52 89.3221 119.742 87.7633 121.849 87.7956V87.791Z" fill="#E7F0F7"/>
<path d="M95.2217 79.2828C94.4916 76.0868 94.5194 72.8862 95.1985 69.6855C97.1668 70.6448 98.9087 71.7839 99.0289 74.2835C99.1628 77.1152 98.1602 78.448 95.2263 79.2828H95.2217Z" fill="#E2EDF5"/>
<path d="M126.192 110.614C127.255 109.682 128.198 108.506 129.861 108.765C128.729 109.558 127.768 110.702 126.192 110.614Z" fill="#F3F8FB"/>
<path d="M122.019 108.812C123.484 107.973 123.743 109.928 124.81 110.012C124.611 110.09 124.413 110.168 124.214 110.247C123.479 109.767 122.749 109.292 122.015 108.812H122.019Z" fill="#F3F8FB"/>
<path d="M172.539 63.6074C174.217 63.6166 175.196 64.23 175.108 65.7796C175.025 67.2738 174.083 68.1916 172.581 68.2054C171.172 68.2146 170.155 67.3015 170.155 65.9595C170.155 64.4698 171.273 63.7227 172.539 63.612V63.6074Z" fill="#FDFEFE"/>
<path d="M156.326 50.0701C156.266 52.6758 154.312 54.5667 151.784 54.456C149.132 54.3407 147.446 52.3807 147.547 49.5352C147.635 47.0448 149.511 45.2369 151.978 45.26C154.612 45.2877 156.391 47.2569 156.331 50.0701H156.326Z" fill="#38A0FC"/>
<path d="M151.868 47.5391C153.545 47.5483 154.524 48.1617 154.436 49.7112C154.353 51.2055 153.411 52.1232 151.909 52.1371C150.5 52.1463 149.483 51.2331 149.483 49.8911C149.483 48.4015 150.602 47.6544 151.868 47.5437V47.5391Z" fill="#FDFEFE"/>
<path d="M52.3903 71.2943C52.3903 74.6517 49.7798 77.345 46.4993 77.3819C43.168 77.4188 40.345 74.6102 40.3496 71.262C40.3496 68.0291 43.1172 65.1974 46.3007 65.1605C49.6828 65.1236 52.3903 67.8538 52.3903 71.2943V71.2943Z" fill="#38A0FC"/>
<path d="M101.694 84.0775C101.685 80.1713 104.568 77.3027 108.505 77.3027C112.344 77.3027 115.435 80.3143 115.449 84.0775C115.463 87.8039 112.326 90.8754 108.505 90.8846C104.605 90.8938 101.704 87.993 101.694 84.0775Z" fill="#38A0FC"/>
<path d="M73.3671 94.7602C73.2747 95.6226 72.7572 96.2037 71.9116 96.2406C71.1354 96.2775 70.6364 95.6918 70.5579 94.9354C70.4747 94.1468 70.9136 93.6026 71.7083 93.4873C72.6417 93.349 73.1083 93.9254 73.3671 94.7602Z" fill="#5396B9"/>
<path d="M68.2015 101.534C67.4068 101.465 66.8708 100.98 66.82 100.256C66.7553 99.3801 67.3837 98.7806 68.2154 98.7852C69.047 98.7852 69.6708 99.4032 69.6015 100.275C69.5414 100.994 68.9962 101.474 68.2015 101.538V101.534Z" fill="#4C92B6"/>
<path d="M65.9375 105.587C65.7342 106.394 65.3415 107.008 64.4128 106.906C63.6689 106.828 63.1098 106.353 63.096 105.606C63.0821 104.748 63.6458 104.195 64.5052 104.167C65.4154 104.139 65.8081 104.757 65.9375 105.592V105.587Z" fill="#4D93B5"/>
<path d="M46.3101 75.6625C43.8843 75.6349 41.9761 73.6702 41.9992 71.2352C42.0223 68.7909 43.9721 66.8678 46.4163 66.877C48.9067 66.8862 50.9582 68.9984 50.8796 71.4612C50.8057 73.7947 48.745 75.6948 46.3147 75.6625H46.3101Z" fill="#FDFEFE"/>
<path d="M113.684 84.1477C113.657 86.8733 111.236 89.3683 108.611 89.3775C105.853 89.3914 103.252 86.8641 103.224 84.1385C103.196 81.3852 105.784 78.7703 108.491 78.821C111.388 78.8764 113.712 81.2561 113.684 84.1431V84.1477Z" fill="#E4EEF6"/>
<path d="M163.377 51.8926H163.243C162.947 51.8926 162.707 52.1321 162.707 52.4276V57.1824C162.707 57.4778 162.947 57.7173 163.243 57.7173H163.377C163.673 57.7173 163.913 57.4778 163.913 57.1824V52.4276C163.913 52.1321 163.673 51.8926 163.377 51.8926Z" fill="#38A0FC"/>
<path d="M164.869 53.3262H161.815C161.537 53.3262 161.312 53.5512 161.312 53.8289V54.6221C161.312 54.8997 161.537 55.1248 161.815 55.1248H164.869C165.147 55.1248 165.373 54.8997 165.373 54.6221V53.8289C165.373 53.5512 165.147 53.3262 164.869 53.3262Z" fill="#38A0FC"/>
</svg>
