<svg width="16" height="17" viewBox="0 0 16 17" fill="none" xmlns="http://www.w3.org/2000/svg">
<path fill-rule="evenodd" clip-rule="evenodd" d="M13.8439 0.195068H2.15605C0.965319 0.195068 0 1.16034 0 2.3511V14.039C0 15.2297 0.96528 16.195 2.15605 16.195H7.92045L7.93027 10.4775H6.44485C6.25181 10.4775 6.09514 10.3214 6.09439 10.1284L6.08727 8.28536C6.08652 8.09127 6.24367 7.93353 6.43777 7.93353H7.92049V6.15274C7.92049 4.08614 9.18265 2.96086 11.0262 2.96086H12.539C12.7325 2.96086 12.8895 3.11778 12.8895 3.31136V4.86538C12.8895 5.05889 12.7326 5.21576 12.5392 5.21588L11.6108 5.21631C10.6082 5.21631 10.4141 5.69272 10.4141 6.39188V7.93357H12.6171C12.827 7.93357 12.9899 8.11687 12.9651 8.32533L12.7467 10.1683C12.7258 10.3447 12.5762 10.4776 12.3987 10.4776H10.4239L10.4141 16.1951H13.844C15.0347 16.1951 16 15.2298 16 14.0391V2.3511C16 1.16034 15.0347 0.195068 13.8439 0.195068Z" fill="#475993"/>
</svg>
