<svg width="24" height="29" viewBox="0 0 24 29" fill="none" xmlns="http://www.w3.org/2000/svg">
<g clip-path="url(#clip0_11461_111659)">
<path fill-rule="evenodd" clip-rule="evenodd" d="M0.000126004 21.7742L3.74206 19.5806L6.7098 7.83871C6.96787 7.06452 7.61303 6.29032 8.12916 6.16129C8.51625 6.16129 8.77432 6.29032 8.90335 6.80645L12.1292 21.129L14.9679 6.80645C15.0969 6.03226 15.7421 5.12903 16.3872 5C16.7743 5 17.1614 5 17.1614 5.51613L19.0969 10.4194L23.8711 7.70968V10.4194L18.3227 13.6452C18.3227 13.6452 17.4195 13.9032 17.1614 13.3871L16.1292 10.9355L13.0324 26.5484C13.0324 26.5484 12.6453 27.7097 12.1292 28.0968C11.484 28.6129 10.8388 28.4839 10.7098 27.8387L7.61303 12.6129L5.67755 20.2258C5.67755 20.2258 5.03238 21.5161 4.51625 21.7742L-0.128906 24.4839V21.7742H0.000126004Z" fill="#E74C3C"/>
</g>
<defs>
<clipPath id="clip0_11461_111659">
<rect width="24" height="23.3548" fill="white" transform="translate(0 5)"/>
</clipPath>
</defs>
</svg>
