<svg width="263" height="88" viewBox="0 0 263 88" fill="none" xmlns="http://www.w3.org/2000/svg">
<path d="M17.0493 17.002H235.049" stroke="#D2D2D2" stroke-width="2"/>
<rect x="228.5" y="0.00195312" width="32" height="32" rx="16" fill="white"/>
<circle cx="244.5" cy="16.002" r="6" fill="#D2D2D2"/>
<g clip-path="url(#clip0_4490_10221)">
<path d="M250.744 37.4653H261.671V63.2214H227.33V37.4653H239.817" stroke="#D2D2D2" stroke-linejoin="round"/>
<path d="M236.728 45.002H231V54.002H236.728V45.002Z" stroke="#D2D2D2" stroke-linejoin="round"/>
<path d="M233.864 54.0024H236.728V52.5963C236.592 52.4318 235.192 51.5479 233.864 51.5479C232.536 51.5479 231.137 52.4318 231 52.5963V54.0024H233.864Z" stroke="#D2D2D2" stroke-linejoin="round"/>
<path d="M233.864 46.6387C233.189 46.6387 232.637 47.2718 232.637 48.0493V48.5008C232.637 49.2783 233.189 49.9114 233.864 49.9114C234.539 49.9114 235.092 49.2783 235.092 48.5008V48.0493C235.092 47.2718 234.539 46.6387 233.864 46.6387Z" stroke="#D2D2D2" stroke-linejoin="round"/>
<path d="M241.167 45.3354H257.167" stroke="#D2D2D2" stroke-linejoin="round"/>
<path d="M241.167 51.668H257.167" stroke="#D2D2D2" stroke-linejoin="round"/>
<path d="M230.5 58.002L257.167 58.002" stroke="#D2D2D2" stroke-linejoin="round"/>
<path d="M239.037 40.5874H251.525" stroke="#D2D2D2" stroke-linejoin="round"/>
<path d="M237.476 40.5874H235.915" stroke="#D2D2D2" stroke-linejoin="round"/>
<path d="M253.086 40.5874H254.647" stroke="#D2D2D2" stroke-linejoin="round"/>
<path d="M248.403 32.7822H242.159V40.5871H248.403V32.7822Z" stroke="#D2D2D2" stroke-linejoin="round"/>
</g>
<path d="M229.717 83.002V72.922H233.644C234.246 72.922 234.759 73.0456 235.184 73.293C235.613 73.5403 235.94 73.867 236.164 74.273C236.392 74.6743 236.507 75.1083 236.507 75.575C236.507 76.121 236.367 76.5993 236.087 77.01C235.807 77.4206 235.429 77.703 234.953 77.857L234.939 77.514C235.587 77.6866 236.091 78.004 236.451 78.466C236.81 78.928 236.99 79.4786 236.99 80.118C236.99 80.706 236.868 81.2146 236.626 81.644C236.388 82.0733 236.042 82.407 235.59 82.645C235.142 82.883 234.61 83.002 233.994 83.002H229.717ZM230.977 81.812H233.756C234.129 81.812 234.463 81.7443 234.757 81.609C235.051 81.469 235.282 81.273 235.45 81.021C235.622 80.769 235.709 80.4656 235.709 80.111C235.709 79.7703 235.632 79.4646 235.478 79.194C235.328 78.9233 235.116 78.7086 234.841 78.55C234.57 78.3866 234.255 78.305 233.896 78.305H230.977V81.812ZM230.977 77.129H233.63C233.928 77.129 234.197 77.066 234.435 76.94C234.677 76.8093 234.869 76.6273 235.009 76.394C235.153 76.1606 235.226 75.8876 235.226 75.575C235.226 75.141 235.079 74.7863 234.785 74.511C234.491 74.2356 234.106 74.098 233.63 74.098H230.977V77.129ZM240.534 83.212C239.969 83.212 239.495 83.1093 239.113 82.904C238.735 82.694 238.448 82.4186 238.252 82.078C238.06 81.7373 237.965 81.364 237.965 80.958C237.965 80.5613 238.039 80.2183 238.189 79.929C238.343 79.635 238.557 79.3923 238.833 79.201C239.108 79.005 239.437 78.851 239.82 78.739C240.179 78.641 240.58 78.557 241.024 78.487C241.472 78.4123 241.924 78.3446 242.382 78.284C242.839 78.2233 243.266 78.165 243.663 78.109L243.215 78.368C243.229 77.696 243.093 77.199 242.809 76.877C242.529 76.555 242.043 76.394 241.353 76.394C240.895 76.394 240.494 76.499 240.149 76.709C239.808 76.9143 239.568 77.2503 239.428 77.717L238.245 77.36C238.427 76.6973 238.779 76.177 239.302 75.799C239.824 75.421 240.513 75.232 241.367 75.232C242.053 75.232 242.641 75.3556 243.131 75.603C243.625 75.8456 243.98 76.2143 244.195 76.709C244.302 76.9423 244.37 77.1966 244.398 77.472C244.426 77.7426 244.44 78.0273 244.44 78.326V83.002H243.334V81.189L243.593 81.357C243.308 81.9683 242.909 82.4303 242.396 82.743C241.887 83.0556 241.266 83.212 240.534 83.212ZM240.723 82.169C241.171 82.169 241.558 82.0896 241.885 81.931C242.216 81.7676 242.482 81.5553 242.683 81.294C242.883 81.028 243.014 80.7386 243.075 80.426C243.145 80.1926 243.182 79.9336 243.187 79.649C243.196 79.3596 243.201 79.138 243.201 78.984L243.635 79.173C243.229 79.229 242.83 79.2826 242.438 79.334C242.046 79.3853 241.675 79.4413 241.325 79.502C240.975 79.558 240.66 79.6256 240.38 79.705C240.174 79.7703 239.981 79.8543 239.799 79.957C239.621 80.0596 239.477 80.1926 239.365 80.356C239.257 80.5146 239.204 80.713 239.204 80.951C239.204 81.1563 239.255 81.3523 239.358 81.539C239.465 81.7256 239.628 81.8773 239.848 81.994C240.072 82.1106 240.363 82.169 240.723 82.169ZM249.445 83.212C248.679 83.212 248.028 83.0416 247.492 82.701C246.96 82.3556 246.554 81.882 246.274 81.28C245.994 80.678 245.849 79.992 245.84 79.222C245.849 78.4333 245.996 77.7403 246.281 77.143C246.57 76.541 246.983 76.072 247.52 75.736C248.056 75.4 248.703 75.232 249.459 75.232C250.257 75.232 250.943 75.428 251.517 75.82C252.095 76.212 252.483 76.7486 252.679 77.43L251.447 77.801C251.288 77.3623 251.029 77.0216 250.67 76.779C250.315 76.5363 249.907 76.415 249.445 76.415C248.927 76.415 248.5 76.5363 248.164 76.779C247.828 77.017 247.578 77.3483 247.415 77.773C247.251 78.193 247.167 78.676 247.163 79.222C247.172 80.062 247.366 80.741 247.744 81.259C248.126 81.7723 248.693 82.029 249.445 82.029C249.939 82.029 250.35 81.917 250.677 81.693C251.003 81.4643 251.251 81.1353 251.419 80.706L252.679 81.035C252.417 81.7396 252.009 82.2786 251.454 82.652C250.898 83.0253 250.229 83.212 249.445 83.212ZM254.1 83.002L254.107 72.922H255.367V79.082L258.538 75.442H260.155L256.816 79.222L260.547 83.002H258.804L255.367 79.362V83.002H254.1Z" fill="black" fill-opacity="0.38"/>
<rect x="3.04932" y="0.00195312" width="32" height="32" rx="16" fill="white"/>
<circle cx="19.0493" cy="16.002" r="6" fill="#2AACE3"/>
<g clip-path="url(#clip1_4490_10221)">
<path d="M25.2931 37.4653H36.2199V63.2214H1.87842V37.4653H14.3662" stroke="#3578DB" stroke-linejoin="round"/>
<path d="M18.2691 44.4897H5.78125V59.319H18.2691V44.4897Z" stroke="#FF9A2E" stroke-linejoin="round"/>
<path d="M12.0252 59.3192H18.2691V56.6499C17.9725 56.3377 14.9208 54.6597 12.0252 54.6597C9.12954 54.6597 6.07784 56.3377 5.78125 56.6499V59.3192H12.0252Z" stroke="#FF9A2E" stroke-linejoin="round"/>
<path d="M12.0251 46.8311C10.7373 46.8311 9.68359 47.8925 9.68359 49.1959V49.953C9.68359 51.2564 10.7373 52.3179 12.0251 52.3179C13.3129 52.3179 14.3665 51.2564 14.3665 49.953V49.1959C14.3665 47.8925 13.3129 46.8311 12.0251 46.8311Z" stroke="#FF9A2E" stroke-linejoin="round"/>
<path d="M22.1714 47.6118H32.3177" stroke="#FF9A2E" stroke-linejoin="round"/>
<path d="M22.1714 50.7339H32.3177" stroke="#FF9A2E" stroke-linejoin="round"/>
<path d="M22.1714 53.8555H27.6348" stroke="#FF9A2E" stroke-linejoin="round"/>
<path d="M13.5859 40.5874H26.0737" stroke="#3578DB" stroke-linejoin="round"/>
<path d="M12.0248 40.5874H10.4639" stroke="#3578DB" stroke-linejoin="round"/>
<path d="M27.6348 40.5874H29.1957" stroke="#3578DB" stroke-linejoin="round"/>
<path d="M22.9519 32.7822H16.708V40.5871H22.9519V32.7822Z" stroke="#3578DB" stroke-linejoin="round"/>
</g>
<path d="M1.90041 83.002V72.922H7.96941V74.609H3.58741V77.122H7.12941V78.802H3.58741V83.002H1.90041ZM9.22854 83.002V75.442H10.7195V77.283L10.5375 77.045C10.6309 76.793 10.7545 76.5643 10.9085 76.359C11.0672 76.149 11.2562 75.9763 11.4755 75.841C11.6622 75.715 11.8675 75.617 12.0915 75.547C12.3202 75.4723 12.5535 75.428 12.7915 75.414C13.0295 75.3953 13.2605 75.4046 13.4845 75.442V77.017C13.2605 76.9516 13.0015 76.9306 12.7075 76.954C12.4182 76.9773 12.1569 77.059 11.9235 77.199C11.6902 77.325 11.4989 77.486 11.3495 77.682C11.2049 77.878 11.0975 78.102 11.0275 78.354C10.9575 78.6013 10.9225 78.8696 10.9225 79.159V83.002H9.22854ZM18.0226 83.212C17.2666 83.212 16.6063 83.0416 16.0416 82.701C15.4769 82.3603 15.0383 81.8913 14.7256 81.294C14.4176 80.692 14.2636 80.0013 14.2636 79.222C14.2636 78.4286 14.4223 77.7333 14.7396 77.136C15.0569 76.5386 15.4979 76.072 16.0626 75.736C16.6273 75.4 17.2806 75.232 18.0226 75.232C18.7833 75.232 19.4459 75.4023 20.0106 75.743C20.5753 76.0836 21.0139 76.555 21.3266 77.157C21.6393 77.7543 21.7956 78.4426 21.7956 79.222C21.7956 80.006 21.6369 80.699 21.3196 81.301C21.0069 81.8983 20.5683 82.3673 20.0036 82.708C19.4389 83.044 18.7786 83.212 18.0226 83.212ZM18.0226 81.63C18.6946 81.63 19.1939 81.406 19.5206 80.958C19.8473 80.51 20.0106 79.9313 20.0106 79.222C20.0106 78.4893 19.8449 77.906 19.5136 77.472C19.1823 77.0333 18.6853 76.814 18.0226 76.814C17.5699 76.814 17.1966 76.9166 16.9026 77.122C16.6133 77.3226 16.3986 77.605 16.2586 77.969C16.1186 78.3283 16.0486 78.746 16.0486 79.222C16.0486 79.9546 16.2143 80.5403 16.5456 80.979C16.8816 81.413 17.3739 81.63 18.0226 81.63ZM28.5669 83.002V79.362C28.5669 79.124 28.5506 78.8603 28.5179 78.571C28.4852 78.2816 28.4082 78.004 28.2869 77.738C28.1702 77.4673 27.9929 77.2456 27.7549 77.073C27.5216 76.9003 27.2042 76.814 26.8029 76.814C26.5882 76.814 26.3759 76.849 26.1659 76.919C25.9559 76.989 25.7646 77.1103 25.5919 77.283C25.4239 77.451 25.2886 77.6843 25.1859 77.983C25.0832 78.277 25.0319 78.655 25.0319 79.117L24.0309 78.69C24.0309 78.046 24.1546 77.4626 24.4019 76.94C24.6539 76.4173 25.0226 76.002 25.5079 75.694C25.9932 75.3813 26.5906 75.225 27.2999 75.225C27.8599 75.225 28.3219 75.3183 28.6859 75.505C29.0499 75.6916 29.3392 75.9296 29.5539 76.219C29.7686 76.5083 29.9272 76.8163 30.0299 77.143C30.1326 77.4696 30.1979 77.78 30.2259 78.074C30.2586 78.3633 30.2749 78.599 30.2749 78.781V83.002H28.5669ZM23.3239 83.002V75.442H24.8289V77.787H25.0319V83.002H23.3239ZM36.5326 83.002C36.0332 83.0953 35.5432 83.135 35.0626 83.121C34.5866 83.1116 34.1596 83.0253 33.7816 82.862C33.4036 82.694 33.1166 82.4303 32.9206 82.071C32.7479 81.7443 32.6569 81.4106 32.6476 81.07C32.6382 80.7293 32.6336 80.3443 32.6336 79.915V73.342H34.3136V79.817C34.3136 80.1203 34.3159 80.3863 34.3206 80.615C34.3299 80.8436 34.3789 81.0303 34.4676 81.175C34.6356 81.455 34.9039 81.6113 35.2726 81.644C35.6412 81.6766 36.0612 81.658 36.5326 81.588V83.002ZM31.2616 76.765V75.442H36.5326V76.765H31.2616Z" fill="#323232"/>
<defs>
<clipPath id="clip0_4490_10221">
<rect width="35.9024" height="32" fill="white" transform="translate(226.549 32.002)"/>
</clipPath>
<clipPath id="clip1_4490_10221">
<rect width="35.9024" height="32" fill="white" transform="translate(1.09814 32.002)"/>
</clipPath>
</defs>
</svg>
