<svg width="78" height="68" viewBox="0 0 78 68" fill="none" xmlns="http://www.w3.org/2000/svg">
<g clip-path="url(#clip0_3176_5764)">
<path d="M38.6725 0.00373208C48.67 0.00373208 58.6676 0.00373208 68.6651 0.00373208C72.233 0.00373208 74.8861 1.5758 76.5067 4.78529C77.0253 5.84582 77.2851 7.01419 77.2648 8.19455C77.2648 19.3969 77.2648 30.5993 77.2648 41.8017C77.2648 46.2603 73.779 49.7704 69.2196 49.9851C69.0179 49.9944 68.8182 49.9944 68.6165 49.9944C48.6227 49.9944 28.6283 49.9944 8.63331 49.9944C5.06535 49.9944 2.40666 48.4373 0.776711 45.2315C0.252918 44.1731 -0.0107913 43.0049 0.00748053 41.8241C0.00748053 30.6068 0.00748053 19.3889 0.00748053 8.17028C0.00748053 3.73226 3.48769 0.23525 8.03586 0.0112019C8.26738 -4.55576e-07 8.49889 0 8.7304 0L38.6725 0.00373208ZM38.6837 4.53884H13.652C11.9044 4.53884 10.1587 4.53884 8.413 4.53884C6.11838 4.5519 4.54258 6.13891 4.54071 8.42607C4.54071 9.26064 4.54071 10.0952 4.54071 10.9298C4.54071 21.1601 4.54071 31.3897 4.54071 41.6187C4.54071 42.7483 4.91412 43.708 5.7431 44.4716C6.57208 45.2353 7.52428 45.4668 8.60158 45.4668C28.5966 45.4668 48.5916 45.4668 68.5866 45.4668C68.7267 45.4668 68.8648 45.4668 69.0049 45.4668C71.1707 45.4014 72.739 43.8163 72.739 41.671C72.739 30.562 72.739 19.4517 72.739 8.34018C72.7414 7.98533 72.6994 7.63157 72.6139 7.28716C72.1733 5.6068 70.689 4.54444 68.7808 4.54444L38.6837 4.53884Z" fill="white"/>
<path d="M16.628 26.0287C17.2628 27.6923 19.4622 31.3928 20.5489 32.6045C20.6217 31.5179 20.7001 30.5004 20.7468 29.4791C20.7468 29.3689 20.6049 29.2289 20.4985 29.1393C20.2865 28.9835 20.1131 28.7811 19.9917 28.5477C19.8703 28.3143 19.8041 28.0561 19.7983 27.7931C20.9864 28.2737 22.3161 28.2663 23.4988 27.7726C23.4956 28.0402 23.4277 28.3031 23.3009 28.5387C23.1741 28.7744 22.9922 28.976 22.7707 29.1262C22.6747 29.1849 22.5986 29.2711 22.5523 29.3737C22.506 29.4763 22.4916 29.5904 22.5112 29.7012C22.5914 30.646 22.6549 31.5926 22.7296 32.5821C23.7789 31.4974 26.2565 27.3301 26.6392 26.0138C27.7125 26.0963 28.7558 26.4069 29.6994 26.9249C32.7296 28.5213 34.5071 32.0668 33.9227 35.3024C33.6295 36.9249 32.6419 37.8865 31.0903 38.2375C30.1292 38.4651 29.1466 38.5903 28.159 38.6109C23.8032 38.6501 19.4473 38.6408 15.0896 38.6109C14.2404 38.5981 13.3942 38.5075 12.5616 38.3402C10.4817 37.9406 9.45105 36.8372 9.28114 34.733C9.12178 32.6532 9.76651 30.5915 11.0824 28.973C12.3983 27.3546 14.285 26.3027 16.3536 26.0343C16.4448 26.0256 16.5365 26.0237 16.628 26.0287Z" fill="white"/>
<path d="M53.0489 22.963C57.3133 22.963 61.5771 22.963 65.8402 22.963C66.9604 22.963 67.7427 23.5773 67.9593 24.5911C68.0182 24.8715 68.0171 25.1611 67.956 25.441C67.8948 25.7209 67.7752 25.9847 67.6048 26.2151C67.4344 26.4454 67.2172 26.6371 66.9675 26.7774C66.7177 26.9178 66.4411 27.0037 66.1557 27.0295C66.0176 27.0407 65.8775 27.0388 65.7394 27.0388H40.2969C38.9563 27.0388 38.0564 26.2005 38.0695 24.972C38.0685 24.4565 38.2666 23.9605 38.6225 23.5876C38.9784 23.2146 39.4645 22.9936 39.9795 22.9705C40.5396 22.9443 41.0997 22.9611 41.6486 22.9611L53.0489 22.963Z" fill="white"/>
<path d="M53.0397 18.4186C48.7604 18.4186 44.4811 18.4186 40.2017 18.4186C38.9079 18.4186 38.0117 17.4981 38.0714 16.2584C38.0961 15.7673 38.2996 15.3022 38.6435 14.9507C38.9874 14.5992 39.448 14.3857 39.9385 14.3503C40.0766 14.3409 40.2167 14.3409 40.3548 14.3409H65.7469C66.8672 14.3409 67.6513 14.8712 67.9183 15.7916C68.0098 16.0916 68.0303 16.4088 67.9782 16.718C67.9261 17.0273 67.8029 17.3202 67.6182 17.5737C67.4335 17.8272 67.1925 18.0342 66.9141 18.1786C66.6357 18.323 66.3275 18.4007 66.0139 18.4055C64.5613 18.4298 63.1088 18.4055 61.6562 18.4055L53.0397 18.4186Z" fill="white"/>
<path d="M46.8616 35.6628C44.608 35.6628 42.3526 35.6778 40.0991 35.6628C39.7692 35.6653 39.4436 35.5873 39.1507 35.4356C38.8578 35.2838 38.6063 35.0628 38.4181 34.7919C38.23 34.5209 38.1107 34.2081 38.0708 33.8806C38.0309 33.5531 38.0715 33.2209 38.189 32.9126C38.3396 32.5122 38.6122 32.1693 38.9684 31.9324C39.3246 31.6955 39.7463 31.5766 40.1737 31.5926C42.2107 31.5926 44.2495 31.5926 46.2865 31.5926C48.7566 31.5926 51.2268 31.5926 53.6969 31.5926C54.1793 31.5859 54.6479 31.7535 55.0166 32.0646C55.3853 32.3757 55.6294 32.8094 55.704 33.286C55.7885 33.7623 55.6981 34.253 55.4494 34.6679C55.2006 35.0827 54.8103 35.3936 54.3504 35.5433C54.0685 35.6221 53.7766 35.6592 53.484 35.6535C51.2753 35.6684 49.0684 35.6647 46.8616 35.6628Z" fill="white"/>
<path d="M27.8267 17.7203C27.7296 20.1662 27.2964 22.3189 25.9857 24.1916C25.553 24.8108 25.0344 25.3652 24.4454 25.8383C22.7445 27.1901 20.6142 27.1807 18.876 25.885C17.7817 25.0609 16.9433 23.9435 16.4581 22.6624C15.575 20.4219 15.0709 18.1311 15.8121 15.7543C16.2073 14.424 17.042 13.2671 18.1797 12.4725C19.3175 11.6779 20.6911 11.2927 22.0761 11.3798C24.7572 11.5366 27.1545 13.7173 27.6773 16.4992C27.7707 16.966 27.7949 17.4458 27.8267 17.7203ZM16.2938 19.0739C16.5403 21.1426 17.1246 22.9574 18.51 24.4212C20.4013 26.4208 22.991 26.3835 24.845 24.3503C25.7468 23.3424 26.3771 22.1216 26.6766 20.8028C26.8128 20.2576 26.8931 19.6994 27.0164 19.0553L26.165 19.4007C26.2042 18.8237 26.305 18.2804 26.2639 17.7483C26.2113 17.0924 26.0943 16.4433 25.9148 15.8103C25.8102 15.4369 25.5283 15.3006 25.0783 15.4966C23.9998 15.9884 22.8283 16.2429 21.6429 16.2429C20.4576 16.2429 19.2861 15.9884 18.2075 15.4966C17.7576 15.3099 17.4869 15.4406 17.3674 15.8084C17.1952 16.3316 17.0843 16.8729 17.0369 17.4216C16.9809 18.0713 17.0238 18.7285 17.0238 19.3652L16.2938 19.0739Z" fill="white"/>
</g>
<path d="M7.58 65.15C6.86 65.15 6.24667 64.9933 5.74 64.68C5.23333 64.3633 4.845 63.9233 4.575 63.36C4.30833 62.7967 4.175 62.1433 4.175 61.4C4.175 60.6567 4.30833 60.0033 4.575 59.44C4.845 58.8767 5.23333 58.4383 5.74 58.125C6.24667 57.8083 6.86 57.65 7.58 57.65C8.41 57.65 9.09667 57.86 9.64 58.28C10.1867 58.7 10.5667 59.265 10.78 59.975L9.72 60.26C9.58 59.7567 9.33 59.3617 8.97 59.075C8.61333 58.7883 8.15 58.645 7.58 58.645C7.07 58.645 6.645 58.76 6.305 58.99C5.965 59.22 5.70833 59.5417 5.535 59.955C5.365 60.3683 5.28 60.85 5.28 61.4C5.27667 61.95 5.36 62.4317 5.53 62.845C5.70333 63.2583 5.96 63.58 6.3 63.81C6.64333 64.04 7.07 64.155 7.58 64.155C8.15 64.155 8.61333 64.0117 8.97 63.725C9.33 63.435 9.58 63.04 9.72 62.54L10.78 62.825C10.5667 63.535 10.1867 64.1 9.64 64.52C9.09667 64.94 8.41 65.15 7.58 65.15ZM11.8797 65V57.8H12.9397L16.4847 63.15V57.8H17.5447V65H16.4847L12.9397 59.645V65H11.8797ZM19.0402 65V57.8H20.0852V65H19.0402ZM24.5917 65.15C23.8717 65.15 23.2584 64.9933 22.7517 64.68C22.2451 64.3633 21.8567 63.9233 21.5867 63.36C21.3201 62.7967 21.1867 62.1433 21.1867 61.4C21.1867 60.6567 21.3201 60.0033 21.5867 59.44C21.8567 58.8767 22.2451 58.4383 22.7517 58.125C23.2584 57.8083 23.8717 57.65 24.5917 57.65C25.4217 57.65 26.1084 57.86 26.6517 58.28C27.1984 58.7 27.5784 59.265 27.7917 59.975L26.7317 60.26C26.5917 59.7567 26.3417 59.3617 25.9817 59.075C25.6251 58.7883 25.1617 58.645 24.5917 58.645C24.0817 58.645 23.6567 58.76 23.3167 58.99C22.9767 59.22 22.7201 59.5417 22.5467 59.955C22.3767 60.3683 22.2917 60.85 22.2917 61.4C22.2884 61.95 22.3717 62.4317 22.5417 62.845C22.7151 63.2583 22.9717 63.58 23.3117 63.81C23.6551 64.04 24.0817 64.155 24.5917 64.155C25.1617 64.155 25.6251 64.0117 25.9817 63.725C26.3417 63.435 26.5917 63.04 26.7317 62.54L27.7917 62.825C27.5784 63.535 27.1984 64.1 26.6517 64.52C26.1084 64.94 25.4217 65.15 24.5917 65.15ZM30.8934 65V57.8H33.7234C34.18 57.8 34.5634 57.8933 34.8734 58.08C35.1834 58.2667 35.4167 58.5083 35.5734 58.805C35.73 59.0983 35.8084 59.4083 35.8084 59.735C35.8084 60.1317 35.71 60.4717 35.5134 60.755C35.32 61.0383 35.0584 61.2317 34.7284 61.335L34.7184 61.09C35.1784 61.2033 35.5317 61.425 35.7784 61.755C36.025 62.0817 36.1484 62.4633 36.1484 62.9C36.1484 63.3233 36.0634 63.6917 35.8934 64.005C35.7267 64.3183 35.4817 64.5633 35.1584 64.74C34.8384 64.9133 34.45 65 33.9934 65H30.8934ZM31.9534 64.005H33.8334C34.07 64.005 34.2817 63.96 34.4684 63.87C34.6584 63.78 34.8067 63.6517 34.9134 63.485C35.0234 63.315 35.0784 63.1133 35.0784 62.88C35.0784 62.6633 35.03 62.4683 34.9334 62.295C34.84 62.1183 34.7034 61.98 34.5234 61.88C34.3467 61.7767 34.1384 61.725 33.8984 61.725H31.9534V64.005ZM31.9534 60.74H33.7084C33.9017 60.74 34.075 60.7017 34.2284 60.625C34.385 60.545 34.5084 60.4317 34.5984 60.285C34.6917 60.135 34.7384 59.955 34.7384 59.745C34.7384 59.465 34.645 59.235 34.4584 59.055C34.2717 58.875 34.0217 58.785 33.7084 58.785H31.9534V60.74ZM38.6684 65.15C38.2684 65.15 37.9334 65.0767 37.6634 64.93C37.3934 64.78 37.1884 64.5833 37.0484 64.34C36.9117 64.0933 36.8434 63.8233 36.8434 63.53C36.8434 63.2567 36.8917 63.0167 36.9884 62.81C37.085 62.6033 37.2284 62.4283 37.4184 62.285C37.6084 62.1383 37.8417 62.02 38.1184 61.93C38.3584 61.86 38.63 61.7983 38.9334 61.745C39.2367 61.6917 39.555 61.6417 39.8884 61.595C40.225 61.5483 40.5584 61.5017 40.8884 61.455L40.5084 61.665C40.515 61.2417 40.425 60.9283 40.2384 60.725C40.055 60.5183 39.7384 60.415 39.2884 60.415C39.005 60.415 38.745 60.4817 38.5084 60.615C38.2717 60.745 38.1067 60.9617 38.0134 61.265L37.0384 60.965C37.1717 60.5017 37.425 60.1333 37.7984 59.86C38.175 59.5867 38.675 59.45 39.2984 59.45C39.7817 59.45 40.2017 59.5333 40.5584 59.7C40.9184 59.8633 41.1817 60.1233 41.3484 60.48C41.435 60.6567 41.4884 60.8433 41.5084 61.04C41.5284 61.2367 41.5384 61.4483 41.5384 61.675V65H40.6134V63.765L40.7934 63.925C40.57 64.3383 40.285 64.6467 39.9384 64.85C39.595 65.05 39.1717 65.15 38.6684 65.15ZM38.8534 64.295C39.15 64.295 39.405 64.2433 39.6184 64.14C39.8317 64.0333 40.0034 63.8983 40.1334 63.735C40.2634 63.5717 40.3484 63.4017 40.3884 63.225C40.445 63.065 40.4767 62.885 40.4834 62.685C40.4934 62.485 40.4984 62.325 40.4984 62.205L40.8384 62.33C40.5084 62.38 40.2084 62.425 39.9384 62.465C39.6684 62.505 39.4234 62.545 39.2034 62.585C38.9867 62.6217 38.7934 62.6667 38.6234 62.72C38.48 62.77 38.3517 62.83 38.2384 62.9C38.1284 62.97 38.04 63.055 37.9734 63.155C37.91 63.255 37.8784 63.3767 37.8784 63.52C37.8784 63.66 37.9134 63.79 37.9834 63.91C38.0534 64.0267 38.16 64.12 38.3034 64.19C38.4467 64.26 38.63 64.295 38.8534 64.295ZM45.1467 65.15C44.5934 65.15 44.1234 65.0267 43.7367 64.78C43.3501 64.5333 43.0534 64.195 42.8467 63.765C42.6434 63.335 42.5401 62.8467 42.5367 62.3C42.5401 61.7433 42.6467 61.2517 42.8567 60.825C43.0667 60.395 43.3667 60.0583 43.7567 59.815C44.1467 59.5717 44.6151 59.45 45.1617 59.45C45.7517 59.45 46.2551 59.5967 46.6717 59.89C47.0917 60.1833 47.3684 60.585 47.5017 61.095L46.4617 61.395C46.3584 61.0917 46.1884 60.8567 45.9517 60.69C45.7184 60.52 45.4501 60.435 45.1467 60.435C44.8034 60.435 44.5217 60.5167 44.3017 60.68C44.0817 60.84 43.9184 61.06 43.8117 61.34C43.7051 61.62 43.6501 61.94 43.6467 62.3C43.6501 62.8567 43.7767 63.3067 44.0267 63.65C44.2801 63.9933 44.6534 64.165 45.1467 64.165C45.4834 64.165 45.7551 64.0883 45.9617 63.935C46.1717 63.7783 46.3317 63.555 46.4417 63.265L47.5017 63.515C47.3251 64.0417 47.0334 64.4467 46.6267 64.73C46.2201 65.01 45.7267 65.15 45.1467 65.15ZM48.5153 65L48.5203 57.8H49.5803V62.2L51.7003 59.6H53.0303L50.7903 62.3L53.2603 65H51.8403L49.5803 62.4V65H48.5153ZM57.8314 65.145C57.1747 65.145 56.6397 65 56.2264 64.71C55.8131 64.42 55.5597 64.0117 55.4664 63.485L56.5364 63.32C56.6031 63.6 56.7564 63.8217 56.9964 63.985C57.2397 64.145 57.5414 64.225 57.9014 64.225C58.2281 64.225 58.4831 64.1583 58.6664 64.025C58.8531 63.8917 58.9464 63.7083 58.9464 63.475C58.9464 63.3383 58.9131 63.2283 58.8464 63.145C58.7831 63.0583 58.6481 62.9767 58.4414 62.9C58.2347 62.8233 57.9197 62.7283 57.4964 62.615C57.0331 62.495 56.6647 62.3667 56.3914 62.23C56.1214 62.09 55.9281 61.9283 55.8114 61.745C55.6981 61.5583 55.6414 61.3333 55.6414 61.07C55.6414 60.7433 55.7281 60.4583 55.9014 60.215C56.0747 59.9717 56.3181 59.7833 56.6314 59.65C56.9481 59.5167 57.3181 59.45 57.7414 59.45C58.1547 59.45 58.5231 59.515 58.8464 59.645C59.1697 59.775 59.4314 59.96 59.6314 60.2C59.8314 60.4367 59.9514 60.715 59.9914 61.035L58.9214 61.23C58.8847 60.97 58.7631 60.765 58.5564 60.615C58.3497 60.465 58.0814 60.3833 57.7514 60.37C57.4347 60.3567 57.1781 60.41 56.9814 60.53C56.7847 60.6467 56.6864 60.8083 56.6864 61.015C56.6864 61.135 56.7231 61.2367 56.7964 61.32C56.8731 61.4033 57.0197 61.4833 57.2364 61.56C57.4531 61.6367 57.7731 61.7283 58.1964 61.835C58.6497 61.9517 59.0097 62.0817 59.2764 62.225C59.5431 62.365 59.7331 62.5333 59.8464 62.73C59.9631 62.9233 60.0214 63.1583 60.0214 63.435C60.0214 63.9683 59.8264 64.3867 59.4364 64.69C59.0497 64.9933 58.5147 65.145 57.8314 65.145ZM61.2277 58.715V57.7H62.2727V58.715H61.2277ZM61.2277 65V59.6H62.2727V65H61.2277ZM65.9192 65.15C65.4159 65.15 64.9809 65.025 64.6142 64.775C64.2509 64.525 63.9692 64.185 63.7692 63.755C63.5726 63.3217 63.4742 62.835 63.4742 62.295C63.4742 61.7517 63.5742 61.2667 63.7742 60.84C63.9742 60.41 64.2576 60.0717 64.6242 59.825C64.9942 59.575 65.4326 59.45 65.9392 59.45C66.4492 59.45 66.8776 59.575 67.2242 59.825C67.5742 60.0717 67.8376 60.41 68.0142 60.84C68.1942 61.27 68.2842 61.755 68.2842 62.295C68.2842 62.835 68.1942 63.32 68.0142 63.75C67.8342 64.18 67.5692 64.5217 67.2192 64.775C66.8692 65.025 66.4359 65.15 65.9192 65.15ZM66.0642 64.205C66.4076 64.205 66.6876 64.1233 66.9042 63.96C67.1209 63.7967 67.2792 63.5717 67.3792 63.285C67.4792 62.9983 67.5292 62.6683 67.5292 62.295C67.5292 61.9217 67.4776 61.5917 67.3742 61.305C67.2742 61.0183 67.1176 60.795 66.9042 60.635C66.6942 60.475 66.4259 60.395 66.0992 60.395C65.7526 60.395 65.4676 60.48 65.2442 60.65C65.0209 60.82 64.8542 61.0483 64.7442 61.335C64.6376 61.6217 64.5842 61.9417 64.5842 62.295C64.5842 62.6517 64.6376 62.975 64.7442 63.265C64.8542 63.5517 65.0176 63.78 65.2342 63.95C65.4542 64.12 65.7309 64.205 66.0642 64.205ZM67.5292 65V61.115H67.4092V57.8H68.4592V65H67.5292ZM72.2532 65.15C71.7165 65.15 71.2449 65.0333 70.8382 64.8C70.4349 64.5633 70.1199 64.235 69.8932 63.815C69.6699 63.3917 69.5582 62.9017 69.5582 62.345C69.5582 61.755 69.6682 61.2433 69.8882 60.81C70.1115 60.3767 70.4215 60.0417 70.8182 59.805C71.2149 59.5683 71.6765 59.45 72.2032 59.45C72.7532 59.45 73.2215 59.5783 73.6082 59.835C73.9949 60.0883 74.2832 60.45 74.4732 60.92C74.6665 61.39 74.7432 61.9483 74.7032 62.595H73.6582V62.215C73.6515 61.5883 73.5315 61.125 73.2982 60.825C73.0682 60.525 72.7165 60.375 72.2432 60.375C71.7199 60.375 71.3265 60.54 71.0632 60.87C70.7999 61.2 70.6682 61.6767 70.6682 62.3C70.6682 62.8933 70.7999 63.3533 71.0632 63.68C71.3265 64.0033 71.7065 64.165 72.2032 64.165C72.5299 64.165 72.8115 64.0917 73.0482 63.945C73.2882 63.795 73.4749 63.5817 73.6082 63.305L74.6332 63.63C74.4232 64.1133 74.1049 64.4883 73.6782 64.755C73.2515 65.0183 72.7765 65.15 72.2532 65.15ZM70.3282 62.595V61.78H74.1832V62.595H70.3282Z" fill="white"/>
<defs>
<clipPath id="clip0_3176_5764">
<rect width="77.2741" height="50" fill="white"/>
</clipPath>
</defs>
</svg>
