<svg width="343" height="360" viewBox="0 0 343 360" fill="none" xmlns="http://www.w3.org/2000/svg">
<path d="M116.053 57.5087C123.118 57.5087 128.845 51.7988 128.845 44.7553C128.845 37.7118 123.118 32.002 116.053 32.002C108.988 32.002 103.261 37.7118 103.261 44.7553C103.261 51.7988 108.988 57.5087 116.053 57.5087Z" fill="white" stroke="#3578DB" stroke-linecap="round" stroke-linejoin="round"/>
<path d="M140.701 77.1162C140.465 68.9935 132.757 62.5061 124.139 63.028C124.072 63.0312 124.002 63.028 123.932 63.028L105.636 62.9458C105.598 62.9458 105.559 62.9458 105.518 62.9458H105.301C96.3235 63.1482 89.0839 70.1164 89.1603 78.4826L89.5041 115.547C89.5328 118.701 92.3694 121.234 95.7536 121.209C97.9727 121.19 99.9051 120.096 100.984 118.473V169.214C100.984 173.295 103.799 176.578 108.272 176.603C114.318 176.638 115.317 170.394 115.317 170.394C115.317 170.394 116.393 175.945 121.853 176.619C126.282 177.166 130.137 174.342 130.137 170.223V119.574C131.271 120.735 132.91 121.468 134.738 121.468H134.773C138.195 121.449 140.952 118.878 140.933 115.724L140.694 77.1162H140.701Z" fill="white" stroke="#3578DB" stroke-linecap="round" stroke-linejoin="round"/>
<path d="M101.032 81.4434L100.984 118.47" stroke="#3578DB" stroke-linecap="round" stroke-linejoin="round"/>
<path d="M130.141 81.4434V119.571" stroke="#3578DB" stroke-linecap="round" stroke-linejoin="round"/>
<path d="M115.32 117.885V170.394" stroke="#3578DB" stroke-linecap="round" stroke-linejoin="round"/>
<path d="M149.901 95.9808L163.305 95.7056" stroke="#3578DB" stroke-linecap="round" stroke-linejoin="round"/>
<path d="M163.305 95.7056H180.169" stroke="#3578DB" stroke-linecap="round" stroke-linejoin="round"/>
<path d="M180.001 57.8438H164.946C163.871 57.8438 163.001 58.919 163.001 60.2481V152.439C163.001 153.769 163.871 154.844 164.946 154.844H180.001" stroke="#3578DB" stroke-linecap="round" stroke-linejoin="round"/>
<path d="M189.031 58.8457C189.508 55.9264 187.512 53.1757 184.574 52.7019C181.636 52.228 178.867 54.2104 178.39 57.1297C177.913 60.049 179.908 62.7997 182.847 63.2735C185.785 63.7474 188.554 61.765 189.031 58.8457Z" fill="#4CAF50" stroke="#3578DB" stroke-linecap="round" stroke-linejoin="round"/>
<path d="M189.03 96.5674C189.507 93.6481 187.512 90.8974 184.573 90.4235C181.635 89.9497 178.866 91.9321 178.389 94.8514C177.913 97.7707 179.908 100.521 182.846 100.995C185.785 101.469 188.553 99.4867 189.03 96.5674Z" fill="#4CAF50" stroke="#3578DB" stroke-linecap="round" stroke-linejoin="round"/>
<path d="M183.705 159.669C186.682 159.669 189.095 157.272 189.095 154.314C189.095 151.357 186.682 148.959 183.705 148.959C180.729 148.959 178.315 151.357 178.315 154.314C178.315 157.272 180.729 159.669 183.705 159.669Z" fill="#FF9A2E" stroke="#3578DB" stroke-linecap="round" stroke-linejoin="round"/>
<path d="M226.051 128.503C212.259 128.503 201.079 139.611 201.079 153.314C201.079 167.016 212.259 178.125 226.051 178.125C239.843 178.125 251.024 167.016 251.024 153.314C251.024 139.611 239.843 128.503 226.051 128.503Z" fill="#E0E0E0" stroke="#FF9A2E" stroke-linecap="round" stroke-linejoin="round"/>
<path d="M206.011 149.736C204.027 160.728 211.387 171.238 222.451 173.21C233.515 175.182 244.093 167.869 246.078 156.877C248.063 145.884 240.703 135.375 229.638 133.403C218.574 131.431 207.996 138.743 206.011 149.736Z" fill="white" stroke="#FF9A2E" stroke-linecap="round" stroke-linejoin="round"/>
<path d="M206.011 149.736C204.027 160.728 211.387 171.238 222.451 173.21C233.515 175.182 244.093 167.869 246.078 156.877C248.063 145.884 240.703 135.375 229.638 133.403C218.574 131.431 207.996 138.743 206.011 149.736Z" fill="white" stroke="#FF9A2E" stroke-linecap="round" stroke-linejoin="round"/>
<path d="M253.841 153.313H243.966" stroke="#FF9A2E" stroke-width="2" stroke-linecap="round" stroke-linejoin="round"/>
<path d="M208.137 153.313H198.261" stroke="#FF9A2E" stroke-width="2" stroke-linecap="round" stroke-linejoin="round"/>
<path d="M226.497 125.703V135.515" stroke="#FF9A2E" stroke-width="2" stroke-linecap="round" stroke-linejoin="round"/>
<path d="M226.497 171.112V180.924" stroke="#FF9A2E" stroke-width="2" stroke-linecap="round" stroke-linejoin="round"/>
<path d="M207.001 62.0438L202.801 57.8438L201.401 59.2438L207.001 64.8438L219.001 52.8438L217.601 51.4438L207.001 62.0438Z" fill="#4CAF50"/>
<path d="M207.001 100.044L202.801 95.8438L201.401 97.2438L207.001 102.844L219.001 90.8438L217.601 89.4438L207.001 100.044Z" fill="#4CAF50"/>
<path d="M23.311 254.418C21.496 254.418 19.9835 253.945 18.7735 252.999C17.5745 252.053 16.733 250.777 16.249 249.171L20.176 248.231C20.297 248.902 20.649 249.479 21.232 249.963C21.815 250.447 22.4585 250.689 23.1625 250.689C23.6245 250.689 24.114 250.568 24.631 250.326C25.148 250.073 25.533 249.672 25.786 249.122C25.94 248.77 26.028 248.352 26.05 247.868C26.083 247.373 26.0995 246.801 26.0995 246.152V230.163H30.1255V246.152C30.1255 246.889 30.12 247.538 30.109 248.099C30.109 248.649 30.054 249.171 29.944 249.666C29.845 250.15 29.6415 250.651 29.3335 251.168C28.6845 252.29 27.8375 253.115 26.7925 253.643C25.7475 254.16 24.587 254.418 23.311 254.418ZM41.7738 254.435C40.4538 254.435 39.3648 254.215 38.5068 253.775C37.6488 253.335 36.9668 252.774 36.4608 252.092C35.9548 251.41 35.5808 250.684 35.3388 249.914C35.0968 249.144 34.9373 248.418 34.8603 247.736C34.7943 247.043 34.7613 246.482 34.7613 246.053V236.103H38.7873V244.683C38.7873 245.233 38.8258 245.855 38.9028 246.548C38.9798 247.23 39.1558 247.89 39.4308 248.528C39.7168 249.155 40.1348 249.672 40.6848 250.079C41.2458 250.486 41.9993 250.689 42.9453 250.689C43.4513 250.689 43.9518 250.607 44.4468 250.442C44.9418 250.277 45.3873 249.996 45.7833 249.6C46.1903 249.193 46.5148 248.638 46.7568 247.934C46.9988 247.23 47.1198 246.339 47.1198 245.261L49.4793 246.267C49.4793 247.785 49.1823 249.16 48.5883 250.392C48.0053 251.624 47.1418 252.609 45.9978 253.346C44.8538 254.072 43.4458 254.435 41.7738 254.435ZM47.5983 253.923V248.396H47.1198V236.103H51.1128V253.923H47.5983ZM62.629 254.418C60.429 254.418 58.6415 253.923 57.2665 252.933C55.8915 251.943 55.0555 250.552 54.7585 248.759L58.8175 248.132C59.0265 249.012 59.4885 249.705 60.2035 250.211C60.9185 250.717 61.8205 250.97 62.9095 250.97C63.8665 250.97 64.6035 250.783 65.1205 250.409C65.6485 250.024 65.9125 249.501 65.9125 248.841C65.9125 248.434 65.8135 248.11 65.6155 247.868C65.4285 247.615 65.0105 247.373 64.3615 247.142C63.7125 246.911 62.717 246.619 61.375 246.267C59.879 245.871 58.691 245.448 57.811 244.997C56.931 244.535 56.2985 243.99 55.9135 243.363C55.5285 242.736 55.336 241.977 55.336 241.086C55.336 239.975 55.6275 239.007 56.2105 238.182C56.7935 237.357 57.6075 236.725 58.6525 236.285C59.6975 235.834 60.9295 235.608 62.3485 235.608C63.7345 235.608 64.961 235.823 66.028 236.252C67.106 236.681 67.975 237.291 68.635 238.083C69.295 238.875 69.702 239.805 69.856 240.872L65.797 241.598C65.698 240.839 65.3515 240.239 64.7575 239.799C64.1745 239.359 63.3935 239.112 62.4145 239.057C61.4795 239.002 60.726 239.145 60.154 239.486C59.582 239.816 59.296 240.283 59.296 240.888C59.296 241.229 59.4115 241.521 59.6425 241.763C59.8735 242.005 60.3355 242.247 61.0285 242.489C61.7325 242.731 62.7775 243.028 64.1635 243.38C65.5825 243.743 66.7155 244.161 67.5625 244.634C68.4205 245.096 69.0365 245.651 69.4105 246.3C69.7955 246.949 69.988 247.736 69.988 248.66C69.988 250.453 69.3335 251.861 68.0245 252.884C66.7265 253.907 64.928 254.418 62.629 254.418ZM84.0465 253.923C82.8695 254.143 81.7145 254.237 80.5815 254.204C79.4595 254.182 78.453 253.978 77.562 253.593C76.671 253.197 75.9945 252.576 75.5325 251.729C75.1255 250.959 74.911 250.172 74.889 249.369C74.867 248.566 74.856 247.659 74.856 246.647V231.153H78.816V246.416C78.816 247.131 78.8215 247.758 78.8325 248.297C78.8545 248.836 78.97 249.276 79.179 249.617C79.575 250.277 80.2075 250.645 81.0765 250.722C81.9455 250.799 82.9355 250.755 84.0465 250.59V253.923ZM71.622 239.222V236.103H84.0465V239.222H71.622ZM102.355 254.418C100.573 254.418 99.0168 254.017 97.6858 253.214C96.3548 252.411 95.3208 251.305 94.5838 249.897C93.8578 248.478 93.4948 246.85 93.4948 245.013C93.4948 243.143 93.8688 241.504 94.6168 240.096C95.3648 238.688 96.4043 237.588 97.7353 236.796C99.0663 236.004 100.606 235.608 102.355 235.608C104.148 235.608 105.71 236.01 107.041 236.813C108.372 237.616 109.406 238.727 110.143 240.146C110.88 241.554 111.249 243.176 111.249 245.013C111.249 246.861 110.875 248.495 110.127 249.914C109.39 251.322 108.356 252.427 107.025 253.23C105.694 254.022 104.137 254.418 102.355 254.418ZM102.355 250.689C103.939 250.689 105.116 250.161 105.886 249.105C106.656 248.049 107.041 246.685 107.041 245.013C107.041 243.286 106.651 241.911 105.87 240.888C105.089 239.854 103.917 239.337 102.355 239.337C101.288 239.337 100.408 239.579 99.7153 240.063C99.0333 240.536 98.5273 241.202 98.1973 242.06C97.8673 242.907 97.7023 243.891 97.7023 245.013C97.7023 246.74 98.0928 248.121 98.8738 249.155C99.6658 250.178 100.826 250.689 102.355 250.689ZM127.21 253.923V245.343C127.21 244.782 127.171 244.161 127.094 243.479C127.017 242.797 126.836 242.142 126.55 241.515C126.275 240.877 125.857 240.355 125.296 239.948C124.746 239.541 123.998 239.337 123.052 239.337C122.546 239.337 122.045 239.42 121.55 239.585C121.055 239.75 120.604 240.036 120.197 240.443C119.801 240.839 119.482 241.389 119.24 242.093C118.998 242.786 118.877 243.677 118.877 244.766L116.518 243.759C116.518 242.241 116.809 240.866 117.392 239.634C117.986 238.402 118.855 237.423 119.999 236.697C121.143 235.96 122.551 235.592 124.223 235.592C125.543 235.592 126.632 235.812 127.49 236.252C128.348 236.692 129.03 237.253 129.536 237.935C130.042 238.617 130.416 239.343 130.658 240.113C130.9 240.883 131.054 241.614 131.12 242.307C131.197 242.989 131.236 243.545 131.236 243.974V253.923H127.21ZM114.851 253.923V236.103H118.399V241.631H118.877V253.923H114.851ZM143.353 254.418C141.549 254.418 139.965 254.028 138.601 253.247C137.237 252.466 136.17 251.382 135.4 249.996C134.641 248.61 134.261 247.015 134.261 245.211C134.261 243.264 134.635 241.576 135.383 240.146C136.131 238.705 137.171 237.588 138.502 236.796C139.833 236.004 141.373 235.608 143.122 235.608C144.97 235.608 146.537 236.043 147.824 236.912C149.122 237.77 150.085 238.985 150.712 240.558C151.339 242.131 151.575 243.985 151.421 246.119H147.478V244.667C147.467 242.731 147.126 241.317 146.455 240.426C145.784 239.535 144.728 239.09 143.287 239.09C141.659 239.09 140.449 239.596 139.657 240.608C138.865 241.609 138.469 243.077 138.469 245.013C138.469 246.817 138.865 248.214 139.657 249.204C140.449 250.194 141.604 250.689 143.122 250.689C144.101 250.689 144.942 250.475 145.646 250.046C146.361 249.606 146.911 248.973 147.296 248.148L151.223 249.336C150.541 250.942 149.485 252.191 148.055 253.082C146.636 253.973 145.069 254.418 143.353 254.418ZM137.215 246.119V243.116H149.474V246.119H137.215ZM162.039 253.923V229.668H166.016V253.923H162.039ZM175.941 254.418C174.654 254.418 173.565 254.176 172.674 253.692C171.783 253.197 171.107 252.543 170.645 251.729C170.194 250.915 169.968 250.018 169.968 249.039C169.968 248.181 170.111 247.411 170.397 246.729C170.683 246.036 171.123 245.442 171.717 244.947C172.311 244.441 173.081 244.029 174.027 243.71C174.742 243.479 175.578 243.27 176.535 243.083C177.503 242.896 178.548 242.725 179.67 242.571C180.803 242.406 181.986 242.23 183.218 242.043L181.799 242.852C181.81 241.62 181.535 240.712 180.974 240.129C180.413 239.546 179.467 239.255 178.136 239.255C177.333 239.255 176.557 239.442 175.809 239.816C175.061 240.19 174.539 240.833 174.242 241.746L170.612 240.608C171.052 239.101 171.888 237.891 173.12 236.978C174.363 236.065 176.035 235.608 178.136 235.608C179.72 235.608 181.111 235.867 182.31 236.384C183.52 236.901 184.417 237.748 185 238.925C185.319 239.552 185.511 240.195 185.577 240.855C185.643 241.504 185.676 242.214 185.676 242.984V253.923H182.195V250.062L182.772 250.689C181.969 251.976 181.029 252.922 179.951 253.527C178.884 254.121 177.547 254.418 175.941 254.418ZM176.733 251.25C177.635 251.25 178.405 251.091 179.043 250.772C179.681 250.453 180.187 250.062 180.561 249.6C180.946 249.138 181.205 248.704 181.337 248.297C181.546 247.791 181.661 247.213 181.683 246.564C181.716 245.904 181.733 245.371 181.733 244.964L182.954 245.327C181.755 245.514 180.726 245.679 179.868 245.822C179.01 245.965 178.273 246.102 177.657 246.234C177.041 246.355 176.497 246.493 176.024 246.647C175.562 246.812 175.171 247.004 174.852 247.224C174.533 247.444 174.286 247.697 174.11 247.983C173.945 248.269 173.862 248.605 173.862 248.99C173.862 249.43 173.972 249.82 174.192 250.161C174.412 250.491 174.731 250.755 175.149 250.953C175.578 251.151 176.106 251.25 176.733 251.25ZM196.853 254.418C194.653 254.418 192.865 253.923 191.49 252.933C190.115 251.943 189.279 250.552 188.982 248.759L193.041 248.132C193.25 249.012 193.712 249.705 194.427 250.211C195.142 250.717 196.044 250.97 197.133 250.97C198.09 250.97 198.827 250.783 199.344 250.409C199.872 250.024 200.136 249.501 200.136 248.841C200.136 248.434 200.037 248.11 199.839 247.868C199.652 247.615 199.234 247.373 198.585 247.142C197.936 246.911 196.941 246.619 195.599 246.267C194.103 245.871 192.915 245.448 192.035 244.997C191.155 244.535 190.522 243.99 190.137 243.363C189.752 242.736 189.56 241.977 189.56 241.086C189.56 239.975 189.851 239.007 190.434 238.182C191.017 237.357 191.831 236.725 192.876 236.285C193.921 235.834 195.153 235.608 196.572 235.608C197.958 235.608 199.185 235.823 200.252 236.252C201.33 236.681 202.199 237.291 202.859 238.083C203.519 238.875 203.926 239.805 204.08 240.872L200.021 241.598C199.922 240.839 199.575 240.239 198.981 239.799C198.398 239.359 197.617 239.112 196.638 239.057C195.703 239.002 194.95 239.145 194.378 239.486C193.806 239.816 193.52 240.283 193.52 240.888C193.52 241.229 193.635 241.521 193.866 241.763C194.097 242.005 194.559 242.247 195.252 242.489C195.956 242.731 197.001 243.028 198.387 243.38C199.806 243.743 200.939 244.161 201.786 244.634C202.644 245.096 203.26 245.651 203.634 246.3C204.019 246.949 204.212 247.736 204.212 248.66C204.212 250.453 203.557 251.861 202.248 252.884C200.95 253.907 199.152 254.418 196.853 254.418ZM218.27 253.923C217.093 254.143 215.938 254.237 214.805 254.204C213.683 254.182 212.677 253.978 211.786 253.593C210.895 253.197 210.218 252.576 209.756 251.729C209.349 250.959 209.135 250.172 209.113 249.369C209.091 248.566 209.08 247.659 209.08 246.647V231.153H213.04V246.416C213.04 247.131 213.045 247.758 213.056 248.297C213.078 248.836 213.194 249.276 213.403 249.617C213.799 250.277 214.431 250.645 215.3 250.722C216.169 250.799 217.159 250.755 218.27 250.59V253.923ZM205.846 239.222V236.103H218.27V239.222H205.846ZM235.589 254.418C233.389 254.418 231.601 253.923 230.226 252.933C228.851 251.943 228.015 250.552 227.718 248.759L231.777 248.132C231.986 249.012 232.448 249.705 233.163 250.211C233.878 250.717 234.78 250.97 235.869 250.97C236.826 250.97 237.563 250.783 238.08 250.409C238.608 250.024 238.872 249.501 238.872 248.841C238.872 248.434 238.773 248.11 238.575 247.868C238.388 247.615 237.97 247.373 237.321 247.142C236.672 246.911 235.677 246.619 234.335 246.267C232.839 245.871 231.651 245.448 230.771 244.997C229.891 244.535 229.258 243.99 228.873 243.363C228.488 242.736 228.296 241.977 228.296 241.086C228.296 239.975 228.587 239.007 229.17 238.182C229.753 237.357 230.567 236.725 231.612 236.285C232.657 235.834 233.889 235.608 235.308 235.608C236.694 235.608 237.921 235.823 238.988 236.252C240.066 236.681 240.935 237.291 241.595 238.083C242.255 238.875 242.662 239.805 242.816 240.872L238.757 241.598C238.658 240.839 238.311 240.239 237.717 239.799C237.134 239.359 236.353 239.112 235.374 239.057C234.439 239.002 233.686 239.145 233.114 239.486C232.542 239.816 232.256 240.283 232.256 240.888C232.256 241.229 232.371 241.521 232.602 241.763C232.833 242.005 233.295 242.247 233.988 242.489C234.692 242.731 235.737 243.028 237.123 243.38C238.542 243.743 239.675 244.161 240.522 244.634C241.38 245.096 241.996 245.651 242.37 246.3C242.755 246.949 242.948 247.736 242.948 248.66C242.948 250.453 242.293 251.861 240.984 252.884C239.686 253.907 237.888 254.418 235.589 254.418ZM257.006 253.923C255.829 254.143 254.674 254.237 253.541 254.204C252.419 254.182 251.413 253.978 250.522 253.593C249.631 253.197 248.954 252.576 248.492 251.729C248.085 250.959 247.871 250.172 247.849 249.369C247.827 248.566 247.816 247.659 247.816 246.647V231.153H251.776V246.416C251.776 247.131 251.781 247.758 251.792 248.297C251.814 248.836 251.93 249.276 252.139 249.617C252.535 250.277 253.167 250.645 254.036 250.722C254.905 250.799 255.895 250.755 257.006 250.59V253.923ZM244.582 239.222V236.103H257.006V239.222H244.582ZM268.037 254.418C266.233 254.418 264.649 254.028 263.285 253.247C261.921 252.466 260.854 251.382 260.084 249.996C259.325 248.61 258.946 247.015 258.946 245.211C258.946 243.264 259.32 241.576 260.068 240.146C260.816 238.705 261.855 237.588 263.186 236.796C264.517 236.004 266.057 235.608 267.806 235.608C269.654 235.608 271.222 236.043 272.509 236.912C273.807 237.77 274.769 238.985 275.396 240.558C276.023 242.131 276.26 243.985 276.106 246.119H272.162V244.667C272.151 242.731 271.81 241.317 271.139 240.426C270.468 239.535 269.412 239.09 267.971 239.09C266.343 239.09 265.133 239.596 264.341 240.608C263.549 241.609 263.153 243.077 263.153 245.013C263.153 246.817 263.549 248.214 264.341 249.204C265.133 250.194 266.288 250.689 267.806 250.689C268.785 250.689 269.627 250.475 270.331 250.046C271.046 249.606 271.596 248.973 271.981 248.148L275.908 249.336C275.226 250.942 274.17 252.191 272.74 253.082C271.321 253.973 269.753 254.418 268.037 254.418ZM261.899 246.119V243.116H274.159V246.119H261.899ZM287.868 254.418C286.13 254.418 284.672 254.006 283.495 253.181C282.318 252.356 281.433 251.234 280.839 249.815C280.245 248.385 279.948 246.784 279.948 245.013C279.948 243.22 280.245 241.614 280.839 240.195C281.433 238.776 282.302 237.66 283.446 236.846C284.601 236.021 286.025 235.608 287.719 235.608C289.402 235.608 290.86 236.021 292.092 236.846C293.335 237.66 294.297 238.776 294.979 240.195C295.661 241.603 296.002 243.209 296.002 245.013C296.002 246.795 295.667 248.396 294.996 249.815C294.325 251.234 293.379 252.356 292.158 253.181C290.937 254.006 289.507 254.418 287.868 254.418ZM279.271 261.843V236.103H282.786V248.61H283.281V261.843H279.271ZM287.257 250.854C288.291 250.854 289.144 250.596 289.815 250.079C290.486 249.562 290.981 248.863 291.3 247.983C291.63 247.092 291.795 246.102 291.795 245.013C291.795 243.935 291.63 242.956 291.3 242.076C290.97 241.185 290.458 240.481 289.765 239.964C289.072 239.436 288.192 239.172 287.125 239.172C286.113 239.172 285.288 239.42 284.65 239.915C284.012 240.399 283.539 241.081 283.231 241.961C282.934 242.83 282.786 243.847 282.786 245.013C282.786 246.168 282.934 247.186 283.231 248.066C283.539 248.946 284.018 249.633 284.667 250.128C285.327 250.612 286.19 250.854 287.257 250.854ZM299.655 253.923V249.848H303.73V253.923H299.655ZM309.677 253.923V249.848H313.753V253.923H309.677ZM319.699 253.923V249.848H323.775V253.923H319.699Z" fill="#2AACE3"/>
<path d="M42.0274 300.923L47.1274 286.523H48.5574L53.6574 300.923H52.4374L47.5374 287.123H48.1174L43.2474 300.923H42.0274ZM44.1374 297.303V296.213H51.5374V297.303H44.1374ZM63.3593 300.923V295.303C63.3593 294.623 63.2893 294.017 63.1493 293.483C63.016 292.95 62.8093 292.497 62.5293 292.123C62.256 291.75 61.9093 291.467 61.4893 291.273C61.076 291.08 60.586 290.983 60.0193 290.983C59.4326 290.983 58.9226 291.087 58.4893 291.293C58.0627 291.493 57.7093 291.777 57.4293 292.143C57.156 292.51 56.9493 292.947 56.8093 293.453C56.676 293.953 56.6093 294.5 56.6093 295.093L55.6993 294.983C55.6993 293.817 55.896 292.857 56.2893 292.103C56.6893 291.343 57.226 290.783 57.8993 290.423C58.5727 290.057 59.3293 289.873 60.1693 289.873C60.7627 289.873 61.2927 289.96 61.7593 290.133C62.2327 290.307 62.6427 290.553 62.9893 290.873C63.336 291.187 63.6227 291.56 63.8493 291.993C64.076 292.42 64.2427 292.89 64.3493 293.403C64.4627 293.917 64.5193 294.453 64.5193 295.013V300.923H63.3593ZM55.4493 300.923V290.123H56.4993V292.553H56.6093V300.923H55.4493ZM71.2204 301.223C70.2004 301.223 69.3371 300.973 68.6304 300.473C67.9304 299.967 67.3937 299.283 67.0204 298.423C66.6537 297.557 66.4704 296.583 66.4704 295.503C66.4704 294.437 66.6537 293.473 67.0204 292.613C67.3871 291.753 67.9137 291.073 68.6004 290.573C69.2937 290.073 70.1304 289.823 71.1104 289.823C72.1171 289.823 72.9671 290.07 73.6604 290.563C74.3537 291.057 74.8771 291.733 75.2304 292.593C75.5837 293.447 75.7604 294.417 75.7604 295.503C75.7604 296.583 75.5837 297.553 75.2304 298.413C74.8771 299.273 74.3637 299.957 73.6904 300.463C73.0171 300.97 72.1937 301.223 71.2204 301.223ZM71.2904 300.123C72.0971 300.123 72.7671 299.923 73.3004 299.523C73.8404 299.117 74.2404 298.567 74.5004 297.873C74.7671 297.173 74.9004 296.383 74.9004 295.503C74.9004 294.617 74.7671 293.827 74.5004 293.133C74.2337 292.44 73.8337 291.9 73.3004 291.513C72.7671 291.12 72.1037 290.923 71.3104 290.923C70.4904 290.923 69.8137 291.127 69.2804 291.533C68.7471 291.933 68.3504 292.48 68.0904 293.173C67.8304 293.86 67.7004 294.637 67.7004 295.503C67.7004 296.377 67.8337 297.163 68.1004 297.863C68.3737 298.557 68.7737 299.107 69.3004 299.513C69.8337 299.92 70.4971 300.123 71.2904 300.123ZM74.9004 300.923V292.603H74.8004V286.523H75.9504V300.923H74.9004ZM84.334 305.723L86.434 300.073L86.454 301.753L81.724 290.123H82.954L87.014 300.223H86.374L90.064 290.123H91.274L85.534 305.723H84.334ZM97.1254 301.223C96.0521 301.223 95.1421 300.98 94.3954 300.493C93.6487 300.007 93.0787 299.333 92.6854 298.473C92.2921 297.613 92.0954 296.623 92.0954 295.503C92.0954 294.377 92.2954 293.387 92.6954 292.533C93.0954 291.673 93.6687 291.007 94.4154 290.533C95.1687 290.06 96.0721 289.823 97.1254 289.823C98.1987 289.823 99.1087 290.067 99.8554 290.553C100.609 291.033 101.179 291.7 101.565 292.553C101.959 293.407 102.155 294.39 102.155 295.503C102.155 296.643 101.959 297.643 101.565 298.503C101.172 299.357 100.599 300.023 99.8454 300.503C99.0921 300.983 98.1854 301.223 97.1254 301.223ZM97.1254 300.103C98.3987 300.103 99.3487 299.677 99.9754 298.823C100.609 297.97 100.925 296.863 100.925 295.503C100.925 294.117 100.609 293.01 99.9754 292.183C99.3421 291.357 98.3921 290.943 97.1254 290.943C96.2654 290.943 95.5554 291.14 94.9954 291.533C94.4354 291.92 94.0154 292.457 93.7354 293.143C93.4621 293.823 93.3254 294.61 93.3254 295.503C93.3254 296.89 93.6454 298.003 94.2854 298.843C94.9321 299.683 95.8787 300.103 97.1254 300.103ZM108.506 301.173C107.912 301.173 107.379 301.087 106.906 300.913C106.439 300.74 106.032 300.497 105.686 300.183C105.339 299.863 105.052 299.49 104.826 299.063C104.599 298.63 104.429 298.157 104.316 297.643C104.209 297.13 104.156 296.593 104.156 296.033V290.123H105.316V295.743C105.316 296.423 105.382 297.03 105.516 297.563C105.656 298.097 105.862 298.55 106.136 298.923C106.416 299.297 106.762 299.58 107.176 299.773C107.596 299.967 108.089 300.063 108.656 300.063C109.242 300.063 109.749 299.963 110.176 299.763C110.609 299.557 110.962 299.27 111.236 298.903C111.516 298.537 111.722 298.103 111.856 297.603C111.996 297.097 112.066 296.547 112.066 295.953L112.976 296.063C112.976 297.23 112.776 298.193 112.376 298.953C111.982 299.707 111.449 300.267 110.776 300.633C110.102 300.993 109.346 301.173 108.506 301.173ZM112.176 300.923V298.493H112.066V290.123H113.226V300.923H112.176ZM122.32 300.923L119.02 290.123H120.2L122.91 298.993L125.62 290.123H126.73L129.45 298.993L132.17 290.123H133.33L130.03 300.923H128.95L126.18 291.933L123.4 300.923H122.32ZM135.337 287.943V286.473H136.487V287.943H135.337ZM135.337 300.923V290.123H136.487V300.923H135.337ZM139.692 300.923V286.223H140.842V300.923H139.692ZM144.048 300.923V286.223H145.198V300.923H144.048ZM156.407 306.023C155.874 306.023 155.34 305.943 154.807 305.783C154.28 305.63 153.787 305.377 153.327 305.023C152.867 304.677 152.477 304.213 152.157 303.633L153.197 303.013C153.524 303.68 153.987 304.157 154.587 304.443C155.187 304.73 155.797 304.873 156.417 304.873C157.29 304.873 157.98 304.71 158.487 304.383C159 304.063 159.367 303.58 159.587 302.933C159.807 302.293 159.917 301.497 159.917 300.543V297.713H160.037V290.123H161.087V300.543C161.087 300.863 161.08 301.17 161.067 301.463C161.054 301.757 161.024 302.05 160.977 302.343C160.857 303.177 160.61 303.863 160.237 304.403C159.864 304.95 159.357 305.357 158.717 305.623C158.084 305.89 157.314 306.023 156.407 306.023ZM156.357 301.223C155.337 301.223 154.474 300.973 153.767 300.473C153.067 299.967 152.53 299.283 152.157 298.423C151.79 297.557 151.607 296.583 151.607 295.503C151.607 294.437 151.79 293.473 152.157 292.613C152.524 291.753 153.05 291.073 153.737 290.573C154.43 290.073 155.267 289.823 156.247 289.823C157.254 289.823 158.104 290.07 158.797 290.563C159.49 291.057 160.014 291.733 160.367 292.593C160.72 293.447 160.897 294.417 160.897 295.503C160.897 296.583 160.72 297.553 160.367 298.413C160.014 299.273 159.5 299.957 158.827 300.463C158.154 300.97 157.33 301.223 156.357 301.223ZM156.427 300.123C157.234 300.123 157.904 299.923 158.437 299.523C158.977 299.117 159.377 298.567 159.637 297.873C159.904 297.173 160.037 296.383 160.037 295.503C160.037 294.617 159.904 293.827 159.637 293.133C159.37 292.44 158.97 291.9 158.437 291.513C157.904 291.12 157.24 290.923 156.447 290.923C155.627 290.923 154.95 291.127 154.417 291.533C153.884 291.933 153.487 292.48 153.227 293.173C152.967 293.86 152.837 294.637 152.837 295.503C152.837 296.377 152.97 297.163 153.237 297.863C153.51 298.557 153.91 299.107 154.437 299.513C154.97 299.92 155.634 300.123 156.427 300.123ZM168.337 301.223C167.303 301.223 166.41 300.993 165.657 300.533C164.903 300.067 164.32 299.41 163.907 298.563C163.493 297.71 163.287 296.703 163.287 295.543C163.287 294.363 163.49 293.347 163.897 292.493C164.31 291.633 164.89 290.973 165.637 290.513C166.39 290.053 167.283 289.823 168.317 289.823C169.363 289.823 170.257 290.063 170.997 290.543C171.743 291.017 172.31 291.703 172.697 292.603C173.09 293.503 173.277 294.587 173.257 295.853H172.057V295.453C172.023 293.973 171.69 292.847 171.057 292.073C170.423 291.3 169.517 290.913 168.337 290.913C167.117 290.913 166.173 291.317 165.507 292.123C164.847 292.923 164.517 294.057 164.517 295.523C164.517 296.977 164.847 298.103 165.507 298.903C166.173 299.703 167.11 300.103 168.317 300.103C169.15 300.103 169.877 299.91 170.497 299.523C171.123 299.13 171.62 298.57 171.987 297.843L173.027 298.303C172.593 299.237 171.967 299.957 171.147 300.463C170.327 300.97 169.39 301.223 168.337 301.223ZM164.077 295.853V294.813H172.607V295.853H164.077ZM181.199 300.923C180.626 301.05 180.059 301.097 179.499 301.063C178.939 301.037 178.439 300.913 177.999 300.693C177.566 300.467 177.239 300.12 177.019 299.653C176.839 299.273 176.739 298.89 176.719 298.503C176.699 298.117 176.689 297.673 176.689 297.173V287.123H177.849V297.153C177.849 297.607 177.852 297.983 177.859 298.283C177.872 298.577 177.942 298.847 178.069 299.093C178.309 299.553 178.689 299.833 179.209 299.933C179.729 300.027 180.392 300.01 181.199 299.883V300.923ZM174.269 291.173V290.123H181.199V291.173H174.269ZM188.846 305.723L190.946 300.073L190.966 301.753L186.236 290.123H187.466L191.526 300.223H190.886L194.576 290.123H195.786L190.046 305.723H188.846ZM201.637 301.223C200.564 301.223 199.654 300.98 198.907 300.493C198.16 300.007 197.59 299.333 197.197 298.473C196.804 297.613 196.607 296.623 196.607 295.503C196.607 294.377 196.807 293.387 197.207 292.533C197.607 291.673 198.18 291.007 198.927 290.533C199.68 290.06 200.584 289.823 201.637 289.823C202.71 289.823 203.62 290.067 204.367 290.553C205.12 291.033 205.69 291.7 206.077 292.553C206.47 293.407 206.667 294.39 206.667 295.503C206.667 296.643 206.47 297.643 206.077 298.503C205.684 299.357 205.11 300.023 204.357 300.503C203.604 300.983 202.697 301.223 201.637 301.223ZM201.637 300.103C202.91 300.103 203.86 299.677 204.487 298.823C205.12 297.97 205.437 296.863 205.437 295.503C205.437 294.117 205.12 293.01 204.487 292.183C203.854 291.357 202.904 290.943 201.637 290.943C200.777 290.943 200.067 291.14 199.507 291.533C198.947 291.92 198.527 292.457 198.247 293.143C197.974 293.823 197.837 294.61 197.837 295.503C197.837 296.89 198.157 298.003 198.797 298.843C199.444 299.683 200.39 300.103 201.637 300.103ZM213.017 301.173C212.424 301.173 211.891 301.087 211.417 300.913C210.951 300.74 210.544 300.497 210.197 300.183C209.851 299.863 209.564 299.49 209.337 299.063C209.111 298.63 208.941 298.157 208.827 297.643C208.721 297.13 208.667 296.593 208.667 296.033V290.123H209.827V295.743C209.827 296.423 209.894 297.03 210.027 297.563C210.167 298.097 210.374 298.55 210.647 298.923C210.927 299.297 211.274 299.58 211.687 299.773C212.107 299.967 212.601 300.063 213.167 300.063C213.754 300.063 214.261 299.963 214.687 299.763C215.121 299.557 215.474 299.27 215.747 298.903C216.027 298.537 216.234 298.103 216.367 297.603C216.507 297.097 216.577 296.547 216.577 295.953L217.487 296.063C217.487 297.23 217.287 298.193 216.887 298.953C216.494 299.707 215.961 300.267 215.287 300.633C214.614 300.993 213.857 301.173 213.017 301.173ZM216.687 300.923V298.493H216.577V290.123H217.737V300.923H216.687ZM220.527 300.923V290.123H221.577V292.713L221.317 292.373C221.437 292.067 221.587 291.783 221.767 291.523C221.954 291.257 222.144 291.04 222.337 290.873C222.624 290.607 222.961 290.407 223.347 290.273C223.734 290.133 224.124 290.053 224.517 290.033C224.911 290.007 225.267 290.037 225.587 290.123V291.213C225.161 291.113 224.707 291.093 224.227 291.153C223.747 291.213 223.297 291.42 222.877 291.773C222.511 292.093 222.244 292.467 222.077 292.893C221.911 293.313 221.804 293.757 221.757 294.223C221.711 294.683 221.687 295.133 221.687 295.573V300.923H220.527ZM236.214 301.223C235.241 301.223 234.418 300.97 233.744 300.463C233.071 299.957 232.558 299.273 232.204 298.413C231.851 297.553 231.674 296.583 231.674 295.503C231.674 294.417 231.851 293.447 232.204 292.593C232.558 291.733 233.081 291.057 233.774 290.563C234.468 290.07 235.318 289.823 236.324 289.823C237.304 289.823 238.141 290.073 238.834 290.573C239.528 291.073 240.054 291.753 240.414 292.613C240.781 293.473 240.964 294.437 240.964 295.503C240.964 296.583 240.778 297.557 240.404 298.423C240.038 299.283 239.501 299.967 238.794 300.473C238.094 300.973 237.234 301.223 236.214 301.223ZM231.484 305.723V290.123H232.534V298.443H232.634V305.723H231.484ZM236.144 300.123C236.938 300.123 237.598 299.92 238.124 299.513C238.658 299.107 239.058 298.557 239.324 297.863C239.598 297.163 239.734 296.377 239.734 295.503C239.734 294.637 239.601 293.86 239.334 293.173C239.074 292.48 238.678 291.933 238.144 291.533C237.618 291.127 236.944 290.923 236.124 290.923C235.331 290.923 234.668 291.12 234.134 291.513C233.601 291.9 233.201 292.44 232.934 293.133C232.668 293.827 232.534 294.617 232.534 295.503C232.534 296.383 232.664 297.173 232.924 297.873C233.191 298.567 233.591 299.117 234.124 299.523C234.664 299.923 235.338 300.123 236.144 300.123ZM243.164 300.923V290.123H244.214V292.713L243.954 292.373C244.074 292.067 244.224 291.783 244.404 291.523C244.591 291.257 244.781 291.04 244.974 290.873C245.261 290.607 245.597 290.407 245.984 290.273C246.371 290.133 246.761 290.053 247.154 290.033C247.547 290.007 247.904 290.037 248.224 290.123V291.213C247.797 291.113 247.344 291.093 246.864 291.153C246.384 291.213 245.934 291.42 245.514 291.773C245.147 292.093 244.881 292.467 244.714 292.893C244.547 293.313 244.441 293.757 244.394 294.223C244.347 294.683 244.324 295.133 244.324 295.573V300.923H243.164ZM254.352 301.223C253.279 301.223 252.369 300.98 251.622 300.493C250.875 300.007 250.305 299.333 249.912 298.473C249.519 297.613 249.322 296.623 249.322 295.503C249.322 294.377 249.522 293.387 249.922 292.533C250.322 291.673 250.895 291.007 251.642 290.533C252.395 290.06 253.299 289.823 254.352 289.823C255.425 289.823 256.335 290.067 257.082 290.553C257.835 291.033 258.405 291.7 258.792 292.553C259.185 293.407 259.382 294.39 259.382 295.503C259.382 296.643 259.185 297.643 258.792 298.503C258.399 299.357 257.825 300.023 257.072 300.503C256.319 300.983 255.412 301.223 254.352 301.223ZM254.352 300.103C255.625 300.103 256.575 299.677 257.202 298.823C257.835 297.97 258.152 296.863 258.152 295.503C258.152 294.117 257.835 293.01 257.202 292.183C256.569 291.357 255.619 290.943 254.352 290.943C253.492 290.943 252.782 291.14 252.222 291.533C251.662 291.92 251.242 292.457 250.962 293.143C250.689 293.823 250.552 294.61 250.552 295.503C250.552 296.89 250.872 298.003 251.512 298.843C252.159 299.683 253.105 300.103 254.352 300.103ZM266.012 301.223C264.939 301.223 264.029 300.98 263.282 300.493C262.535 300.007 261.965 299.333 261.572 298.473C261.179 297.613 260.982 296.623 260.982 295.503C260.982 294.377 261.182 293.387 261.582 292.533C261.982 291.673 262.555 291.007 263.302 290.533C264.055 290.06 264.959 289.823 266.012 289.823C267.085 289.823 267.995 290.067 268.742 290.553C269.495 291.033 270.065 291.7 270.452 292.553C270.845 293.407 271.042 294.39 271.042 295.503C271.042 296.643 270.845 297.643 270.452 298.503C270.059 299.357 269.485 300.023 268.732 300.503C267.979 300.983 267.072 301.223 266.012 301.223ZM266.012 300.103C267.285 300.103 268.235 299.677 268.862 298.823C269.495 297.97 269.812 296.863 269.812 295.503C269.812 294.117 269.495 293.01 268.862 292.183C268.229 291.357 267.279 290.943 266.012 290.943C265.152 290.943 264.442 291.14 263.882 291.533C263.322 291.92 262.902 292.457 262.622 293.143C262.349 293.823 262.212 294.61 262.212 295.503C262.212 296.89 262.532 298.003 263.172 298.843C263.819 299.683 264.765 300.103 266.012 300.103ZM274.362 300.923V289.113C274.362 288.833 274.376 288.567 274.402 288.313C274.436 288.06 274.499 287.82 274.592 287.593C274.692 287.367 274.832 287.153 275.012 286.953C275.199 286.753 275.406 286.6 275.632 286.493C275.866 286.387 276.112 286.317 276.372 286.283C276.632 286.243 276.906 286.223 277.192 286.223H278.582V287.223H277.292C276.699 287.223 276.252 287.367 275.952 287.653C275.659 287.94 275.512 288.413 275.512 289.073V300.923H274.362ZM272.442 291.173V290.123H278.582V291.173H272.442ZM288.61 301.223C287.536 301.223 286.626 300.98 285.88 300.493C285.133 300.007 284.563 299.333 284.17 298.473C283.776 297.613 283.58 296.623 283.58 295.503C283.58 294.377 283.78 293.387 284.18 292.533C284.58 291.673 285.153 291.007 285.9 290.533C286.653 290.06 287.556 289.823 288.61 289.823C289.683 289.823 290.593 290.067 291.34 290.553C292.093 291.033 292.663 291.7 293.05 292.553C293.443 293.407 293.64 294.39 293.64 295.503C293.64 296.643 293.443 297.643 293.05 298.503C292.656 299.357 292.083 300.023 291.33 300.503C290.576 300.983 289.67 301.223 288.61 301.223ZM288.61 300.103C289.883 300.103 290.833 299.677 291.46 298.823C292.093 297.97 292.41 296.863 292.41 295.503C292.41 294.117 292.093 293.01 291.46 292.183C290.826 291.357 289.876 290.943 288.61 290.943C287.75 290.943 287.04 291.14 286.48 291.533C285.92 291.92 285.5 292.457 285.22 293.143C284.946 293.823 284.81 294.61 284.81 295.503C284.81 296.89 285.13 298.003 285.77 298.843C286.416 299.683 287.363 300.103 288.61 300.103ZM296.96 300.923V289.113C296.96 288.833 296.973 288.567 297 288.313C297.033 288.06 297.097 287.82 297.19 287.593C297.29 287.367 297.43 287.153 297.61 286.953C297.797 286.753 298.003 286.6 298.23 286.493C298.463 286.387 298.71 286.317 298.97 286.283C299.23 286.243 299.503 286.223 299.79 286.223H301.18V287.223H299.89C299.297 287.223 298.85 287.367 298.55 287.653C298.257 287.94 298.11 288.413 298.11 289.073V300.923H296.96ZM295.04 291.173V290.123H301.18V291.173H295.04ZM132.64 328.223C131.667 328.223 130.844 327.97 130.17 327.463C129.497 326.957 128.984 326.273 128.63 325.413C128.277 324.553 128.1 323.583 128.1 322.503C128.1 321.417 128.277 320.447 128.63 319.593C128.984 318.733 129.507 318.057 130.2 317.563C130.894 317.07 131.744 316.823 132.75 316.823C133.73 316.823 134.567 317.073 135.26 317.573C135.954 318.073 136.48 318.753 136.84 319.613C137.207 320.473 137.39 321.437 137.39 322.503C137.39 323.583 137.204 324.557 136.83 325.423C136.464 326.283 135.927 326.967 135.22 327.473C134.52 327.973 133.66 328.223 132.64 328.223ZM127.91 332.723V317.123H128.96V325.443H129.06V332.723H127.91ZM132.57 327.123C133.364 327.123 134.024 326.92 134.55 326.513C135.084 326.107 135.484 325.557 135.75 324.863C136.024 324.163 136.16 323.377 136.16 322.503C136.16 321.637 136.027 320.86 135.76 320.173C135.5 319.48 135.104 318.933 134.57 318.533C134.044 318.127 133.37 317.923 132.55 317.923C131.757 317.923 131.094 318.12 130.56 318.513C130.027 318.9 129.627 319.44 129.36 320.133C129.094 320.827 128.96 321.617 128.96 322.503C128.96 323.383 129.09 324.173 129.35 324.873C129.617 325.567 130.017 326.117 130.55 326.523C131.09 326.923 131.764 327.123 132.57 327.123ZM143.74 328.173C143.147 328.173 142.613 328.087 142.14 327.913C141.673 327.74 141.267 327.497 140.92 327.183C140.573 326.863 140.287 326.49 140.06 326.063C139.833 325.63 139.663 325.157 139.55 324.643C139.443 324.13 139.39 323.593 139.39 323.033V317.123H140.55V322.743C140.55 323.423 140.617 324.03 140.75 324.563C140.89 325.097 141.097 325.55 141.37 325.923C141.65 326.297 141.997 326.58 142.41 326.773C142.83 326.967 143.323 327.063 143.89 327.063C144.477 327.063 144.983 326.963 145.41 326.763C145.843 326.557 146.197 326.27 146.47 325.903C146.75 325.537 146.957 325.103 147.09 324.603C147.23 324.097 147.3 323.547 147.3 322.953L148.21 323.063C148.21 324.23 148.01 325.193 147.61 325.953C147.217 326.707 146.683 327.267 146.01 327.633C145.337 327.993 144.58 328.173 143.74 328.173ZM147.41 327.923V325.493H147.3V317.123H148.46V327.923H147.41ZM151.25 327.923V317.123H152.3V319.713L152.04 319.373C152.16 319.067 152.31 318.783 152.49 318.523C152.677 318.257 152.867 318.04 153.06 317.873C153.347 317.607 153.683 317.407 154.07 317.273C154.457 317.133 154.847 317.053 155.24 317.033C155.633 317.007 155.99 317.037 156.31 317.123V318.213C155.883 318.113 155.43 318.093 154.95 318.153C154.47 318.213 154.02 318.42 153.6 318.773C153.233 319.093 152.967 319.467 152.8 319.893C152.633 320.313 152.527 320.757 152.48 321.223C152.433 321.683 152.41 322.133 152.41 322.573V327.923H151.25ZM162.418 328.223C161.338 328.223 160.428 327.983 159.688 327.503C158.948 327.017 158.385 326.347 157.998 325.493C157.618 324.633 157.421 323.643 157.408 322.523C157.421 321.383 157.621 320.387 158.008 319.533C158.401 318.673 158.968 318.007 159.708 317.533C160.448 317.06 161.355 316.823 162.428 316.823C163.475 316.823 164.395 317.077 165.188 317.583C165.988 318.083 166.541 318.773 166.848 319.653L165.728 320.063C165.455 319.39 165.025 318.87 164.438 318.503C163.851 318.13 163.178 317.943 162.418 317.943C161.565 317.943 160.861 318.14 160.308 318.533C159.755 318.92 159.341 319.457 159.068 320.143C158.795 320.83 158.651 321.623 158.638 322.523C158.658 323.903 158.981 325.013 159.608 325.853C160.241 326.687 161.178 327.103 162.418 327.103C163.185 327.103 163.848 326.927 164.408 326.573C164.975 326.22 165.408 325.707 165.708 325.033L166.848 325.423C166.428 326.337 165.841 327.033 165.088 327.513C164.335 327.987 163.445 328.223 162.418 328.223ZM176.855 327.923V322.303C176.855 321.623 176.785 321.017 176.645 320.483C176.512 319.95 176.305 319.497 176.025 319.123C175.752 318.75 175.405 318.467 174.985 318.273C174.572 318.08 174.082 317.983 173.515 317.983C172.929 317.983 172.419 318.087 171.985 318.293C171.559 318.493 171.205 318.777 170.925 319.143C170.652 319.51 170.445 319.947 170.305 320.453C170.172 320.953 170.105 321.5 170.105 322.093L169.195 321.983C169.195 320.817 169.392 319.857 169.785 319.103C170.185 318.343 170.722 317.783 171.395 317.423C172.069 317.057 172.825 316.873 173.665 316.873C174.259 316.873 174.789 316.96 175.255 317.133C175.729 317.307 176.139 317.553 176.485 317.873C176.832 318.187 177.119 318.56 177.345 318.993C177.572 319.42 177.739 319.89 177.845 320.403C177.959 320.917 178.015 321.453 178.015 322.013V327.923H176.855ZM168.945 327.923V313.523H169.995V321.843H170.105V327.923H168.945ZM183.726 328.223C182.892 328.223 182.199 328.077 181.646 327.783C181.099 327.49 180.689 327.103 180.416 326.623C180.142 326.137 180.006 325.61 180.006 325.043C180.006 324.43 180.132 323.917 180.386 323.503C180.646 323.09 180.989 322.757 181.416 322.503C181.849 322.25 182.326 322.06 182.846 321.933C183.439 321.8 184.079 321.687 184.766 321.593C185.452 321.493 186.106 321.407 186.726 321.333C187.352 321.26 187.862 321.197 188.256 321.143L187.836 321.393C187.862 320.227 187.642 319.36 187.176 318.793C186.716 318.22 185.902 317.933 184.736 317.933C183.916 317.933 183.239 318.12 182.706 318.493C182.179 318.86 181.809 319.43 181.596 320.203L180.416 319.873C180.662 318.893 181.159 318.14 181.906 317.613C182.652 317.087 183.609 316.823 184.776 316.823C185.769 316.823 186.602 317.017 187.276 317.403C187.956 317.79 188.429 318.333 188.696 319.033C188.809 319.32 188.886 319.657 188.926 320.043C188.966 320.423 188.986 320.807 188.986 321.193V327.923H187.936V325.083L188.326 325.183C187.999 326.157 187.429 326.907 186.616 327.433C185.802 327.96 184.839 328.223 183.726 328.223ZM183.786 327.163C184.519 327.163 185.162 327.033 185.716 326.773C186.269 326.507 186.716 326.137 187.056 325.663C187.402 325.183 187.622 324.62 187.716 323.973C187.782 323.613 187.819 323.223 187.826 322.803C187.832 322.383 187.836 322.073 187.836 321.873L188.336 322.193C187.902 322.247 187.382 322.303 186.776 322.363C186.176 322.423 185.562 322.497 184.936 322.583C184.309 322.67 183.742 322.78 183.236 322.913C182.922 323 182.606 323.127 182.286 323.293C181.972 323.453 181.709 323.677 181.496 323.963C181.289 324.25 181.186 324.613 181.186 325.053C181.186 325.38 181.266 325.707 181.426 326.033C181.592 326.36 181.866 326.63 182.246 326.843C182.626 327.057 183.139 327.163 183.786 327.163ZM195.572 328.203C194.325 328.203 193.295 327.94 192.482 327.413C191.675 326.887 191.175 326.153 190.982 325.213L192.162 325.013C192.329 325.653 192.722 326.163 193.342 326.543C193.962 326.923 194.722 327.113 195.622 327.113C196.515 327.113 197.225 326.923 197.752 326.543C198.279 326.163 198.542 325.643 198.542 324.983C198.542 324.623 198.459 324.33 198.292 324.103C198.132 323.87 197.812 323.657 197.332 323.463C196.852 323.27 196.139 323.043 195.192 322.783C194.192 322.517 193.409 322.25 192.842 321.983C192.282 321.717 191.885 321.413 191.652 321.073C191.425 320.733 191.312 320.317 191.312 319.823C191.312 319.23 191.482 318.71 191.822 318.263C192.162 317.81 192.635 317.457 193.242 317.203C193.855 316.95 194.562 316.823 195.362 316.823C196.162 316.823 196.882 316.957 197.522 317.223C198.162 317.483 198.679 317.85 199.072 318.323C199.465 318.79 199.692 319.333 199.752 319.953L198.572 320.173C198.459 319.48 198.109 318.933 197.522 318.533C196.935 318.127 196.202 317.92 195.322 317.913C194.489 317.9 193.809 318.067 193.282 318.413C192.755 318.753 192.492 319.203 192.492 319.763C192.492 320.083 192.582 320.357 192.762 320.583C192.949 320.803 193.275 321.007 193.742 321.193C194.209 321.38 194.869 321.58 195.722 321.793C196.762 322.06 197.572 322.333 198.152 322.613C198.739 322.893 199.152 323.223 199.392 323.603C199.632 323.977 199.752 324.44 199.752 324.993C199.752 325.993 199.379 326.78 198.632 327.353C197.892 327.92 196.872 328.203 195.572 328.203ZM206.423 328.223C205.389 328.223 204.496 327.993 203.743 327.533C202.989 327.067 202.406 326.41 201.993 325.563C201.579 324.71 201.373 323.703 201.373 322.543C201.373 321.363 201.576 320.347 201.983 319.493C202.396 318.633 202.976 317.973 203.723 317.513C204.476 317.053 205.369 316.823 206.403 316.823C207.449 316.823 208.343 317.063 209.083 317.543C209.829 318.017 210.396 318.703 210.783 319.603C211.176 320.503 211.363 321.587 211.343 322.853H210.143V322.453C210.109 320.973 209.776 319.847 209.143 319.073C208.509 318.3 207.603 317.913 206.423 317.913C205.203 317.913 204.259 318.317 203.593 319.123C202.933 319.923 202.603 321.057 202.603 322.523C202.603 323.977 202.933 325.103 203.593 325.903C204.259 326.703 205.196 327.103 206.403 327.103C207.236 327.103 207.963 326.91 208.583 326.523C209.209 326.13 209.706 325.57 210.073 324.843L211.113 325.303C210.679 326.237 210.053 326.957 209.233 327.463C208.413 327.97 207.476 328.223 206.423 328.223ZM202.163 322.853V321.813H210.693V322.853H202.163ZM213.404 327.923V326.473H214.854V327.923H213.404Z" fill="#323232"/>
<rect x="0.500488" y="0.501953" width="342" height="358.922" rx="4.5" stroke="#3578DB"/>
</svg>
