<svg width="16" height="16" viewBox="0 0 16 16" fill="none" xmlns="http://www.w3.org/2000/svg">
<path fill-rule="evenodd" clip-rule="evenodd" d="M3.49091 9.6332L2.94261 11.7383L0.938611 11.7819C0.339708 10.6395 0 9.33236 0 7.94335C0 6.60018 0.317618 5.33355 0.880619 4.21826H0.881049L2.66518 4.55466L3.44673 6.37854C3.28315 6.869 3.194 7.3955 3.194 7.94335C3.19406 8.53793 3.29878 9.10762 3.49091 9.6332Z" fill="#FBBB00"/>
<path fill-rule="evenodd" clip-rule="evenodd" d="M15.8597 6.54553C15.952 7.01886 16.0001 7.50768 16.0001 8.00727C16.0001 8.56746 15.9396 9.1139 15.8244 9.64099C15.4335 11.4346 14.4119 13.0008 12.9968 14.1092L12.9964 14.1087L10.7049 13.9948L10.3805 12.0223C11.3196 11.4858 12.0534 10.6461 12.44 9.64099H8.14551V6.54553H12.5026H15.8597Z" fill="#518EF8"/>
<path fill-rule="evenodd" clip-rule="evenodd" d="M12.7995 14.0736L12.8 14.0741C11.4435 15.1881 9.72038 15.8546 7.84465 15.8546C4.83032 15.8546 2.20959 14.1332 0.872681 11.5999L3.43776 9.45459C4.1062 11.2773 5.82712 12.5748 7.84465 12.5748C8.71184 12.5748 9.52427 12.3353 10.2214 11.9172L12.7995 14.0736Z" fill="#28B446"/>
<path fill-rule="evenodd" clip-rule="evenodd" d="M13.0909 1.97171L10.4979 4.07554C9.76827 3.62358 8.90583 3.36249 7.98185 3.36249C5.89549 3.36249 4.1227 4.69356 3.48062 6.54551L0.873118 4.4299H0.872681C2.20481 1.88454 4.88838 0.145508 7.98185 0.145508C9.92395 0.145508 11.7046 0.831107 13.0909 1.97171Z" fill="#F14336"/>
</svg>
