<svg width="85" height="20" viewBox="0 0 85 20" fill="none" xmlns="http://www.w3.org/2000/svg">
<path d="M0.95 13.404C0.95 12.9227 1.045 12.568 1.235 12.34C1.55167 12.188 1.85567 12.112 2.147 12.112C1.995 10.8453 1.919 9.57233 1.919 8.293C1.919 7.06433 1.995 5.842 2.147 4.626C2.05833 4.588 1.90633 4.55633 1.691 4.531C1.48833 4.50567 1.33633 4.46133 1.235 4.398C1.13367 4.246 1.083 3.885 1.083 3.315C1.083 2.75767 1.13367 2.403 1.235 2.251C1.52633 1.89633 2.24833 1.719 3.401 1.719C4.503 1.719 5.187 1.88367 5.453 2.213C5.66833 2.73233 5.776 3.26433 5.776 3.809C5.776 4.04967 5.738 4.23333 5.662 4.36C5.396 4.48667 5.17433 4.55633 4.997 4.569C5.17433 4.759 5.624 5.18967 6.346 5.861C7.068 6.51967 7.53667 6.982 7.752 7.248C7.96733 6.982 8.42967 6.51333 9.139 5.842C9.861 5.17067 10.3107 4.74 10.488 4.55C10.2347 4.49933 10.0637 4.44867 9.975 4.398C9.87367 4.246 9.823 3.885 9.823 3.315C9.823 2.75767 9.87367 2.403 9.975 2.251C10.2537 1.88367 10.8617 1.7 11.799 1.7C12.3057 1.7 12.8123 1.757 13.319 1.871C13.8257 1.97233 14.1867 2.099 14.402 2.251C14.554 2.441 14.63 2.764 14.63 3.22C14.63 3.714 14.554 4.094 14.402 4.36C14.098 4.512 13.8447 4.588 13.642 4.588C13.5787 4.588 13.4837 4.57533 13.357 4.55C13.509 5.576 13.585 6.69067 13.585 7.894C13.585 8.882 13.509 10.3133 13.357 12.188C13.4077 12.1753 13.49 12.169 13.604 12.169C13.8573 12.169 14.1233 12.2387 14.402 12.378C14.4653 12.5427 14.497 12.815 14.497 13.195C14.497 14.1577 14.3387 14.7023 14.022 14.829C13.8827 14.943 13.3063 15 12.293 15C11.191 15 10.4817 14.829 10.165 14.487C9.96233 14.2717 9.861 13.9107 9.861 13.404C9.861 12.91 9.96233 12.5553 10.165 12.34C10.4563 12.188 10.7603 12.112 11.077 12.112C10.925 10.8453 10.849 9.205 10.849 7.191C10.431 7.74833 9.89267 8.30567 9.234 8.863C8.57533 9.42033 8.08133 9.699 7.752 9.699C7.42267 9.699 6.92233 9.42667 6.251 8.882C5.59233 8.32467 5.06033 7.76733 4.655 7.21C4.59167 9.376 4.51567 11.0353 4.427 12.188C4.47767 12.1753 4.56 12.169 4.674 12.169C4.92733 12.169 5.19333 12.2387 5.472 12.378C5.68733 12.6693 5.795 13.062 5.795 13.556C5.795 13.9867 5.7 14.3033 5.51 14.506C5.206 14.848 4.59167 15.019 3.667 15.019C3.12233 15.019 2.59667 14.962 2.09 14.848C1.58333 14.734 1.29833 14.6137 1.235 14.487C1.045 14.259 0.95 13.898 0.95 13.404ZM16.0839 11.067C16.0839 10.155 16.2169 9.27467 16.4829 8.426C16.7616 7.56467 17.1986 6.82367 17.7939 6.203C18.4019 5.58233 19.1113 5.272 19.9219 5.272C20.2893 5.272 20.6123 5.33533 20.8909 5.462C21.1823 5.58867 21.4039 5.747 21.5559 5.937C21.7206 6.11433 21.8536 6.298 21.9549 6.488C22.0563 6.66533 22.1259 6.81733 22.1639 6.944C22.2019 7.07067 22.2273 7.134 22.2399 7.134C22.2399 6.45 22.2336 6.00033 22.2209 5.785C22.4743 5.56967 22.7339 5.43033 22.9999 5.367C23.2786 5.291 23.6586 5.253 24.1399 5.253C24.5199 5.253 24.8556 5.26567 25.1469 5.291C25.4509 5.31633 25.6789 5.348 25.8309 5.386C25.9829 5.424 26.1033 5.462 26.1919 5.5C26.2933 5.538 26.3566 5.56333 26.3819 5.576L26.4199 5.595C26.4706 5.709 26.4959 6.06367 26.4959 6.659C26.4959 7.267 26.4706 7.628 26.4199 7.742C26.3819 7.83067 26.1793 7.913 25.8119 7.989C25.4446 8.05233 25.1279 8.084 24.8619 8.084C24.7353 8.084 24.5959 8.07133 24.4439 8.046C24.4819 8.122 24.5009 8.445 24.5009 9.015C24.5009 10.6743 24.4439 11.5927 24.3299 11.77C24.4186 11.732 24.5263 11.713 24.6529 11.713C25.2103 11.713 25.7549 11.77 26.2869 11.884C26.3883 11.96 26.4389 12.4983 26.4389 13.499C26.4389 14.0563 26.4199 14.411 26.3819 14.563C26.2933 14.7023 26.0146 14.8353 25.5459 14.962C25.0773 15.0887 24.5453 15.152 23.9499 15.152C22.8733 15.152 22.2083 15.1267 21.9549 15.076C21.8663 14.8353 21.8219 14.6327 21.8219 14.468C21.8219 14.3667 21.8409 14.2907 21.8789 14.24C21.7269 14.2907 21.2963 14.4807 20.5869 14.81C19.8776 15.1393 19.3646 15.304 19.0479 15.304C18.0726 15.304 17.3316 14.8923 16.8249 14.069C16.3309 13.2457 16.0839 12.245 16.0839 11.067ZM18.4589 10.573C18.4589 11.2823 18.6743 11.884 19.1049 12.378C19.5483 12.8593 20.0106 13.1 20.4919 13.1C20.7579 13.1 21.0619 13.0303 21.4039 12.891C21.7459 12.7517 21.9296 12.625 21.9549 12.511C21.9929 11.9283 22.0246 11.3963 22.0499 10.915C22.0879 10.421 22.1133 10.0473 22.1259 9.794C22.1513 9.528 22.1639 9.357 22.1639 9.281V9.053C22.1639 8.787 21.9866 8.52733 21.6319 8.274C21.2899 8.008 20.9036 7.875 20.4729 7.875C19.8396 7.875 19.3456 8.16633 18.9909 8.749C18.6363 9.319 18.4589 9.927 18.4589 10.573ZM27.8458 13.29C27.8458 12.7453 27.8902 12.4287 27.9788 12.34C28.3082 12.188 28.6755 12.112 29.0808 12.112C28.9415 11.276 28.8718 9.99667 28.8718 8.274C28.8718 6.24733 28.9352 4.48667 29.0618 2.992C28.6945 2.992 28.4095 2.96667 28.2068 2.916C28.1815 2.66267 28.1688 2.46 28.1688 2.308C28.1688 1.75067 28.3018 1.26933 28.5678 0.864C29.1125 0.737333 29.6255 0.674 30.1068 0.674C30.7148 0.674 31.1898 0.737333 31.5318 0.864C31.6585 2.05467 31.7218 3.315 31.7218 4.645C31.7218 5.58233 31.6775 6.91867 31.5888 8.654C31.5128 10.3893 31.4685 11.5673 31.4558 12.188C31.5192 12.1753 31.6205 12.169 31.7598 12.169C32.1398 12.169 32.4502 12.2387 32.6908 12.378C32.7415 12.4793 32.7668 12.6313 32.7668 12.834C32.7668 13.138 32.7162 13.5053 32.6148 13.936C32.5135 14.354 32.4122 14.6517 32.3108 14.829C32.1462 14.9557 31.5192 15.019 30.4298 15.019C29.8345 15.019 29.2962 14.9683 28.8148 14.867C28.3462 14.7657 28.0675 14.639 27.9788 14.487C27.8902 14.335 27.8458 13.936 27.8458 13.29ZM33.4577 2.346C33.4577 1.71267 33.616 1.29467 33.9327 1.092C34.5787 0.914666 35.3387 0.825999 36.2127 0.825999C37.0233 0.825999 37.6693 0.914666 38.1507 1.092C38.3153 1.25667 38.3977 1.61133 38.3977 2.156C38.3977 2.75133 38.3153 3.144 38.1507 3.334C37.8467 3.38467 37.5997 3.41 37.4097 3.41C37.4223 4.018 37.4857 5.32267 37.5997 7.324C37.739 7.22267 37.9417 7.077 38.2077 6.887C38.4863 6.697 38.7143 6.53867 38.8917 6.412C39.069 6.27267 39.2527 6.12067 39.4427 5.956C39.6327 5.79133 39.7783 5.63933 39.8797 5.5C39.981 5.36067 40.0317 5.22767 40.0317 5.101C40.0317 4.987 39.9683 4.873 39.8417 4.759C39.753 4.84767 39.5947 4.892 39.3667 4.892C39.278 4.82867 39.1957 4.702 39.1197 4.512C39.0437 4.322 39.0057 4.14467 39.0057 3.98C39.0057 3.828 39.0437 3.733 39.1197 3.695C39.8797 3.44167 40.589 3.315 41.2477 3.315C41.9697 3.315 42.6663 3.45433 43.3377 3.733C43.401 3.885 43.4327 4.06233 43.4327 4.265C43.4327 4.797 43.2807 5.10733 42.9767 5.196C42.9387 5.20867 42.8563 5.215 42.7297 5.215C42.413 5.215 42.204 5.16433 42.1027 5.063C42.09 5.139 41.9697 5.31633 41.7417 5.595C41.5263 5.87367 41.197 6.22833 40.7537 6.659C40.323 7.077 39.8607 7.48233 39.3667 7.875C40.5827 8.38167 41.6087 9.13533 42.4447 10.136C43.2933 11.1367 43.7177 11.846 43.7177 12.264C43.819 12.2133 43.9393 12.188 44.0787 12.188C44.1927 12.188 44.351 12.226 44.5537 12.302C44.769 12.4033 44.8767 12.7707 44.8767 13.404C44.8767 13.9613 44.7817 14.3857 44.5917 14.677C44.0977 14.905 43.5087 15.019 42.8247 15.019C42.2547 15.019 41.4883 14.9177 40.5257 14.715C40.3737 14.487 40.2977 14.126 40.2977 13.632C40.2977 13.024 40.3863 12.5933 40.5637 12.34C40.665 12.2767 40.7853 12.245 40.9247 12.245C41.026 12.245 41.1337 12.264 41.2477 12.302C41.0197 11.0987 39.8037 10.0917 37.5997 9.281C37.587 9.45833 37.5743 9.74967 37.5617 10.155C37.549 10.5477 37.53 10.9087 37.5047 11.238C37.492 11.5673 37.4603 11.8587 37.4097 12.112C37.5997 11.998 37.9037 11.941 38.3217 11.941C38.537 11.941 38.67 11.9727 38.7207 12.036C38.8093 12.0867 38.8853 12.283 38.9487 12.625C39.012 12.9543 39.0437 13.309 39.0437 13.689C39.0437 14.2717 38.9803 14.62 38.8537 14.734C38.1823 14.9113 37.2387 15 36.0227 15C35.0727 15 34.4267 14.924 34.0847 14.772C33.8693 14.4427 33.7617 13.9107 33.7617 13.176C33.7617 12.644 33.8567 12.3273 34.0467 12.226C34.224 12.0993 34.5027 12.036 34.8827 12.036C34.984 12.036 35.0727 12.0487 35.1487 12.074C35.136 11.086 35.117 10.1043 35.0917 9.129C35.079 8.141 35.0663 7.381 35.0537 6.849C35.041 6.317 35.0347 5.86733 35.0347 5.5C35.0347 5.13267 35.0473 4.42967 35.0727 3.391C34.8447 3.49233 34.623 3.543 34.4077 3.543C34.1543 3.543 33.939 3.47333 33.7617 3.334C33.559 3.05533 33.4577 2.726 33.4577 2.346ZM45.5642 13.423C45.5642 12.777 45.6022 12.4097 45.6782 12.321C45.8302 12.2323 46.0202 12.1753 46.2482 12.15C46.4002 12.1247 46.7296 12.112 47.2362 12.112C47.1602 11.314 47.1222 10.4463 47.1222 9.509C47.1222 8.483 47.1856 7.83067 47.3122 7.552C46.6916 7.552 46.2799 7.52667 46.0772 7.476C46.0899 7.134 46.1342 6.773 46.2102 6.393C46.2356 6.22833 46.3116 5.90533 46.4382 5.424C46.9069 5.33533 47.6922 5.291 48.7942 5.291C49.2376 5.291 49.6429 5.31633 50.0102 5.367C50.3902 5.41767 50.6752 5.481 50.8652 5.557C51.0679 5.62033 51.1692 5.68367 51.1692 5.747C51.1946 5.747 51.2072 5.975 51.2072 6.431C51.2072 7.153 51.1439 7.609 51.0172 7.799C50.9666 7.875 50.8146 7.913 50.5612 7.913C50.0926 7.913 49.7949 7.88133 49.6682 7.818C49.5289 8.70467 49.4592 9.85733 49.4592 11.276C49.4592 11.8587 49.4782 12.1627 49.5162 12.188C49.5922 12.1753 49.6999 12.169 49.8392 12.169C50.2952 12.169 50.6626 12.2387 50.9412 12.378C50.9792 12.4287 50.9982 12.5427 50.9982 12.72C50.9982 13.0367 50.9539 13.4167 50.8652 13.86C50.7766 14.3033 50.6499 14.6073 50.4852 14.772C50.3332 14.924 49.8392 15 49.0032 15C47.0146 15 45.9126 14.8163 45.6972 14.449C45.6086 14.2843 45.5642 13.9423 45.5642 13.423ZM47.0842 1.586C47.0842 1.23133 47.2742 1.054 47.6542 1.054C47.9709 1.054 48.3129 1.149 48.6802 1.339C48.9462 1.073 49.3009 0.94 49.7442 0.94C50.0229 0.94 50.2699 1.035 50.4852 1.225C50.7006 1.415 50.8082 1.67467 50.8082 2.004C50.8082 2.16867 50.7702 2.327 50.6942 2.479C50.6309 2.631 50.5612 2.75767 50.4852 2.859C50.4092 2.96033 50.2826 3.08067 50.1052 3.22C49.9279 3.34667 49.7886 3.44167 49.6872 3.505C49.5986 3.55567 49.4339 3.65067 49.1932 3.79C48.9526 3.91667 48.8006 3.999 48.7372 4.037C48.2432 3.66967 47.8442 3.258 47.5402 2.802C47.2362 2.33333 47.0842 1.928 47.0842 1.586ZM51.8798 18.781C51.8798 18.2237 51.9495 17.6157 52.0888 16.957C52.2408 16.311 52.4181 15.874 52.6208 15.646C52.7855 15.57 52.9691 15.532 53.1718 15.532C53.6658 15.532 54.1345 15.684 54.5778 15.988C54.6285 16.026 54.6538 16.1083 54.6538 16.235C54.6538 16.311 54.6348 16.425 54.5968 16.577C55.0781 16.9317 55.5278 17.166 55.9458 17.28C56.3765 17.394 56.9275 17.451 57.5988 17.451C58.0928 17.451 58.5108 17.4193 58.8528 17.356C59.2075 17.3053 59.5621 17.1977 59.9168 17.033C60.2841 16.881 60.5628 16.6213 60.7528 16.254C60.9428 15.8867 61.0378 15.4243 61.0378 14.867C61.0378 14.3983 60.9935 13.9993 60.9048 13.67C59.8281 14.5693 58.7008 15.019 57.5228 15.019C56.2815 15.019 55.2808 14.525 54.5208 13.537C53.7608 12.5363 53.3808 11.2697 53.3808 9.737C53.3808 9.319 53.4188 8.94533 53.4948 8.616C53.4188 8.654 53.3301 8.673 53.2288 8.673C53.1275 8.673 52.9755 8.654 52.7728 8.616C52.5701 8.56533 52.4561 8.54 52.4308 8.54C52.2661 8.198 52.1838 7.75467 52.1838 7.21C52.1838 6.62733 52.2725 6.184 52.4498 5.88C53.4378 5.63933 54.2485 5.519 54.8818 5.519C55.6545 5.519 56.3448 5.62667 56.9528 5.842C57.2568 6.222 57.4088 6.68433 57.4088 7.229C57.4088 7.69767 57.2885 8.09033 57.0478 8.407C56.9211 8.483 56.7881 8.521 56.6488 8.521C56.5348 8.521 56.3828 8.48933 56.1928 8.426C56.0408 8.882 55.9648 9.357 55.9648 9.851C55.9648 11.5357 56.6361 12.378 57.9788 12.378C58.7641 12.378 59.4355 12.0993 59.9928 11.542C60.5501 10.9847 60.8288 10.2817 60.8288 9.433C60.8288 9.129 60.7781 8.79333 60.6768 8.426C60.4995 8.52733 60.2715 8.578 59.9928 8.578C59.8281 8.578 59.7205 8.54 59.6698 8.464C59.4545 8.32467 59.3468 7.94467 59.3468 7.324C59.3468 6.678 59.4545 6.28533 59.6698 6.146C59.9485 5.70267 60.6958 5.481 61.9118 5.481C62.4945 5.481 63.0835 5.53167 63.6788 5.633C64.2868 5.73433 64.6985 5.83567 64.9138 5.937C64.9645 6.26633 64.9898 6.583 64.9898 6.887C64.9898 7.44433 64.9138 7.82433 64.7618 8.027C64.6478 8.141 64.5085 8.198 64.3438 8.198C64.2551 8.198 64.1665 8.19167 64.0778 8.179C64.0018 8.15367 63.9131 8.122 63.8118 8.084C63.7105 8.046 63.6408 8.02067 63.6028 8.008C63.6788 10.136 63.7168 11.352 63.7168 11.656C63.7168 12.9733 63.6345 14.107 63.4698 15.057C63.3178 16.007 63.0961 16.7797 62.8048 17.375C62.5135 17.983 62.1271 18.4643 61.6458 18.819C61.1771 19.1737 60.6705 19.4143 60.1258 19.541C59.5811 19.6803 58.9288 19.75 58.1688 19.75C56.7121 19.75 55.3948 19.4523 54.2168 18.857C54.1028 19.275 54.0331 19.484 54.0078 19.484C53.7925 19.6613 53.4758 19.75 53.0578 19.75C52.8045 19.75 52.5575 19.712 52.3168 19.636C52.0888 19.5727 51.9621 19.503 51.9368 19.427C51.8988 19.2623 51.8798 19.047 51.8798 18.781ZM66.0703 11.067C66.0703 10.155 66.2033 9.27467 66.4693 8.426C66.7479 7.56467 67.1849 6.82367 67.7803 6.203C68.3883 5.58233 69.0976 5.272 69.9083 5.272C70.2756 5.272 70.5986 5.33533 70.8773 5.462C71.1686 5.58867 71.3903 5.747 71.5423 5.937C71.7069 6.11433 71.8399 6.298 71.9413 6.488C72.0426 6.66533 72.1123 6.81733 72.1503 6.944C72.1883 7.07067 72.2136 7.134 72.2263 7.134C72.2263 6.45 72.2199 6.00033 72.2073 5.785C72.4606 5.56967 72.7203 5.43033 72.9863 5.367C73.2649 5.291 73.6449 5.253 74.1263 5.253C74.5063 5.253 74.8419 5.26567 75.1333 5.291C75.4373 5.31633 75.6653 5.348 75.8173 5.386C75.9693 5.424 76.0896 5.462 76.1783 5.5C76.2796 5.538 76.3429 5.56333 76.3683 5.576L76.4063 5.595C76.4569 5.709 76.4823 6.06367 76.4823 6.659C76.4823 7.267 76.4569 7.628 76.4063 7.742C76.3683 7.83067 76.1656 7.913 75.7983 7.989C75.4309 8.05233 75.1143 8.084 74.8483 8.084C74.7216 8.084 74.5823 8.07133 74.4303 8.046C74.4683 8.122 74.4873 8.445 74.4873 9.015C74.4873 10.6743 74.4303 11.5927 74.3163 11.77C74.4049 11.732 74.5126 11.713 74.6393 11.713C75.1966 11.713 75.7413 11.77 76.2733 11.884C76.3746 11.96 76.4253 12.4983 76.4253 13.499C76.4253 14.0563 76.4063 14.411 76.3683 14.563C76.2796 14.7023 76.0009 14.8353 75.5323 14.962C75.0636 15.0887 74.5316 15.152 73.9363 15.152C72.8596 15.152 72.1946 15.1267 71.9413 15.076C71.8526 14.8353 71.8083 14.6327 71.8083 14.468C71.8083 14.3667 71.8273 14.2907 71.8653 14.24C71.7133 14.2907 71.2826 14.4807 70.5733 14.81C69.8639 15.1393 69.3509 15.304 69.0343 15.304C68.0589 15.304 67.3179 14.8923 66.8113 14.069C66.3173 13.2457 66.0703 12.245 66.0703 11.067ZM68.4453 10.573C68.4453 11.2823 68.6606 11.884 69.0913 12.378C69.5346 12.8593 69.9969 13.1 70.4783 13.1C70.7443 13.1 71.0483 13.0303 71.3903 12.891C71.7323 12.7517 71.9159 12.625 71.9413 12.511C71.9793 11.9283 72.0109 11.3963 72.0363 10.915C72.0743 10.421 72.0996 10.0473 72.1123 9.794C72.1376 9.528 72.1503 9.357 72.1503 9.281V9.053C72.1503 8.787 71.9729 8.52733 71.6183 8.274C71.2763 8.008 70.8899 7.875 70.4593 7.875C69.8259 7.875 69.3319 8.16633 68.9773 8.749C68.6226 9.319 68.4453 9.927 68.4453 10.573ZM77.4712 5.975C77.4712 5.69633 77.5092 5.519 77.5852 5.443C77.8132 5.405 78.1108 5.386 78.4782 5.386H78.8962V1.814C79.5548 1.76333 79.9792 1.738 80.1692 1.738C80.3592 1.738 80.7455 1.76333 81.3282 1.814L81.5182 5.424C82.9115 5.48733 83.7095 5.576 83.9122 5.69C84.1022 6.01933 84.1972 6.526 84.1972 7.21C84.1972 7.48867 84.1592 7.666 84.0832 7.742C83.6905 7.79267 83.2408 7.818 82.7342 7.818C82.5695 7.818 82.3225 7.818 81.9932 7.818C81.6638 7.80533 81.4168 7.799 81.2522 7.799C81.2522 8.217 81.2458 8.74267 81.2332 9.376C81.2332 10.0093 81.2332 10.459 81.2332 10.725C81.2332 11.713 81.2965 12.321 81.4232 12.549C81.5625 12.7643 81.9298 12.872 82.5252 12.872C82.7532 12.872 82.9432 12.8593 83.0952 12.834L82.9812 12.435L84.7292 12.036C84.8558 12.4033 84.9192 12.834 84.9192 13.328C84.9192 14.1513 84.8368 14.6707 84.6722 14.886C83.4308 15.0633 82.3985 15.152 81.5752 15.152C80.4985 15.152 79.7892 15 79.4472 14.696C79.2952 14.5567 79.1748 14.373 79.0862 14.145C78.9975 13.917 78.9342 13.594 78.8962 13.176C78.8708 12.7453 78.8518 12.321 78.8392 11.903C78.8265 11.4723 78.8075 10.8517 78.7822 10.041C78.7568 9.23033 78.7252 8.464 78.6872 7.742C78.2818 7.704 77.9715 7.62167 77.7562 7.495C77.5662 7.16567 77.4712 6.659 77.4712 5.975Z" fill="#3B4161"/>
</svg>
