<svg width="315" height="46" viewBox="0 0 315 46" fill="none" xmlns="http://www.w3.org/2000/svg">
<rect width="315" height="46" rx="23" fill="#3578DB"/>
<path d="M101.12 29V17.48H105.568C105.68 17.48 105.805 17.4853 105.944 17.496C106.088 17.5013 106.232 17.5173 106.376 17.544C106.979 17.6347 107.488 17.8453 107.904 18.176C108.325 18.5013 108.643 18.912 108.856 19.408C109.075 19.904 109.184 20.4533 109.184 21.056C109.184 21.6533 109.075 22.2 108.856 22.696C108.637 23.192 108.317 23.6053 107.896 23.936C107.48 24.2613 106.973 24.4693 106.376 24.56C106.232 24.5813 106.088 24.5973 105.944 24.608C105.805 24.6187 105.68 24.624 105.568 24.624H102.296V29H101.12ZM102.296 23.504H105.536C105.632 23.504 105.744 23.4987 105.872 23.488C106 23.4773 106.125 23.4587 106.248 23.432C106.643 23.3467 106.965 23.184 107.216 22.944C107.472 22.704 107.661 22.4187 107.784 22.088C107.912 21.7573 107.976 21.4133 107.976 21.056C107.976 20.6987 107.912 20.3547 107.784 20.024C107.661 19.688 107.472 19.4 107.216 19.16C106.965 18.92 106.643 18.7573 106.248 18.672C106.125 18.6453 106 18.6293 105.872 18.624C105.744 18.6133 105.632 18.608 105.536 18.608H102.296V23.504ZM110.776 29V20.36H111.832V22.44L111.624 22.168C111.72 21.912 111.846 21.6773 112 21.464C112.155 21.2453 112.323 21.0667 112.504 20.928C112.728 20.7307 112.99 20.5813 113.288 20.48C113.587 20.3733 113.888 20.312 114.192 20.296C114.496 20.2747 114.774 20.296 115.024 20.36V21.464C114.71 21.384 114.366 21.3653 113.992 21.408C113.619 21.4507 113.275 21.6 112.96 21.856C112.672 22.08 112.456 22.3493 112.312 22.664C112.168 22.9733 112.072 23.304 112.024 23.656C111.976 24.0027 111.952 24.3467 111.952 24.688V29H110.776ZM119.994 29.24C119.135 29.24 118.402 29.0453 117.794 28.656C117.186 28.2667 116.719 27.728 116.394 27.04C116.068 26.352 115.906 25.5627 115.906 24.672C115.906 23.7653 116.071 22.9707 116.402 22.288C116.732 21.6053 117.202 21.0747 117.81 20.696C118.423 20.312 119.151 20.12 119.994 20.12C120.858 20.12 121.594 20.3147 122.202 20.704C122.815 21.088 123.282 21.624 123.602 22.312C123.927 22.9947 124.09 23.7813 124.09 24.672C124.09 25.5787 123.927 26.376 123.602 27.064C123.276 27.7467 122.807 28.28 122.194 28.664C121.58 29.048 120.847 29.24 119.994 29.24ZM119.994 28.112C120.954 28.112 121.668 27.7947 122.138 27.16C122.607 26.52 122.842 25.6907 122.842 24.672C122.842 23.6267 122.604 22.7947 122.13 22.176C121.66 21.5573 120.948 21.248 119.994 21.248C119.348 21.248 118.815 21.3947 118.394 21.688C117.978 21.976 117.666 22.3787 117.458 22.896C117.255 23.408 117.154 24 117.154 24.672C117.154 25.712 117.394 26.5467 117.874 27.176C118.354 27.8 119.06 28.112 119.994 28.112ZM129.438 29.24C128.569 29.24 127.833 29.0453 127.23 28.656C126.628 28.2667 126.169 27.7307 125.854 27.048C125.545 26.36 125.385 25.5707 125.374 24.68C125.385 23.7733 125.55 22.9787 125.87 22.296C126.19 21.608 126.652 21.0747 127.254 20.696C127.857 20.312 128.588 20.12 129.446 20.12C130.321 20.12 131.081 20.3333 131.726 20.76C132.377 21.1867 132.822 21.7707 133.062 22.512L131.91 22.88C131.708 22.3627 131.385 21.9627 130.942 21.68C130.505 21.392 130.004 21.248 129.438 21.248C128.804 21.248 128.278 21.3947 127.862 21.688C127.446 21.976 127.137 22.3787 126.934 22.896C126.732 23.4133 126.628 24.008 126.622 24.68C126.633 25.7147 126.873 26.5467 127.342 27.176C127.812 27.8 128.51 28.112 129.438 28.112C130.025 28.112 130.524 27.9787 130.934 27.712C131.35 27.44 131.665 27.0453 131.878 26.528L133.062 26.88C132.742 27.648 132.273 28.2347 131.654 28.64C131.036 29.04 130.297 29.24 129.438 29.24ZM138.135 29.24C137.293 29.24 136.562 29.0533 135.943 28.68C135.33 28.3067 134.853 27.7813 134.511 27.104C134.17 26.4267 133.999 25.632 133.999 24.72C133.999 23.776 134.167 22.96 134.503 22.272C134.839 21.584 135.311 21.0533 135.919 20.68C136.533 20.3067 137.255 20.12 138.087 20.12C138.941 20.12 139.669 20.3173 140.271 20.712C140.874 21.1013 141.33 21.6613 141.639 22.392C141.949 23.1227 142.09 23.9947 142.063 25.008H140.863V24.592C140.842 23.472 140.599 22.6267 140.135 22.056C139.677 21.4853 139.005 21.2 138.119 21.2C137.191 21.2 136.479 21.5013 135.983 22.104C135.493 22.7067 135.247 23.5653 135.247 24.68C135.247 25.768 135.493 26.6133 135.983 27.216C136.479 27.8133 137.181 28.112 138.087 28.112C138.706 28.112 139.245 27.9707 139.703 27.688C140.167 27.4 140.533 26.9867 140.799 26.448L141.895 26.872C141.554 27.624 141.05 28.208 140.383 28.624C139.722 29.0347 138.973 29.24 138.135 29.24ZM134.831 25.008V24.024H141.431V25.008H134.831ZM147.495 29.24C146.652 29.24 145.921 29.0533 145.303 28.68C144.689 28.3067 144.212 27.7813 143.871 27.104C143.529 26.4267 143.359 25.632 143.359 24.72C143.359 23.776 143.527 22.96 143.863 22.272C144.199 21.584 144.671 21.0533 145.279 20.68C145.892 20.3067 146.615 20.12 147.447 20.12C148.3 20.12 149.028 20.3173 149.631 20.712C150.233 21.1013 150.689 21.6613 150.999 22.392C151.308 23.1227 151.449 23.9947 151.423 25.008H150.223V24.592C150.201 23.472 149.959 22.6267 149.495 22.056C149.036 21.4853 148.364 21.2 147.479 21.2C146.551 21.2 145.839 21.5013 145.343 22.104C144.852 22.7067 144.607 23.5653 144.607 24.68C144.607 25.768 144.852 26.6133 145.343 27.216C145.839 27.8133 146.54 28.112 147.447 28.112C148.065 28.112 148.604 27.9707 149.063 27.688C149.527 27.4 149.892 26.9867 150.159 26.448L151.255 26.872C150.913 27.624 150.409 28.208 149.743 28.624C149.081 29.0347 148.332 29.24 147.495 29.24ZM144.191 25.008V24.024H150.791V25.008H144.191ZM156.55 29.24C155.745 29.24 155.057 29.04 154.486 28.64C153.915 28.2347 153.478 27.688 153.174 27C152.87 26.312 152.718 25.536 152.718 24.672C152.718 23.8133 152.867 23.04 153.166 22.352C153.47 21.664 153.905 21.12 154.47 20.72C155.035 20.32 155.713 20.12 156.502 20.12C157.313 20.12 157.995 20.3173 158.55 20.712C159.105 21.1067 159.523 21.648 159.806 22.336C160.094 23.0187 160.238 23.7973 160.238 24.672C160.238 25.5307 160.097 26.3067 159.814 27C159.531 27.688 159.115 28.2347 158.566 28.64C158.017 29.04 157.345 29.24 156.55 29.24ZM156.67 28.144C157.283 28.144 157.79 27.9947 158.19 27.696C158.59 27.3973 158.889 26.9867 159.086 26.464C159.283 25.936 159.382 25.3387 159.382 24.672C159.382 23.9947 159.283 23.3973 159.086 22.88C158.889 22.3573 158.59 21.9493 158.19 21.656C157.795 21.3627 157.297 21.216 156.694 21.216C156.075 21.216 155.563 21.368 155.158 21.672C154.753 21.976 154.451 22.3893 154.254 22.912C154.062 23.4347 153.966 24.0213 153.966 24.672C153.966 25.328 154.065 25.92 154.262 26.448C154.465 26.9707 154.766 27.384 155.166 27.688C155.566 27.992 156.067 28.144 156.67 28.144ZM159.382 29V22.496H159.254V17.48H160.438V29H159.382ZM170.59 29C170.104 29.1013 169.624 29.1413 169.15 29.12C168.68 29.0987 168.259 28.9973 167.886 28.816C167.518 28.6347 167.238 28.352 167.046 27.968C166.891 27.648 166.806 27.3253 166.79 27C166.779 26.6693 166.774 26.2933 166.774 25.872V17.96H167.942V25.824C167.942 26.1867 167.944 26.4907 167.95 26.736C167.96 26.976 168.016 27.1893 168.118 27.376C168.31 27.7333 168.614 27.9467 169.03 28.016C169.451 28.0853 169.971 28.0693 170.59 27.968V29ZM164.926 21.368V20.36H170.59V21.368H164.926ZM175.587 29.24C174.729 29.24 173.995 29.0453 173.387 28.656C172.779 28.2667 172.313 27.728 171.987 27.04C171.662 26.352 171.499 25.5627 171.499 24.672C171.499 23.7653 171.665 22.9707 171.995 22.288C172.326 21.6053 172.795 21.0747 173.403 20.696C174.017 20.312 174.745 20.12 175.587 20.12C176.451 20.12 177.187 20.3147 177.795 20.704C178.409 21.088 178.875 21.624 179.195 22.312C179.521 22.9947 179.683 23.7813 179.683 24.672C179.683 25.5787 179.521 26.376 179.195 27.064C178.87 27.7467 178.401 28.28 177.787 28.664C177.174 29.048 176.441 29.24 175.587 29.24ZM175.587 28.112C176.547 28.112 177.262 27.7947 177.731 27.16C178.201 26.52 178.435 25.6907 178.435 24.672C178.435 23.6267 178.198 22.7947 177.723 22.176C177.254 21.5573 176.542 21.248 175.587 21.248C174.942 21.248 174.409 21.3947 173.987 21.688C173.571 21.976 173.259 22.3787 173.051 22.896C172.849 23.408 172.747 24 172.747 24.672C172.747 25.712 172.987 26.5467 173.467 27.176C173.947 27.8 174.654 28.112 175.587 28.112ZM188.235 29.24C187.366 29.24 186.63 29.0453 186.027 28.656C185.425 28.2667 184.966 27.7307 184.651 27.048C184.342 26.36 184.182 25.5707 184.171 24.68C184.182 23.7733 184.347 22.9787 184.667 22.296C184.987 21.608 185.449 21.0747 186.051 20.696C186.654 20.312 187.385 20.12 188.243 20.12C189.118 20.12 189.878 20.3333 190.523 20.76C191.174 21.1867 191.619 21.7707 191.859 22.512L190.707 22.88C190.505 22.3627 190.182 21.9627 189.739 21.68C189.302 21.392 188.801 21.248 188.235 21.248C187.601 21.248 187.075 21.3947 186.659 21.688C186.243 21.976 185.934 22.3787 185.731 22.896C185.529 23.4133 185.425 24.008 185.419 24.68C185.43 25.7147 185.67 26.5467 186.139 27.176C186.609 27.8 187.307 28.112 188.235 28.112C188.822 28.112 189.321 27.9787 189.731 27.712C190.147 27.44 190.462 27.0453 190.675 26.528L191.859 26.88C191.539 27.648 191.07 28.2347 190.451 28.64C189.833 29.04 189.094 29.24 188.235 29.24ZM195.936 29.24C195.285 29.24 194.738 29.1227 194.296 28.888C193.858 28.6533 193.53 28.3413 193.312 27.952C193.093 27.5627 192.984 27.1387 192.984 26.68C192.984 26.2107 193.077 25.8107 193.264 25.48C193.456 25.144 193.714 24.8693 194.04 24.656C194.37 24.4427 194.752 24.28 195.184 24.168C195.621 24.0613 196.104 23.968 196.632 23.888C197.165 23.8027 197.685 23.7307 198.192 23.672C198.704 23.608 199.152 23.5467 199.536 23.488L199.12 23.744C199.136 22.8907 198.97 22.2587 198.624 21.848C198.277 21.4373 197.674 21.232 196.816 21.232C196.224 21.232 195.722 21.3653 195.312 21.632C194.906 21.8987 194.621 22.32 194.456 22.896L193.312 22.56C193.509 21.7867 193.906 21.1867 194.504 20.76C195.101 20.3333 195.877 20.12 196.832 20.12C197.621 20.12 198.29 20.2693 198.84 20.568C199.394 20.8613 199.786 21.288 200.016 21.848C200.122 22.0987 200.192 22.3787 200.224 22.688C200.256 22.9973 200.272 23.312 200.272 23.632V29H199.224V26.832L199.528 26.96C199.234 27.7013 198.778 28.2667 198.16 28.656C197.541 29.0453 196.8 29.24 195.936 29.24ZM196.072 28.224C196.621 28.224 197.101 28.1253 197.512 27.928C197.922 27.7307 198.253 27.4613 198.504 27.12C198.754 26.7733 198.917 26.384 198.992 25.952C199.056 25.6747 199.09 25.3707 199.096 25.04C199.101 24.704 199.104 24.4533 199.104 24.288L199.552 24.52C199.152 24.5733 198.717 24.6267 198.248 24.68C197.784 24.7333 197.325 24.7947 196.872 24.864C196.424 24.9333 196.018 25.016 195.656 25.112C195.41 25.1813 195.173 25.28 194.944 25.408C194.714 25.5307 194.525 25.696 194.376 25.904C194.232 26.112 194.16 26.3707 194.16 26.68C194.16 26.9307 194.221 27.1733 194.344 27.408C194.472 27.6427 194.674 27.8373 194.952 27.992C195.234 28.1467 195.608 28.224 196.072 28.224ZM202.514 29V17.24H203.69V29H202.514ZM206.249 29V17.24H207.425V29H206.249Z" fill="white"/>
<g filter="url(#filter0_d_9867_25861)">
<path d="M26.0722 14.6342L29.0448 11.6643C29.2545 11.4537 29.5038 11.2866 29.7782 11.1726C30.0527 11.0586 30.347 10.9999 30.6442 11C31.2499 11 31.8193 11.2373 32.2464 11.6643L35.4451 14.8631C35.6557 15.0728 35.8228 15.322 35.9368 15.5965C36.0508 15.871 36.1095 16.1653 36.1094 16.4625C36.1094 17.0682 35.8721 17.6376 35.4451 18.0647L33.106 20.4038C33.6536 21.6106 34.4148 22.7085 35.353 23.6444C36.2888 24.5849 37.3866 25.3489 38.5936 25.8998L40.9326 23.5607C41.1423 23.3501 41.3916 23.1829 41.666 23.0689C41.9405 22.9549 42.2348 22.8963 42.532 22.8964C43.1377 22.8964 43.7071 23.1336 44.1342 23.5607L47.3357 26.7567C47.5466 26.9668 47.7138 27.2165 47.8278 27.4914C47.9418 27.7664 48.0003 28.0612 48 28.3589C48 28.9646 47.7627 29.534 47.3357 29.961L44.3686 32.9282C43.6876 33.612 42.7469 34 41.7812 34C41.5774 34 41.382 33.9833 41.1894 33.9498C37.4269 33.3301 33.695 31.3288 30.6833 28.3198C27.6743 25.3136 25.6758 21.5845 25.0478 17.8107C24.858 16.6579 25.2404 15.4716 26.0722 14.6342Z" fill="white"/>
</g>
<defs>
<filter id="filter0_d_9867_25861" x="21" y="9" width="31" height="31" filterUnits="userSpaceOnUse" color-interpolation-filters="sRGB">
<feFlood flood-opacity="0" result="BackgroundImageFix"/>
<feColorMatrix in="SourceAlpha" type="matrix" values="0 0 0 0 0 0 0 0 0 0 0 0 0 0 0 0 0 0 127 0" result="hardAlpha"/>
<feOffset dy="2"/>
<feGaussianBlur stdDeviation="2"/>
<feComposite in2="hardAlpha" operator="out"/>
<feColorMatrix type="matrix" values="0 0 0 0 0 0 0 0 0 0 0 0 0 0 0 0 0 0 0.25 0"/>
<feBlend mode="normal" in2="BackgroundImageFix" result="effect1_dropShadow_9867_25861"/>
<feBlend mode="normal" in="SourceGraphic" in2="effect1_dropShadow_9867_25861" result="shape"/>
</filter>
</defs>
</svg>
