<svg width="17" height="17" viewBox="0 0 17 17" fill="none" xmlns="http://www.w3.org/2000/svg">
<path d="M8.5 0.442383C6.42893 0.442383 4.75 2.12132 4.75 4.19238C4.75 6.26345 6.42893 7.94238 8.5 7.94238C10.5711 7.94238 12.25 6.26345 12.25 4.19238C12.25 2.12132 10.5711 0.442383 8.5 0.442383Z" fill="#3578DB"/>
<path d="M4.5 9.94238C2.42893 9.94238 0.75 11.6213 0.75 13.6924V14.8807C0.75 15.6339 1.29588 16.2761 2.03927 16.3975C6.3181 17.0961 10.6819 17.0961 14.9607 16.3975C15.7041 16.2761 16.25 15.6339 16.25 14.8807V13.6924C16.25 11.6213 14.5711 9.94238 12.5 9.94238H12.1591C11.9746 9.94238 11.7913 9.97156 11.6159 10.0288L10.7504 10.3114C9.28813 10.7889 7.71187 10.7889 6.24959 10.3114L5.38407 10.0288C5.20869 9.97156 5.02536 9.94238 4.84087 9.94238H4.5Z" fill="#3578DB"/>
</svg>
