<svg width="20" height="30" viewBox="0 0 20 30" fill="none" xmlns="http://www.w3.org/2000/svg">
<path d="M16.3244 0.500129H3.67184C1.83065 0.500129 0.333008 1.99825 0.333008 3.83848V7.47842C0.333008 8.16688 0.525868 8.82749 0.905462 9.44204C1.18678 9.89649 1.57448 10.3396 2.12606 10.8361C2.13767 10.8459 2.14871 10.8561 2.16089 10.8653L6.47846 14.9997L2.16138 19.1339C2.1492 19.1434 2.13787 19.1533 2.12626 19.1637C1.29196 19.9144 0.333789 20.9735 0.333233 22.5206V26.1611C0.333233 28.002 1.8308 29.4999 3.67206 29.4999L9.99834 29.5H16.3246C18.1658 29.5 19.6635 28.0022 19.6635 26.1612V22.5207C19.6632 21.832 19.4706 21.1717 19.091 20.5575C18.8094 20.1028 18.4217 19.6599 17.8701 19.1635C17.8588 19.1533 17.8472 19.1435 17.835 19.1337L13.5182 14.9998L17.8352 10.8656C17.8471 10.8561 17.859 10.8462 17.8704 10.8361C18.7049 10.0853 19.6631 9.02566 19.6637 7.4791V7.47854V3.83835C19.6634 1.99803 18.1658 0.5 16.3246 0.5L16.3244 0.500129ZM17.8822 7.47746C17.8822 8.14882 17.5586 8.70994 16.732 9.4642C16.706 9.48421 16.6804 9.50536 16.6566 9.52858L11.614 14.357C11.6088 14.3617 11.6053 14.3666 11.6007 14.3709C11.5964 14.3755 11.5917 14.379 11.5868 14.3842C11.5807 14.3904 11.5761 14.397 11.5698 14.4037C11.5596 14.4153 11.5489 14.4272 11.5393 14.4393C11.5303 14.4504 11.5213 14.4623 11.5132 14.4735C11.5042 14.4857 11.4949 14.4982 11.4865 14.5115C11.4789 14.5236 11.4708 14.5355 11.4638 14.548C11.456 14.5607 11.4487 14.5735 11.4418 14.5869C11.4346 14.5996 11.4288 14.6127 11.4224 14.6261C11.4163 14.6388 11.4105 14.6518 11.4053 14.6652C11.3996 14.6788 11.3945 14.6928 11.3894 14.7067C11.3847 14.7197 11.381 14.7327 11.3766 14.7461C11.3723 14.76 11.3688 14.7746 11.3653 14.7888C11.3615 14.8024 11.3589 14.8155 11.3566 14.8291C11.3537 14.8439 11.3511 14.8578 11.349 14.8726C11.3476 14.8865 11.3453 14.9002 11.3439 14.9141C11.3424 14.9283 11.3415 14.9428 11.3409 14.957C11.3401 14.9713 11.3401 14.9857 11.3401 15C11.3401 15.0139 11.3406 15.0281 11.3412 15.0424C11.3421 15.0569 11.3426 15.0711 11.3444 15.0856C11.3458 15.0995 11.3476 15.1132 11.3496 15.1268C11.352 15.1413 11.3542 15.156 11.3572 15.1706C11.3595 15.1836 11.3624 15.1973 11.3659 15.2106C11.3691 15.2254 11.3728 15.2396 11.3772 15.2538C11.3812 15.2666 11.385 15.2803 11.3902 15.293C11.3954 15.3073 11.3997 15.3211 11.4053 15.3347C11.4111 15.3478 11.4166 15.3612 11.4232 15.3739C11.4294 15.3869 11.4354 15.4003 11.4418 15.4131C11.4491 15.4264 11.4561 15.4391 11.4642 15.452C11.4715 15.4642 11.479 15.476 11.4866 15.4885C11.4953 15.5015 11.5045 15.5134 11.5139 15.5265C11.5217 15.5378 11.5304 15.5494 11.5396 15.5606C11.5492 15.5728 11.5597 15.5841 11.5704 15.5963C11.5762 15.6027 11.5809 15.6096 11.5875 15.6155C11.5918 15.6207 11.5965 15.6239 11.6008 15.6285C11.6054 15.6334 11.6095 15.6383 11.6144 15.643L16.6572 20.4715C16.681 20.4944 16.7056 20.5156 16.7318 20.5356C17.5588 21.2898 17.8828 21.8513 17.8828 22.5229V26.1609C17.8828 27.0199 17.1842 27.7185 16.3249 27.7185L9.99815 27.7184H3.67187C2.81292 27.7184 2.11398 27.0199 2.11398 26.1608L2.11408 22.5223C2.11408 21.8509 2.43796 21.2901 3.26452 20.535C3.29057 20.5156 3.31587 20.4939 3.33966 20.4709L8.38223 15.6425C8.38713 15.6378 8.39091 15.6329 8.39582 15.6279C8.40016 15.623 8.40479 15.6201 8.40913 15.6149C8.41526 15.6088 8.41989 15.6022 8.42593 15.596C8.43641 15.5844 8.44736 15.5722 8.45727 15.5601C8.46568 15.549 8.47436 15.5371 8.48276 15.5264C8.49173 15.5137 8.50164 15.5012 8.51004 15.4878C8.5176 15.4759 8.52515 15.4643 8.53242 15.4522C8.53997 15.4388 8.54724 15.4261 8.55479 15.4124C8.56121 15.3997 8.56753 15.3869 8.57367 15.3741C8.5798 15.3605 8.58556 15.3477 8.59132 15.3343C8.59708 15.3208 8.60208 15.3068 8.60671 15.2929C8.61162 15.2796 8.61539 15.2669 8.61974 15.2532C8.6238 15.2386 8.62757 15.2247 8.63135 15.2108C8.63427 15.1972 8.63748 15.1835 8.63975 15.1699C8.64268 15.1554 8.64522 15.1409 8.64702 15.127C8.64909 15.1131 8.65108 15.0994 8.65249 15.0855C8.65391 15.0707 8.65514 15.0568 8.65599 15.0426C8.65627 15.0283 8.65655 15.0139 8.65655 15.0002C8.65655 14.9859 8.65627 14.9718 8.65599 14.9575C8.65542 14.9436 8.65429 14.9288 8.65249 14.9146C8.65108 14.9007 8.64928 14.887 8.64702 14.8731C8.64494 14.8586 8.64268 14.8444 8.63975 14.8296C8.6371 14.816 8.63399 14.8029 8.63135 14.7893C8.62757 14.775 8.6238 14.7609 8.61974 14.7466C8.61539 14.7333 8.61133 14.7199 8.60671 14.7066C8.60208 14.6933 8.59717 14.679 8.59132 14.6654C8.58556 14.6524 8.57999 14.6394 8.57367 14.626C8.56753 14.6127 8.56121 14.6002 8.55479 14.5871C8.54752 14.5741 8.54053 14.561 8.53242 14.5479C8.52515 14.5357 8.51816 14.5241 8.51004 14.5119C8.50164 14.4989 8.49211 14.4862 8.48276 14.4736C8.47436 14.4623 8.46568 14.451 8.45727 14.44C8.44708 14.4278 8.43641 14.4157 8.42593 14.4038C8.4198 14.3976 8.41517 14.391 8.40913 14.3846C8.40479 14.38 8.40016 14.3762 8.39553 14.3716C8.39063 14.3667 8.38713 14.362 8.38251 14.3573L3.3397 9.52959C3.3162 9.50694 3.29099 9.48579 3.26551 9.46606C2.4379 8.7118 2.11477 8.15032 2.11477 7.47876V3.84051C2.11477 2.98156 2.81333 2.28262 3.67237 2.28262L9.99841 2.28271H16.3247C17.1836 2.28271 17.8823 2.98165 17.8823 3.8406L17.8822 7.47765L17.8822 7.47746Z" fill="#3B4161"/>
<path d="M13.9729 9.96606L9.99897 9.96776L6.0248 9.96606C5.77456 9.96606 5.57216 10.1687 5.57216 10.4184C5.57216 10.5496 5.62758 10.6676 5.71716 10.7499L5.71282 10.7609L8.91028 13.8035C8.91868 13.8116 8.9268 13.8203 8.9352 13.8287C8.9436 13.8374 8.95257 13.8452 8.96069 13.8539C8.9621 13.8553 8.96276 13.8568 8.96446 13.8582C8.97664 13.871 8.98797 13.884 9.00015 13.8968C9.00713 13.9044 9.0144 13.9122 9.02129 13.9203C9.03319 13.9346 9.04536 13.9496 9.05726 13.9641C9.06302 13.9711 9.06859 13.9777 9.07435 13.9847C9.08596 14.0001 9.09728 14.0158 9.1089 14.0317C9.11409 14.0387 9.11871 14.0453 9.12372 14.0523C9.13448 14.0677 9.14458 14.0831 9.15449 14.0988C9.15968 14.1063 9.16469 14.1139 9.1696 14.1214C9.17885 14.136 9.18753 14.151 9.19603 14.1661C9.20094 14.1748 9.20651 14.1837 9.2117 14.1925C9.21925 14.2061 9.22595 14.2201 9.23369 14.2337C9.23917 14.2441 9.24474 14.2548 9.24993 14.265C9.25635 14.2772 9.26183 14.2896 9.26787 14.3027C9.274 14.3146 9.27948 14.3267 9.28439 14.3389C9.28958 14.3502 9.29336 14.3619 9.29826 14.3728C9.3044 14.3867 9.30988 14.4007 9.31507 14.4145C9.31884 14.4238 9.32233 14.4343 9.32583 14.4441C9.33074 14.4595 9.33631 14.4749 9.3415 14.4905C9.34443 14.4992 9.34726 14.5088 9.34933 14.5178C9.35453 14.5343 9.35953 14.5506 9.36416 14.5674C9.36623 14.5758 9.3685 14.5847 9.37057 14.5926C9.37492 14.6102 9.37898 14.6277 9.38275 14.6451C9.38483 14.6535 9.38653 14.6621 9.38794 14.6703C9.39144 14.6879 9.39521 14.7054 9.39776 14.7233C9.39946 14.732 9.40069 14.7413 9.4021 14.7506C9.40475 14.7674 9.40729 14.7845 9.40937 14.8014C9.41079 14.8116 9.41145 14.822 9.4123 14.8315C9.414 14.8477 9.41607 14.8637 9.41749 14.8802C9.41806 14.8915 9.41806 14.9029 9.41891 14.9148C9.41947 14.9293 9.42032 14.9443 9.42098 14.9591V14.9986V19.5109C9.42098 20.6553 8.71109 20.9398 8.23985 21.0737C7.11961 21.3938 3.95756 22.007 3.53658 22.0879C3.52384 22.0902 3.51138 22.0928 3.49863 22.0954C3.49287 22.096 3.48966 22.0971 3.48966 22.0971V22.098C3.14019 22.1807 2.87891 22.495 2.87891 22.8697V26.159C2.87891 26.5969 3.23526 26.9536 3.67347 26.9536L9.99879 26.9537H16.3251C16.7633 26.9537 17.1191 26.5969 17.1191 26.1591V22.8698C17.1191 22.4951 16.858 22.1805 16.5083 22.0981L16.5089 22.0972C16.5089 22.0972 16.5051 22.0961 16.4996 22.0955C16.4874 22.0926 16.475 22.09 16.462 22.088C16.0432 22.0071 12.8793 21.3937 11.7584 21.0738C11.2875 20.9399 10.5784 20.6556 10.5773 19.513V14.9987V14.9593C10.5779 14.9447 10.5787 14.9297 10.5797 14.9152C10.5805 14.9039 10.5808 14.8922 10.5814 14.8806C10.5825 14.8641 10.5849 14.8482 10.5863 14.8322C10.5868 14.8224 10.5884 14.8122 10.5892 14.8021C10.5919 14.7853 10.5941 14.7682 10.5965 14.7513C10.5986 14.7421 10.5991 14.7327 10.6005 14.7237C10.6043 14.7058 10.6075 14.6881 10.611 14.6707C10.6124 14.6629 10.6142 14.6539 10.6156 14.6458C10.62 14.6284 10.624 14.6109 10.6287 14.5933C10.6307 14.5852 10.633 14.5762 10.6348 14.5681C10.6397 14.5513 10.6441 14.5348 10.6493 14.5185C10.6525 14.5098 10.6551 14.5002 10.6575 14.4912C10.6629 14.4756 10.6682 14.4602 10.6734 14.4448C10.6772 14.435 10.6807 14.4248 10.6839 14.415C10.6894 14.4014 10.6949 14.3874 10.7007 14.3732C10.7059 14.3622 10.7094 14.3506 10.7149 14.3396C10.7201 14.3275 10.726 14.3156 10.7318 14.3031C10.7375 14.2906 10.7431 14.2782 10.7494 14.2654C10.7549 14.255 10.7599 14.2446 10.7654 14.2341C10.7732 14.2205 10.7799 14.2065 10.7877 14.1929C10.7932 14.1842 10.7982 14.1756 10.8034 14.1669C10.8118 14.1518 10.8208 14.1368 10.8298 14.1222C10.835 14.1147 10.8397 14.1074 10.8449 14.0996C10.8545 14.0839 10.865 14.0685 10.8757 14.0531C10.8809 14.0461 10.8852 14.0395 10.8908 14.0325C10.9019 14.0169 10.9132 14.0012 10.925 13.9858C10.9307 13.9788 10.9363 13.9722 10.9418 13.9652C10.9537 13.9504 10.9659 13.9354 10.978 13.9212C10.985 13.9133 10.9923 13.9055 10.9992 13.8979C11.0108 13.8852 11.0221 13.8724 11.0346 13.8593C11.0357 13.8579 11.0372 13.8564 11.0386 13.855C11.0465 13.8463 11.056 13.8382 11.0641 13.8298C11.0723 13.8217 11.0807 13.8124 11.0893 13.8046L14.2866 10.762L14.2822 10.751C14.3715 10.6683 14.4272 10.5506 14.4272 10.4195C14.4264 10.1689 14.2228 9.96621 13.9726 9.96621L13.9729 9.96606Z" fill="#F2A71B"/>
</svg>
