<svg width="17" height="21" viewBox="0 0 17 21" fill="none" xmlns="http://www.w3.org/2000/svg">
<path d="M5.25 8.69238C5.25 6.89746 6.70507 5.44238 8.5 5.44238C10.2949 5.44238 11.75 6.89746 11.75 8.69238C11.75 10.4873 10.2949 11.9424 8.5 11.9424C6.70507 11.9424 5.25 10.4873 5.25 8.69238Z" fill="#55BA6A"/>
<path fill-rule="evenodd" clip-rule="evenodd" d="M0.273543 7.56977C0.617182 3.40083 4.10097 0.192383 8.28406 0.192383H8.71599C12.8991 0.192383 16.3829 3.40083 16.7265 7.56977C16.9115 9.81437 16.2182 12.0432 14.7925 13.7867L9.99946 19.6485C9.22449 20.5963 7.77556 20.5963 7.00059 19.6485L2.20752 13.7867C0.781866 12.0432 0.0885246 9.81437 0.273543 7.56977ZM8.5 3.94238C5.87665 3.94238 3.75 6.06903 3.75 8.69238C3.75 11.3157 5.87665 13.4424 8.5 13.4424C11.1234 13.4424 13.25 11.3157 13.25 8.69238C13.25 6.06903 11.1234 3.94238 8.5 3.94238Z" fill="#55BA6A"/>
</svg>
