<svg width="18" height="18" viewBox="0 0 18 18" fill="none" xmlns="http://www.w3.org/2000/svg">
<path fill-rule="evenodd" clip-rule="evenodd" d="M0.5 9.19238C0.5 4.49796 4.30558 0.692383 9 0.692383C13.6944 0.692383 17.5 4.49796 17.5 9.19238C17.5 13.8868 13.6944 17.6924 9 17.6924C4.30558 17.6924 0.5 13.8868 0.5 9.19238ZM9.75 4.19238C9.75 3.77817 9.41421 3.44238 9 3.44238C8.58579 3.44238 8.25 3.77817 8.25 4.19238V9.19238C8.25 9.45098 8.38321 9.69133 8.6025 9.82838L11.6025 11.7034C11.9538 11.9229 12.4165 11.8161 12.636 11.4649C12.8555 11.1136 12.7488 10.6509 12.3975 10.4314L9.75 8.7767V4.19238Z" fill="#EC5F5F"/>
</svg>
