<svg width="95" height="115" viewBox="0 0 95 115" fill="none" xmlns="http://www.w3.org/2000/svg">
<path d="M62.3486 114.003V8.9921C62.3486 7.88788 62.9014 6.84736 63.838 6.27048C65.1267 5.4777 67.3414 4.69554 70.8202 5.12378C76.4045 5.81038 86.0627 11.5049 94.3124 9.50882V27.8276C84.9853 31.0412 75.5489 25.743 70.9364 24.3911C65.669 22.848 62.3486 26.1996 62.3486 26.1996" fill="#E0E0E0"/>
<path d="M62.3486 114.003V8.9921C62.3486 7.88788 62.9014 6.84736 63.838 6.27048C65.1267 5.4777 67.3414 4.69554 70.8202 5.12378C76.4045 5.81038 86.0627 11.5049 94.3124 9.50882V27.8276C84.9853 31.0412 75.5489 25.743 70.9364 24.3911C65.669 22.848 62.3486 26.1996 62.3486 26.1996" stroke="#3578DB" stroke-linecap="round" stroke-linejoin="round"/>
<path d="M34.1796 71.8271V108.546C34.1796 111.558 36.6091 114.003 39.609 114.003C42.6054 114.003 45.0384 111.561 45.0384 108.546L44.7286 71.8271L44.2039 45.7292C45.2532 47.3042 46.3412 48.8437 47.5207 50.3302L47.5806 50.4045C48.3587 51.3813 49.5383 51.9511 50.7847 51.9511C52.0452 51.9511 53.2354 51.3707 54.0135 50.3726L65.9498 35.1046C67.337 33.328 67.1856 30.7054 65.4639 29.2579C63.6787 27.7573 61.0274 28.0475 59.6014 29.8702L50.922 40.9761C50.0488 39.6595 49.1862 38.2828 48.2848 36.8353C46.306 33.65 43.2286 31.6999 38.609 31.7601C38.5492 31.7601 38.4893 31.7601 38.433 31.7601L27.4192 31.9088C19.2505 31.8663 15.9266 35.8231 15.8316 40.8062C15.828 40.9938 15.7647 69.3851 15.7647 69.3851C15.7154 71.6643 17.5111 73.5507 19.7786 73.6002C19.8103 73.6002 19.8385 73.6002 19.8702 73.6002C21.3032 73.6002 22.5673 72.857 23.2996 71.7316" fill="white"/>
<path d="M34.1796 71.8271V108.546C34.1796 111.558 36.6091 114.003 39.609 114.003C42.6054 114.003 45.0384 111.561 45.0384 108.546L44.7286 71.8271L44.2039 45.7292C45.2532 47.3042 46.3412 48.8437 47.5207 50.3302L47.5806 50.4045C48.3587 51.3813 49.5383 51.9511 50.7847 51.9511C52.0453 51.9511 53.2354 51.3707 54.0135 50.3726L65.9498 35.1046C67.337 33.328 67.1856 30.7054 65.4639 29.2579C63.6787 27.7573 61.0274 28.0475 59.6014 29.8702L50.922 40.9761C50.0488 39.6595 49.1862 38.2828 48.2848 36.8353C46.306 33.65 43.2286 31.6999 38.609 31.7601C38.5492 31.7601 38.4893 31.7601 38.433 31.7601L27.4192 31.9088C19.2505 31.8663 15.9266 35.8231 15.8316 40.8062C15.828 40.9938 15.7647 69.3851 15.7647 69.3851C15.7154 71.6643 17.5111 73.5507 19.7786 73.6002C19.8103 73.6002 19.8385 73.6002 19.8702 73.6002C21.3032 73.6002 22.5673 72.857 23.2996 71.7316" stroke="#3578DB" stroke-linecap="round" stroke-linejoin="round"/>
<path d="M38.7156 29.0658C42.2371 25.5262 42.237 19.7873 38.7156 16.2476C35.1941 12.708 29.4846 12.708 25.9631 16.2476C22.4416 19.7873 22.4416 25.5262 25.9631 29.0658C29.4846 32.6055 35.1941 32.6055 38.7156 29.0658Z" fill="white" stroke="#3578DB" stroke-linecap="round" stroke-linejoin="round"/>
<path d="M23.3252 46.7275V71.8274" stroke="#3578DB" stroke-linecap="round" stroke-linejoin="round"/>
<path d="M34.1821 71.8271V108.546C34.1821 111.558 31.7526 114.004 28.7527 114.004C25.7563 114.004 23.3232 111.561 23.3232 108.546V71.8271" fill="white"/>
<path d="M34.1821 71.8271V108.546C34.1821 111.558 31.7526 114.004 28.7527 114.004C25.7563 114.004 23.3232 111.561 23.3232 108.546V71.8271" stroke="#3578DB" stroke-linecap="round" stroke-linejoin="round"/>
<path d="M36.5699 74.7148H2.61737C1.72412 74.7148 1 75.4427 1 76.3405V97.1251C1 98.023 1.72412 98.7508 2.61737 98.7508H36.5699C37.4632 98.7508 38.1873 98.023 38.1873 97.1251V76.3405C38.1873 75.4427 37.4632 74.7148 36.5699 74.7148Z" fill="#FF9A2E" stroke="#3578DB" stroke-linecap="round" stroke-linejoin="round"/>
<path d="M18.8936 83.0088H31.6006" stroke="white" stroke-linecap="round" stroke-linejoin="round"/>
<path d="M18.8936 86.3135H31.6006" stroke="white" stroke-linecap="round" stroke-linejoin="round"/>
<path d="M18.8936 89.6201H31.6006" stroke="white" stroke-linecap="round" stroke-linejoin="round"/>
<path d="M30.3564 92.9204H31.6015H30.3564Z" fill="white"/>
<path d="M30.3564 92.9204H31.6015" stroke="white" stroke-linecap="round" stroke-linejoin="round"/>
<path d="M23.1133 92.9204H27.4405H23.1133Z" fill="white"/>
<path d="M23.1133 92.9204H27.4405" stroke="white" stroke-linecap="round" stroke-linejoin="round"/>
<path d="M18.8936 92.9204H20.2363H18.8936Z" fill="white"/>
<path d="M18.8936 92.9204H20.2363" stroke="white" stroke-linecap="round" stroke-linejoin="round"/>
<path d="M4.63672 93.0386L5.27756 90.413C5.38742 89.9651 5.73531 89.6093 6.18085 89.4927C6.82169 89.3271 7.70667 89.1553 8.28038 88.9836C8.58554 88.8915 8.79916 88.6093 8.79916 88.2903V87.6216L8.71371 87.5235C8.48179 87.2597 8.3292 86.9284 8.27428 86.5787C8.27428 86.5787 8.03625 86.5787 8.00573 86.364C7.90197 85.7076 7.82263 85.6769 7.82263 85.3886C7.82263 85.1003 7.92639 85.0328 8.05456 85.1064C8.03625 85.0328 7.99352 84.8794 7.98742 84.6647C7.9447 83.1126 8.95784 82.0942 10.148 82.0942C11.3381 82.0942 12.3574 83.1126 12.3085 84.6647C12.3085 84.8794 12.2658 85.0328 12.2414 85.1064C12.3696 85.0328 12.4733 85.1064 12.4733 85.3886C12.4733 85.6708 12.4001 85.7076 12.2902 86.364C12.2536 86.5787 12.0217 86.5787 12.0217 86.5787C11.9729 86.9284 11.8203 87.2597 11.5823 87.5235L11.4968 87.6216V88.2903C11.4968 88.6093 11.7104 88.8977 12.0156 88.9836C12.5954 89.1492 13.4743 89.3271 14.1151 89.4927C14.5607 89.6093 14.9085 89.959 15.0184 90.413L15.6592 93.0386" stroke="white" stroke-linecap="round" stroke-linejoin="round"/>
<path d="M16.6443 70.0479H22.4786C22.9434 70.0479 23.3201 70.4265 23.3201 70.8937V74.4329H15.8027V70.8937C15.8027 70.4265 16.1795 70.0479 16.6443 70.0479Z" fill="white" stroke="#3578DB" stroke-linecap="round" stroke-linejoin="round"/>
<path d="M62.3486 1.00195V8.99341" stroke="#3578DB" stroke-linecap="round" stroke-linejoin="round"/>
</svg>
