<svg width="33" height="32" viewBox="0 0 33 32" fill="none" xmlns="http://www.w3.org/2000/svg">
<g clip-path="url(#clip0_3893_18291)">
<path d="M9.51992 12.9355C9.84992 12.9355 10.1199 12.6655 10.1199 12.3355V12.3055C11.0799 13.1555 12.8299 13.7755 15.7799 13.7755H16.6499C16.9299 13.7755 17.2099 13.7655 17.4999 13.7455C17.8299 13.7155 18.0699 13.4155 18.0399 13.0855C18.0099 12.7555 17.7099 12.5155 17.3799 12.5455C17.0199 12.5855 16.6299 12.5755 16.2299 12.5755H15.7899C10.1099 12.5755 10.1299 10.3355 10.1299 9.59551V9.41551C11.0899 10.2655 12.8399 10.8855 15.7899 10.8855H16.5099C16.9299 10.8855 17.3299 10.8755 17.7399 10.8255C18.0699 10.7855 18.3099 10.4855 18.2699 10.1555C18.2299 9.82551 17.9299 9.58551 17.5999 9.62551C17.1499 9.67551 16.6599 9.67551 16.1499 9.67551H15.7899C10.1099 9.67551 10.1299 7.43551 10.1299 6.69551V6.41551C11.3299 7.37551 13.4399 7.99551 15.8299 7.99551C18.2199 7.99551 20.2299 7.40551 21.4399 6.47551V7.04551C21.4399 7.37551 21.7099 7.64551 22.0399 7.64551C22.3699 7.64551 22.6399 7.37551 22.6399 7.04551V4.39551C22.6399 2.22551 19.6499 0.645508 15.8299 0.645508C12.0099 0.645508 8.91992 2.18551 8.91992 4.39551V12.3355C8.91992 12.6655 9.18992 12.9355 9.51992 12.9355ZM15.7899 1.84551C19.0899 1.84551 21.3999 3.17551 21.3999 4.35551C21.3999 5.53551 19.0999 6.78551 15.7899 6.78551C12.4799 6.78551 10.0899 5.47551 10.0899 4.31551C10.0899 3.15551 12.5299 1.84551 15.7899 1.84551Z" fill="#3578DB"/>
<path d="M32.4998 11.5255C32.4998 9.36547 29.3098 7.85547 25.6898 7.85547C21.8198 7.85547 18.7798 9.36547 18.7798 11.6055V14.2555C18.7798 14.5855 19.0498 14.8555 19.3798 14.8555C19.7098 14.8555 19.9798 14.5855 19.9798 14.2555V13.6255C21.1798 14.5855 23.2898 15.2055 25.6798 15.2055C28.0698 15.2055 30.0798 14.6155 31.2898 13.6855V13.9055C31.2898 15.8955 29.3598 16.9355 25.6098 16.9355H25.5698C25.0098 16.9355 24.4698 16.9255 23.9598 16.8755C23.6298 16.8455 23.3298 17.0755 23.2998 17.4055C23.2698 17.7355 23.5098 18.0455 23.8398 18.0755C24.3898 18.1355 24.9398 18.1355 25.5298 18.1355H25.6098C28.5298 18.1355 30.2598 17.4855 31.2898 16.6355V16.7855C31.2898 18.7755 29.3698 19.7855 25.6298 19.7855C25.5398 19.7855 25.4598 19.7955 25.4098 19.8055H25.3798C25.0498 19.8055 24.7898 20.0855 24.7798 20.4055C24.7798 20.7355 25.0398 21.0155 25.3698 21.0155H25.3798C25.4698 21.0155 25.5398 21.0055 25.5898 20.9955H25.6198C28.5398 21.0055 30.2598 20.3855 31.2798 19.5255V19.6755C31.2798 21.6455 29.4298 22.6555 25.8098 22.6955C25.4798 22.6955 25.1998 22.9755 25.2098 23.3155C25.2098 23.6455 25.4698 23.9055 25.7998 23.9055H25.8098C28.6098 23.9055 30.3198 23.2655 31.2798 22.4355V22.5655C31.2798 24.5555 29.3598 25.5655 25.6198 25.5655C25.5298 25.5655 25.4498 25.5755 25.3998 25.5855C25.0998 25.6155 24.8598 25.8755 24.8598 26.1855C24.8598 26.5155 25.1198 26.7855 25.4498 26.7855H25.4598C25.5398 26.7855 25.6298 26.7755 25.6698 26.7655C31.2998 26.7655 32.4998 24.4955 32.4998 22.5755V11.5255ZM25.6598 14.0055C22.3998 14.0055 19.9598 12.6955 19.9598 11.5355C19.9598 10.3755 22.3998 9.06547 25.6598 9.06547C28.9198 9.06547 31.2798 10.3855 31.2798 11.5655C31.2798 12.7155 28.9698 14.0055 25.6598 14.0055Z" fill="#3578DB"/>
<path d="M7.39 20.9857C7.72 20.9857 7.98 20.7157 7.98 20.3857C7.98 20.0557 7.71 19.7857 7.37 19.7857C4.11 19.7857 1.66 18.4757 1.66 17.3157C1.66 16.1557 4.1 14.8457 7.36 14.8457C8.92 14.8457 10.38 15.1457 11.48 15.6757C11.78 15.8257 12.14 15.6957 12.28 15.4057C12.43 15.1057 12.3 14.7457 12.01 14.5957C10.76 13.9757 9.12 13.6357 7.38 13.6357C3.52 13.6357 0.5 15.1957 0.5 17.3857V22.5757C0.5 24.5057 1.67 26.8057 7.34 26.8057C7.67 26.8057 7.93 26.5357 7.93 26.2057C7.93 25.8757 7.67 25.6057 7.34 25.6057C3.59 25.6057 1.7 24.5857 1.7 22.5757V22.4557C2.66 23.2857 4.28 23.9257 7.04 23.9257H7.05C7.38 23.9257 7.65 23.6657 7.65 23.3357C7.65 23.0057 7.41 22.7457 7.07 22.7357C3.5 22.6857 1.7 21.6557 1.7 19.6857V19.4057C2.91 20.3657 4.99 20.9857 7.39 20.9857Z" fill="#3578DB"/>
<path d="M16.4602 15.0356C11.9302 15.0356 8.24023 18.7256 8.24023 23.2556C8.24023 27.7856 11.9302 31.4756 16.4602 31.4756C20.9902 31.4756 24.6802 27.7856 24.6802 23.2556C24.6802 18.7256 20.9902 15.0356 16.4602 15.0356Z" fill="#FF9A2E"/>
<path d="M15.8598 20.9854C15.8598 19.7854 15.0498 18.8154 14.0598 18.8154C13.0698 18.8154 12.2598 19.7854 12.2598 20.9854C12.2598 22.1854 13.0698 23.1554 14.0598 23.1554C15.0498 23.1554 15.8598 22.1854 15.8598 20.9854ZM13.4598 20.9854C13.4598 20.4154 13.7798 20.0154 14.0598 20.0154C14.3398 20.0154 14.6598 20.4154 14.6598 20.9854C14.6598 21.5554 14.3398 21.9554 14.0598 21.9554C13.7798 21.9554 13.4598 21.5554 13.4598 20.9854Z" fill="white"/>
<path d="M18.84 23.2354C17.85 23.2354 17.04 24.2054 17.04 25.4054C17.04 26.6054 17.85 27.5754 18.84 27.5754C19.83 27.5754 20.64 26.6054 20.64 25.4054C20.64 24.2054 19.83 23.2354 18.84 23.2354ZM18.84 26.3754C18.56 26.3754 18.24 25.9754 18.24 25.4054C18.24 24.8354 18.56 24.4354 18.84 24.4354C19.12 24.4354 19.44 24.8354 19.44 25.4054C19.44 25.9754 19.12 26.3754 18.84 26.3754Z" fill="white"/>
<path d="M19.6798 18.8757C19.4098 18.6757 19.0398 18.7357 18.8398 19.0057L13.2898 26.5357C13.0898 26.8057 13.1498 27.1757 13.4198 27.3757C13.5298 27.4557 13.6498 27.4957 13.7798 27.4957C13.9598 27.4957 14.1498 27.4157 14.2598 27.2557L19.8098 19.7257C20.0098 19.4557 19.9498 19.0757 19.6798 18.8757Z" fill="white"/>
</g>
<defs>
<clipPath id="clip0_3893_18291">
<rect width="32" height="30.83" fill="white" transform="translate(0.5 0.645508)"/>
</clipPath>
</defs>
</svg>
