<svg width="20" height="20" viewBox="0 0 20 20" fill="none" xmlns="http://www.w3.org/2000/svg">
<path d="M9.99996 19.9999C12.6522 19.9999 15.1956 18.9463 17.071 17.071C18.9463 15.1957 19.9999 12.6519 19.9999 9.99996C19.9999 7.34798 18.9463 4.80433 17.071 2.92893C15.1957 1.05361 12.6519 0 9.99996 0C7.34797 0 4.80432 1.05361 2.92893 2.92893C1.05361 4.80425 0 7.34798 0 9.99996C0.0029452 12.6512 1.05746 15.1932 2.93218 17.0678C4.8069 18.9424 7.34885 19.997 10 20L9.99996 19.9999ZM9.99996 1.33325C12.2985 1.33325 14.5027 2.24627 16.1281 3.87155C17.7534 5.49698 18.6664 7.70139 18.6664 9.99972C18.6664 12.2981 17.7534 14.5025 16.1281 16.1279C14.5027 17.7532 12.2983 18.6662 9.99996 18.6662C7.70163 18.6662 5.49718 17.7532 3.87179 16.1279C2.24651 14.5025 1.33349 12.2981 1.33349 9.99972C1.33597 7.70202 2.24992 5.49893 3.87472 3.87433C5.49936 2.24952 7.70238 1.33556 10.0001 1.3331L9.99996 1.33325Z" fill="#3578DB"/>
<path d="M10 17.3331C11.945 17.3331 13.8102 16.5604 15.1854 15.1851C16.5605 13.8099 17.3332 11.9446 17.3332 9.9998C17.3332 8.05496 16.5606 6.18964 15.1854 4.81448C13.8101 3.43932 11.9449 2.6665 10 2.6665C8.05496 2.6665 6.18972 3.43924 4.81432 4.81448C3.43892 6.18972 2.6665 8.05496 2.6665 9.9998C2.6665 11.9446 3.43908 13.81 4.81432 15.1851C6.18956 16.5603 8.0548 17.3331 10 17.3331ZM10.7467 5.52992C10.7982 5.33786 10.9239 5.17417 11.0961 5.07464C11.2683 4.97528 11.4729 4.94831 11.665 4.99977C11.857 5.05123 12.0207 5.17694 12.1203 5.34901C12.2196 5.52122 12.2466 5.72599 12.1951 5.91806C12.1437 6.11011 12.018 6.2738 11.8457 6.37333C11.6737 6.47269 11.4689 6.49967 11.2768 6.4482C11.0848 6.39674 10.9211 6.27103 10.8216 6.09881C10.7222 5.92659 10.6952 5.72198 10.7467 5.52992V5.52992ZM9.56428 7.67789C10.8065 7.04916 11.749 7.58303 11.5307 8.39746L10.331 12.8752C9.91912 14.4121 12.3897 13.0096 12.3897 13.0096V13.0095C11.8636 13.7166 11.1987 14.3088 10.4356 14.7497C9.19337 15.3785 8.25091 14.8446 8.46916 14.0303L9.66892 9.55257C10.0808 8.01566 7.61023 9.41817 7.61023 9.41817C8.13634 8.71103 8.80134 8.11889 9.56428 7.6779V7.67789Z" fill="#3578DB"/>
</svg>
