<svg width="32" height="33" viewBox="0 0 32 33" fill="none" xmlns="http://www.w3.org/2000/svg">
<g clip-path="url(#clip0_3893_18278)">
<path d="M22.97 6.62563C22.97 6.28563 22.7 6.01562 22.36 6.01562H12.59C12.25 6.01562 11.98 6.28563 11.98 6.62563C11.98 6.96563 12.25 7.23563 12.59 7.23563H22.36C22.7 7.23563 22.97 6.96563 22.97 6.62563Z" fill="#3578DB"/>
<path d="M20.2798 11.5153C20.2798 11.1753 20.0098 10.9053 19.6698 10.9053H7.94984C7.60984 10.9053 7.33984 11.1753 7.33984 11.5153C7.33984 11.8553 7.60984 12.1253 7.94984 12.1253H19.6798C20.0098 12.1253 20.2798 11.8553 20.2798 11.5153Z" fill="#3578DB"/>
<path d="M17.7198 16.0356H7.94984C7.60984 16.0356 7.33984 16.3056 7.33984 16.6456C7.33984 16.9856 7.60984 17.2556 7.94984 17.2556H17.7198C18.0598 17.2556 18.3298 16.9856 18.3298 16.6456C18.3298 16.3056 18.0598 16.0356 17.7198 16.0356Z" fill="#3578DB"/>
<path d="M7.33984 21.7755C7.33984 22.1155 7.60984 22.3855 7.94984 22.3855H19.6798C20.0198 22.3855 20.2898 22.1155 20.2898 21.7755C20.2898 21.4355 20.0198 21.1655 19.6798 21.1655H7.94984C7.60984 21.1655 7.33984 21.4355 7.33984 21.7755Z" fill="#3578DB"/>
<path d="M26.18 23.4455C25.84 23.4455 25.57 23.7155 25.57 24.0555V28.2555C25.57 29.9555 24.36 31.3855 22.96 31.3855C21.56 31.3855 20.36 30.0055 20.36 28.3555C20.36 28.0155 20.08 27.7555 19.67 27.7555H5.05V6.75551H9.29C9.63 6.75551 9.94 6.44551 9.94 6.10551V1.86551H25.57V9.15551C25.57 9.49551 25.84 9.76551 26.18 9.76551C26.52 9.76551 26.79 9.49551 26.79 9.15551V1.21551C26.79 0.875508 26.48 0.645508 26.14 0.645508H9.1C8.94 0.645508 8.79 0.685508 8.67 0.805508L3.99 5.45551C3.88 5.57551 3.83 5.71551 3.83 5.88551V27.7655H1.11C0.77 27.7655 0.5 28.0355 0.5 28.3755C0.5 30.7355 2.2 32.6455 4.29 32.6455H22.85C25.08 32.6455 26.79 30.6155 26.79 28.2555V24.0555C26.79 23.7255 26.52 23.4455 26.18 23.4455ZM8.72 2.49551V5.52551H5.66L8.72 2.49551ZM1.77 28.9855H19.17C19.29 29.9055 19.69 30.7555 20.28 31.4255H4.28C3.05 31.4255 2.01 30.3255 1.77 28.9855Z" fill="#3578DB"/>
<path d="M25.3401 10.3154C21.9001 10.3154 19.1001 13.1154 19.1001 16.5554C19.1001 19.9954 21.9001 22.7954 25.3401 22.7954C28.7801 22.7954 31.5801 19.9954 31.5801 16.5554C31.5801 13.1154 28.7801 10.3154 25.3401 10.3154Z" fill="#FF9A2E"/>
<path d="M25.34 20.4555C24.86 20.4555 24.46 20.0555 24.46 19.5755V16.0555C24.46 15.5755 24.86 15.1755 25.34 15.1755C25.82 15.1755 26.22 15.5755 26.22 16.0555V19.5755C26.22 20.0655 25.82 20.4555 25.34 20.4555ZM25.34 14.4255C24.85 14.4255 24.46 14.0355 24.46 13.5455C24.46 13.0555 24.85 12.6655 25.34 12.6655C25.83 12.6655 26.22 13.0555 26.22 13.5455C26.22 14.0255 25.83 14.4255 25.34 14.4255Z" fill="white"/>
</g>
<defs>
<clipPath id="clip0_3893_18278">
<rect width="31.08" height="32" fill="white" transform="translate(0.5 0.645508)"/>
</clipPath>
</defs>
</svg>
