<svg width="24" height="23" viewBox="0 0 24 23" fill="none" xmlns="http://www.w3.org/2000/svg">
<g clip-path="url(#clip0_11538_33388)">
<path d="M23.9999 1.87488V17.3407C23.9882 17.3604 23.9704 17.3788 23.9652 17.3999C23.6754 18.582 22.8746 19.2142 21.6629 19.2142C18.7726 19.2142 15.8819 19.2142 12.9916 19.2142C12.901 19.2142 12.8099 19.2142 12.7197 19.2142V20.6217C12.8216 20.6217 12.9071 20.6217 12.9921 20.6217C14.3903 20.6217 15.7889 20.6208 17.1871 20.6222C17.6196 20.6222 17.939 20.9176 17.9451 21.3154C17.9512 21.7193 17.6239 22.0256 17.18 22.0256C13.7271 22.0265 10.2742 22.026 6.82126 22.0246C6.73672 22.0246 6.64842 22.0199 6.56764 21.996C6.237 21.8983 6.01392 21.5634 6.059 21.2464C6.11067 20.8852 6.3981 20.6236 6.76443 20.6227C8.18608 20.6199 9.60821 20.6213 11.0299 20.6213C11.113 20.6213 11.1961 20.6213 11.2811 20.6213V19.2137C11.1722 19.2137 11.0792 19.2137 10.9867 19.2137C8.05693 19.2137 5.12767 19.2161 2.19794 19.2123C0.983408 19.2109 0.00276185 18.2373 0.00229219 17.0284C-0.000525762 12.0848 -0.00146508 7.14068 0.00370116 2.19659C0.00417082 1.37469 0.37614 0.738303 1.07922 0.318898C1.32156 0.174243 1.60852 0.104264 1.87482 0C8.62475 0 15.3747 0 22.1246 0C22.1673 0.0159684 22.2091 0.0366333 22.2533 0.0464962C22.8347 0.175652 23.3095 0.478112 23.6205 0.982994C23.7877 1.25493 23.876 1.5757 23.9999 1.87488ZM22.5947 14.9859C22.5947 14.8896 22.5947 14.813 22.5947 14.7365C22.5947 10.6049 22.5947 6.4733 22.5947 2.34172C22.5947 1.7213 22.2777 1.40522 21.6563 1.40522C15.2197 1.40522 8.78302 1.40522 2.34636 1.40522C1.72359 1.40522 1.40657 1.72036 1.4061 2.33984C1.4061 6.47142 1.4061 10.603 1.4061 14.7346V14.9859H22.5947ZM1.4061 16.4094C1.4061 16.5428 1.4061 16.6513 1.4061 16.7593C1.4061 17.5413 1.67662 17.8099 2.46471 17.8099C8.83046 17.8099 15.1957 17.8099 21.5615 17.8099C21.6474 17.8099 21.7338 17.8137 21.8193 17.8076C22.2054 17.7798 22.5092 17.5347 22.568 17.1529C22.6051 16.9124 22.575 16.6616 22.575 16.4094H1.40563H1.4061Z" fill="#2AACE3"/>
<path d="M17.063 8.28626C17.0602 11.0887 14.7805 13.3604 11.9785 13.3529C9.19157 13.3454 6.925 11.0648 6.92969 8.27311C6.93486 5.47723 9.1972 3.21113 11.9917 3.20315C14.7857 3.19516 17.0654 5.48052 17.0626 8.28626H17.063ZM10.323 5.04327C9.44941 5.38377 8.41194 6.74906 8.4528 7.5705C8.93232 7.5705 9.41372 7.57519 9.89465 7.56251C9.93879 7.56157 10.0092 7.45355 10.0182 7.38874C10.1252 6.60582 10.2234 5.82149 10.323 5.04327ZM13.6491 5.01509C13.7543 5.71629 13.8689 6.39776 13.9548 7.08346C14.0159 7.5705 13.999 7.57238 14.4912 7.57238C14.8458 7.57238 15.2008 7.57238 15.5874 7.57238C15.3117 6.38978 14.664 5.5566 13.6491 5.01509ZM8.43824 8.99967C8.52137 9.93006 9.44237 11.1897 10.3239 11.4954C10.2046 10.6759 10.0834 9.8427 9.9604 8.99967H8.43777H8.43824ZM13.6641 11.5161C14.5748 11.1361 15.539 9.86431 15.5503 9.00953H14.0309C13.9069 9.85914 13.7858 10.6862 13.6646 11.5161H13.6641ZM12.5679 7.55829C12.5036 6.62836 12.405 5.72145 12.0095 4.84413C11.6963 5.35089 11.3788 6.93364 11.4539 7.55829H12.5675H12.5679ZM11.4229 9.00436C11.484 9.9465 11.5849 10.8614 11.9964 11.7843C12.4083 10.8595 12.5088 9.94368 12.5693 9.00436H11.4229Z" fill="#3578DB"/>
</g>
<defs>
<clipPath id="clip0_11538_33388">
<rect width="24" height="22.026" fill="white"/>
</clipPath>
</defs>
</svg>
