<svg width="150" height="73" viewBox="0 0 150 73" fill="none" xmlns="http://www.w3.org/2000/svg">
<g clip-path="url(#clip0_2740_5703)">
<path d="M144.181 71.4626L141.615 71.4749C139.807 71.4839 137.245 71.4957 134.081 71.5096C133.333 71.5141 132.551 71.5175 131.739 71.5208L128.08 71.5387L124.041 71.5572C86.3988 71.7318 10.344 72.0691 10.2869 71.9371L10.2757 71.9164C10.2695 71.9068 10.2651 71.8962 10.2628 71.8851C10.2147 71.8006 -15.3827 47.3568 14.459 30.6587C26.1374 24.1254 15.3856 21.1528 24.9154 14.1871C39.5468 3.48735 59.3999 15.3168 71.0094 10.6136C103.796 -2.66709 116.412 -0.605915 126.026 1.68857C127.463 2.0321 129.183 2.7242 130.904 3.71171C133.508 5.20388 136.117 7.37025 137.766 10.0239C140.132 13.8319 140.519 18.6435 136.069 23.905C135.981 24.0096 135.896 24.1165 135.818 24.2245C133.549 27.3235 135.158 31.7217 137.929 36.0947C139.704 38.8922 141.953 41.6818 143.966 44.1084C157.355 60.2448 144.3 71.2511 144.181 71.4626Z" fill="#EBF3FA"/>
<path d="M134.84 18.709L108.726 23.3558L114.7 56.928L140.814 52.2811L134.84 18.709Z" fill="#D2E0FF"/>
<path d="M133.029 22.9796L125.438 24.3296C125.4 24.3358 125.361 24.3268 125.33 24.3045C125.298 24.2821 125.277 24.2484 125.27 24.2104C125.264 24.1725 125.273 24.1336 125.295 24.1023C125.317 24.0709 125.351 24.0494 125.389 24.0426L132.977 22.6914C133.015 22.6854 133.054 22.6944 133.085 22.7166C133.117 22.7387 133.138 22.7723 133.145 22.81C133.151 22.8479 133.143 22.8867 133.121 22.9184C133.099 22.95 133.066 22.972 133.029 22.9796Z" fill="#AEC3FF"/>
<path d="M133.204 23.9688L125.614 25.321C125.576 25.3274 125.537 25.3185 125.505 25.2963C125.474 25.2741 125.453 25.2403 125.446 25.2024C125.44 25.1645 125.449 25.1257 125.471 25.0944C125.493 25.063 125.527 25.0416 125.565 25.0346L133.155 23.6845C133.193 23.6783 133.232 23.6873 133.263 23.7095C133.295 23.7317 133.316 23.7653 133.323 23.8031C133.329 23.8408 133.32 23.8791 133.297 23.91C133.275 23.941 133.242 23.962 133.204 23.9688Z" fill="#AEC3FF"/>
<path d="M133.383 24.9585L125.792 26.3086C125.754 26.3148 125.716 26.3058 125.684 26.2836C125.653 26.2614 125.631 26.2278 125.625 26.19C125.618 26.152 125.627 26.1131 125.649 26.0817C125.672 26.0502 125.705 26.0288 125.743 26.0221L133.327 24.6698C133.365 24.6635 133.404 24.6724 133.435 24.6946C133.467 24.7168 133.488 24.7506 133.495 24.7885C133.502 24.8258 133.494 24.8643 133.473 24.896C133.452 24.9277 133.42 24.9501 133.383 24.9585Z" fill="#AEC3FF"/>
<path d="M129.122 28.7636L123.881 29.6963C123.826 29.7059 123.769 29.6933 123.723 29.6612C123.677 29.6292 123.646 29.5802 123.636 29.5251C123.631 29.4978 123.632 29.4698 123.638 29.4428C123.644 29.4157 123.655 29.3901 123.671 29.3674C123.687 29.3447 123.707 29.3253 123.73 29.3104C123.754 29.2955 123.78 29.2854 123.807 29.2806L129.048 28.3479C129.103 28.3383 129.16 28.3509 129.206 28.383C129.252 28.4151 129.283 28.464 129.293 28.5191C129.298 28.5464 129.297 28.5744 129.291 28.6015C129.285 28.6286 129.274 28.6542 129.258 28.6769C129.242 28.6996 129.222 28.7189 129.199 28.7338C129.175 28.7487 129.149 28.7588 129.122 28.7636Z" fill="#AEC3FF"/>
<path d="M133.843 27.9244L130.619 28.4973C130.564 28.5073 130.508 28.4953 130.462 28.4638C130.416 28.4324 130.385 28.3841 130.375 28.3295C130.365 28.2744 130.377 28.2176 130.409 28.1717C130.441 28.1257 130.49 28.0944 130.545 28.0844L133.768 27.5115C133.823 27.5015 133.88 27.5135 133.926 27.545C133.971 27.5764 134.003 27.6247 134.014 27.6793C134.023 27.7345 134.011 27.7912 133.979 27.8371C133.947 27.8831 133.898 27.9144 133.843 27.9244Z" fill="#AEC3FF"/>
<path d="M132.467 29.5855L124.415 31.0178C124.388 31.0227 124.36 31.0222 124.333 31.0163C124.306 31.0103 124.28 30.9991 124.258 30.9833C124.235 30.9674 124.216 30.9472 124.201 30.9239C124.186 30.9005 124.176 30.8744 124.171 30.8471C124.166 30.8199 124.166 30.7919 124.172 30.7648C124.178 30.7377 124.189 30.712 124.205 30.6892C124.221 30.6665 124.241 30.647 124.265 30.6321C124.288 30.6171 124.314 30.6069 124.341 30.6021L132.393 29.1698C132.42 29.165 132.448 29.1656 132.475 29.1716C132.503 29.1775 132.528 29.1888 132.551 29.2047C132.574 29.2206 132.593 29.2408 132.608 29.2642C132.623 29.2876 132.633 29.3137 132.638 29.341C132.643 29.3683 132.642 29.3962 132.636 29.4233C132.63 29.4504 132.619 29.476 132.603 29.4987C132.587 29.5214 132.567 29.5408 132.544 29.5557C132.52 29.5706 132.494 29.5807 132.467 29.5855Z" fill="#AEC3FF"/>
<path d="M127.299 33.5557L122.058 34.4878C122.003 34.4976 121.946 34.4851 121.901 34.4532C121.855 34.4212 121.823 34.3723 121.813 34.3172C121.804 34.262 121.816 34.2052 121.848 34.1592C121.88 34.1133 121.929 34.082 121.985 34.0721L127.225 33.14C127.28 33.1302 127.337 33.1428 127.383 33.1749C127.429 33.207 127.461 33.256 127.47 33.3112C127.475 33.3385 127.475 33.3665 127.469 33.3936C127.463 33.4206 127.451 33.4462 127.435 33.469C127.42 33.4917 127.399 33.511 127.376 33.5259C127.353 33.5408 127.326 33.5509 127.299 33.5557Z" fill="#AEC3FF"/>
<path d="M132.02 32.7159L128.795 33.2894C128.741 33.2993 128.684 33.2873 128.638 33.2558C128.593 33.2244 128.561 33.1761 128.551 33.1215C128.541 33.0668 128.553 33.0104 128.584 32.9646C128.616 32.9187 128.664 32.887 128.719 32.8765L131.942 32.303C131.997 32.2932 132.054 32.3058 132.1 32.3379C132.146 32.37 132.177 32.419 132.187 32.4742C132.196 32.5282 132.184 32.5837 132.152 32.6288C132.121 32.6739 132.074 32.7051 132.02 32.7159Z" fill="#AEC3FF"/>
<path d="M134.756 33.6575L122.167 35.8955C122.113 35.9055 122.056 35.8934 122.01 35.862C121.964 35.8306 121.933 35.7823 121.922 35.7276C121.912 35.6724 121.925 35.6156 121.957 35.5697C121.989 35.5237 122.038 35.4924 122.093 35.4826L134.682 33.2446C134.709 33.2397 134.737 33.2402 134.764 33.2461C134.791 33.252 134.817 33.2633 134.84 33.2791C134.863 33.295 134.882 33.3151 134.897 33.3385C134.912 33.3619 134.922 33.3879 134.927 33.4153C134.936 33.47 134.923 33.5261 134.891 33.5714C134.859 33.6168 134.81 33.6477 134.756 33.6575Z" fill="#AEC3FF"/>
<path d="M127.767 36.5697L122.529 37.5024C122.474 37.5121 122.417 37.4996 122.371 37.4675C122.325 37.4354 122.294 37.3863 122.284 37.3312C122.279 37.3039 122.279 37.2759 122.285 37.2489C122.291 37.2218 122.303 37.1962 122.318 37.1735C122.334 37.1507 122.354 37.1314 122.378 37.1165C122.401 37.1016 122.427 37.0914 122.454 37.0867L127.696 36.154C127.723 36.1492 127.751 36.1498 127.778 36.1557C127.805 36.1617 127.831 36.173 127.854 36.1889C127.876 36.2048 127.896 36.225 127.911 36.2484C127.925 36.2718 127.936 36.2979 127.94 36.3252C127.945 36.3526 127.945 36.3807 127.939 36.4079C127.933 36.4351 127.921 36.4608 127.905 36.4836C127.889 36.5063 127.869 36.5256 127.845 36.5404C127.821 36.5552 127.795 36.5652 127.767 36.5697Z" fill="#AEC3FF"/>
<path d="M132.696 35.7439L129.473 36.3174C129.418 36.3273 129.362 36.3153 129.316 36.2839C129.27 36.2524 129.238 36.2041 129.228 36.1495C129.218 36.0944 129.231 36.0377 129.263 35.9917C129.295 35.9458 129.344 35.9144 129.399 35.9045L132.623 35.331C132.65 35.3262 132.678 35.3268 132.705 35.3327C132.732 35.3387 132.758 35.35 132.78 35.3659C132.803 35.3818 132.822 35.402 132.837 35.4254C132.852 35.4488 132.862 35.4749 132.867 35.5022C132.876 35.5568 132.863 35.6129 132.831 35.6581C132.799 35.7034 132.751 35.7342 132.696 35.7439Z" fill="#AEC3FF"/>
<path d="M130.763 37.518L122.712 38.9503C122.684 38.9552 122.657 38.9546 122.629 38.9486C122.602 38.9426 122.577 38.9313 122.554 38.9154C122.531 38.8995 122.512 38.8793 122.497 38.8559C122.482 38.8325 122.472 38.8064 122.467 38.7791C122.457 38.7245 122.469 38.6681 122.501 38.6223C122.532 38.5765 122.581 38.545 122.635 38.5346L130.687 37.1023C130.742 37.0925 130.798 37.1046 130.844 37.136C130.89 37.1674 130.921 37.2156 130.932 37.2702C130.937 37.2975 130.937 37.3256 130.931 37.3529C130.926 37.3802 130.915 37.4061 130.899 37.4291C130.884 37.4521 130.863 37.4718 130.84 37.4871C130.817 37.5024 130.791 37.5129 130.763 37.518Z" fill="#AEC3FF"/>
<path d="M120.476 51.6067L115.235 52.5388C115.181 52.5488 115.124 52.5367 115.078 52.5053C115.032 52.4739 115.001 52.4256 114.99 52.3709C114.98 52.3162 114.992 52.2597 115.024 52.2138C115.055 52.1679 115.103 52.1363 115.158 52.1259L120.399 51.1938C120.454 51.1839 120.511 51.196 120.556 51.2274C120.602 51.2588 120.634 51.3071 120.645 51.3616C120.654 51.4164 120.642 51.4728 120.61 51.5186C120.579 51.5644 120.531 51.5961 120.476 51.6067Z" fill="#AEC3FF"/>
<path d="M125.405 50.7809L122.181 51.3544C122.154 51.3592 122.126 51.3586 122.099 51.3526C122.072 51.3466 122.046 51.3353 122.024 51.3194C122.001 51.3035 121.981 51.2833 121.967 51.2599C121.952 51.2366 121.942 51.2105 121.937 51.1832C121.927 51.1285 121.939 51.0721 121.97 51.0263C122.002 50.9805 122.05 50.949 122.105 50.9387L125.328 50.3651C125.356 50.3602 125.384 50.3608 125.411 50.3667C125.438 50.3726 125.463 50.3838 125.486 50.3997C125.509 50.4155 125.528 50.4357 125.543 50.4591C125.558 50.4824 125.568 50.5085 125.573 50.5358C125.583 50.5905 125.571 50.6469 125.539 50.6928C125.508 50.7386 125.46 50.7703 125.405 50.7809Z" fill="#AEC3FF"/>
<path d="M123.472 52.5567L115.421 53.989C115.394 53.994 115.366 53.9934 115.339 53.9875C115.312 53.9816 115.286 53.9704 115.263 53.9546C115.24 53.9387 115.221 53.9185 115.206 53.8952C115.191 53.8718 115.181 53.8457 115.176 53.8184C115.171 53.7911 115.172 53.7631 115.177 53.736C115.183 53.7089 115.195 53.6832 115.21 53.6605C115.226 53.6377 115.246 53.6183 115.27 53.6033C115.293 53.5884 115.319 53.5782 115.347 53.5733L123.398 52.141C123.453 52.1314 123.51 52.144 123.556 52.1761C123.602 52.2082 123.633 52.2571 123.643 52.3122C123.648 52.3395 123.648 52.3675 123.642 52.3946C123.636 52.4216 123.624 52.4473 123.608 52.47C123.592 52.4927 123.572 52.512 123.549 52.5269C123.525 52.5418 123.499 52.5519 123.472 52.5567Z" fill="#AEC3FF"/>
<path d="M116.213 15.8997C116.213 15.8997 117.454 17.2711 117.524 17.901C117.595 18.531 116.965 19.9219 117.268 20.5307C117.362 20.7192 118.787 22.5974 119.226 22.7038C119.521 22.7759 119.948 22.0363 119.525 21.3162C119.097 20.5889 119.012 19.1392 119.081 18.5014C119.199 17.4143 119.97 14.8859 120.11 15.3604L122.51 14.9794L120.235 14.0472L116.213 15.8997Z" fill="#E59365"/>
<path d="M115.446 19.2254C115.446 19.2254 115.233 21.9798 115.446 23.03C115.53 23.4518 115.937 24.808 116.341 24.9546C117.005 25.1963 117.369 24.0286 117.08 22.7608C117.001 22.4134 117.546 20.2733 117.911 19.292C118.816 16.8593 119.365 15.3945 119.365 15.3945L115.446 19.2254Z" fill="#F2A36D"/>
<path d="M135.265 10.354C134.676 10.6992 134.126 11.0254 133.647 11.3169C133.381 11.4792 133.136 11.6291 132.92 11.7645C132.572 11.9838 132.299 12.164 132.126 12.2921C131.685 12.6189 130.96 13.0195 130.426 13.5644H130.422C129.38 14.3013 129.333 15.1702 129.294 15.7006C129.196 17.0165 127.973 18.9524 126.312 20.8888C125.406 21.9457 124.606 23.491 124.33 24.1025C124.24 24.3034 124.07 24.7694 123.875 25.2623C123.604 25.9488 123.282 26.6879 123.054 26.8334C122.988 26.8754 122.877 26.8625 122.748 26.8138C122.42 26.6913 121.973 26.3405 121.842 26.0691C121.451 25.2584 121.756 24.0191 122.505 22.0592C123.22 20.1922 123.116 19.2494 122.841 18.4164C122.661 17.8748 122.4 17.3533 121.6 17.0394C121.347 16.9264 121.086 16.8311 120.82 16.7541C120.433 16.6472 119.946 16.5678 119.444 16.6422C119.265 16.6676 119.089 16.7128 118.92 16.777C118.524 16.9287 118.137 17.2023 117.801 17.6571L117.769 17.6996C117.634 17.874 117.485 18.0371 117.324 18.1875C117.002 18.4924 116.638 18.7677 116.305 19.0458C115.972 19.3239 115.677 19.5975 115.475 19.9113C115.352 20.0943 115.269 20.3006 115.23 20.5173C115.108 21.2323 114.744 21.9384 114.38 22.7217C114.117 23.2879 113.855 23.8966 113.687 24.5753C113.281 26.2124 112.354 26.3847 111.868 25.8912L111.849 25.8722C111.7 25.7116 111.699 24.8254 111.737 24.0259C111.766 23.4289 111.819 22.8822 111.849 22.7261C111.944 22.2405 112.752 20.3326 113.14 18.3621C113.43 16.8901 115.73 14.6924 117.351 11.7908C118.158 10.3473 121.262 9.94952 124.505 8.06738C124.68 7.96668 124.871 7.89954 125.052 7.8089C125.57 7.55601 126.077 7.28335 126.573 6.99092C127.305 6.98655 128.036 7.01998 128.765 7.09107C129.259 7.13881 129.754 7.20278 130.252 7.28297C131.04 7.40979 131.831 7.5754 132.624 7.77981C133.565 8.57332 134.447 9.43363 135.265 10.354Z" fill="#FFB27D"/>
<path d="M133.843 11.5497L133.284 11.9117L133.137 12.0062L130.535 13.6847L130.423 13.5672L125.04 7.82566L125.056 7.81279C125.056 7.81279 127.41 6.13431 127.59 6.11361L127.739 6.0957C128.006 6.31391 128.422 6.67422 128.914 7.10895C130.495 8.50209 132.865 10.6589 133.61 11.3371L133.843 11.5497Z" fill="#9FC1F4"/>
<path d="M137.766 10.0216L134.431 12.4118C134.431 12.4118 133.906 12.2177 133.282 11.9116C133.175 11.859 133.065 11.8031 132.954 11.7438C132.566 11.5449 132.198 11.3084 131.856 11.0377C130.402 9.83925 129.067 8.1658 128.251 7.05128C127.958 6.65125 127.732 6.32394 127.592 6.11469C127.616 6.11133 129.203 4.9308 130.905 3.70886C133.508 5.20159 136.117 7.36796 137.766 10.0216Z" fill="#F99746"/>
<path d="M131.069 12.0868C131.1 12.0356 131.146 11.995 131.201 11.9699C131.256 11.9449 131.317 11.9367 131.376 11.9463C131.435 11.9558 131.49 11.9828 131.534 12.0237C131.578 12.0646 131.609 12.1177 131.623 12.1761C131.637 12.2346 131.633 12.2959 131.612 12.3522C131.591 12.4085 131.554 12.4574 131.505 12.4925C131.457 12.5277 131.398 12.5476 131.338 12.5498C131.278 12.552 131.219 12.5363 131.168 12.5047C131.099 12.4624 131.05 12.3946 131.032 12.3162C131.013 12.2379 131.027 12.1553 131.069 12.0868Z" fill="#2A4E96"/>
<path d="M107.754 23.5374L122.284 20.9531L120.494 28.9913L110.179 31.2853L107.754 23.5374Z" fill="#D2E0FF"/>
<path d="M121.136 27.5725C121.288 28.3297 121.259 29.1121 121.05 29.8558C120.842 30.5995 120.462 31.2835 119.939 31.8521C119.235 32.623 118.302 33.1484 117.278 33.3515C116.983 33.4106 116.683 33.4426 116.383 33.4472C116 33.4541 115.618 33.4146 115.245 33.3297C114.86 33.2449 114.486 33.1134 114.132 32.938C113.913 32.8301 113.702 32.7054 113.502 32.5649C112.843 32.1048 112.307 31.49 111.941 30.7746C111.575 30.0591 111.39 29.2647 111.402 28.4611C111.414 27.6574 111.624 26.869 112.012 26.1651C112.399 25.4611 112.954 24.863 113.627 24.4233C114.299 23.9835 115.07 23.7155 115.87 23.6427C116.671 23.57 117.477 23.6947 118.218 24.0059C118.959 24.3172 119.612 24.8054 120.121 25.4279C120.629 26.0504 120.977 26.7881 121.134 27.5764L121.136 27.5725Z" fill="#8C9DF4"/>
<path d="M120.148 29.1195C119.482 27.5305 118.036 25.6752 117.008 24.8891C116.771 24.7078 116.557 24.5842 116.379 24.5327C116.312 24.513 116.244 24.4974 116.176 24.4863C115.556 24.3783 115.154 24.6429 115.154 24.6429C113.068 24.8108 112.947 27.3073 113.14 28.1196C113.312 28.8548 113.549 29.6303 113.074 30.6933C113.025 30.8052 112.967 30.9171 112.9 31.0374C112.775 31.2569 112.669 31.4872 112.584 31.7256C112.855 32.0421 113.165 32.3229 113.507 32.5609C113.707 32.7013 113.918 32.8261 114.137 32.9341C114.49 33.1094 114.864 33.241 115.25 33.3257C115.623 33.4103 116.004 33.4498 116.387 33.4432C116.255 32.1127 117.252 31.6859 118.057 31.6148C118.594 31.5672 119.046 31.6791 119.015 31.786C119.285 31.8035 119.557 31.7705 119.815 31.6887C120.279 31.5208 120.486 31.165 120.513 30.6916C120.533 30.2491 120.394 29.7019 120.148 29.1195Z" fill="#163560"/>
<path d="M115.247 33.3286C114.862 33.2438 114.488 33.1123 114.135 32.9369C113.915 32.829 113.705 32.7043 113.505 32.5637C113.557 32.3539 113.596 32.1911 113.617 32.1055C113.885 31.0844 114.551 30.6738 114.551 30.6738L115.247 33.3286Z" fill="#FFA561"/>
<path d="M119.939 31.852C119.235 32.6229 118.302 33.1483 117.278 33.3515C116.983 33.4106 116.684 33.4426 116.383 33.4472C116 33.454 115.618 33.4146 115.245 33.3297C114.86 33.2449 114.486 33.1134 114.133 32.938C114.193 32.1711 114.333 31.4126 114.552 30.6749C114.552 30.6749 114.863 30.474 115.485 30.262C116.079 30.0636 116.692 29.928 117.314 29.8575C117.622 29.82 117.956 29.7937 118.316 29.7819L119.811 31.6948L119.939 31.852Z" fill="#FFA561"/>
<path d="M117.309 29.8412C117.105 29.5352 116.923 29.0428 116.8 28.4128L116.712 28.4492L115.236 29.0596C115.236 29.0596 115.367 29.5369 115.46 29.9923V30.0035C115.541 30.399 115.351 30.8494 116.019 30.8802C116.224 30.8892 117.738 30.4852 117.309 29.8412Z" fill="#FFB27D"/>
<path d="M115.236 29.0596C115.236 29.0596 115.367 29.5369 115.46 29.9923C116.315 29.7965 116.613 28.9209 116.712 28.4492L115.236 29.0596Z" fill="#E8945B"/>
<path d="M115.034 29.5486C115.034 29.5486 117.076 29.1765 116.825 27.9087C116.574 26.6409 116.668 25.7385 115.353 25.9225C114.039 26.1066 113.882 26.6409 113.863 27.0846C113.844 27.5283 114.497 29.613 115.034 29.5486Z" fill="#FFB27D"/>
<path d="M114.42 26.0764C114.42 26.0764 115.274 27.4527 116.173 27.502C117.072 27.5512 117.397 27.2479 117.397 27.2479C116.901 26.9618 116.519 26.512 116.318 25.9757C116.318 25.9757 114.699 25.2847 114.42 26.0764Z" fill="#163560"/>
<path d="M114.584 26.1698C114.584 26.1698 114.202 26.4065 114.092 26.7416C113.956 27.1345 113.942 27.5588 114.049 27.9602C114.049 27.9602 113.427 27.0331 113.785 26.3673C114.163 25.6612 114.584 26.1698 114.584 26.1698Z" fill="#163560"/>
<path d="M118.791 32.7786C118.639 32.6745 118.476 32.5639 118.299 32.4468C118.117 32.3254 118.055 31.9992 118.054 31.6176C118.054 30.8232 118.319 29.778 118.319 29.778C118.319 29.778 119.676 29.604 120.51 30.6939C120.544 30.7359 120.575 30.7806 120.606 30.8265C120.617 30.8422 120.626 30.8584 120.638 30.8741C120.446 31.2275 120.211 31.5559 119.939 31.8521C119.606 32.2177 119.219 32.5302 118.791 32.7786Z" fill="#FFA561"/>
<path d="M135.666 43.4627C135.275 42.5492 134.623 41.772 133.791 41.2293C132.959 40.6866 131.985 40.4028 130.992 40.4138C129.999 40.4248 129.031 40.7301 128.211 41.291C127.392 41.852 126.757 42.6434 126.387 43.5653C126.017 44.4871 125.928 45.498 126.133 46.47C126.338 47.442 126.826 48.3315 127.536 49.026C128.246 49.7205 129.146 50.1888 130.123 50.3717C131.099 50.5546 132.108 50.4439 133.021 50.0535C133.629 49.7964 134.18 49.4215 134.643 48.9504C135.105 48.4794 135.47 47.9214 135.716 47.3088C135.961 46.6961 136.084 46.0408 136.075 45.3807C136.066 44.7206 135.927 44.0688 135.666 43.4627ZM132.792 49.5181C131.984 49.863 131.093 49.9607 130.23 49.799C129.367 49.6372 128.571 49.2232 127.944 48.6093C127.316 47.9954 126.885 47.2092 126.704 46.3501C126.523 45.4909 126.601 44.5975 126.928 43.7827C127.255 42.968 127.816 42.2684 128.541 41.7726C129.265 41.2768 130.121 41.0069 130.998 40.9972C131.876 40.9874 132.737 41.2382 133.473 41.7177C134.208 42.1973 134.785 42.8842 135.13 43.6915C135.591 44.7743 135.604 45.996 135.166 47.0884C134.727 48.1808 133.874 49.0546 132.792 49.5181Z" fill="#8C9DF4"/>
<path d="M131.331 47.8737C131.139 47.875 130.952 47.8111 130.801 47.6925L127.546 45.1406C127.458 45.0717 127.384 44.986 127.329 44.8886C127.274 44.7911 127.238 44.6838 127.225 44.5727C127.211 44.4616 127.22 44.3489 127.25 44.241C127.28 44.1332 127.33 44.0323 127.399 43.9441C127.468 43.856 127.554 43.7822 127.651 43.7272C127.749 43.6721 127.856 43.6368 127.967 43.6232C128.078 43.6096 128.191 43.618 128.299 43.648C128.407 43.678 128.508 43.7289 128.596 43.7978L130.993 45.6772L133.545 39.9541C133.591 39.852 133.656 39.7599 133.737 39.683C133.818 39.6061 133.914 39.5459 134.018 39.5059C134.122 39.4659 134.234 39.4468 134.345 39.4498C134.457 39.4528 134.567 39.4778 134.669 39.5233C134.771 39.5688 134.864 39.634 134.94 39.7151C135.017 39.7962 135.077 39.8917 135.117 39.9961C135.158 40.1005 135.177 40.2117 135.174 40.3234C135.171 40.4352 135.146 40.5452 135.1 40.6473L132.104 47.3663C132.038 47.5159 131.929 47.6431 131.792 47.7325C131.655 47.8219 131.495 47.8696 131.331 47.8698V47.8737Z" fill="#F77D48"/>
<g opacity="0.8">
<path opacity="0.8" d="M40.9762 47.5151C40.9762 47.5151 46.3306 44.4837 43.8061 40.4156C43.8061 40.4156 41.7919 37.9197 39.6401 37.2858C39.6401 37.2858 40.8151 43.3642 39.6692 43.513C38.5234 43.6618 38.8501 36.6452 38.8501 36.6452C38.8501 36.6452 33.183 33.9518 30.9652 34.1767C30.9652 34.1767 34.5 40.1012 33.3542 39.963C32.2083 39.8248 28.2438 33.8315 28.2438 33.8315C28.2438 33.8315 22.4413 32.7847 21.5265 36.2245C20.6117 39.6642 22.1229 41.3752 22.9812 41.5861C23.8394 41.797 29.3521 41.698 29.2123 42.4158C29.0724 43.1337 25.3557 44.2946 23.2771 43.6602C23.2771 43.6602 25.5934 49.3043 28.5985 49.0039C31.6035 48.7034 32.525 46.8386 34.3853 46.6865C36.2457 46.5343 37.608 47.0294 36.6793 47.5352C35.7505 48.041 32.6006 47.7182 31.1033 49.0028C29.6061 50.2874 28.3926 51.0807 31.1867 51.6402C33.9808 52.1997 38.9894 51.8187 39.982 49.6669L40.9762 47.5151Z" fill="#AEC3FF"/>
<path opacity="0.8" d="M24.1797 37.2858C24.1797 37.2858 39.2329 42.0835 40.9763 47.5151C40.9763 47.5151 40.9159 49.9489 42.431 52.7335L42.436 53.8072C42.436 53.8072 40.8443 50.1637 39.9832 49.6669C39.9843 49.6669 43.3262 44.9274 24.1797 37.2858Z" fill="#AEC3FF"/>
<path opacity="0.8" d="M42.432 52.7362C42.432 52.7362 44.7662 56.2454 43.4643 60.5362L42.8673 60.3789C42.8673 60.3789 43.4268 55.6568 42.201 53.289C40.9751 50.9212 42.432 52.7362 42.432 52.7362Z" fill="#AEC3FF"/>
</g>
<path d="M51.2017 53.4077C51.2017 53.4077 65.1672 51.3756 70.5882 60.9888C70.5882 60.9888 71.6126 62.8715 69.693 64.3906C67.7733 65.9096 66.2051 61.9847 64.3688 59.8973C62.5326 57.8098 56.5801 53.6108 51.2017 53.4077Z" fill="#D2E0FF"/>
<path d="M53.5012 52.2327C53.5012 52.2327 63.6656 46.9959 70.3521 52.9327C70.3521 52.9327 71.6333 54.1076 70.5636 55.7744C69.4938 57.4411 67.257 54.8484 65.3004 53.735C63.3439 52.6216 57.6751 50.9711 53.5012 52.2327Z" fill="#D2E0FF"/>
<path d="M143.118 65.2757C142.339 65.5767 137.171 66.1502 137.388 66.8037C137.605 67.4572 141.223 68.0967 143.091 67.2513C143.091 67.2513 142.395 69.8529 141.044 71.5225L134.071 71.5555C133.745 71.4536 133.404 71.4084 133.063 71.4218C132.674 71.4384 132.287 71.4864 131.905 71.5655L128.52 71.5818L124.782 71.5991C123.568 70.54 122.493 68.8895 123.496 66.689C123.496 66.689 125.081 64.1108 127.016 63.2582C127.016 63.2582 126.651 69.0875 127.74 69.0887C128.829 69.0898 127.678 62.5638 127.678 62.5638C127.678 62.5638 132.658 59.3602 134.759 59.3036C134.759 59.3036 132.166 65.2729 133.221 65.006C134.276 64.7391 137.264 58.6524 137.264 58.6524C137.264 58.6524 142.568 56.9739 143.838 60.0819C145.108 63.1899 143.901 64.9752 143.118 65.2757Z" fill="#D2E0FF"/>
<path d="M141.476 61.3989C133.117 66.0517 129.766 69.3913 128.519 71.5817L127.523 71.5862C130.194 66.7102 141.194 61.531 141.476 61.3989Z" fill="#D2E0FF"/>
<path d="M56.3354 27.8841C56.3354 27.8841 58.0095 24.7459 62.049 25.0749C62.049 25.0749 67.8873 19.8302 74.1593 24.3235C74.1593 24.3235 80.7994 23.172 85.7302 25.2399C89.0178 26.6185 90.1088 28.0754 90.1088 28.0754L56.3354 27.8841Z" fill="#F8FCFF"/>
<path d="M73.9243 18.4146C73.9243 18.4146 75.2111 16.0032 78.3197 16.2561C78.3197 16.2561 82.8113 12.2278 87.6364 15.6782C87.6364 15.6782 92.7446 14.7936 96.5379 16.3826C99.0668 17.4417 99.9061 18.5612 99.9061 18.5612L73.9243 18.4146Z" fill="#F8FCFF"/>
<path d="M68.5336 71.6136L55.8482 49.8745L55.3731 49.0593L49.4537 52.9198L51.3448 56.1884L60.3034 71.6522L60.3985 71.81L68.6287 71.7708L68.5336 71.6136ZM58.7519 34.4028L45.9082 54.2033L42.9988 58.6904L44.0618 66.4299L45.9535 63.7712L51.3504 56.1895L55.8538 49.8745L66.8931 34.363L58.7519 34.4028ZM45.9479 63.7712L45.9082 54.2038L45.8131 34.4665L38.7634 34.4984L38.9374 71.7485V71.9068L45.9871 71.8755V71.7171L45.9479 63.7712Z" fill="#6980E2"/>
<path d="M116.374 59.5291C115.987 61.2468 115.267 62.5761 114.206 63.5015C113.146 64.4269 111.848 64.9003 110.305 64.9098C108.31 64.9176 106.773 64.3242 105.691 63.1295C104.599 61.9359 104.05 60.2423 104.045 58.0487L103.997 47.7764C103.982 45.5843 104.52 43.875 105.596 42.6643C106.672 41.4535 108.2 40.8364 110.194 40.828C111.201 40.8202 112.117 41.0518 112.932 41.5089C113.747 41.966 114.443 42.6324 115.014 43.4951C115.585 44.3579 116.021 45.4181 116.311 46.6686L123.624 46.6288C123.149 43.906 122.302 41.582 121.083 39.657C119.864 37.732 118.329 36.2679 116.477 35.265C114.634 34.2674 112.521 33.7689 110.155 33.7773C107.29 33.7929 104.852 34.3547 102.843 35.4625C100.832 36.5632 99.3032 38.1592 98.2547 40.2506C97.1916 42.3398 96.6802 44.8642 96.6881 47.8161L96.7351 58.0806C96.7511 61.0481 97.2946 63.5674 98.3654 65.6382C99.4419 67.7033 100.985 69.2783 103.009 70.3626C103.872 70.8214 104.656 71.3137 105.677 71.5694C106.358 71.7513 107.235 71.7552 107.995 71.8346L112.427 71.8106C113.895 71.6187 115.318 71.1687 116.629 70.4812C118.465 69.4999 119.976 68.0832 121.179 66.224C122.382 64.3648 123.213 62.124 123.68 59.4972L116.374 59.5291Z" fill="#6980E2"/>
<path d="M97.7515 34.2204L90.3662 34.2601L83.2835 50.3965L76.0599 34.3239L68.6746 34.3552L79.7934 57.2817L79.8566 71.5583V71.7166L86.9063 71.6848V71.5264L86.843 57.2498L97.7515 34.2204Z" fill="#6980E2"/>
<path d="M41.7841 16.9896C41.7841 16.9896 40.4889 16.7764 39.6715 17.4003C38.854 18.0241 38.7203 17.8244 38.2599 18.2093C37.7994 18.5942 38.2744 19.0485 38.0204 19.3048C37.7664 19.561 37.7585 20.0534 38.1379 20.1793C38.5172 20.3052 38.2655 20.9995 39.089 21.0868C39.9126 21.1741 39.5439 21.5556 40.3199 21.6099C41.096 21.6642 41.7427 21.6877 42.154 21.8578C42.5652 22.0279 42.9373 21.8488 43.0492 21.5361C43.1611 21.2233 43.4968 21.6245 43.5885 21.1964C43.6803 20.7684 43.3395 20.6023 43.5326 20.2548C43.7256 19.9074 44.1844 17.4434 41.7841 16.9896Z" fill="#233862"/>
<path d="M44.1384 41.8228C44.0976 41.8687 44.0708 41.9254 44.0614 41.9862C44.052 42.0469 44.0603 42.1091 44.0853 42.1652C44.1709 42.3924 44.4461 42.6436 44.7656 42.8926C44.8065 42.9245 44.8428 42.9541 44.8775 42.981L44.9016 43.0022L44.9206 43.019C45.2188 43.2876 45.1086 43.3513 45.6479 43.8974C46.26 44.5196 46.6763 44.5257 46.7943 44.467C46.8939 44.4172 46.6864 44.086 46.4586 43.7133L46.4251 43.6574C46.3943 43.6082 46.3641 43.5578 46.3333 43.508C46.0636 43.0604 46.1291 42.8467 46.1839 42.1742C46.2287 41.6281 46.998 39.1143 46.998 39.1143L45.8365 38.9285C45.8365 38.9285 45.5109 40.9265 45.1298 41.2381C44.9262 41.406 44.6962 41.4088 44.4999 41.5324L44.459 41.5587C44.3406 41.6318 44.2328 41.7206 44.1384 41.8228Z" fill="#FFB27D"/>
<path d="M44.1384 41.8228C44.0976 41.8687 44.0708 41.9255 44.0614 41.9862C44.052 42.0469 44.0603 42.1091 44.0853 42.1652C44.1893 42.3918 44.4579 42.6419 44.7667 42.8926C44.807 42.925 44.8428 42.9552 44.8747 42.9832L44.8988 43.0045L44.9178 43.0212C45.216 43.2898 45.1058 43.3536 45.6451 43.8997C46.2572 44.5218 46.6735 44.528 46.7915 44.4692C46.8911 44.4194 46.6836 44.0882 46.4558 43.7156C46.0305 43.555 45.6553 43.2848 45.3682 42.9323C45.0124 42.4886 44.7673 41.9207 44.5245 41.5733L44.4562 41.561C44.339 41.6335 44.2321 41.7216 44.1384 41.8228Z" fill="#233862"/>
<path d="M53.4744 40.9897C53.5505 41.3461 54.0596 41.2807 54.6275 41.1346C55.1954 40.9886 55.0622 41.1559 55.8718 41.0569C56.6814 40.9578 56.9236 40.6524 56.9471 40.5315C56.9678 40.4246 56.5667 40.3911 56.1364 40.3469L55.9736 40.3295C55.488 40.2736 55.1288 39.9653 54.6868 39.7141C54.2666 39.4757 53.6321 38.4905 53.6321 38.4905L52.521 38.5917C52.521 38.5917 53.1152 39.4713 53.3451 39.854C53.4805 40.0778 53.4772 40.3788 53.4632 40.6104C53.45 40.7368 53.4537 40.8643 53.4744 40.9897Z" fill="#FFB27D"/>
<path d="M54.6275 41.1346C55.1959 40.9891 55.0622 41.1559 55.8718 41.0568C56.6814 40.9578 56.9236 40.6523 56.9471 40.5315C56.9678 40.4246 56.5667 40.3911 56.1364 40.3469L56.1325 40.3552C55.7879 40.5821 55.3883 40.7114 54.9761 40.7295C54.4261 40.7491 53.8414 40.5986 53.4615 40.6093C53.4487 40.7361 53.4531 40.864 53.4744 40.9897C53.5505 41.3461 54.0596 41.2806 54.6275 41.1346Z" fill="#233862"/>
<path d="M49.1304 33.9294L48.1233 36.7387L46.809 40.4067C46.567 40.428 46.3231 40.4091 46.0873 40.3508C45.7617 40.2607 45.3862 40.0195 45.3862 40.0195C45.3862 40.0195 45.7175 36.0936 46.3933 33.8343C46.5668 33.2547 46.7632 32.7847 46.9825 32.5195C48.0601 31.217 49.1304 33.9294 49.1304 33.9294Z" fill="#ED7D2B"/>
<path d="M48.0215 29.4999C47.4279 29.3158 45.9044 29.3645 44.2337 29.6873C43.7716 29.7763 43.2826 29.7276 43.0359 29.3287L38.8178 29.049C38.8178 29.049 37.5114 31.9757 38.2477 34.1051C38.3904 34.5186 39.0657 34.5298 39.0657 34.5303C39.0657 34.5309 41.5364 34.5454 42.351 34.5359C44.4464 34.5119 46.771 33.0437 47.0715 32.9794C47.5655 32.8748 47.7753 33.8634 48.2828 34.8979C48.7903 35.9324 52.9932 39.4505 52.9932 39.4505C52.9932 39.4505 53.6327 39.4505 53.8962 39.347C54.176 39.2351 54.2811 39.0975 54.2811 39.0975C54.2811 39.0975 49.5629 29.9772 48.0215 29.4999Z" fill="#F99746"/>
<path d="M41.6773 22.8363C41.6841 22.8408 40.9422 23.1038 40.4414 22.8889C39.9703 22.6875 39.6061 21.9204 39.6134 21.9199C39.8266 21.9076 40.061 21.7184 40.2244 20.4937L40.315 20.525L41.848 21.0566C41.848 21.0566 41.7428 21.5472 41.6768 22.0144C41.6214 22.4066 41.5934 22.782 41.6773 22.8363Z" fill="#FFB27D"/>
<path d="M41.8497 21.0566C41.8497 21.0566 41.7859 21.4007 41.6975 21.8925C40.8191 21.7448 40.4459 20.9973 40.3167 20.5251L41.8497 21.0566Z" fill="#ED975D"/>
<path d="M42.0807 21.54C42.0807 21.54 39.9893 21.2843 40.1689 19.984C40.3485 18.6838 40.1991 17.7757 41.5419 17.8837C42.8847 17.9917 43.0755 18.5243 43.1208 18.9725C43.1661 19.4206 42.6295 21.5725 42.0807 21.54Z" fill="#FFB27D"/>
<path d="M43.0363 18.2619C43.0363 18.2619 41.7131 19.4296 40.8051 19.5331C39.897 19.6366 39.5496 19.349 39.5496 19.349C39.9087 19.0194 40.1962 18.6194 40.3944 18.1741C40.4395 18.0694 40.5117 17.9787 40.6035 17.9114C40.6954 17.844 40.8036 17.8024 40.917 17.7908C41.5654 17.7293 42.7958 17.689 43.0363 18.2619Z" fill="#233862"/>
<path d="M42.2 18.1685C42.2 18.1685 42.652 18.5959 42.7969 18.9148C42.9362 19.2226 42.9855 19.9628 42.8809 20.2576C42.8809 20.2576 43.5618 18.8947 43.1606 18.2434C42.7331 17.548 42.2 18.1685 42.2 18.1685Z" fill="#233862"/>
<path d="M43.4722 25.8923C43.4588 30.1199 43.4941 29.2359 43.0364 29.6409C42.9245 29.7388 42.6134 29.7998 42.2016 29.8323C40.9064 29.933 38.6253 29.7461 38.5358 29.5078C38.2275 28.6825 38.4356 28.4223 38.171 27.1579C38.1436 27.0231 38.1095 26.8781 38.0703 26.7187C37.8521 25.8498 37.6462 25.5555 38.3674 24.145C39.022 22.8688 39.7051 21.8315 39.7661 21.8679C41.5437 22.8951 41.6757 22.0128 41.6757 22.0128C41.6757 22.0128 43.4784 23.83 43.4722 25.8923Z" fill="#8C9DF4"/>
<path d="M48.1233 36.7387L46.809 40.4067C46.567 40.4281 46.3231 40.4092 46.0873 40.3508C45.7617 40.2607 45.3862 40.0196 45.3862 40.0196C45.3862 40.0196 45.7175 36.0936 46.3933 33.8344L48.1233 36.7387Z" fill="#F99746"/>
<path d="M41.6768 22.0144C41.6768 22.0144 43.4968 22.2997 43.7195 23.083L45.2508 28.4458C45.2508 28.4458 44.3293 28.6226 43.898 28.2008C43.4666 27.7789 42.3672 24.258 42.3672 24.258L41.6768 22.0144Z" fill="#8C9DF4"/>
<path d="M42.201 29.8339C40.9058 29.9346 38.6247 29.7477 38.5352 29.5094C38.2269 28.6842 38.435 28.424 38.1704 27.1595L38.7752 25.3915C38.7752 25.3915 38.6947 27.3531 39.2788 27.8617C39.8629 28.3703 41.6577 28.8296 41.9436 29.2571C42.0672 29.4301 42.1548 29.6263 42.201 29.8339Z" fill="#6980E2"/>
<path d="M40.7061 29.0266C40.7061 29.0266 41.9817 28.7267 42.1893 28.838C42.3968 28.9494 42.906 29.3561 42.9726 29.4994C43.0391 29.6426 42.5121 29.3958 42.3415 29.3522C42.2296 29.3237 41.9425 29.4277 41.7999 29.4775C41.1984 29.6857 40.8275 29.5894 40.8275 29.5894L40.7061 29.0266Z" fill="#FFB27D"/>
<path d="M39.7661 21.869C39.7661 21.869 38.0501 21.9948 37.4654 22.8307C36.6424 24.0057 35.0411 29.0003 36.0001 29.6526C37.0799 30.3873 40.8778 29.7908 40.8778 29.7908C40.8778 29.7908 40.9975 29.1978 40.8179 28.9135C40.6383 28.6293 37.7709 28.2008 37.6372 28.0698C37.5035 27.9389 39.2597 25.4743 39.2536 25.0782C39.2474 24.6821 39.7661 21.869 39.7661 21.869Z" fill="#8C9DF4"/>
<path d="M42.2554 29.1933C42.2554 29.1933 42.5273 29.5357 42.6157 29.576C42.6602 29.5995 42.7105 29.6096 42.7606 29.6051L42.5771 29.2823L42.2554 29.1933Z" fill="#FFB27D"/>
<path d="M42.1892 28.838L42.9725 29.2073C42.9575 29.2262 42.9377 29.241 42.9153 29.25C42.8928 29.259 42.8684 29.262 42.8444 29.2587C42.7288 29.2398 42.6153 29.21 42.5053 29.1698L42.1892 28.838Z" fill="#FFB27D"/>
<path d="M42.4517 29.8597L48.6134 29.7875L50.4133 25.1566L44.2611 25.2282L42.4517 29.8597Z" fill="#233862"/>
<path d="M48.6839 29.6074L40.5466 29.7025L40.5489 29.8821L48.6134 29.7875L48.6839 29.6074Z" fill="#233862"/>
<path d="M47.0311 27.5031C47.0758 27.3403 46.9807 27.2099 46.8185 27.2122C46.7332 27.2179 46.6517 27.2494 46.5848 27.3026C46.518 27.3557 46.4689 27.428 46.4442 27.5098C46.4 27.6721 46.4951 27.8024 46.6568 27.8008C46.742 27.7949 46.8234 27.7633 46.8903 27.7102C46.9571 27.657 47.0062 27.5848 47.0311 27.5031Z" fill="#EBF3FA"/>
<path d="M103.292 71.4861C103.292 71.4861 103.292 70.8656 103.387 70.6586C103.481 70.4516 103.839 69.6101 103.839 69.6101L105.245 69.6039C105.245 69.6039 105.51 70.3688 105.527 70.6194C105.545 70.8701 105.531 71.4755 105.531 71.4755L103.292 71.4861Z" fill="#1B3051"/>
<path d="M111.339 71.4542C111.339 71.4542 111.336 70.8337 111.247 70.6278C111.157 70.4219 110.829 69.5838 110.829 69.5838L109.562 69.5894C109.562 69.5894 109.33 70.357 109.316 70.6077C109.303 70.8583 109.32 71.4637 109.32 71.4637L111.339 71.4542Z" fill="#1B3051"/>
<path d="M106.1 36.6542C106.1 36.6542 106.062 38.0362 105.888 38.6561L104.493 39.6385L109.765 40.4028L108.501 38.6723C108.501 38.6723 108.112 36.822 108.308 36.1355C108.504 35.449 106.1 36.6542 106.1 36.6542Z" fill="#FFB27D"/>
<path d="M106.094 36.8467C106.094 36.8467 106.515 37.8476 107.299 37.8219C108.084 37.7961 108.258 36.9082 108.258 36.9082L106.094 36.8467Z" fill="#ED985F"/>
<path d="M105.621 36.0354C105.621 36.0354 105.362 34.7715 105.183 34.3893C105.005 34.0072 104.849 32.2979 106.807 32.2028C106.807 32.2028 107.559 32.2879 107.97 32.035C107.97 32.035 107.97 32.2851 107.869 32.374C108.09 32.3341 108.317 32.352 108.529 32.4259C108.741 32.4998 108.931 32.6273 109.079 32.7959C109.612 33.3828 108.738 35.4501 108.784 35.9363L105.621 36.0354Z" fill="#2C3A64"/>
<path d="M107.208 37.433C106.639 37.4257 105.589 36.6738 105.585 35.736L105.576 34.273C105.576 33.9306 105.812 33.6497 106.104 33.648L108.273 33.6379C108.565 33.6379 108.805 33.9177 108.807 34.2579L108.813 35.6381C108.821 36.6229 107.86 37.442 107.208 37.433Z" fill="#FFB27D"/>
<path d="M105.582 35.0563C105.582 35.0563 105.582 34.1773 106.276 34.0391C106.97 33.9009 108.532 34.4571 108.751 33.8153C108.969 33.1736 105.736 33.1999 105.574 33.6094C105.413 34.019 105.582 35.0563 105.582 35.0563Z" fill="#2C3A64"/>
<path d="M103.352 50.0043C103.352 50.0043 103.605 56.7742 103.291 60.6391C102.978 64.5041 103.337 69.8786 103.337 69.8786C103.337 69.8786 104.4 70.4583 105.546 69.8686C105.546 69.8686 106.772 62.3993 106.756 60.6229C106.739 58.7313 108.08 50.2779 108.08 50.2779L103.352 50.0043Z" fill="#2B478B"/>
<path d="M111.286 69.8418C111.286 69.8418 110.228 70.4315 109.076 69.8519C109.076 69.8519 107.781 62.3943 107.781 60.6202C107.781 59.8218 107.528 57.854 107.235 55.8482C106.834 53.1067 106.361 50.288 106.361 50.288L111.27 49.9584C111.27 49.9584 110.896 56.7429 111.246 60.6045C111.595 64.4662 111.286 69.8418 111.286 69.8418Z" fill="#2B478B"/>
<path d="M107.781 60.6179C107.781 59.8195 107.528 57.8518 107.235 55.846C107.523 54.6459 108.234 53.4883 108.234 53.4883C109.152 56.0261 107.781 60.6179 107.781 60.6179Z" fill="#233862"/>
<path d="M115.535 45.0455C113.805 40.875 110.731 38.7355 108.502 38.6723C108.016 39.3241 107.666 39.4768 107.22 39.6553C106.5 39.5591 105.89 38.6762 105.89 38.6561C105.107 38.74 101.573 39.1535 99.1963 44.9851C99.0111 45.4399 98.9797 46.5192 99.838 47.5783C100.448 48.332 101.405 49.3128 102.884 50.4653C102.993 50.2118 103.081 49.9498 103.147 49.682C103.147 49.682 102.262 47.98 101.729 46.8286C101.47 46.2691 101.17 45.6251 103.088 44.3042C103.143 45.7695 103.386 47.505 103.205 49.0744C102.964 51.168 103.389 51.1289 103.389 51.1289C103.389 51.1289 103.96 51.2408 104.757 51.3404C105.573 51.4513 106.395 51.5102 107.219 51.5166C109.128 51.5077 111.22 51.0925 111.22 51.0925C111.449 51.0925 111.536 50.575 111.551 49.8057C111.611 50.0158 111.686 50.2214 111.775 50.4211C113.244 49.2557 114.191 48.2654 114.796 47.5067C115.639 46.442 115.721 45.4987 115.535 45.0455ZM112.894 46.7799C112.469 47.787 111.739 49.1796 111.551 49.5528C111.551 48.2995 111.394 46.5315 111.323 45.2201C111.299 44.7887 111.275 44.3875 111.249 44.0132C112.421 44.9476 113.496 45.351 112.892 46.7783L112.894 46.7799Z" fill="#F9DDBF"/>
<path d="M105.96 38.3187C105.96 38.3187 105.601 38.4367 105.536 38.7019C105.536 38.7019 106.604 39.6436 107.218 39.6531L105.96 38.3187Z" fill="#F99746"/>
<path d="M107.218 39.6553L108.423 38.2566C108.423 38.2566 108.799 38.42 108.797 38.6908C108.797 38.693 107.739 39.69 107.218 39.6553Z" fill="#F99746"/>
<path d="M107 39.554C107 39.554 106.112 47.538 106.44 48.5093C106.587 48.938 106.778 49.3505 107.01 49.7402C107.039 49.7897 107.08 49.8307 107.13 49.8591C107.18 49.8875 107.237 49.9022 107.294 49.9018C107.352 49.9014 107.408 49.8859 107.457 49.8568C107.507 49.8278 107.548 49.7862 107.576 49.7363C107.82 49.3088 108.136 48.6906 108.136 48.3778C108.136 47.8709 107.393 39.5428 107.393 39.5428L107 39.554Z" fill="#F99746"/>
<path d="M106.756 39.1641C106.756 39.1641 107.315 39.1081 107.654 39.1383C107.67 39.1399 107.685 39.1452 107.698 39.154C107.711 39.1628 107.721 39.1746 107.728 39.1885C107.736 39.2024 107.739 39.2179 107.739 39.2336C107.739 39.2492 107.735 39.2646 107.727 39.2782C107.632 39.45 107.439 39.7482 107.236 39.7493C106.95 39.7504 106.502 39.1848 106.756 39.1641Z" fill="#F99746"/>
<path d="M106.751 36.493C106.81 36.5653 106.884 36.6234 106.969 36.6631C107.053 36.7027 107.145 36.7228 107.238 36.7219C107.327 36.7203 107.414 36.6984 107.492 36.6579C107.571 36.6175 107.639 36.5596 107.692 36.4886C107.692 36.4886 107.169 36.4058 106.751 36.493Z" fill="white"/>
<path d="M102.97 49.7709C102.97 49.7709 103.652 49.1505 104.089 49.4414C104.552 49.7491 104.761 50.2051 104.501 50.2381C104.241 50.2711 103.459 50.1822 103.386 50.2997C103.313 50.4172 102.984 50.6443 102.883 50.4675C102.781 50.2907 102.97 49.7709 102.97 49.7709Z" fill="#FFB27D"/>
<path d="M103.145 49.6848C103.079 49.9526 102.991 50.2146 102.883 50.4681C101.402 49.3161 100.447 48.3348 99.8362 47.5811C100.294 47.5453 100.961 47.3786 101.727 46.8331C102.26 47.9806 103.145 49.6848 103.145 49.6848Z" fill="#FFB27D"/>
<path d="M111.675 49.7296C111.675 49.7296 111.088 49.1919 110.578 49.5556C110.293 49.7587 110.095 50.293 110.345 50.2477C110.596 50.2023 111.19 50.1442 111.264 50.2616C111.339 50.3791 111.609 50.552 111.768 50.4239C111.966 50.2672 111.675 49.7296 111.675 49.7296Z" fill="#FFB27D"/>
<path d="M111.5 49.6462C111.569 49.9124 111.66 50.1725 111.771 50.424C113.24 49.2585 114.186 48.2682 114.792 47.5095C114.334 47.4771 113.666 47.3171 112.894 46.7783C112.369 47.9359 111.5 49.6462 111.5 49.6462Z" fill="#FFB27D"/>
<path d="M72.3506 36.2665C71.631 36.0309 71.1353 36.3347 71.1353 36.3347C69.0652 36.4293 68.8643 38.8916 69.0255 39.7006C69.1866 40.5097 69.4227 41.369 68.6898 42.5753C66.5749 46.0587 72.0764 45.2945 72.0764 45.2945C71.7222 42.8467 74.7939 43.2568 74.706 43.5253C78.604 43.8101 73.9865 36.8013 72.3506 36.2665Z" fill="#163560"/>
<path d="M70.2547 46.8509C70.0983 47.1472 69.9146 47.4281 69.7059 47.6902C69.279 48.2301 67.0203 46.9628 67.2122 46.8655C67.4041 46.7681 68.5237 43.4985 68.7917 43.0872C69.0597 42.676 69.9778 42.4589 69.9778 42.4589L70.2547 46.8509Z" fill="#F9DDBF"/>
<path d="M77.9646 68.8274C77.9646 68.8274 78.5895 69.3925 78.4681 69.7964C78.3467 70.2004 77.7883 70.4723 77.7145 70.9658C77.6406 71.4592 77.3385 71.7295 77.0654 71.7306L75.7629 71.7368C75.7629 71.7368 75.5604 71.391 76.0427 71.2841C76.525 71.1773 76.7085 70.5965 76.6755 70.0588C76.6424 69.5212 76.7152 68.8033 76.7152 68.8033L77.7458 68.5594L77.9646 68.8274Z" fill="#2B478B"/>
<path d="M72.699 69.0931C72.699 69.0931 72.934 71.499 72.6615 71.6333L69.1658 71.6422C69.1658 71.6422 69.1658 71.2388 69.7253 71.1465C70.2848 71.0542 71.2717 70.7213 71.4351 69.9878C71.5985 69.2543 72.699 69.0931 72.699 69.0931Z" fill="#2B478B"/>
<path d="M75.1105 51.8232C74.3831 50.213 73.9411 49.753 74.0228 49.2495C74.0838 48.8763 73.799 42.3011 73.799 42.3011C73.7134 42.2748 73.5422 42.2519 73.4482 42.2318C73.3028 42.2013 73.1675 42.1345 73.055 42.0375C72.9425 41.9406 72.8564 41.8166 72.8048 41.6773C72.6806 41.3349 72.581 40.8291 72.581 40.1946L72.4887 40.2131L70.9406 40.527C70.9406 40.527 70.9786 41.0149 70.9814 41.4742V41.4854C70.9836 41.6795 70.9224 41.869 70.8071 42.0251C70.6918 42.1812 70.5286 42.2954 70.3425 42.3504L69.9771 42.4567C69.9771 42.4567 69.4176 44.0837 69.3147 45.7532C69.2118 47.4227 70.3604 48.1423 69.3326 51.4819C68.2841 54.8942 75.5122 52.7128 75.1105 51.8232Z" fill="#FFB27D"/>
<path d="M70.9434 40.5287C70.9434 40.5287 70.9814 41.0165 70.9842 41.4759C71.8514 41.4474 72.3057 40.654 72.4915 40.2148L70.9434 40.5287Z" fill="#E8945B"/>
<path d="M70.8516 41.1771C70.8516 41.1771 72.8814 40.8783 72.6761 39.6172C72.4707 38.3561 72.5938 37.4676 71.2891 37.603C69.9844 37.7384 69.8115 38.2627 69.7785 38.7002C69.7455 39.1377 70.3178 41.2224 70.8516 41.1771Z" fill="#FFB27D"/>
<path d="M70.3621 37.7256C70.3621 37.7256 71.1593 39.1142 72.0456 39.1931C72.9318 39.272 73.2636 38.9839 73.2636 38.9839C72.7835 38.6842 72.4226 38.2269 72.2425 37.6903C72.2425 37.6903 70.6636 36.9529 70.3621 37.7256Z" fill="#163560"/>
<path d="M70.5192 37.8229C70.5192 37.8229 70.1332 38.0467 70.0157 38.3718C69.8687 38.7553 69.8395 39.1739 69.9318 39.5742C69.9318 39.5742 69.3493 38.637 69.7253 37.9914C70.1214 37.3065 70.5192 37.8229 70.5192 37.8229Z" fill="#163560"/>
<path d="M75.2777 45.205C75.3114 45.743 75.3141 46.2825 75.2856 46.8208C75.2537 47.4054 74.6662 48.1904 74.5834 48.3874C74.3753 48.8741 74.1358 48.9541 74.1358 48.9541L72.3023 49.4123L71.6578 49.5735L69.6196 48.9748C69.6196 48.9748 68.6807 46.3916 69.0461 44.9336C69.2571 44.0757 69.5691 43.2457 69.9754 42.4612C69.9754 42.4612 71.6438 44.0793 73.7984 42.3057L75.2777 45.205Z" fill="#F9DDBF"/>
<path d="M75.4602 46.8403C75.4283 47.425 74.6663 48.1904 74.5835 48.3845C74.3754 48.8713 74.1359 48.9513 74.1359 48.9513L72.3025 49.4095L71.8096 48.7214C71.8096 48.7214 74.7749 47.8821 74.2025 45.2637L75.4602 46.8403Z" fill="#F2CCAA"/>
<path d="M69.7534 49.3642C69.7534 49.3642 68.7614 52.5064 68.6998 53.5755C68.6383 54.6447 70.6972 68.7379 70.7795 69.2325C70.8573 69.6963 71.4347 69.9889 71.4347 69.9889C71.6352 70.0864 71.8655 70.1032 72.0781 70.0359C72.6018 69.8854 72.7668 69.7069 72.7668 69.7069C72.7668 69.7069 73.5048 59.6433 73.0029 56.0519C72.6969 53.831 72.5224 51.594 72.4803 49.3525L69.7534 49.3642Z" fill="#ED7D2B"/>
<path d="M74.0205 49.2512C74.0205 49.2512 75.5681 51.3068 75.7175 52.7005C75.8669 54.0942 75.9715 58.9926 76.2831 60.3505C76.5948 61.7084 77.7289 64.3196 77.7485 68.5594C77.7485 68.5594 77.6332 68.8033 77.274 68.9343C77.1366 68.9813 76.9967 69.0207 76.855 69.0523C76.7108 69.0859 76.5595 69.07 76.4255 69.007C76.2915 68.9441 76.1826 68.8379 76.1164 68.7054C75.3505 67.1819 72.9116 62.2673 72.7829 61.2457C72.6923 60.5223 71.9068 55.7369 70.2299 52.9349C69.8271 52.2635 70.4593 49.578 70.4593 49.578L74.0205 49.2512Z" fill="#F99746"/>
<path d="M71.1242 40.3636C71.1242 40.3636 71.1136 40.518 70.7404 40.5555C70.7404 40.5555 70.4265 40.5874 70.4092 40.4224C70.4092 40.4224 70.6912 40.2595 71.1242 40.3636Z" fill="white"/>
<path d="M69.59 48.8808C69.59 48.8808 69.9962 49.1992 70.8001 49.2115C71.7602 49.226 74.1381 48.9513 74.1381 48.9513C74.2043 49.1468 74.2394 49.3514 74.2421 49.5578C74.2421 49.5578 71.3401 50.3042 69.6543 49.6859C69.6565 49.6859 69.4327 49.2786 69.59 48.8808Z" fill="#ED7D2B"/>
<path d="M70.5736 50.0401C70.3319 50.0401 70.1344 49.8196 70.1333 49.5461C70.1322 49.2725 70.3275 49.0492 70.5692 49.0481C70.8109 49.047 71.0078 49.2685 71.0095 49.5421C71.0112 49.8157 70.8153 50.039 70.5736 50.0401ZM70.5697 49.1936C70.408 49.1936 70.2777 49.3519 70.2782 49.5455C70.2788 49.7391 70.4114 49.8952 70.5731 49.8946C70.7348 49.8941 70.8651 49.7363 70.864 49.5427C70.8629 49.3491 70.7308 49.1925 70.5697 49.1936Z" fill="white"/>
<path d="M72.6766 50.9319L68.3097 50.9929L66.1372 45.9524L70.5041 45.8914L72.6766 50.9319Z" fill="#163560"/>
<path d="M72.0947 48.652L71.773 48.2603C71.773 48.2603 71.5553 48.0684 71.3981 48.0365C71.2409 48.0046 70.908 47.8127 70.8761 47.8687C70.8442 47.9246 71.1329 48.3062 71.1329 48.3062H71.1475C70.8191 48.5557 69.9854 48.3409 69.8836 48.4422C69.7594 48.5652 70.0565 48.8293 70.2159 48.977C70.3754 49.1247 70.8314 49.3715 71.1844 49.2596C71.4429 49.1779 71.8496 49.0917 71.8496 49.0917L72.0947 48.652Z" fill="#FFB27D"/>
<path d="M66.4675 46.8398C66.4675 46.8398 66.7405 46.5265 66.9151 46.6753C67.0896 46.8241 66.8731 47.5616 66.7064 47.4871C66.5397 47.4127 66.3746 46.9315 66.4675 46.8398Z" fill="#FFB27D"/>
<path d="M73.8007 42.3029C73.8007 42.3029 75.2554 42.398 75.8216 43.7525C76.3878 45.107 77.4352 47.9957 77.4369 48.379C77.4386 48.7622 76.3022 50.1777 71.8251 49.1063C71.8251 49.1063 71.6707 48.6777 71.9689 48.4595C71.9689 48.4595 75.0814 47.444 75.0753 47.2449C75.0635 46.8683 74.6512 46.5449 72.9016 44.8111C72.426 44.3439 73.8007 42.3029 73.8007 42.3029Z" fill="#F9DDBF"/>
<path d="M48.755 71.862L54.9576 71.8335C55.2888 71.5498 54.7232 70.912 54.1357 70.8717C53.88 70.8538 53.5577 70.9087 53.1896 70.9881C53.0989 69.8546 52.5876 64.7604 50.7513 64.9741C48.6868 65.2125 50.7619 67.2182 51.3516 68.4088C51.788 69.2906 52.2502 70.5556 52.4617 71.1504C52.2938 71.1873 52.1204 71.2237 51.9436 71.2572C51.6638 70.418 50.6338 67.5953 49.3391 67.766C47.819 67.9657 48.4355 69.0965 49.5171 69.7645C50.3099 70.2557 51.2845 70.9545 51.7478 71.2925C51.3474 71.3638 50.9414 71.3983 50.5348 71.3954C49.4723 71.377 48.9553 71.6925 48.755 71.862Z" fill="#D2E0FF"/>
<path d="M95.3636 71.6472L90.1664 71.6713C89.8867 71.4363 90.3556 70.8975 90.8474 70.8589C91.0616 70.8421 91.3319 70.8858 91.6413 70.9496C91.7084 69.9984 92.0973 65.7267 93.6375 65.8912C95.372 66.0752 93.6459 67.7716 93.1614 68.7737C92.8022 69.5156 92.4251 70.5797 92.2522 71.0816C92.3932 71.1113 92.5387 71.1403 92.6875 71.1672C92.9113 70.4617 93.7561 68.09 94.8427 68.2215C96.1178 68.377 95.6097 69.3293 94.709 69.8999C94.0482 70.3173 93.2369 70.9104 92.852 71.1974C93.1878 71.2539 93.5281 71.2796 93.8686 71.2741C94.7587 71.2455 95.1946 71.5057 95.3636 71.6472Z" fill="#D2E0FF"/>
<path d="M147.467 71.4078V71.4872C147.467 71.5317 147.449 71.5744 147.417 71.6059C147.386 71.6374 147.343 71.6551 147.299 71.6551L112.423 71.8128L107.991 71.8369L6.58299 72.3041C6.53847 72.3041 6.49578 72.2864 6.4643 72.2549C6.43282 72.2234 6.41514 72.1807 6.41514 72.1362V72.0652C6.41436 72.0429 6.41816 72.0207 6.42632 72C6.43448 71.9793 6.44682 71.9605 6.46256 71.9447C6.47831 71.929 6.49712 71.9167 6.51784 71.9085C6.53856 71.9003 6.56073 71.8965 6.58299 71.8973L38.9347 71.7468L45.9843 71.7155L60.3006 71.6523L68.5308 71.6125L79.8555 71.5566L86.9052 71.5247L105.827 71.438L114.358 71.3983L147.295 71.2478C147.317 71.2457 147.34 71.2483 147.361 71.2555C147.382 71.2626 147.401 71.2742 147.417 71.2893C147.433 71.3044 147.446 71.3228 147.454 71.3432C147.463 71.3636 147.467 71.3856 147.467 71.4078Z" fill="#233862"/>
<path d="M41.2107 70.6726C41.1264 70.7267 41.0406 70.7791 40.9534 70.8298C40.9237 70.8472 40.8941 70.8645 40.8644 70.8807C40.7973 70.918 40.7296 70.9553 40.6613 70.9926C39.116 71.7952 37.3258 71.9885 35.6448 71.5342C33.9638 71.08 32.5146 70.0113 31.5839 68.5396C30.6532 67.0679 30.3088 65.3004 30.619 63.587C30.9291 61.8736 31.8711 60.339 33.2586 59.2869C33.482 59.1183 33.7152 58.963 33.9569 58.8219C34.0447 58.771 34.1337 58.7218 34.2226 58.6748C34.3116 58.6278 34.3966 58.5853 34.4845 58.5439C35.1386 58.2343 35.8371 58.0285 36.5546 57.934C38.1201 57.7306 39.7082 58.0661 41.0577 58.8853C42.4071 59.7046 43.4374 60.9589 43.9791 62.4417C44.5208 63.9245 44.5415 65.5476 44.038 67.0438C43.5344 68.54 42.5365 69.8202 41.2085 70.6737L41.2107 70.6726Z" fill="#F78248"/>
<path d="M32.1788 40.3849C32.1995 40.2993 30.3325 41.2392 30.2374 41.345C29.3635 42.323 29.6219 43.593 30.1221 43.6031C30.4444 43.6093 30.3845 44.1452 30.3845 44.1452L33.9653 42.61C33.9653 42.61 33.5233 40.0917 32.1788 40.3849Z" fill="#2C3A64"/>
<path d="M32.6214 40.5796C32.6214 40.5796 31.7262 38.9766 29.8239 39.8931C28.8168 40.3776 28.748 42.5121 28.3508 42.8785C27.4612 43.6993 27.0936 43.9975 27.257 45.3828C27.4203 46.7681 31.7419 48.4813 31.4957 49.6277C31.4957 49.6277 33.2581 47.4412 31.8314 46.0945C31.2954 45.591 30.6995 44.3601 30.7555 44.1436C30.8114 43.927 32.6214 40.5796 32.6214 40.5796Z" fill="#2C3A64"/>
<path d="M31.2333 47.1648C30.9871 46.0056 29.481 45.6542 28.7715 46.6053C28.6372 46.7834 28.5528 46.9942 28.527 47.2158C28.3704 48.5334 30.5009 53.8877 30.8047 54.3717C31.3581 55.2535 34.6043 58.2697 34.6043 58.2697L35.1984 57.9055C35.1984 57.9055 32.8877 54.0343 32.5308 53.6729C32.1207 53.2533 31.701 49.3653 31.2333 47.1648Z" fill="#ED985F"/>
<path d="M34.3782 57.9094C34.3782 57.9094 35.2454 57.3342 35.5744 57.3695C35.9034 57.4047 36.8578 57.6744 36.8702 57.8171C36.8825 57.9597 35.8071 58.0492 35.7377 58.1259C35.6684 58.2025 34.9399 58.6927 34.6747 58.5416C34.4095 58.3905 34.3782 57.9094 34.3782 57.9094Z" fill="#ED985F"/>
<path d="M28.3731 70.8353L27.596 70.7234C27.596 70.7234 24.9742 68.66 24.5674 64.7889C24.5249 64.3912 24.5169 63.9906 24.5434 63.5916C24.549 63.5457 24.5391 63.4992 24.5154 63.4595C24.4309 63.332 24.2217 63.0119 23.938 62.5565C23.6543 62.1011 23.1788 61.2602 22.6512 60.3079C21.7 58.5942 20.5956 56.5436 20.2163 55.8907C19.0083 53.8099 19.5795 52.4045 19.5795 52.4045C19.5795 52.4045 22.9208 52.0582 23.8317 51.2531L24.164 51.76C24.164 51.76 24.9031 54.9631 24.869 54.9782C24.9063 55.0867 24.9436 55.1975 24.9809 55.3105C25.5605 57.0723 26.228 59.274 26.595 61.0683C26.8009 62.0753 26.9117 62.9577 26.8574 63.558C26.8384 63.7639 26.8642 64.08 26.9207 64.47C27.2547 66.7701 28.3731 70.8353 28.3731 70.8353Z" fill="#2B478B"/>
<path d="M30.0067 71.8106L26.7661 71.8257C26.7661 71.8257 26.6861 71.3322 26.854 70.9568C27.0145 70.5959 27.2456 70.5836 26.8791 70.0219C27.0856 70.2328 27.748 70.3173 28.2163 70.2524C28.2723 70.3452 28.5901 70.968 28.782 71.105C28.9946 71.2555 29.939 71.1996 30.0067 71.8106Z" fill="#6980E2"/>
<path d="M24.9809 55.3099C24.7051 56.8726 24.0482 59.4743 22.6512 60.3073C21.7 58.5936 20.5956 56.5431 20.2163 55.8901C19.0083 53.8094 19.5795 52.4039 19.5795 52.4039C19.5795 52.4039 22.9209 52.0576 23.8317 51.2525L24.164 51.7594C24.164 51.7594 24.9031 54.9625 24.869 54.9776C24.9059 55.0873 24.9432 55.198 24.9809 55.3099Z" fill="#233862"/>
<path d="M30.8836 46.4465C30.8836 46.4465 31.3273 46.9053 31.3782 47.9012C31.3782 47.9012 30.835 49.5908 29.1279 49.8622C29.1274 49.8644 30.4629 46.4476 30.8836 46.4465Z" fill="#ED7D2B"/>
<path d="M22.6954 52.6311L22.7038 52.0252C21.4964 52.183 18.5328 50.6013 18.5328 50.6013C18.5328 50.6013 17.2733 51.4472 17.1117 53.8463C17.0328 55.0179 16.5214 59.9739 16.4694 61.4554C16.4503 61.9914 16.4447 62.3741 16.4431 62.5269C16.4401 62.5731 16.4222 62.617 16.3921 62.6522C16.1466 62.9683 15.9292 63.3053 15.7426 63.6593C13.9158 67.0963 14.9005 71.7501 14.9005 71.7501L15.328 71.6382C15.328 71.6382 16.8638 66.802 17.8726 64.7083C18.0438 64.3531 18.1993 64.0767 18.3302 63.9167C18.7107 63.4495 19.1135 62.6578 19.5052 61.7055C20.2487 59.9051 20.9683 57.5306 21.4807 55.6921C21.5177 55.7016 22.6954 52.6311 22.6954 52.6311Z" fill="#2B478B"/>
<path d="M29.7432 48.553C27.767 48.1093 29.0158 45.3292 29.1277 45.3773C29.4013 45.3213 30 44.8374 30.5326 43.8969L30.6059 43.9595L31.8234 45.017C31.8234 45.017 31.5437 45.4315 31.3109 45.8377C31.1279 46.1555 30.9752 46.4688 30.9981 46.5757C31.0983 46.6524 30.2708 48.6716 29.7432 48.553Z" fill="#FFB27D"/>
<path d="M31.8251 45.0153C31.8251 45.0153 31.5454 45.4293 31.3132 45.836C30.5573 45.3745 30.5517 44.4412 30.6076 43.9573L31.8251 45.0153Z" fill="#ED985F"/>
<path d="M31.8616 45.5496C31.8616 45.5496 30.0265 44.5425 30.6732 43.4061C31.32 42.2698 31.5181 41.3797 32.7171 41.9766C33.9161 42.5736 33.8954 43.1348 33.7712 43.5656C33.647 43.9964 32.3556 45.7829 31.8616 45.5496Z" fill="#FFB27D"/>
<path d="M34.0778 42.9048C33.9916 42.4013 33.7365 42.3565 33.5586 42.3912C32.8777 41.2761 31.7755 41.7198 31.7755 41.7198C31.4115 42.1689 30.9028 42.4776 30.3364 42.5932C30.3364 42.5932 30.5507 42.9848 31.4269 43.2282C31.6949 43.3015 31.9981 43.2551 32.2902 43.1549C31.9004 43.3685 31.4832 43.5279 31.0503 43.6288C32.204 43.7284 33.2962 42.6654 33.4097 42.5535C33.4657 42.7168 33.5586 43.057 33.5037 43.3088C33.4293 43.649 33.1306 44.2661 33.3152 44.345C33.3152 44.3439 34.207 43.6568 34.0778 42.9048Z" fill="#2C3A64"/>
<path d="M17.4792 71.871L14.2381 71.8861C14.2381 71.8861 14.158 71.3921 14.3259 71.0167C14.4865 70.6563 14.7399 70.4919 14.6767 70.0571C14.8837 70.2681 15.2205 70.5047 15.6888 70.4387C15.7448 70.5316 16.062 71.0284 16.2545 71.166C16.4671 71.3143 17.4109 71.2556 17.4792 71.871Z" fill="#6980E2"/>
<path d="M29.9883 50.7512C29.5721 50.8989 28.9868 50.9812 28.3887 51.0489C27.5366 51.1457 26.6543 51.2134 26.1972 51.3997C26.0293 51.4674 25.9174 51.5507 25.8828 51.6565C25.6858 52.2585 24.8096 53.1895 24.8096 53.1895C19.1655 52.9584 18.5349 50.6013 18.5349 50.6013C22.3115 46.1689 28.6718 45.0371 28.6718 45.0371C28.6718 45.0371 29.8322 44.6919 30.0594 45.5255C30.324 46.494 31.0267 46.4235 31.0267 46.4235C31.0267 46.4235 31.2108 50.3176 29.9883 50.7512Z" fill="#F99746"/>
<path d="M28.3865 51.0489C27.5344 51.1457 26.6521 51.2134 26.195 51.3997C25.9936 48.586 27.314 46.4627 27.314 46.4627C27.314 46.4627 28.1946 49.9847 28.3865 51.0489Z" fill="#ED7D2B"/>
<path d="M29.2398 45.9105C29.2398 45.9105 27.1047 46.1343 26.9402 47.5201C26.7758 48.906 29.0204 54.5508 29.3405 55.061C29.9235 55.9898 33.3442 59.1683 33.3442 59.1683L33.9703 58.7845C33.9703 58.7845 31.5354 54.7057 31.1594 54.3247C30.5691 53.7249 29.9649 46.3866 29.2398 45.9105Z" fill="#FFB27D"/>
<path d="M27.0057 48.3532C27.0113 48.3851 28.9796 48.9865 30.2412 48.3387C30.2412 48.3387 30.4986 45.4187 28.9891 45.5843C27.4796 45.7499 26.5877 46.2294 26.553 46.9522C26.5183 47.6751 27.0057 48.3532 27.0057 48.3532Z" fill="#F99746"/>
<path d="M33.1484 58.7621C33.1484 58.7621 33.9116 58.0549 34.2423 58.0347C34.5729 58.0146 35.5576 58.1287 35.5923 58.2647C35.627 58.4006 34.5852 58.6653 34.5248 58.7526C34.4644 58.8399 33.8288 59.4408 33.5429 59.3339C33.257 59.227 33.1484 58.7621 33.1484 58.7621Z" fill="#FFB27D"/>
<path d="M34.7554 68.0665C34.6071 67.9395 34.506 67.7662 34.4683 67.5747L33.6604 63.4422C33.6209 63.2186 33.6708 62.9883 33.7993 62.8011C33.9279 62.6138 34.1248 62.4845 34.3477 62.441C34.5706 62.3974 34.8017 62.4431 34.9913 62.5682C35.1808 62.6933 35.3137 62.8878 35.3613 63.1099L35.956 66.1525L41.7306 63.4445C41.8344 63.3888 41.9484 63.3549 42.0657 63.3447C42.183 63.3346 42.3012 63.3485 42.4129 63.3855C42.5247 63.4226 42.6278 63.482 42.7158 63.5602C42.8039 63.6384 42.875 63.7337 42.925 63.8403C42.975 63.947 43.0027 64.0626 43.0065 64.1803C43.0103 64.298 42.9901 64.4153 42.947 64.5249C42.904 64.6345 42.8391 64.7342 42.7562 64.8179C42.6734 64.9016 42.5744 64.9675 42.4652 65.0116L35.6852 68.1907C35.566 68.2465 35.4356 68.2744 35.3039 68.2723C35.1723 68.2701 35.0428 68.238 34.9254 68.1784C34.8645 68.148 34.8074 68.1104 34.7554 68.0665Z" fill="white"/>
</g>
<defs>
<clipPath id="clip0_2740_5703">
<rect width="150" height="72.3018" fill="white"/>
</clipPath>
</defs>
</svg>
