<svg width="25" height="25" viewBox="0 0 25 25" fill="none" xmlns="http://www.w3.org/2000/svg">
<path d="M12.5001 6.48969L20.0301 19.4997H4.97012L12.5001 6.48969ZM3.24012 18.4997C2.47012 19.8297 3.43012 21.4997 4.97012 21.4997H20.0301C21.5701 21.4997 22.5301 19.8297 21.7601 18.4997L14.2301 5.48969C13.4601 4.15969 11.5401 4.15969 10.7701 5.48969L3.24012 18.4997ZM11.5001 11.4997V13.4997C11.5001 14.0497 11.9501 14.4997 12.5001 14.4997C13.0501 14.4997 13.5001 14.0497 13.5001 13.4997V11.4997C13.5001 10.9497 13.0501 10.4997 12.5001 10.4997C11.9501 10.4997 11.5001 10.9497 11.5001 11.4997ZM11.5001 16.4997H13.5001V18.4997H11.5001V16.4997Z" fill="#856404"/>
</svg>
