<svg width="66" height="46" viewBox="0 0 66 46" fill="none" xmlns="http://www.w3.org/2000/svg">
<path d="M32.8897 33.2794C28.3239 33.2794 24.6094 29.5648 24.6094 24.9991C24.6094 20.4333 28.3239 16.7188 32.8897 16.7188C37.4555 16.7188 41.17 20.4333 41.17 24.9991C41.17 29.5648 37.4555 33.2794 32.8897 33.2794ZM32.8897 17.9688C29.0131 17.9688 25.8594 21.1225 25.8594 24.9991C25.8594 28.8756 29.0133 32.0294 32.8897 32.0294C36.7661 32.0294 39.92 28.8755 39.92 24.9991C39.92 21.1225 36.7662 17.9688 32.8897 17.9688Z" fill="#2AACE3" fill-opacity="0.16"/>
<path d="M60.2934 14.8618H48.0894C47.7442 14.8618 47.4644 14.582 47.4644 14.2368V9.57715C47.4644 9.23199 47.7442 8.95215 48.0894 8.95215H60.2934C60.6386 8.95215 60.9184 9.23199 60.9184 9.57715V14.2368C60.9184 14.582 60.6386 14.8618 60.2934 14.8618ZM48.7142 13.6118H59.6683V10.2021H48.7142V13.6118Z" fill="#2AACE3" fill-opacity="0.16"/>
<path d="M65.8002 18.2273V11.0938C65.8002 7.46602 62.8488 4.51477 59.2212 4.51477H19.6463V0.923828C19.6463 0.578672 19.3665 0.298828 19.0213 0.298828H9.70178C9.35662 0.298828 9.07678 0.578672 9.07678 0.923828V4.51477H6.78022C3.1524 4.51477 0.201152 7.46617 0.201152 11.0938V18.2273C0.201152 18.2288 0.200684 18.2302 0.200684 18.2318V31.5177C0.200684 31.5193 0.201152 31.5209 0.201152 31.5223V39.1263C0.201152 42.7541 3.15256 45.7054 6.78022 45.7054H59.221C62.8488 45.7054 65.8001 42.754 65.8001 39.1263V31.5223C65.8001 31.5207 65.8005 31.5191 65.8005 31.5177V18.2318C65.8007 18.2302 65.8002 18.2288 65.8002 18.2273ZM10.3269 1.54867H18.3965V4.51461H10.3269V1.54867ZM1.45115 18.8568H22.0101C20.9804 20.6724 20.3929 22.7677 20.3929 24.9988C20.3929 27.1287 20.9288 29.1363 21.8726 30.8927H1.45115V18.8568ZM23.4741 18.8568C23.7601 18.4177 24.0771 18.0005 24.421 17.6068C26.4835 15.2459 29.5163 13.7521 32.8897 13.7521C36.2632 13.7521 39.296 15.2459 41.3585 17.6068C41.7021 18.0005 42.0193 18.4177 42.3054 18.8568C43.4632 20.624 44.1366 22.7349 44.1366 24.9988C44.1366 27.1582 43.5241 29.1785 42.4633 30.8927C42.1944 31.3302 41.896 31.7476 41.5694 32.1427C39.5054 34.6473 36.3804 36.2459 32.8897 36.2459C29.3991 36.2459 26.2741 34.6474 24.2101 32.1427C23.8835 31.7476 23.5851 31.3302 23.3162 30.8927C22.2554 29.1785 21.6429 27.1584 21.6429 24.9988C21.643 22.7349 22.3163 20.624 23.4741 18.8568ZM64.5502 39.1263C64.5502 42.0649 62.1596 44.4554 59.2212 44.4554H6.78022C3.84162 44.4554 1.45115 42.0648 1.45115 39.1263V32.1427H22.6413C24.9022 35.3771 28.6537 37.4959 32.8897 37.4959C37.1258 37.4959 40.8772 35.3771 43.1382 32.1427H64.5502V39.1263ZM64.5502 30.8927H43.9069C44.8507 29.1365 45.3866 27.1287 45.3866 24.9988C45.3866 22.7677 44.7991 20.6724 43.7694 18.8568H64.5502V30.8927ZM64.5502 17.6068H42.9601C40.6819 14.513 37.0163 12.5021 32.8897 12.5021C28.7632 12.5021 25.0976 14.513 22.8194 17.6068H1.45115V11.0938C1.45115 8.15524 3.84178 5.76477 6.78022 5.76477H9.70178H19.0213H59.221C62.1596 5.76477 64.5501 8.15539 64.5501 11.0938V17.6068H64.5502Z" fill="#2AACE3" fill-opacity="0.16"/>
</svg>
