<svg width="107" height="102" viewBox="0 0 107 102" fill="none" xmlns="http://www.w3.org/2000/svg">
<path d="M93.001 36.707H15.001V89.0012H93.001V36.707Z" fill="white" stroke="#3578DB" stroke-linecap="round" stroke-linejoin="round"/>
<path d="M53.8027 50.9619H83.8569" stroke="#FF9A2E" stroke-linecap="round" stroke-linejoin="round"/>
<path d="M53.8027 58.8594H83.8569" stroke="#FF9A2E" stroke-linecap="round" stroke-linejoin="round"/>
<path d="M53.8027 66.7539H83.8569" stroke="#FF9A2E" stroke-linecap="round" stroke-linejoin="round"/>
<path d="M80.9116 74.6514H83.8574H80.9116Z" fill="white"/>
<path d="M80.9116 74.6514H83.8574" stroke="#FF9A2E" stroke-linecap="round" stroke-linejoin="round"/>
<path d="M63.7783 74.6514H74.0153H63.7783Z" fill="white"/>
<path d="M63.7783 74.6514H74.0153" stroke="#FF9A2E" stroke-linecap="round" stroke-linejoin="round"/>
<path d="M53.8027 74.6514H56.9787H53.8027Z" fill="white"/>
<path d="M53.8027 74.6514H56.9787" stroke="#FF9A2E" stroke-linecap="round" stroke-linejoin="round"/>
<path d="M20.0835 74.9243L21.5956 68.6556C21.8546 67.5794 22.6787 66.737 23.7382 66.4633C25.2608 66.07 27.3433 65.6528 28.7089 65.2542C29.4362 65.0416 29.9332 64.364 29.9332 63.596V62.0016L29.7239 61.7624C29.1693 61.13 28.8083 60.346 28.6853 59.509C28.6853 59.509 28.1307 59.5143 28.047 59.0014C27.7985 57.4309 27.618 57.3645 27.618 56.6736C27.618 55.9827 27.8691 55.8206 28.1726 55.9986C28.1229 55.8206 28.0339 55.4538 28.0182 54.941C27.9136 51.2313 30.3178 48.7998 33.1354 48.7998C35.953 48.7998 38.3546 51.2313 38.2525 54.941C38.2395 55.4538 38.1479 55.8206 38.0982 55.9986C38.4017 55.8206 38.6528 55.9853 38.6528 56.6736C38.6528 57.3618 38.4723 57.4309 38.2238 59.0014C38.1427 59.5143 37.5854 59.509 37.5854 59.509C37.4625 60.346 37.1014 61.13 36.5468 61.7624L36.3375 62.0016V63.596C36.3375 64.364 36.8346 65.0416 37.5619 65.2542C38.9275 65.6555 41.0099 66.07 42.5325 66.4633C43.5895 66.737 44.4161 67.5794 44.6751 68.6556L46.1873 74.9243" fill="white"/>
<path d="M20.0835 74.9243L21.5956 68.6556C21.8546 67.5794 22.6787 66.737 23.7382 66.4633C25.2608 66.07 27.3433 65.6528 28.7089 65.2542C29.4362 65.0416 29.9332 64.364 29.9332 63.596V62.0016L29.7239 61.7624C29.1693 61.13 28.8083 60.346 28.6853 59.509C28.6853 59.509 28.1307 59.5143 28.047 59.0014C27.7985 57.4309 27.618 57.3645 27.618 56.6736C27.618 55.9827 27.8691 55.8206 28.1726 55.9986C28.1229 55.8206 28.0339 55.4538 28.0182 54.941C27.9136 51.2313 30.3178 48.7998 33.1354 48.7998C35.953 48.7998 38.3546 51.2313 38.2525 54.941C38.2395 55.4538 38.1479 55.8206 38.0982 55.9986C38.4017 55.8206 38.6528 55.9853 38.6528 56.6736C38.6528 57.3618 38.4723 57.4309 38.2238 59.0014C38.1427 59.5143 37.5854 59.509 37.5854 59.509C37.4625 60.346 37.1014 61.13 36.5468 61.7624L36.3375 62.0016V63.596C36.3375 64.364 36.8346 65.0416 37.5619 65.2542C38.9275 65.6555 41.0099 66.07 42.5325 66.4633C43.5895 66.737 44.4161 67.5794 44.6751 68.6556L46.1873 74.9243" stroke="#FF9A2E" stroke-linecap="round" stroke-linejoin="round"/>
<path d="M18.6693 31.5781V14.2981H21.9333V22.2661L28.5093 14.2981H32.4933L25.2693 22.8181L32.9493 31.5781H28.8213L21.9333 23.7061V31.5781H18.6693ZM51.8542 31.5781V24.5461L45.9502 14.2981H49.7662L53.5102 20.8021L57.2542 14.2981H61.0702L55.1662 24.5461V31.5781H51.8542ZM82.2024 31.9381C80.4744 31.9381 78.9824 31.5621 77.7264 30.8101C76.4784 30.0581 75.5144 29.0061 74.8344 27.6541C74.1624 26.3021 73.8264 24.7301 73.8264 22.9381C73.8264 21.1461 74.1624 19.5741 74.8344 18.2221C75.5144 16.8701 76.4784 15.8181 77.7264 15.0661C78.9824 14.3141 80.4744 13.9381 82.2024 13.9381C84.1864 13.9381 85.8504 14.4301 87.1944 15.4141C88.5464 16.3981 89.4984 17.7301 90.0504 19.4101L86.7624 20.3221C86.4424 19.2741 85.9024 18.4621 85.1424 17.8861C84.3824 17.3021 83.4024 17.0101 82.2024 17.0101C81.1064 17.0101 80.1904 17.2541 79.4544 17.7421C78.7264 18.2301 78.1784 18.9181 77.8104 19.8061C77.4424 20.6941 77.2584 21.7381 77.2584 22.9381C77.2584 24.1381 77.4424 25.1821 77.8104 26.0701C78.1784 26.9581 78.7264 27.6461 79.4544 28.1341C80.1904 28.6221 81.1064 28.8661 82.2024 28.8661C83.4024 28.8661 84.3824 28.5741 85.1424 27.9901C85.9024 27.4061 86.4424 26.5941 86.7624 25.5541L90.0504 26.4661C89.4984 28.1461 88.5464 29.4781 87.1944 30.4621C85.8504 31.4461 84.1864 31.9381 82.2024 31.9381Z" fill="#FF9A2E" fill-opacity="0.92"/>
<path d="M106.001 19.217V1.00195H87.8916" stroke="#3578DB" stroke-linejoin="round"/>
<path d="M106.001 82.7871V101.002H87.8916" stroke="#3578DB" stroke-linejoin="round"/>
<path d="M1.00098 19.217V1.00195H19.1106" stroke="#3578DB" stroke-linejoin="round"/>
<path d="M1.00098 82.7871V101.002H19.1106" stroke="#3578DB" stroke-linejoin="round"/>
</svg>
