<svg width="23" height="33" viewBox="0 0 23 33" fill="none" xmlns="http://www.w3.org/2000/svg">
<g clip-path="url(#clip0_3893_18327)">
<path d="M22.7002 11.7355C22.7002 5.61551 17.7202 0.645508 11.6002 0.645508C8.64015 0.645508 5.85015 1.80551 3.75015 3.89551C1.65015 5.99551 0.500152 8.77551 0.500152 11.7255C0.360152 18.0955 5.92015 25.5955 9.25015 30.0755C9.87015 30.9055 10.4002 31.6255 10.8302 32.2355C11.0002 32.4955 11.2902 32.6455 11.6002 32.6455C11.9102 32.6455 12.2002 32.4955 12.3802 32.2455C12.8102 31.6355 13.3402 30.9155 13.9602 30.0855C17.2802 25.5955 22.8402 18.1055 22.7002 11.7355ZM12.9002 29.3055C12.4102 29.9655 11.9702 30.5555 11.6002 31.0855C11.2202 30.5555 10.7902 29.9655 10.3002 29.3055C7.07015 24.9555 1.67015 17.6855 1.81015 11.7555V11.7355C1.81015 9.12551 2.83015 6.66551 4.68015 4.81551C6.53015 2.96551 8.99015 1.94551 11.6002 1.94551C17.0002 1.94551 21.4002 6.33551 21.4002 11.7355C21.5302 17.6855 16.1302 24.9555 12.9002 29.3055Z" fill="#3578DB"/>
<path d="M11.6 4.88574C7.94998 4.88574 4.97998 7.85574 4.97998 11.5057C4.97998 15.1557 7.94998 18.1257 11.6 18.1257C15.25 18.1257 18.22 15.1557 18.22 11.5057C18.22 7.85574 15.25 4.88574 11.6 4.88574ZM11.6 13.7157C10.38 13.7157 9.38998 12.7257 9.38998 11.5057C9.38998 10.2857 10.38 9.29574 11.6 9.29574C12.82 9.29574 13.81 10.2857 13.81 11.5057C13.81 12.7257 12.82 13.7157 11.6 13.7157Z" fill="#FF9A2E"/>
</g>
<defs>
<clipPath id="clip0_3893_18327">
<rect width="22.21" height="32" fill="white" transform="translate(0.5 0.645508)"/>
</clipPath>
</defs>
</svg>
