<svg width="34" height="34" viewBox="0 0 34 34" fill="none" xmlns="http://www.w3.org/2000/svg">
<rect width="34" height="34" rx="8.54932" fill="#2AACE3"/>
<mask id="mask0_12052_24336" style="mask-type:alpha" maskUnits="userSpaceOnUse" x="2" y="2" width="30" height="30">
<rect x="2.07031" y="2.06982" width="29.8609" height="29.8609" fill="#D9D9D9"/>
</mask>
<g mask="url(#mask0_12052_24336)">
<path d="M-174.99 6.8654C-174.62 5.43541 -174.22 4.01541 -173.89 2.57541C-168.27 -21.7646 -147.73 -38.3546 -122.77 -38.7146C-121.78 -38.7246 -120.8 -38.7946 -119.48 -38.8546C-114.91 -81.5346 -95.52 -115.715 -60.21 -140.245C-34.58 -158.065 -5.81 -165.555 25.33 -163.735C47.23 -162.455 67.61 -156.085 86.43 -144.845C105.4 -133.515 120.75 -118.425 132.44 -99.6946C144.03 -81.1146 150.68 -60.8246 152.49 -39.6646C159.46 -38.3746 166.11 -37.8346 172.31 -35.8746C193.96 -29.0246 208.19 -9.12459 208.24 13.5254C208.26 23.8754 208.25 34.2354 208.24 44.5854C208.22 74.7154 185.52 97.5954 155.39 97.8654C151.02 97.9054 146.66 97.8954 142.29 97.8654C133.5 97.7954 128.94 93.2354 128.94 84.4654C128.94 47.4254 128.97 10.3754 128.93 -26.6646C128.88 -73.9146 101.46 -114.545 57.8 -132.185C-5.23001 -157.655 -78.09 -119.345 -92.64 -52.8446C-94.51 -44.2746 -95.47 -35.3446 -95.55 -26.5646C-95.87 10.2254 -95.68 47.0254 -95.69 83.8154C-95.69 92.6854 -98.56 96.7854 -107.31 97.7354C-124.45 99.5954 -140.96 97.7354 -155.11 86.5154C-165.5 78.2854 -171.85 67.6054 -174.25 54.5554C-174.38 53.8554 -174.74 53.1954 -175 52.5154C-174.99 37.3054 -174.99 22.0854 -174.99 6.8654Z" fill="#F8F8F8"/>
</g>
<path d="M16.7944 3.0001C17.3297 3.15063 17.7224 3.51211 18.1226 3.87253C19.7169 5.30837 21.5884 6.16383 23.7027 6.49033C24.2937 6.58149 24.8916 6.62549 25.4852 6.70075C26.8394 6.87142 27.9339 8.08412 27.9535 9.44417C27.9747 10.9245 28.0214 12.406 27.9901 13.8858C27.9435 16.0647 27.7087 18.2241 27.0546 20.3177C26.0417 23.5593 24.1289 26.122 21.2715 27.9734C19.9941 28.8008 18.6272 29.4389 17.1982 29.9525C16.762 30.1094 16.32 30.1407 15.8774 29.988C13.3232 29.1039 11.0043 27.8308 9.11055 25.8628C7.50828 24.1975 6.44452 22.2247 5.80265 20.0161C5.43588 18.7536 5.23023 17.4619 5.10143 16.1543C4.87776 13.8842 4.93288 11.6114 5.00284 9.33869C5.04154 8.07829 6.15671 6.86824 7.41553 6.70393C8.21799 6.59952 9.02787 6.53379 9.82132 6.38273C11.2641 6.10871 12.5965 5.54317 13.796 4.69195C14.2327 4.38188 14.644 4.03154 15.0447 3.67483C15.3781 3.37854 15.7311 3.13155 16.1594 2.99957H16.7944V3.0001ZM26.3698 12.1934C26.3698 11.3295 26.3778 10.4661 26.3677 9.60212C26.3592 8.86061 25.9241 8.3767 25.1969 8.27599C24.3695 8.16203 23.5315 8.09949 22.7153 7.93147C20.5029 7.47565 18.562 6.47231 16.9035 4.9294C16.4334 4.49213 16.5219 4.49266 16.0518 4.9294C14.5099 6.36259 12.7211 7.35109 10.6747 7.82494C9.71849 8.04649 8.73105 8.13182 7.75739 8.2744C7.0408 8.37935 6.59663 8.84948 6.58762 9.57509C6.5696 11.0645 6.54787 12.5544 6.57013 14.0432C6.59769 15.8967 6.81501 17.7306 7.32436 19.5195C8.00439 21.9067 9.23405 23.951 11.1315 25.5766C12.658 26.8842 14.414 27.7762 16.2956 28.4393C16.4154 28.4817 16.5781 28.469 16.7011 28.425C17.1479 28.2654 17.5915 28.0953 18.0261 27.9055C19.5452 27.2419 20.9476 26.3918 22.1699 25.2612C24.3123 23.28 25.464 20.7767 25.9951 17.9548C26.3534 16.0515 26.4239 14.1243 26.3693 12.1924L26.3698 12.1934Z" fill="#F8F8F8"/>
<path d="M23.2185 16.8148C23.0875 20.6119 19.7362 23.6787 15.7446 23.2525C12.1928 22.8736 9.35455 19.6982 9.77115 15.7966C10.1512 12.2391 13.3366 9.42254 17.2111 9.83596C20.8424 10.2234 23.3748 13.3855 23.2185 16.8154V16.8148ZM16.4659 21.6905C19.3016 21.7054 21.5966 19.4263 21.6241 16.5678C21.6512 13.7269 19.3509 11.4096 16.4898 11.3948C13.6557 11.3799 11.3607 13.6585 11.33 16.518C11.2998 19.3547 13.6043 21.6757 16.4659 21.6911V21.6905Z" fill="#F8F8F8"/>
<path d="M15.2691 17.5947C15.974 16.8871 16.644 16.2124 17.316 15.5403C17.6961 15.1603 18.0676 14.7713 18.4646 14.4103C18.7922 14.113 19.2623 14.1538 19.557 14.466C19.839 14.7649 19.8421 15.2255 19.5633 15.5456C19.5289 15.5854 19.4907 15.6225 19.4536 15.6601C18.2833 16.8315 17.113 18.0034 15.9411 19.1731C15.4896 19.6242 15.0703 19.6226 14.6155 19.1705C14.1783 18.7359 13.7341 18.3076 13.3112 17.8592C12.8686 17.3896 13.0695 16.6841 13.679 16.5209C13.98 16.4403 14.2366 16.5389 14.4496 16.7498C14.7178 17.0159 14.9765 17.2921 15.2691 17.5947Z" fill="#F8F8F8"/>
</svg>
