<svg width="201" height="150" viewBox="0 0 201 150" fill="none" xmlns="http://www.w3.org/2000/svg">
<mask id="mask0_563_741" style="mask-type:alpha" maskUnits="userSpaceOnUse" x="0" y="0" width="201" height="150">
<path fill-rule="evenodd" clip-rule="evenodd" d="M0 0.186646H200.905V150H0V0.186646Z" fill="white"/>
</mask>
<g mask="url(#mask0_563_741)">
<path fill-rule="evenodd" clip-rule="evenodd" d="M192.606 66.7701H174.329C172.996 66.7701 171.73 66.1858 170.864 65.1702C169.452 63.5099 168.578 61.2142 168.578 58.6822C168.578 58.6539 168.578 58.6256 168.578 58.5974C168.611 54.3502 172.092 50.9412 176.327 50.9412H184.555C189.139 50.9412 192.855 46.9805 192.855 42.0944C192.855 37.2084 189.139 33.2476 184.555 33.2476H168.041C165.893 33.2438 163.945 32.2539 162.536 30.6558C161.124 29.055 160.25 26.8416 160.25 24.4003C160.25 24.3696 160.25 24.339 160.25 24.3086C160.287 20.3031 163.604 17.1048 167.598 17.1048H177.726C182.31 17.1048 186.025 13.3174 186.025 8.64559C186.025 3.97378 182.31 0.186646 177.726 0.186646H116.338H84.5666H23.1788C18.5951 0.186646 14.8796 3.97378 14.8796 8.64559C14.8796 13.3174 18.5951 17.1048 23.1788 17.1048H33.3072C37.3014 17.1048 40.6188 20.3031 40.6549 24.3086C40.6552 24.339 40.6555 24.3696 40.6555 24.4003C40.6555 26.8416 39.781 29.055 38.369 30.6558C36.9596 32.2539 35.0122 33.2438 32.8638 33.2476H16.3498C11.7661 33.2476 8.05029 37.2084 8.05029 42.0944C8.05029 46.9805 11.7661 50.9412 16.3498 50.9412H32.9055C37.1406 50.9412 40.622 54.3502 40.6549 58.5974C40.6552 58.6256 40.6555 58.6539 40.6555 58.6822C40.6555 61.2142 39.781 63.5099 38.369 65.1702C37.503 66.1858 36.237 66.7701 34.9044 66.7701H8.29948C3.71586 66.7701 0 70.572 0 75.2621C0 79.9522 3.71586 83.7543 8.29948 83.7543H32.8638C37.1671 83.7611 40.6555 87.5586 40.6555 92.2436C40.6555 94.5873 39.781 96.7121 38.369 98.2483C37.3025 99.4047 35.8033 100.062 34.2326 100.062H23.1788C18.5951 100.062 14.8796 103.944 14.8796 108.732C14.8796 113.52 18.5951 117.401 23.1788 117.401H32.8946C38.4019 117.401 41.5233 123.38 40.4463 128.311C39.2693 133.701 33.9487 133.354 29.3971 133.354C24.7359 133.354 20.9722 137.208 21.1009 141.911C21.2246 146.444 25.0474 150 29.5696 150H84.5666H116.338H171.335C175.858 150 179.68 146.444 179.804 141.911C179.933 137.208 176.169 133.354 171.508 133.354C166.956 133.354 161.635 133.701 160.459 128.311C159.382 123.38 162.503 117.401 168.01 117.401H177.726C182.31 117.401 186.025 113.52 186.025 108.732C186.025 103.944 182.31 100.062 177.726 100.062H166.672C165.102 100.062 163.603 99.4047 162.536 98.2483C161.124 96.7121 160.25 94.5873 160.25 92.2436C160.25 87.5586 163.738 83.7611 168.041 83.7543H192.606C197.189 83.7543 200.905 79.9522 200.905 75.2621C200.905 70.572 197.189 66.7701 192.606 66.7701Z" fill="#DDE9F2"/>
</g>
<mask id="mask1_563_741" style="mask-type:alpha" maskUnits="userSpaceOnUse" x="0" y="0" width="201" height="150">
<path fill-rule="evenodd" clip-rule="evenodd" d="M0 150H200.905V0.186523H0V150Z" fill="white"/>
</mask>
<g mask="url(#mask1_563_741)">
<path fill-rule="evenodd" clip-rule="evenodd" d="M101.087 145.038H117.658V91.0299H101.087V145.038Z" fill="#1653AC"/>
<path fill-rule="evenodd" clip-rule="evenodd" d="M162.826 55.4252V100.591H48.6287V55.4252C48.6287 40.2555 60.8911 27.9581 76.0176 27.9581H135.434C141.619 27.9581 147.323 30.0125 151.907 33.4784C153.387 34.597 154.752 35.8636 155.974 37.2552C156.936 38.345 157.808 39.5099 158.584 40.7417C159.346 41.9417 160.013 43.2024 160.581 44.5185C162.026 47.8627 162.826 51.5497 162.826 55.4252Z" fill="#3578DB"/>
<path fill-rule="evenodd" clip-rule="evenodd" d="M160.581 44.5186H70.5798V40.7418H158.585C159.347 41.9415 160.013 43.2025 160.581 44.5186Z" fill="#1E60C0"/>
<path fill-rule="evenodd" clip-rule="evenodd" d="M70.5798 76.1864H162.826V64.2745H70.5798V76.1864Z" fill="#286ED4"/>
<path fill-rule="evenodd" clip-rule="evenodd" d="M155.974 37.2552H66.1187V33.4784H151.907C153.387 34.5968 154.752 35.8637 155.974 37.2552Z" fill="#1E60C0"/>
<path fill-rule="evenodd" clip-rule="evenodd" d="M103.407 55.4252V86.3553H48.6287V55.4252C48.6287 40.2564 60.892 27.9581 76.0176 27.9581C91.1434 27.9581 103.407 40.2564 103.407 55.4252Z" fill="#1E60C0"/>
<path fill-rule="evenodd" clip-rule="evenodd" d="M52.5903 96.2334V55.81C52.5903 42.8555 63.0996 32.3163 76.0177 32.3163C88.9355 32.3163 99.4445 42.8555 99.4445 55.81V96.2334H52.5903Z" fill="#013889"/>
<path fill-rule="evenodd" clip-rule="evenodd" d="M6.93677 102.625H162.826V98.8483H6.93677V102.625Z" fill="#154EA3"/>
<path fill-rule="evenodd" clip-rule="evenodd" d="M162.826 86.3552V102.625H6.93677V98.8483H48.6287V100.591H103.407V86.3552H162.826Z" fill="#1E60C0"/>
<path fill-rule="evenodd" clip-rule="evenodd" d="M142.736 10.3752H126.464H119.275H116.76V60.3585H126.464V24.6524H142.736V10.3752Z" fill="#D9DDE2"/>
<path fill-rule="evenodd" clip-rule="evenodd" d="M143.706 10.3752H127.434H120.245H119.119V60.3585H127.434V24.6524H143.706V10.3752Z" fill="white"/>
<path fill-rule="evenodd" clip-rule="evenodd" d="M130.933 63.0643C130.933 68.4224 127.312 72.7657 122.846 72.7657C118.381 72.7657 114.76 68.4224 114.76 63.0643C114.76 57.7061 118.381 53.3629 122.846 53.3629C127.312 53.3629 130.933 57.7061 130.933 63.0643Z" fill="#FFCF31"/>
<path fill-rule="evenodd" clip-rule="evenodd" d="M127.77 63.0642C127.77 66.3268 125.566 68.9717 122.847 68.9717C120.127 68.9717 117.923 66.3268 117.923 63.0642C117.923 59.8016 120.127 57.1567 122.847 57.1567C125.566 57.1567 127.77 59.8016 127.77 63.0642Z" fill="#FFF575"/>
</g>
<mask id="mask2_563_741" style="mask-type:alpha" maskUnits="userSpaceOnUse" x="53" y="33" width="47" height="64">
<path fill-rule="evenodd" clip-rule="evenodd" d="M53.2815 56.5983V96.8684H99.8273V56.5983C99.8273 43.693 89.3874 33.1937 76.5547 33.1937C63.7216 33.1937 53.2815 43.693 53.2815 56.5983Z" fill="white"/>
</mask>
<g mask="url(#mask2_563_741)">
<path fill-rule="evenodd" clip-rule="evenodd" d="M115.857 55.2911V94.9973C115.857 95.9399 115.098 96.7056 114.158 96.7056H58.8159C58.4603 96.7056 58.1293 96.5946 57.8563 96.4059C57.4097 96.0982 57.1172 95.5824 57.1172 94.9973V55.2911C57.1172 54.9195 57.2357 54.5754 57.4398 54.2953V54.2927C57.746 53.8629 58.2478 53.5854 58.8159 53.5854H114.158C114.886 53.5854 115.504 54.0431 115.747 54.6864C115.818 54.8751 115.857 55.0774 115.857 55.2911Z" fill="#FFCF3B"/>
</g>
<mask id="mask3_563_741" style="mask-type:alpha" maskUnits="userSpaceOnUse" x="53" y="33" width="47" height="64">
<path fill-rule="evenodd" clip-rule="evenodd" d="M53.2815 56.5983V96.8684H99.8273V56.5983C99.8273 43.693 89.3874 33.1937 76.5547 33.1937C63.7216 33.1937 53.2815 43.693 53.2815 56.5983Z" fill="white"/>
</mask>
<g mask="url(#mask3_563_741)">
<path fill-rule="evenodd" clip-rule="evenodd" d="M115.857 55.2912V94.9973C115.857 95.94 115.098 96.7056 114.158 96.7056H58.816C58.4604 96.7056 58.1294 96.5947 57.8564 96.4059L115.747 54.6864C115.818 54.8752 115.857 55.0774 115.857 55.2912Z" fill="#FFBC2C"/>
</g>
<mask id="mask4_563_741" style="mask-type:alpha" maskUnits="userSpaceOnUse" x="53" y="33" width="47" height="64">
<path fill-rule="evenodd" clip-rule="evenodd" d="M53.2815 56.5983V96.8684H99.8273V56.5983C99.8273 43.693 89.3874 33.1937 76.5547 33.1937C63.7216 33.1937 53.2815 43.693 53.2815 56.5983Z" fill="white"/>
</mask>
<g mask="url(#mask4_563_741)">
<path fill-rule="evenodd" clip-rule="evenodd" d="M115.857 55.9163L87.3299 78.56C86.2203 79.4407 84.8436 79.3846 83.7737 78.4155L57.4399 54.5558V54.552C57.7462 53.9646 58.248 53.5856 58.8161 53.5856H114.158C114.886 53.5856 115.504 54.2109 115.747 55.0902L115.857 55.9163Z" fill="#D57C28"/>
</g>
<mask id="mask5_563_741" style="mask-type:alpha" maskUnits="userSpaceOnUse" x="53" y="33" width="47" height="64">
<path fill-rule="evenodd" clip-rule="evenodd" d="M53.2815 56.5983V96.8684H99.8273V56.5983C99.8273 43.693 89.3874 33.1937 76.5547 33.1937C63.7216 33.1937 53.2815 43.693 53.2815 56.5983Z" fill="white"/>
</mask>
<g mask="url(#mask5_563_741)">
<path fill-rule="evenodd" clip-rule="evenodd" d="M115.857 55.2911L87.3299 71.8613C86.2203 72.5057 84.8436 72.4652 83.7737 71.7556L57.4399 54.2953V54.2927C57.7462 53.8629 58.248 53.5854 58.8161 53.5854H114.158C114.886 53.5854 115.504 54.0431 115.747 54.6864L115.857 55.2911Z" fill="#FECC37"/>
</g>
<mask id="mask6_563_741" style="mask-type:alpha" maskUnits="userSpaceOnUse" x="53" y="33" width="47" height="64">
<path fill-rule="evenodd" clip-rule="evenodd" d="M53.2815 56.5983V96.8684H99.8273V56.5983C99.8273 43.693 89.3874 33.1937 76.5547 33.1937C63.7216 33.1937 53.2815 43.693 53.2815 56.5983Z" fill="white"/>
</mask>
<g mask="url(#mask6_563_741)">
<path fill-rule="evenodd" clip-rule="evenodd" d="M71.7172 60.3506L71.61 60.5432C71.1383 61.3911 71.4422 62.4729 72.2853 62.947L79.6292 67.0792C80.472 67.5533 81.5475 67.248 82.0192 66.4001L82.1264 66.2075C82.5981 65.3597 82.2942 64.2781 81.4514 63.804L74.1075 59.6716C73.2644 59.1975 72.1889 59.5028 71.7172 60.3506Z" fill="#FFF35A"/>
</g>
<path fill-rule="evenodd" clip-rule="evenodd" d="M90 147H128V144H90V147Z" fill="#1653AC"/>
</svg>
