<svg width="149" height="44" viewBox="0 0 149 44" fill="none" xmlns="http://www.w3.org/2000/svg">
<g filter="url(#filter0_d_564_947)">
<path d="M4.60789 27V1.08H8.00989L17.4059 20.574L26.7479 1.08H30.1859V26.982H26.6219V9.252L18.2519 27H16.5419L8.15389 9.252V27H4.60789ZM40.719 27.54C39.279 27.54 38.073 27.276 37.101 26.748C36.129 26.208 35.391 25.5 34.887 24.624C34.395 23.736 34.149 22.764 34.149 21.708C34.149 20.724 34.323 19.86 34.671 19.116C35.019 18.372 35.535 17.742 36.219 17.226C36.903 16.698 37.743 16.272 38.739 15.948C39.603 15.696 40.581 15.474 41.673 15.282C42.765 15.09 43.911 14.91 45.111 14.742C46.323 14.574 47.523 14.406 48.711 14.238L47.343 14.994C47.367 13.47 47.043 12.342 46.371 11.61C45.711 10.866 44.571 10.494 42.951 10.494C41.931 10.494 40.995 10.734 40.143 11.214C39.291 11.682 38.697 12.462 38.361 13.554L34.851 12.474C35.331 10.806 36.243 9.48 37.587 8.496C38.943 7.512 40.743 7.02 42.987 7.02C44.727 7.02 46.239 7.32 47.523 7.92C48.819 8.508 49.767 9.444 50.367 10.728C50.679 11.364 50.871 12.036 50.943 12.744C51.015 13.452 51.051 14.214 51.051 15.03V27H47.721V22.554L48.369 23.13C47.565 24.618 46.539 25.728 45.291 26.46C44.055 27.18 42.531 27.54 40.719 27.54ZM41.385 24.462C42.453 24.462 43.371 24.276 44.139 23.904C44.907 23.52 45.525 23.034 45.993 22.446C46.461 21.858 46.767 21.246 46.911 20.61C47.115 20.034 47.229 19.386 47.253 18.666C47.289 17.946 47.307 17.37 47.307 16.938L48.531 17.388C47.343 17.568 46.263 17.73 45.291 17.874C44.319 18.018 43.437 18.162 42.645 18.306C41.865 18.438 41.169 18.6 40.557 18.792C40.041 18.972 39.579 19.188 39.171 19.44C38.775 19.692 38.457 19.998 38.217 20.358C37.989 20.718 37.875 21.156 37.875 21.672C37.875 22.176 38.001 22.644 38.253 23.076C38.505 23.496 38.889 23.832 39.405 24.084C39.921 24.336 40.581 24.462 41.385 24.462ZM56.0851 27V0.539999H59.8471V27H56.0851ZM65.2344 27L65.2524 1.08H69.0684V16.92L76.7004 7.56H81.4884L73.4244 17.28L82.3164 27H77.2044L69.0684 17.64V27H65.2344ZM84.4913 4.374V0.719999H88.2533V4.374H84.4913ZM84.4913 27V7.56H88.2533V27H84.4913ZM96.2867 35.64L100.049 25.398L100.103 28.422L91.6247 7.56H95.5487L101.885 23.67H100.733L106.781 7.56H110.597L99.8687 35.64H96.2867ZM118.203 27.54C116.763 27.54 115.557 27.276 114.585 26.748C113.613 26.208 112.875 25.5 112.371 24.624C111.879 23.736 111.633 22.764 111.633 21.708C111.633 20.724 111.807 19.86 112.155 19.116C112.503 18.372 113.019 17.742 113.703 17.226C114.387 16.698 115.227 16.272 116.223 15.948C117.087 15.696 118.065 15.474 119.157 15.282C120.249 15.09 121.395 14.91 122.595 14.742C123.807 14.574 125.007 14.406 126.195 14.238L124.827 14.994C124.851 13.47 124.527 12.342 123.855 11.61C123.195 10.866 122.055 10.494 120.435 10.494C119.415 10.494 118.479 10.734 117.627 11.214C116.775 11.682 116.181 12.462 115.845 13.554L112.335 12.474C112.815 10.806 113.727 9.48 115.071 8.496C116.427 7.512 118.227 7.02 120.471 7.02C122.211 7.02 123.723 7.32 125.007 7.92C126.303 8.508 127.251 9.444 127.851 10.728C128.163 11.364 128.355 12.036 128.427 12.744C128.499 13.452 128.535 14.214 128.535 15.03V27H125.205V22.554L125.853 23.13C125.049 24.618 124.023 25.728 122.775 26.46C121.539 27.18 120.015 27.54 118.203 27.54ZM118.869 24.462C119.937 24.462 120.855 24.276 121.623 23.904C122.391 23.52 123.009 23.034 123.477 22.446C123.945 21.858 124.251 21.246 124.395 20.61C124.599 20.034 124.713 19.386 124.737 18.666C124.773 17.946 124.791 17.37 124.791 16.938L126.015 17.388C124.827 17.568 123.747 17.73 122.775 17.874C121.803 18.018 120.921 18.162 120.129 18.306C119.349 18.438 118.653 18.6 118.041 18.792C117.525 18.972 117.063 19.188 116.655 19.44C116.259 19.692 115.941 19.998 115.701 20.358C115.473 20.718 115.359 21.156 115.359 21.672C115.359 22.176 115.485 22.644 115.737 23.076C115.989 23.496 116.373 23.832 116.889 24.084C117.405 24.336 118.065 24.462 118.869 24.462ZM144.333 27C143.109 27.24 141.909 27.342 140.733 27.306C139.557 27.27 138.507 27.042 137.583 26.622C136.659 26.202 135.963 25.542 135.495 24.642C135.075 23.838 134.847 23.022 134.811 22.194C134.787 21.354 134.775 20.406 134.775 19.35V2.16H138.555V19.17C138.555 19.95 138.561 20.628 138.573 21.204C138.597 21.78 138.723 22.266 138.951 22.662C139.383 23.406 140.067 23.832 141.003 23.94C141.951 24.036 143.061 23.994 144.333 23.814V27ZM131.049 10.584V7.56H144.333V10.584H131.049Z" fill="#3B4161"/>
</g>
<defs>
<filter id="filter0_d_564_947" x="0.60791" y="0.540039" width="147.726" height="43.1" filterUnits="userSpaceOnUse" color-interpolation-filters="sRGB">
<feFlood flood-opacity="0" result="BackgroundImageFix"/>
<feColorMatrix in="SourceAlpha" type="matrix" values="0 0 0 0 0 0 0 0 0 0 0 0 0 0 0 0 0 0 127 0" result="hardAlpha"/>
<feOffset dy="4"/>
<feGaussianBlur stdDeviation="2"/>
<feComposite in2="hardAlpha" operator="out"/>
<feColorMatrix type="matrix" values="0 0 0 0 0 0 0 0 0 0 0 0 0 0 0 0 0 0 0.16 0"/>
<feBlend mode="normal" in2="BackgroundImageFix" result="effect1_dropShadow_564_947"/>
<feBlend mode="normal" in="SourceGraphic" in2="effect1_dropShadow_564_947" result="shape"/>
</filter>
</defs>
</svg>
