<svg width="102" height="91" viewBox="0 0 102 91" fill="none" xmlns="http://www.w3.org/2000/svg">
<path d="M51 10.6878L91.2912 80.2988H10.7088L51 10.6878ZM1.45204 74.9483C-2.66804 82.0645 2.46868 91 10.7088 91H91.2912C99.5313 91 104.668 82.0645 100.548 74.9483L60.2568 5.3372C56.1367 -1.77907 45.8633 -1.77907 41.7432 5.3372L1.45204 74.9483ZM45.6493 37.4942V48.1954C45.6493 51.1382 48.0571 53.5459 51 53.5459C53.9429 53.5459 56.3508 51.1382 56.3508 48.1954V37.4942C56.3508 34.5514 53.9429 32.1436 51 32.1436C48.0571 32.1436 45.6493 34.5514 45.6493 37.4942ZM45.6493 64.2471H56.3508V74.9483H45.6493V64.2471Z" fill="#3578DB"/>
</svg>
