<svg width="20" height="24" viewBox="0 0 20 24" fill="none" xmlns="http://www.w3.org/2000/svg">
<g clip-path="url(#clip0_11538_33397)">
<path d="M0.660223 0C6.87686 0 13.093 0 19.3097 0C19.3177 0.0122116 19.3228 0.0314683 19.3336 0.0356954C19.7859 0.206188 19.9714 0.53731 19.9714 1.01497C19.9677 8.34099 19.9686 15.667 19.9686 22.993C19.9686 23.0475 19.9677 23.1024 19.9649 23.1569C19.947 23.5153 19.7108 23.8417 19.3688 23.946C19.2303 23.9883 19.0776 23.9981 18.9316 23.9981C12.9667 24.0005 7.00226 24 1.03737 24C0.982891 24 0.927939 24.0009 0.873456 23.9991C0.462019 23.9864 0.0975505 23.6938 0.0195842 23.296C-0.00718737 23.1597 0.00126681 23.016 0.00126681 22.8756C0.00079713 15.6275 0.00079713 8.37997 0.00079713 1.13192C0.00079713 1.04597 0.000797131 0.960019 0.00314551 0.874068C0.012539 0.521811 0.186789 0.271473 0.485973 0.100041C0.544213 0.0666941 0.601983 0.033347 0.660223 0ZM10.0096 2.80726C7.93269 2.80726 5.85625 2.80726 3.77934 2.80726C3.37214 2.80726 3.28337 2.89462 3.28337 3.29807C3.28337 5.69577 3.28337 8.09347 3.28337 10.4916C3.28337 10.881 3.37589 10.9735 3.76572 10.9735C7.91156 10.9735 12.0574 10.9735 16.2028 10.9735C16.5935 10.9735 16.687 10.881 16.687 10.494C16.687 8.09628 16.687 5.69859 16.687 3.30042C16.687 2.89603 16.5982 2.80773 16.1929 2.80773C14.132 2.80773 12.0705 2.80773 10.0096 2.80773V2.80726ZM8.25724 18.084C8.25724 17.2019 8.25818 16.3199 8.25724 15.4378C8.25724 15.1133 8.14781 15.0015 7.82373 15.001C6.72375 14.9991 5.62329 14.9991 4.52331 15.001C4.20346 15.0015 4.08417 15.1198 4.0837 15.4406C4.08182 17.1888 4.08182 18.9374 4.0837 20.6855C4.0837 21.018 4.20158 21.1345 4.53787 21.135C5.63034 21.1369 6.72234 21.1373 7.81481 21.135C8.15156 21.1345 8.25724 21.0232 8.25724 20.6827C8.25818 19.8161 8.25724 18.95 8.25724 18.0835V18.084ZM3.90381 14.6389H8.43102C8.55361 15.1165 8.60433 15.1518 9.11111 15.1189C9.1346 15.1175 9.15808 15.1156 9.18109 15.1123C9.37695 15.0832 9.47088 14.9883 9.47793 14.7878C9.48591 14.5539 9.48169 14.3195 9.48122 14.0851C9.48028 13.6854 9.38916 13.5953 8.98289 13.5953C7.33621 13.5953 5.68952 13.5953 4.04236 13.5953C3.78498 13.5953 3.52713 13.5906 3.26975 13.5967C2.98935 13.6032 2.87099 13.7216 2.86441 13.9992C2.85878 14.2411 2.84845 14.4844 2.86958 14.7248C2.87944 14.838 2.9405 15.0268 3.00814 15.0409C3.23687 15.0893 3.48439 15.1114 3.71359 15.0733C3.90287 15.0419 3.90052 14.831 3.90428 14.6384L3.90381 14.6389ZM13.6595 16.1315C13.8544 16.1315 14.0493 16.1343 14.2442 16.1306C14.4659 16.1268 14.5298 16.0695 14.5321 15.8577C14.5363 15.4599 14.5321 15.0621 14.534 14.6642C14.5349 14.4905 14.4457 14.3975 14.2804 14.3951C13.875 14.3885 13.4697 14.3876 13.0644 14.3951C12.8765 14.3984 12.799 14.4844 12.7967 14.675C12.792 15.0649 12.7924 15.4552 12.7967 15.845C12.799 16.0596 12.8652 16.1254 13.0752 16.1301C13.2701 16.1343 13.465 16.131 13.6599 16.131L13.6595 16.1315ZM16.2225 16.1315C16.4249 16.1315 16.6278 16.1353 16.8302 16.1306C17.0247 16.1259 17.1012 16.0568 17.1045 15.8614C17.1111 15.4641 17.1083 15.0663 17.1059 14.6685C17.105 14.5022 17.0181 14.3984 16.8504 14.3956C16.4376 14.389 16.0243 14.3885 15.6114 14.3956C15.4597 14.3984 15.3672 14.4815 15.3677 14.6483C15.3696 15.0616 15.3677 15.4749 15.3681 15.8877C15.3681 16.0512 15.4522 16.131 15.6143 16.1306C15.8167 16.1306 16.0196 16.1306 16.222 16.1306L16.2225 16.1315ZM15.3681 17.8355C15.3681 18.0304 15.3649 18.2253 15.3691 18.4202C15.3733 18.6321 15.4381 18.7006 15.6495 18.7035C16.0393 18.7082 16.4291 18.7077 16.819 18.7035C17.0125 18.7011 17.1008 18.6255 17.1041 18.4409C17.1121 18.0356 17.1102 17.6298 17.1045 17.2244C17.1022 17.0605 17.0139 16.9652 16.8396 16.9657C16.4343 16.9666 16.029 16.9657 15.6236 16.9657C15.4503 16.9657 15.3667 17.053 15.3686 17.2268C15.3705 17.4297 15.3686 17.6321 15.3686 17.835L15.3681 17.8355ZM14.5335 20.4013C14.5335 20.2064 14.5368 20.0115 14.5326 19.8166C14.5279 19.5977 14.4725 19.5414 14.2503 19.539C13.8605 19.5353 13.4711 19.5353 13.0813 19.539C12.8662 19.5414 12.799 19.6057 12.7967 19.8171C12.792 20.2069 12.7924 20.5967 12.7967 20.9866C12.7985 21.1787 12.8751 21.2688 13.0587 21.2726C13.4636 21.281 13.8694 21.2815 14.2743 21.2726C14.4612 21.2684 14.5288 21.1829 14.5331 20.9861C14.5368 20.7912 14.534 20.5963 14.534 20.4013H14.5335ZM14.5335 17.8468C14.5335 17.6439 14.5373 17.441 14.5326 17.2381C14.5279 17.0394 14.4607 16.9689 14.2644 16.9666C13.8666 16.9619 13.4688 16.9619 13.0714 16.9666C12.8784 16.9689 12.8 17.0441 12.7976 17.2352C12.792 17.6331 12.7924 18.0309 12.7976 18.4287C12.8 18.6199 12.8789 18.6997 13.0691 18.702C13.4669 18.7072 13.8647 18.7072 14.2621 18.702C14.4565 18.6997 14.5279 18.6246 14.5331 18.431C14.5382 18.2361 14.534 18.0412 14.5345 17.8458L14.5335 17.8468ZM11.963 15.2659C11.963 15.071 11.9663 14.8761 11.962 14.6816C11.9574 14.4693 11.893 14.3975 11.684 14.3937C11.2946 14.3876 10.9053 14.3918 10.5159 14.3918C10.3388 14.3918 10.2313 14.4773 10.2289 14.6577C10.2238 15.0625 10.2233 15.4679 10.2289 15.8732C10.2313 16.0352 10.3135 16.1329 10.492 16.1315C10.8968 16.1287 11.3022 16.1296 11.707 16.1315C11.8822 16.1324 11.9639 16.0465 11.963 15.8741C11.962 15.6717 11.963 15.4688 11.963 15.2664V15.2659ZM11.962 17.8496H11.963C11.963 17.6472 11.9667 17.4443 11.962 17.2418C11.9569 17.0286 11.8954 16.9685 11.677 16.9666C11.2876 16.9633 10.8978 16.9628 10.5084 16.9666C10.3172 16.9685 10.2336 17.0427 10.2299 17.2334C10.2219 17.6307 10.2219 18.0285 10.2294 18.4259C10.2327 18.6203 10.3135 18.7002 10.5004 18.7025C10.9053 18.7082 11.3106 18.7058 11.7159 18.703C11.8737 18.702 11.9625 18.6217 11.963 18.4573C11.963 18.2549 11.963 18.052 11.963 17.8496H11.962ZM11.9625 20.4013C11.9625 20.1989 11.9616 19.9965 11.9625 19.794C11.9635 19.6203 11.8794 19.5376 11.7056 19.5381C11.3007 19.5395 10.8959 19.5404 10.491 19.5381C10.313 19.5367 10.2308 19.6329 10.2285 19.7959C10.2233 20.2008 10.2238 20.6061 10.2285 21.011C10.2304 21.1782 10.3257 21.2731 10.4929 21.2745C10.8978 21.2787 11.3026 21.2796 11.7075 21.2745C11.8714 21.2721 11.9663 21.1862 11.9635 21.0096C11.9602 20.8071 11.9625 20.6047 11.9625 20.4023V20.4013ZM15.3681 20.4136C15.3681 20.6085 15.3719 20.8034 15.3672 20.9983C15.3625 21.1725 15.4494 21.2693 15.6143 21.2726C16.0271 21.2801 16.4399 21.2792 16.8528 21.2726C17.0068 21.2702 17.1022 21.1782 17.1041 21.0208C17.1092 20.608 17.1102 20.1947 17.1041 19.7818C17.1017 19.6287 17.0176 19.5376 16.8523 19.5385C16.4395 19.54 16.0266 19.5385 15.6138 19.5385C15.4517 19.5385 15.3691 19.6189 15.3691 19.7823C15.3691 19.9927 15.3691 20.2031 15.3691 20.4136H15.3681Z" fill="#2AACE3"/>
<path d="M13.3219 7.24145C13.5577 6.46837 13.7831 5.72346 14.0128 4.97996C14.0945 4.71553 14.1344 4.69064 14.4139 4.6897C14.6403 4.68876 14.8667 4.68688 15.0931 4.69017C15.3143 4.69346 15.3711 4.73808 15.3908 4.96211C15.4209 5.30404 15.4369 5.64737 15.4561 5.99071C15.5026 6.82485 15.5477 7.659 15.5923 8.49314C15.6045 8.72234 15.5261 8.80595 15.2974 8.81111C15.1804 8.81346 15.063 8.81205 14.946 8.81111C14.6675 8.80923 14.6008 8.75099 14.5905 8.47201C14.5684 7.88679 14.551 7.3011 14.5351 6.71589C14.5294 6.50124 14.5341 6.28613 14.5341 6.07102C14.5163 6.0682 14.4989 6.06538 14.4811 6.06257C14.435 6.20676 14.3876 6.35095 14.343 6.49561C14.141 7.15034 13.9409 7.80554 13.738 8.46026C13.6573 8.72 13.6108 8.75146 13.3374 8.75522C13.2749 8.75616 13.2125 8.75381 13.15 8.75522C12.9504 8.76133 12.8367 8.67679 12.7851 8.47342C12.5939 7.71865 12.391 6.96716 12.1923 6.21427C12.1867 6.19314 12.1778 6.17341 12.1369 6.15274C12.1224 6.39604 12.1054 6.63933 12.0942 6.88262C12.0707 7.39739 12.0557 7.91262 12.0275 8.42739C12.0077 8.78575 11.9739 8.81064 11.6221 8.81111C11.5442 8.81111 11.4657 8.81205 11.3878 8.81111C11.1379 8.80736 11.059 8.73174 11.074 8.48985C11.1478 7.31331 11.2248 6.13724 11.3023 4.9607C11.315 4.77002 11.3911 4.69487 11.5813 4.69111C11.8387 4.68594 12.097 4.69628 12.3544 4.68782C12.5535 4.68125 12.6536 4.77518 12.7024 4.9593C12.886 5.6516 13.0744 6.34249 13.2613 7.03386C13.2792 7.10008 13.2998 7.16537 13.3219 7.24192V7.24145Z" fill="#3578DB"/>
<path d="M6.71128 7.79071H5.64183C5.57138 8.0448 5.50469 8.29185 5.43423 8.53796C5.36848 8.76764 5.31212 8.80897 5.0693 8.81179C4.96785 8.81273 4.8664 8.81179 4.76494 8.81179C4.39484 8.81085 4.32862 8.72536 4.43382 8.37921C4.617 7.77568 4.80017 7.17261 4.98475 6.56955C5.14867 6.03365 5.32104 5.5001 5.47697 4.96185C5.53474 4.7627 5.64418 4.68004 5.84755 4.68803C6.08145 4.69695 6.31629 4.69695 6.55019 4.68803C6.74275 4.68051 6.85407 4.75613 6.91184 4.94306C7.27114 6.11115 7.63796 7.27688 7.99773 8.44497C8.07569 8.69859 7.98505 8.80803 7.71498 8.81132C7.56657 8.81319 7.41815 8.80568 7.2702 8.81319C7.09219 8.82212 6.99403 8.73758 6.94612 8.57366C6.86957 8.31299 6.79066 8.05326 6.71175 7.79024L6.71128 7.79071ZM6.53938 6.98146C6.4121 6.53338 6.29421 6.11772 6.16505 5.66213C6.042 6.12383 5.92974 6.54607 5.81373 6.98146H6.53938Z" fill="#3578DB"/>
<path d="M8.73685 5.56676C8.47195 5.56676 8.23946 5.56911 8.00697 5.56629C7.73315 5.56253 7.66411 5.49161 7.65706 5.21685C7.65706 5.20886 7.65706 5.20135 7.65706 5.19336C7.65002 4.71899 7.67867 4.68987 8.15116 4.68987C8.93975 4.68987 9.72834 4.68893 10.5165 4.68987C10.7912 4.68987 10.8579 4.75891 10.8635 5.03555C10.8734 5.53623 10.8438 5.56629 10.3436 5.56629C10.1576 5.56629 9.97163 5.56629 9.75511 5.56629C9.75511 5.67056 9.75511 5.75369 9.75511 5.83682C9.75511 6.71136 9.75558 7.58637 9.75511 8.4609C9.75511 8.77559 9.718 8.81034 9.40332 8.81128C9.2704 8.81175 9.13795 8.80846 9.00504 8.81175C8.84112 8.81645 8.75986 8.7305 8.74202 8.57691C8.73403 8.5074 8.73685 8.43648 8.73685 8.3665C8.73685 7.53094 8.73685 6.69539 8.73685 5.85937C8.73685 5.77435 8.73685 5.68887 8.73685 5.56582V5.56676Z" fill="#3578DB"/>
</g>
<defs>
<clipPath id="clip0_11538_33397">
<rect width="19.9711" height="24" fill="white"/>
</clipPath>
</defs>
</svg>
