<svg width="14" height="24" viewBox="0 0 14 24" fill="none" xmlns="http://www.w3.org/2000/svg">
<g clip-path="url(#clip0_11538_33361)">
<path d="M0.000484848 21.3385V2.66121C0.016 2.62533 0.0392727 2.59139 0.0465455 2.55406C0.334545 1.0423 1.584 0.00181818 3.11612 0.000848485C5.68436 -0.000121212 8.25261 -0.000606061 10.8204 0.00133333C12.5445 0.00278788 13.9137 1.37442 13.9142 3.10291C13.9156 9.03648 13.9181 14.9701 13.9118 20.9036C13.9108 22.0585 13.3944 22.955 12.4112 23.5465C12.0621 23.7565 11.6441 23.852 11.2577 23.9999H2.65794C2.62255 23.9839 2.58909 23.9606 2.55176 23.9533C1.62473 23.7764 0.901333 23.291 0.438788 22.4697C0.242424 22.1206 0.143515 21.7172 0 21.3381L0.000484848 21.3385ZM0.789818 3.88061V18.5618H13.1307V3.88061H0.789818ZM13.1709 19.3725H0.777697C0.777697 19.931 0.755879 20.4721 0.782545 21.0103C0.834424 22.0624 1.54667 22.9095 2.56339 23.1524C2.76461 23.2004 2.97697 23.2227 3.18448 23.2232C5.70424 23.228 8.224 23.229 10.7442 23.2251C11.9035 23.2232 12.8795 22.4978 13.0686 21.403C13.1825 20.7441 13.1418 20.0585 13.1714 19.3725H13.1709ZM13.1331 3.08642C13.1224 1.82533 12.1377 0.793576 10.8771 0.781939C8.26085 0.758182 5.64412 0.766909 3.02788 0.78097C2.36364 0.784364 1.79685 1.06606 1.35418 1.57127C0.976485 2.00279 0.789818 2.50606 0.780121 3.08642H13.1326H13.1331Z" fill="#2AACE3"/>
<path d="M6.95617 22.4509C6.30841 22.4509 5.79689 21.9345 5.79883 21.2838C5.80077 20.637 6.31714 20.1289 6.97071 20.1309C7.60489 20.1328 8.11592 20.6477 8.11544 21.2848C8.11544 21.9374 7.60441 22.4509 6.95617 22.4504V22.4509ZM6.96489 21.6761C7.16514 21.6703 7.34598 21.4812 7.34162 21.2824C7.33677 21.0831 7.14671 20.8998 6.94889 20.9052C6.74962 20.9105 6.56732 21.101 6.57217 21.2989C6.5775 21.4991 6.76756 21.6814 6.96489 21.6761Z" fill="#2AACE3"/>
<path d="M6.93656 2.32186C6.57535 2.32186 6.21414 2.3238 5.85292 2.32138C5.56929 2.31944 5.40783 2.17205 5.4122 1.9272C5.41656 1.69495 5.57656 1.55095 5.84517 1.55047C6.58359 1.54805 7.32201 1.54853 8.06044 1.55047C8.34262 1.55144 8.50601 1.70077 8.50117 1.94417C8.4968 2.17641 8.33632 2.31944 8.06771 2.32138C7.6905 2.32429 7.31329 2.32235 6.93607 2.32235L6.93656 2.32186Z" fill="#3578DB"/>
</g>
<defs>
<clipPath id="clip0_11538_33361">
<rect width="13.9156" height="24" fill="white"/>
</clipPath>
</defs>
</svg>
