<svg width="34" height="42" viewBox="0 0 34 42" fill="none" xmlns="http://www.w3.org/2000/svg">
<g clip-path="url(#clip0_5589_69712)">
<path fill-rule="evenodd" clip-rule="evenodd" d="M28.5761 25.859C34.9702 29.5516 34.9702 35.5379 28.5761 39.2305C22.1838 42.9232 11.8167 42.9232 5.4248 39.2305C-0.969727 35.5379 -0.969727 29.5516 5.4248 25.859C11.8167 22.1668 22.1838 22.1668 28.5761 25.859Z" fill="#F5F6F6"/>
<path fill-rule="evenodd" clip-rule="evenodd" d="M26.5598 27.0244C31.8396 30.0721 31.8396 35.0157 26.5598 38.0647C21.2809 41.1146 12.7202 41.1146 7.4413 38.0647C2.1615 35.0153 2.1615 30.0721 7.4413 27.0244C12.7202 23.9749 21.2809 23.9749 26.5598 27.0244Z" fill="#EAE9EB"/>
<path fill-rule="evenodd" clip-rule="evenodd" d="M24.5438 28.1882C28.708 30.5949 28.708 34.4949 24.5438 36.9017C20.3774 39.3067 13.6239 39.3067 9.45713 36.9017C5.29294 34.4954 5.29294 30.5949 9.45713 28.1882C13.6239 25.7836 20.3778 25.7836 24.5438 28.1882Z" fill="#DDDEE1"/>
<path fill-rule="evenodd" clip-rule="evenodd" d="M22.5254 29.3533C25.5788 31.1151 25.5788 33.9724 22.5254 35.7356C19.4755 37.4996 14.5267 37.4996 11.4746 35.7356C8.42122 33.9724 8.42122 31.1151 11.4746 29.3533C14.5267 27.5893 19.4755 27.5893 22.5254 29.3533Z" fill="#D2D2D6"/>
<path fill-rule="evenodd" clip-rule="evenodd" d="M14.2736 23.2244L9.98843 20.75L6.6748 22.6612L10.9595 25.1364L14.2736 23.2244Z" fill="#C84637"/>
<path fill-rule="evenodd" clip-rule="evenodd" d="M24.0076 17.6101L19.722 15.1348L19.7207 20.6298L24.0054 23.1047L24.0076 17.6101Z" fill="#C03B2B"/>
<path fill-rule="evenodd" clip-rule="evenodd" d="M15.1365 28.2203L10.8496 25.7481L18.8579 21.1289L23.1431 23.6011L15.1365 28.2203Z" fill="#E64D3C"/>
<path fill-rule="evenodd" clip-rule="evenodd" d="M27.3246 8.86309L23.0399 6.38867L15.29 10.8576L19.5747 13.3329L27.3246 8.86309Z" fill="#E64D3C"/>
<path fill-rule="evenodd" clip-rule="evenodd" d="M24.0076 17.6101L19.722 15.1348L19.7207 20.6298L24.0054 23.1047L24.0076 17.6101Z" fill="#C03B2B"/>
<path fill-rule="evenodd" clip-rule="evenodd" d="M11.0264 30.5104L6.74121 28.036L6.77483 28.0495L6.81282 28.0517L6.8543 28.0456L6.89884 28.0264L11.1835 30.5008L11.139 30.5187L11.0984 30.5261L11.0595 30.5239L11.0264 30.5104Z" fill="#E64D3C"/>
<path fill-rule="evenodd" clip-rule="evenodd" d="M11.1831 30.501L6.89844 28.0266L9.98676 26.2451L14.2715 28.72L11.1831 30.501Z" fill="#E64D3C"/>
<path fill-rule="evenodd" clip-rule="evenodd" d="M23.1443 18.1082L18.8596 15.6338L10.8525 20.2525L15.1381 22.7274L23.1443 18.1082Z" fill="#E64D3C"/>
<path fill-rule="evenodd" clip-rule="evenodd" d="M23.1426 23.6011L18.8574 21.1289L18.8596 15.6338L23.1443 18.1082L23.1426 23.6011Z" fill="#E64D3C"/>
<path fill-rule="evenodd" clip-rule="evenodd" d="M19.575 13.3327L15.2903 10.8574L15.2881 16.6966L19.5728 19.1714L19.575 13.3327Z" fill="#E64D3C"/>
<path fill-rule="evenodd" clip-rule="evenodd" d="M19.575 13.3327L15.2903 10.8574L15.2881 16.6966L19.5728 19.1714L19.575 13.3327Z" fill="#E64D3C"/>
<path fill-rule="evenodd" clip-rule="evenodd" d="M27.3213 15.6978L23.0357 13.2256L19.7217 15.1346L24.0073 17.6098L27.3213 15.6978Z" fill="#C03B2B"/>
<path fill-rule="evenodd" clip-rule="evenodd" d="M27.3246 8.86309L23.0399 6.38867L15.29 10.8576L19.5747 13.3329L27.3246 8.86309Z" fill="#C84637"/>
<path fill-rule="evenodd" clip-rule="evenodd" d="M27.2587 2.49013L22.974 0.0170288L22.9404 0.00349309L22.902 0L22.8609 0.00742281L22.8164 0.0266348L27.1011 2.50192L27.1456 2.48184L27.1867 2.47442L27.2256 2.47834L27.2587 2.49013Z" fill="#E64D3C"/>
<path fill-rule="evenodd" clip-rule="evenodd" d="M18.7115 13.8291L14.4268 11.3564L6.67871 15.8258L10.9639 18.299L18.7115 13.8291Z" fill="#C03B2B"/>
<path fill-rule="evenodd" clip-rule="evenodd" d="M24.0135 4.28257L19.7287 1.80859L19.7266 7.30322L24.0113 9.77545L24.0135 4.28257Z" fill="#E64D3C"/>
<path fill-rule="evenodd" clip-rule="evenodd" d="M18.7104 19.6678L14.4248 17.1956L14.427 11.3564L18.7117 13.8291L18.7104 19.6678Z" fill="#C03B2B"/>
<path fill-rule="evenodd" clip-rule="evenodd" d="M24.0135 4.28257L19.7287 1.80859L19.7266 7.30322L24.0113 9.77545L24.0135 4.28257Z" fill="#C84637"/>
<path fill-rule="evenodd" clip-rule="evenodd" d="M15.1414 9.39824L10.8567 6.92383L10.8545 12.4189L15.1392 14.8937L15.1414 9.39824Z" fill="#A9382A"/>
<path fill-rule="evenodd" clip-rule="evenodd" d="M15.1392 14.8939L10.8545 12.4191L18.8615 7.80078L23.1484 10.2748L15.1392 14.8939Z" fill="#C03B2B"/>
<path fill-rule="evenodd" clip-rule="evenodd" d="M10.9639 17.3034L6.67871 14.8281L9.99278 12.917L14.2775 15.3914L10.9639 17.3034Z" fill="#E64D3C"/>
<path fill-rule="evenodd" clip-rule="evenodd" d="M6.85938 15.7228L6.86156 9.49023L10.9214 11.8341L10.9197 18.0658L6.85938 15.7228Z" fill="#9B9C9C"/>
<path fill-rule="evenodd" clip-rule="evenodd" d="M10.9149 24.9018L6.85547 22.5593L6.85765 19.6338L10.9149 21.9768V24.9018Z" fill="#9B9C9C"/>
<path fill-rule="evenodd" clip-rule="evenodd" d="M10.9576 30.3592L6.67285 27.8848V27.8926L10.9576 30.3666V30.3592Z" fill="#E64D3C"/>
<path fill-rule="evenodd" clip-rule="evenodd" d="M10.9576 30.3666L6.67285 27.8926L6.67897 27.941L6.69294 27.9821L6.71433 28.0131L6.74097 28.0362L11.0261 30.5106L10.999 30.4875L10.9776 30.4565L10.9641 30.4155L10.9576 30.3666Z" fill="#E64D3C"/>
<path fill-rule="evenodd" clip-rule="evenodd" d="M23.1492 10.2746L18.8623 7.80062L18.8636 2.30469L23.1509 4.77998L23.1492 10.2746Z" fill="#C03B2B"/>
<path fill-rule="evenodd" clip-rule="evenodd" d="M14.2779 15.3911L9.99316 12.9167L9.99447 7.42383L14.2801 9.89606L14.2779 15.3911Z" fill="#E64D3C"/>
<path fill-rule="evenodd" clip-rule="evenodd" d="M23.147 5.03399L18.8623 2.56176L19.7286 2.06836L24.0133 4.54277L23.147 5.03399Z" fill="#9B9C9C"/>
<path fill-rule="evenodd" clip-rule="evenodd" d="M27.3213 15.6978L23.0357 13.2256L19.7217 15.1346L24.0073 17.6098L27.3213 15.6978Z" fill="#C03B2B"/>
<path fill-rule="evenodd" clip-rule="evenodd" d="M27.2587 2.49013L22.974 0.0170288L22.9404 0.00349309L22.902 0L22.8609 0.00742281L22.8164 0.0266348L27.1011 2.50192L27.1456 2.48184L27.1867 2.47442L27.2256 2.47834L27.2587 2.49013Z" fill="#E64D3C"/>
<path fill-rule="evenodd" clip-rule="evenodd" d="M27.1015 2.50166L22.8168 0.0263672L19.7285 1.80828L24.0132 4.28226L27.1015 2.50166Z" fill="#E64D3C"/>
<path fill-rule="evenodd" clip-rule="evenodd" d="M13.9688 10.0363L9.94043 7.70906L10.8879 7.16895L14.9168 9.49621L13.9688 10.0363Z" fill="#9B9C9C"/>
<path fill-rule="evenodd" clip-rule="evenodd" d="M10.8984 11.7976L26.954 2.58105L27.016 21.1385L10.9198 30.3472L10.8984 11.7976Z" fill="#E6EAEA"/>
<path fill-rule="evenodd" clip-rule="evenodd" d="M19.5744 13.3331L19.5723 19.1718L27.3212 14.702L27.3243 8.86328L19.5744 13.3331Z" fill="#E64D3C"/>
<path fill-rule="evenodd" clip-rule="evenodd" d="M24.0071 17.6104L24.0049 23.1054L27.0836 21.3301L27.0893 21.3261C27.2142 21.2524 27.3146 21.076 27.3189 20.9301V20.9227L27.3211 15.6992L24.0075 17.6108L24.0071 17.6104Z" fill="#C03B2B"/>
<path fill-rule="evenodd" clip-rule="evenodd" d="M14.2775 15.3906L14.2797 9.89551L11.201 11.6731L11.1948 11.6752C11.073 11.7508 10.9695 11.9276 10.966 12.0713V12.0787L10.9639 17.3022L14.2775 15.3906Z" fill="#E64D3C"/>
<path fill-rule="evenodd" clip-rule="evenodd" d="M14.2716 28.7201L14.2738 23.2246L10.9602 25.1362L10.958 30.3592V30.3667C10.9619 30.5073 11.0615 30.5653 11.1855 30.5007L14.2716 28.7197V28.7201Z" fill="#E64D3C"/>
<path fill-rule="evenodd" clip-rule="evenodd" d="M23.1489 10.2749L23.1506 4.78027L15.1418 9.39857L15.1396 14.8941L23.1489 10.2749Z" fill="#C03B2B"/>
<path fill-rule="evenodd" clip-rule="evenodd" d="M23.1423 23.6013L23.1441 18.1084L15.1379 22.7276L15.1357 28.2204L23.1423 23.6013Z" fill="#E64D3C"/>
<path fill-rule="evenodd" clip-rule="evenodd" d="M15.1386 22.7278L14.9133 22.5977L14.9111 28.0905L15.1364 28.2207L15.1386 22.7278Z" fill="#C84637"/>
<path fill-rule="evenodd" clip-rule="evenodd" d="M24.0091 17.6096L23.7846 17.4795L23.7803 22.9741L24.0056 23.1042L24.0091 17.6096Z" fill="#A9382A"/>
<path fill-rule="evenodd" clip-rule="evenodd" d="M19.5742 13.3323L19.3506 13.2021L19.3467 19.0408L19.572 19.171L19.5742 13.3323Z" fill="#C84637"/>
<path fill-rule="evenodd" clip-rule="evenodd" d="M15.1421 9.39878L14.9168 9.26953L14.915 14.7642L15.1399 14.8943L15.1421 9.39878Z" fill="#A9382A"/>
<path fill-rule="evenodd" clip-rule="evenodd" d="M24.0126 4.28246L23.7869 4.15234L23.7852 9.64522L24.0105 9.77534L24.0126 4.28246Z" fill="#C84637"/>
<path fill-rule="evenodd" clip-rule="evenodd" d="M27.3222 8.86254L27.0987 8.73242L19.3506 13.2023L19.5741 13.3324L27.3222 8.86254Z" fill="#C84637"/>
<path fill-rule="evenodd" clip-rule="evenodd" d="M18.7117 13.8298L18.4868 13.6992L10.7383 18.1691L10.964 18.2996L18.7117 13.8298Z" fill="#C03B2B"/>
<path fill-rule="evenodd" clip-rule="evenodd" d="M14.2797 9.89606L9.99409 7.42383L6.9158 9.19963L6.90969 9.20094L6.86515 9.23456L6.8228 9.27473L6.7835 9.32145L6.75076 9.37428L6.7215 9.42842L6.70011 9.4865L6.68657 9.54282L6.68089 9.5974V9.60526L6.67871 14.8279L10.9639 17.3031L10.9656 12.0797V12.0718L10.9713 12.0177L10.9848 11.9596L11.0062 11.9028L11.0355 11.8487L11.0686 11.7959L11.1075 11.7491L11.1499 11.709L11.1944 11.6758L11.2009 11.6719L14.2797 9.89606Z" fill="#C84637"/>
<path fill-rule="evenodd" clip-rule="evenodd" d="M24.0129 4.28228L24.0107 9.77516L27.3244 7.864L27.3266 2.64097V2.63267C27.3226 2.49295 27.2239 2.43444 27.1012 2.50124L24.0129 4.28228Z" fill="#E64D3C"/>
<path fill-rule="evenodd" clip-rule="evenodd" d="M27.1015 2.50166L22.8168 0.0263672L19.7285 1.80828L24.0132 4.28226L27.1015 2.50166Z" fill="#C84637"/>
<path fill-rule="evenodd" clip-rule="evenodd" d="M23.1509 4.77998L18.8636 2.30469L10.8574 6.92386L15.1421 9.39827L23.1509 4.77998Z" fill="#A9382A"/>
<path fill-rule="evenodd" clip-rule="evenodd" d="M10.9639 18.2993L6.67873 15.8262L6.6748 21.6649L10.9617 24.1402L10.9639 18.2993Z" fill="#A9382A"/>
<path fill-rule="evenodd" clip-rule="evenodd" d="M10.9597 25.1364L6.67503 22.6611L6.67285 27.8846L10.9576 30.359L10.9597 25.1364Z" fill="#C84637"/>
<path fill-rule="evenodd" clip-rule="evenodd" d="M19.5744 13.3321L19.5723 19.1708L27.3212 14.701L27.3243 8.8623L19.5744 13.3321Z" fill="#E64D3C"/>
<path fill-rule="evenodd" clip-rule="evenodd" d="M24.0129 4.28228L24.0107 9.77516L27.3244 7.864L27.3266 2.64097V2.63267C27.3226 2.49295 27.2239 2.43444 27.1012 2.50124L24.0129 4.28228Z" fill="#E64D3C"/>
<path fill-rule="evenodd" clip-rule="evenodd" d="M24.0071 17.6094L24.0049 23.1045L27.0836 21.3291L27.0893 21.3252C27.2142 21.2514 27.3146 21.075 27.3189 20.9291V20.9217L27.3211 15.6982L24.0075 17.6098L24.0071 17.6094Z" fill="#C03B2B"/>
<path fill-rule="evenodd" clip-rule="evenodd" d="M18.7105 19.6678L18.7118 13.8291L10.9641 18.2989L10.9619 24.1376L18.7105 19.6678Z" fill="#C03B2B"/>
<path fill-rule="evenodd" clip-rule="evenodd" d="M14.2775 15.3906L14.2797 9.89551L11.201 11.6731L11.1948 11.6752C11.073 11.7508 10.9695 11.9276 10.966 12.0713V12.0787L10.9639 17.3022L14.2775 15.3906Z" fill="#E64D3C"/>
<path fill-rule="evenodd" clip-rule="evenodd" d="M14.2716 28.7201L14.2738 23.2246L10.9602 25.1362L10.958 30.3592V30.3667C10.9619 30.5073 11.0615 30.5653 11.1855 30.5007L14.2716 28.7197V28.7201Z" fill="#E64D3C"/>
<path fill-rule="evenodd" clip-rule="evenodd" d="M23.1489 10.2749L23.1506 4.78027L15.1418 9.39857L15.1396 14.8941L23.1489 10.2749Z" fill="#C03B2B"/>
<path fill-rule="evenodd" clip-rule="evenodd" d="M23.1423 23.6013L23.1441 18.1084L15.1379 22.7276L15.1357 28.2204L23.1423 23.6013Z" fill="#E64D3C"/>
<path fill-rule="evenodd" clip-rule="evenodd" d="M14.2735 23.2244L14.0478 23.0947L10.7363 25.0059L10.9594 25.1364L14.2735 23.2244Z" fill="#C84637"/>
<path fill-rule="evenodd" clip-rule="evenodd" d="M23.1445 18.1086L22.9192 17.9785L14.9131 22.5977L15.1384 22.7278L23.1445 18.1086Z" fill="#C84637"/>
<path fill-rule="evenodd" clip-rule="evenodd" d="M27.3214 15.6982L26.9983 15.5117V15.6266L23.7842 17.4801L24.0086 17.6102L27.3214 15.6982Z" fill="#A9382A"/>
</g>
<defs>
<clipPath id="clip0_5589_69712">
<rect width="32.7429" height="42" fill="white" transform="translate(0.628906)"/>
</clipPath>
</defs>
</svg>
