<svg width="353" height="55" viewBox="0 0 353 55" fill="none" xmlns="http://www.w3.org/2000/svg">
<path d="M101 16.002L248 16.002" stroke="#D2D2D2" stroke-width="2"/>
<path d="M245.214 50.212C244.435 50.212 243.747 50.051 243.149 49.729C242.552 49.407 242.083 48.9566 241.742 48.378C241.406 47.7946 241.238 47.111 241.238 46.327V39.929L242.498 39.922V46.222C242.498 46.698 242.578 47.1133 242.736 47.468C242.9 47.818 243.114 48.1096 243.38 48.343C243.646 48.5763 243.938 48.7513 244.255 48.868C244.577 48.98 244.897 49.036 245.214 49.036C245.536 49.036 245.858 48.9776 246.18 48.861C246.502 48.7443 246.794 48.5716 247.055 48.343C247.321 48.1096 247.534 47.8156 247.692 47.461C247.851 47.1063 247.93 46.6933 247.93 46.222V39.922H249.19V46.327C249.19 47.1063 249.02 47.7876 248.679 48.371C248.343 48.9543 247.877 49.407 247.279 49.729C246.682 50.051 245.994 50.212 245.214 50.212ZM254.622 50.212C253.913 50.212 253.316 50.037 252.83 49.687C252.345 49.3323 251.976 48.854 251.724 48.252C251.477 47.6453 251.353 46.9663 251.353 46.215C251.353 45.4543 251.477 44.773 251.724 44.171C251.976 43.569 252.345 43.0953 252.83 42.75C253.32 42.4046 253.92 42.232 254.629 42.232C255.329 42.232 255.931 42.407 256.435 42.757C256.944 43.1023 257.334 43.576 257.604 44.178C257.875 44.78 258.01 45.459 258.01 46.215C258.01 46.971 257.875 47.65 257.604 48.252C257.334 48.854 256.944 49.3323 256.435 49.687C255.931 50.037 255.327 50.212 254.622 50.212ZM251.143 53.362V42.442H252.256V48.007H252.396V53.362H251.143ZM254.468 49.071C254.968 49.071 255.381 48.945 255.707 48.693C256.034 48.441 256.279 48.1003 256.442 47.671C256.606 47.237 256.687 46.7516 256.687 46.215C256.687 45.683 256.606 45.2023 256.442 44.773C256.284 44.3436 256.036 44.003 255.7 43.751C255.369 43.499 254.947 43.373 254.433 43.373C253.943 43.373 253.537 43.4943 253.215 43.737C252.893 43.975 252.653 44.3086 252.494 44.738C252.336 45.1626 252.256 45.655 252.256 46.215C252.256 46.7656 252.333 47.258 252.487 47.692C252.646 48.1213 252.889 48.4596 253.215 48.707C253.542 48.9496 253.96 49.071 254.468 49.071ZM259.685 50.002V39.712H260.931V50.002H259.685ZM266.251 50.212C265.5 50.212 264.851 50.0416 264.305 49.701C263.764 49.3603 263.346 48.889 263.052 48.287C262.758 47.685 262.611 46.9943 262.611 46.215C262.611 45.4216 262.761 44.7263 263.059 44.129C263.358 43.5316 263.78 43.0673 264.326 42.736C264.872 42.4 265.514 42.232 266.251 42.232C267.007 42.232 267.658 42.4023 268.204 42.743C268.75 43.079 269.168 43.548 269.457 44.15C269.751 44.7473 269.898 45.4356 269.898 46.215C269.898 47.0036 269.751 47.699 269.457 48.301C269.163 48.8983 268.743 49.3673 268.197 49.708C267.651 50.044 267.003 50.212 266.251 50.212ZM266.251 49.029C267.035 49.029 267.619 48.7676 268.001 48.245C268.384 47.7223 268.575 47.0456 268.575 46.215C268.575 45.361 268.382 44.682 267.994 44.178C267.607 43.6693 267.026 43.415 266.251 43.415C265.724 43.415 265.29 43.534 264.949 43.772C264.609 44.01 264.354 44.339 264.186 44.759C264.018 45.179 263.934 45.6643 263.934 46.215C263.934 47.0643 264.13 47.7456 264.522 48.259C264.914 48.7723 265.491 49.029 266.251 49.029ZM273.588 50.212C273.024 50.212 272.55 50.1093 272.167 49.904C271.789 49.694 271.502 49.4186 271.306 49.078C271.115 48.7373 271.019 48.364 271.019 47.958C271.019 47.5613 271.094 47.2183 271.243 46.929C271.397 46.635 271.612 46.3923 271.887 46.201C272.163 46.005 272.492 45.851 272.874 45.739C273.234 45.641 273.635 45.557 274.078 45.487C274.526 45.4123 274.979 45.3446 275.436 45.284C275.894 45.2233 276.321 45.165 276.717 45.109L276.269 45.368C276.283 44.696 276.148 44.199 275.863 43.877C275.583 43.555 275.098 43.394 274.407 43.394C273.95 43.394 273.549 43.499 273.203 43.709C272.863 43.9143 272.622 44.2503 272.482 44.717L271.299 44.36C271.481 43.6973 271.834 43.177 272.356 42.799C272.879 42.421 273.567 42.232 274.421 42.232C275.107 42.232 275.695 42.3556 276.185 42.603C276.68 42.8456 277.035 43.2143 277.249 43.709C277.357 43.9423 277.424 44.1966 277.452 44.472C277.48 44.7426 277.494 45.0273 277.494 45.326V50.002H276.388V48.189L276.647 48.357C276.363 48.9683 275.964 49.4303 275.45 49.743C274.942 50.0556 274.321 50.212 273.588 50.212ZM273.777 49.169C274.225 49.169 274.613 49.0896 274.939 48.931C275.271 48.7676 275.537 48.5553 275.737 48.294C275.938 48.028 276.069 47.7386 276.129 47.426C276.199 47.1926 276.237 46.9336 276.241 46.649C276.251 46.3596 276.255 46.138 276.255 45.984L276.689 46.173C276.283 46.229 275.884 46.2826 275.492 46.334C275.1 46.3853 274.729 46.4413 274.379 46.502C274.029 46.558 273.714 46.6256 273.434 46.705C273.229 46.7703 273.035 46.8543 272.853 46.957C272.676 47.0596 272.531 47.1926 272.419 47.356C272.312 47.5146 272.258 47.713 272.258 47.951C272.258 48.1563 272.31 48.3523 272.412 48.539C272.52 48.7256 272.683 48.8773 272.902 48.994C273.126 49.1106 273.418 49.169 273.777 49.169ZM282.282 50.212C281.578 50.212 280.973 50.037 280.469 49.687C279.965 49.3323 279.576 48.854 279.3 48.252C279.03 47.65 278.894 46.971 278.894 46.215C278.894 45.459 279.03 44.78 279.3 44.178C279.576 43.576 279.965 43.1023 280.469 42.757C280.973 42.407 281.575 42.232 282.275 42.232C282.989 42.232 283.589 42.4046 284.074 42.75C284.56 43.0953 284.926 43.569 285.173 44.171C285.425 44.773 285.551 45.4543 285.551 46.215C285.551 46.9663 285.425 47.6453 285.173 48.252C284.926 48.854 284.56 49.3323 284.074 49.687C283.589 50.037 282.992 50.212 282.282 50.212ZM282.436 49.071C282.945 49.071 283.363 48.9496 283.689 48.707C284.016 48.4596 284.256 48.1213 284.41 47.692C284.569 47.258 284.648 46.7656 284.648 46.215C284.648 45.655 284.569 45.1626 284.41 44.738C284.256 44.3086 284.018 43.975 283.696 43.737C283.374 43.4943 282.966 43.373 282.471 43.373C281.958 43.373 281.533 43.499 281.197 43.751C280.866 44.003 280.619 44.3436 280.455 44.773C280.297 45.2023 280.217 45.683 280.217 46.215C280.217 46.7516 280.299 47.237 280.462 47.671C280.626 48.1003 280.871 48.441 281.197 48.693C281.529 48.945 281.942 49.071 282.436 49.071ZM284.648 50.002V44.437H284.508V39.922H285.761V50.002H284.648Z" fill="#110000" fill-opacity="0.38"/>
<rect x="248" y="0.00195312" width="32" height="32" rx="16" fill="#D2D2D2"/>
<path d="M259.915 21.502H267.352V20.252H261.844V20.2207L264.524 17.4707C266.594 15.3535 267.165 14.4238 267.165 13.1895V13.1738C267.165 11.4082 265.672 10.041 263.633 10.041C261.532 10.041 259.844 11.4863 259.844 13.4395V13.4863H261.204V13.4473C261.204 12.2363 262.25 11.2676 263.657 11.2676C264.883 11.2676 265.75 12.0957 265.758 13.2441V13.2598C265.758 14.1973 265.407 14.8066 263.883 16.3926L259.915 20.5332V21.502Z" fill="white"/>
<path d="M67.1724 50.212C66.4351 50.212 65.7701 50.0836 65.1774 49.827C64.5894 49.5703 64.1041 49.204 63.7214 48.728C63.3434 48.2473 63.1031 47.678 63.0004 47.02L64.7504 46.754C64.8998 47.3513 65.2054 47.8133 65.6674 48.14C66.1341 48.4666 66.6708 48.63 67.2774 48.63C67.6368 48.63 67.9751 48.574 68.2924 48.462C68.6098 48.35 68.8664 48.1866 69.0624 47.972C69.2631 47.7573 69.3634 47.4936 69.3634 47.181C69.3634 47.041 69.3401 46.9126 69.2934 46.796C69.2468 46.6746 69.1768 46.5673 69.0834 46.474C68.9948 46.3806 68.8781 46.2966 68.7334 46.222C68.5934 46.1426 68.4301 46.075 68.2434 46.019L65.6394 45.249C65.4154 45.1836 65.1728 45.0973 64.9114 44.99C64.6548 44.878 64.4098 44.7263 64.1764 44.535C63.9478 44.339 63.7588 44.0916 63.6094 43.793C63.4648 43.4896 63.3924 43.1163 63.3924 42.673C63.3924 42.0243 63.5558 41.4806 63.8824 41.042C64.2138 40.5986 64.6571 40.2673 65.2124 40.048C65.7724 39.8286 66.3931 39.7213 67.0744 39.726C67.7651 39.7306 68.3811 39.8496 68.9224 40.083C69.4638 40.3116 69.9164 40.6453 70.2804 41.084C70.6444 41.5226 70.9011 42.0523 71.0504 42.673L69.2374 42.988C69.1628 42.6333 69.0181 42.3323 68.8034 42.085C68.5934 41.833 68.3344 41.6416 68.0264 41.511C67.7231 41.3803 67.3988 41.3103 67.0534 41.301C66.7174 41.2963 66.4048 41.3476 66.1154 41.455C65.8308 41.5576 65.5998 41.707 65.4224 41.903C65.2498 42.099 65.1634 42.3276 65.1634 42.589C65.1634 42.8363 65.2381 43.0393 65.3874 43.198C65.5368 43.352 65.7211 43.4756 65.9404 43.569C66.1644 43.6576 66.3908 43.7323 66.6194 43.793L68.4254 44.297C68.6728 44.3623 68.9504 44.451 69.2584 44.563C69.5664 44.675 69.8628 44.8313 70.1474 45.032C70.4321 45.2326 70.6654 45.4963 70.8474 45.823C71.0341 46.1496 71.1274 46.565 71.1274 47.069C71.1274 47.5916 71.0178 48.0513 70.7984 48.448C70.5838 48.84 70.2921 49.1666 69.9234 49.428C69.5548 49.6893 69.1324 49.8853 68.6564 50.016C68.1851 50.1466 67.6904 50.212 67.1724 50.212ZM76.0796 50.212C75.3143 50.212 74.6423 50.0463 74.0636 49.715C73.4849 49.3836 73.0323 48.924 72.7056 48.336C72.3836 47.748 72.2226 47.0713 72.2226 46.306C72.2226 45.48 72.3813 44.7636 72.6986 44.157C73.0159 43.5456 73.4569 43.072 74.0216 42.736C74.5863 42.4 75.2396 42.232 75.9816 42.232C76.7656 42.232 77.4306 42.4163 77.9766 42.785C78.5273 43.149 78.9356 43.6646 79.2016 44.332C79.4676 44.9993 79.5679 45.7856 79.5026 46.691H77.8296V46.075C77.8249 45.2536 77.6803 44.654 77.3956 44.276C77.1109 43.898 76.6629 43.709 76.0516 43.709C75.3609 43.709 74.8476 43.9236 74.5116 44.353C74.1756 44.7776 74.0076 45.4006 74.0076 46.222C74.0076 46.9873 74.1756 47.58 74.5116 48C74.8476 48.42 75.3376 48.63 75.9816 48.63C76.3969 48.63 76.7539 48.539 77.0526 48.357C77.3559 48.1703 77.5893 47.902 77.7526 47.552L79.4186 48.056C79.1293 48.7373 78.6813 49.267 78.0746 49.645C77.4726 50.023 76.8076 50.212 76.0796 50.212ZM73.4756 46.691V45.417H78.6766V46.691H73.4756ZM81.2045 50.002V39.712H82.8915V50.002H81.2045ZM88.4253 50.212C87.66 50.212 86.988 50.0463 86.4093 49.715C85.8306 49.3836 85.378 48.924 85.0513 48.336C84.7293 47.748 84.5683 47.0713 84.5683 46.306C84.5683 45.48 84.727 44.7636 85.0443 44.157C85.3616 43.5456 85.8026 43.072 86.3673 42.736C86.932 42.4 87.5853 42.232 88.3273 42.232C89.1113 42.232 89.7763 42.4163 90.3223 42.785C90.873 43.149 91.2813 43.6646 91.5473 44.332C91.8133 44.9993 91.9136 45.7856 91.8483 46.691H90.1753V46.075C90.1706 45.2536 90.026 44.654 89.7413 44.276C89.4566 43.898 89.0086 43.709 88.3973 43.709C87.7066 43.709 87.1933 43.9236 86.8573 44.353C86.5213 44.7776 86.3533 45.4006 86.3533 46.222C86.3533 46.9873 86.5213 47.58 86.8573 48C87.1933 48.42 87.6833 48.63 88.3273 48.63C88.7426 48.63 89.0996 48.539 89.3983 48.357C89.7016 48.1703 89.935 47.902 90.0983 47.552L91.7643 48.056C91.475 48.7373 91.027 49.267 90.4203 49.645C89.8183 50.023 89.1533 50.212 88.4253 50.212ZM85.8213 46.691V45.417H91.0223V46.691H85.8213ZM96.6932 50.212C95.9138 50.212 95.2488 50.0393 94.6982 49.694C94.1475 49.344 93.7252 48.868 93.4312 48.266C93.1418 47.664 92.9948 46.9826 92.9902 46.222C92.9948 45.4473 93.1465 44.7613 93.4452 44.164C93.7485 43.562 94.1778 43.0906 94.7332 42.75C95.2885 42.4046 95.9488 42.232 96.7142 42.232C97.5728 42.232 98.2985 42.449 98.8912 42.883C99.4885 43.3123 99.8782 43.9003 100.06 44.647L98.3802 45.102C98.2495 44.696 98.0325 44.381 97.7292 44.157C97.4258 43.9283 97.0805 43.814 96.6932 43.814C96.2545 43.814 95.8928 43.919 95.6082 44.129C95.3235 44.3343 95.1135 44.619 94.9782 44.983C94.8428 45.347 94.7752 45.76 94.7752 46.222C94.7752 46.9406 94.9362 47.5216 95.2582 47.965C95.5802 48.4083 96.0585 48.63 96.6932 48.63C97.1412 48.63 97.4935 48.5273 97.7502 48.322C98.0115 48.1166 98.2075 47.8203 98.3382 47.433L100.06 47.818C99.8268 48.588 99.4185 49.1806 98.8352 49.596C98.2518 50.0066 97.5378 50.212 96.6932 50.212ZM105.894 50.002C105.395 50.0953 104.905 50.135 104.424 50.121C103.948 50.1116 103.521 50.0253 103.143 49.862C102.765 49.694 102.478 49.4303 102.282 49.071C102.109 48.7443 102.018 48.4106 102.009 48.07C102 47.7293 101.995 47.3443 101.995 46.915V40.342H103.675V46.817C103.675 47.1203 103.677 47.3863 103.682 47.615C103.691 47.8436 103.74 48.0303 103.829 48.175C103.997 48.455 104.265 48.6113 104.634 48.644C105.003 48.6766 105.423 48.658 105.894 48.588V50.002ZM100.623 43.765V42.442H105.894V43.765H100.623Z" fill="#323232"/>
<rect x="69.0005" y="0.00195312" width="32" height="32" rx="16" fill="#2AACE3"/>
<path d="M84.7896 21.502H86.1489V10.2285H84.7739L81.7739 12.3848V13.7988L84.7583 11.7207H84.7896V21.502Z" fill="white"/>
</svg>
