<svg width="22" height="28" viewBox="0 0 22 28" fill="none" xmlns="http://www.w3.org/2000/svg">
<g clip-path="url(#clip0_6407_26181)">
<path fill-rule="evenodd" clip-rule="evenodd" d="M18.5109 17.5109C22.6442 19.9109 22.6442 23.7776 18.5109 26.1776C14.3776 28.5776 7.622 28.5776 3.48867 26.1776C-0.644661 23.7776 -0.644661 19.9109 3.48867 17.5109C7.622 15.1109 14.3776 15.1109 18.5109 17.5109V17.5109Z" fill="#F5F5F5"/>
<path fill-rule="evenodd" clip-rule="evenodd" d="M17.1776 18.2665C20.5998 20.222 20.5998 23.4665 17.1776 25.422C13.7554 27.422 8.19983 27.422 4.7776 25.422C1.35538 23.4665 1.35538 20.222 4.7776 18.2665C8.19983 16.3109 13.7554 16.3109 17.1776 18.2665Z" fill="#E9E9EB"/>
<path fill-rule="evenodd" clip-rule="evenodd" d="M15.8892 19.0221C18.6003 20.5777 18.6003 23.111 15.8892 24.6666C13.1781 26.2221 8.82257 26.2221 6.11146 24.6666C3.40035 23.111 3.40035 20.5777 6.11146 19.0221C8.82257 17.4666 13.1781 17.4666 15.8892 19.0221V19.0221Z" fill="#DDDEE1"/>
<path fill-rule="evenodd" clip-rule="evenodd" d="M14.5999 19.7778C16.5999 20.9334 16.5999 22.7556 14.5999 23.9111C12.6443 25.0667 9.39989 25.0667 7.44434 23.9111C5.44434 22.7556 5.44434 20.9334 7.44434 19.7778C9.44434 18.6222 12.6443 18.6222 14.5999 19.7778Z" fill="#D1D2D6"/>
<path fill-rule="evenodd" clip-rule="evenodd" d="M19.2227 15.8669V13.5558C19.2227 11.7336 16.956 11.0669 15.4005 10.9336C15.2671 11.2003 15.1338 11.4669 15.0005 11.7336V11.8225C15.356 12.8003 13.9338 14.2225 12.4227 14.8003C11.3116 15.2003 10.156 15.0669 9.08937 14.6225C7.93381 14.178 7.26714 13.5558 7.35603 12.978C6.55603 14.0003 5.48937 14.7558 4.60048 15.6891L4.4227 15.8669L4.28937 16.0447L4.15603 16.2225L4.0227 16.4003L3.88937 16.578L3.75603 16.7558L3.6227 16.9336L3.53381 17.1114L3.44492 17.2891L3.35603 17.4669L3.26714 17.6447V17.8669L3.13381 18.0892V18.4891L3.04492 18.7114V20.578C3.04492 21.2892 3.13381 21.4669 3.88937 21.8669C9.71159 25.2003 19.1783 17.1114 19.1783 15.7336L19.2227 15.8669Z" fill="#E6EAEB"/>
<path fill-rule="evenodd" clip-rule="evenodd" d="M19.2222 15.8664V13.5553C19.2222 11.9109 17.3556 11.1998 15.8444 10.9775C15.9778 11.1553 16.0667 11.3775 16.1556 11.6442C16.2444 11.9998 16.2444 12.3998 16.1556 12.7109C16.1111 12.9775 15.9778 13.2442 15.8444 13.4664C15.7111 13.7331 15.5333 13.9553 15.3111 14.222C15 14.5331 14.6444 14.8887 14.2889 15.1553C13.8889 15.422 13.4889 15.6886 13.0444 15.8664H12.9556L12.8222 15.9553C12.5111 16.0886 12.1556 16.1775 11.8 16.222C11.4444 16.2664 11.0889 16.3109 10.7333 16.2664C10.3778 16.2664 10.0222 16.1775 9.66667 16.1331C9.31111 16.0442 8.91111 15.9553 8.6 15.822C8.24445 15.6887 7.93333 15.5109 7.62222 15.3331C7.31111 15.1553 7.08889 14.9775 6.86667 14.7553C6.64445 14.5331 6.46667 14.3109 6.33333 14.0887C5.75556 14.6664 5.13333 15.1553 4.55556 15.7775L4.37778 15.9553L4.24444 16.1331L4.11111 16.3109L3.97778 16.4887L3.84444 16.6664L3.71111 16.8442L3.57778 17.022L3.48889 17.1998L3.4 17.3775L3.31111 17.5553L3.22222 17.7331V17.9553L3.08889 18.1775V18.5775L3 18.7998V20.6664C3 21.3775 3.08889 21.5553 3.84444 21.9553C9.66667 25.2887 19.1333 17.1998 19.1333 15.822L19.2222 15.8664Z" fill="#FF9A2E"/>
<path fill-rule="evenodd" clip-rule="evenodd" d="M7.31161 12.9774C7.31161 12.9774 7.75605 12.4885 7.88939 12.3107C8.06717 11.9996 8.06717 11.8663 8.11161 11.5107C9.71161 13.3774 13.4894 14.4441 14.9116 11.8219C15.3116 12.7996 13.8894 14.2219 12.3783 14.7996C11.2672 15.1996 10.1116 15.0663 9.04494 14.6219C7.88939 14.1774 7.22272 13.5552 7.31161 12.9774V12.9774Z" fill="#E3CCA4"/>
<path fill-rule="evenodd" clip-rule="evenodd" d="M15.8002 10.9775H15.489C15.489 10.9775 15.7557 11.422 15.8446 11.6887C15.9335 11.9998 15.889 12.3553 15.8446 12.622C15.8002 12.8442 15.7113 13.0664 15.5779 13.3331C15.4446 13.5553 15.2668 13.822 15.089 14.0442C14.8224 14.3553 14.4668 14.6664 14.1113 14.9331C13.7557 15.1998 13.3113 15.422 12.9113 15.5998H12.8668L12.7335 15.6886C12.4224 15.822 12.1113 15.8664 11.8002 15.9109C11.4446 15.9553 11.1335 15.9553 10.7779 15.9553C10.4224 15.9553 10.1113 15.9109 9.75571 15.822C9.40015 15.7331 9.0446 15.6442 8.68904 15.5109C8.33349 15.3775 8.02237 15.2442 7.75571 15.0664C7.48904 14.8886 7.22237 14.7109 7.0446 14.5331C6.82237 14.3109 6.6446 14.0886 6.55571 13.8664V13.9553H6.46682V14.0442H6.37793C6.51126 14.3109 6.68904 14.5331 6.91126 14.7553C7.13349 14.9331 7.35571 15.1553 7.66682 15.3331C7.93348 15.5109 8.28904 15.6442 8.6446 15.822C9.00015 15.9553 9.35571 16.0886 9.71126 16.1331C10.0668 16.222 10.4224 16.2664 10.7779 16.2664C11.1335 16.2664 11.489 16.2664 11.8446 16.222C12.2002 16.1775 12.5113 16.0886 12.8668 15.9553H13.0002V15.8664C13.489 15.6886 13.9335 15.422 14.3335 15.1553C14.7335 14.8886 15.089 14.5775 15.3557 14.222C15.5779 13.9998 15.7557 13.7331 15.889 13.4664C16.0224 13.1998 16.1113 12.9775 16.2002 12.7109C16.2446 12.3998 16.289 11.9998 16.2002 11.6442C16.1557 11.3775 16.0668 11.1553 15.889 10.9775H15.8002Z" fill="#9C9C9C"/>
<path fill-rule="evenodd" clip-rule="evenodd" d="M14.022 13.0663C14.6443 12.4885 15.1332 11.4218 15.5776 10.4441C16.2443 9.11074 16.1998 7.59963 16.1998 6.39963L15.9776 5.68852C15.8887 5.37741 15.8887 5.06629 15.8887 4.75518C15.8887 4.35518 15.8887 3.99963 15.6665 3.82185C15.3554 3.51074 14.822 3.99963 14.1998 4.53296C13.7998 4.88852 13.3554 5.28852 12.8665 5.55518C12.3776 5.82185 11.9332 5.95518 11.5332 6.08852C11.1332 6.17741 10.7776 6.31074 10.4665 6.53296C10.022 6.93296 10.022 7.24407 10.022 7.7774C10.022 8.31074 10.022 8.79963 9.75538 9.91074V9.55518L9.66649 9.46629V9.28852H9.62205V9.11074L9.53316 9.02185V8.93296L9.44427 8.84407V8.75518H9.35538V8.62185H9.26649V8.53296H9.1776V8.44407H9.08872V8.35518H8.95538V8.26629H8.15538V8.35518H8.02205V8.44407H7.93316V8.53296H7.84427V8.62185H7.79983V8.71074H7.75538V8.79963H7.71094V8.93296V9.19963V9.73296V9.82185C7.79983 10.1774 8.02205 10.6218 8.19983 10.933C8.24427 11.0218 8.19983 11.2885 8.15538 11.4663C9.31094 12.7552 10.9998 13.6885 12.3332 13.6885C12.9109 13.6885 13.622 13.4663 14.0665 13.0218L14.022 13.0663Z" fill="#FFE7BD"/>
<path fill-rule="evenodd" clip-rule="evenodd" d="M6.64481 3.11091C5.57814 5.06647 6.24481 10.3998 8.11147 11.5998C8.11147 11.5109 8.28925 11.1109 8.20036 10.9776C8.02259 10.6665 7.84481 10.222 7.75592 9.86647C7.35592 8.08869 9.44481 7.28869 9.84481 9.86647C10.1559 8.75536 10.1115 8.26647 10.1115 7.73314C10.1115 7.1998 10.1115 6.88869 10.5559 6.48869C10.867 6.22203 11.2226 6.13314 11.6226 6.04425C12.0226 5.91091 12.467 5.82203 12.9559 5.51091C13.4448 5.24425 13.8893 4.84425 14.2893 4.48869C14.9115 3.95536 15.4004 3.51091 15.7559 3.77758C15.9781 3.95536 15.9781 4.31091 15.9781 4.71091C15.9781 5.02203 15.9781 5.33314 16.067 5.64425L16.2893 6.35536C16.3337 5.42203 16.2893 4.31091 16.2004 3.37758C15.9337 1.64425 15.1781 1.55536 13.0004 0.444247C12.6004 0.310914 12.1559 -0.000197411 11.4893 -0.000197411C9.84481 -0.0446419 7.44481 1.82202 6.64481 3.11091Z" fill="#2C3E50"/>
</g>
<defs>
<clipPath id="clip0_6407_26181">
<rect width="21.2444" height="28" fill="white" transform="translate(0.37793)"/>
</clipPath>
</defs>
</svg>
