<svg width="34" height="34" viewBox="0 0 34 34" fill="none" xmlns="http://www.w3.org/2000/svg">
<circle cx="17" cy="17" r="16.3333" fill="#F8F8F8" stroke="#2AACE3" stroke-width="1.33333"/>
<mask id="path-2-inside-1_12052_24326" fill="white">
<path fill-rule="evenodd" clip-rule="evenodd" d="M4.25 28.2441V27.6237C4.25 23.3843 12.7447 21.2487 17 21.2487C21.2553 21.2487 29.75 23.3843 29.75 27.6237V28.2441C26.635 31.7734 22.0774 33.9993 17 33.9993C11.9226 33.9993 7.36501 31.7734 4.25 28.2441ZM17 7.08203C13.4778 7.08203 10.625 9.93484 10.625 13.457C10.625 16.9792 13.4778 19.832 17 19.832C20.5222 19.832 23.375 16.9792 23.375 13.457C23.375 9.93484 20.5222 7.08203 17 7.08203Z"/>
</mask>
<path fill-rule="evenodd" clip-rule="evenodd" d="M4.25 28.2441V27.6237C4.25 23.3843 12.7447 21.2487 17 21.2487C21.2553 21.2487 29.75 23.3843 29.75 27.6237V28.2441C26.635 31.7734 22.0774 33.9993 17 33.9993C11.9226 33.9993 7.36501 31.7734 4.25 28.2441ZM17 7.08203C13.4778 7.08203 10.625 9.93484 10.625 13.457C10.625 16.9792 13.4778 19.832 17 19.832C20.5222 19.832 23.375 16.9792 23.375 13.457C23.375 9.93484 20.5222 7.08203 17 7.08203Z" fill="#2AACE3"/>
<path d="M4.25 28.2441H2.91667V28.7484L3.25035 29.1264L4.25 28.2441ZM29.75 28.2441L30.7497 29.1264L31.0833 28.7484V28.2441H29.75ZM5.58333 28.2441V27.6237H2.91667V28.2441H5.58333ZM5.58333 27.6237C5.58333 27.0536 5.85835 26.4555 6.54809 25.8189C7.24688 25.174 8.27867 24.5835 9.52509 24.0841C12.0201 23.0847 15.039 22.582 17 22.582V19.9154C14.7057 19.9154 11.3496 20.4806 8.53343 21.6087C7.12426 22.1732 5.76642 22.9115 4.73948 23.8593C3.70349 24.8155 2.91667 26.0741 2.91667 27.6237H5.58333ZM17 22.582C18.961 22.582 21.9799 23.0847 24.4749 24.0841C25.7213 24.5835 26.7531 25.174 27.4519 25.8189C28.1417 26.4555 28.4167 27.0536 28.4167 27.6237H31.0833C31.0833 26.0741 30.2965 24.8155 29.2605 23.8593C28.2336 22.9115 26.8757 22.1732 25.4666 21.6087C22.6504 20.4806 19.2943 19.9154 17 19.9154V22.582ZM28.4167 27.6237V28.2441H31.0833V27.6237H28.4167ZM28.7503 27.3618C25.8777 30.6165 21.679 32.666 17 32.666V35.3327C22.4759 35.3327 27.3923 32.9303 30.7497 29.1264L28.7503 27.3618ZM17 32.666C12.321 32.666 8.1223 30.6165 5.24965 27.3618L3.25035 29.1264C6.60773 32.9303 11.5241 35.3327 17 35.3327V32.666ZM11.9583 13.457C11.9583 10.6712 14.2142 8.41536 17 8.41536V5.7487C12.7414 5.7487 9.29167 9.19846 9.29167 13.457H11.9583ZM17 18.4987C14.2142 18.4987 11.9583 16.2428 11.9583 13.457H9.29167C9.29167 17.7156 12.7414 21.1654 17 21.1654V18.4987ZM22.0417 13.457C22.0417 16.2428 19.7858 18.4987 17 18.4987V21.1654C21.2586 21.1654 24.7083 17.7156 24.7083 13.457H22.0417ZM17 8.41536C19.7858 8.41536 22.0417 10.6712 22.0417 13.457H24.7083C24.7083 9.19846 21.2586 5.7487 17 5.7487V8.41536Z" fill="#2AACE3" mask="url(#path-2-inside-1_12052_24326)"/>
</svg>
