<svg width="33" height="42" viewBox="0 0 33 42" fill="none" xmlns="http://www.w3.org/2000/svg">
<g clip-path="url(#clip0_5589_69843)">
<path fill-rule="evenodd" clip-rule="evenodd" d="M27.8744 26.1156C34.134 29.7502 34.134 35.606 27.8744 39.2406C21.6148 42.8752 11.384 42.8752 5.1244 39.2406C-1.13522 35.606 -1.13522 29.7502 5.1244 26.1156C11.384 22.481 21.6148 22.481 27.8744 26.1156Z" fill="#F5F5F5"/>
<path fill-rule="evenodd" clip-rule="evenodd" d="M25.8553 27.2599C31.038 30.2215 31.038 35.1349 25.8553 38.0965C20.6726 41.1253 12.2592 41.1253 7.07647 38.0965C1.89378 35.0676 1.89378 30.2215 7.07647 27.2599C12.2592 24.2311 20.6726 24.2311 25.8553 27.2599Z" fill="#E9E9EB"/>
<path fill-rule="evenodd" clip-rule="evenodd" d="M23.9036 28.4035C28.0094 30.7593 28.0094 34.5959 23.9036 36.9516C19.7979 39.3074 13.2017 39.3074 9.09593 36.9516C4.99016 34.5959 4.99016 30.7593 9.09593 28.4035C13.2017 26.0478 19.7979 26.0478 23.9036 28.4035Z" fill="#DDDEE1"/>
<path fill-rule="evenodd" clip-rule="evenodd" d="M21.9519 29.5479C24.9808 31.2979 24.9808 34.0575 21.9519 35.8075C18.9904 37.5575 14.0769 37.5575 11.1154 35.8075C8.08654 34.0575 8.08654 31.2979 11.1154 29.5479C14.1442 27.7979 18.9904 27.7979 21.9519 29.5479Z" fill="#D1D2D6"/>
<path fill-rule="evenodd" clip-rule="evenodd" d="M23.9032 22.0769L19.3936 19.5192V2.625L23.9032 5.18269V22.0769Z" fill="#709140"/>
<path fill-rule="evenodd" clip-rule="evenodd" d="M23.9032 5.18269L19.3936 2.625L23.9032 0L28.4128 2.55769L23.9032 5.18269Z" fill="#89B04D"/>
<path fill-rule="evenodd" clip-rule="evenodd" d="M18.8554 24.971L14.4131 22.4133V9.49023L18.8554 12.0479V24.971Z" fill="#709140"/>
<path fill-rule="evenodd" clip-rule="evenodd" d="M18.8554 12.0479L14.4131 9.49023L18.9227 6.86523L23.365 9.49023L18.8554 12.0479Z" fill="#89B04D"/>
<path fill-rule="evenodd" clip-rule="evenodd" d="M18.8555 24.971V12.0479L23.3651 9.49023V22.346L18.8555 24.971Z" fill="#9BC957"/>
<path fill-rule="evenodd" clip-rule="evenodd" d="M23.9033 22.0768V5.18262L28.4129 2.55762V19.4518L23.9033 22.0768Z" fill="#9BC957"/>
<path fill-rule="evenodd" clip-rule="evenodd" d="M18.3845 16.3555L13.9422 13.7979L9.43262 16.4229L13.8749 18.9805L18.3845 16.3555Z" fill="#89B04D"/>
<path fill-rule="evenodd" clip-rule="evenodd" d="M13.8749 18.9805L9.43262 16.4229V25.3075L13.8749 27.8652V18.9805Z" fill="#709140"/>
<path fill-rule="evenodd" clip-rule="evenodd" d="M18.3846 25.2401V16.3555L13.875 18.9805V27.8651L18.3846 25.2401Z" fill="#9BC957"/>
<path fill-rule="evenodd" clip-rule="evenodd" d="M13.403 23.2881L8.8934 20.6631L4.38379 23.2881L8.8934 25.8458L13.403 23.2881Z" fill="#89B04D"/>
<path fill-rule="evenodd" clip-rule="evenodd" d="M8.8934 25.8458L4.38379 23.2881V28.1342L8.8934 30.7592V25.8458Z" fill="#709140"/>
<path fill-rule="evenodd" clip-rule="evenodd" d="M13.4032 28.1342V23.2881L8.89355 25.8458V30.7592L13.4032 28.1342Z" fill="#9BC957"/>
</g>
<defs>
<clipPath id="clip0_5589_69843">
<rect width="32.1731" height="42" fill="white" transform="translate(0.413086)"/>
</clipPath>
</defs>
</svg>
