<svg width="18" height="18" viewBox="0 0 18 18" fill="none" xmlns="http://www.w3.org/2000/svg">
<path d="M0.000244279 6.08417V7.57008C0.210924 9.47528 3.94906 10.6338 7.69111 10.6338C9.83942 10.6338 15.3816 9.79383 15.3816 7.57008V6.08417C14.9855 6.40688 14.5131 6.70445 13.969 6.97111C12.2798 7.79869 10.0503 8.25444 7.69086 8.25444C5.33142 8.25444 3.10201 7.79869 1.41271 6.97111C0.868521 6.70457 0.396071 6.40684 0 6.08417H0.000244279Z" fill="#F2A71B"/>
<path d="M2.78737 11.4242C3.07697 11.9993 3.73064 12.5584 4.67583 13.0215C6.16841 13.7528 8.16922 14.1555 10.3095 14.1555C12.4499 14.1555 14.4507 13.7528 15.9433 13.0215C17.2505 12.381 18.0002 11.5571 18.0002 10.7608C18.0002 10.0863 17.4702 9.39919 16.5202 8.81618C16.0597 9.66653 15.1242 10.4184 13.7919 10.9909C12.1294 11.7054 9.96276 12.0987 7.69094 12.0987C5.93374 12.0989 4.23592 11.8626 2.7872 11.4242H2.78737Z" fill="#F2A71B"/>
<path d="M2.61913 13.4504V14.9364C2.82217 17.5545 8.1612 18 10.31 18C12.4583 18 18.0004 17.5544 18.0004 14.9364V13.4504C17.6044 13.7731 17.132 14.0708 16.5879 14.3373C14.8986 15.1649 12.6692 15.6206 10.3097 15.6206C7.95031 15.6206 5.72089 15.1649 4.03159 14.3373C3.48741 14.0708 3.01496 13.7732 2.61889 13.4504H2.61913Z" fill="#F2A71B"/>
<path d="M13.3248 1.13408C11.8322 0.402752 9.83143 0 7.69111 0C5.55078 0 3.54994 0.40274 2.05739 1.13408C0.750185 1.77456 0.000407131 2.59848 0.000407131 3.39457C0.000407131 4.19066 0.750185 5.01462 2.05722 5.65507C3.54981 6.38639 5.55062 6.78914 7.69094 6.78914C9.83127 6.78914 11.8321 6.3864 13.3247 5.65507C14.6319 5.01458 15.3815 4.19066 15.3815 3.39457C15.3816 2.59848 14.6319 1.77452 13.3248 1.13408Z" fill="#F2A71B"/>
</svg>
