<svg width="36" height="30" viewBox="0 0 36 30" fill="none" xmlns="http://www.w3.org/2000/svg">
<path d="M32.8373 27.7148V21.7636H33.9872L28.8008 13.7711L19.9636 15.8123V3.57075L10.004 0.5L2.40846 3.5885V27.7145H0.0830078V29.5H35.1247V27.7145L32.8373 27.7148ZM28.3811 27.7148L28.2864 25.7865L29.3265 25.9351V27.7143L28.3811 27.7148ZM26.4002 24.0796V22.5502L27.5704 22.6274V24.1808L26.4002 24.0796ZM28.1558 24.2336V22.6623L29.3261 22.7462V24.3353L28.1558 24.2336ZM29.9114 24.3884V22.7815L31.0817 22.8587V24.4893L29.9114 24.3884ZM28.802 14.8783L32.4365 20.9724L25.5079 20.4248L28.802 14.8783ZM16.4528 6.63557L18.2084 7.01707V8.19478L16.4528 7.81369V6.63557ZM16.4528 11.9919L18.2084 12.3734V13.5511L16.4528 13.1701V11.9919ZM16.4528 17.3479L17.319 17.5384L18.2084 17.7289V18.9071L16.8802 18.6219L16.4528 18.5268V17.3479ZM16.4528 20.9188L18.2084 21.3003V23.073L16.4528 22.6919V20.9188ZM13.5269 4.11818L16.0397 4.50508H15.8675V5.89778L13.527 5.39174L13.5269 4.11818ZM13.5269 5.99868L15.8674 6.51053V7.68282L13.5269 7.17678V5.99868ZM13.5269 7.78416L15.8674 8.29601V9.46831L13.5269 8.96227V7.78416ZM13.5269 9.56965L15.8674 10.0815V11.2538L13.5269 10.7478V9.56965ZM13.5269 13.1406L15.8674 13.6525V14.8248L13.5269 14.3187V13.1406ZM13.5269 14.9257L15.8674 15.4375V16.6098L13.5269 16.1038V14.9257ZM13.5269 18.4967L15.8674 19.0085V20.1808L13.5269 19.6748V18.4967ZM13.5269 20.2821L15.8674 20.794V22.5616L15.3233 22.4433L13.5269 22.0564V20.2821ZM11.1865 3.57077L12.9421 3.98133V5.26702L11.1865 4.88594V3.57077ZM11.1865 9.06379L12.9421 9.44487V10.6172L11.1865 10.2361V9.06379ZM11.1865 10.8493L12.9421 11.2304V12.4027L11.1865 12.0216V10.8493ZM11.1865 12.6348L12.9421 13.0158V14.1881L11.1865 13.8071V12.6348ZM11.1865 16.2057L12.9421 16.5868V17.7591L11.1865 17.378V16.2057ZM11.1865 17.9908L12.9421 18.3719V19.5442L11.1865 19.1631V17.9908ZM11.1865 19.7763L12.9421 20.1574V21.925L11.1865 21.5439V19.7763ZM13.5269 23.9662L15.8674 24.6686L16.4528 24.8413V27.7156H13.5269L13.5269 23.9662Z" fill="#5FA0EC"/>
</svg>
