<svg width="117" height="94" viewBox="0 0 117 94" fill="none" xmlns="http://www.w3.org/2000/svg">
<g clip-path="url(#clip0_6407_29888)">
<path fill-rule="evenodd" clip-rule="evenodd" d="M83.7564 58.7312C97.6547 66.8011 97.6547 79.8027 83.7564 87.8727C69.8582 95.9426 47.1427 95.9426 33.2445 87.8727C19.3462 79.8027 19.3462 66.8011 33.2445 58.7312C47.1427 50.6612 69.8582 50.6612 83.7564 58.7312Z" fill="#F5F5F5"/>
<path fill-rule="evenodd" clip-rule="evenodd" d="M79.2729 61.2715C90.78 67.847 90.78 78.7564 79.2729 85.3319C67.7657 92.0569 49.0853 92.0569 37.5781 85.3319C26.071 78.7564 26.071 67.847 37.5781 61.2715C49.0853 54.696 67.7657 54.696 79.2729 61.2715Z" fill="#E9E9EB"/>
<path fill-rule="evenodd" clip-rule="evenodd" d="M74.9392 63.8125C84.0553 69.0431 84.0553 77.5613 74.9392 82.7919C65.8232 88.0224 51.1777 88.0224 42.0617 82.7919C32.9456 77.5613 32.9456 69.0431 42.0617 63.8125C51.1777 58.582 65.8232 58.582 74.9392 63.8125Z" fill="#DDDEE1"/>
<path fill-rule="evenodd" clip-rule="evenodd" d="M70.6051 66.3526C77.3301 70.2382 77.3301 76.3653 70.6051 80.2509C64.0296 84.1364 53.1202 84.1364 46.5447 80.2509C39.8197 76.3653 39.8197 70.2382 46.5447 66.3526C53.2697 62.4671 64.0296 62.4671 70.6051 66.3526Z" fill="#D1D2D6"/>
<path fill-rule="evenodd" clip-rule="evenodd" d="M46.3953 66.8013L42.3604 64.4102V15.3927L43.257 15.841L44.9009 14.9444L46.5448 12.2544L48.1887 13.151L49.982 12.1049L51.6259 9.41494L53.2697 10.3116L55.0631 9.2655L56.7069 6.57552L58.3508 7.47218L60.1441 6.42607L61.788 3.73609L63.4319 4.63275L65.2252 3.58665L66.8691 0.896661L70.9041 3.28776L69.2602 5.97774L67.4669 7.02385L65.823 6.12719L64.1791 8.81717L62.3858 9.86328L60.7419 8.96661L59.098 11.6566L57.3047 12.7027L55.6608 11.806L54.0169 14.496L52.2236 15.5421L50.5797 14.6455L48.9359 17.3355L47.292 18.2321L46.3953 17.7838V66.8013ZM69.7085 0.597774L68.0646 1.49444L72.0996 3.88553L73.7435 2.98887L74.0424 2.3911L70.0074 0L69.7085 0.597774Z" fill="#BDBDBD"/>
<path fill-rule="evenodd" clip-rule="evenodd" d="M74.192 14.0472V16.2889V36.3143V38.7054V44.6832V50.362L73.7437 50.0631L72.2492 51.1092L70.6054 53.7992L68.9615 52.9025L67.1682 53.9487L65.5243 56.6386L64.0298 55.742L62.2365 56.7881L60.5926 59.6275L58.9488 58.7308L57.1554 59.777L55.5116 62.4669L53.8677 61.5703L52.0744 62.6164L50.5799 65.4558L48.936 64.5592L47.2922 65.4558L46.3955 66.8008V60.6736V54.6959V52.3048V32.2793V30.0377V24.0599V17.7833L47.2922 18.2316L48.936 17.335L50.5799 14.645L52.0744 15.5417L53.8677 14.4956L55.5116 11.6561L57.1554 12.5528L58.9488 11.5067L60.5926 8.8167L62.2365 9.71336L64.0298 8.66725L65.5243 5.82783L67.1682 6.72449L68.9615 5.67838L70.6054 2.9884L72.2492 3.88506L73.7437 2.9884L74.192 2.39062V8.06948V14.0472Z" fill="#E6EAEB"/>
<path fill-rule="evenodd" clip-rule="evenodd" d="M49.8325 35.8665L69.2602 24.6582V25.5549L49.8325 36.7631V35.8665Z" fill="#676775"/>
<path fill-rule="evenodd" clip-rule="evenodd" d="M49.8325 40.7983L70.7546 28.6934V29.59L49.8325 41.6949V40.7983Z" fill="#676775"/>
<path fill-rule="evenodd" clip-rule="evenodd" d="M49.8325 45.8788L66.4208 36.3145V37.2111L49.8325 46.7755V45.8788Z" fill="#676775"/>
<path fill-rule="evenodd" clip-rule="evenodd" d="M49.8325 57.3867L58.0519 52.6045V53.5012L49.8325 58.2833V57.3867Z" fill="#676775"/>
<path fill-rule="evenodd" clip-rule="evenodd" d="M66.5703 47.6723L70.6053 45.2812V46.1779L66.5703 48.569V47.6723Z" fill="#676775"/>
<path fill-rule="evenodd" clip-rule="evenodd" d="M49.8325 21.5203L56.1092 17.7842V18.6808L49.8325 22.4169V21.5203Z" fill="#676775"/>
<path fill-rule="evenodd" clip-rule="evenodd" d="M63.731 13.45L70.6054 9.41504V10.3117L63.731 14.3467V13.45Z" fill="#676775"/>
<path fill-rule="evenodd" clip-rule="evenodd" d="M49.8325 25.8539L61.6386 19.1289V20.0256L49.8325 26.7505V25.8539Z" fill="#676775"/>
<path fill-rule="evenodd" clip-rule="evenodd" d="M68.6626 14.9445L70.6054 13.8984V14.7951L68.6626 15.8412V14.9445Z" fill="#676775"/>
<path fill-rule="evenodd" clip-rule="evenodd" d="M42.3604 15.3926C42.3604 31.6819 42.3604 48.1207 42.3604 64.4101L46.3953 66.8012V17.7837L42.3604 15.3926Z" fill="#9C9C9C"/>
</g>
<defs>
<clipPath id="clip0_6407_29888">
<rect width="71.434" height="94" fill="white" transform="translate(22.7832)"/>
</clipPath>
</defs>
</svg>
