<svg width="20" height="24" viewBox="0 0 20 24" fill="none" xmlns="http://www.w3.org/2000/svg">
<path d="M19.0607 13.0607C19.6464 12.4749 19.6464 11.5251 19.0607 10.9393L9.51472 1.3934C8.92893 0.807611 7.97919 0.807611 7.3934 1.3934C6.80761 1.97918 6.80761 2.92893 7.3934 3.51472L15.8787 12L7.3934 20.4853C6.80761 21.0711 6.80761 22.0208 7.3934 22.6066C7.97918 23.1924 8.92893 23.1924 9.51472 22.6066L19.0607 13.0607ZM2 10.5C1.17157 10.5 0.5 11.1716 0.5 12C0.5 12.8284 1.17157 13.5 2 13.5L2 10.5ZM18 10.5L2 10.5L2 13.5L18 13.5L18 10.5Z" fill="black"/>
</svg>
