<svg width="168" height="60" viewBox="0 0 168 60" fill="none" xmlns="http://www.w3.org/2000/svg">
<path d="M69.7358 41H0.124082C0.101037 41 0.0784491 40.9938 0.0588458 40.982C0.0392424 40.9703 0.0234056 40.9535 0.0130995 40.9335C0.00279338 40.9135 -0.00156802 40.8911 0.00050156 40.8689C0.00257114 40.8466 0.0109867 40.8253 0.0248137 40.8074L15.321 21.0937C15.4495 20.9223 15.5187 20.7159 15.5187 20.504C15.5187 20.2921 15.4495 20.0857 15.321 19.9143L0.0248137 0.192568C0.0109867 0.174687 0.00257114 0.153418 0.00050156 0.131158C-0.00156802 0.108897 0.00279338 0.086519 0.0130995 0.0665277C0.0234056 0.0465365 0.0392424 0.0297231 0.0588458 0.0179725C0.0784491 0.00622199 0.101037 0 0.124082 0H69.7358C69.9495 0.00154596 70.1599 0.050853 70.3507 0.144086C70.5415 0.23732 70.7076 0.371967 70.8361 0.537572L85.7269 19.6977C85.9043 19.9298 86 20.2111 86 20.5C86 20.7889 85.9043 21.0702 85.7269 21.3024L70.8361 40.4704C70.7072 40.635 70.5408 40.7685 70.35 40.8604C70.1591 40.9522 69.9489 41 69.7358 41Z" fill="#3578DB"/>
<path d="M23.1122 57.18C22.4802 57.18 21.9102 57.07 21.4022 56.85C20.8982 56.63 20.4822 56.316 20.1542 55.908C19.8302 55.496 19.6242 55.008 19.5362 54.444L21.0362 54.216C21.1642 54.728 21.4262 55.124 21.8222 55.404C22.2222 55.684 22.6822 55.824 23.2022 55.824C23.5102 55.824 23.8002 55.776 24.0722 55.68C24.3442 55.584 24.5642 55.444 24.7322 55.26C24.9042 55.076 24.9902 54.85 24.9902 54.582C24.9902 54.462 24.9702 54.352 24.9302 54.252C24.8902 54.148 24.8302 54.056 24.7502 53.976C24.6742 53.896 24.5742 53.824 24.4502 53.76C24.3302 53.692 24.1902 53.634 24.0302 53.586L21.7982 52.926C21.6062 52.87 21.3982 52.796 21.1742 52.704C20.9542 52.608 20.7442 52.478 20.5442 52.314C20.3482 52.146 20.1862 51.934 20.0582 51.678C19.9342 51.418 19.8722 51.098 19.8722 50.718C19.8722 50.162 20.0122 49.696 20.2922 49.32C20.5762 48.94 20.9562 48.656 21.4322 48.468C21.9122 48.28 22.4442 48.188 23.0282 48.192C23.6202 48.196 24.1482 48.298 24.6122 48.498C25.0762 48.694 25.4642 48.98 25.7762 49.356C26.0882 49.732 26.3082 50.186 26.4362 50.718L24.8822 50.988C24.8182 50.684 24.6942 50.426 24.5102 50.214C24.3302 49.998 24.1082 49.834 23.8442 49.722C23.5842 49.61 23.3062 49.55 23.0102 49.542C22.7222 49.538 22.4542 49.582 22.2062 49.674C21.9622 49.762 21.7642 49.89 21.6122 50.058C21.4642 50.226 21.3902 50.422 21.3902 50.646C21.3902 50.858 21.4542 51.032 21.5822 51.168C21.7102 51.3 21.8682 51.406 22.0562 51.486C22.2482 51.562 22.4422 51.626 22.6382 51.678L24.1862 52.11C24.3982 52.166 24.6362 52.242 24.9002 52.338C25.1642 52.434 25.4182 52.568 25.6622 52.74C25.9062 52.912 26.1062 53.138 26.2622 53.418C26.4222 53.698 26.5022 54.054 26.5022 54.486C26.5022 54.934 26.4082 55.328 26.2202 55.668C26.0362 56.004 25.7862 56.284 25.4702 56.508C25.1542 56.732 24.7922 56.9 24.3842 57.012C23.9802 57.124 23.5562 57.18 23.1122 57.18ZM31.5989 57C31.1709 57.08 30.7509 57.114 30.3389 57.102C29.9309 57.094 29.5649 57.02 29.2409 56.88C28.9169 56.736 28.6709 56.51 28.5029 56.202C28.3549 55.922 28.2769 55.636 28.2689 55.344C28.2609 55.052 28.2569 54.722 28.2569 54.354V48.72H29.6969V54.27C29.6969 54.53 29.6989 54.758 29.7029 54.954C29.7109 55.15 29.7529 55.31 29.8289 55.434C29.9729 55.674 30.2029 55.808 30.5189 55.836C30.8349 55.864 31.1949 55.848 31.5989 55.788V57ZM27.0809 51.654V50.52H31.5989V51.654H27.0809ZM35.6102 57.18C34.9542 57.18 34.3782 57.038 33.8822 56.754C33.3862 56.47 32.9982 56.076 32.7182 55.572C32.4422 55.068 32.3042 54.488 32.3042 53.832C32.3042 53.124 32.4402 52.51 32.7122 51.99C32.9842 51.466 33.3622 51.06 33.8462 50.772C34.3302 50.484 34.8902 50.34 35.5262 50.34C36.1982 50.34 36.7682 50.498 37.2362 50.814C37.7082 51.126 38.0582 51.568 38.2862 52.14C38.5142 52.712 38.6002 53.386 38.5442 54.162H37.1102V53.634C37.1062 52.93 36.9822 52.416 36.7382 52.092C36.4942 51.768 36.1102 51.606 35.5862 51.606C34.9942 51.606 34.5542 51.79 34.2662 52.158C33.9782 52.522 33.8342 53.056 33.8342 53.76C33.8342 54.416 33.9782 54.924 34.2662 55.284C34.5542 55.644 34.9742 55.824 35.5262 55.824C35.8822 55.824 36.1882 55.746 36.4442 55.59C36.7042 55.43 36.9042 55.2 37.0442 54.9L38.4722 55.332C38.2242 55.916 37.8402 56.37 37.3202 56.694C36.8042 57.018 36.2342 57.18 35.6102 57.18ZM33.3782 54.162V53.07H37.8362V54.162H33.3782ZM42.8212 57.18C42.1892 57.18 41.6592 57.03 41.2312 56.73C40.8032 56.43 40.4812 56.022 40.2652 55.506C40.0492 54.986 39.9412 54.404 39.9412 53.76C39.9412 53.108 40.0492 52.524 40.2652 52.008C40.4812 51.492 40.7972 51.086 41.2132 50.79C41.6332 50.49 42.1512 50.34 42.7672 50.34C43.3792 50.34 43.9092 50.49 44.3572 50.79C44.8092 51.086 45.1592 51.492 45.4072 52.008C45.6552 52.52 45.7792 53.104 45.7792 53.76C45.7792 54.408 45.6572 54.99 45.4132 55.506C45.1692 56.022 44.8252 56.43 44.3812 56.73C43.9372 57.03 43.4172 57.18 42.8212 57.18ZM39.6952 59.88V50.52H40.9732V55.068H41.1532V59.88H39.6952ZM42.5992 55.884C42.9752 55.884 43.2852 55.79 43.5292 55.602C43.7732 55.414 43.9532 55.16 44.0692 54.84C44.1892 54.516 44.2492 54.156 44.2492 53.76C44.2492 53.368 44.1892 53.012 44.0692 52.692C43.9492 52.368 43.7632 52.112 43.5112 51.924C43.2592 51.732 42.9392 51.636 42.5512 51.636C42.1832 51.636 41.8832 51.726 41.6512 51.906C41.4192 52.082 41.2472 52.33 41.1352 52.65C41.0272 52.966 40.9732 53.336 40.9732 53.76C40.9732 54.18 41.0272 54.55 41.1352 54.87C41.2472 55.19 41.4212 55.44 41.6572 55.62C41.8972 55.796 42.2112 55.884 42.5992 55.884ZM51.0041 57V49.938L49.3841 50.928V49.332L51.0041 48.36H52.4801V57H51.0041Z" fill="#3578DB"/>
<path d="M31.6228 17.15C31.0961 17.15 30.6211 17.0583 30.1978 16.875C29.7778 16.6917 29.4311 16.43 29.1578 16.09C28.8878 15.7467 28.7161 15.34 28.6428 14.87L29.8928 14.68C29.9995 15.1067 30.2178 15.4367 30.5478 15.67C30.8811 15.9033 31.2645 16.02 31.6978 16.02C31.9545 16.02 32.1961 15.98 32.4228 15.9C32.6495 15.82 32.8328 15.7033 32.9728 15.55C33.1161 15.3967 33.1878 15.2083 33.1878 14.985C33.1878 14.885 33.1711 14.7933 33.1378 14.71C33.1045 14.6233 33.0545 14.5467 32.9878 14.48C32.9245 14.4133 32.8411 14.3533 32.7378 14.3C32.6378 14.2433 32.5211 14.195 32.3878 14.155L30.5278 13.605C30.3678 13.5583 30.1945 13.4967 30.0078 13.42C29.8245 13.34 29.6495 13.2317 29.4828 13.095C29.3195 12.955 29.1845 12.7783 29.0778 12.565C28.9745 12.3483 28.9228 12.0817 28.9228 11.765C28.9228 11.3017 29.0395 10.9133 29.2728 10.6C29.5095 10.2833 29.8261 10.0467 30.2228 9.89C30.6228 9.73333 31.0661 9.65667 31.5528 9.66C32.0461 9.66333 32.4861 9.74833 32.8728 9.915C33.2595 10.0783 33.5828 10.3167 33.8428 10.63C34.1028 10.9433 34.2861 11.3217 34.3928 11.765L33.0978 11.99C33.0445 11.7367 32.9411 11.5217 32.7878 11.345C32.6378 11.165 32.4528 11.0283 32.2328 10.935C32.0161 10.8417 31.7845 10.7917 31.5378 10.785C31.2978 10.7817 31.0745 10.8183 30.8678 10.895C30.6645 10.9683 30.4995 11.075 30.3728 11.215C30.2495 11.355 30.1878 11.5183 30.1878 11.705C30.1878 11.8817 30.2411 12.0267 30.3478 12.14C30.4545 12.25 30.5861 12.3383 30.7428 12.405C30.9028 12.4683 31.0645 12.5217 31.2278 12.565L32.5178 12.925C32.6945 12.9717 32.8928 13.035 33.1128 13.115C33.3328 13.195 33.5445 13.3067 33.7478 13.45C33.9511 13.5933 34.1178 13.7817 34.2478 14.015C34.3811 14.2483 34.4478 14.545 34.4478 14.905C34.4478 15.2783 34.3695 15.6067 34.2128 15.89C34.0595 16.17 33.8511 16.4033 33.5878 16.59C33.3245 16.7767 33.0228 16.9167 32.6828 17.01C32.3461 17.1033 31.9928 17.15 31.6228 17.15ZM37.9851 17.15C37.4384 17.15 36.9584 17.0317 36.5451 16.795C36.1317 16.5583 35.8084 16.23 35.5751 15.81C35.3451 15.39 35.2301 14.9067 35.2301 14.36C35.2301 13.77 35.3434 13.2583 35.5701 12.825C35.7967 12.3883 36.1117 12.05 36.5151 11.81C36.9184 11.57 37.3851 11.45 37.9151 11.45C38.4751 11.45 38.9501 11.5817 39.3401 11.845C39.7334 12.105 40.0251 12.4733 40.2151 12.95C40.4051 13.4267 40.4767 13.9883 40.4301 14.635H39.2351V14.195C39.2317 13.6083 39.1284 13.18 38.9251 12.91C38.7217 12.64 38.4017 12.505 37.9651 12.505C37.4717 12.505 37.1051 12.6583 36.8651 12.965C36.6251 13.2683 36.5051 13.7133 36.5051 14.3C36.5051 14.8467 36.6251 15.27 36.8651 15.57C37.1051 15.87 37.4551 16.02 37.9151 16.02C38.2117 16.02 38.4667 15.955 38.6801 15.825C38.8967 15.6917 39.0634 15.5 39.1801 15.25L40.3701 15.61C40.1634 16.0967 39.8434 16.475 39.4101 16.745C38.9801 17.015 38.5051 17.15 37.9851 17.15ZM36.1251 14.635V13.725H39.8401V14.635H36.1251ZM41.6457 17V9.65H42.8507V17H41.6457ZM46.8034 17.15C46.2568 17.15 45.7768 17.0317 45.3634 16.795C44.9501 16.5583 44.6268 16.23 44.3934 15.81C44.1634 15.39 44.0484 14.9067 44.0484 14.36C44.0484 13.77 44.1618 13.2583 44.3884 12.825C44.6151 12.3883 44.9301 12.05 45.3334 11.81C45.7368 11.57 46.2034 11.45 46.7334 11.45C47.2934 11.45 47.7684 11.5817 48.1584 11.845C48.5518 12.105 48.8434 12.4733 49.0334 12.95C49.2234 13.4267 49.2951 13.9883 49.2484 14.635H48.0534V14.195C48.0501 13.6083 47.9468 13.18 47.7434 12.91C47.5401 12.64 47.2201 12.505 46.7834 12.505C46.2901 12.505 45.9234 12.6583 45.6834 12.965C45.4434 13.2683 45.3234 13.7133 45.3234 14.3C45.3234 14.8467 45.4434 15.27 45.6834 15.57C45.9234 15.87 46.2734 16.02 46.7334 16.02C47.0301 16.02 47.2851 15.955 47.4984 15.825C47.7151 15.6917 47.8818 15.5 47.9984 15.25L49.1884 15.61C48.9818 16.0967 48.6618 16.475 48.2284 16.745C47.7984 17.015 47.3234 17.15 46.8034 17.15ZM44.9434 14.635V13.725H48.6584V14.635H44.9434ZM52.7091 17.15C52.1524 17.15 51.6774 17.0267 51.2841 16.78C50.8907 16.53 50.5891 16.19 50.3791 15.76C50.1724 15.33 50.0674 14.8433 50.0641 14.3C50.0674 13.7467 50.1757 13.2567 50.3891 12.83C50.6057 12.4 50.9124 12.0633 51.3091 11.82C51.7057 11.5733 52.1774 11.45 52.7241 11.45C53.3374 11.45 53.8557 11.605 54.2791 11.915C54.7057 12.2217 54.9841 12.6417 55.1141 13.175L53.9141 13.5C53.8207 13.21 53.6657 12.985 53.4491 12.825C53.2324 12.6617 52.9857 12.58 52.7091 12.58C52.3957 12.58 52.1374 12.655 51.9341 12.805C51.7307 12.9517 51.5807 13.155 51.4841 13.415C51.3874 13.675 51.3391 13.97 51.3391 14.3C51.3391 14.8133 51.4541 15.2283 51.6841 15.545C51.9141 15.8617 52.2557 16.02 52.7091 16.02C53.0291 16.02 53.2807 15.9467 53.4641 15.8C53.6507 15.6533 53.7907 15.4417 53.8841 15.165L55.1141 15.44C54.9474 15.99 54.6557 16.4133 54.2391 16.71C53.8224 17.0033 53.3124 17.15 52.7091 17.15ZM59.281 17C58.9243 17.0667 58.5743 17.095 58.231 17.085C57.891 17.0783 57.586 17.0167 57.316 16.9C57.046 16.78 56.841 16.5917 56.701 16.335C56.5777 16.1017 56.5127 15.8633 56.506 15.62C56.4993 15.3767 56.496 15.1017 56.496 14.795V10.1H57.696V14.725C57.696 14.9417 57.6977 15.1317 57.701 15.295C57.7077 15.4583 57.7427 15.5917 57.806 15.695C57.926 15.895 58.1177 16.0067 58.381 16.03C58.6443 16.0533 58.9443 16.04 59.281 15.99V17ZM55.516 12.545V11.6H59.281V12.545H55.516ZM27.828 31.15C27.108 31.15 26.4913 30.9933 25.978 30.68C25.4647 30.3633 25.0697 29.9233 24.793 29.36C24.5197 28.7967 24.383 28.1433 24.383 27.4C24.383 26.6567 24.5197 26.0033 24.793 25.44C25.0697 24.8767 25.4647 24.4383 25.978 24.125C26.4913 23.8083 27.108 23.65 27.828 23.65C28.658 23.65 29.3497 23.8583 29.903 24.275C30.4563 24.6883 30.8447 25.2467 31.068 25.95L29.853 26.285C29.713 25.815 29.4747 25.4483 29.138 25.185C28.8013 24.9183 28.3647 24.785 27.828 24.785C27.3447 24.785 26.9413 24.8933 26.618 25.11C26.298 25.3267 26.0563 25.6317 25.893 26.025C25.733 26.415 25.6513 26.8733 25.648 27.4C25.648 27.9267 25.728 28.3867 25.888 28.78C26.0513 29.17 26.2947 29.4733 26.618 29.69C26.9413 29.9067 27.3447 30.015 27.828 30.015C28.3647 30.015 28.8013 29.8817 29.138 29.615C29.4747 29.3483 29.713 28.9817 29.853 28.515L31.068 28.85C30.8447 29.5533 30.4563 30.1133 29.903 30.53C29.3497 30.9433 28.658 31.15 27.828 31.15ZM34.5508 31.15C34.0108 31.15 33.5392 31.0283 33.1358 30.785C32.7325 30.5417 32.4192 30.2067 32.1958 29.78C31.9758 29.35 31.8658 28.8567 31.8658 28.3C31.8658 27.7333 31.9792 27.2367 32.2058 26.81C32.4325 26.3833 32.7475 26.05 33.1508 25.81C33.5542 25.57 34.0208 25.45 34.5508 25.45C35.0942 25.45 35.5675 25.5717 35.9708 25.815C36.3742 26.0583 36.6875 26.395 36.9108 26.825C37.1342 27.2517 37.2458 27.7433 37.2458 28.3C37.2458 28.86 37.1325 29.355 36.9058 29.785C36.6825 30.2117 36.3692 30.5467 35.9658 30.79C35.5625 31.03 35.0908 31.15 34.5508 31.15ZM34.5508 30.02C35.0308 30.02 35.3875 29.86 35.6208 29.54C35.8542 29.22 35.9708 28.8067 35.9708 28.3C35.9708 27.7767 35.8525 27.36 35.6158 27.05C35.3792 26.7367 35.0242 26.58 34.5508 26.58C34.2275 26.58 33.9608 26.6533 33.7508 26.8C33.5442 26.9433 33.3908 27.145 33.2908 27.405C33.1908 27.6617 33.1408 27.96 33.1408 28.3C33.1408 28.8233 33.2592 29.2417 33.4958 29.555C33.7358 29.865 34.0875 30.02 34.5508 30.02ZM40.3725 31.155C39.9725 31.155 39.6425 31.0883 39.3825 30.955C39.1225 30.8217 38.9158 30.6517 38.7625 30.445C38.6091 30.2383 38.4958 30.0183 38.4225 29.785C38.3491 29.5517 38.3008 29.3317 38.2775 29.125C38.2575 28.915 38.2475 28.745 38.2475 28.615V25.6H39.4675V28.2C39.4675 28.3667 39.4791 28.555 39.5025 28.765C39.5258 28.9717 39.5791 29.1717 39.6625 29.365C39.7491 29.555 39.8758 29.7117 40.0425 29.835C40.2125 29.9583 40.4408 30.02 40.7275 30.02C40.8808 30.02 41.0325 29.995 41.1825 29.945C41.3325 29.895 41.4675 29.81 41.5875 29.69C41.7108 29.5667 41.8091 29.3983 41.8825 29.185C41.9558 28.9717 41.9925 28.7017 41.9925 28.375L42.7075 28.68C42.7075 29.14 42.6175 29.5567 42.4375 29.93C42.2608 30.3033 41.9991 30.6017 41.6525 30.825C41.3058 31.045 40.8791 31.155 40.3725 31.155ZM42.1375 31V29.325H41.9925V25.6H43.2025V31H42.1375ZM48.3422 31V28.4C48.3422 28.23 48.3306 28.0417 48.3072 27.835C48.2839 27.6283 48.2289 27.43 48.1422 27.24C48.0589 27.0467 47.9322 26.8883 47.7622 26.765C47.5956 26.6417 47.3689 26.58 47.0822 26.58C46.9289 26.58 46.7772 26.605 46.6272 26.655C46.4772 26.705 46.3406 26.7917 46.2172 26.915C46.0972 27.035 46.0006 27.2017 45.9272 27.415C45.8539 27.625 45.8172 27.895 45.8172 28.225L45.1022 27.92C45.1022 27.46 45.1906 27.0433 45.3672 26.67C45.5472 26.2967 45.8106 26 46.1572 25.78C46.5039 25.5567 46.9306 25.445 47.4372 25.445C47.8372 25.445 48.1672 25.5117 48.4272 25.645C48.6872 25.7783 48.8939 25.9483 49.0472 26.155C49.2006 26.3617 49.3139 26.5817 49.3872 26.815C49.4606 27.0483 49.5072 27.27 49.5272 27.48C49.5506 27.6867 49.5622 27.855 49.5622 27.985V31H48.3422ZM44.5972 31V25.6H45.6722V27.275H45.8172V31H44.5972ZM54.032 31C53.6753 31.0667 53.3253 31.095 52.982 31.085C52.642 31.0783 52.337 31.0167 52.067 30.9C51.797 30.78 51.592 30.5917 51.452 30.335C51.3287 30.1017 51.2637 29.8633 51.257 29.62C51.2503 29.3767 51.247 29.1017 51.247 28.795V24.1H52.447V28.725C52.447 28.9417 52.4487 29.1317 52.452 29.295C52.4587 29.4583 52.4937 29.5917 52.557 29.695C52.677 29.895 52.8687 30.0067 53.132 30.03C53.3953 30.0533 53.6953 30.04 54.032 29.99V31ZM50.267 26.545V25.6H54.032V26.545H50.267ZM55.1932 31V25.6H56.2582V26.915L56.1282 26.745C56.1948 26.565 56.2832 26.4017 56.3932 26.255C56.5065 26.105 56.6415 25.9817 56.7982 25.885C56.9315 25.795 57.0782 25.725 57.2382 25.675C57.4015 25.6217 57.5682 25.59 57.7382 25.58C57.9082 25.5667 58.0732 25.5733 58.2332 25.6V26.725C58.0732 26.6783 57.8882 26.6633 57.6782 26.68C57.4715 26.6967 57.2848 26.755 57.1182 26.855C56.9515 26.945 56.8148 27.06 56.7082 27.2C56.6048 27.34 56.5282 27.5 56.4782 27.68C56.4282 27.8567 56.4032 28.0483 56.4032 28.255V31H55.1932ZM59.7313 33.4L60.7713 30.545L60.7913 31.385L58.4363 25.6H59.6913L61.3613 29.88H61.0413L62.6663 25.6H63.8713L60.8613 33.4H59.7313Z" fill="white"/>
<path d="M151.547 41H81.1255C81.1022 41 81.0794 40.9938 81.0595 40.982C81.0397 40.9703 81.0237 40.9535 81.0133 40.9335C81.0028 40.9135 80.9984 40.8911 81.0005 40.8689C81.0026 40.8466 81.0111 40.8253 81.0251 40.8074L96.4992 21.0937C96.6292 20.9223 96.6991 20.7159 96.6991 20.504C96.6991 20.2921 96.6292 20.0857 96.4992 19.9143L81.0251 0.192568C81.0111 0.174687 81.0026 0.153418 81.0005 0.131158C80.9984 0.108897 81.0028 0.086519 81.0133 0.0665277C81.0237 0.0465365 81.0397 0.0297231 81.0595 0.0179725C81.0794 0.00622199 81.1022 0 81.1255 0H151.547C151.763 0.00154596 151.976 0.050853 152.169 0.144086C152.362 0.23732 152.53 0.371967 152.66 0.537572L167.724 19.6977C167.903 19.9298 168 20.2111 168 20.5C168 20.7889 167.903 21.0702 167.724 21.3024L152.66 40.4704C152.529 40.635 152.361 40.7685 152.168 40.8604C151.975 40.9522 151.762 41 151.547 41Z" fill="#B4B4B4"/>
<path d="M106.169 57.18C105.537 57.18 104.967 57.07 104.459 56.85C103.955 56.63 103.539 56.316 103.211 55.908C102.887 55.496 102.681 55.008 102.593 54.444L104.093 54.216C104.221 54.728 104.483 55.124 104.879 55.404C105.279 55.684 105.739 55.824 106.259 55.824C106.567 55.824 106.857 55.776 107.129 55.68C107.401 55.584 107.621 55.444 107.789 55.26C107.961 55.076 108.047 54.85 108.047 54.582C108.047 54.462 108.027 54.352 107.987 54.252C107.947 54.148 107.887 54.056 107.807 53.976C107.731 53.896 107.631 53.824 107.507 53.76C107.387 53.692 107.247 53.634 107.087 53.586L104.855 52.926C104.663 52.87 104.455 52.796 104.231 52.704C104.011 52.608 103.801 52.478 103.601 52.314C103.405 52.146 103.243 51.934 103.115 51.678C102.991 51.418 102.929 51.098 102.929 50.718C102.929 50.162 103.069 49.696 103.349 49.32C103.633 48.94 104.013 48.656 104.489 48.468C104.969 48.28 105.501 48.188 106.085 48.192C106.677 48.196 107.205 48.298 107.669 48.498C108.133 48.694 108.521 48.98 108.833 49.356C109.145 49.732 109.365 50.186 109.493 50.718L107.939 50.988C107.875 50.684 107.751 50.426 107.567 50.214C107.387 49.998 107.165 49.834 106.901 49.722C106.641 49.61 106.363 49.55 106.067 49.542C105.779 49.538 105.511 49.582 105.263 49.674C105.019 49.762 104.821 49.89 104.669 50.058C104.521 50.226 104.447 50.422 104.447 50.646C104.447 50.858 104.511 51.032 104.639 51.168C104.767 51.3 104.925 51.406 105.113 51.486C105.305 51.562 105.499 51.626 105.695 51.678L107.243 52.11C107.455 52.166 107.693 52.242 107.957 52.338C108.221 52.434 108.475 52.568 108.719 52.74C108.963 52.912 109.163 53.138 109.319 53.418C109.479 53.698 109.559 54.054 109.559 54.486C109.559 54.934 109.465 55.328 109.277 55.668C109.093 56.004 108.843 56.284 108.527 56.508C108.211 56.732 107.849 56.9 107.441 57.012C107.037 57.124 106.613 57.18 106.169 57.18ZM114.656 57C114.228 57.08 113.808 57.114 113.396 57.102C112.988 57.094 112.622 57.02 112.298 56.88C111.974 56.736 111.728 56.51 111.56 56.202C111.412 55.922 111.334 55.636 111.326 55.344C111.318 55.052 111.314 54.722 111.314 54.354V48.72H112.754V54.27C112.754 54.53 112.756 54.758 112.76 54.954C112.768 55.15 112.81 55.31 112.886 55.434C113.03 55.674 113.26 55.808 113.576 55.836C113.892 55.864 114.252 55.848 114.656 55.788V57ZM110.138 51.654V50.52H114.656V51.654H110.138ZM118.667 57.18C118.011 57.18 117.435 57.038 116.939 56.754C116.443 56.47 116.055 56.076 115.775 55.572C115.499 55.068 115.361 54.488 115.361 53.832C115.361 53.124 115.497 52.51 115.769 51.99C116.041 51.466 116.419 51.06 116.903 50.772C117.387 50.484 117.947 50.34 118.583 50.34C119.255 50.34 119.825 50.498 120.293 50.814C120.765 51.126 121.115 51.568 121.343 52.14C121.571 52.712 121.657 53.386 121.601 54.162H120.167V53.634C120.163 52.93 120.039 52.416 119.795 52.092C119.551 51.768 119.167 51.606 118.643 51.606C118.051 51.606 117.611 51.79 117.323 52.158C117.035 52.522 116.891 53.056 116.891 53.76C116.891 54.416 117.035 54.924 117.323 55.284C117.611 55.644 118.031 55.824 118.583 55.824C118.939 55.824 119.245 55.746 119.501 55.59C119.761 55.43 119.961 55.2 120.101 54.9L121.529 55.332C121.281 55.916 120.897 56.37 120.377 56.694C119.861 57.018 119.291 57.18 118.667 57.18ZM116.435 54.162V53.07H120.893V54.162H116.435ZM125.878 57.18C125.246 57.18 124.716 57.03 124.288 56.73C123.86 56.43 123.538 56.022 123.322 55.506C123.106 54.986 122.998 54.404 122.998 53.76C122.998 53.108 123.106 52.524 123.322 52.008C123.538 51.492 123.854 51.086 124.27 50.79C124.69 50.49 125.208 50.34 125.824 50.34C126.436 50.34 126.966 50.49 127.414 50.79C127.866 51.086 128.216 51.492 128.464 52.008C128.712 52.52 128.836 53.104 128.836 53.76C128.836 54.408 128.714 54.99 128.47 55.506C128.226 56.022 127.882 56.43 127.438 56.73C126.994 57.03 126.474 57.18 125.878 57.18ZM122.752 59.88V50.52H124.03V55.068H124.21V59.88H122.752ZM125.656 55.884C126.032 55.884 126.342 55.79 126.586 55.602C126.83 55.414 127.01 55.16 127.126 54.84C127.246 54.516 127.306 54.156 127.306 53.76C127.306 53.368 127.246 53.012 127.126 52.692C127.006 52.368 126.82 52.112 126.568 51.924C126.316 51.732 125.996 51.636 125.608 51.636C125.24 51.636 124.94 51.726 124.708 51.906C124.476 52.082 124.304 52.33 124.192 52.65C124.084 52.966 124.03 53.336 124.03 53.76C124.03 54.18 124.084 54.55 124.192 54.87C124.304 55.19 124.478 55.44 124.714 55.62C124.954 55.796 125.268 55.884 125.656 55.884ZM132.321 56.988V55.728L136.017 52.434C136.305 52.178 136.505 51.936 136.617 51.708C136.729 51.48 136.785 51.26 136.785 51.048C136.785 50.76 136.723 50.504 136.599 50.28C136.475 50.052 136.303 49.872 136.083 49.74C135.867 49.608 135.617 49.542 135.333 49.542C135.033 49.542 134.767 49.612 134.535 49.752C134.307 49.888 134.129 50.07 134.001 50.298C133.873 50.526 133.813 50.772 133.821 51.036H132.333C132.333 50.46 132.461 49.958 132.717 49.53C132.977 49.102 133.333 48.77 133.785 48.534C134.241 48.298 134.767 48.18 135.363 48.18C135.915 48.18 136.411 48.304 136.851 48.552C137.291 48.796 137.637 49.136 137.889 49.572C138.141 50.004 138.267 50.502 138.267 51.066C138.267 51.478 138.211 51.824 138.099 52.104C137.987 52.384 137.819 52.642 137.595 52.878C137.375 53.114 137.101 53.376 136.773 53.664L134.151 55.986L134.019 55.626H138.267V56.988H132.321Z" fill="#B4B4B4"/>
<path d="M112.961 18.15C112.388 18.15 111.883 18.0333 111.446 17.8C111.013 17.5667 110.673 17.2383 110.426 16.815C110.183 16.3917 110.061 15.895 110.061 15.325V10.81L111.281 10.8V15.295C111.281 15.565 111.326 15.8067 111.416 16.02C111.51 16.2333 111.635 16.415 111.791 16.565C111.948 16.7117 112.128 16.8233 112.331 16.9C112.535 16.9767 112.745 17.015 112.961 17.015C113.185 17.015 113.396 16.9767 113.596 16.9C113.8 16.82 113.98 16.7067 114.136 16.56C114.293 16.41 114.416 16.2283 114.506 16.015C114.596 15.8017 114.641 15.5617 114.641 15.295V10.8H115.861V15.325C115.861 15.895 115.738 16.3917 115.491 16.815C115.248 17.2383 114.908 17.5667 114.471 17.8C114.038 18.0333 113.535 18.15 112.961 18.15ZM119.854 18.15C119.327 18.15 118.885 18.025 118.529 17.775C118.172 17.525 117.904 17.185 117.724 16.755C117.544 16.3217 117.454 15.8367 117.454 15.3C117.454 14.7567 117.544 14.27 117.724 13.84C117.904 13.41 118.167 13.0717 118.514 12.825C118.864 12.575 119.295 12.45 119.809 12.45C120.319 12.45 120.76 12.575 121.134 12.825C121.51 13.0717 121.802 13.41 122.009 13.84C122.215 14.2667 122.319 14.7533 122.319 15.3C122.319 15.84 122.217 16.325 122.014 16.755C121.81 17.185 121.524 17.525 121.154 17.775C120.784 18.025 120.35 18.15 119.854 18.15ZM117.249 20.4V12.6H118.314V16.39H118.464V20.4H117.249ZM119.669 17.07C119.982 17.07 120.24 16.9917 120.444 16.835C120.647 16.6783 120.797 16.4667 120.894 16.2C120.994 15.93 121.044 15.63 121.044 15.3C121.044 14.9733 120.994 14.6767 120.894 14.41C120.794 14.14 120.639 13.9267 120.429 13.77C120.219 13.61 119.952 13.53 119.629 13.53C119.322 13.53 119.072 13.605 118.879 13.755C118.685 13.9017 118.542 14.1083 118.449 14.375C118.359 14.6383 118.314 14.9467 118.314 15.3C118.314 15.65 118.359 15.9583 118.449 16.225C118.542 16.4917 118.687 16.7 118.884 16.85C119.084 16.9967 119.345 17.07 119.669 17.07ZM123.521 18V10.65H124.726V18H123.521ZM128.608 18.15C128.068 18.15 127.597 18.0283 127.193 17.785C126.79 17.5417 126.477 17.2067 126.253 16.78C126.033 16.35 125.923 15.8567 125.923 15.3C125.923 14.7333 126.037 14.2367 126.263 13.81C126.49 13.3833 126.805 13.05 127.208 12.81C127.612 12.57 128.078 12.45 128.608 12.45C129.152 12.45 129.625 12.5717 130.028 12.815C130.432 13.0583 130.745 13.395 130.968 13.825C131.192 14.2517 131.303 14.7433 131.303 15.3C131.303 15.86 131.19 16.355 130.963 16.785C130.74 17.2117 130.427 17.5467 130.023 17.79C129.62 18.03 129.148 18.15 128.608 18.15ZM128.608 17.02C129.088 17.02 129.445 16.86 129.678 16.54C129.912 16.22 130.028 15.8067 130.028 15.3C130.028 14.7767 129.91 14.36 129.673 14.05C129.437 13.7367 129.082 13.58 128.608 13.58C128.285 13.58 128.018 13.6533 127.808 13.8C127.602 13.9433 127.448 14.145 127.348 14.405C127.248 14.6617 127.198 14.96 127.198 15.3C127.198 15.8233 127.317 16.2417 127.553 16.555C127.793 16.865 128.145 17.02 128.608 17.02ZM133.915 18.15C133.525 18.15 133.195 18.0767 132.925 17.93C132.655 17.78 132.45 17.5817 132.31 17.335C132.173 17.0883 132.105 16.8167 132.105 16.52C132.105 16.26 132.148 16.0267 132.235 15.82C132.322 15.61 132.455 15.43 132.635 15.28C132.815 15.1267 133.048 15.0017 133.335 14.905C133.552 14.835 133.805 14.7717 134.095 14.715C134.388 14.6583 134.705 14.6067 135.045 14.56C135.388 14.51 135.747 14.4567 136.12 14.4L135.69 14.645C135.693 14.2717 135.61 13.9967 135.44 13.82C135.27 13.6433 134.983 13.555 134.58 13.555C134.337 13.555 134.102 13.6117 133.875 13.725C133.648 13.8383 133.49 14.0333 133.4 14.31L132.3 13.965C132.433 13.5083 132.687 13.1417 133.06 12.865C133.437 12.5883 133.943 12.45 134.58 12.45C135.06 12.45 135.482 12.5283 135.845 12.685C136.212 12.8417 136.483 13.0983 136.66 13.455C136.757 13.645 136.815 13.84 136.835 14.04C136.855 14.2367 136.865 14.4517 136.865 14.685V18H135.81V16.83L135.985 17.02C135.742 17.41 135.457 17.6967 135.13 17.88C134.807 18.06 134.402 18.15 133.915 18.15ZM134.155 17.19C134.428 17.19 134.662 17.1417 134.855 17.045C135.048 16.9483 135.202 16.83 135.315 16.69C135.432 16.55 135.51 16.4183 135.55 16.295C135.613 16.1417 135.648 15.9667 135.655 15.77C135.665 15.57 135.67 15.4083 135.67 15.285L136.04 15.395C135.677 15.4517 135.365 15.5017 135.105 15.545C134.845 15.5883 134.622 15.63 134.435 15.67C134.248 15.7067 134.083 15.7483 133.94 15.795C133.8 15.845 133.682 15.9033 133.585 15.97C133.488 16.0367 133.413 16.1133 133.36 16.2C133.31 16.2867 133.285 16.3883 133.285 16.505C133.285 16.6383 133.318 16.7567 133.385 16.86C133.452 16.96 133.548 17.04 133.675 17.1C133.805 17.16 133.965 17.19 134.155 17.19ZM140.332 18.15C139.835 18.15 139.402 18.025 139.032 17.775C138.662 17.525 138.375 17.185 138.172 16.755C137.968 16.325 137.867 15.84 137.867 15.3C137.867 14.7533 137.968 14.2667 138.172 13.84C138.378 13.41 138.67 13.0717 139.047 12.825C139.423 12.575 139.867 12.45 140.377 12.45C140.89 12.45 141.32 12.575 141.667 12.825C142.017 13.0717 142.282 13.41 142.462 13.84C142.642 14.27 142.732 14.7567 142.732 15.3C142.732 15.8367 142.642 16.3217 142.462 16.755C142.282 17.185 142.013 17.525 141.657 17.775C141.3 18.025 140.858 18.15 140.332 18.15ZM140.517 17.07C140.84 17.07 141.1 16.9967 141.297 16.85C141.497 16.7 141.642 16.4917 141.732 16.225C141.825 15.9583 141.872 15.65 141.872 15.3C141.872 14.9467 141.825 14.6383 141.732 14.375C141.642 14.1083 141.5 13.9017 141.307 13.755C141.113 13.605 140.863 13.53 140.557 13.53C140.233 13.53 139.967 13.61 139.757 13.77C139.547 13.9267 139.392 14.14 139.292 14.41C139.192 14.6767 139.142 14.9733 139.142 15.3C139.142 15.63 139.19 15.93 139.287 16.2C139.387 16.4667 139.538 16.6783 139.742 16.835C139.945 16.9917 140.203 17.07 140.517 17.07ZM141.872 18V14.21H141.722V10.8H142.937V18H141.872ZM101.922 32V24.8H104.217C104.277 24.8 104.395 24.8017 104.572 24.805C104.752 24.8083 104.925 24.82 105.092 24.84C105.662 24.9133 106.143 25.1167 106.537 25.45C106.933 25.78 107.233 26.2017 107.437 26.715C107.64 27.2283 107.742 27.79 107.742 28.4C107.742 29.01 107.64 29.5717 107.437 30.085C107.233 30.5983 106.933 31.0217 106.537 31.355C106.143 31.685 105.662 31.8867 105.092 31.96C104.928 31.98 104.757 31.9917 104.577 31.995C104.397 31.9983 104.277 32 104.217 32H101.922ZM103.147 30.865H104.217C104.317 30.865 104.443 30.8617 104.597 30.855C104.753 30.8483 104.892 30.8333 105.012 30.81C105.352 30.7467 105.628 30.595 105.842 30.355C106.055 30.115 106.212 29.8233 106.312 29.48C106.415 29.1367 106.467 28.7767 106.467 28.4C106.467 28.01 106.415 27.6433 106.312 27.3C106.208 26.9567 106.048 26.6683 105.832 26.435C105.618 26.2017 105.345 26.0533 105.012 25.99C104.892 25.9633 104.753 25.9483 104.597 25.945C104.443 25.9383 104.317 25.935 104.217 25.935H103.147V30.865ZM111.309 32.15C110.769 32.15 110.297 32.0283 109.894 31.785C109.49 31.5417 109.177 31.2067 108.954 30.78C108.734 30.35 108.624 29.8567 108.624 29.3C108.624 28.7333 108.737 28.2367 108.964 27.81C109.19 27.3833 109.505 27.05 109.909 26.81C110.312 26.57 110.779 26.45 111.309 26.45C111.852 26.45 112.325 26.5717 112.729 26.815C113.132 27.0583 113.445 27.395 113.669 27.825C113.892 28.2517 114.004 28.7433 114.004 29.3C114.004 29.86 113.89 30.355 113.664 30.785C113.44 31.2117 113.127 31.5467 112.724 31.79C112.32 32.03 111.849 32.15 111.309 32.15ZM111.309 31.02C111.789 31.02 112.145 30.86 112.379 30.54C112.612 30.22 112.729 29.8067 112.729 29.3C112.729 28.7767 112.61 28.36 112.374 28.05C112.137 27.7367 111.782 27.58 111.309 27.58C110.985 27.58 110.719 27.6533 110.509 27.8C110.302 27.9433 110.149 28.145 110.049 28.405C109.949 28.6617 109.899 28.96 109.899 29.3C109.899 29.8233 110.017 30.2417 110.254 30.555C110.494 30.865 110.845 31.02 111.309 31.02ZM117.45 32.15C116.894 32.15 116.419 32.0267 116.025 31.78C115.632 31.53 115.33 31.19 115.12 30.76C114.914 30.33 114.809 29.8433 114.805 29.3C114.809 28.7467 114.917 28.2567 115.13 27.83C115.347 27.4 115.654 27.0633 116.05 26.82C116.447 26.5733 116.919 26.45 117.465 26.45C118.079 26.45 118.597 26.605 119.02 26.915C119.447 27.2217 119.725 27.6417 119.855 28.175L118.655 28.5C118.562 28.21 118.407 27.985 118.19 27.825C117.974 27.6617 117.727 27.58 117.45 27.58C117.137 27.58 116.879 27.655 116.675 27.805C116.472 27.9517 116.322 28.155 116.225 28.415C116.129 28.675 116.08 28.97 116.08 29.3C116.08 29.8133 116.195 30.2283 116.425 30.545C116.655 30.8617 116.997 31.02 117.45 31.02C117.77 31.02 118.022 30.9467 118.205 30.8C118.392 30.6533 118.532 30.4417 118.625 30.165L119.855 30.44C119.689 30.99 119.397 31.4133 118.98 31.71C118.564 32.0033 118.054 32.15 117.45 32.15ZM122.882 32.155C122.482 32.155 122.152 32.0883 121.892 31.955C121.632 31.8217 121.426 31.6517 121.272 31.445C121.119 31.2383 121.006 31.0183 120.932 30.785C120.859 30.5517 120.811 30.3317 120.787 30.125C120.767 29.915 120.757 29.745 120.757 29.615V26.6H121.977V29.2C121.977 29.3667 121.989 29.555 122.012 29.765C122.036 29.9717 122.089 30.1717 122.172 30.365C122.259 30.555 122.386 30.7117 122.552 30.835C122.722 30.9583 122.951 31.02 123.237 31.02C123.391 31.02 123.542 30.995 123.692 30.945C123.842 30.895 123.977 30.81 124.097 30.69C124.221 30.5667 124.319 30.3983 124.392 30.185C124.466 29.9717 124.502 29.7017 124.502 29.375L125.217 29.68C125.217 30.14 125.127 30.5567 124.947 30.93C124.771 31.3033 124.509 31.6017 124.162 31.825C123.816 32.045 123.389 32.155 122.882 32.155ZM124.647 32V30.325H124.502V26.6H125.712V32H124.647ZM133.602 32V28.72C133.602 28.35 133.51 28.0617 133.327 27.855C133.144 27.645 132.895 27.54 132.582 27.54C132.389 27.54 132.215 27.585 132.062 27.675C131.909 27.7617 131.787 27.8917 131.697 28.065C131.607 28.235 131.562 28.4383 131.562 28.675L131.027 28.36C131.024 27.9867 131.107 27.6583 131.277 27.375C131.45 27.0883 131.684 26.865 131.977 26.705C132.27 26.545 132.597 26.465 132.957 26.465C133.554 26.465 134.01 26.645 134.327 27.005C134.647 27.3617 134.807 27.8317 134.807 28.415V32H133.602ZM127.107 32V26.6H128.172V28.275H128.322V32H127.107ZM130.362 32V28.735C130.362 28.3583 130.27 28.065 130.087 27.855C129.904 27.645 129.654 27.54 129.337 27.54C129.03 27.54 128.784 27.645 128.597 27.855C128.414 28.065 128.322 28.3383 128.322 28.675L127.782 28.315C127.782 27.965 127.869 27.65 128.042 27.37C128.215 27.09 128.449 26.87 128.742 26.71C129.039 26.5467 129.37 26.465 129.737 26.465C130.14 26.465 130.477 26.5517 130.747 26.725C131.02 26.895 131.224 27.1283 131.357 27.425C131.494 27.7183 131.562 28.05 131.562 28.42V32H130.362ZM138.478 32.15C137.932 32.15 137.452 32.0317 137.038 31.795C136.625 31.5583 136.302 31.23 136.068 30.81C135.838 30.39 135.723 29.9067 135.723 29.36C135.723 28.77 135.837 28.2583 136.063 27.825C136.29 27.3883 136.605 27.05 137.008 26.81C137.412 26.57 137.878 26.45 138.408 26.45C138.968 26.45 139.443 26.5817 139.833 26.845C140.227 27.105 140.518 27.4733 140.708 27.95C140.898 28.4267 140.97 28.9883 140.923 29.635H139.728V29.195C139.725 28.6083 139.622 28.18 139.418 27.91C139.215 27.64 138.895 27.505 138.458 27.505C137.965 27.505 137.598 27.6583 137.358 27.965C137.118 28.2683 136.998 28.7133 136.998 29.3C136.998 29.8467 137.118 30.27 137.358 30.57C137.598 30.87 137.948 31.02 138.408 31.02C138.705 31.02 138.96 30.955 139.173 30.825C139.39 30.6917 139.557 30.5 139.673 30.25L140.863 30.61C140.657 31.0967 140.337 31.475 139.903 31.745C139.473 32.015 138.998 32.15 138.478 32.15ZM136.618 29.635V28.725H140.333V29.635H136.618ZM145.627 32V29.4C145.627 29.23 145.616 29.0417 145.592 28.835C145.569 28.6283 145.514 28.43 145.427 28.24C145.344 28.0467 145.217 27.8883 145.047 27.765C144.881 27.6417 144.654 27.58 144.367 27.58C144.214 27.58 144.062 27.605 143.912 27.655C143.762 27.705 143.626 27.7917 143.502 27.915C143.382 28.035 143.286 28.2017 143.212 28.415C143.139 28.625 143.102 28.895 143.102 29.225L142.387 28.92C142.387 28.46 142.476 28.0433 142.652 27.67C142.832 27.2967 143.096 27 143.442 26.78C143.789 26.5567 144.216 26.445 144.722 26.445C145.122 26.445 145.452 26.5117 145.712 26.645C145.972 26.7783 146.179 26.9483 146.332 27.155C146.486 27.3617 146.599 27.5817 146.672 27.815C146.746 28.0483 146.792 28.27 146.812 28.48C146.836 28.6867 146.847 28.855 146.847 28.985V32H145.627ZM141.882 32V26.6H142.957V28.275H143.102V32H141.882ZM151.317 32C150.96 32.0667 150.61 32.095 150.267 32.085C149.927 32.0783 149.622 32.0167 149.352 31.9C149.082 31.78 148.877 31.5917 148.737 31.335C148.614 31.1017 148.549 30.8633 148.542 30.62C148.535 30.3767 148.532 30.1017 148.532 29.795V25.1H149.732V29.725C149.732 29.9417 149.734 30.1317 149.737 30.295C149.744 30.4583 149.779 30.5917 149.842 30.695C149.962 30.895 150.154 31.0067 150.417 31.03C150.68 31.0533 150.98 31.04 151.317 30.99V32ZM147.552 27.545V26.6H151.317V27.545H147.552Z" fill="white"/>
</svg>
