<svg width="168" height="60" viewBox="0 0 168 60" fill="none" xmlns="http://www.w3.org/2000/svg">
<path d="M69.7358 40.5H0.896226L15.7161 21.4002L15.7161 21.4003L15.7211 21.3936C15.9137 21.1367 16.0187 20.8253 16.0187 20.504C16.0187 20.1827 15.9137 19.8713 15.7211 19.6144L15.7212 19.6144L15.7161 19.6078L0.896023 0.5H69.7338C69.8726 0.501244 70.0085 0.533393 70.1312 0.593334C70.2543 0.65347 70.36 0.739625 70.441 0.844014L70.4413 0.844396L85.3296 20.0011C85.3299 20.0016 85.3303 20.002 85.3306 20.0025C85.4415 20.1483 85.5 20.3227 85.5 20.5C85.5 20.6774 85.4415 20.8518 85.3305 20.9976C85.3302 20.998 85.3299 20.9985 85.3296 20.9989L70.4424 40.1622C70.4421 40.1625 70.4419 40.1629 70.4416 40.1632C70.3607 40.2662 70.2554 40.351 70.1331 40.4098C70.0103 40.4689 69.8743 40.5 69.7358 40.5Z" fill="white" stroke="#3578DB"/>
<path d="M15.1122 57.18C14.4802 57.18 13.9102 57.07 13.4022 56.85C12.8982 56.63 12.4822 56.316 12.1542 55.908C11.8302 55.496 11.6242 55.008 11.5362 54.444L13.0362 54.216C13.1642 54.728 13.4262 55.124 13.8222 55.404C14.2222 55.684 14.6822 55.824 15.2022 55.824C15.5102 55.824 15.8002 55.776 16.0722 55.68C16.3442 55.584 16.5642 55.444 16.7322 55.26C16.9042 55.076 16.9902 54.85 16.9902 54.582C16.9902 54.462 16.9702 54.352 16.9302 54.252C16.8902 54.148 16.8302 54.056 16.7502 53.976C16.6742 53.896 16.5742 53.824 16.4502 53.76C16.3302 53.692 16.1902 53.634 16.0302 53.586L13.7982 52.926C13.6062 52.87 13.3982 52.796 13.1742 52.704C12.9542 52.608 12.7442 52.478 12.5442 52.314C12.3482 52.146 12.1862 51.934 12.0582 51.678C11.9342 51.418 11.8722 51.098 11.8722 50.718C11.8722 50.162 12.0122 49.696 12.2922 49.32C12.5762 48.94 12.9562 48.656 13.4322 48.468C13.9122 48.28 14.4442 48.188 15.0282 48.192C15.6202 48.196 16.1482 48.298 16.6122 48.498C17.0762 48.694 17.4642 48.98 17.7762 49.356C18.0882 49.732 18.3082 50.186 18.4362 50.718L16.8822 50.988C16.8182 50.684 16.6942 50.426 16.5102 50.214C16.3302 49.998 16.1082 49.834 15.8442 49.722C15.5842 49.61 15.3062 49.55 15.0102 49.542C14.7222 49.538 14.4542 49.582 14.2062 49.674C13.9622 49.762 13.7642 49.89 13.6122 50.058C13.4642 50.226 13.3902 50.422 13.3902 50.646C13.3902 50.858 13.4542 51.032 13.5822 51.168C13.7102 51.3 13.8682 51.406 14.0562 51.486C14.2482 51.562 14.4422 51.626 14.6382 51.678L16.1862 52.11C16.3982 52.166 16.6362 52.242 16.9002 52.338C17.1642 52.434 17.4182 52.568 17.6622 52.74C17.9062 52.912 18.1062 53.138 18.2622 53.418C18.4222 53.698 18.5022 54.054 18.5022 54.486C18.5022 54.934 18.4082 55.328 18.2202 55.668C18.0362 56.004 17.7862 56.284 17.4702 56.508C17.1542 56.732 16.7922 56.9 16.3842 57.012C15.9802 57.124 15.5562 57.18 15.1122 57.18ZM23.5989 57C23.1709 57.08 22.7509 57.114 22.3389 57.102C21.9309 57.094 21.5649 57.02 21.2409 56.88C20.9169 56.736 20.6709 56.51 20.5029 56.202C20.3549 55.922 20.2769 55.636 20.2689 55.344C20.2609 55.052 20.2569 54.722 20.2569 54.354V48.72H21.6969V54.27C21.6969 54.53 21.6989 54.758 21.7029 54.954C21.7109 55.15 21.7529 55.31 21.8289 55.434C21.9729 55.674 22.2029 55.808 22.5189 55.836C22.8349 55.864 23.1949 55.848 23.5989 55.788V57ZM19.0809 51.654V50.52H23.5989V51.654H19.0809ZM27.6102 57.18C26.9542 57.18 26.3782 57.038 25.8822 56.754C25.3862 56.47 24.9982 56.076 24.7182 55.572C24.4422 55.068 24.3042 54.488 24.3042 53.832C24.3042 53.124 24.4402 52.51 24.7122 51.99C24.9842 51.466 25.3622 51.06 25.8462 50.772C26.3302 50.484 26.8902 50.34 27.5262 50.34C28.1982 50.34 28.7682 50.498 29.2362 50.814C29.7082 51.126 30.0582 51.568 30.2862 52.14C30.5142 52.712 30.6002 53.386 30.5442 54.162H29.1102V53.634C29.1062 52.93 28.9822 52.416 28.7382 52.092C28.4942 51.768 28.1102 51.606 27.5862 51.606C26.9942 51.606 26.5542 51.79 26.2662 52.158C25.9782 52.522 25.8342 53.056 25.8342 53.76C25.8342 54.416 25.9782 54.924 26.2662 55.284C26.5542 55.644 26.9742 55.824 27.5262 55.824C27.8822 55.824 28.1882 55.746 28.4442 55.59C28.7042 55.43 28.9042 55.2 29.0442 54.9L30.4722 55.332C30.2242 55.916 29.8402 56.37 29.3202 56.694C28.8042 57.018 28.2342 57.18 27.6102 57.18ZM25.3782 54.162V53.07H29.8362V54.162H25.3782ZM34.8212 57.18C34.1892 57.18 33.6592 57.03 33.2312 56.73C32.8032 56.43 32.4812 56.022 32.2652 55.506C32.0492 54.986 31.9412 54.404 31.9412 53.76C31.9412 53.108 32.0492 52.524 32.2652 52.008C32.4812 51.492 32.7972 51.086 33.2132 50.79C33.6332 50.49 34.1512 50.34 34.7672 50.34C35.3792 50.34 35.9092 50.49 36.3572 50.79C36.8092 51.086 37.1592 51.492 37.4072 52.008C37.6552 52.52 37.7792 53.104 37.7792 53.76C37.7792 54.408 37.6572 54.99 37.4132 55.506C37.1692 56.022 36.8252 56.43 36.3812 56.73C35.9372 57.03 35.4172 57.18 34.8212 57.18ZM31.6952 59.88V50.52H32.9732V55.068H33.1532V59.88H31.6952ZM34.5992 55.884C34.9752 55.884 35.2852 55.79 35.5292 55.602C35.7732 55.414 35.9532 55.16 36.0692 54.84C36.1892 54.516 36.2492 54.156 36.2492 53.76C36.2492 53.368 36.1892 53.012 36.0692 52.692C35.9492 52.368 35.7632 52.112 35.5112 51.924C35.2592 51.732 34.9392 51.636 34.5512 51.636C34.1832 51.636 33.8832 51.726 33.6512 51.906C33.4192 52.082 33.2472 52.33 33.1352 52.65C33.0272 52.966 32.9732 53.336 32.9732 53.76C32.9732 54.18 33.0272 54.55 33.1352 54.87C33.2472 55.19 33.4212 55.44 33.6572 55.62C33.8972 55.796 34.2112 55.884 34.5992 55.884ZM43.0041 57V49.938L41.3841 50.928V49.332L43.0041 48.36H44.4801V57H43.0041Z" fill="#3578DB"/>
<path d="M31.6228 17.15C31.0961 17.15 30.6211 17.0583 30.1978 16.875C29.7778 16.6917 29.4311 16.43 29.1578 16.09C28.8878 15.7467 28.7161 15.34 28.6428 14.87L29.8928 14.68C29.9995 15.1067 30.2178 15.4367 30.5478 15.67C30.8811 15.9033 31.2645 16.02 31.6978 16.02C31.9545 16.02 32.1961 15.98 32.4228 15.9C32.6495 15.82 32.8328 15.7033 32.9728 15.55C33.1161 15.3967 33.1878 15.2083 33.1878 14.985C33.1878 14.885 33.1711 14.7933 33.1378 14.71C33.1045 14.6233 33.0545 14.5467 32.9878 14.48C32.9245 14.4133 32.8411 14.3533 32.7378 14.3C32.6378 14.2433 32.5211 14.195 32.3878 14.155L30.5278 13.605C30.3678 13.5583 30.1945 13.4967 30.0078 13.42C29.8245 13.34 29.6495 13.2317 29.4828 13.095C29.3195 12.955 29.1845 12.7783 29.0778 12.565C28.9745 12.3483 28.9228 12.0817 28.9228 11.765C28.9228 11.3017 29.0395 10.9133 29.2728 10.6C29.5095 10.2833 29.8261 10.0467 30.2228 9.89C30.6228 9.73333 31.0661 9.65667 31.5528 9.66C32.0461 9.66333 32.4861 9.74833 32.8728 9.915C33.2595 10.0783 33.5828 10.3167 33.8428 10.63C34.1028 10.9433 34.2861 11.3217 34.3928 11.765L33.0978 11.99C33.0445 11.7367 32.9411 11.5217 32.7878 11.345C32.6378 11.165 32.4528 11.0283 32.2328 10.935C32.0161 10.8417 31.7845 10.7917 31.5378 10.785C31.2978 10.7817 31.0745 10.8183 30.8678 10.895C30.6645 10.9683 30.4995 11.075 30.3728 11.215C30.2495 11.355 30.1878 11.5183 30.1878 11.705C30.1878 11.8817 30.2411 12.0267 30.3478 12.14C30.4545 12.25 30.5861 12.3383 30.7428 12.405C30.9028 12.4683 31.0645 12.5217 31.2278 12.565L32.5178 12.925C32.6945 12.9717 32.8928 13.035 33.1128 13.115C33.3328 13.195 33.5445 13.3067 33.7478 13.45C33.9511 13.5933 34.1178 13.7817 34.2478 14.015C34.3811 14.2483 34.4478 14.545 34.4478 14.905C34.4478 15.2783 34.3695 15.6067 34.2128 15.89C34.0595 16.17 33.8511 16.4033 33.5878 16.59C33.3245 16.7767 33.0228 16.9167 32.6828 17.01C32.3461 17.1033 31.9928 17.15 31.6228 17.15ZM37.9851 17.15C37.4384 17.15 36.9584 17.0317 36.5451 16.795C36.1317 16.5583 35.8084 16.23 35.5751 15.81C35.3451 15.39 35.2301 14.9067 35.2301 14.36C35.2301 13.77 35.3434 13.2583 35.5701 12.825C35.7967 12.3883 36.1117 12.05 36.5151 11.81C36.9184 11.57 37.3851 11.45 37.9151 11.45C38.4751 11.45 38.9501 11.5817 39.3401 11.845C39.7334 12.105 40.0251 12.4733 40.2151 12.95C40.4051 13.4267 40.4767 13.9883 40.4301 14.635H39.2351V14.195C39.2317 13.6083 39.1284 13.18 38.9251 12.91C38.7217 12.64 38.4017 12.505 37.9651 12.505C37.4717 12.505 37.1051 12.6583 36.8651 12.965C36.6251 13.2683 36.5051 13.7133 36.5051 14.3C36.5051 14.8467 36.6251 15.27 36.8651 15.57C37.1051 15.87 37.4551 16.02 37.9151 16.02C38.2117 16.02 38.4667 15.955 38.6801 15.825C38.8967 15.6917 39.0634 15.5 39.1801 15.25L40.3701 15.61C40.1634 16.0967 39.8434 16.475 39.4101 16.745C38.9801 17.015 38.5051 17.15 37.9851 17.15ZM36.1251 14.635V13.725H39.8401V14.635H36.1251ZM41.6457 17V9.65H42.8507V17H41.6457ZM46.8034 17.15C46.2568 17.15 45.7768 17.0317 45.3634 16.795C44.9501 16.5583 44.6268 16.23 44.3934 15.81C44.1634 15.39 44.0484 14.9067 44.0484 14.36C44.0484 13.77 44.1618 13.2583 44.3884 12.825C44.6151 12.3883 44.9301 12.05 45.3334 11.81C45.7368 11.57 46.2034 11.45 46.7334 11.45C47.2934 11.45 47.7684 11.5817 48.1584 11.845C48.5518 12.105 48.8434 12.4733 49.0334 12.95C49.2234 13.4267 49.2951 13.9883 49.2484 14.635H48.0534V14.195C48.0501 13.6083 47.9468 13.18 47.7434 12.91C47.5401 12.64 47.2201 12.505 46.7834 12.505C46.2901 12.505 45.9234 12.6583 45.6834 12.965C45.4434 13.2683 45.3234 13.7133 45.3234 14.3C45.3234 14.8467 45.4434 15.27 45.6834 15.57C45.9234 15.87 46.2734 16.02 46.7334 16.02C47.0301 16.02 47.2851 15.955 47.4984 15.825C47.7151 15.6917 47.8818 15.5 47.9984 15.25L49.1884 15.61C48.9818 16.0967 48.6618 16.475 48.2284 16.745C47.7984 17.015 47.3234 17.15 46.8034 17.15ZM44.9434 14.635V13.725H48.6584V14.635H44.9434ZM52.7091 17.15C52.1524 17.15 51.6774 17.0267 51.2841 16.78C50.8907 16.53 50.5891 16.19 50.3791 15.76C50.1724 15.33 50.0674 14.8433 50.0641 14.3C50.0674 13.7467 50.1757 13.2567 50.3891 12.83C50.6057 12.4 50.9124 12.0633 51.3091 11.82C51.7057 11.5733 52.1774 11.45 52.7241 11.45C53.3374 11.45 53.8557 11.605 54.2791 11.915C54.7057 12.2217 54.9841 12.6417 55.1141 13.175L53.9141 13.5C53.8207 13.21 53.6657 12.985 53.4491 12.825C53.2324 12.6617 52.9857 12.58 52.7091 12.58C52.3957 12.58 52.1374 12.655 51.9341 12.805C51.7307 12.9517 51.5807 13.155 51.4841 13.415C51.3874 13.675 51.3391 13.97 51.3391 14.3C51.3391 14.8133 51.4541 15.2283 51.6841 15.545C51.9141 15.8617 52.2557 16.02 52.7091 16.02C53.0291 16.02 53.2807 15.9467 53.4641 15.8C53.6507 15.6533 53.7907 15.4417 53.8841 15.165L55.1141 15.44C54.9474 15.99 54.6557 16.4133 54.2391 16.71C53.8224 17.0033 53.3124 17.15 52.7091 17.15ZM59.281 17C58.9243 17.0667 58.5743 17.095 58.231 17.085C57.891 17.0783 57.586 17.0167 57.316 16.9C57.046 16.78 56.841 16.5917 56.701 16.335C56.5777 16.1017 56.5127 15.8633 56.506 15.62C56.4993 15.3767 56.496 15.1017 56.496 14.795V10.1H57.696V14.725C57.696 14.9417 57.6977 15.1317 57.701 15.295C57.7077 15.4583 57.7427 15.5917 57.806 15.695C57.926 15.895 58.1177 16.0067 58.381 16.03C58.6443 16.0533 58.9443 16.04 59.281 15.99V17ZM55.516 12.545V11.6H59.281V12.545H55.516ZM27.828 31.15C27.108 31.15 26.4913 30.9933 25.978 30.68C25.4647 30.3633 25.0697 29.9233 24.793 29.36C24.5197 28.7967 24.383 28.1433 24.383 27.4C24.383 26.6567 24.5197 26.0033 24.793 25.44C25.0697 24.8767 25.4647 24.4383 25.978 24.125C26.4913 23.8083 27.108 23.65 27.828 23.65C28.658 23.65 29.3497 23.8583 29.903 24.275C30.4563 24.6883 30.8447 25.2467 31.068 25.95L29.853 26.285C29.713 25.815 29.4747 25.4483 29.138 25.185C28.8013 24.9183 28.3647 24.785 27.828 24.785C27.3447 24.785 26.9413 24.8933 26.618 25.11C26.298 25.3267 26.0563 25.6317 25.893 26.025C25.733 26.415 25.6513 26.8733 25.648 27.4C25.648 27.9267 25.728 28.3867 25.888 28.78C26.0513 29.17 26.2947 29.4733 26.618 29.69C26.9413 29.9067 27.3447 30.015 27.828 30.015C28.3647 30.015 28.8013 29.8817 29.138 29.615C29.4747 29.3483 29.713 28.9817 29.853 28.515L31.068 28.85C30.8447 29.5533 30.4563 30.1133 29.903 30.53C29.3497 30.9433 28.658 31.15 27.828 31.15ZM34.5508 31.15C34.0108 31.15 33.5392 31.0283 33.1358 30.785C32.7325 30.5417 32.4192 30.2067 32.1958 29.78C31.9758 29.35 31.8658 28.8567 31.8658 28.3C31.8658 27.7333 31.9792 27.2367 32.2058 26.81C32.4325 26.3833 32.7475 26.05 33.1508 25.81C33.5542 25.57 34.0208 25.45 34.5508 25.45C35.0942 25.45 35.5675 25.5717 35.9708 25.815C36.3742 26.0583 36.6875 26.395 36.9108 26.825C37.1342 27.2517 37.2458 27.7433 37.2458 28.3C37.2458 28.86 37.1325 29.355 36.9058 29.785C36.6825 30.2117 36.3692 30.5467 35.9658 30.79C35.5625 31.03 35.0908 31.15 34.5508 31.15ZM34.5508 30.02C35.0308 30.02 35.3875 29.86 35.6208 29.54C35.8542 29.22 35.9708 28.8067 35.9708 28.3C35.9708 27.7767 35.8525 27.36 35.6158 27.05C35.3792 26.7367 35.0242 26.58 34.5508 26.58C34.2275 26.58 33.9608 26.6533 33.7508 26.8C33.5442 26.9433 33.3908 27.145 33.2908 27.405C33.1908 27.6617 33.1408 27.96 33.1408 28.3C33.1408 28.8233 33.2592 29.2417 33.4958 29.555C33.7358 29.865 34.0875 30.02 34.5508 30.02ZM40.3725 31.155C39.9725 31.155 39.6425 31.0883 39.3825 30.955C39.1225 30.8217 38.9158 30.6517 38.7625 30.445C38.6091 30.2383 38.4958 30.0183 38.4225 29.785C38.3491 29.5517 38.3008 29.3317 38.2775 29.125C38.2575 28.915 38.2475 28.745 38.2475 28.615V25.6H39.4675V28.2C39.4675 28.3667 39.4791 28.555 39.5025 28.765C39.5258 28.9717 39.5791 29.1717 39.6625 29.365C39.7491 29.555 39.8758 29.7117 40.0425 29.835C40.2125 29.9583 40.4408 30.02 40.7275 30.02C40.8808 30.02 41.0325 29.995 41.1825 29.945C41.3325 29.895 41.4675 29.81 41.5875 29.69C41.7108 29.5667 41.8091 29.3983 41.8825 29.185C41.9558 28.9717 41.9925 28.7017 41.9925 28.375L42.7075 28.68C42.7075 29.14 42.6175 29.5567 42.4375 29.93C42.2608 30.3033 41.9991 30.6017 41.6525 30.825C41.3058 31.045 40.8791 31.155 40.3725 31.155ZM42.1375 31V29.325H41.9925V25.6H43.2025V31H42.1375ZM48.3422 31V28.4C48.3422 28.23 48.3306 28.0417 48.3072 27.835C48.2839 27.6283 48.2289 27.43 48.1422 27.24C48.0589 27.0467 47.9322 26.8883 47.7622 26.765C47.5956 26.6417 47.3689 26.58 47.0822 26.58C46.9289 26.58 46.7772 26.605 46.6272 26.655C46.4772 26.705 46.3406 26.7917 46.2172 26.915C46.0972 27.035 46.0006 27.2017 45.9272 27.415C45.8539 27.625 45.8172 27.895 45.8172 28.225L45.1022 27.92C45.1022 27.46 45.1906 27.0433 45.3672 26.67C45.5472 26.2967 45.8106 26 46.1572 25.78C46.5039 25.5567 46.9306 25.445 47.4372 25.445C47.8372 25.445 48.1672 25.5117 48.4272 25.645C48.6872 25.7783 48.8939 25.9483 49.0472 26.155C49.2006 26.3617 49.3139 26.5817 49.3872 26.815C49.4606 27.0483 49.5072 27.27 49.5272 27.48C49.5506 27.6867 49.5622 27.855 49.5622 27.985V31H48.3422ZM44.5972 31V25.6H45.6722V27.275H45.8172V31H44.5972ZM54.032 31C53.6753 31.0667 53.3253 31.095 52.982 31.085C52.642 31.0783 52.337 31.0167 52.067 30.9C51.797 30.78 51.592 30.5917 51.452 30.335C51.3287 30.1017 51.2637 29.8633 51.257 29.62C51.2503 29.3767 51.247 29.1017 51.247 28.795V24.1H52.447V28.725C52.447 28.9417 52.4487 29.1317 52.452 29.295C52.4587 29.4583 52.4937 29.5917 52.557 29.695C52.677 29.895 52.8687 30.0067 53.132 30.03C53.3953 30.0533 53.6953 30.04 54.032 29.99V31ZM50.267 26.545V25.6H54.032V26.545H50.267ZM55.1932 31V25.6H56.2582V26.915L56.1282 26.745C56.1948 26.565 56.2832 26.4017 56.3932 26.255C56.5065 26.105 56.6415 25.9817 56.7982 25.885C56.9315 25.795 57.0782 25.725 57.2382 25.675C57.4015 25.6217 57.5682 25.59 57.7382 25.58C57.9082 25.5667 58.0732 25.5733 58.2332 25.6V26.725C58.0732 26.6783 57.8882 26.6633 57.6782 26.68C57.4715 26.6967 57.2848 26.755 57.1182 26.855C56.9515 26.945 56.8148 27.06 56.7082 27.2C56.6048 27.34 56.5282 27.5 56.4782 27.68C56.4282 27.8567 56.4032 28.0483 56.4032 28.255V31H55.1932ZM59.7313 33.4L60.7713 30.545L60.7913 31.385L58.4363 25.6H59.6913L61.3613 29.88H61.0413L62.6663 25.6H63.8713L60.8613 33.4H59.7313Z" fill="#3578DB"/>
<circle cx="56" cy="52" r="5.5" stroke="#3578DB"/>
<circle cx="56" cy="52" r="4" fill="#3578DB"/>
<circle cx="56" cy="52" r="4" fill="#3578DB"/>
<path d="M53.692 52.4737C53.571 52.6832 53.6428 52.9511 53.8523 53.0721L55.6101 54.087C55.7425 54.1634 55.9115 54.1236 55.9958 53.9961L58.1533 50.7324C58.2927 50.5215 58.2255 50.2368 58.0066 50.1104C57.807 49.9951 57.5523 50.054 57.4234 50.2451L55.5415 53.0356L54.2904 52.3133C54.0809 52.1923 53.8129 52.2641 53.692 52.4737ZM55.5767 53.056L55.5766 53.0559C55.5766 53.0559 55.5767 53.0559 55.5767 53.056L55.5549 53.0937L55.5767 53.056Z" fill="white" stroke="white" stroke-width="0.3"/>
<path d="M151.547 41H81.1255C81.1022 41 81.0794 40.9938 81.0595 40.982C81.0397 40.9703 81.0237 40.9535 81.0133 40.9335C81.0028 40.9135 80.9984 40.8911 81.0005 40.8689C81.0026 40.8466 81.0111 40.8253 81.0251 40.8074L96.4992 21.0937C96.6292 20.9223 96.6991 20.7159 96.6991 20.504C96.6991 20.2921 96.6292 20.0857 96.4992 19.9143L81.0251 0.192568C81.0111 0.174687 81.0026 0.153418 81.0005 0.131158C80.9984 0.108897 81.0028 0.086519 81.0133 0.0665277C81.0237 0.0465365 81.0397 0.0297231 81.0595 0.0179725C81.0794 0.00622199 81.1022 0 81.1255 0H151.547C151.763 0.00154596 151.976 0.050853 152.169 0.144086C152.362 0.23732 152.53 0.371967 152.66 0.537572L167.724 19.6977C167.903 19.9298 168 20.2111 168 20.5C168 20.7889 167.903 21.0702 167.724 21.3024L152.66 40.4704C152.529 40.635 152.361 40.7685 152.168 40.8604C151.975 40.9522 151.762 41 151.547 41Z" fill="#3578DB"/>
<path d="M106.169 57.18C105.537 57.18 104.967 57.07 104.459 56.85C103.955 56.63 103.539 56.316 103.211 55.908C102.887 55.496 102.681 55.008 102.593 54.444L104.093 54.216C104.221 54.728 104.483 55.124 104.879 55.404C105.279 55.684 105.739 55.824 106.259 55.824C106.567 55.824 106.857 55.776 107.129 55.68C107.401 55.584 107.621 55.444 107.789 55.26C107.961 55.076 108.047 54.85 108.047 54.582C108.047 54.462 108.027 54.352 107.987 54.252C107.947 54.148 107.887 54.056 107.807 53.976C107.731 53.896 107.631 53.824 107.507 53.76C107.387 53.692 107.247 53.634 107.087 53.586L104.855 52.926C104.663 52.87 104.455 52.796 104.231 52.704C104.011 52.608 103.801 52.478 103.601 52.314C103.405 52.146 103.243 51.934 103.115 51.678C102.991 51.418 102.929 51.098 102.929 50.718C102.929 50.162 103.069 49.696 103.349 49.32C103.633 48.94 104.013 48.656 104.489 48.468C104.969 48.28 105.501 48.188 106.085 48.192C106.677 48.196 107.205 48.298 107.669 48.498C108.133 48.694 108.521 48.98 108.833 49.356C109.145 49.732 109.365 50.186 109.493 50.718L107.939 50.988C107.875 50.684 107.751 50.426 107.567 50.214C107.387 49.998 107.165 49.834 106.901 49.722C106.641 49.61 106.363 49.55 106.067 49.542C105.779 49.538 105.511 49.582 105.263 49.674C105.019 49.762 104.821 49.89 104.669 50.058C104.521 50.226 104.447 50.422 104.447 50.646C104.447 50.858 104.511 51.032 104.639 51.168C104.767 51.3 104.925 51.406 105.113 51.486C105.305 51.562 105.499 51.626 105.695 51.678L107.243 52.11C107.455 52.166 107.693 52.242 107.957 52.338C108.221 52.434 108.475 52.568 108.719 52.74C108.963 52.912 109.163 53.138 109.319 53.418C109.479 53.698 109.559 54.054 109.559 54.486C109.559 54.934 109.465 55.328 109.277 55.668C109.093 56.004 108.843 56.284 108.527 56.508C108.211 56.732 107.849 56.9 107.441 57.012C107.037 57.124 106.613 57.18 106.169 57.18ZM114.656 57C114.228 57.08 113.808 57.114 113.396 57.102C112.988 57.094 112.622 57.02 112.298 56.88C111.974 56.736 111.728 56.51 111.56 56.202C111.412 55.922 111.334 55.636 111.326 55.344C111.318 55.052 111.314 54.722 111.314 54.354V48.72H112.754V54.27C112.754 54.53 112.756 54.758 112.76 54.954C112.768 55.15 112.81 55.31 112.886 55.434C113.03 55.674 113.26 55.808 113.576 55.836C113.892 55.864 114.252 55.848 114.656 55.788V57ZM110.138 51.654V50.52H114.656V51.654H110.138ZM118.667 57.18C118.011 57.18 117.435 57.038 116.939 56.754C116.443 56.47 116.055 56.076 115.775 55.572C115.499 55.068 115.361 54.488 115.361 53.832C115.361 53.124 115.497 52.51 115.769 51.99C116.041 51.466 116.419 51.06 116.903 50.772C117.387 50.484 117.947 50.34 118.583 50.34C119.255 50.34 119.825 50.498 120.293 50.814C120.765 51.126 121.115 51.568 121.343 52.14C121.571 52.712 121.657 53.386 121.601 54.162H120.167V53.634C120.163 52.93 120.039 52.416 119.795 52.092C119.551 51.768 119.167 51.606 118.643 51.606C118.051 51.606 117.611 51.79 117.323 52.158C117.035 52.522 116.891 53.056 116.891 53.76C116.891 54.416 117.035 54.924 117.323 55.284C117.611 55.644 118.031 55.824 118.583 55.824C118.939 55.824 119.245 55.746 119.501 55.59C119.761 55.43 119.961 55.2 120.101 54.9L121.529 55.332C121.281 55.916 120.897 56.37 120.377 56.694C119.861 57.018 119.291 57.18 118.667 57.18ZM116.435 54.162V53.07H120.893V54.162H116.435ZM125.878 57.18C125.246 57.18 124.716 57.03 124.288 56.73C123.86 56.43 123.538 56.022 123.322 55.506C123.106 54.986 122.998 54.404 122.998 53.76C122.998 53.108 123.106 52.524 123.322 52.008C123.538 51.492 123.854 51.086 124.27 50.79C124.69 50.49 125.208 50.34 125.824 50.34C126.436 50.34 126.966 50.49 127.414 50.79C127.866 51.086 128.216 51.492 128.464 52.008C128.712 52.52 128.836 53.104 128.836 53.76C128.836 54.408 128.714 54.99 128.47 55.506C128.226 56.022 127.882 56.43 127.438 56.73C126.994 57.03 126.474 57.18 125.878 57.18ZM122.752 59.88V50.52H124.03V55.068H124.21V59.88H122.752ZM125.656 55.884C126.032 55.884 126.342 55.79 126.586 55.602C126.83 55.414 127.01 55.16 127.126 54.84C127.246 54.516 127.306 54.156 127.306 53.76C127.306 53.368 127.246 53.012 127.126 52.692C127.006 52.368 126.82 52.112 126.568 51.924C126.316 51.732 125.996 51.636 125.608 51.636C125.24 51.636 124.94 51.726 124.708 51.906C124.476 52.082 124.304 52.33 124.192 52.65C124.084 52.966 124.03 53.336 124.03 53.76C124.03 54.18 124.084 54.55 124.192 54.87C124.304 55.19 124.478 55.44 124.714 55.62C124.954 55.796 125.268 55.884 125.656 55.884ZM132.321 56.988V55.728L136.017 52.434C136.305 52.178 136.505 51.936 136.617 51.708C136.729 51.48 136.785 51.26 136.785 51.048C136.785 50.76 136.723 50.504 136.599 50.28C136.475 50.052 136.303 49.872 136.083 49.74C135.867 49.608 135.617 49.542 135.333 49.542C135.033 49.542 134.767 49.612 134.535 49.752C134.307 49.888 134.129 50.07 134.001 50.298C133.873 50.526 133.813 50.772 133.821 51.036H132.333C132.333 50.46 132.461 49.958 132.717 49.53C132.977 49.102 133.333 48.77 133.785 48.534C134.241 48.298 134.767 48.18 135.363 48.18C135.915 48.18 136.411 48.304 136.851 48.552C137.291 48.796 137.637 49.136 137.889 49.572C138.141 50.004 138.267 50.502 138.267 51.066C138.267 51.478 138.211 51.824 138.099 52.104C137.987 52.384 137.819 52.642 137.595 52.878C137.375 53.114 137.101 53.376 136.773 53.664L134.151 55.986L134.019 55.626H138.267V56.988H132.321Z" fill="#3578DB"/>
<path d="M112.961 17.15C112.388 17.15 111.883 17.0333 111.446 16.8C111.013 16.5667 110.673 16.2383 110.426 15.815C110.183 15.3917 110.061 14.895 110.061 14.325V9.81L111.281 9.8V14.295C111.281 14.565 111.326 14.8067 111.416 15.02C111.51 15.2333 111.635 15.415 111.791 15.565C111.948 15.7117 112.128 15.8233 112.331 15.9C112.535 15.9767 112.745 16.015 112.961 16.015C113.185 16.015 113.396 15.9767 113.596 15.9C113.8 15.82 113.98 15.7067 114.136 15.56C114.293 15.41 114.416 15.2283 114.506 15.015C114.596 14.8017 114.641 14.5617 114.641 14.295V9.8H115.861V14.325C115.861 14.895 115.738 15.3917 115.491 15.815C115.248 16.2383 114.908 16.5667 114.471 16.8C114.038 17.0333 113.535 17.15 112.961 17.15ZM119.854 17.15C119.327 17.15 118.885 17.025 118.529 16.775C118.172 16.525 117.904 16.185 117.724 15.755C117.544 15.3217 117.454 14.8367 117.454 14.3C117.454 13.7567 117.544 13.27 117.724 12.84C117.904 12.41 118.167 12.0717 118.514 11.825C118.864 11.575 119.295 11.45 119.809 11.45C120.319 11.45 120.76 11.575 121.134 11.825C121.51 12.0717 121.802 12.41 122.009 12.84C122.215 13.2667 122.319 13.7533 122.319 14.3C122.319 14.84 122.217 15.325 122.014 15.755C121.81 16.185 121.524 16.525 121.154 16.775C120.784 17.025 120.35 17.15 119.854 17.15ZM117.249 19.4V11.6H118.314V15.39H118.464V19.4H117.249ZM119.669 16.07C119.982 16.07 120.24 15.9917 120.444 15.835C120.647 15.6783 120.797 15.4667 120.894 15.2C120.994 14.93 121.044 14.63 121.044 14.3C121.044 13.9733 120.994 13.6767 120.894 13.41C120.794 13.14 120.639 12.9267 120.429 12.77C120.219 12.61 119.952 12.53 119.629 12.53C119.322 12.53 119.072 12.605 118.879 12.755C118.685 12.9017 118.542 13.1083 118.449 13.375C118.359 13.6383 118.314 13.9467 118.314 14.3C118.314 14.65 118.359 14.9583 118.449 15.225C118.542 15.4917 118.687 15.7 118.884 15.85C119.084 15.9967 119.345 16.07 119.669 16.07ZM123.521 17V9.65H124.726V17H123.521ZM128.608 17.15C128.068 17.15 127.597 17.0283 127.193 16.785C126.79 16.5417 126.477 16.2067 126.253 15.78C126.033 15.35 125.923 14.8567 125.923 14.3C125.923 13.7333 126.037 13.2367 126.263 12.81C126.49 12.3833 126.805 12.05 127.208 11.81C127.612 11.57 128.078 11.45 128.608 11.45C129.152 11.45 129.625 11.5717 130.028 11.815C130.432 12.0583 130.745 12.395 130.968 12.825C131.192 13.2517 131.303 13.7433 131.303 14.3C131.303 14.86 131.19 15.355 130.963 15.785C130.74 16.2117 130.427 16.5467 130.023 16.79C129.62 17.03 129.148 17.15 128.608 17.15ZM128.608 16.02C129.088 16.02 129.445 15.86 129.678 15.54C129.912 15.22 130.028 14.8067 130.028 14.3C130.028 13.7767 129.91 13.36 129.673 13.05C129.437 12.7367 129.082 12.58 128.608 12.58C128.285 12.58 128.018 12.6533 127.808 12.8C127.602 12.9433 127.448 13.145 127.348 13.405C127.248 13.6617 127.198 13.96 127.198 14.3C127.198 14.8233 127.317 15.2417 127.553 15.555C127.793 15.865 128.145 16.02 128.608 16.02ZM133.915 17.15C133.525 17.15 133.195 17.0767 132.925 16.93C132.655 16.78 132.45 16.5817 132.31 16.335C132.173 16.0883 132.105 15.8167 132.105 15.52C132.105 15.26 132.148 15.0267 132.235 14.82C132.322 14.61 132.455 14.43 132.635 14.28C132.815 14.1267 133.048 14.0017 133.335 13.905C133.552 13.835 133.805 13.7717 134.095 13.715C134.388 13.6583 134.705 13.6067 135.045 13.56C135.388 13.51 135.747 13.4567 136.12 13.4L135.69 13.645C135.693 13.2717 135.61 12.9967 135.44 12.82C135.27 12.6433 134.983 12.555 134.58 12.555C134.337 12.555 134.102 12.6117 133.875 12.725C133.648 12.8383 133.49 13.0333 133.4 13.31L132.3 12.965C132.433 12.5083 132.687 12.1417 133.06 11.865C133.437 11.5883 133.943 11.45 134.58 11.45C135.06 11.45 135.482 11.5283 135.845 11.685C136.212 11.8417 136.483 12.0983 136.66 12.455C136.757 12.645 136.815 12.84 136.835 13.04C136.855 13.2367 136.865 13.4517 136.865 13.685V17H135.81V15.83L135.985 16.02C135.742 16.41 135.457 16.6967 135.13 16.88C134.807 17.06 134.402 17.15 133.915 17.15ZM134.155 16.19C134.428 16.19 134.662 16.1417 134.855 16.045C135.048 15.9483 135.202 15.83 135.315 15.69C135.432 15.55 135.51 15.4183 135.55 15.295C135.613 15.1417 135.648 14.9667 135.655 14.77C135.665 14.57 135.67 14.4083 135.67 14.285L136.04 14.395C135.677 14.4517 135.365 14.5017 135.105 14.545C134.845 14.5883 134.622 14.63 134.435 14.67C134.248 14.7067 134.083 14.7483 133.94 14.795C133.8 14.845 133.682 14.9033 133.585 14.97C133.488 15.0367 133.413 15.1133 133.36 15.2C133.31 15.2867 133.285 15.3883 133.285 15.505C133.285 15.6383 133.318 15.7567 133.385 15.86C133.452 15.96 133.548 16.04 133.675 16.1C133.805 16.16 133.965 16.19 134.155 16.19ZM140.332 17.15C139.835 17.15 139.402 17.025 139.032 16.775C138.662 16.525 138.375 16.185 138.172 15.755C137.968 15.325 137.867 14.84 137.867 14.3C137.867 13.7533 137.968 13.2667 138.172 12.84C138.378 12.41 138.67 12.0717 139.047 11.825C139.423 11.575 139.867 11.45 140.377 11.45C140.89 11.45 141.32 11.575 141.667 11.825C142.017 12.0717 142.282 12.41 142.462 12.84C142.642 13.27 142.732 13.7567 142.732 14.3C142.732 14.8367 142.642 15.3217 142.462 15.755C142.282 16.185 142.013 16.525 141.657 16.775C141.3 17.025 140.858 17.15 140.332 17.15ZM140.517 16.07C140.84 16.07 141.1 15.9967 141.297 15.85C141.497 15.7 141.642 15.4917 141.732 15.225C141.825 14.9583 141.872 14.65 141.872 14.3C141.872 13.9467 141.825 13.6383 141.732 13.375C141.642 13.1083 141.5 12.9017 141.307 12.755C141.113 12.605 140.863 12.53 140.557 12.53C140.233 12.53 139.967 12.61 139.757 12.77C139.547 12.9267 139.392 13.14 139.292 13.41C139.192 13.6767 139.142 13.9733 139.142 14.3C139.142 14.63 139.19 14.93 139.287 15.2C139.387 15.4667 139.538 15.6783 139.742 15.835C139.945 15.9917 140.203 16.07 140.517 16.07ZM141.872 17V13.21H141.722V9.8H142.937V17H141.872ZM101.922 31V23.8H104.217C104.277 23.8 104.395 23.8017 104.572 23.805C104.752 23.8083 104.925 23.82 105.092 23.84C105.662 23.9133 106.143 24.1167 106.537 24.45C106.933 24.78 107.233 25.2017 107.437 25.715C107.64 26.2283 107.742 26.79 107.742 27.4C107.742 28.01 107.64 28.5717 107.437 29.085C107.233 29.5983 106.933 30.0217 106.537 30.355C106.143 30.685 105.662 30.8867 105.092 30.96C104.928 30.98 104.757 30.9917 104.577 30.995C104.397 30.9983 104.277 31 104.217 31H101.922ZM103.147 29.865H104.217C104.317 29.865 104.443 29.8617 104.597 29.855C104.753 29.8483 104.892 29.8333 105.012 29.81C105.352 29.7467 105.628 29.595 105.842 29.355C106.055 29.115 106.212 28.8233 106.312 28.48C106.415 28.1367 106.467 27.7767 106.467 27.4C106.467 27.01 106.415 26.6433 106.312 26.3C106.208 25.9567 106.048 25.6683 105.832 25.435C105.618 25.2017 105.345 25.0533 105.012 24.99C104.892 24.9633 104.753 24.9483 104.597 24.945C104.443 24.9383 104.317 24.935 104.217 24.935H103.147V29.865ZM111.309 31.15C110.769 31.15 110.297 31.0283 109.894 30.785C109.49 30.5417 109.177 30.2067 108.954 29.78C108.734 29.35 108.624 28.8567 108.624 28.3C108.624 27.7333 108.737 27.2367 108.964 26.81C109.19 26.3833 109.505 26.05 109.909 25.81C110.312 25.57 110.779 25.45 111.309 25.45C111.852 25.45 112.325 25.5717 112.729 25.815C113.132 26.0583 113.445 26.395 113.669 26.825C113.892 27.2517 114.004 27.7433 114.004 28.3C114.004 28.86 113.89 29.355 113.664 29.785C113.44 30.2117 113.127 30.5467 112.724 30.79C112.32 31.03 111.849 31.15 111.309 31.15ZM111.309 30.02C111.789 30.02 112.145 29.86 112.379 29.54C112.612 29.22 112.729 28.8067 112.729 28.3C112.729 27.7767 112.61 27.36 112.374 27.05C112.137 26.7367 111.782 26.58 111.309 26.58C110.985 26.58 110.719 26.6533 110.509 26.8C110.302 26.9433 110.149 27.145 110.049 27.405C109.949 27.6617 109.899 27.96 109.899 28.3C109.899 28.8233 110.017 29.2417 110.254 29.555C110.494 29.865 110.845 30.02 111.309 30.02ZM117.45 31.15C116.894 31.15 116.419 31.0267 116.025 30.78C115.632 30.53 115.33 30.19 115.12 29.76C114.914 29.33 114.809 28.8433 114.805 28.3C114.809 27.7467 114.917 27.2567 115.13 26.83C115.347 26.4 115.654 26.0633 116.05 25.82C116.447 25.5733 116.919 25.45 117.465 25.45C118.079 25.45 118.597 25.605 119.02 25.915C119.447 26.2217 119.725 26.6417 119.855 27.175L118.655 27.5C118.562 27.21 118.407 26.985 118.19 26.825C117.974 26.6617 117.727 26.58 117.45 26.58C117.137 26.58 116.879 26.655 116.675 26.805C116.472 26.9517 116.322 27.155 116.225 27.415C116.129 27.675 116.08 27.97 116.08 28.3C116.08 28.8133 116.195 29.2283 116.425 29.545C116.655 29.8617 116.997 30.02 117.45 30.02C117.77 30.02 118.022 29.9467 118.205 29.8C118.392 29.6533 118.532 29.4417 118.625 29.165L119.855 29.44C119.689 29.99 119.397 30.4133 118.98 30.71C118.564 31.0033 118.054 31.15 117.45 31.15ZM122.882 31.155C122.482 31.155 122.152 31.0883 121.892 30.955C121.632 30.8217 121.426 30.6517 121.272 30.445C121.119 30.2383 121.006 30.0183 120.932 29.785C120.859 29.5517 120.811 29.3317 120.787 29.125C120.767 28.915 120.757 28.745 120.757 28.615V25.6H121.977V28.2C121.977 28.3667 121.989 28.555 122.012 28.765C122.036 28.9717 122.089 29.1717 122.172 29.365C122.259 29.555 122.386 29.7117 122.552 29.835C122.722 29.9583 122.951 30.02 123.237 30.02C123.391 30.02 123.542 29.995 123.692 29.945C123.842 29.895 123.977 29.81 124.097 29.69C124.221 29.5667 124.319 29.3983 124.392 29.185C124.466 28.9717 124.502 28.7017 124.502 28.375L125.217 28.68C125.217 29.14 125.127 29.5567 124.947 29.93C124.771 30.3033 124.509 30.6017 124.162 30.825C123.816 31.045 123.389 31.155 122.882 31.155ZM124.647 31V29.325H124.502V25.6H125.712V31H124.647ZM133.602 31V27.72C133.602 27.35 133.51 27.0617 133.327 26.855C133.144 26.645 132.895 26.54 132.582 26.54C132.389 26.54 132.215 26.585 132.062 26.675C131.909 26.7617 131.787 26.8917 131.697 27.065C131.607 27.235 131.562 27.4383 131.562 27.675L131.027 27.36C131.024 26.9867 131.107 26.6583 131.277 26.375C131.45 26.0883 131.684 25.865 131.977 25.705C132.27 25.545 132.597 25.465 132.957 25.465C133.554 25.465 134.01 25.645 134.327 26.005C134.647 26.3617 134.807 26.8317 134.807 27.415V31H133.602ZM127.107 31V25.6H128.172V27.275H128.322V31H127.107ZM130.362 31V27.735C130.362 27.3583 130.27 27.065 130.087 26.855C129.904 26.645 129.654 26.54 129.337 26.54C129.03 26.54 128.784 26.645 128.597 26.855C128.414 27.065 128.322 27.3383 128.322 27.675L127.782 27.315C127.782 26.965 127.869 26.65 128.042 26.37C128.215 26.09 128.449 25.87 128.742 25.71C129.039 25.5467 129.37 25.465 129.737 25.465C130.14 25.465 130.477 25.5517 130.747 25.725C131.02 25.895 131.224 26.1283 131.357 26.425C131.494 26.7183 131.562 27.05 131.562 27.42V31H130.362ZM138.478 31.15C137.932 31.15 137.452 31.0317 137.038 30.795C136.625 30.5583 136.302 30.23 136.068 29.81C135.838 29.39 135.723 28.9067 135.723 28.36C135.723 27.77 135.837 27.2583 136.063 26.825C136.29 26.3883 136.605 26.05 137.008 25.81C137.412 25.57 137.878 25.45 138.408 25.45C138.968 25.45 139.443 25.5817 139.833 25.845C140.227 26.105 140.518 26.4733 140.708 26.95C140.898 27.4267 140.97 27.9883 140.923 28.635H139.728V28.195C139.725 27.6083 139.622 27.18 139.418 26.91C139.215 26.64 138.895 26.505 138.458 26.505C137.965 26.505 137.598 26.6583 137.358 26.965C137.118 27.2683 136.998 27.7133 136.998 28.3C136.998 28.8467 137.118 29.27 137.358 29.57C137.598 29.87 137.948 30.02 138.408 30.02C138.705 30.02 138.96 29.955 139.173 29.825C139.39 29.6917 139.557 29.5 139.673 29.25L140.863 29.61C140.657 30.0967 140.337 30.475 139.903 30.745C139.473 31.015 138.998 31.15 138.478 31.15ZM136.618 28.635V27.725H140.333V28.635H136.618ZM145.627 31V28.4C145.627 28.23 145.616 28.0417 145.592 27.835C145.569 27.6283 145.514 27.43 145.427 27.24C145.344 27.0467 145.217 26.8883 145.047 26.765C144.881 26.6417 144.654 26.58 144.367 26.58C144.214 26.58 144.062 26.605 143.912 26.655C143.762 26.705 143.626 26.7917 143.502 26.915C143.382 27.035 143.286 27.2017 143.212 27.415C143.139 27.625 143.102 27.895 143.102 28.225L142.387 27.92C142.387 27.46 142.476 27.0433 142.652 26.67C142.832 26.2967 143.096 26 143.442 25.78C143.789 25.5567 144.216 25.445 144.722 25.445C145.122 25.445 145.452 25.5117 145.712 25.645C145.972 25.7783 146.179 25.9483 146.332 26.155C146.486 26.3617 146.599 26.5817 146.672 26.815C146.746 27.0483 146.792 27.27 146.812 27.48C146.836 27.6867 146.847 27.855 146.847 27.985V31H145.627ZM141.882 31V25.6H142.957V27.275H143.102V31H141.882ZM151.317 31C150.96 31.0667 150.61 31.095 150.267 31.085C149.927 31.0783 149.622 31.0167 149.352 30.9C149.082 30.78 148.877 30.5917 148.737 30.335C148.614 30.1017 148.549 29.8633 148.542 29.62C148.535 29.3767 148.532 29.1017 148.532 28.795V24.1H149.732V28.725C149.732 28.9417 149.734 29.1317 149.737 29.295C149.744 29.4583 149.779 29.5917 149.842 29.695C149.962 29.895 150.154 30.0067 150.417 30.03C150.68 30.0533 150.98 30.04 151.317 29.99V31ZM147.552 26.545V25.6H151.317V26.545H147.552Z" fill="white"/>
</svg>
