<svg width="24" height="24" viewBox="0 0 24 24" fill="none" xmlns="http://www.w3.org/2000/svg">
<path d="M22.0001 20.0622H19.9999V16.1245C19.9999 15.0362 19.1057 14.1558 17.9999 14.1558C16.8943 14.1558 15.9999 15.036 15.9999 16.1245V20.0622H8V16.1245C8 15.0362 7.1045 14.1558 6 14.1558C4.89569 14.1558 4 15.036 4 16.1245V20.0622H2C0.895692 20.0622 0 20.9425 0 22.031C0 23.1197 0.895505 23.9999 2 23.9999H21.9995C23.1052 23.9999 23.9995 23.1197 23.9995 22.031C23.9997 20.9425 23.1055 20.0622 22.0001 20.0622Z" fill="#3B4161"/>
<path d="M16.0005 6.28126C16.0005 8.45579 14.2095 10.2186 12.0003 10.2186C9.79127 10.2186 8.00011 8.45561 8.00011 6.28126C8.00011 8.45579 6.20915 10.2186 4.0003 10.2186C1.79126 10.2186 0.000488281 8.45561 0.000488281 6.28126L0.000670996 1.96876C0.000670996 0.881701 0.896176 0 2.00067 0H22.0002C23.1058 0 24.0002 0.881517 24.0002 1.96876V6.28126C24.0002 8.45579 22.2092 10.2186 20 10.2186C17.791 10.2186 16.0005 8.45579 16.0005 6.28126Z" fill="#3578DB"/>
</svg>
