<svg width="119" height="94" viewBox="0 0 119 94" fill="none" xmlns="http://www.w3.org/2000/svg">
<g clip-path="url(#clip0_6407_24822)">
<path fill-rule="evenodd" clip-rule="evenodd" d="M85.3904 57.8744C99.6914 66.1388 99.6914 79.5367 85.3904 87.8011C71.0933 96.0656 47.9064 96.0656 33.6103 87.8011C19.3083 79.5367 19.3083 66.1388 33.6103 57.8744C47.9064 49.6109 71.0933 49.6109 85.3904 57.8744Z" fill="#F5F6F6"/>
<path fill-rule="evenodd" clip-rule="evenodd" d="M80.8797 60.483C92.6885 67.3041 92.6885 78.3683 80.8797 85.1923C69.0729 92.0183 49.9261 92.0183 38.1193 85.1923C26.3105 78.3673 26.3105 67.3041 38.1193 60.483C49.9261 53.658 69.0729 53.658 80.8797 60.483Z" fill="#EAE9EB"/>
<path fill-rule="evenodd" clip-rule="evenodd" d="M76.3705 63.087C85.6841 68.4735 85.6841 77.2021 76.3705 82.5886C67.052 87.9712 51.9473 87.9712 42.6278 82.5886C33.3142 77.2031 33.3142 68.4735 42.6278 63.087C51.9473 57.7054 67.053 57.7054 76.3705 63.087Z" fill="#DDDEE1"/>
<path fill-rule="evenodd" clip-rule="evenodd" d="M71.8586 65.6954C78.6878 69.6385 78.6878 76.0335 71.8586 79.9796C65.0372 83.9276 53.9687 83.9276 47.1424 79.9796C40.3132 76.0335 40.3132 69.6385 47.1424 65.6954C53.9687 61.7474 65.0372 61.7474 71.8586 65.6954Z" fill="#D2D2D6"/>
<path fill-rule="evenodd" clip-rule="evenodd" d="M53.4026 51.9794L43.8185 46.4414L36.4072 50.7188L45.9904 56.2587L53.4026 51.9794Z" fill="#C84637"/>
<path fill-rule="evenodd" clip-rule="evenodd" d="M75.172 39.413L65.5869 33.873L65.584 46.1715L75.1671 51.7105L75.172 39.413Z" fill="#C03B2B"/>
<path fill-rule="evenodd" clip-rule="evenodd" d="M55.3312 63.1603L45.7432 57.6272L63.6546 47.2891L73.2387 52.8222L55.3312 63.1603Z" fill="#E64D3C"/>
<path fill-rule="evenodd" clip-rule="evenodd" d="M82.5912 19.8358L73.0081 14.2979L55.6748 24.2998L65.258 29.8398L82.5912 19.8358Z" fill="#E64D3C"/>
<path fill-rule="evenodd" clip-rule="evenodd" d="M75.172 39.413L65.5869 33.873L65.584 46.1715L75.1671 51.7105L75.172 39.413Z" fill="#C03B2B"/>
<path fill-rule="evenodd" clip-rule="evenodd" d="M46.1388 68.286L36.5547 62.7481L36.6299 62.7784L36.7148 62.7832L36.8076 62.7696L36.9072 62.7266L46.4904 68.2645L46.3908 68.3046L46.3 68.3212L46.213 68.3163L46.1388 68.286Z" fill="#E64D3C"/>
<path fill-rule="evenodd" clip-rule="evenodd" d="M46.4904 68.2643L36.9072 62.7264L43.8146 58.7393L53.3977 64.2782L46.4904 68.2643Z" fill="#E64D3C"/>
<path fill-rule="evenodd" clip-rule="evenodd" d="M73.2426 40.5292L63.6595 34.9912L45.751 45.3284L55.3361 50.8673L73.2426 40.5292Z" fill="#E64D3C"/>
<path fill-rule="evenodd" clip-rule="evenodd" d="M73.2384 52.8228L63.6543 47.2897L63.6592 34.9912L73.2423 40.5292L73.2384 52.8228Z" fill="#E64D3C"/>
<path fill-rule="evenodd" clip-rule="evenodd" d="M65.258 29.8397L55.6748 24.2998L55.6699 37.3683L65.2531 42.9073L65.258 29.8397Z" fill="#E64D3C"/>
<path fill-rule="evenodd" clip-rule="evenodd" d="M65.258 29.8397L55.6748 24.2998L55.6699 37.3683L65.2531 42.9073L65.258 29.8397Z" fill="#E64D3C"/>
<path fill-rule="evenodd" clip-rule="evenodd" d="M82.5842 35.1337L72.9991 29.6006L65.5869 33.873L75.172 39.413L82.5842 35.1337Z" fill="#C03B2B"/>
<path fill-rule="evenodd" clip-rule="evenodd" d="M82.5912 19.8358L73.0081 14.2979L55.6748 24.2998L65.258 29.8398L82.5912 19.8358Z" fill="#C84637"/>
<path fill-rule="evenodd" clip-rule="evenodd" d="M82.4455 5.57316L72.8623 0.0381121L72.7871 0.00781786L72.7012 0L72.6094 0.016613L72.5098 0.0596112L82.0929 5.59954L82.1925 5.55459L82.2843 5.53798L82.3712 5.54677L82.4455 5.57316Z" fill="#E64D3C"/>
<path fill-rule="evenodd" clip-rule="evenodd" d="M63.3285 30.952L53.7454 25.418L36.416 35.4209L46.0001 40.956L63.3285 30.952Z" fill="#C03B2B"/>
<path fill-rule="evenodd" clip-rule="evenodd" d="M75.1847 9.58485L65.6016 4.04785L65.5967 16.3453L75.1798 21.8784L75.1847 9.58485Z" fill="#E64D3C"/>
<path fill-rule="evenodd" clip-rule="evenodd" d="M63.3253 44.0196L53.7402 38.4865L53.7451 25.418L63.3283 30.952L63.3253 44.0196Z" fill="#C03B2B"/>
<path fill-rule="evenodd" clip-rule="evenodd" d="M75.1847 9.58485L65.6016 4.04785L65.5967 16.3453L75.1798 21.8784L75.1847 9.58485Z" fill="#C84637"/>
<path fill-rule="evenodd" clip-rule="evenodd" d="M55.3439 21.035L45.7607 15.4971L45.7559 27.7955L55.339 33.3345L55.3439 21.035Z" fill="#A9382A"/>
<path fill-rule="evenodd" clip-rule="evenodd" d="M55.339 33.3341L45.7559 27.7952L63.6643 17.459L73.2524 22.996L55.339 33.3341Z" fill="#C03B2B"/>
<path fill-rule="evenodd" clip-rule="evenodd" d="M46.0001 38.7255L36.416 33.1855L43.8282 28.9082L53.4114 34.4462L46.0001 38.7255Z" fill="#E64D3C"/>
<path fill-rule="evenodd" clip-rule="evenodd" d="M36.8193 35.1902L36.8242 21.2412L45.9044 26.487L45.9005 40.4341L36.8193 35.1902Z" fill="#9B9C9C"/>
<path fill-rule="evenodd" clip-rule="evenodd" d="M45.8908 55.7317L36.8115 50.4889L36.8164 43.9414L45.8908 49.1852V55.7317Z" fill="#9B9C9C"/>
<path fill-rule="evenodd" clip-rule="evenodd" d="M45.9855 67.9472L36.4023 62.4092V62.4268L45.9855 67.9638V67.9472Z" fill="#E64D3C"/>
<path fill-rule="evenodd" clip-rule="evenodd" d="M45.9855 67.9638L36.4023 62.4268L36.416 62.5352L36.4473 62.6271L36.4951 62.6965L36.5547 62.7483L46.1388 68.2862L46.0783 68.2344L46.0304 68.1651L46.0001 68.0732L45.9855 67.9638Z" fill="#E64D3C"/>
<path fill-rule="evenodd" clip-rule="evenodd" d="M73.2521 22.9966L63.6641 17.4596L63.667 5.15918L73.256 10.6991L73.2521 22.9966Z" fill="#C03B2B"/>
<path fill-rule="evenodd" clip-rule="evenodd" d="M53.4113 34.4468L43.8281 28.9088L43.8311 16.6152L53.4162 22.1483L53.4113 34.4468Z" fill="#E64D3C"/>
<path fill-rule="evenodd" clip-rule="evenodd" d="M73.2472 11.2672L63.6641 5.73416L65.6016 4.62988L75.1847 10.1679L73.2472 11.2672Z" fill="#9B9C9C"/>
<path fill-rule="evenodd" clip-rule="evenodd" d="M82.5842 35.1337L72.9991 29.6006L65.5869 33.873L75.172 39.413L82.5842 35.1337Z" fill="#C03B2B"/>
<path fill-rule="evenodd" clip-rule="evenodd" d="M82.4455 5.57316L72.8623 0.0381121L72.7871 0.00781786L72.7012 0L72.6094 0.016613L72.5098 0.0596112L82.0929 5.59954L82.1925 5.55459L82.2843 5.53798L82.3712 5.54677L82.4455 5.57316Z" fill="#E64D3C"/>
<path fill-rule="evenodd" clip-rule="evenodd" d="M82.092 5.5995L72.5089 0.0595703L65.6016 4.04766L75.1847 9.58466L82.092 5.5995Z" fill="#E64D3C"/>
<path fill-rule="evenodd" clip-rule="evenodd" d="M52.7199 22.4614L43.71 17.2528L45.8291 16.0439L54.84 21.2526L52.7199 22.4614Z" fill="#9B9C9C"/>
<path fill-rule="evenodd" clip-rule="evenodd" d="M45.8525 26.4048L81.7623 5.77734L81.9009 47.3107L45.9004 67.9205L45.8525 26.4048Z" fill="#E6EAEA"/>
<path fill-rule="evenodd" clip-rule="evenodd" d="M65.2578 29.8399L65.2529 42.9074L82.5843 32.9035L82.5911 19.8359L65.2578 29.8399Z" fill="#E64D3C"/>
<path fill-rule="evenodd" clip-rule="evenodd" d="M75.1729 39.4131L75.168 51.7116L82.0538 47.7381L82.0665 47.7293C82.3458 47.5642 82.5704 47.1694 82.5802 46.843V46.8264L82.5851 35.1357L75.1738 39.4141L75.1729 39.4131Z" fill="#C03B2B"/>
<path fill-rule="evenodd" clip-rule="evenodd" d="M53.4112 34.4469L53.4161 22.1484L46.5303 26.1268L46.5166 26.1316C46.2441 26.3007 46.0127 26.6965 46.0049 27.018V27.0346L46 38.7252L53.4112 34.4469Z" fill="#E64D3C"/>
<path fill-rule="evenodd" clip-rule="evenodd" d="M53.3976 64.278L53.4025 51.9785L45.9912 56.2568L45.9863 67.9465V67.9631C45.9951 68.2778 46.2178 68.4077 46.4951 68.2631L53.3976 64.277V64.278Z" fill="#E64D3C"/>
<path fill-rule="evenodd" clip-rule="evenodd" d="M73.2522 22.9967L73.2561 10.6992L55.3438 21.0354L55.3389 33.3349L73.2522 22.9967Z" fill="#C03B2B"/>
<path fill-rule="evenodd" clip-rule="evenodd" d="M73.2386 52.8219L73.2425 40.5283L55.3359 50.8665L55.3311 63.16L73.2386 52.8219Z" fill="#E64D3C"/>
<path fill-rule="evenodd" clip-rule="evenodd" d="M55.3359 50.8674L54.832 50.5762L54.8271 62.8698L55.3311 63.161L55.3359 50.8674Z" fill="#C84637"/>
<path fill-rule="evenodd" clip-rule="evenodd" d="M75.1758 39.4123L74.6738 39.1211L74.6641 51.4186L75.168 51.7098L75.1758 39.4123Z" fill="#A9382A"/>
<path fill-rule="evenodd" clip-rule="evenodd" d="M65.2578 29.84L64.7578 29.5488L64.749 42.6164L65.2529 42.9076L65.2578 29.84Z" fill="#C84637"/>
<path fill-rule="evenodd" clip-rule="evenodd" d="M55.3438 21.0354L54.8398 20.7461L54.8359 33.0436L55.3389 33.3348L55.3438 21.0354Z" fill="#A9382A"/>
<path fill-rule="evenodd" clip-rule="evenodd" d="M75.1856 9.58516L74.6807 9.29395L74.6768 21.5875L75.1807 21.8787L75.1856 9.58516Z" fill="#C84637"/>
<path fill-rule="evenodd" clip-rule="evenodd" d="M82.5872 19.8361L82.0872 19.5449L64.7578 29.5489L65.2578 29.8401L82.5872 19.8361Z" fill="#C84637"/>
<path fill-rule="evenodd" clip-rule="evenodd" d="M63.3284 30.9524L62.8255 30.6602L45.4951 40.6641L46 40.9563L63.3284 30.9524Z" fill="#C03B2B"/>
<path fill-rule="evenodd" clip-rule="evenodd" d="M53.4163 22.1483L43.8312 16.6152L36.9463 20.5896L36.9326 20.5926L36.833 20.6678L36.7383 20.7577L36.6504 20.8623L36.5772 20.9805L36.5117 21.1017L36.4639 21.2317L36.4336 21.3577L36.4209 21.4799V21.4975L36.416 33.1862L46.0001 38.7261L46.0041 27.0355V27.0179L46.0167 26.8967L46.047 26.7667L46.0949 26.6397L46.1603 26.5185L46.2345 26.4003L46.3214 26.2957L46.4162 26.2058L46.5158 26.1315L46.5304 26.1227L53.4163 22.1483Z" fill="#C84637"/>
<path fill-rule="evenodd" clip-rule="evenodd" d="M75.1855 9.58504L75.1807 21.8786L82.5919 17.6013L82.5968 5.91162V5.89305C82.588 5.58034 82.3673 5.44939 82.0929 5.5989L75.1855 9.58504Z" fill="#E64D3C"/>
<path fill-rule="evenodd" clip-rule="evenodd" d="M82.092 5.5995L72.5089 0.0595703L65.6016 4.04766L75.1847 9.58466L82.092 5.5995Z" fill="#C84637"/>
<path fill-rule="evenodd" clip-rule="evenodd" d="M73.2563 10.6991L63.6673 5.15918L45.7607 15.4973L55.3439 21.0353L73.2563 10.6991Z" fill="#A9382A"/>
<path fill-rule="evenodd" clip-rule="evenodd" d="M46.0001 40.9559L36.416 35.4209L36.4072 48.4885L45.9953 54.0284L46.0001 40.9559Z" fill="#A9382A"/>
<path fill-rule="evenodd" clip-rule="evenodd" d="M45.9904 56.2587L36.4072 50.7188L36.4023 62.4094L45.9855 67.9474L45.9904 56.2587Z" fill="#C84637"/>
<path fill-rule="evenodd" clip-rule="evenodd" d="M65.2578 29.8399L65.2529 42.9074L82.5843 32.9035L82.5911 19.8359L65.2578 29.8399Z" fill="#E64D3C"/>
<path fill-rule="evenodd" clip-rule="evenodd" d="M75.1846 9.58504L75.1797 21.8786L82.5909 17.6013L82.5958 5.91162V5.89305C82.587 5.58034 82.3663 5.44939 82.0919 5.5989L75.1846 9.58504Z" fill="#E64D3C"/>
<path fill-rule="evenodd" clip-rule="evenodd" d="M75.1719 39.4131L75.167 51.7116L82.0528 47.7381L82.0655 47.7293C82.3448 47.5642 82.5695 47.1694 82.5792 46.843V46.8264L82.5841 35.1357L75.1729 39.4141L75.1719 39.4131Z" fill="#C03B2B"/>
<path fill-rule="evenodd" clip-rule="evenodd" d="M63.3255 44.0197L63.3284 30.9521L46 40.9561L45.9951 54.0236L63.3255 44.0197Z" fill="#C03B2B"/>
<path fill-rule="evenodd" clip-rule="evenodd" d="M53.4112 34.4469L53.4161 22.1484L46.5303 26.1268L46.5166 26.1316C46.2441 26.3007 46.0127 26.6965 46.0049 27.018V27.0346L46 38.7252L53.4112 34.4469Z" fill="#E64D3C"/>
<path fill-rule="evenodd" clip-rule="evenodd" d="M53.3976 64.2789L53.4025 51.9795L45.9912 56.2578L45.9863 67.9475V67.9641C45.9951 68.2788 46.2178 68.4087 46.4951 68.2641L53.3976 64.278V64.2789Z" fill="#E64D3C"/>
<path fill-rule="evenodd" clip-rule="evenodd" d="M73.2522 22.9967L73.2561 10.6992L55.3438 21.0354L55.3389 33.3349L73.2522 22.9967Z" fill="#C03B2B"/>
<path fill-rule="evenodd" clip-rule="evenodd" d="M73.2386 52.8229L73.2425 40.5293L55.3359 50.8674L55.3311 63.161L73.2386 52.8229Z" fill="#E64D3C"/>
<path fill-rule="evenodd" clip-rule="evenodd" d="M53.4025 51.9787L52.8976 51.6885L45.4912 55.9658L45.9902 56.258L53.4025 51.9787Z" fill="#C84637"/>
<path fill-rule="evenodd" clip-rule="evenodd" d="M73.2425 40.5285L72.7386 40.2373L54.832 50.5754L55.3359 50.8667L73.2425 40.5285Z" fill="#C84637"/>
<path fill-rule="evenodd" clip-rule="evenodd" d="M82.5851 35.1331L81.8624 34.7158V34.9728L74.6738 39.1212L75.1758 39.4124L82.5851 35.1331Z" fill="#A9382A"/>
</g>
<defs>
<clipPath id="clip0_6407_24822">
<rect width="73.2326" height="94" fill="white" transform="translate(22.8838)"/>
</clipPath>
</defs>
</svg>
