<svg width="33" height="30" viewBox="0 0 33 30" fill="none" xmlns="http://www.w3.org/2000/svg">
<g clip-path="url(#clip0_3893_18379)">
<path d="M28.7399 29.3454H4.27986C3.21986 29.3454 2.35986 28.4854 2.35986 27.4354V11.6454C2.35986 11.2954 2.64986 11.0054 2.99986 11.0054C3.34986 11.0054 3.63986 11.2954 3.63986 11.6454V27.4354C3.63986 27.7854 3.91986 28.0654 4.26986 28.0654H28.7299C29.0799 28.0654 29.3699 27.7854 29.3699 27.4354V11.6454C29.3699 11.2954 29.6599 11.0054 30.0099 11.0054C30.3599 11.0054 30.6499 11.2954 30.6499 11.6454V27.4354C30.6499 28.4854 29.7899 29.3454 28.7399 29.3454Z" fill="#3578DB"/>
<path d="M31.5198 29.3454H1.14977C0.799766 29.3454 0.509766 29.0554 0.509766 28.7054C0.509766 28.3554 0.799766 28.0654 1.14977 28.0654H31.5198C31.8698 28.0654 32.1598 28.3554 32.1598 28.7054C32.1598 29.0554 31.8698 29.3454 31.5198 29.3454Z" fill="#3578DB"/>
<path d="M4.99 12.8354C2.52 12.8354 0.5 10.8254 0.5 8.35539V7.91539C0.5 7.56539 0.79 7.27539 1.14 7.27539H8.82C9.17 7.27539 9.46 7.56539 9.46 7.91539V8.35539C9.46 10.8254 7.45 12.8354 4.98 12.8354H4.99Z" fill="#FF9A2E"/>
<path d="M12.6699 12.8354C10.1999 12.8354 8.18994 10.8254 8.18994 8.35539V7.91539C8.18994 7.56539 8.47994 7.27539 8.82994 7.27539H16.5099C16.8599 7.27539 17.1499 7.56539 17.1499 7.91539V8.35539C17.1499 10.8254 15.1399 12.8354 12.6699 12.8354Z" fill="#FF9A2E"/>
<path d="M20.3501 12.8354C17.8801 12.8354 15.8701 10.8254 15.8701 8.35539V7.91539C15.8701 7.56539 16.1601 7.27539 16.5101 7.27539H24.1901C24.5401 7.27539 24.8301 7.56539 24.8301 7.91539V8.35539C24.8301 10.8254 22.8201 12.8354 20.3501 12.8354Z" fill="#FF9A2E"/>
<path d="M28.0298 12.8354C25.5598 12.8354 23.5498 10.8254 23.5498 8.35539V7.91539C23.5498 7.56539 23.8398 7.27539 24.1898 7.27539H31.8698C32.2198 7.27539 32.5098 7.56539 32.5098 7.91539V8.35539C32.5098 10.8254 30.4998 12.8354 28.0298 12.8354Z" fill="#FF9A2E"/>
<path d="M31.87 8.55527C31.62 8.55527 31.38 8.40527 31.28 8.15527L28.79 1.92527H4.23004L1.74004 8.15527C1.61004 8.48527 1.24004 8.64527 0.910045 8.51527C0.580045 8.38527 0.420045 8.01527 0.550045 7.68527L3.20004 1.05527C3.30004 0.815273 3.53004 0.655273 3.79004 0.655273H29.21C29.47 0.655273 29.71 0.815273 29.8 1.05527L32.45 7.68527C32.58 8.01527 32.42 8.38527 32.09 8.51527C32.03 8.54527 31.95 8.55527 31.87 8.55527Z" fill="#FF9A2E"/>
<path d="M8.82994 8.5555C8.82994 8.5555 8.74994 8.5555 8.71994 8.5455C8.36994 8.4855 8.13994 8.1455 8.19994 7.8055L9.39994 1.1755C9.45994 0.825504 9.79994 0.595504 10.1399 0.655504C10.4899 0.715504 10.7199 1.0555 10.6599 1.3955L9.45994 8.0255C9.39994 8.3455 9.12994 8.5555 8.82994 8.5555Z" fill="#FF9A2E"/>
<path d="M24.1901 8.5555C23.8901 8.5555 23.6201 8.3355 23.5601 8.0255L22.3601 1.3955C22.3001 1.0455 22.5301 0.715504 22.8801 0.655504C23.2201 0.595504 23.5601 0.825504 23.6201 1.1755L24.8201 7.8055C24.8801 8.1555 24.6501 8.4855 24.3001 8.5455C24.2701 8.5555 24.2301 8.5555 24.1901 8.5555Z" fill="#FF9A2E"/>
<path d="M16.5101 8.55551C16.1601 8.55551 15.8701 8.26551 15.8701 7.91551V1.28551C15.8701 0.935508 16.1601 0.645508 16.5101 0.645508C16.8601 0.645508 17.1501 0.935508 17.1501 1.28551V7.91551C17.1501 8.27551 16.8601 8.55551 16.5101 8.55551Z" fill="#FF9A2E"/>
<path d="M20.0602 29.3457H12.6102C12.2602 29.3457 11.9702 29.0557 11.9702 28.7057V16.6957C11.9702 16.3457 12.2602 16.0557 12.6102 16.0557H20.0602C20.4102 16.0557 20.7002 16.3457 20.7002 16.6957V28.7057C20.7002 29.0557 20.4102 29.3457 20.0602 29.3457ZM13.2502 28.0657H19.4202V17.3357H13.2502V28.0657Z" fill="#3578DB"/>
</g>
<defs>
<clipPath id="clip0_3893_18379">
<rect width="32.01" height="28.7" fill="white" transform="translate(0.5 0.645508)"/>
</clipPath>
</defs>
</svg>
