<svg width="94" height="55" viewBox="0 0 94 55" fill="none" xmlns="http://www.w3.org/2000/svg">
<path d="M29.9884 26.1521C28.7747 25.4463 28.7747 24.2921 29.972 23.5862C31.1774 22.8804 33.1373 22.8721 34.351 23.5862C35.5646 24.2921 35.5646 25.4463 34.3592 26.1521C33.1537 26.858 31.1938 26.858 29.9802 26.1521H29.9884ZM36.4174 29.9138C35.2038 29.208 35.1956 28.0537 36.401 27.3479C37.6065 26.6421 39.5664 26.6338 40.78 27.3479C41.9937 28.0537 42.0019 29.208 40.7882 29.9138C39.5828 30.6196 37.6229 30.6196 36.4092 29.9138H36.4174ZM42.8465 33.6754C41.6329 32.9696 41.6247 31.8154 42.8301 31.1095C44.0356 30.4037 45.9954 30.3954 47.2091 31.1095C48.4227 31.8154 48.4309 32.9696 47.2173 33.6754C46.0118 34.3813 44.052 34.3813 42.8383 33.6754H42.8465ZM49.2756 37.4371C48.0619 36.7313 48.0537 35.577 49.2592 34.8712C50.4646 34.1654 52.4245 34.1654 53.6382 34.8712C54.8518 35.577 54.86 36.7313 53.6463 37.4371C52.4409 38.1429 50.481 38.1429 49.2674 37.4371H49.2756ZM36.9095 22.0583C35.6958 21.3525 35.6876 20.1983 36.8931 19.4924C38.0985 18.7866 40.0584 18.7866 41.272 19.4924C42.4857 20.1983 42.4939 21.3525 41.2884 22.0583C40.083 22.7642 38.1231 22.7642 36.9095 22.0583ZM43.3467 25.82C42.1331 25.1142 42.1249 23.9599 43.3303 23.2541C44.5358 22.5483 46.4957 22.5483 47.7093 23.2541C48.923 23.9599 48.9312 25.1142 47.7257 25.82C46.5203 26.5258 44.5604 26.5258 43.3467 25.82ZM49.784 29.5816C48.5703 28.8758 48.5621 27.7216 49.7676 27.0157C50.973 26.3099 52.9329 26.3099 54.1466 27.0157C55.3602 27.7216 55.3684 28.8758 54.163 29.5816C52.9575 30.2875 50.9976 30.2875 49.784 29.5816ZM56.2213 33.3433C55.0076 32.6375 54.9994 31.4832 56.2049 30.7774C57.4103 30.0716 59.3702 30.0716 60.5838 30.7774C61.7975 31.4832 61.8057 32.6375 60.6002 33.3433C59.3948 34.0491 57.4349 34.0491 56.2213 33.3433ZM43.8634 17.9645C42.6497 17.2587 42.6415 16.1045 43.847 15.3986C45.0524 14.6928 47.0123 14.6928 48.2259 15.3986C49.4396 16.1045 49.4396 17.2587 48.2423 17.9645C47.0369 18.6704 45.077 18.6704 43.8634 17.9645ZM50.3006 21.7262C49.087 21.0204 49.0788 19.8661 50.2842 19.1603C51.4897 18.4545 53.4495 18.4545 54.6632 19.1603C55.8768 19.8661 55.8768 21.0204 54.6796 21.7262C53.4741 22.432 51.5143 22.432 50.3006 21.7262ZM56.7379 25.4878C55.5242 24.782 55.516 23.6278 56.7215 22.9219C57.9269 22.2161 59.8868 22.2161 61.1005 22.9219C62.3141 23.6278 62.3141 24.782 61.1169 25.4878C59.9114 26.1937 57.9515 26.1937 56.7379 25.4878ZM63.1751 29.2495C61.9615 28.5437 61.9533 27.3894 63.1587 26.6836C64.3642 25.9778 66.3241 25.9778 67.5377 26.6836C68.7514 27.3894 68.7514 28.5437 67.5541 29.2495C66.3487 29.9553 64.3888 29.9553 63.1751 29.2495ZM50.8172 13.8707C49.6036 13.1649 49.5954 12.0107 50.8008 11.3048C52.0063 10.599 53.9662 10.599 55.1798 11.3048C56.3935 12.0107 56.4017 13.1649 55.1962 13.8707C53.9908 14.5766 52.0309 14.5766 50.8172 13.8707ZM57.2545 17.6324C56.0408 16.9266 56.0326 15.7723 57.2381 15.0665C58.4435 14.3607 60.4034 14.3607 61.6171 15.0665C62.8307 15.7723 62.8389 16.9266 61.6335 17.6324C60.428 18.3382 58.4681 18.3382 57.2545 17.6324ZM63.6918 21.394C62.4781 20.6882 62.4699 19.534 63.6754 18.8281C64.8808 18.1223 66.8407 18.1223 68.0543 18.8281C69.268 19.534 69.2762 20.6882 68.0707 21.394C66.8653 22.0999 64.9054 22.0999 63.6918 21.394ZM70.129 25.1557C68.9154 24.4499 68.9072 23.2956 70.1126 22.5898C71.3181 21.884 73.278 21.884 74.4916 22.5898C75.7053 23.2956 75.7135 24.4499 74.508 25.1557C73.3026 25.8615 71.3427 25.8615 70.129 25.1557ZM76.5007 21.0868L55.1716 8.61439C53.5315 7.65944 51.1698 7.38541 49.128 7.80061C49.9562 8.50644 49.8332 9.47799 48.7672 10.1091C47.5617 10.8149 45.6018 10.8149 44.3882 10.1091L41.8051 11.6287C43.0187 12.3345 43.0187 13.4888 41.8215 14.1946C40.616 14.9004 38.6561 14.9004 37.4425 14.1946L34.8512 15.7142C36.0648 16.42 36.073 17.5743 34.8676 18.2801C33.6621 18.9859 31.7023 18.9859 30.4886 18.2801L27.9055 19.7997C29.1191 20.5055 29.1274 21.6598 27.9137 22.3656C26.7083 23.0714 24.7484 23.0714 23.5347 22.3656L22.2637 23.1129C21.7963 23.387 21.4354 23.6942 21.1566 24.0181C22.1571 24.7322 22.0915 25.7868 20.9598 26.4511C20.9188 26.476 20.8696 26.5009 20.8286 26.5258C21.0992 27.0407 21.5912 27.5306 22.2883 27.9458L22.4851 28.062C22.6245 27.9126 22.7967 27.7797 23.0099 27.6551C24.2154 26.9493 26.1752 26.9493 27.3889 27.6551C28.6025 28.361 28.6025 29.5152 27.4053 30.221C27.1921 30.3456 26.9543 30.4452 26.7083 30.5283L28.9305 31.8237C29.0699 31.6742 29.2422 31.5414 29.4554 31.4168C30.6608 30.711 32.6207 30.711 33.8343 31.4168C35.048 32.1226 35.048 33.2769 33.8507 33.9827C33.6375 34.1072 33.3997 34.2069 33.1537 34.2899L35.376 35.5853C35.5154 35.4359 35.6876 35.303 35.9008 35.1784C37.1063 34.4726 39.0662 34.4726 40.2798 35.1784C41.4935 35.8843 41.4935 37.0385 40.2962 37.7443C40.083 37.8689 39.8452 37.9685 39.5992 38.0516L41.8133 39.347C41.9527 39.1975 42.1249 39.0646 42.3381 38.9401C43.5435 38.2343 45.5034 38.2343 46.7171 38.9401C47.8569 39.6127 47.9307 40.6756 46.9221 41.3814C48.6851 41.5309 50.5384 41.207 51.8833 40.4182L76.5499 25.903C78.8214 24.5661 78.805 22.4071 76.5253 21.0702" fill="#FF9A2E"/>
<path d="M44.6095 48.9463L40.3371 46.4469L39.6729 46.8372L38.328 46.0566L38.9922 45.6663L32.2926 41.7469L31.6283 42.1372L30.2917 41.3566L30.9559 40.9663L24.2562 37.0469L23.592 37.4372L22.2471 36.6566L22.9114 36.2663L16.2117 32.3469L15.5475 32.7372L14.2026 31.9566L14.8668 31.5664L10.5945 29.0669C10.4223 29.2247 10.2255 29.3658 9.99584 29.4987C9.76623 29.6316 9.52022 29.7478 9.25781 29.8475L43.2728 49.7352C43.445 49.5774 43.6418 49.4363 43.8714 49.3034C44.101 49.1705 44.347 49.0543 44.6095 48.9546" fill="white"/>
<path d="M83.2905 29.0332L79.0018 31.5576L79.8546 32.0558L78.5261 32.8364L77.6733 32.3381L71.0146 36.2576L71.8675 36.7558L70.5308 37.5364L69.678 37.0381L63.0193 40.9576L63.8721 41.4558L62.5355 42.2364L61.6827 41.7381L55.024 45.6575L55.8768 46.1558L54.5484 46.9363L53.6955 46.4381L49.4478 48.9376C49.7102 49.0372 49.9562 49.1535 50.1858 49.2863C50.4154 49.4192 50.6122 49.5687 50.7844 49.7181L84.5452 29.847C84.3566 29.7639 84.1844 29.6809 84.0122 29.5813C83.7169 29.4069 83.4709 29.2159 83.2741 29.0166" fill="white"/>
<path d="M8.64295 26.5672C7.63431 25.9776 5.99424 25.9776 4.9856 26.5672C3.98516 27.1568 3.98516 28.12 5.002 28.7096C6.01064 29.2992 7.65071 29.2992 8.65115 28.7096C9.65159 28.12 9.65159 27.1568 8.64295 26.5672Z" fill="#3578DB"/>
<path d="M5.00186 28.7095C3.99322 28.1199 3.98502 27.1567 4.98546 26.5671C5.9859 25.9775 7.62597 25.9775 8.64281 26.5671C9.65145 27.1567 9.65965 28.1199 8.65101 28.7095C7.65057 29.2991 6.0105 29.2991 5.00186 28.7095ZM9.97126 25.7865C8.22459 24.7652 5.38728 24.7652 3.64881 25.7865C1.91034 26.8079 1.91854 28.477 3.67341 29.4984C5.19047 30.3869 7.52757 30.5031 9.25784 29.8471C9.52025 29.7475 9.76626 29.6312 9.99587 29.4984C10.2255 29.3655 10.4223 29.216 10.5945 29.0666C11.7015 28.0535 11.5047 26.6834 9.97947 25.7948" fill="white"/>
<path d="M88.9981 26.6751C87.9894 26.0855 86.3494 26.0855 85.3489 26.6751C84.3485 27.2647 84.3485 28.2279 85.3571 28.8175C86.3658 29.4071 88.0058 29.4071 89.0145 28.8175C90.0149 28.2279 90.0149 27.2647 88.9981 26.6751Z" fill="#3578DB"/>
<path d="M85.3571 28.8174C84.3484 28.2278 84.3402 27.2646 85.3489 26.675C86.3493 26.0854 87.9894 26.0854 88.998 26.675C90.0066 27.2646 90.0148 28.2278 89.0144 28.8174C88.014 29.407 86.3739 29.407 85.3571 28.8174ZM90.3265 25.8944C88.5798 24.8731 85.7425 24.8731 84.004 25.8944C82.5607 26.7414 82.3229 28.0368 83.2906 29.0416C83.4874 29.2409 83.7334 29.4319 84.0286 29.6063C84.1926 29.7059 84.373 29.789 84.5616 29.872C86.3165 30.6193 88.7848 30.528 90.3593 29.6063C92.0977 28.5849 92.0895 26.9158 90.3347 25.8944" fill="white"/>
<path d="M48.8574 50.0838C47.8488 49.4942 46.2087 49.4942 45.2083 50.0838C44.2079 50.6734 44.2079 51.6366 45.2165 52.2262C46.2251 52.8158 47.8652 52.8158 48.8656 52.2262C49.8661 51.6366 49.8661 50.6734 48.8574 50.0838Z" fill="#3578DB"/>
<path d="M45.2245 52.2261C44.2159 51.6365 44.2077 50.6733 45.2163 50.0837C46.2167 49.4941 47.8568 49.4941 48.8654 50.0837C49.8741 50.6733 49.8823 51.6365 48.8736 52.2261C47.8732 52.8157 46.2331 52.8157 45.2245 52.2261ZM50.1939 49.3031C49.9643 49.1703 49.7183 49.054 49.4559 48.9544C47.9798 48.398 46.0773 48.398 44.6095 48.9544C44.3471 49.054 44.1011 49.1703 43.8714 49.3031C43.6418 49.436 43.445 49.5855 43.2728 49.7349C42.1658 50.748 42.3708 52.1265 43.8878 53.015C45.6345 54.0363 48.4718 54.0363 50.2103 53.015C51.7192 52.1265 51.9078 50.7563 50.7925 49.7349C50.6203 49.5772 50.4235 49.436 50.1939 49.3031Z" fill="white"/>
<path d="M55.8767 46.1642L55.0238 45.6659L53.1952 44.5947L51.8667 45.3753L53.6954 46.4465L54.5482 46.9447L55.8767 46.1642Z" fill="white"/>
<path d="M42.3299 45.2757L40.9932 44.4951L38.9924 45.666L38.3281 46.0562L39.673 46.8451L40.3372 46.4548L42.3299 45.2757Z" fill="white"/>
<path d="M34.2855 40.576L32.9488 39.7871L30.9479 40.9663L30.2837 41.3565L31.6203 42.1371L32.2928 41.7468L34.2855 40.576Z" fill="white"/>
<path d="M26.2405 35.8675L24.9039 35.0869L22.903 36.2578L22.2388 36.6563L23.5836 37.4369L24.2479 37.0466L26.2405 35.8675Z" fill="white"/>
<path d="M18.2043 31.1678L16.8594 30.3872L14.8668 31.5581L14.1943 31.9483L15.5392 32.7372L16.2034 32.3469L18.2043 31.1678Z" fill="white"/>
<path d="M63.8722 41.4561L63.0193 40.9662L61.1907 39.895L59.854 40.6756L61.6827 41.7468L62.5355 42.245L63.8722 41.4561Z" fill="white"/>
<path d="M71.859 36.756L71.0062 36.2577L69.1775 35.1865L67.8408 35.9754L69.6777 37.0466L70.5223 37.5448L71.859 36.756Z" fill="white"/>
<path d="M79.8464 32.0562L79.0018 31.558L77.1649 30.4868L75.8364 31.2674L77.6733 32.3386L78.5179 32.8368L79.8464 32.0562Z" fill="white"/>
<path d="M20.9679 23.918C19.7543 23.2122 17.7944 23.2122 16.5889 23.918C15.3835 24.6239 15.3917 25.7781 16.6053 26.4839C17.778 27.1649 19.6313 27.1898 20.8449 26.5587C20.8941 26.5338 20.9351 26.5088 20.9761 26.4839C22.1078 25.8196 22.1734 24.765 21.1729 24.0509C21.1073 24.0011 21.0417 23.9596 20.9679 23.918Z" fill="white"/>
<path d="M27.922 19.8243C26.7084 19.1185 24.7485 19.1185 23.543 19.8243C22.3376 20.5301 22.3458 21.6844 23.5594 22.3902C24.7731 23.096 26.733 23.096 27.9384 22.3902C29.1439 21.6844 29.1439 20.5301 27.9302 19.8243" fill="white"/>
<path d="M34.8673 15.7305C33.6537 15.0247 31.6938 15.0247 30.4883 15.7305C29.2829 16.4364 29.2911 17.5906 30.5047 18.2964C31.7184 19.0023 33.6783 19.0023 34.8837 18.2964C36.0892 17.5906 36.081 16.4364 34.8673 15.7305Z" fill="white"/>
<path d="M41.8214 11.6451C40.6078 10.9393 38.6479 10.9393 37.4424 11.6451C36.237 12.3509 36.2452 13.5052 37.4588 14.211C38.6725 14.9168 40.6324 14.9168 41.8378 14.211C43.0433 13.5052 43.0351 12.3509 41.8214 11.6451Z" fill="white"/>
<path d="M48.7672 7.55134C47.5536 6.84552 45.5937 6.84552 44.3882 7.55134C43.1828 8.25717 43.191 9.41141 44.4046 10.1172C45.6183 10.8231 47.5782 10.8231 48.7836 10.1172C49.8497 9.48614 49.9645 8.5229 49.1444 7.80876C49.0378 7.71742 48.9148 7.62608 48.7754 7.54304" fill="white"/>
<path d="M27.4049 27.6798C26.1913 26.9739 24.2314 26.9739 23.026 27.6798C22.8127 27.8043 22.6405 27.9455 22.5011 28.0866C21.8615 28.7759 22.0419 29.6561 23.0424 30.2457C24.0428 30.8269 25.5517 30.9349 26.7243 30.5529C26.9785 30.4699 27.2081 30.3702 27.4213 30.2457C28.6268 29.5398 28.6186 28.3856 27.4049 27.6798Z" fill="white"/>
<path d="M34.3507 23.586C33.1371 22.8802 31.1772 22.8802 29.9717 23.586C28.7663 24.2918 28.7745 25.4461 29.9881 26.1519C31.2018 26.8577 33.1617 26.8577 34.3671 26.1519C35.5726 25.4461 35.5726 24.2918 34.3589 23.586" fill="white"/>
<path d="M41.3048 19.4923C40.0912 18.7864 38.1313 18.7864 36.9258 19.4923C35.7204 20.1981 35.7286 21.3523 36.9422 22.0582C38.1559 22.764 40.1158 22.764 41.3212 22.0582C42.5267 21.3523 42.5185 20.1981 41.3048 19.4923Z" fill="white"/>
<path d="M48.2584 15.4068C47.0448 14.701 45.0849 14.701 43.8795 15.4068C42.674 16.1126 42.6822 17.2669 43.8959 17.9727C45.1095 18.6785 47.0694 18.6785 48.2748 17.9727C49.4803 17.2669 49.4721 16.1126 48.2584 15.4068Z" fill="white"/>
<path d="M55.2042 11.3131C53.9906 10.6072 52.0307 10.6072 50.8253 11.3131C49.6198 12.0189 49.628 13.1731 50.8417 13.879C52.0553 14.5848 54.0152 14.5848 55.2206 13.879C56.4261 13.1731 56.4179 12.0189 55.2042 11.3131Z" fill="white"/>
<path d="M33.8341 31.4415C32.6205 30.7357 30.6606 30.7357 29.4552 31.4415C29.2419 31.566 29.0697 31.7072 28.9303 31.8484C28.2907 32.5376 28.4711 33.4178 29.4716 34.0074C30.472 34.5886 31.9809 34.6966 33.1535 34.3146C33.4077 34.2316 33.6373 34.1319 33.8505 34.0074C35.056 33.3015 35.0478 32.1473 33.8341 31.4415Z" fill="white"/>
<path d="M40.7882 27.3477C39.5746 26.6419 37.6147 26.6419 36.4092 27.3477C35.2038 28.0536 35.212 29.2078 36.4256 29.9136C37.6393 30.6195 39.5992 30.6195 40.8046 29.9136C42.0101 29.2078 42.0101 28.0536 40.7964 27.3477" fill="white"/>
<path d="M47.7418 23.2623C46.5282 22.5565 44.5683 22.5565 43.3629 23.2623C42.1574 23.9681 42.1656 25.1223 43.3793 25.8282C44.5929 26.534 46.5528 26.534 47.7582 25.8282C48.9637 25.1223 48.9555 23.9681 47.7418 23.2623Z" fill="white"/>
<path d="M54.6876 19.1685C53.474 18.4627 51.5141 18.4627 50.3087 19.1685C49.1032 19.8744 49.1114 21.0286 50.3251 21.7344C51.5387 22.4403 53.4986 22.4403 54.704 21.7344C55.9095 21.0286 55.9013 19.8744 54.6876 19.1685Z" fill="white"/>
<path d="M61.6417 15.0748C60.4281 14.369 58.4682 14.369 57.2628 15.0748C56.0573 15.7806 56.0655 16.9348 57.2792 17.6407C58.4928 18.3465 60.4527 18.3465 61.6581 17.6407C62.8636 16.9348 62.8554 15.7806 61.6417 15.0748Z" fill="white"/>
<path d="M40.2716 35.2032C39.058 34.4974 37.0981 34.4974 35.8927 35.2032C35.6794 35.3278 35.5072 35.4689 35.3678 35.6101C34.7282 36.2993 34.9086 37.1795 35.9091 37.7691C36.9095 38.3504 38.4102 38.4583 39.591 38.0763C39.8452 37.9933 40.0748 37.8937 40.288 37.7691C41.4935 37.0633 41.4853 35.909 40.2716 35.2032Z" fill="white"/>
<path d="M47.2252 31.1094C46.0116 30.4036 44.0517 30.4036 42.8463 31.1094C41.6408 31.8153 41.649 32.9695 42.8627 33.6753C44.0763 34.3812 46.0362 34.3812 47.2416 33.6753C48.4471 32.9695 48.4389 31.8153 47.2334 31.1094" fill="white"/>
<path d="M54.171 27.024C52.9574 26.3182 50.9975 26.3182 49.7921 27.024C48.5866 27.7298 48.5948 28.8841 49.8085 29.5899C51.0221 30.2957 52.982 30.2957 54.1874 29.5899C55.3929 28.8841 55.3847 27.7298 54.171 27.024Z" fill="white"/>
<path d="M61.1251 22.9303C59.9115 22.2244 57.9516 22.2244 56.7462 22.9303C55.5407 23.6361 55.5489 24.7903 56.7626 25.4961C57.9762 26.202 59.9361 26.202 61.1415 25.4961C62.347 24.7903 62.3388 23.6361 61.1251 22.9303Z" fill="white"/>
<path d="M68.0787 18.8365C66.8651 18.1307 64.9052 18.1307 63.6998 18.8365C62.4943 19.5423 62.5025 20.6966 63.7162 21.4024C64.9298 22.1082 66.8897 22.1082 68.0951 21.4024C69.3006 20.6966 69.2924 19.5423 68.0787 18.8365Z" fill="white"/>
<path d="M46.7086 38.9649C45.495 38.2591 43.5351 38.2591 42.3297 38.9649C42.1165 39.0895 41.9443 39.2306 41.8048 39.3718C41.1652 40.061 41.3456 40.9412 42.3461 41.5308C43.5597 42.2366 45.5196 42.2366 46.725 41.5308C46.7906 41.4893 46.8563 41.4478 46.9137 41.4063C47.9223 40.6921 47.8567 39.6292 46.7086 38.9649Z" fill="white"/>
<path d="M53.6627 34.8712C52.4491 34.1653 50.4892 34.1653 49.2838 34.8712C48.0783 35.577 48.0865 36.7312 49.3002 37.4371C50.5138 38.1429 52.4737 38.1429 53.6791 37.4371C54.8846 36.7312 54.8764 35.577 53.6709 34.8712" fill="white"/>
<path d="M60.6085 30.7854C59.3949 30.0796 57.435 30.0713 56.2295 30.7854C55.0241 31.4912 55.0323 32.6455 56.246 33.3513C57.4596 34.0571 59.4195 34.0571 60.6249 33.3513C61.8304 32.6455 61.8222 31.4912 60.6085 30.7854Z" fill="white"/>
<path d="M67.5621 26.692C66.3485 25.9861 64.3886 25.9861 63.1832 26.692C61.9777 27.3978 61.9859 28.552 63.1996 29.2579C64.4132 29.9637 66.3731 29.9637 67.5785 29.2579C68.784 28.552 68.7758 27.3978 67.5621 26.692Z" fill="white"/>
<path d="M74.5162 22.6062C73.3026 21.9004 71.3427 21.8921 70.1373 22.6062C68.9318 23.312 68.94 24.4663 70.1537 25.1721C71.3673 25.8779 73.3272 25.8779 74.5326 25.1721C75.7381 24.4663 75.7299 23.312 74.5162 22.6062Z" fill="white"/>
</svg>
