<svg width="32" height="32" viewBox="0 0 32 32" fill="none" xmlns="http://www.w3.org/2000/svg">
<g clip-path="url(#clip0_11818_5834)">
<rect width="32" height="32" rx="7" fill="#2AACE3"/>
<path d="M20.6878 20.0663C20.0287 20.0663 19.439 20.3484 18.9881 20.7903L12.8049 16.8879C12.8483 16.6716 12.8829 16.4553 12.8829 16.2296C12.8829 16.004 12.8483 15.7877 12.8049 15.5714L18.9187 11.7066C19.387 12.1767 20.0027 12.4683 20.6878 12.4683C22.1274 12.4683 23.2894 11.2082 23.2894 9.64721C23.2894 8.08624 22.1274 6.82617 20.6878 6.82617C19.2483 6.82617 18.0862 8.08624 18.0862 9.64721C18.0862 9.8729 18.1209 10.0892 18.1642 10.3055L12.0504 14.1703C11.5821 13.7001 10.9664 13.4086 10.2813 13.4086C8.84175 13.4086 7.67969 14.6687 7.67969 16.2296C7.67969 17.7906 8.84175 19.0507 10.2813 19.0507C10.9664 19.0507 11.5821 18.7592 12.0504 18.289L18.2249 22.2008C18.1816 22.3983 18.1556 22.6052 18.1556 22.8121C18.1556 24.326 19.2916 25.5579 20.6878 25.5579C22.084 25.5579 23.2201 24.326 23.2201 22.8121C23.2201 21.2981 22.084 20.0663 20.6878 20.0663Z" fill="white"/>
</g>
<defs>
<clipPath id="clip0_11818_5834">
<rect width="32" height="32" rx="7" fill="white"/>
</clipPath>
</defs>
</svg>
