<svg width="80" height="97" viewBox="0 0 80 97" fill="none" xmlns="http://www.w3.org/2000/svg">
<path d="M39.8555 1.00195C36.0742 6.414 10.8931 17.5273 1.00049 17.5273V56.7749C1.00049 75.2214 37.6685 95.4029 39.835 96.002C42.0016 95.4236 78.6696 73.8167 78.6696 58.8406V17.5273C67.8776 17.5273 43.6367 6.414 39.8555 1.00195Z" fill="#E0E0E0" stroke="#3578DB" stroke-linejoin="round"/>
<path d="M39.5308 8.00195C36.2677 12.6232 14.5374 22.1125 6.00049 22.1125V55.6252C6.00049 71.3762 37.6435 88.6087 39.5131 89.1202C41.3828 88.6264 73.0258 70.1768 73.0258 57.389V22.1125C63.7128 22.1125 42.7939 12.6232 39.5308 8.00195Z" fill="white" stroke="#3578DB" stroke-linejoin="round"/>
<g clip-path="url(#clip0_4432_15016)">
<path d="M33.5404 57.1737L24.4219 48.0551L21.3823 51.0947L33.5404 63.2528L59.5935 37.1997L56.554 34.1602L33.5404 57.1737Z" fill="#FF9A2E"/>
</g>
<defs>
<clipPath id="clip0_4432_15016">
<rect width="52.1062" height="52.1062" fill="white" transform="translate(14.0005 22.002)"/>
</clipPath>
</defs>
</svg>
