<svg width="17" height="28" viewBox="0 0 17 28" fill="none" xmlns="http://www.w3.org/2000/svg">
<path d="M17 14C16.9845 13.1935 16.7058 12.5543 16.0401 11.9152L4.3816 0.715217C3.88616 0.243478 3.3133 0 2.60109 0C1.17668 0 0 1.1413 0 2.52609C0 3.22609 0.294171 3.86522 0.836066 4.39783L10.9308 13.9848L0.836066 23.6022C0.294171 24.1196 0 24.7587 0 25.4739C0 26.8587 1.17668 28 2.60109 28C3.29781 28 3.88616 27.7717 4.3816 27.2848L16.0401 16.0848C16.7058 15.4457 17 14.7913 17 14Z" fill="#3578DB"/>
</svg>
