<svg width="8" height="15" viewBox="0 0 8 15" fill="none" xmlns="http://www.w3.org/2000/svg">
<path d="M8 7.5C7.99219 7.22656 7.89062 6.99219 7.67969 6.78125L1.60156 0.835938C1.42188 0.664062 1.21094 0.570312 0.953125 0.570312C0.429688 0.570312 0.0234375 0.976562 0.0234375 1.5C0.0234375 1.75 0.125 1.98438 0.304688 2.16406L5.77344 7.5L0.304687 12.8359C0.125 13.0156 0.0234375 13.2422 0.0234375 13.5C0.0234375 14.0234 0.429687 14.4297 0.953125 14.4297C1.20312 14.4297 1.42188 14.3359 1.60156 14.1641L7.67969 8.21094C7.89844 8.00781 8 7.77344 8 7.5Z" fill="#3C3C43" fill-opacity="0.6"/>
</svg>
