<svg width="22" height="29" viewBox="0 0 22 29" fill="none" xmlns="http://www.w3.org/2000/svg">
<g clip-path="url(#clip0_3926_16578)">
<path d="M10.5266 13.2198C10.6134 13.297 10.7292 13.3356 10.845 13.3356C10.9608 13.3356 11.067 13.297 11.1635 13.2198C11.1828 13.2005 11.2117 13.1812 11.231 13.1619L11.9933 12.6118C13.3057 11.6758 14.9365 10.3345 15.8532 8.2598C15.9304 8.09576 15.9015 7.89311 15.7857 7.74837C15.6699 7.60362 15.4865 7.53607 15.3032 7.57467C13.9426 7.85452 12.3986 7.99926 10.8354 7.99926C9.27211 7.99926 7.72815 7.85452 6.36753 7.57467C6.18419 7.53607 6.00084 7.60362 5.88505 7.74837C5.76925 7.89311 5.7403 8.08611 5.8175 8.2598C6.74388 10.3345 8.36503 11.6758 9.6774 12.6118L10.4397 13.1619C10.4397 13.1619 10.488 13.2005 10.5073 13.2198H10.5266ZM7.17811 8.72299C8.33608 8.89669 9.5809 8.99319 10.845 8.99319C12.1091 8.99319 13.354 8.90634 14.5119 8.72299C13.8461 9.81341 12.8811 10.7784 11.424 11.8206L10.845 12.2355L10.266 11.8206C8.80892 10.7784 7.84395 9.82306 7.17811 8.72299Z" fill="#FF9A2E"/>
<path d="M20.6873 26.6805H19.2012V25.677C19.2012 22.8496 18.5933 20.5143 17.3581 18.5361C16.1519 16.6158 14.5018 15.2938 13.1991 14.3675L12.9096 14.1648L13.1991 13.9622C14.5018 13.0261 16.1519 11.7138 17.3581 9.79347C18.6029 7.80562 19.2012 5.47038 19.2012 2.65266V1.62978H20.6873C20.9575 1.62978 21.1794 1.40784 21.1794 1.13765C21.1794 0.867452 20.9575 0.645508 20.6873 0.645508H0.992137C0.721944 0.645508 0.5 0.867452 0.5 1.13765C0.5 1.40784 0.721944 1.62978 0.992137 1.62978H2.4782V2.63336C2.4782 5.46073 3.08613 7.79597 4.3213 9.77417C5.52752 11.6945 7.17763 13.0165 8.48034 13.9429L8.76983 14.1455L8.48034 14.3482C7.17763 15.2842 5.52752 16.5965 4.3213 18.5168C3.07648 20.5047 2.4782 22.8399 2.4782 25.6577V26.6612H0.992137C0.721944 26.6612 0.5 26.8832 0.5 27.1534C0.5 27.4236 0.721944 27.6455 0.992137 27.6455H20.6873C20.9575 27.6455 21.1794 27.4236 21.1794 27.1534C21.1794 26.8832 20.9575 26.6612 20.6873 26.6612V26.6805ZM3.46247 26.6805V25.677C3.46247 19.945 6.1451 17.2334 9.04968 15.1684L9.89886 14.5604C10.0243 14.464 10.1015 14.3192 10.1015 14.1552C10.1015 13.9911 10.0243 13.8464 9.89886 13.7499L9.04968 13.1419C6.15475 11.0769 3.46247 8.36531 3.46247 2.63336V1.62978H18.2073V2.63336C18.2073 8.36531 15.5247 11.0769 12.6201 13.1419L11.7709 13.7499C11.6455 13.8464 11.5683 13.9911 11.5683 14.1552C11.5683 14.3192 11.6455 14.464 11.7709 14.5604L12.6201 15.1684C15.5247 17.2431 18.2073 19.945 18.2073 25.677V26.6805H3.46247Z" fill="#3578DB"/>
<path d="M15.409 22.5891C14.6081 21.8172 13.5563 21.3926 12.4466 21.3926H9.24284C8.13312 21.3926 7.0813 21.8172 6.28037 22.5891C5.47944 23.3611 5.0259 24.4033 4.9873 25.513V25.5613C4.9873 25.6964 5.03555 25.8218 5.1224 25.9183C5.2189 26.0148 5.34435 26.0631 5.47944 26.0631H16.21C16.3451 26.0631 16.4705 26.0052 16.567 25.9183C16.6635 25.8218 16.7118 25.6964 16.7118 25.5613V25.513C16.6828 24.4033 16.2196 23.3611 15.4187 22.5891H15.409Z" fill="#FF9A2E"/>
<path d="M10.8346 16.5871C11.1224 16.5871 11.3556 16.3538 11.3556 16.066C11.3556 15.7782 11.1224 15.5449 10.8346 15.5449C10.5468 15.5449 10.3135 15.7782 10.3135 16.066C10.3135 16.3538 10.5468 16.5871 10.8346 16.5871Z" fill="#FF9A2E"/>
<path d="M10.8346 14.8986C11.1224 14.8986 11.3556 14.6653 11.3556 14.3775C11.3556 14.0897 11.1224 13.8564 10.8346 13.8564C10.5468 13.8564 10.3135 14.0897 10.3135 14.3775C10.3135 14.6653 10.5468 14.8986 10.8346 14.8986Z" fill="#FF9A2E"/>
<path d="M11.6744 17.9084C11.9622 17.9084 12.1955 17.6751 12.1955 17.3873C12.1955 17.0995 11.9622 16.8662 11.6744 16.8662C11.3866 16.8662 11.1533 17.0995 11.1533 17.3873C11.1533 17.6751 11.3866 17.9084 11.6744 17.9084Z" fill="#FF9A2E"/>
<path d="M10.8346 18.8547C11.1224 18.8547 11.3556 18.6214 11.3556 18.3336C11.3556 18.0458 11.1224 17.8125 10.8346 17.8125C10.5468 17.8125 10.3135 18.0458 10.3135 18.3336C10.3135 18.6214 10.5468 18.8547 10.8346 18.8547Z" fill="#FF9A2E"/>
<path d="M11.6744 20.2927C11.9622 20.2927 12.1955 20.0594 12.1955 19.7716C12.1955 19.4838 11.9622 19.2505 11.6744 19.2505C11.3866 19.2505 11.1533 19.4838 11.1533 19.7716C11.1533 20.0594 11.3866 20.2927 11.6744 20.2927Z" fill="#FF9A2E"/>
<path d="M10.3136 21.1223C10.6014 21.1223 10.8347 20.889 10.8347 20.6012C10.8347 20.3134 10.6014 20.0801 10.3136 20.0801C10.0258 20.0801 9.79248 20.3134 9.79248 20.6012C9.79248 20.889 10.0258 21.1223 10.3136 21.1223Z" fill="#FF9A2E"/>
</g>
<defs>
<clipPath id="clip0_3926_16578">
<rect width="21.43" height="28" fill="white" transform="translate(0.5 0.645508)"/>
</clipPath>
</defs>
</svg>
