<svg width="20" height="17" viewBox="0 0 20 17" fill="none" xmlns="http://www.w3.org/2000/svg">
<path d="M16 7.25V9.25H20V7.25H16ZM14 13.86C14.96 14.57 16.21 15.51 17.2 16.25C17.6 15.72 18 15.18 18.4 14.65C17.41 13.91 16.16 12.97 15.2 12.25C14.8 12.79 14.4 13.33 14 13.86ZM18.4 1.85C18 1.32 17.6 0.78 17.2 0.25C16.21 0.99 14.96 1.93 14 2.65C14.4 3.18 14.8 3.72 15.2 4.25C16.16 3.53 17.41 2.6 18.4 1.85ZM2 5.25C0.9 5.25 0 6.15 0 7.25V9.25C0 10.35 0.9 11.25 2 11.25H3V15.25H5V11.25H6L11 14.25V2.25L6 5.25H2ZM13.5 8.25C13.5 6.92 12.92 5.72 12 4.9V11.59C12.92 10.78 13.5 9.58 13.5 8.25Z" fill="#2AACE3"/>
</svg>
