<svg width="18" height="10" viewBox="0 0 18 10" fill="none" xmlns="http://www.w3.org/2000/svg">
<path d="M9.00011 10C5.5364 10 0.00417468 8.79602 0.00417468 5.13156C0.00417468 4.95183 0 4.80315 0 4.61286C0 3.27635 1.05787 2.09286 2.76488 1.26227C4.36903 0.482834 6.57492 0 8.99979 0C11.4255 0 13.6312 0.482666 15.2358 1.26227C16.943 2.09286 18 3.2763 18 4.61286C18 4.80314 17.9965 4.95181 17.9965 5.13156C17.9965 8.79602 12.4637 10 8.99998 10H9.00011ZM9.00011 0.965464C6.73555 0.965464 4.69328 1.40772 3.22422 2.12165C1.85867 2.78582 1.0131 3.66956 1.0131 4.61281C1.0131 7.41565 6.88624 8.26173 9.00016 8.26173C11.1146 8.26173 16.9878 7.41565 16.9878 4.61281C16.9878 3.66956 16.1418 2.78587 14.7766 2.12165C13.3076 1.40748 11.2651 0.965464 9.00022 0.965464H9.00011Z" fill="#F2A71B"/>
<path d="M8.9963 1.60095C7.12527 1.60095 5.43789 1.96539 4.22412 2.5537C3.09586 3.10102 2.39723 3.82926 2.39723 4.60655C2.39723 6.91623 7.24977 7.61344 8.99635 7.61344C10.7434 7.61344 15.5959 6.91623 15.5959 4.60655C15.5959 3.82926 14.8969 3.10106 13.769 2.5537C12.5552 1.9652 10.8677 1.60095 8.99639 1.60095H8.9963Z" fill="#F2A71B"/>
</svg>
