<svg width="34" height="42" viewBox="0 0 34 42" fill="none" xmlns="http://www.w3.org/2000/svg">
<g clip-path="url(#clip0_5589_69792)">
<path fill-rule="evenodd" clip-rule="evenodd" d="M28.8499 25.5224C35.3708 29.3087 35.3708 35.4088 28.8499 39.1951C22.329 42.9815 11.6713 42.9815 5.15042 39.1951C-1.37045 35.4088 -1.37045 29.3087 5.15042 25.5224C11.6713 21.736 22.329 21.736 28.8499 25.5224Z" fill="#F5F5F5"/>
<path fill-rule="evenodd" clip-rule="evenodd" d="M26.7466 26.7141C32.1456 29.7992 32.1456 34.9178 26.7466 38.0029C21.3476 41.0881 12.583 41.0881 7.18401 38.0029C1.78502 34.9178 1.78502 29.7992 7.18401 26.7141C12.583 23.5588 21.3476 23.5588 26.7466 26.7141Z" fill="#E9E9EB"/>
<path fill-rule="evenodd" clip-rule="evenodd" d="M24.7127 27.907C28.9898 30.3611 28.9898 34.3577 24.7127 36.8118C20.4355 39.2659 13.5641 39.2659 9.28695 36.8118C5.00982 34.3577 5.00982 30.3611 9.28695 27.907C13.5641 25.4529 20.4355 25.4529 24.7127 27.907Z" fill="#DDDEE1"/>
<path fill-rule="evenodd" clip-rule="evenodd" d="M22.6797 29.0987C25.8349 30.9218 25.8349 33.7966 22.6797 35.6196C19.5244 37.4426 14.476 37.4426 11.3909 35.6196C8.2356 33.7966 8.2356 30.9218 11.3909 29.0987C14.5461 27.2757 19.5945 27.2757 22.6797 29.0987Z" fill="#D1D2D6"/>
<path fill-rule="evenodd" clip-rule="evenodd" d="M10.1291 29.2391L29.3411 18.1606C30.2526 17.5997 31.0239 16.2674 31.0239 15.2157V4.4878C31.0239 3.36593 30.2526 2.94523 29.3411 3.50617L10.1291 14.5846C9.21757 15.1456 8.44629 16.4778 8.44629 17.5295V28.1873C8.44629 29.3092 9.21757 29.7299 10.1291 29.1689V29.2391Z" fill="#E6EAEB"/>
<path fill-rule="evenodd" clip-rule="evenodd" d="M17.9125 20.8947C17.1412 20.5441 16.6504 19.5625 16.6504 18.1601C16.6504 16.7578 17.1412 15.1451 17.9125 13.9531V20.8947Z" fill="#27AE60"/>
<path fill-rule="evenodd" clip-rule="evenodd" d="M21.5586 9.81702C22.8908 10.0975 23.8023 11.6401 23.8023 14.024C23.8023 16.408 22.8908 19.0023 21.5586 20.8254V21.2461C24.1529 19.7035 26.8174 18.231 29.4117 16.6885C29.6921 16.4781 29.9726 16.0574 29.9726 15.6367V5.25942C29.9726 4.83872 29.6921 4.69849 29.4117 4.83872C26.8174 6.38129 24.1529 7.85375 21.5586 9.39632V9.81702Z" fill="#27AE60"/>
<path fill-rule="evenodd" clip-rule="evenodd" d="M21.5586 18.7912C22.3299 17.5291 22.8207 15.9865 22.8207 14.5842C22.8207 13.1818 22.3299 12.2002 21.5586 11.8496V18.7912Z" fill="#27AE60"/>
<path fill-rule="evenodd" clip-rule="evenodd" d="M17.9121 11.9199C16.5798 13.6728 15.6683 16.3373 15.6683 18.7213C15.6683 21.1052 16.5798 22.6478 17.9121 22.9283V23.349C15.3177 24.8915 12.6533 26.364 10.059 27.9066C9.7084 28.1169 9.49805 27.9066 9.49805 27.4859V17.1787C9.49805 16.758 9.77851 16.3373 10.059 16.1269C12.6533 14.5844 15.3177 13.1119 17.9121 11.5693V11.99V11.9199Z" fill="#27AE60"/>
<path fill-rule="evenodd" clip-rule="evenodd" d="M26.6771 7.3623L29.1312 5.95996C29.1312 5.95996 29.3416 5.95996 29.3416 6.10019V6.45078C29.3416 6.45078 29.2715 6.80136 29.1312 6.87148L26.6771 8.27382C26.6771 8.27382 26.4668 8.27382 26.4668 8.13358V7.783C26.4668 7.783 26.5369 7.43241 26.6771 7.3623Z" fill="#E6EAEB"/>
<path fill-rule="evenodd" clip-rule="evenodd" d="M26.6771 16.4775L29.1312 15.0752C29.1312 15.0752 29.3416 15.0752 29.3416 15.2154V15.566C29.3416 15.566 29.2715 15.9166 29.1312 15.9867L26.6771 17.3891C26.6771 17.3891 26.4668 17.3891 26.4668 17.2488V16.8982C26.4668 16.8982 26.5369 16.5476 26.6771 16.4775Z" fill="#E6EAEB"/>
<path fill-rule="evenodd" clip-rule="evenodd" d="M28.009 10.5182C28.5699 10.2378 28.9906 10.5182 28.9906 11.0792C28.9906 11.6401 28.5699 12.4114 28.009 12.6919C27.448 12.9723 27.0273 12.6919 27.0273 12.1309C27.0273 11.57 27.448 10.7987 28.009 10.5182Z" fill="#E6EAEB"/>
<path fill-rule="evenodd" clip-rule="evenodd" d="M12.7933 15.3561L10.3393 16.7584C10.3393 16.7584 10.1289 17.0389 10.1289 17.1791V17.5297C10.1289 17.5297 10.199 17.7401 10.3393 17.67L12.7933 16.2676C12.7933 16.2676 13.0037 15.9872 13.0037 15.8469V15.4963C13.0037 15.4963 12.9336 15.286 12.7933 15.3561Z" fill="#E6EAEB"/>
<path fill-rule="evenodd" clip-rule="evenodd" d="M12.7933 24.4713L10.3393 25.8737C10.3393 25.8737 10.1289 26.1541 10.1289 26.2944V26.645C10.1289 26.645 10.199 26.8553 10.3393 26.7852L12.7933 25.3829C12.7933 25.3829 13.0037 25.1024 13.0037 24.9622V24.6116C13.0037 24.6116 12.9336 24.4012 12.7933 24.4713Z" fill="#E6EAEB"/>
<path fill-rule="evenodd" clip-rule="evenodd" d="M11.4611 20.0534C10.9002 20.3339 10.4795 21.1051 10.4795 21.6661C10.4795 22.227 10.9002 22.5075 11.4611 22.227C12.0221 21.9465 12.4428 21.1753 12.4428 20.6143C12.4428 20.0534 12.0221 19.7729 11.4611 20.0534Z" fill="#E6EAEB"/>
<path fill-rule="evenodd" clip-rule="evenodd" d="M21.9787 7.71289L17.4912 10.3773V24.9616L21.9787 22.3673V7.71289Z" fill="#E6EAEB"/>
<path fill-rule="evenodd" clip-rule="evenodd" d="M18.8236 9.60645L17.9121 10.0973V24.7517L18.8236 24.1908V9.60645Z" fill="#F0B11D"/>
<path fill-rule="evenodd" clip-rule="evenodd" d="M19.2441 9.32558L19.735 9.04512L20.1557 8.76465V23.4191L19.735 23.6995L19.2441 23.98V9.32558Z" fill="#F0B11D"/>
<path fill-rule="evenodd" clip-rule="evenodd" d="M21.1373 8.27363L20.6465 8.48398V23.1384L21.1373 22.8579L21.558 22.6476V7.99316L21.1373 8.27363Z" fill="#F0B11D"/>
<path fill-rule="evenodd" clip-rule="evenodd" d="M30.5329 3.36561L24.9235 0.140234L24.7833 0H24.6431H24.5028H24.3626H24.2224L24.012 0.0701169L23.8718 0.140234L23.6614 0.210351L4.44941 11.3589H4.37929L4.30917 11.429L4.16894 11.4992L4.09882 11.5693L4.02871 11.6394L3.95859 11.7095L3.88847 11.7796L3.81835 11.8498L3.74824 11.99L3.67812 12.0601L3.608 12.1302L3.53789 12.2003L3.46777 12.3406L3.39765 12.4107L3.32754 12.4808L3.25742 12.621L3.1873 12.6912L3.11719 12.8314V12.9015L3.04707 13.0417L2.97695 13.1119V13.2521L2.90684 13.3222V13.4624L2.83672 13.5326V13.6728V13.813L2.7666 13.8831V14.0234V14.0935V14.2337V14.3038V24.9616V25.172V25.3823L2.83672 25.5225L2.90684 25.6628L2.97695 25.803L3.04707 25.9432L3.11719 26.0134L3.25742 26.0835L8.86677 29.379L8.79665 29.3088L8.65642 29.1686L8.5863 29.0985L8.51618 28.9583L8.44607 28.818V28.6077L8.37595 28.4674V28.2571V17.5993V17.4591V17.389L8.44607 17.2488V17.1786V17.0384V16.9683L8.51618 16.828V16.6878L8.5863 16.6177V16.4775L8.65642 16.4073V16.2671L8.72654 16.197L8.79665 16.0568L8.86677 15.9866V15.8464L8.93689 15.7763L9.007 15.7062L9.07712 15.5659L9.14724 15.4958L9.21735 15.4257L9.28747 15.2855L9.35759 15.2154L9.4277 15.1452L9.49782 15.0751L9.63805 15.005L9.70817 14.9349L9.77829 14.8648L9.8484 14.7947L9.91852 14.7245L9.98864 14.6544L10.1289 14.5843L29.3409 3.50584L29.5512 3.43573L29.6915 3.36561L29.8317 3.29549H30.0421H30.1823H30.3225H30.4628L30.5329 3.36561Z" fill="#C8CFD4"/>
<path fill-rule="evenodd" clip-rule="evenodd" d="M30.1122 3.15547L29.8317 2.94512H29.7616L29.6214 2.875H29.4811H29.3409H29.1306L28.9903 2.94512L28.8501 3.01523L28.6397 3.08535L9.42773 14.2339H9.35761L9.21738 14.304L9.14726 14.3742L9.07714 14.4443L9.00703 14.5144L8.93691 14.5845L8.86679 14.6546L8.72656 14.7247L8.65644 14.7949L8.58632 14.9351L8.51621 15.0052L8.44609 15.0753L8.37597 15.2156L8.30586 15.2857L8.23574 15.3558V15.496L8.16562 15.5662L8.09551 15.7064L8.02539 15.7765V15.9167L7.95527 15.9869L7.88516 16.1271V16.1972L7.81504 16.3374V16.4076V16.5478L7.74492 16.6179V16.7581V16.8283V16.9685L7.6748 17.0386V17.1788V27.8366L7.74492 28.047V28.2573L7.81504 28.3975V28.5378L7.88516 28.678L8.02539 28.8182L8.09551 28.8884L8.23574 28.9585L8.51621 29.0987L8.37597 29.0286L8.30586 28.9585L8.16562 28.8182L8.09551 28.678V28.5378L8.02539 28.3975V28.1872L7.95527 28.047V17.3191V17.249L8.02539 17.1087V17.0386V16.8984V16.8283L8.09551 16.688V16.6179V16.4777L8.16562 16.4076V16.2673L8.23574 16.1972L8.30586 16.057V15.9869L8.37597 15.8466L8.44609 15.7765L8.51621 15.6363V15.5662L8.58632 15.4259L8.65644 15.3558L8.72656 15.2857L8.79667 15.1455L8.86679 15.0753L8.93691 15.0052L9.00703 14.9351L9.14726 14.7949L9.21738 14.7247L9.28749 14.6546L9.35761 14.5845L9.42773 14.5144L9.49784 14.4443H9.63808L9.70819 14.3742L28.9202 3.22558L29.1306 3.15547L29.2708 3.08535H29.411L29.6214 3.01523H29.7616H29.9018L30.0421 3.08535L30.1122 3.15547Z" fill="#9EA4A8"/>
<path fill-rule="evenodd" clip-rule="evenodd" d="M29.4813 2.73457L29.2009 2.59434L29.0606 2.52422H28.9905L28.8503 2.4541L28.6399 2.52422H28.4997L28.3595 2.59434H28.1491L28.0089 2.73457L8.79687 13.813L8.65663 13.8832L8.58652 13.9533L8.5164 14.0234L8.44628 14.0935L8.37617 14.1636L8.23593 14.2337L8.16581 14.3039L8.0957 14.374L8.02558 14.4441L7.95546 14.5142L7.88535 14.6544L7.81523 14.7246L7.74511 14.7947L7.675 14.9349L7.60488 15.005L7.53476 15.0751V15.2154L7.46465 15.2855L7.39453 15.4257L7.32441 15.4958V15.6361L7.2543 15.7062V15.8464L7.18418 15.9165V16.0568L7.11406 16.197V16.2671V16.4074L7.04395 16.4775V16.6177V16.6878V16.8281V27.4858V27.6962L7.11406 27.8364V28.0468L7.18418 28.187L7.2543 28.3272L7.32441 28.3973L7.46465 28.5376L7.53476 28.6077L7.81523 28.7479L7.74511 28.6778L7.60488 28.5376L7.53476 28.4675L7.46465 28.3272L7.39453 28.187V28.0468L7.32441 27.8364V27.6261V16.9683V16.8281V16.7579V16.6177L7.39453 16.5476V16.4074V16.3372L7.46465 16.197V16.1269L7.53476 15.9867V15.9165L7.60488 15.7763V15.7062L7.675 15.566L7.74511 15.4958L7.81523 15.3556V15.2855L7.88535 15.1453L7.95546 15.0751L8.02558 15.005L8.0957 14.8648L8.16581 14.7947L8.23593 14.7246L8.30605 14.5843L8.37617 14.5142L8.44628 14.4441L8.5164 14.374L8.65663 14.3039L8.72675 14.2337L8.79687 14.1636L8.86698 14.0935L8.9371 14.0234L9.07733 13.9533L28.2894 2.8748L28.4296 2.80469L28.6399 2.73457L28.7802 2.66445H28.9204H29.1308H29.271L29.3411 2.73457H29.4813Z" fill="#9EA4A8"/>
<path fill-rule="evenodd" clip-rule="evenodd" d="M28.8495 2.38398L28.569 2.24375L28.4288 2.17363L28.2886 2.10352H28.1483H28.0081H27.8679L27.7276 2.17363L27.5173 2.24375L27.3771 2.31387L8.09491 13.4624L8.0248 13.5326H7.95468L7.88456 13.6027L7.74433 13.6728L7.67421 13.7429L7.6041 13.813L7.53398 13.8831L7.46386 13.9533L7.39375 14.0935L7.32363 14.1636L7.25351 14.2337L7.18339 14.3039L7.11328 14.4441L7.04316 14.5142L6.97304 14.6544L6.90293 14.7246L6.83281 14.7947L6.76269 14.9349V15.005L6.69258 15.1453L6.62246 15.2154V15.3556L6.55234 15.4958V15.566L6.48223 15.7062V15.7763V15.9165L6.41211 15.9867V16.1269V16.197V16.3372V16.4074V27.0651V27.2755V27.4858L6.48223 27.6261L6.55234 27.7663L6.62246 27.9065L6.69258 28.0468L6.76269 28.1169L6.90293 28.187L7.18339 28.3973L7.04316 28.2571L6.97304 28.187L6.90293 28.0468L6.83281 27.9766L6.76269 27.7663L6.69258 27.6261V27.4858V27.2755V16.5476V16.4775V16.3372V16.2671V16.1269L6.76269 16.0568V15.9165V15.8464L6.83281 15.7062V15.6361L6.90293 15.4958V15.4257L6.97304 15.2855L7.04316 15.2154V15.0751L7.11328 15.005L7.18339 14.8648L7.25351 14.7947L7.32363 14.7246L7.39375 14.5843L7.46386 14.5142L7.53398 14.4441L7.6041 14.3039L7.67421 14.2337L7.74433 14.1636L7.81445 14.0935L7.88456 14.0234L7.95468 13.9533L8.0248 13.8831L8.16503 13.813L8.23515 13.7429L8.30526 13.6728L8.37538 13.6027L27.6575 2.52422L27.7978 2.38398L28.0081 2.31387H28.1483L28.2886 2.24375H28.4288L28.569 2.31387H28.7093L28.8495 2.38398Z" fill="#9EA4A8"/>
<path fill-rule="evenodd" clip-rule="evenodd" d="M28.2186 2.0334L27.9382 1.82305H27.7979L27.6577 1.75293H27.5175H27.3772H27.237L27.0267 1.82305L26.8864 1.89316L26.6761 1.96328L7.46405 13.0417L7.39394 13.1119L7.2537 13.182L7.18359 13.2521L7.11347 13.3222L7.04335 13.3923L6.97324 13.4624L6.90312 13.5326L6.76289 13.6027L6.69277 13.6728L6.62265 13.813L6.55254 13.8831L6.48242 13.9533L6.4123 14.0234L6.34218 14.1636V14.2337L6.27207 14.374L6.20195 14.4441L6.13183 14.5843L6.06172 14.6544V14.7947L5.9916 14.8648L5.92148 15.005V15.0751L5.85137 15.2154V15.2855V15.4257L5.78125 15.4958V15.6361V15.7062V15.8464V15.9165V16.0568V26.7145V26.9249V27.0651L5.85137 27.2755V27.4157L5.92148 27.5559L6.06172 27.6261L6.13183 27.7663L6.27207 27.8364L6.55254 27.9766L6.4123 27.9065L6.34218 27.8364L6.20195 27.6962L6.13183 27.5559V27.4157L6.06172 27.2755V27.0651V26.8548V16.197V16.1269V15.9867V15.9165V15.7763V15.7062L6.13183 15.566V15.4958V15.3556L6.20195 15.2154V15.1453L6.27207 15.005L6.34218 14.9349V14.7947L6.4123 14.7245L6.48242 14.5843L6.55254 14.5142L6.62265 14.4441V14.3038L6.69277 14.2337L6.76289 14.0935L6.833 14.0234L6.90312 13.9533L6.97324 13.8831L7.04335 13.7429L7.18359 13.6728L7.2537 13.6027L7.32382 13.5326L7.39394 13.4624L7.46405 13.3923L7.53417 13.3222L7.6744 13.2521H7.74452L26.9565 2.10351L27.1669 2.0334L27.3071 1.96328L27.5175 1.89316H27.6577H27.7979H27.9382L28.0784 1.96328L28.2186 2.0334Z" fill="#9EA4A8"/>
<path fill-rule="evenodd" clip-rule="evenodd" d="M27.5175 1.6125L27.237 1.47226L27.0968 1.40215H27.0267L26.8864 1.33203H26.6761L26.5358 1.40215H26.3956L26.1853 1.47226L26.045 1.6125L6.833 12.691L6.69277 12.7611L6.62265 12.8312H6.55253L6.48242 12.9013L6.4123 12.9714L6.27206 13.0415L6.20195 13.1818L6.13183 13.2519L6.06171 13.322L5.9916 13.3921L5.92148 13.4622L5.85136 13.6025L5.78125 13.6726L5.71113 13.7427L5.64101 13.8829L5.5709 13.9531V14.0933L5.50078 14.1634L5.43066 14.3036L5.36055 14.3738V14.514L5.29043 14.5841V14.7244L5.22031 14.7945V14.9347L5.15019 15.0048V15.1451V15.2152L5.08008 15.3554V15.4255V15.5658V15.6359V26.3638V26.504L5.15019 26.7143V26.8546L5.22031 27.0649L5.29043 27.135L5.36055 27.2753L5.50078 27.3454L5.5709 27.4155L5.85136 27.6259L5.78125 27.5557L5.64101 27.4155L5.5709 27.3454L5.50078 27.2052L5.43066 27.0649V26.8546L5.36055 26.7143V26.504V15.8462V15.706V15.6359V15.4956L5.43066 15.4255V15.2853V15.2152L5.50078 15.0749V15.0048L5.5709 14.8646V14.7945L5.64101 14.6542V14.5841L5.71113 14.4439L5.78125 14.3738L5.85136 14.2335V14.1634L5.92148 14.0232L5.9916 13.9531L6.06171 13.8128L6.13183 13.7427L6.20195 13.6726L6.27206 13.5324L6.34218 13.4622L6.4123 13.3921L6.48242 13.322L6.55253 13.2519L6.69277 13.1818L6.76288 13.1117L6.833 13.0415L6.90312 12.9714L6.97323 12.9013L7.11347 12.8312L26.3255 1.75273L26.4657 1.68262L26.6761 1.6125L26.8163 1.54238H26.9565H27.1669H27.3071H27.4474L27.5175 1.6125Z" fill="#9EA4A8"/>
<path fill-rule="evenodd" clip-rule="evenodd" d="M26.8866 1.26191L26.6061 1.12168L26.4659 1.05156L26.3257 0.981445H26.1854H26.0452H25.905L25.7647 1.05156L25.5544 1.12168L25.4142 1.1918L6.13202 12.3404H6.06191L5.99179 12.4105L5.92167 12.4806L5.78144 12.5507L5.71132 12.6208L5.64121 12.691L5.57109 12.7611L5.50097 12.8312L5.43085 12.9714L5.36074 13.0415L5.29062 13.1117L5.2205 13.1818L5.15039 13.322L5.08027 13.3921L5.01015 13.4622L4.94004 13.6025L4.86992 13.6726V13.8128L4.7998 13.8829L4.72969 14.0232L4.65957 14.0933V14.2335L4.58945 14.3036V14.4439L4.51934 14.514V14.6542V14.7945L4.44922 14.8646V15.0048V15.0749V15.2152V15.2853V25.943V26.1534V26.3637L4.51934 26.504L4.58945 26.6442L4.65957 26.7844L4.72969 26.9247L4.86992 26.9948L4.94004 27.0649L5.2205 27.2052L5.08027 27.135L5.01015 27.0649L4.94004 26.9247L4.86992 26.7844L4.7998 26.6442L4.72969 26.504V26.2936V26.1534V15.4255V15.3554V15.2152V15.1451V15.0048L4.7998 14.9347V14.7945V14.7243L4.86992 14.5841V14.514L4.94004 14.3738V14.3036L5.01015 14.1634L5.08027 14.0933V13.9531L5.15039 13.8829L5.2205 13.7427L5.29062 13.6726L5.36074 13.5324L5.43085 13.4622L5.50097 13.3921L5.57109 13.2519L5.64121 13.1818L5.71132 13.1117L5.78144 13.0415L5.85156 12.9714L5.92167 12.8312L5.99179 12.7611L6.06191 12.691L6.20214 12.6208H6.27226L6.34237 12.5507L6.41249 12.4806L25.6946 1.40215L25.8349 1.26191L26.0452 1.1918H26.1854L26.3257 1.12168H26.4659L26.6061 1.1918H26.7464L26.8866 1.26191Z" fill="#9EA4A8"/>
<path fill-rule="evenodd" clip-rule="evenodd" d="M26.2558 0.911327L25.9753 0.700976L25.8351 0.630859H25.6948H25.5546H25.4144H25.2741L25.0638 0.700976L24.9235 0.771093L24.7132 0.84121L5.50116 11.9197L5.43105 11.9898L5.36093 12.0599L5.2207 12.13L5.15058 12.2001L5.08046 12.2703L5.01035 12.3404L4.94023 12.4105L4.87011 12.4806L4.72988 12.5507L4.65976 12.6208L4.58964 12.7611L4.51953 12.8312L4.44941 12.9013L4.37929 13.0415V13.1117L4.30918 13.2519L4.23906 13.322L4.16894 13.3921L4.09883 13.5324V13.6025L4.02871 13.7427V13.8128L3.95859 13.9531V14.0933L3.88848 14.1634V14.3036L3.81836 14.3738V14.514V14.5841V14.7243V14.7945V14.9347V25.5925V25.8028V25.943L3.88848 26.1534L3.95859 26.2936L4.02871 26.4339L4.09883 26.504L4.16894 26.6442L4.30918 26.7143L4.58964 26.8546L4.44941 26.7844L4.37929 26.7143L4.30918 26.5741L4.23906 26.4339L4.16894 26.2936L4.09883 26.1534V25.943V25.7327V15.0749V14.9347V14.8646V14.7243V14.6542V14.514L4.16894 14.4439V14.3036L4.23906 14.2335V14.0933L4.30918 14.0232V13.8829L4.37929 13.8128V13.6726L4.44941 13.6025L4.51953 13.4622L4.58964 13.3921L4.65976 13.2519L4.72988 13.1818V13.1117L4.8 12.9714L4.87011 12.9013L4.94023 12.8312L5.01035 12.691L5.15058 12.6208L5.2207 12.5507L5.29081 12.4806L5.36093 12.4105L5.43105 12.3404L5.50116 12.2703L5.6414 12.2001L5.71151 12.13H5.78163L24.9937 0.981444L25.204 0.911327L25.3442 0.84121L25.5546 0.771093H25.6948H25.8351H25.9753L26.1155 0.84121L26.2558 0.911327Z" fill="#9EA4A8"/>
<path fill-rule="evenodd" clip-rule="evenodd" d="M25.5546 0.490428L25.2741 0.350195L25.204 0.280078L25.0638 0.209961H24.9235H24.7833L24.5729 0.280078H24.4327L24.2925 0.350195L24.0821 0.490428L4.87011 11.5689L4.72988 11.639H4.65976L4.58964 11.7091L4.51952 11.7792L4.44941 11.8494L4.30917 11.9195L4.23906 11.9896L4.16894 12.1298L4.09882 12.1999L4.02871 12.2701L3.95859 12.3402L3.88847 12.4804L3.81836 12.5505L3.74824 12.6206L3.67812 12.7609L3.60801 12.831V12.9712L3.53789 13.0413L3.46777 13.1816L3.39765 13.2517V13.3919L3.32754 13.462V13.6023L3.25742 13.6724V13.8126L3.1873 13.8827V14.023V14.0931V14.2333L3.11719 14.3035V14.4437V14.5138V25.2417V25.3819L3.1873 25.5923V25.7325L3.25742 25.8727L3.32754 26.013L3.39765 26.1532L3.53789 26.2233L3.60801 26.2934L3.88847 26.5038L3.81836 26.4337L3.67812 26.2934L3.60801 26.2233L3.53789 26.0831L3.46777 25.9429V25.7325L3.39765 25.5923V25.3819V14.7242V14.5839V14.5138L3.46777 14.3736V14.3035V14.1632V14.0931L3.53789 13.9529V13.8126L3.60801 13.7425V13.6023L3.67812 13.5322V13.3919L3.74824 13.3218L3.81836 13.1816L3.88847 13.1115V12.9712L3.95859 12.9011L4.02871 12.831L4.09882 12.6908L4.16894 12.6206L4.23906 12.5505L4.30917 12.4103L4.37929 12.3402L4.44941 12.2701L4.51952 12.1999L4.58964 12.1298L4.72988 12.0597L4.79999 11.9896L4.87011 11.9195L4.94023 11.8494L5.01034 11.7792L5.15058 11.7091L24.3626 0.630662L24.5729 0.560545L24.7132 0.490428L24.8534 0.420312H25.0638H25.204H25.3442H25.4845L25.5546 0.490428Z" fill="#9EA4A8"/>
<path fill-rule="evenodd" clip-rule="evenodd" d="M21.9787 7.71249L16.2992 4.41699C13.7049 5.95956 14.1256 5.6791 11.5312 7.15155L17.2107 10.447C19.805 8.90447 19.3843 9.18494 21.9787 7.71249Z" fill="#E6EAEB"/>
<path fill-rule="evenodd" clip-rule="evenodd" d="M15.4576 4.97871L14.9668 5.25918L20.6462 8.55467L21.1371 8.2742L21.6279 7.99373L15.9484 4.69824L15.4576 4.97871ZM14.0553 5.74999L14.5461 5.46953L20.2255 8.76502L19.7347 9.04549L19.2439 9.32596L13.5644 6.03046L14.0553 5.74999ZM18.7531 9.53631L17.8416 10.0972L12.1621 6.80175L13.0736 6.24081L18.7531 9.53631Z" fill="#F0B11D"/>
<path fill-rule="evenodd" clip-rule="evenodd" d="M3.32754 12.5508L3.25742 12.6209L3.1873 12.691L3.11719 12.8312V12.9014L3.04707 13.0416L2.97695 13.1117V13.252L2.90684 13.3221V13.4623L2.83672 13.5324V13.6727V13.8129L2.7666 13.883V14.0232V14.0934V14.2336V14.3037V24.9615V25.1718V25.3822L2.83672 25.5224L2.90684 25.6626L2.97695 25.8029L3.04707 25.9431L3.11719 26.0132L3.25742 26.0833L8.86677 29.3788L8.79665 29.3087L8.65642 29.1685L8.5863 29.0984L8.51618 28.9581L8.44607 28.8179V28.6075L8.37595 28.4673V28.257V17.5992V17.459V17.3888L8.44607 17.2486V17.1785V17.0383V16.9681L8.51618 16.8279V16.6877L8.5863 16.6176V16.4773L8.65642 16.4072V16.267L8.72654 16.1969L8.79665 16.0566L8.86677 15.9865V15.8463L8.93689 15.7762L3.32754 12.5508Z" fill="#B7BEC3"/>
<path fill-rule="evenodd" clip-rule="evenodd" d="M8.23574 15.3555V15.4957L8.16562 15.5658L8.09551 15.7061L8.02539 15.7762V15.9164L7.95527 15.9865L7.88516 16.1268V16.1969L7.81504 16.3371V16.4072V16.5475L7.74492 16.6176V16.7578V16.8279V16.9682L7.6748 17.0383V17.1785V27.8363L7.74492 28.0466V28.257L7.81504 28.3972V28.5374L7.88516 28.6777L8.02539 28.8179L8.09551 28.888L8.23574 28.9581L8.51621 29.0984L8.37597 29.0283L8.30586 28.9581L8.16562 28.8179L8.09551 28.6777V28.5374L8.02539 28.3972V28.1869L7.95527 27.9765V17.3187V17.2486L8.02539 17.1084V17.0383V16.898V16.8279L8.09551 16.6877V16.6176V16.4773L8.16562 16.4072V16.267L8.23574 16.1969L8.30586 16.0566V15.9865L8.37597 15.8463L8.44609 15.7762L8.51621 15.6359V15.5658L8.23574 15.3555Z" fill="#8D9397"/>
<path fill-rule="evenodd" clip-rule="evenodd" d="M7.60488 15.0049L7.53476 15.075V15.2152L7.46465 15.2853L7.39453 15.4256L7.32441 15.4957V15.6359L7.2543 15.7061V15.8463L7.18418 15.9164V16.0566L7.11406 16.1268V16.267V16.4072L7.04395 16.4773V16.6176V16.6877V16.8279V27.4857V27.696L7.11406 27.8363V28.0466L7.18418 28.1869L7.2543 28.3271L7.32441 28.3972L7.46465 28.5374L7.53476 28.6076L7.81523 28.7478L7.74511 28.6777L7.60488 28.5374L7.53476 28.4673L7.46465 28.3271L7.39453 28.1869V28.0466L7.32441 27.8363V27.6259V16.9682V16.8279V16.7578V16.6176L7.39453 16.5475V16.4072V16.3371L7.46465 16.1969V16.1268L7.53476 15.9865V15.9164L7.60488 15.7762V15.7061L7.675 15.5658L7.74511 15.4957L7.81523 15.3555V15.2853L7.88535 15.1451L7.60488 15.0049Z" fill="#8D9397"/>
<path fill-rule="evenodd" clip-rule="evenodd" d="M6.97304 14.6543L6.90293 14.7244L6.83281 14.7945L6.76269 14.9348V15.0049L6.69258 15.1451L6.62246 15.2152V15.3555L6.55234 15.4957V15.5658L6.48223 15.7061V15.7762V15.9164L6.41211 15.9865V16.1268V16.1969V16.3371V16.4072V27.065V27.2753V27.4857L6.48223 27.6259L6.55234 27.7662L6.62246 27.9064L6.69258 28.0466L6.76269 28.1167L6.90293 28.1869L7.18339 28.3972L7.04316 28.257L6.97304 28.1869L6.90293 28.0466L6.83281 27.9765L6.76269 27.7662L6.69258 27.6259V27.4857V27.2753V16.5475V16.4773V16.3371V16.267V16.1268L6.76269 16.0566V15.9164V15.8463L6.83281 15.7061V15.6359L6.90293 15.4957V15.4256L6.97304 15.2853L7.04316 15.2152V15.075L7.11328 15.0049L7.18339 14.8646L7.25351 14.7945L6.97304 14.6543Z" fill="#8D9397"/>
<path fill-rule="evenodd" clip-rule="evenodd" d="M6.27207 14.2334V14.3736L6.20195 14.4437L6.13183 14.584L6.06172 14.6541V14.7943L5.9916 14.8644L5.92148 15.0047V15.0748L5.85137 15.215V15.2852V15.4254L5.78125 15.4955V15.6357V15.7059V15.8461V15.9162V16.0564V26.7142V26.9246V27.0648L5.85137 27.2751V27.4154L5.92148 27.5556L6.06172 27.6257L6.13183 27.766L6.27207 27.8361L6.55254 27.9763L6.4123 27.9062L6.34218 27.8361L6.20195 27.6958L6.13183 27.5556V27.4154L6.06172 27.2751V27.0648V26.8544V16.1967V16.1266V15.9863V15.9162V15.776V15.7059L6.13183 15.5656V15.4955V15.3553L6.20195 15.215V15.1449L6.27207 15.0047L6.34218 14.9346V14.7943L6.4123 14.7242L6.48242 14.584L6.55254 14.5139L6.62265 14.4437L6.27207 14.2334Z" fill="#8D9397"/>
<path fill-rule="evenodd" clip-rule="evenodd" d="M5.64101 13.8828L5.5709 13.9529V14.0932L5.50078 14.1633L5.43066 14.3035L5.36055 14.3736V14.5139L5.29043 14.584V14.7242L5.22031 14.7943V14.9346L5.15019 15.0047V15.1449V15.215L5.08008 15.3553V15.4254V15.5656V15.6357V26.3636V26.5038L5.15019 26.7142V26.8544L5.22031 27.0648L5.29043 27.1349L5.36055 27.2751L5.50078 27.3453L5.5709 27.4154L5.85136 27.6257L5.78125 27.5556L5.64101 27.4154L5.5709 27.3453L5.50078 27.205L5.43066 27.0648V26.8544L5.36055 26.7142V26.5038V15.8461V15.7059V15.6357V15.4955L5.43066 15.4254V15.2852V15.215L5.50078 15.0748V15.0047L5.5709 14.8644V14.7943L5.64101 14.6541V14.584L5.71113 14.4437L5.78125 14.3736L5.85136 14.2334V14.1633L5.92148 14.023L5.64101 13.8828Z" fill="#8D9397"/>
<path fill-rule="evenodd" clip-rule="evenodd" d="M5.01015 13.5322L4.94004 13.6023L4.86992 13.6725V13.8127L4.7998 13.8828L4.72969 14.023L4.65957 14.0932V14.2334L4.58945 14.3035V14.4437L4.51934 14.5139V14.6541V14.7943L4.44922 14.8644V15.0047V15.0748V15.215V15.2851V25.9429V26.1533V26.3636L4.51934 26.5038L4.58945 26.6441L4.65957 26.7843L4.72969 26.9245L4.86992 26.9947L4.94004 27.0648L5.2205 27.205L5.08027 27.1349L5.01015 27.0648L4.94004 26.9245L4.86992 26.7843L4.7998 26.6441L4.72969 26.5038V26.2935V26.1533V15.4254V15.3553V15.215V15.1449V15.0047L4.7998 14.9346V14.7943V14.7242L4.86992 14.584V14.5139L4.94004 14.3736V14.3035L5.01015 14.1633L5.08027 14.0932V13.9529L5.15039 13.8828L5.2205 13.7426L5.29062 13.6725L5.01015 13.5322Z" fill="#8D9397"/>
<path fill-rule="evenodd" clip-rule="evenodd" d="M4.37929 13.1123L4.30918 13.2525L4.23906 13.3227L4.16894 13.3928L4.09883 13.533V13.6031L4.02871 13.7434V13.8135L3.95859 13.9537V14.0939L3.88848 14.1641V14.3043L3.81836 14.3744V14.5146V14.5848V14.725V14.7951V14.9353V25.5931V25.8035V25.9437L3.88848 26.154L3.95859 26.2943L4.02871 26.4345L4.09883 26.5046L4.16894 26.6449L4.30918 26.715L4.58964 26.8552L4.44941 26.7851L4.37929 26.715L4.30918 26.5747L4.23906 26.4345L4.16894 26.2943L4.09883 26.154V25.9437V25.7333V15.0756V14.9353V14.8652V14.725V14.6549V14.5146L4.16894 14.4445V14.3043L4.23906 14.2342V14.0939L4.30918 14.0238V13.8836L4.37929 13.8135V13.6732L4.44941 13.6031L4.51953 13.4629L4.58964 13.3928L4.65976 13.3227L4.37929 13.1123Z" fill="#8D9397"/>
<path fill-rule="evenodd" clip-rule="evenodd" d="M3.67812 12.7617L3.60801 12.8318V12.9721L3.53789 13.0422L3.46777 13.1824L3.39765 13.2525V13.3928L3.32754 13.4629V13.6031L3.25742 13.6732V13.8135L3.1873 13.8836V14.0238V14.0939V14.2342L3.11719 14.3043V14.4445V14.5146V25.2425V25.3828L3.1873 25.5931V25.7333L3.25742 25.8736L3.32754 26.0138L3.39765 26.154L3.53789 26.2242L3.60801 26.2943L3.88847 26.5046L3.81836 26.4345L3.67812 26.2943L3.60801 26.2242L3.53789 26.0839L3.46777 25.9437V25.7333L3.39765 25.5931V25.3828V14.725V14.5848V14.5146L3.46777 14.3744V14.3043V14.1641V14.0939L3.53789 13.9537V13.8135L3.60801 13.7434V13.6031L3.67812 13.533V13.3928L3.74824 13.3227L3.81836 13.1824L3.88847 13.1123V12.9721L3.95859 12.902L3.67812 12.7617Z" fill="#8D9397"/>
</g>
<defs>
<clipPath id="clip0_5589_69792">
<rect width="33.5159" height="42" fill="white" transform="translate(0.242188)"/>
</clipPath>
</defs>
</svg>
