<svg width="256" height="61" viewBox="0 0 256 61" fill="none" xmlns="http://www.w3.org/2000/svg">
<g filter="url(#filter0_d_2894_5932)">
<path d="M74.7358 42H5.12408C5.10104 42 5.07845 41.9938 5.05885 41.982C5.03924 41.9703 5.02341 41.9535 5.0131 41.9335C5.00279 41.9135 4.99843 41.8911 5.0005 41.8689C5.00257 41.8466 5.01099 41.8253 5.02481 41.8074L20.321 22.0937C20.4495 21.9223 20.5187 21.7159 20.5187 21.504C20.5187 21.2921 20.4495 21.0857 20.321 20.9143L5.02481 1.19257C5.01099 1.17469 5.00257 1.15342 5.0005 1.13116C4.99843 1.1089 5.00279 1.08652 5.0131 1.06653C5.02341 1.04654 5.03924 1.02972 5.05885 1.01797C5.07845 1.00622 5.10104 1 5.12408 1H74.7358C74.9495 1.00155 75.1599 1.05085 75.3507 1.14409C75.5415 1.23732 75.7076 1.37197 75.8361 1.53757L90.7269 20.6977C90.9043 20.9298 91 21.2111 91 21.5C91 21.7889 90.9043 22.0702 90.7269 22.3024L75.8361 41.4704C75.7072 41.635 75.5408 41.7685 75.35 41.8604C75.1591 41.9522 74.9489 42 74.7358 42Z" fill="white"/>
<path d="M74.7358 41.5H5.89623L20.7161 22.4002L20.7161 22.4003L20.7211 22.3936C20.9137 22.1367 21.0187 21.8253 21.0187 21.504C21.0187 21.1827 20.9137 20.8713 20.7211 20.6144L20.7212 20.6144L20.7161 20.6078L5.89602 1.5H74.7338C74.8726 1.50124 75.0085 1.53339 75.1312 1.59333C75.2543 1.65347 75.36 1.73963 75.441 1.84401L75.4413 1.8444L90.3296 21.0011C90.3299 21.0016 90.3303 21.002 90.3306 21.0025C90.4415 21.1483 90.5 21.3227 90.5 21.5C90.5 21.6774 90.4415 21.8518 90.3305 21.9976C90.3302 21.998 90.3299 21.9985 90.3296 21.9989L75.4424 41.1622C75.4421 41.1625 75.4419 41.1629 75.4416 41.1632C75.3607 41.2662 75.2554 41.351 75.1331 41.4098C75.0103 41.4689 74.8743 41.5 74.7358 41.5Z" stroke="#3578DB"/>
</g>
<path d="M20.1122 58.18C19.4802 58.18 18.9102 58.07 18.4022 57.85C17.8982 57.63 17.4822 57.316 17.1542 56.908C16.8302 56.496 16.6242 56.008 16.5362 55.444L18.0362 55.216C18.1642 55.728 18.4262 56.124 18.8222 56.404C19.2222 56.684 19.6822 56.824 20.2022 56.824C20.5102 56.824 20.8002 56.776 21.0722 56.68C21.3442 56.584 21.5642 56.444 21.7322 56.26C21.9042 56.076 21.9902 55.85 21.9902 55.582C21.9902 55.462 21.9702 55.352 21.9302 55.252C21.8902 55.148 21.8302 55.056 21.7502 54.976C21.6742 54.896 21.5742 54.824 21.4502 54.76C21.3302 54.692 21.1902 54.634 21.0302 54.586L18.7982 53.926C18.6062 53.87 18.3982 53.796 18.1742 53.704C17.9542 53.608 17.7442 53.478 17.5442 53.314C17.3482 53.146 17.1862 52.934 17.0582 52.678C16.9342 52.418 16.8722 52.098 16.8722 51.718C16.8722 51.162 17.0122 50.696 17.2922 50.32C17.5762 49.94 17.9562 49.656 18.4322 49.468C18.9122 49.28 19.4442 49.188 20.0282 49.192C20.6202 49.196 21.1482 49.298 21.6122 49.498C22.0762 49.694 22.4642 49.98 22.7762 50.356C23.0882 50.732 23.3082 51.186 23.4362 51.718L21.8822 51.988C21.8182 51.684 21.6942 51.426 21.5102 51.214C21.3302 50.998 21.1082 50.834 20.8442 50.722C20.5842 50.61 20.3062 50.55 20.0102 50.542C19.7222 50.538 19.4542 50.582 19.2062 50.674C18.9622 50.762 18.7642 50.89 18.6122 51.058C18.4642 51.226 18.3902 51.422 18.3902 51.646C18.3902 51.858 18.4542 52.032 18.5822 52.168C18.7102 52.3 18.8682 52.406 19.0562 52.486C19.2482 52.562 19.4422 52.626 19.6382 52.678L21.1862 53.11C21.3982 53.166 21.6362 53.242 21.9002 53.338C22.1642 53.434 22.4182 53.568 22.6622 53.74C22.9062 53.912 23.1062 54.138 23.2622 54.418C23.4222 54.698 23.5022 55.054 23.5022 55.486C23.5022 55.934 23.4082 56.328 23.2202 56.668C23.0362 57.004 22.7862 57.284 22.4702 57.508C22.1542 57.732 21.7922 57.9 21.3842 58.012C20.9802 58.124 20.5562 58.18 20.1122 58.18ZM28.5989 58C28.1709 58.08 27.7509 58.114 27.3389 58.102C26.9309 58.094 26.5649 58.02 26.2409 57.88C25.9169 57.736 25.6709 57.51 25.5029 57.202C25.3549 56.922 25.2769 56.636 25.2689 56.344C25.2609 56.052 25.2569 55.722 25.2569 55.354V49.72H26.6969V55.27C26.6969 55.53 26.6989 55.758 26.7029 55.954C26.7109 56.15 26.7529 56.31 26.8289 56.434C26.9729 56.674 27.2029 56.808 27.5189 56.836C27.8349 56.864 28.1949 56.848 28.5989 56.788V58ZM24.0809 52.654V51.52H28.5989V52.654H24.0809ZM32.6102 58.18C31.9542 58.18 31.3782 58.038 30.8822 57.754C30.3862 57.47 29.9982 57.076 29.7182 56.572C29.4422 56.068 29.3042 55.488 29.3042 54.832C29.3042 54.124 29.4402 53.51 29.7122 52.99C29.9842 52.466 30.3622 52.06 30.8462 51.772C31.3302 51.484 31.8902 51.34 32.5262 51.34C33.1982 51.34 33.7682 51.498 34.2362 51.814C34.7082 52.126 35.0582 52.568 35.2862 53.14C35.5142 53.712 35.6002 54.386 35.5442 55.162H34.1102V54.634C34.1062 53.93 33.9822 53.416 33.7382 53.092C33.4942 52.768 33.1102 52.606 32.5862 52.606C31.9942 52.606 31.5542 52.79 31.2662 53.158C30.9782 53.522 30.8342 54.056 30.8342 54.76C30.8342 55.416 30.9782 55.924 31.2662 56.284C31.5542 56.644 31.9742 56.824 32.5262 56.824C32.8822 56.824 33.1882 56.746 33.4442 56.59C33.7042 56.43 33.9042 56.2 34.0442 55.9L35.4722 56.332C35.2242 56.916 34.8402 57.37 34.3202 57.694C33.8042 58.018 33.2342 58.18 32.6102 58.18ZM30.3782 55.162V54.07H34.8362V55.162H30.3782ZM39.8212 58.18C39.1892 58.18 38.6592 58.03 38.2312 57.73C37.8032 57.43 37.4812 57.022 37.2652 56.506C37.0492 55.986 36.9412 55.404 36.9412 54.76C36.9412 54.108 37.0492 53.524 37.2652 53.008C37.4812 52.492 37.7972 52.086 38.2132 51.79C38.6332 51.49 39.1512 51.34 39.7672 51.34C40.3792 51.34 40.9092 51.49 41.3572 51.79C41.8092 52.086 42.1592 52.492 42.4072 53.008C42.6552 53.52 42.7792 54.104 42.7792 54.76C42.7792 55.408 42.6572 55.99 42.4132 56.506C42.1692 57.022 41.8252 57.43 41.3812 57.73C40.9372 58.03 40.4172 58.18 39.8212 58.18ZM36.6952 60.88V51.52H37.9732V56.068H38.1532V60.88H36.6952ZM39.5992 56.884C39.9752 56.884 40.2852 56.79 40.5292 56.602C40.7732 56.414 40.9532 56.16 41.0692 55.84C41.1892 55.516 41.2492 55.156 41.2492 54.76C41.2492 54.368 41.1892 54.012 41.0692 53.692C40.9492 53.368 40.7632 53.112 40.5112 52.924C40.2592 52.732 39.9392 52.636 39.5512 52.636C39.1832 52.636 38.8832 52.726 38.6512 52.906C38.4192 53.082 38.2472 53.33 38.1352 53.65C38.0272 53.966 37.9732 54.336 37.9732 54.76C37.9732 55.18 38.0272 55.55 38.1352 55.87C38.2472 56.19 38.4212 56.44 38.6572 56.62C38.8972 56.796 39.2112 56.884 39.5992 56.884ZM48.0041 58V50.938L46.3841 51.928V50.332L48.0041 49.36H49.4801V58H48.0041Z" fill="#3578DB"/>
<path d="M36.1141 18V10.8H40.7641V11.93H37.3191V13.705H40.1641V14.835H37.3191V16.87H40.7641V18H36.1141ZM45.6987 18V15.4C45.6987 15.23 45.687 15.0417 45.6637 14.835C45.6403 14.6283 45.5853 14.43 45.4987 14.24C45.4153 14.0467 45.2887 13.8883 45.1187 13.765C44.952 13.6417 44.7253 13.58 44.4387 13.58C44.2853 13.58 44.1337 13.605 43.9837 13.655C43.8337 13.705 43.697 13.7917 43.5737 13.915C43.4537 14.035 43.357 14.2017 43.2837 14.415C43.2103 14.625 43.1737 14.895 43.1737 15.225L42.4587 14.92C42.4587 14.46 42.547 14.0433 42.7237 13.67C42.9037 13.2967 43.167 13 43.5137 12.78C43.8603 12.5567 44.287 12.445 44.7937 12.445C45.1937 12.445 45.5237 12.5117 45.7837 12.645C46.0437 12.7783 46.2503 12.9483 46.4037 13.155C46.557 13.3617 46.6703 13.5817 46.7437 13.815C46.817 14.0483 46.8637 14.27 46.8837 14.48C46.907 14.6867 46.9187 14.855 46.9187 14.985V18H45.6987ZM41.9537 18V12.6H43.0287V14.275H43.1737V18H41.9537ZM51.3884 18C51.0318 18.0667 50.6818 18.095 50.3384 18.085C49.9984 18.0783 49.6934 18.0167 49.4234 17.9C49.1534 17.78 48.9484 17.5917 48.8084 17.335C48.6851 17.1017 48.6201 16.8633 48.6134 16.62C48.6068 16.3767 48.6034 16.1017 48.6034 15.795V11.1H49.8034V15.725C49.8034 15.9417 49.8051 16.1317 49.8084 16.295C49.8151 16.4583 49.8501 16.5917 49.9134 16.695C50.0334 16.895 50.2251 17.0067 50.4884 17.03C50.7518 17.0533 51.0518 17.04 51.3884 16.99V18ZM47.6234 13.545V12.6H51.3884V13.545H47.6234ZM54.7312 18.15C54.1845 18.15 53.7045 18.0317 53.2912 17.795C52.8778 17.5583 52.5545 17.23 52.3212 16.81C52.0912 16.39 51.9762 15.9067 51.9762 15.36C51.9762 14.77 52.0895 14.2583 52.3162 13.825C52.5428 13.3883 52.8578 13.05 53.2612 12.81C53.6645 12.57 54.1312 12.45 54.6612 12.45C55.2212 12.45 55.6962 12.5817 56.0862 12.845C56.4795 13.105 56.7712 13.4733 56.9612 13.95C57.1512 14.4267 57.2228 14.9883 57.1762 15.635H55.9812V15.195C55.9778 14.6083 55.8745 14.18 55.6712 13.91C55.4678 13.64 55.1478 13.505 54.7112 13.505C54.2178 13.505 53.8512 13.6583 53.6112 13.965C53.3712 14.2683 53.2512 14.7133 53.2512 15.3C53.2512 15.8467 53.3712 16.27 53.6112 16.57C53.8512 16.87 54.2012 17.02 54.6612 17.02C54.9578 17.02 55.2128 16.955 55.4262 16.825C55.6428 16.6917 55.8095 16.5 55.9262 16.25L57.1162 16.61C56.9095 17.0967 56.5895 17.475 56.1562 17.745C55.7262 18.015 55.2512 18.15 54.7312 18.15ZM52.8712 15.635V14.725H56.5862V15.635H52.8712ZM58.2918 18V12.6H59.3568V13.915L59.2268 13.745C59.2935 13.565 59.3818 13.4017 59.4918 13.255C59.6051 13.105 59.7401 12.9817 59.8968 12.885C60.0301 12.795 60.1768 12.725 60.3368 12.675C60.5001 12.6217 60.6668 12.59 60.8368 12.58C61.0068 12.5667 61.1718 12.5733 61.3318 12.6V13.725C61.1718 13.6783 60.9868 13.6633 60.7768 13.68C60.5701 13.6967 60.3835 13.755 60.2168 13.855C60.0501 13.945 59.9135 14.06 59.8068 14.2C59.7035 14.34 59.6268 14.5 59.5768 14.68C59.5268 14.8567 59.5018 15.0483 59.5018 15.255V18H58.2918ZM23.5545 32.15C23.0278 32.15 22.5528 32.0583 22.1295 31.875C21.7095 31.6917 21.3628 31.43 21.0895 31.09C20.8195 30.7467 20.6478 30.34 20.5745 29.87L21.8245 29.68C21.9311 30.1067 22.1495 30.4367 22.4795 30.67C22.8128 30.9033 23.1961 31.02 23.6295 31.02C23.8861 31.02 24.1278 30.98 24.3545 30.9C24.5811 30.82 24.7645 30.7033 24.9045 30.55C25.0478 30.3967 25.1195 30.2083 25.1195 29.985C25.1195 29.885 25.1028 29.7933 25.0695 29.71C25.0361 29.6233 24.9861 29.5467 24.9195 29.48C24.8561 29.4133 24.7728 29.3533 24.6695 29.3C24.5695 29.2433 24.4528 29.195 24.3195 29.155L22.4595 28.605C22.2995 28.5583 22.1261 28.4967 21.9395 28.42C21.7561 28.34 21.5811 28.2317 21.4145 28.095C21.2511 27.955 21.1161 27.7783 21.0095 27.565C20.9061 27.3483 20.8545 27.0817 20.8545 26.765C20.8545 26.3017 20.9711 25.9133 21.2045 25.6C21.4411 25.2833 21.7578 25.0467 22.1545 24.89C22.5545 24.7333 22.9978 24.6567 23.4845 24.66C23.9778 24.6633 24.4178 24.7483 24.8045 24.915C25.1911 25.0783 25.5145 25.3167 25.7745 25.63C26.0345 25.9433 26.2178 26.3217 26.3245 26.765L25.0295 26.99C24.9761 26.7367 24.8728 26.5217 24.7195 26.345C24.5695 26.165 24.3845 26.0283 24.1645 25.935C23.9478 25.8417 23.7161 25.7917 23.4695 25.785C23.2295 25.7817 23.0061 25.8183 22.7995 25.895C22.5961 25.9683 22.4311 26.075 22.3045 26.215C22.1811 26.355 22.1195 26.5183 22.1195 26.705C22.1195 26.8817 22.1728 27.0267 22.2795 27.14C22.3861 27.25 22.5178 27.3383 22.6745 27.405C22.8345 27.4683 22.9961 27.5217 23.1595 27.565L24.4495 27.925C24.6261 27.9717 24.8245 28.035 25.0445 28.115C25.2645 28.195 25.4761 28.3067 25.6795 28.45C25.8828 28.5933 26.0495 28.7817 26.1795 29.015C26.3128 29.2483 26.3795 29.545 26.3795 29.905C26.3795 30.2783 26.3011 30.6067 26.1445 30.89C25.9911 31.17 25.7828 31.4033 25.5195 31.59C25.2561 31.7767 24.9545 31.9167 24.6145 32.01C24.2778 32.1033 23.9245 32.15 23.5545 32.15ZM29.6267 32.15C29.1301 32.15 28.6967 32.025 28.3267 31.775C27.9567 31.525 27.6701 31.185 27.4667 30.755C27.2634 30.325 27.1617 29.84 27.1617 29.3C27.1617 28.7533 27.2634 28.2667 27.4667 27.84C27.6734 27.41 27.9651 27.0717 28.3417 26.825C28.7184 26.575 29.1617 26.45 29.6717 26.45C30.1851 26.45 30.6151 26.575 30.9617 26.825C31.3117 27.0717 31.5767 27.41 31.7567 27.84C31.9367 28.27 32.0267 28.7567 32.0267 29.3C32.0267 29.8367 31.9367 30.3217 31.7567 30.755C31.5767 31.185 31.3084 31.525 30.9517 31.775C30.5951 32.025 30.1534 32.15 29.6267 32.15ZM29.8117 31.07C30.1351 31.07 30.3951 30.9967 30.5917 30.85C30.7917 30.7 30.9367 30.4917 31.0267 30.225C31.1201 29.9583 31.1667 29.65 31.1667 29.3C31.1667 28.9467 31.1201 28.6383 31.0267 28.375C30.9367 28.1083 30.7951 27.9017 30.6017 27.755C30.4084 27.605 30.1584 27.53 29.8517 27.53C29.5284 27.53 29.2617 27.61 29.0517 27.77C28.8417 27.9267 28.6867 28.14 28.5867 28.41C28.4867 28.6767 28.4367 28.9733 28.4367 29.3C28.4367 29.63 28.4851 29.93 28.5817 30.2C28.6817 30.4667 28.8334 30.6783 29.0367 30.835C29.2401 30.9917 29.4984 31.07 29.8117 31.07ZM31.0167 34.4V30.39H31.1667V26.6H32.2317V34.4H31.0167ZM35.6586 32.155C35.2586 32.155 34.9286 32.0883 34.6686 31.955C34.4086 31.8217 34.2019 31.6517 34.0486 31.445C33.8953 31.2383 33.7819 31.0183 33.7086 30.785C33.6353 30.5517 33.5869 30.3317 33.5636 30.125C33.5436 29.915 33.5336 29.745 33.5336 29.615V26.6H34.7536V29.2C34.7536 29.3667 34.7653 29.555 34.7886 29.765C34.8119 29.9717 34.8653 30.1717 34.9486 30.365C35.0353 30.555 35.1619 30.7117 35.3286 30.835C35.4986 30.9583 35.7269 31.02 36.0136 31.02C36.1669 31.02 36.3186 30.995 36.4686 30.945C36.6186 30.895 36.7536 30.81 36.8736 30.69C36.9969 30.5667 37.0953 30.3983 37.1686 30.185C37.2419 29.9717 37.2786 29.7017 37.2786 29.375L37.9936 29.68C37.9936 30.14 37.9036 30.5567 37.7236 30.93C37.5469 31.3033 37.2853 31.6017 36.9386 31.825C36.5919 32.045 36.1653 32.155 35.6586 32.155ZM37.4236 32V30.325H37.2786V26.6H38.4886V32H37.4236ZM41.4034 32.15C41.0134 32.15 40.6834 32.0767 40.4134 31.93C40.1434 31.78 39.9384 31.5817 39.7984 31.335C39.6617 31.0883 39.5934 30.8167 39.5934 30.52C39.5934 30.26 39.6367 30.0267 39.7234 29.82C39.81 29.61 39.9434 29.43 40.1234 29.28C40.3034 29.1267 40.5367 29.0017 40.8234 28.905C41.04 28.835 41.2934 28.7717 41.5834 28.715C41.8767 28.6583 42.1934 28.6067 42.5334 28.56C42.8767 28.51 43.235 28.4567 43.6084 28.4L43.1784 28.645C43.1817 28.2717 43.0984 27.9967 42.9284 27.82C42.7584 27.6433 42.4717 27.555 42.0684 27.555C41.825 27.555 41.59 27.6117 41.3634 27.725C41.1367 27.8383 40.9784 28.0333 40.8884 28.31L39.7884 27.965C39.9217 27.5083 40.175 27.1417 40.5484 26.865C40.925 26.5883 41.4317 26.45 42.0684 26.45C42.5484 26.45 42.97 26.5283 43.3334 26.685C43.7 26.8417 43.9717 27.0983 44.1484 27.455C44.245 27.645 44.3034 27.84 44.3234 28.04C44.3434 28.2367 44.3534 28.4517 44.3534 28.685V32H43.2984V30.83L43.4734 31.02C43.23 31.41 42.945 31.6967 42.6184 31.88C42.295 32.06 41.89 32.15 41.4034 32.15ZM41.6434 31.19C41.9167 31.19 42.15 31.1417 42.3434 31.045C42.5367 30.9483 42.69 30.83 42.8034 30.69C42.92 30.55 42.9984 30.4183 43.0384 30.295C43.1017 30.1417 43.1367 29.9667 43.1434 29.77C43.1534 29.57 43.1584 29.4083 43.1584 29.285L43.5284 29.395C43.165 29.4517 42.8534 29.5017 42.5934 29.545C42.3334 29.5883 42.11 29.63 41.9234 29.67C41.7367 29.7067 41.5717 29.7483 41.4284 29.795C41.2884 29.845 41.17 29.9033 41.0734 29.97C40.9767 30.0367 40.9017 30.1133 40.8484 30.2C40.7984 30.2867 40.7734 30.3883 40.7734 30.505C40.7734 30.6383 40.8067 30.7567 40.8734 30.86C40.94 30.96 41.0367 31.04 41.1634 31.1C41.2934 31.16 41.4534 31.19 41.6434 31.19ZM45.6551 32V26.6H46.7201V27.915L46.5901 27.745C46.6567 27.565 46.7451 27.4017 46.8551 27.255C46.9684 27.105 47.1034 26.9817 47.2601 26.885C47.3934 26.795 47.5401 26.725 47.7001 26.675C47.8634 26.6217 48.0301 26.59 48.2001 26.58C48.3701 26.5667 48.5351 26.5733 48.6951 26.6V27.725C48.5351 27.6783 48.3501 27.6633 48.1401 27.68C47.9334 27.6967 47.7467 27.755 47.5801 27.855C47.4134 27.945 47.2767 28.06 47.1701 28.2C47.0667 28.34 46.9901 28.5 46.9401 28.68C46.8901 28.8567 46.8651 29.0483 46.8651 29.255V32H45.6551ZM52.0066 32.15C51.4599 32.15 50.9799 32.0317 50.5666 31.795C50.1532 31.5583 49.8299 31.23 49.5966 30.81C49.3666 30.39 49.2516 29.9067 49.2516 29.36C49.2516 28.77 49.3649 28.2583 49.5916 27.825C49.8182 27.3883 50.1332 27.05 50.5366 26.81C50.9399 26.57 51.4066 26.45 51.9366 26.45C52.4966 26.45 52.9716 26.5817 53.3616 26.845C53.7549 27.105 54.0466 27.4733 54.2366 27.95C54.4266 28.4267 54.4982 28.9883 54.4516 29.635H53.2566V29.195C53.2532 28.6083 53.1499 28.18 52.9466 27.91C52.7432 27.64 52.4232 27.505 51.9866 27.505C51.4932 27.505 51.1266 27.6583 50.8866 27.965C50.6466 28.2683 50.5266 28.7133 50.5266 29.3C50.5266 29.8467 50.6466 30.27 50.8866 30.57C51.1266 30.87 51.4766 31.02 51.9366 31.02C52.2332 31.02 52.4882 30.955 52.7016 30.825C52.9182 30.6917 53.0849 30.5 53.2016 30.25L54.3916 30.61C54.1849 31.0967 53.8649 31.475 53.4316 31.745C53.0016 32.015 52.5266 32.15 52.0066 32.15ZM50.1466 29.635V28.725H53.8616V29.635H50.1466ZM58.0391 32V26.515C58.0391 26.3783 58.0441 26.2283 58.0541 26.065C58.0641 25.8983 58.0925 25.7333 58.1391 25.57C58.1858 25.4067 58.2708 25.2583 58.3941 25.125C58.5475 24.955 58.7125 24.8383 58.8891 24.775C59.0691 24.7083 59.2458 24.6717 59.4191 24.665C59.5925 24.655 59.7441 24.65 59.8741 24.65H60.5491V25.63H59.9241C59.6941 25.63 59.5225 25.6883 59.4091 25.805C59.2991 25.9183 59.2441 26.0683 59.2441 26.255V32H58.0391ZM57.1691 27.545V26.6H60.5491V27.545H57.1691ZM63.6081 32.15C63.0615 32.15 62.5815 32.0317 62.1681 31.795C61.7548 31.5583 61.4315 31.23 61.1981 30.81C60.9681 30.39 60.8531 29.9067 60.8531 29.36C60.8531 28.77 60.9665 28.2583 61.1931 27.825C61.4198 27.3883 61.7348 27.05 62.1381 26.81C62.5415 26.57 63.0081 26.45 63.5381 26.45C64.0981 26.45 64.5731 26.5817 64.9631 26.845C65.3565 27.105 65.6481 27.4733 65.8381 27.95C66.0281 28.4267 66.0998 28.9883 66.0531 29.635H64.8581V29.195C64.8548 28.6083 64.7515 28.18 64.5481 27.91C64.3448 27.64 64.0248 27.505 63.5881 27.505C63.0948 27.505 62.7281 27.6583 62.4881 27.965C62.2481 28.2683 62.1281 28.7133 62.1281 29.3C62.1281 29.8467 62.2481 30.27 62.4881 30.57C62.7281 30.87 63.0781 31.02 63.5381 31.02C63.8348 31.02 64.0898 30.955 64.3031 30.825C64.5198 30.6917 64.6865 30.5 64.8031 30.25L65.9931 30.61C65.7865 31.0967 65.4665 31.475 65.0331 31.745C64.6031 32.015 64.1281 32.15 63.6081 32.15ZM61.7481 29.635V28.725H65.4631V29.635H61.7481ZM69.6238 32.15C69.0771 32.15 68.5971 32.0317 68.1838 31.795C67.7704 31.5583 67.4471 31.23 67.2138 30.81C66.9838 30.39 66.8688 29.9067 66.8688 29.36C66.8688 28.77 66.9821 28.2583 67.2088 27.825C67.4354 27.3883 67.7504 27.05 68.1538 26.81C68.5571 26.57 69.0238 26.45 69.5538 26.45C70.1138 26.45 70.5888 26.5817 70.9788 26.845C71.3721 27.105 71.6638 27.4733 71.8538 27.95C72.0438 28.4267 72.1154 28.9883 72.0688 29.635H70.8738V29.195C70.8704 28.6083 70.7671 28.18 70.5638 27.91C70.3604 27.64 70.0404 27.505 69.6038 27.505C69.1104 27.505 68.7438 27.6583 68.5038 27.965C68.2638 28.2683 68.1438 28.7133 68.1438 29.3C68.1438 29.8467 68.2638 30.27 68.5038 30.57C68.7438 30.87 69.0938 31.02 69.5538 31.02C69.8504 31.02 70.1054 30.955 70.3188 30.825C70.5354 30.6917 70.7021 30.5 70.8188 30.25L72.0088 30.61C71.8021 31.0967 71.4821 31.475 71.0488 31.745C70.6188 32.015 70.1438 32.15 69.6238 32.15ZM67.7638 29.635V28.725H71.4788V29.635H67.7638ZM76.3494 32C75.9927 32.0667 75.6427 32.095 75.2994 32.085C74.9594 32.0783 74.6544 32.0167 74.3844 31.9C74.1144 31.78 73.9094 31.5917 73.7694 31.335C73.646 31.1017 73.581 30.8633 73.5744 30.62C73.5677 30.3767 73.5644 30.1017 73.5644 29.795V25.1H74.7644V29.725C74.7644 29.9417 74.766 30.1317 74.7694 30.295C74.776 30.4583 74.811 30.5917 74.8744 30.695C74.9944 30.895 75.186 31.0067 75.4494 31.03C75.7127 31.0533 76.0127 31.04 76.3494 30.99V32ZM72.5844 27.545V26.6H76.3494V27.545H72.5844Z" fill="#3578DB"/>
<path d="M194.257 58.18C193.625 58.18 193.055 58.07 192.547 57.85C192.043 57.63 191.627 57.316 191.299 56.908C190.975 56.496 190.769 56.008 190.681 55.444L192.181 55.216C192.309 55.728 192.571 56.124 192.967 56.404C193.367 56.684 193.827 56.824 194.347 56.824C194.655 56.824 194.945 56.776 195.217 56.68C195.489 56.584 195.709 56.444 195.877 56.26C196.049 56.076 196.135 55.85 196.135 55.582C196.135 55.462 196.115 55.352 196.075 55.252C196.035 55.148 195.975 55.056 195.895 54.976C195.819 54.896 195.719 54.824 195.595 54.76C195.475 54.692 195.335 54.634 195.175 54.586L192.943 53.926C192.751 53.87 192.543 53.796 192.319 53.704C192.099 53.608 191.889 53.478 191.689 53.314C191.493 53.146 191.331 52.934 191.203 52.678C191.079 52.418 191.017 52.098 191.017 51.718C191.017 51.162 191.157 50.696 191.437 50.32C191.721 49.94 192.101 49.656 192.577 49.468C193.057 49.28 193.589 49.188 194.173 49.192C194.765 49.196 195.293 49.298 195.757 49.498C196.221 49.694 196.609 49.98 196.921 50.356C197.233 50.732 197.453 51.186 197.581 51.718L196.027 51.988C195.963 51.684 195.839 51.426 195.655 51.214C195.475 50.998 195.253 50.834 194.989 50.722C194.729 50.61 194.451 50.55 194.155 50.542C193.867 50.538 193.599 50.582 193.351 50.674C193.107 50.762 192.909 50.89 192.757 51.058C192.609 51.226 192.535 51.422 192.535 51.646C192.535 51.858 192.599 52.032 192.727 52.168C192.855 52.3 193.013 52.406 193.201 52.486C193.393 52.562 193.587 52.626 193.783 52.678L195.331 53.11C195.543 53.166 195.781 53.242 196.045 53.338C196.309 53.434 196.563 53.568 196.807 53.74C197.051 53.912 197.251 54.138 197.407 54.418C197.567 54.698 197.647 55.054 197.647 55.486C197.647 55.934 197.553 56.328 197.365 56.668C197.181 57.004 196.931 57.284 196.615 57.508C196.299 57.732 195.937 57.9 195.529 58.012C195.125 58.124 194.701 58.18 194.257 58.18ZM202.743 58C202.315 58.08 201.895 58.114 201.483 58.102C201.075 58.094 200.709 58.02 200.385 57.88C200.061 57.736 199.815 57.51 199.647 57.202C199.499 56.922 199.421 56.636 199.413 56.344C199.405 56.052 199.401 55.722 199.401 55.354V49.72H200.841V55.27C200.841 55.53 200.843 55.758 200.847 55.954C200.855 56.15 200.897 56.31 200.973 56.434C201.117 56.674 201.347 56.808 201.663 56.836C201.979 56.864 202.339 56.848 202.743 56.788V58ZM198.225 52.654V51.52H202.743V52.654H198.225ZM206.755 58.18C206.099 58.18 205.523 58.038 205.027 57.754C204.531 57.47 204.143 57.076 203.863 56.572C203.587 56.068 203.449 55.488 203.449 54.832C203.449 54.124 203.585 53.51 203.857 52.99C204.129 52.466 204.507 52.06 204.991 51.772C205.475 51.484 206.035 51.34 206.671 51.34C207.343 51.34 207.913 51.498 208.381 51.814C208.853 52.126 209.203 52.568 209.431 53.14C209.659 53.712 209.745 54.386 209.689 55.162H208.255V54.634C208.251 53.93 208.127 53.416 207.883 53.092C207.639 52.768 207.255 52.606 206.731 52.606C206.139 52.606 205.699 52.79 205.411 53.158C205.123 53.522 204.979 54.056 204.979 54.76C204.979 55.416 205.123 55.924 205.411 56.284C205.699 56.644 206.119 56.824 206.671 56.824C207.027 56.824 207.333 56.746 207.589 56.59C207.849 56.43 208.049 56.2 208.189 55.9L209.617 56.332C209.369 56.916 208.985 57.37 208.465 57.694C207.949 58.018 207.379 58.18 206.755 58.18ZM204.523 55.162V54.07H208.981V55.162H204.523ZM213.966 58.18C213.334 58.18 212.804 58.03 212.376 57.73C211.948 57.43 211.626 57.022 211.41 56.506C211.194 55.986 211.086 55.404 211.086 54.76C211.086 54.108 211.194 53.524 211.41 53.008C211.626 52.492 211.942 52.086 212.358 51.79C212.778 51.49 213.296 51.34 213.912 51.34C214.524 51.34 215.054 51.49 215.502 51.79C215.954 52.086 216.304 52.492 216.552 53.008C216.8 53.52 216.924 54.104 216.924 54.76C216.924 55.408 216.802 55.99 216.558 56.506C216.314 57.022 215.97 57.43 215.526 57.73C215.082 58.03 214.562 58.18 213.966 58.18ZM210.84 60.88V51.52H212.118V56.068H212.298V60.88H210.84ZM213.744 56.884C214.12 56.884 214.43 56.79 214.674 56.602C214.918 56.414 215.098 56.16 215.214 55.84C215.334 55.516 215.394 55.156 215.394 54.76C215.394 54.368 215.334 54.012 215.214 53.692C215.094 53.368 214.908 53.112 214.656 52.924C214.404 52.732 214.084 52.636 213.696 52.636C213.328 52.636 213.028 52.726 212.796 52.906C212.564 53.082 212.392 53.33 212.28 53.65C212.172 53.966 212.118 54.336 212.118 54.76C212.118 55.18 212.172 55.55 212.28 55.87C212.392 56.19 212.566 56.44 212.802 56.62C213.042 56.796 213.356 56.884 213.744 56.884ZM223.121 58.162C222.689 58.162 222.281 58.078 221.897 57.91C221.513 57.742 221.179 57.504 220.895 57.196C220.615 56.888 220.413 56.524 220.289 56.104L221.687 55.726C221.787 56.07 221.969 56.336 222.233 56.524C222.501 56.708 222.795 56.798 223.115 56.794C223.399 56.794 223.653 56.728 223.877 56.596C224.101 56.464 224.277 56.286 224.405 56.062C224.533 55.834 224.597 55.58 224.597 55.3C224.597 54.872 224.459 54.514 224.183 54.226C223.907 53.938 223.551 53.794 223.115 53.794C222.983 53.794 222.853 53.812 222.725 53.848C222.601 53.884 222.481 53.934 222.365 53.998L221.705 52.858L224.609 50.374L224.735 50.722H220.625V49.36H225.923V50.728L223.589 52.972L223.577 52.546C224.101 52.582 224.547 52.728 224.915 52.984C225.287 53.24 225.571 53.57 225.767 53.974C225.967 54.378 226.067 54.82 226.067 55.3C226.067 55.844 225.933 56.332 225.665 56.764C225.401 57.196 225.045 57.538 224.597 57.79C224.153 58.038 223.661 58.162 223.121 58.162Z" fill="#D7D7D7"/>
<path d="M239.547 42H169.126C169.102 42 169.079 41.9938 169.06 41.982C169.04 41.9703 169.024 41.9535 169.013 41.9335C169.003 41.9135 168.998 41.8911 169.001 41.8689C169.003 41.8466 169.011 41.8253 169.025 41.8074L184.499 22.0937C184.629 21.9223 184.699 21.7159 184.699 21.504C184.699 21.2921 184.629 21.0857 184.499 20.9143L169.025 1.19257C169.011 1.17469 169.003 1.15342 169.001 1.13116C168.998 1.1089 169.003 1.08652 169.013 1.06653C169.024 1.04654 169.04 1.02972 169.06 1.01797C169.079 1.00622 169.102 1 169.126 1H239.547C239.763 1.00155 239.976 1.05085 240.169 1.14409C240.362 1.23732 240.53 1.37197 240.66 1.53757L255.724 20.6977C255.903 20.9298 256 21.2111 256 21.5C256 21.7889 255.903 22.0702 255.724 22.3024L240.66 41.4704C240.529 41.635 240.361 41.7685 240.168 41.8604C239.975 41.9522 239.762 42 239.547 42Z" fill="#D7D7D7"/>
<path d="M193.867 18V10.8H196.842C196.912 10.8 197.002 10.8033 197.112 10.81C197.222 10.8133 197.324 10.8233 197.417 10.84C197.834 10.9033 198.177 11.0417 198.447 11.255C198.72 11.4683 198.922 11.7383 199.052 12.065C199.185 12.3883 199.252 12.7483 199.252 13.145C199.252 13.5383 199.185 13.8983 199.052 14.225C198.919 14.5483 198.715 14.8167 198.442 15.03C198.172 15.2433 197.83 15.3817 197.417 15.445C197.324 15.4583 197.22 15.4683 197.107 15.475C196.997 15.4817 196.909 15.485 196.842 15.485H195.072V18H193.867ZM195.072 14.36H196.792C196.859 14.36 196.934 14.3567 197.017 14.35C197.1 14.3433 197.177 14.33 197.247 14.31C197.447 14.26 197.604 14.1717 197.717 14.045C197.834 13.9183 197.915 13.775 197.962 13.615C198.012 13.455 198.037 13.2983 198.037 13.145C198.037 12.9917 198.012 12.835 197.962 12.675C197.915 12.5117 197.834 12.3667 197.717 12.24C197.604 12.1133 197.447 12.025 197.247 11.975C197.177 11.955 197.1 11.9433 197.017 11.94C196.934 11.9333 196.859 11.93 196.792 11.93H195.072V14.36ZM201.627 18.15C201.237 18.15 200.907 18.0767 200.637 17.93C200.367 17.78 200.162 17.5817 200.022 17.335C199.885 17.0883 199.817 16.8167 199.817 16.52C199.817 16.26 199.86 16.0267 199.947 15.82C200.034 15.61 200.167 15.43 200.347 15.28C200.527 15.1267 200.76 15.0017 201.047 14.905C201.264 14.835 201.517 14.7717 201.807 14.715C202.1 14.6583 202.417 14.6067 202.757 14.56C203.1 14.51 203.459 14.4567 203.832 14.4L203.402 14.645C203.405 14.2717 203.322 13.9967 203.152 13.82C202.982 13.6433 202.695 13.555 202.292 13.555C202.049 13.555 201.814 13.6117 201.587 13.725C201.36 13.8383 201.202 14.0333 201.112 14.31L200.012 13.965C200.145 13.5083 200.399 13.1417 200.772 12.865C201.149 12.5883 201.655 12.45 202.292 12.45C202.772 12.45 203.194 12.5283 203.557 12.685C203.924 12.8417 204.195 13.0983 204.372 13.455C204.469 13.645 204.527 13.84 204.547 14.04C204.567 14.2367 204.577 14.4517 204.577 14.685V18H203.522V16.83L203.697 17.02C203.454 17.41 203.169 17.6967 202.842 17.88C202.519 18.06 202.114 18.15 201.627 18.15ZM201.867 17.19C202.14 17.19 202.374 17.1417 202.567 17.045C202.76 16.9483 202.914 16.83 203.027 16.69C203.144 16.55 203.222 16.4183 203.262 16.295C203.325 16.1417 203.36 15.9667 203.367 15.77C203.377 15.57 203.382 15.4083 203.382 15.285L203.752 15.395C203.389 15.4517 203.077 15.5017 202.817 15.545C202.557 15.5883 202.334 15.63 202.147 15.67C201.96 15.7067 201.795 15.7483 201.652 15.795C201.512 15.845 201.394 15.9033 201.297 15.97C201.2 16.0367 201.125 16.1133 201.072 16.2C201.022 16.2867 200.997 16.3883 200.997 16.505C200.997 16.6383 201.03 16.7567 201.097 16.86C201.164 16.96 201.26 17.04 201.387 17.1C201.517 17.16 201.677 17.19 201.867 17.19ZM206.286 20.4L207.326 17.545L207.346 18.385L204.991 12.6H206.246L207.916 16.88H207.596L209.221 12.6H210.426L207.416 20.4H206.286ZM217.657 18V14.72C217.657 14.35 217.565 14.0617 217.382 13.855C217.198 13.645 216.95 13.54 216.637 13.54C216.443 13.54 216.27 13.585 216.117 13.675C215.963 13.7617 215.842 13.8917 215.752 14.065C215.662 14.235 215.617 14.4383 215.617 14.675L215.082 14.36C215.078 13.9867 215.162 13.6583 215.332 13.375C215.505 13.0883 215.738 12.865 216.032 12.705C216.325 12.545 216.652 12.465 217.012 12.465C217.608 12.465 218.065 12.645 218.382 13.005C218.702 13.3617 218.862 13.8317 218.862 14.415V18H217.657ZM211.162 18V12.6H212.227V14.275H212.377V18H211.162ZM214.417 18V14.735C214.417 14.3583 214.325 14.065 214.142 13.855C213.958 13.645 213.708 13.54 213.392 13.54C213.085 13.54 212.838 13.645 212.652 13.855C212.468 14.065 212.377 14.3383 212.377 14.675L211.837 14.315C211.837 13.965 211.923 13.65 212.097 13.37C212.27 13.09 212.503 12.87 212.797 12.71C213.093 12.5467 213.425 12.465 213.792 12.465C214.195 12.465 214.532 12.5517 214.802 12.725C215.075 12.895 215.278 13.1283 215.412 13.425C215.548 13.7183 215.617 14.05 215.617 14.42V18H214.417ZM222.533 18.15C221.986 18.15 221.506 18.0317 221.093 17.795C220.68 17.5583 220.356 17.23 220.123 16.81C219.893 16.39 219.778 15.9067 219.778 15.36C219.778 14.77 219.891 14.2583 220.118 13.825C220.345 13.3883 220.66 13.05 221.063 12.81C221.466 12.57 221.933 12.45 222.463 12.45C223.023 12.45 223.498 12.5817 223.888 12.845C224.281 13.105 224.573 13.4733 224.763 13.95C224.953 14.4267 225.025 14.9883 224.978 15.635H223.783V15.195C223.78 14.6083 223.676 14.18 223.473 13.91C223.27 13.64 222.95 13.505 222.513 13.505C222.02 13.505 221.653 13.6583 221.413 13.965C221.173 14.2683 221.053 14.7133 221.053 15.3C221.053 15.8467 221.173 16.27 221.413 16.57C221.653 16.87 222.003 17.02 222.463 17.02C222.76 17.02 223.015 16.955 223.228 16.825C223.445 16.6917 223.611 16.5 223.728 16.25L224.918 16.61C224.711 17.0967 224.391 17.475 223.958 17.745C223.528 18.015 223.053 18.15 222.533 18.15ZM220.673 15.635V14.725H224.388V15.635H220.673ZM229.682 18V15.4C229.682 15.23 229.67 15.0417 229.647 14.835C229.624 14.6283 229.569 14.43 229.482 14.24C229.399 14.0467 229.272 13.8883 229.102 13.765C228.935 13.6417 228.709 13.58 228.422 13.58C228.269 13.58 228.117 13.605 227.967 13.655C227.817 13.705 227.68 13.7917 227.557 13.915C227.437 14.035 227.34 14.2017 227.267 14.415C227.194 14.625 227.157 14.895 227.157 15.225L226.442 14.92C226.442 14.46 226.53 14.0433 226.707 13.67C226.887 13.2967 227.15 13 227.497 12.78C227.844 12.5567 228.27 12.445 228.777 12.445C229.177 12.445 229.507 12.5117 229.767 12.645C230.027 12.7783 230.234 12.9483 230.387 13.155C230.54 13.3617 230.654 13.5817 230.727 13.815C230.8 14.0483 230.847 14.27 230.867 14.48C230.89 14.6867 230.902 14.855 230.902 14.985V18H229.682ZM225.937 18V12.6H227.012V14.275H227.157V18H225.937ZM235.372 18C235.015 18.0667 234.665 18.095 234.322 18.085C233.982 18.0783 233.677 18.0167 233.407 17.9C233.137 17.78 232.932 17.5917 232.792 17.335C232.669 17.1017 232.604 16.8633 232.597 16.62C232.59 16.3767 232.587 16.1017 232.587 15.795V11.1H233.787V15.725C233.787 15.9417 233.789 16.1317 233.792 16.295C233.799 16.4583 233.834 16.5917 233.897 16.695C234.017 16.895 234.209 17.0067 234.472 17.03C234.735 17.0533 235.035 17.04 235.372 16.99V18ZM231.607 13.545V12.6H235.372V13.545H231.607ZM196.445 32V24.8H197.53L200.02 29.9L202.51 24.8H203.595V32H202.47V27.385L200.26 32H199.78L197.575 27.385V32H196.445ZM207.455 32.15C206.908 32.15 206.428 32.0317 206.015 31.795C205.601 31.5583 205.278 31.23 205.045 30.81C204.815 30.39 204.7 29.9067 204.7 29.36C204.7 28.77 204.813 28.2583 205.04 27.825C205.266 27.3883 205.581 27.05 205.985 26.81C206.388 26.57 206.855 26.45 207.385 26.45C207.945 26.45 208.42 26.5817 208.81 26.845C209.203 27.105 209.495 27.4733 209.685 27.95C209.875 28.4267 209.946 28.9883 209.9 29.635H208.705V29.195C208.701 28.6083 208.598 28.18 208.395 27.91C208.191 27.64 207.871 27.505 207.435 27.505C206.941 27.505 206.575 27.6583 206.335 27.965C206.095 28.2683 205.975 28.7133 205.975 29.3C205.975 29.8467 206.095 30.27 206.335 30.57C206.575 30.87 206.925 31.02 207.385 31.02C207.681 31.02 207.936 30.955 208.15 30.825C208.366 30.6917 208.533 30.5 208.65 30.25L209.84 30.61C209.633 31.0967 209.313 31.475 208.88 31.745C208.45 32.015 207.975 32.15 207.455 32.15ZM205.595 29.635V28.725H209.31V29.635H205.595ZM214.18 32C213.824 32.0667 213.474 32.095 213.13 32.085C212.79 32.0783 212.485 32.0167 212.215 31.9C211.945 31.78 211.74 31.5917 211.6 31.335C211.477 31.1017 211.412 30.8633 211.405 30.62C211.399 30.3767 211.395 30.1017 211.395 29.795V25.1H212.595V29.725C212.595 29.9417 212.597 30.1317 212.6 30.295C212.607 30.4583 212.642 30.5917 212.705 30.695C212.825 30.895 213.017 31.0067 213.28 31.03C213.544 31.0533 213.844 31.04 214.18 30.99V32ZM210.415 27.545V26.6H214.18V27.545H210.415ZM219.077 32V29.4C219.077 29.23 219.065 29.0417 219.042 28.835C219.018 28.6283 218.963 28.43 218.877 28.24C218.793 28.0467 218.667 27.8883 218.497 27.765C218.33 27.6417 218.103 27.58 217.817 27.58C217.663 27.58 217.512 27.605 217.362 27.655C217.212 27.705 217.075 27.7917 216.952 27.915C216.832 28.035 216.735 28.2017 216.662 28.415C216.588 28.625 216.552 28.895 216.552 29.225L215.837 28.92C215.837 28.46 215.925 28.0433 216.102 27.67C216.282 27.2967 216.545 27 216.892 26.78C217.238 26.5567 217.665 26.445 218.172 26.445C218.572 26.445 218.902 26.5117 219.162 26.645C219.422 26.7783 219.628 26.9483 219.782 27.155C219.935 27.3617 220.048 27.5817 220.122 27.815C220.195 28.0483 220.242 28.27 220.262 28.48C220.285 28.6867 220.297 28.855 220.297 28.985V32H219.077ZM215.332 32V24.8H216.407V28.59H216.552V32H215.332ZM223.986 32.15C223.446 32.15 222.975 32.0283 222.571 31.785C222.168 31.5417 221.855 31.2067 221.631 30.78C221.411 30.35 221.301 29.8567 221.301 29.3C221.301 28.7333 221.415 28.2367 221.641 27.81C221.868 27.3833 222.183 27.05 222.586 26.81C222.99 26.57 223.456 26.45 223.986 26.45C224.53 26.45 225.003 26.5717 225.406 26.815C225.81 27.0583 226.123 27.395 226.346 27.825C226.57 28.2517 226.681 28.7433 226.681 29.3C226.681 29.86 226.568 30.355 226.341 30.785C226.118 31.2117 225.805 31.5467 225.401 31.79C224.998 32.03 224.526 32.15 223.986 32.15ZM223.986 31.02C224.466 31.02 224.823 30.86 225.056 30.54C225.29 30.22 225.406 29.8067 225.406 29.3C225.406 28.7767 225.288 28.36 225.051 28.05C224.815 27.7367 224.46 27.58 223.986 27.58C223.663 27.58 223.396 27.6533 223.186 27.8C222.98 27.9433 222.826 28.145 222.726 28.405C222.626 28.6617 222.576 28.96 222.576 29.3C222.576 29.8233 222.695 30.2417 222.931 30.555C223.171 30.865 223.523 31.02 223.986 31.02ZM229.948 32.15C229.451 32.15 229.018 32.025 228.648 31.775C228.278 31.525 227.991 31.185 227.788 30.755C227.585 30.325 227.483 29.84 227.483 29.3C227.483 28.7533 227.585 28.2667 227.788 27.84C227.995 27.41 228.286 27.0717 228.663 26.825C229.04 26.575 229.483 26.45 229.993 26.45C230.506 26.45 230.936 26.575 231.283 26.825C231.633 27.0717 231.898 27.41 232.078 27.84C232.258 28.27 232.348 28.7567 232.348 29.3C232.348 29.8367 232.258 30.3217 232.078 30.755C231.898 31.185 231.63 31.525 231.273 31.775C230.916 32.025 230.475 32.15 229.948 32.15ZM230.133 31.07C230.456 31.07 230.716 30.9967 230.913 30.85C231.113 30.7 231.258 30.4917 231.348 30.225C231.441 29.9583 231.488 29.65 231.488 29.3C231.488 28.9467 231.441 28.6383 231.348 28.375C231.258 28.1083 231.116 27.9017 230.923 27.755C230.73 27.605 230.48 27.53 230.173 27.53C229.85 27.53 229.583 27.61 229.373 27.77C229.163 27.9267 229.008 28.14 228.908 28.41C228.808 28.6767 228.758 28.9733 228.758 29.3C228.758 29.63 228.806 29.93 228.903 30.2C229.003 30.4667 229.155 30.6783 229.358 30.835C229.561 30.9917 229.82 31.07 230.133 31.07ZM231.488 32V28.21H231.338V24.8H232.553V32H231.488Z" fill="white"/>
<path d="M157.547 41.5H87.9021L102.893 22.4025L102.893 22.4025L102.898 22.3958C103.092 22.1389 103.199 21.8267 103.199 21.504C103.199 21.1813 103.092 20.8691 102.898 20.6122L102.898 20.6121L102.893 20.6056L87.9019 1.5H157.545C157.687 1.50125 157.826 1.53382 157.951 1.59432L158.169 1.14409L157.951 1.59433C158.077 1.65502 158.184 1.74173 158.266 1.84623L158.267 1.84661L173.328 21.0034C173.329 21.0039 173.329 21.0045 173.329 21.005C173.441 21.1508 173.5 21.3243 173.5 21.5C173.5 21.6758 173.441 21.8493 173.329 21.995C173.329 21.9956 173.329 21.9961 173.328 21.9966L158.268 41.16C158.268 41.1603 158.267 41.1605 158.267 41.1608C158.185 41.264 158.078 41.3494 157.953 41.4089C157.828 41.4685 157.689 41.5 157.547 41.5Z" fill="#3578DB" stroke="#3578DB"/>
<path d="M108.169 58.18C107.537 58.18 106.967 58.07 106.459 57.85C105.955 57.63 105.539 57.316 105.211 56.908C104.887 56.496 104.681 56.008 104.593 55.444L106.093 55.216C106.221 55.728 106.483 56.124 106.879 56.404C107.279 56.684 107.739 56.824 108.259 56.824C108.567 56.824 108.857 56.776 109.129 56.68C109.401 56.584 109.621 56.444 109.789 56.26C109.961 56.076 110.047 55.85 110.047 55.582C110.047 55.462 110.027 55.352 109.987 55.252C109.947 55.148 109.887 55.056 109.807 54.976C109.731 54.896 109.631 54.824 109.507 54.76C109.387 54.692 109.247 54.634 109.087 54.586L106.855 53.926C106.663 53.87 106.455 53.796 106.231 53.704C106.011 53.608 105.801 53.478 105.601 53.314C105.405 53.146 105.243 52.934 105.115 52.678C104.991 52.418 104.929 52.098 104.929 51.718C104.929 51.162 105.069 50.696 105.349 50.32C105.633 49.94 106.013 49.656 106.489 49.468C106.969 49.28 107.501 49.188 108.085 49.192C108.677 49.196 109.205 49.298 109.669 49.498C110.133 49.694 110.521 49.98 110.833 50.356C111.145 50.732 111.365 51.186 111.493 51.718L109.939 51.988C109.875 51.684 109.751 51.426 109.567 51.214C109.387 50.998 109.165 50.834 108.901 50.722C108.641 50.61 108.363 50.55 108.067 50.542C107.779 50.538 107.511 50.582 107.263 50.674C107.019 50.762 106.821 50.89 106.669 51.058C106.521 51.226 106.447 51.422 106.447 51.646C106.447 51.858 106.511 52.032 106.639 52.168C106.767 52.3 106.925 52.406 107.113 52.486C107.305 52.562 107.499 52.626 107.695 52.678L109.243 53.11C109.455 53.166 109.693 53.242 109.957 53.338C110.221 53.434 110.475 53.568 110.719 53.74C110.963 53.912 111.163 54.138 111.319 54.418C111.479 54.698 111.559 55.054 111.559 55.486C111.559 55.934 111.465 56.328 111.277 56.668C111.093 57.004 110.843 57.284 110.527 57.508C110.211 57.732 109.849 57.9 109.441 58.012C109.037 58.124 108.613 58.18 108.169 58.18ZM116.656 58C116.228 58.08 115.808 58.114 115.396 58.102C114.988 58.094 114.622 58.02 114.298 57.88C113.974 57.736 113.728 57.51 113.56 57.202C113.412 56.922 113.334 56.636 113.326 56.344C113.318 56.052 113.314 55.722 113.314 55.354V49.72H114.754V55.27C114.754 55.53 114.756 55.758 114.76 55.954C114.768 56.15 114.81 56.31 114.886 56.434C115.03 56.674 115.26 56.808 115.576 56.836C115.892 56.864 116.252 56.848 116.656 56.788V58ZM112.138 52.654V51.52H116.656V52.654H112.138ZM120.667 58.18C120.011 58.18 119.435 58.038 118.939 57.754C118.443 57.47 118.055 57.076 117.775 56.572C117.499 56.068 117.361 55.488 117.361 54.832C117.361 54.124 117.497 53.51 117.769 52.99C118.041 52.466 118.419 52.06 118.903 51.772C119.387 51.484 119.947 51.34 120.583 51.34C121.255 51.34 121.825 51.498 122.293 51.814C122.765 52.126 123.115 52.568 123.343 53.14C123.571 53.712 123.657 54.386 123.601 55.162H122.167V54.634C122.163 53.93 122.039 53.416 121.795 53.092C121.551 52.768 121.167 52.606 120.643 52.606C120.051 52.606 119.611 52.79 119.323 53.158C119.035 53.522 118.891 54.056 118.891 54.76C118.891 55.416 119.035 55.924 119.323 56.284C119.611 56.644 120.031 56.824 120.583 56.824C120.939 56.824 121.245 56.746 121.501 56.59C121.761 56.43 121.961 56.2 122.101 55.9L123.529 56.332C123.281 56.916 122.897 57.37 122.377 57.694C121.861 58.018 121.291 58.18 120.667 58.18ZM118.435 55.162V54.07H122.893V55.162H118.435ZM127.878 58.18C127.246 58.18 126.716 58.03 126.288 57.73C125.86 57.43 125.538 57.022 125.322 56.506C125.106 55.986 124.998 55.404 124.998 54.76C124.998 54.108 125.106 53.524 125.322 53.008C125.538 52.492 125.854 52.086 126.27 51.79C126.69 51.49 127.208 51.34 127.824 51.34C128.436 51.34 128.966 51.49 129.414 51.79C129.866 52.086 130.216 52.492 130.464 53.008C130.712 53.52 130.836 54.104 130.836 54.76C130.836 55.408 130.714 55.99 130.47 56.506C130.226 57.022 129.882 57.43 129.438 57.73C128.994 58.03 128.474 58.18 127.878 58.18ZM124.752 60.88V51.52H126.03V56.068H126.21V60.88H124.752ZM127.656 56.884C128.032 56.884 128.342 56.79 128.586 56.602C128.83 56.414 129.01 56.16 129.126 55.84C129.246 55.516 129.306 55.156 129.306 54.76C129.306 54.368 129.246 54.012 129.126 53.692C129.006 53.368 128.82 53.112 128.568 52.924C128.316 52.732 127.996 52.636 127.608 52.636C127.24 52.636 126.94 52.726 126.708 52.906C126.476 53.082 126.304 53.33 126.192 53.65C126.084 53.966 126.03 54.336 126.03 54.76C126.03 55.18 126.084 55.55 126.192 55.87C126.304 56.19 126.478 56.44 126.714 56.62C126.954 56.796 127.268 56.884 127.656 56.884ZM134.321 57.988V56.728L138.017 53.434C138.305 53.178 138.505 52.936 138.617 52.708C138.729 52.48 138.785 52.26 138.785 52.048C138.785 51.76 138.723 51.504 138.599 51.28C138.475 51.052 138.303 50.872 138.083 50.74C137.867 50.608 137.617 50.542 137.333 50.542C137.033 50.542 136.767 50.612 136.535 50.752C136.307 50.888 136.129 51.07 136.001 51.298C135.873 51.526 135.813 51.772 135.821 52.036H134.333C134.333 51.46 134.461 50.958 134.717 50.53C134.977 50.102 135.333 49.77 135.785 49.534C136.241 49.298 136.767 49.18 137.363 49.18C137.915 49.18 138.411 49.304 138.851 49.552C139.291 49.796 139.637 50.136 139.889 50.572C140.141 51.004 140.267 51.502 140.267 52.066C140.267 52.478 140.211 52.824 140.099 53.104C139.987 53.384 139.819 53.642 139.595 53.878C139.375 54.114 139.101 54.376 138.773 54.664L136.151 56.986L136.019 56.626H140.267V57.988H134.321Z" fill="#3578DB"/>
<path d="M119.113 18V10.8H123.763V11.93H120.318V13.705H123.163V14.835H120.318V16.87H123.763V18H119.113ZM128.698 18V15.4C128.698 15.23 128.686 15.0417 128.663 14.835C128.639 14.6283 128.584 14.43 128.498 14.24C128.414 14.0467 128.288 13.8883 128.118 13.765C127.951 13.6417 127.724 13.58 127.438 13.58C127.284 13.58 127.133 13.605 126.983 13.655C126.833 13.705 126.696 13.7917 126.573 13.915C126.453 14.035 126.356 14.2017 126.283 14.415C126.209 14.625 126.173 14.895 126.173 15.225L125.458 14.92C125.458 14.46 125.546 14.0433 125.723 13.67C125.903 13.2967 126.166 13 126.513 12.78C126.859 12.5567 127.286 12.445 127.793 12.445C128.193 12.445 128.523 12.5117 128.783 12.645C129.043 12.7783 129.249 12.9483 129.403 13.155C129.556 13.3617 129.669 13.5817 129.743 13.815C129.816 14.0483 129.863 14.27 129.883 14.48C129.906 14.6867 129.918 14.855 129.918 14.985V18H128.698ZM124.953 18V12.6H126.028V14.275H126.173V18H124.953ZM134.387 18C134.031 18.0667 133.681 18.095 133.337 18.085C132.997 18.0783 132.692 18.0167 132.422 17.9C132.152 17.78 131.947 17.5917 131.807 17.335C131.684 17.1017 131.619 16.8633 131.612 16.62C131.606 16.3767 131.602 16.1017 131.602 15.795V11.1H132.802V15.725C132.802 15.9417 132.804 16.1317 132.807 16.295C132.814 16.4583 132.849 16.5917 132.912 16.695C133.032 16.895 133.224 17.0067 133.487 17.03C133.751 17.0533 134.051 17.04 134.387 16.99V18ZM130.622 13.545V12.6H134.387V13.545H130.622ZM137.73 18.15C137.184 18.15 136.704 18.0317 136.29 17.795C135.877 17.5583 135.554 17.23 135.32 16.81C135.09 16.39 134.975 15.9067 134.975 15.36C134.975 14.77 135.089 14.2583 135.315 13.825C135.542 13.3883 135.857 13.05 136.26 12.81C136.664 12.57 137.13 12.45 137.66 12.45C138.22 12.45 138.695 12.5817 139.085 12.845C139.479 13.105 139.77 13.4733 139.96 13.95C140.15 14.4267 140.222 14.9883 140.175 15.635H138.98V15.195C138.977 14.6083 138.874 14.18 138.67 13.91C138.467 13.64 138.147 13.505 137.71 13.505C137.217 13.505 136.85 13.6583 136.61 13.965C136.37 14.2683 136.25 14.7133 136.25 15.3C136.25 15.8467 136.37 16.27 136.61 16.57C136.85 16.87 137.2 17.02 137.66 17.02C137.957 17.02 138.212 16.955 138.425 16.825C138.642 16.6917 138.809 16.5 138.925 16.25L140.115 16.61C139.909 17.0967 139.589 17.475 139.155 17.745C138.725 18.015 138.25 18.15 137.73 18.15ZM135.87 15.635V14.725H139.585V15.635H135.87ZM141.291 18V12.6H142.356V13.915L142.226 13.745C142.292 13.565 142.381 13.4017 142.491 13.255C142.604 13.105 142.739 12.9817 142.896 12.885C143.029 12.795 143.176 12.725 143.336 12.675C143.499 12.6217 143.666 12.59 143.836 12.58C144.006 12.5667 144.171 12.5733 144.331 12.6V13.725C144.171 13.6783 143.986 13.6633 143.776 13.68C143.569 13.6967 143.382 13.755 143.216 13.855C143.049 13.945 142.912 14.06 142.806 14.2C142.702 14.34 142.626 14.5 142.576 14.68C142.526 14.8567 142.501 15.0483 142.501 15.255V18H141.291ZM108.796 32V24.8H111.651C112.137 24.8 112.536 24.8983 112.846 25.095C113.159 25.2883 113.391 25.5367 113.541 25.84C113.694 26.1433 113.771 26.4567 113.771 26.78C113.771 27.1767 113.676 27.5133 113.486 27.79C113.299 28.0667 113.044 28.2533 112.721 28.35V28.1C113.174 28.2033 113.517 28.4183 113.751 28.745C113.987 29.0717 114.106 29.4433 114.106 29.86C114.106 30.2867 114.024 30.66 113.861 30.98C113.697 31.3 113.454 31.55 113.131 31.73C112.811 31.91 112.414 32 111.941 32H108.796ZM110.016 30.865H111.791C112.001 30.865 112.189 30.8233 112.356 30.74C112.522 30.6533 112.652 30.5333 112.746 30.38C112.842 30.2233 112.891 30.0383 112.891 29.825C112.891 29.6317 112.849 29.4583 112.766 29.305C112.682 29.1517 112.561 29.03 112.401 28.94C112.241 28.8467 112.049 28.8 111.826 28.8H110.016V30.865ZM110.016 27.675H111.636C111.809 27.675 111.964 27.6417 112.101 27.575C112.237 27.5083 112.346 27.41 112.426 27.28C112.506 27.15 112.546 26.99 112.546 26.8C112.546 26.55 112.466 26.3417 112.306 26.175C112.146 26.0083 111.922 25.925 111.636 25.925H110.016V27.675ZM117.129 32.155C116.729 32.155 116.399 32.0883 116.139 31.955C115.879 31.8217 115.673 31.6517 115.519 31.445C115.366 31.2383 115.253 31.0183 115.179 30.785C115.106 30.5517 115.058 30.3317 115.034 30.125C115.014 29.915 115.004 29.745 115.004 29.615V26.6H116.224V29.2C116.224 29.3667 116.236 29.555 116.259 29.765C116.283 29.9717 116.336 30.1717 116.419 30.365C116.506 30.555 116.633 30.7117 116.799 30.835C116.969 30.9583 117.198 31.02 117.484 31.02C117.638 31.02 117.789 30.995 117.939 30.945C118.089 30.895 118.224 30.81 118.344 30.69C118.468 30.5667 118.566 30.3983 118.639 30.185C118.713 29.9717 118.749 29.7017 118.749 29.375L119.464 29.68C119.464 30.14 119.374 30.5567 119.194 30.93C119.018 31.3033 118.756 31.6017 118.409 31.825C118.063 32.045 117.636 32.155 117.129 32.155ZM118.894 32V30.325H118.749V26.6H119.959V32H118.894ZM122.074 34.4L123.114 31.545L123.134 32.385L120.779 26.6H122.034L123.704 30.88H123.384L125.009 26.6H126.214L123.204 34.4H122.074ZM129.219 32.15C128.673 32.15 128.193 32.0317 127.779 31.795C127.366 31.5583 127.043 31.23 126.809 30.81C126.579 30.39 126.464 29.9067 126.464 29.36C126.464 28.77 126.578 28.2583 126.804 27.825C127.031 27.3883 127.346 27.05 127.749 26.81C128.153 26.57 128.619 26.45 129.149 26.45C129.709 26.45 130.184 26.5817 130.574 26.845C130.968 27.105 131.259 27.4733 131.449 27.95C131.639 28.4267 131.711 28.9883 131.664 29.635H130.469V29.195C130.466 28.6083 130.363 28.18 130.159 27.91C129.956 27.64 129.636 27.505 129.199 27.505C128.706 27.505 128.339 27.6583 128.099 27.965C127.859 28.2683 127.739 28.7133 127.739 29.3C127.739 29.8467 127.859 30.27 128.099 30.57C128.339 30.87 128.689 31.02 129.149 31.02C129.446 31.02 129.701 30.955 129.914 30.825C130.131 30.6917 130.298 30.5 130.414 30.25L131.604 30.61C131.398 31.0967 131.078 31.475 130.644 31.745C130.214 32.015 129.739 32.15 129.219 32.15ZM127.359 29.635V28.725H131.074V29.635H127.359ZM132.78 32V26.6H133.845V27.915L133.715 27.745C133.782 27.565 133.87 27.4017 133.98 27.255C134.093 27.105 134.228 26.9817 134.385 26.885C134.518 26.795 134.665 26.725 134.825 26.675C134.988 26.6217 135.155 26.59 135.325 26.58C135.495 26.5667 135.66 26.5733 135.82 26.6V27.725C135.66 27.6783 135.475 27.6633 135.265 27.68C135.058 27.6967 134.872 27.755 134.705 27.855C134.538 27.945 134.402 28.06 134.295 28.2C134.192 28.34 134.115 28.5 134.065 28.68C134.015 28.8567 133.99 29.0483 133.99 29.255V32H132.78ZM138.876 32V24.8H140.081V32H138.876ZM145.314 32V29.4C145.314 29.23 145.302 29.0417 145.279 28.835C145.256 28.6283 145.201 28.43 145.114 28.24C145.031 28.0467 144.904 27.8883 144.734 27.765C144.567 27.6417 144.341 27.58 144.054 27.58C143.901 27.58 143.749 27.605 143.599 27.655C143.449 27.705 143.312 27.7917 143.189 27.915C143.069 28.035 142.972 28.2017 142.899 28.415C142.826 28.625 142.789 28.895 142.789 29.225L142.074 28.92C142.074 28.46 142.162 28.0433 142.339 27.67C142.519 27.2967 142.782 27 143.129 26.78C143.476 26.5567 143.902 26.445 144.409 26.445C144.809 26.445 145.139 26.5117 145.399 26.645C145.659 26.7783 145.866 26.9483 146.019 27.155C146.172 27.3617 146.286 27.5817 146.359 27.815C146.432 28.0483 146.479 28.27 146.499 28.48C146.522 28.6867 146.534 28.855 146.534 28.985V32H145.314ZM141.569 32V26.6H142.644V28.275H142.789V32H141.569ZM148.309 32V26.515C148.309 26.3783 148.314 26.2283 148.324 26.065C148.334 25.8983 148.362 25.7333 148.409 25.57C148.455 25.4067 148.54 25.2583 148.664 25.125C148.817 24.955 148.982 24.8383 149.159 24.775C149.339 24.7083 149.515 24.6717 149.689 24.665C149.862 24.655 150.014 24.65 150.144 24.65H150.819V25.63H150.194C149.964 25.63 149.792 25.6883 149.679 25.805C149.569 25.9183 149.514 26.0683 149.514 26.255V32H148.309ZM147.439 27.545V26.6H150.819V27.545H147.439ZM153.808 32.15C153.268 32.15 152.796 32.0283 152.393 31.785C151.989 31.5417 151.676 31.2067 151.453 30.78C151.233 30.35 151.123 29.8567 151.123 29.3C151.123 28.7333 151.236 28.2367 151.463 27.81C151.689 27.3833 152.004 27.05 152.408 26.81C152.811 26.57 153.278 26.45 153.808 26.45C154.351 26.45 154.824 26.5717 155.228 26.815C155.631 27.0583 155.944 27.395 156.168 27.825C156.391 28.2517 156.503 28.7433 156.503 29.3C156.503 29.86 156.389 30.355 156.163 30.785C155.939 31.2117 155.626 31.5467 155.223 31.79C154.819 32.03 154.348 32.15 153.808 32.15ZM153.808 31.02C154.288 31.02 154.644 30.86 154.878 30.54C155.111 30.22 155.228 29.8067 155.228 29.3C155.228 28.7767 155.109 28.36 154.873 28.05C154.636 27.7367 154.281 27.58 153.808 27.58C153.484 27.58 153.218 27.6533 153.008 27.8C152.801 27.9433 152.648 28.145 152.548 28.405C152.448 28.6617 152.398 28.96 152.398 29.3C152.398 29.8233 152.516 30.2417 152.753 30.555C152.993 30.865 153.344 31.02 153.808 31.02Z" fill="white"/>
<circle cx="61" cy="53" r="5.5" stroke="#3578DB"/>
<circle cx="61" cy="53" r="4" fill="#3578DB"/>
<circle cx="61" cy="53" r="4" fill="#3578DB"/>
<path d="M58.692 53.4734C58.571 53.683 58.6428 53.9509 58.8523 54.0719L60.6101 55.0868C60.7425 55.1632 60.9115 55.1233 60.9958 54.9958L63.1533 51.7321C63.2927 51.5213 63.2255 51.2365 63.0066 51.1101C62.807 50.9949 62.5523 51.0537 62.4234 51.2448L60.5415 54.0354L59.2904 53.3131C59.0809 53.1921 58.8129 53.2639 58.692 53.4734ZM60.5767 54.0557L60.5766 54.0557C60.5766 54.0557 60.5767 54.0557 60.5767 54.0557L60.5549 54.0935L60.5767 54.0557Z" fill="white" stroke="white" stroke-width="0.3"/>
<defs>
<filter id="filter0_d_2894_5932" x="0" y="0" width="96" height="51" filterUnits="userSpaceOnUse" color-interpolation-filters="sRGB">
<feFlood flood-opacity="0" result="BackgroundImageFix"/>
<feColorMatrix in="SourceAlpha" type="matrix" values="0 0 0 0 0 0 0 0 0 0 0 0 0 0 0 0 0 0 127 0" result="hardAlpha"/>
<feOffset dy="4"/>
<feGaussianBlur stdDeviation="2.5"/>
<feComposite in2="hardAlpha" operator="out"/>
<feColorMatrix type="matrix" values="0 0 0 0 0 0 0 0 0 0 0 0 0 0 0 0 0 0 0.25 0"/>
<feBlend mode="normal" in2="BackgroundImageFix" result="effect1_dropShadow_2894_5932"/>
<feBlend mode="normal" in="SourceGraphic" in2="effect1_dropShadow_2894_5932" result="shape"/>
</filter>
</defs>
</svg>
