<svg width="353" height="55" viewBox="0 0 353 55" fill="none" xmlns="http://www.w3.org/2000/svg">
<path d="M101 16.002L248 16.002" stroke="#2AACE3" stroke-width="2"/>
<path d="M201.224 50.002V39.922H202.911V50.002H201.224ZM208.039 50.212C207.343 50.212 206.737 50.037 206.219 49.687C205.701 49.337 205.299 48.861 205.015 48.259C204.73 47.657 204.588 46.978 204.588 46.222C204.588 45.4566 204.73 44.7753 205.015 44.178C205.304 43.576 205.712 43.1023 206.24 42.757C206.767 42.407 207.388 42.232 208.102 42.232C208.82 42.232 209.422 42.407 209.908 42.757C210.398 43.1023 210.769 43.576 211.021 44.178C211.273 44.78 211.399 45.4613 211.399 46.222C211.399 46.9733 211.273 47.6523 211.021 48.259C210.769 48.861 210.393 49.337 209.894 49.687C209.394 50.037 208.776 50.212 208.039 50.212ZM208.298 48.7C208.75 48.7 209.114 48.5973 209.39 48.392C209.67 48.182 209.873 47.8903 209.999 47.517C210.129 47.1436 210.195 46.712 210.195 46.222C210.195 45.7273 210.129 45.2956 209.999 44.927C209.873 44.5536 209.674 44.2643 209.404 44.059C209.133 43.849 208.783 43.744 208.354 43.744C207.901 43.744 207.528 43.856 207.234 44.08C206.94 44.2993 206.723 44.598 206.583 44.976C206.443 45.3493 206.373 45.7646 206.373 46.222C206.373 46.684 206.44 47.104 206.576 47.482C206.716 47.8553 206.928 48.1516 207.213 48.371C207.497 48.5903 207.859 48.7 208.298 48.7ZM210.195 50.002V44.696H209.985V39.922H211.686V50.002H210.195ZM217.085 50.212C216.32 50.212 215.648 50.0463 215.069 49.715C214.491 49.3836 214.038 48.924 213.711 48.336C213.389 47.748 213.228 47.0713 213.228 46.306C213.228 45.48 213.387 44.7636 213.704 44.157C214.022 43.5456 214.463 43.072 215.027 42.736C215.592 42.4 216.245 42.232 216.987 42.232C217.771 42.232 218.436 42.4163 218.982 42.785C219.533 43.149 219.941 43.6646 220.207 44.332C220.473 44.9993 220.574 45.7856 220.508 46.691H218.835V46.075C218.831 45.2536 218.686 44.654 218.401 44.276C218.117 43.898 217.669 43.709 217.057 43.709C216.367 43.709 215.853 43.9236 215.517 44.353C215.181 44.7776 215.013 45.4006 215.013 46.222C215.013 46.9873 215.181 47.58 215.517 48C215.853 48.42 216.343 48.63 216.987 48.63C217.403 48.63 217.76 48.539 218.058 48.357C218.362 48.1703 218.595 47.902 218.758 47.552L220.424 48.056C220.135 48.7373 219.687 49.267 219.08 49.645C218.478 50.023 217.813 50.212 217.085 50.212ZM214.481 46.691V45.417H219.682V46.691H214.481ZM227.094 50.002V46.362C227.094 46.124 227.078 45.8603 227.045 45.571C227.013 45.2816 226.936 45.004 226.814 44.738C226.698 44.4673 226.52 44.2456 226.282 44.073C226.049 43.9003 225.732 43.814 225.33 43.814C225.116 43.814 224.903 43.849 224.693 43.919C224.483 43.989 224.292 44.1103 224.119 44.283C223.951 44.451 223.816 44.6843 223.713 44.983C223.611 45.277 223.559 45.655 223.559 46.117L222.558 45.69C222.558 45.046 222.682 44.4626 222.929 43.94C223.181 43.4173 223.55 43.002 224.035 42.694C224.521 42.3813 225.118 42.225 225.827 42.225C226.387 42.225 226.849 42.3183 227.213 42.505C227.577 42.6916 227.867 42.9296 228.081 43.219C228.296 43.5083 228.455 43.8163 228.557 44.143C228.66 44.4696 228.725 44.78 228.753 45.074C228.786 45.3633 228.802 45.599 228.802 45.781V50.002H227.094ZM221.851 50.002V42.442H223.356V44.787H223.559V50.002H221.851ZM235.06 50.002C234.561 50.0953 234.071 50.135 233.59 50.121C233.114 50.1116 232.687 50.0253 232.309 49.862C231.931 49.694 231.644 49.4303 231.448 49.071C231.275 48.7443 231.184 48.4106 231.175 48.07C231.166 47.7293 231.161 47.3443 231.161 46.915V40.342H232.841V46.817C232.841 47.1203 232.843 47.3863 232.848 47.615C232.857 47.8436 232.906 48.0303 232.995 48.175C233.163 48.455 233.431 48.6113 233.8 48.644C234.169 48.6766 234.589 48.658 235.06 48.588V50.002ZM229.789 43.765V42.442H235.06V43.765H229.789ZM236.826 41.294V39.747H238.513V41.294H236.826ZM236.826 50.002V42.442H238.513V50.002H236.826ZM245.04 50.002C244.541 50.0953 244.051 50.135 243.57 50.121C243.094 50.1116 242.667 50.0253 242.289 49.862C241.911 49.694 241.624 49.4303 241.428 49.071C241.256 48.7443 241.165 48.4106 241.155 48.07C241.146 47.7293 241.141 47.3443 241.141 46.915V40.342H242.821V46.817C242.821 47.1203 242.824 47.3863 242.828 47.615C242.838 47.8436 242.887 48.0303 242.975 48.175C243.143 48.455 243.412 48.6113 243.78 48.644C244.149 48.6766 244.569 48.658 245.04 48.588V50.002ZM239.769 43.765V42.442H245.04V43.765H239.769ZM247.455 53.362L248.911 49.365L248.939 50.541L245.642 42.442H247.399L249.737 48.434H249.289L251.564 42.442H253.251L249.037 53.362H247.455ZM257.098 50.002V39.922H260.311C260.395 39.922 260.56 39.9243 260.808 39.929C261.06 39.9336 261.302 39.95 261.536 39.978C262.334 40.0806 263.008 40.3653 263.559 40.832C264.114 41.294 264.534 41.8843 264.819 42.603C265.103 43.3216 265.246 44.108 265.246 44.962C265.246 45.816 265.103 46.6023 264.819 47.321C264.534 48.0396 264.114 48.6323 263.559 49.099C263.008 49.561 262.334 49.8433 261.536 49.946C261.307 49.974 261.067 49.9903 260.815 49.995C260.563 49.9996 260.395 50.002 260.311 50.002H257.098ZM258.813 48.413H260.311C260.451 48.413 260.628 48.4083 260.843 48.399C261.062 48.3896 261.256 48.3686 261.424 48.336C261.9 48.2473 262.287 48.035 262.586 47.699C262.884 47.363 263.104 46.9546 263.244 46.474C263.388 45.9933 263.461 45.4893 263.461 44.962C263.461 44.416 263.388 43.9026 263.244 43.422C263.099 42.9413 262.875 42.5376 262.572 42.211C262.273 41.8843 261.89 41.6766 261.424 41.588C261.256 41.5506 261.062 41.5296 260.843 41.525C260.628 41.5156 260.451 41.511 260.311 41.511H258.813V48.413ZM270.239 50.212C269.483 50.212 268.823 50.0416 268.258 49.701C267.694 49.3603 267.255 48.8913 266.942 48.294C266.634 47.692 266.48 47.0013 266.48 46.222C266.48 45.4286 266.639 44.7333 266.956 44.136C267.274 43.5386 267.715 43.072 268.279 42.736C268.844 42.4 269.497 42.232 270.239 42.232C271 42.232 271.663 42.4023 272.227 42.743C272.792 43.0836 273.231 43.555 273.543 44.157C273.856 44.7543 274.012 45.4426 274.012 46.222C274.012 47.006 273.854 47.699 273.536 48.301C273.224 48.8983 272.785 49.3673 272.22 49.708C271.656 50.044 270.995 50.212 270.239 50.212ZM270.239 48.63C270.911 48.63 271.411 48.406 271.737 47.958C272.064 47.51 272.227 46.9313 272.227 46.222C272.227 45.4893 272.062 44.906 271.73 44.472C271.399 44.0333 270.902 43.814 270.239 43.814C269.787 43.814 269.413 43.9166 269.119 44.122C268.83 44.3226 268.615 44.605 268.475 44.969C268.335 45.3283 268.265 45.746 268.265 46.222C268.265 46.9546 268.431 47.5403 268.762 47.979C269.098 48.413 269.591 48.63 270.239 48.63ZM278.838 50.212C278.058 50.212 277.393 50.0393 276.843 49.694C276.292 49.344 275.87 48.868 275.576 48.266C275.286 47.664 275.139 46.9826 275.135 46.222C275.139 45.4473 275.291 44.7613 275.59 44.164C275.893 43.562 276.322 43.0906 276.878 42.75C277.433 42.4046 278.093 42.232 278.859 42.232C279.717 42.232 280.443 42.449 281.036 42.883C281.633 43.3123 282.023 43.9003 282.205 44.647L280.525 45.102C280.394 44.696 280.177 44.381 279.874 44.157C279.57 43.9283 279.225 43.814 278.838 43.814C278.399 43.814 278.037 43.919 277.753 44.129C277.468 44.3343 277.258 44.619 277.123 44.983C276.987 45.347 276.92 45.76 276.92 46.222C276.92 46.9406 277.081 47.5216 277.403 47.965C277.725 48.4083 278.203 48.63 278.838 48.63C279.286 48.63 279.638 48.5273 279.895 48.322C280.156 48.1166 280.352 47.8203 280.483 47.433L282.205 47.818C281.971 48.588 281.563 49.1806 280.98 49.596C280.396 50.0066 279.682 50.212 278.838 50.212ZM286.442 50.219C285.882 50.219 285.42 50.1256 285.056 49.939C284.692 49.7523 284.403 49.5143 284.188 49.225C283.974 48.9356 283.815 48.6276 283.712 48.301C283.61 47.9743 283.542 47.6663 283.509 47.377C283.481 47.083 283.467 46.845 283.467 46.663V42.442H285.175V46.082C285.175 46.3153 285.192 46.579 285.224 46.873C285.257 47.1623 285.332 47.4423 285.448 47.713C285.57 47.979 285.747 48.1983 285.98 48.371C286.218 48.5436 286.538 48.63 286.939 48.63C287.154 48.63 287.366 48.595 287.576 48.525C287.786 48.455 287.975 48.336 288.143 48.168C288.316 47.9953 288.454 47.7596 288.556 47.461C288.659 47.1623 288.71 46.7843 288.71 46.327L289.711 46.754C289.711 47.398 289.585 47.9813 289.333 48.504C289.086 49.0266 288.72 49.4443 288.234 49.757C287.749 50.065 287.152 50.219 286.442 50.219ZM288.913 50.002V47.657H288.71V42.442H290.404V50.002H288.913ZM301.45 50.002V45.41C301.45 44.892 301.322 44.4883 301.065 44.199C300.808 43.905 300.461 43.758 300.022 43.758C299.751 43.758 299.509 43.821 299.294 43.947C299.079 44.0683 298.909 44.2503 298.783 44.493C298.657 44.731 298.594 45.0156 298.594 45.347L297.845 44.906C297.84 44.3833 297.957 43.9236 298.195 43.527C298.438 43.1256 298.764 42.813 299.175 42.589C299.586 42.365 300.043 42.253 300.547 42.253C301.382 42.253 302.022 42.505 302.465 43.009C302.913 43.5083 303.137 44.1663 303.137 44.983V50.002H301.45ZM292.357 50.002V42.442H293.848V44.787H294.058V50.002H292.357ZM296.914 50.002V45.431C296.914 44.9036 296.786 44.493 296.529 44.199C296.272 43.905 295.922 43.758 295.479 43.758C295.05 43.758 294.704 43.905 294.443 44.199C294.186 44.493 294.058 44.8756 294.058 45.347L293.302 44.843C293.302 44.353 293.423 43.912 293.666 43.52C293.909 43.128 294.235 42.82 294.646 42.596C295.061 42.3673 295.526 42.253 296.039 42.253C296.604 42.253 297.075 42.3743 297.453 42.617C297.836 42.855 298.12 43.1816 298.307 43.597C298.498 44.0076 298.594 44.472 298.594 44.99V50.002H296.914ZM308.277 50.212C307.512 50.212 306.84 50.0463 306.261 49.715C305.682 49.3836 305.23 48.924 304.903 48.336C304.581 47.748 304.42 47.0713 304.42 46.306C304.42 45.48 304.579 44.7636 304.896 44.157C305.213 43.5456 305.654 43.072 306.219 42.736C306.784 42.4 307.437 42.232 308.179 42.232C308.963 42.232 309.628 42.4163 310.174 42.785C310.725 43.149 311.133 43.6646 311.399 44.332C311.665 44.9993 311.765 45.7856 311.7 46.691H310.027V46.075C310.022 45.2536 309.878 44.654 309.593 44.276C309.308 43.898 308.86 43.709 308.249 43.709C307.558 43.709 307.045 43.9236 306.709 44.353C306.373 44.7776 306.205 45.4006 306.205 46.222C306.205 46.9873 306.373 47.58 306.709 48C307.045 48.42 307.535 48.63 308.179 48.63C308.594 48.63 308.951 48.539 309.25 48.357C309.553 48.1703 309.787 47.902 309.95 47.552L311.616 48.056C311.327 48.7373 310.879 49.267 310.272 49.645C309.67 50.023 309.005 50.212 308.277 50.212ZM305.673 46.691V45.417H310.874V46.691H305.673ZM318.286 50.002V46.362C318.286 46.124 318.269 45.8603 318.237 45.571C318.204 45.2816 318.127 45.004 318.006 44.738C317.889 44.4673 317.712 44.2456 317.474 44.073C317.24 43.9003 316.923 43.814 316.522 43.814C316.307 43.814 316.095 43.849 315.885 43.919C315.675 43.989 315.483 44.1103 315.311 44.283C315.143 44.451 315.007 44.6843 314.905 44.983C314.802 45.277 314.751 45.655 314.751 46.117L313.75 45.69C313.75 45.046 313.873 44.4626 314.121 43.94C314.373 43.4173 314.741 43.002 315.227 42.694C315.712 42.3813 316.309 42.225 317.019 42.225C317.579 42.225 318.041 42.3183 318.405 42.505C318.769 42.6916 319.058 42.9296 319.273 43.219C319.487 43.5083 319.646 43.8163 319.749 44.143C319.851 44.4696 319.917 44.78 319.945 45.074C319.977 45.3633 319.994 45.599 319.994 45.781V50.002H318.286ZM313.043 50.002V42.442H314.548V44.787H314.751V50.002H313.043ZM326.251 50.002C325.752 50.0953 325.262 50.135 324.781 50.121C324.305 50.1116 323.878 50.0253 323.5 49.862C323.122 49.694 322.835 49.4303 322.639 49.071C322.467 48.7443 322.376 48.4106 322.366 48.07C322.357 47.7293 322.352 47.3443 322.352 46.915V40.342H324.032V46.817C324.032 47.1203 324.035 47.3863 324.039 47.615C324.049 47.8436 324.098 48.0303 324.186 48.175C324.354 48.455 324.623 48.6113 324.991 48.644C325.36 48.6766 325.78 48.658 326.251 48.588V50.002ZM320.98 43.765V42.442H326.251V43.765H320.98Z" fill="#323232"/>
<rect x="248" y="0.00195312" width="32" height="32" rx="16" fill="#2AACE3"/>
<path d="M259.915 21.502H267.352V20.252H261.844V20.2207L264.524 17.4707C266.594 15.3535 267.165 14.4238 267.165 13.1895V13.1738C267.165 11.4082 265.672 10.041 263.633 10.041C261.532 10.041 259.844 11.4863 259.844 13.4395V13.4863H261.204V13.4473C261.204 12.2363 262.25 11.2676 263.657 11.2676C264.883 11.2676 265.75 12.0957 265.758 13.2441V13.2598C265.758 14.1973 265.407 14.8066 263.883 16.3926L259.915 20.5332V21.502Z" fill="white"/>
<path d="M62.2383 50.002V39.922H66.1303C66.2283 39.922 66.338 39.9266 66.4593 39.936C66.5853 39.9406 66.7113 39.9546 66.8373 39.978C67.3646 40.0573 67.8103 40.2416 68.1743 40.531C68.543 40.8156 68.8206 41.175 69.0073 41.609C69.1986 42.043 69.2943 42.5236 69.2943 43.051C69.2943 43.5736 69.1986 44.052 69.0073 44.486C68.816 44.92 68.536 45.2816 68.1673 45.571C67.8033 45.8556 67.36 46.0376 66.8373 46.117C66.7113 46.1356 66.5853 46.1496 66.4593 46.159C66.338 46.1683 66.2283 46.173 66.1303 46.173H63.2673V50.002H62.2383ZM63.2673 45.193H66.1023C66.1863 45.193 66.2843 45.1883 66.3963 45.179C66.5083 45.1696 66.618 45.1533 66.7253 45.13C67.0706 45.0553 67.353 44.913 67.5723 44.703C67.7963 44.493 67.962 44.2433 68.0693 43.954C68.1813 43.6646 68.2373 43.3636 68.2373 43.051C68.2373 42.7383 68.1813 42.4373 68.0693 42.148C67.962 41.854 67.7963 41.602 67.5723 41.392C67.353 41.182 67.0706 41.0396 66.7253 40.965C66.618 40.9416 66.5083 40.9276 66.3963 40.923C66.2843 40.9136 66.1863 40.909 66.1023 40.909H63.2673V45.193ZM70.8275 41.007V39.852H71.8565V41.007H70.8275ZM70.8275 50.002V42.442H71.8565V50.002H70.8275ZM77.0911 50.212C76.3304 50.212 75.6864 50.0416 75.1591 49.701C74.6318 49.3603 74.2304 48.8913 73.9551 48.294C73.6844 47.692 73.5444 47.0013 73.5351 46.222C73.5444 45.4286 73.6891 44.7333 73.9691 44.136C74.2491 43.534 74.6528 43.0673 75.1801 42.736C75.7074 42.4 76.3468 42.232 77.0981 42.232C77.8634 42.232 78.5284 42.4186 79.0931 42.792C79.6624 43.1653 80.0521 43.6763 80.2621 44.325L79.2541 44.647C79.0768 44.1943 78.7944 43.8443 78.4071 43.597C78.0244 43.345 77.5858 43.219 77.0911 43.219C76.5358 43.219 76.0761 43.3473 75.7121 43.604C75.3481 43.856 75.0774 44.2083 74.9001 44.661C74.7228 45.1136 74.6318 45.634 74.6271 46.222C74.6364 47.1273 74.8464 47.8553 75.2571 48.406C75.6678 48.952 76.2791 49.225 77.0911 49.225C77.6044 49.225 78.0408 49.1083 78.4001 48.875C78.7641 48.637 79.0394 48.2916 79.2261 47.839L80.2621 48.147C79.9821 48.819 79.5714 49.3323 79.0301 49.687C78.4888 50.037 77.8424 50.212 77.0911 50.212ZM85.8231 50.002C85.3984 50.0906 84.9784 50.1256 84.5631 50.107C84.1524 50.0883 83.7837 49.9996 83.4571 49.841C83.1351 49.6823 82.8901 49.435 82.7221 49.099C82.5867 48.819 82.5121 48.5366 82.4981 48.252C82.4887 47.9626 82.4841 47.6336 82.4841 47.265V40.342H83.5061V47.223C83.5061 47.5403 83.5084 47.8063 83.5131 48.021C83.5224 48.231 83.5714 48.4176 83.6601 48.581C83.8281 48.8936 84.0941 49.0803 84.4581 49.141C84.8267 49.2016 85.2817 49.1876 85.8231 49.099V50.002ZM80.8671 43.324V42.442H85.8231V43.324H80.8671ZM90.2035 50.191C89.7509 50.191 89.3542 50.121 89.0135 49.981C88.6775 49.841 88.3905 49.652 88.1525 49.414C87.9192 49.176 87.7302 48.9053 87.5855 48.602C87.4409 48.294 87.3359 47.9696 87.2705 47.629C87.2052 47.2836 87.1725 46.9406 87.1725 46.6V42.442H88.2085V46.299C88.2085 46.7143 88.2482 47.0993 88.3275 47.454C88.4069 47.8086 88.5329 48.119 88.7055 48.385C88.8829 48.6463 89.1092 48.8493 89.3845 48.994C89.6645 49.1386 90.0029 49.211 90.3995 49.211C90.7635 49.211 91.0832 49.148 91.3585 49.022C91.6385 48.896 91.8719 48.7163 92.0585 48.483C92.2499 48.245 92.3945 47.958 92.4925 47.622C92.5905 47.2813 92.6395 46.8986 92.6395 46.474L93.3675 46.635C93.3675 47.4096 93.2322 48.0606 92.9615 48.588C92.6909 49.1153 92.3175 49.5143 91.8415 49.785C91.3655 50.0556 90.8195 50.191 90.2035 50.191ZM92.7445 50.002V48.14H92.6395V42.442H93.6685V50.002H92.7445ZM95.625 50.002V42.442H96.549V44.262L96.367 44.024C96.451 43.8 96.5607 43.5946 96.696 43.408C96.8314 43.2166 96.9784 43.0603 97.137 42.939C97.333 42.7663 97.5617 42.6356 97.823 42.547C98.0844 42.4536 98.348 42.4 98.614 42.386C98.88 42.3673 99.1227 42.386 99.342 42.442V43.408C99.0667 43.338 98.7657 43.3216 98.439 43.359C98.1124 43.3963 97.8114 43.527 97.536 43.751C97.284 43.947 97.095 44.1826 96.969 44.458C96.843 44.7286 96.759 45.018 96.717 45.326C96.675 45.6293 96.654 45.9303 96.654 46.229V50.002H95.625ZM103.732 50.212C102.995 50.212 102.356 50.0486 101.814 49.722C101.278 49.3953 100.86 48.9356 100.561 48.343C100.263 47.7503 100.113 47.055 100.113 46.257C100.113 45.431 100.26 44.717 100.554 44.115C100.848 43.513 101.261 43.0486 101.793 42.722C102.33 42.3953 102.962 42.232 103.69 42.232C104.437 42.232 105.074 42.4046 105.601 42.75C106.129 43.0906 106.528 43.5806 106.798 44.22C107.069 44.8593 107.193 45.6223 107.169 46.509H106.119V46.145C106.101 45.165 105.888 44.4253 105.482 43.926C105.081 43.4266 104.493 43.177 103.718 43.177C102.906 43.177 102.283 43.4406 101.849 43.968C101.42 44.4953 101.205 45.2466 101.205 46.222C101.205 47.174 101.42 47.9136 101.849 48.441C102.283 48.9636 102.897 49.225 103.69 49.225C104.232 49.225 104.703 49.1013 105.104 48.854C105.51 48.602 105.83 48.2403 106.063 47.769L107.022 48.14C106.724 48.798 106.283 49.309 105.699 49.673C105.121 50.0323 104.465 50.212 103.732 50.212ZM100.841 46.509V45.648H106.616V46.509H100.841Z" fill="#323232"/>
<rect x="69.0005" y="0.00195312" width="32" height="32" rx="16" fill="#81C784"/>
<path d="M82.0004 20.2016L77.8004 16.0016L76.4004 17.4016L82.0004 23.0016L94.0004 11.0016L92.6004 9.60156L82.0004 20.2016Z" fill="white"/>
</svg>
