<svg width="251" height="63" viewBox="0 0 251 63" fill="none" xmlns="http://www.w3.org/2000/svg">
<path d="M69.7358 42.5042H0.867225L15.723 22.4222L15.7231 22.4223L15.7279 22.4156C15.9173 22.1505 16.0187 21.8322 16.0187 21.5063C16.0187 21.1805 15.9173 20.8622 15.7279 20.5971L15.7279 20.597L15.7231 20.5905L0.867036 0.5H69.7337C69.8685 0.501285 70.0015 0.534016 70.1227 0.596104C70.2444 0.658455 70.3511 0.748923 70.434 0.861138L70.4343 0.861521L85.3227 20.9549C85.323 20.9553 85.3233 20.9557 85.3236 20.9561C85.4377 21.1134 85.5 21.3047 85.5 21.5021C85.5 21.6995 85.4377 21.8909 85.3236 22.0482C85.3233 22.0486 85.323 22.049 85.3227 22.0494L70.4354 42.1497C70.3524 42.2609 70.2459 42.3502 70.1246 42.4114C70.0034 42.4726 69.8704 42.5042 69.7358 42.5042Z" fill="white" stroke="#3578DB"/>
<path d="M15.1122 59.3309C14.4802 59.3309 13.9102 59.2209 13.4022 59.0009C12.8982 58.7809 12.4822 58.4669 12.1542 58.0589C11.8302 57.6469 11.6242 57.1589 11.5362 56.5949L13.0362 56.3669C13.1642 56.8789 13.4262 57.2749 13.8222 57.5549C14.2222 57.8349 14.6822 57.9749 15.2022 57.9749C15.5102 57.9749 15.8002 57.9269 16.0722 57.8309C16.3442 57.7349 16.5642 57.5949 16.7322 57.4109C16.9042 57.2269 16.9902 57.0009 16.9902 56.7329C16.9902 56.6129 16.9702 56.5029 16.9302 56.4029C16.8902 56.2989 16.8302 56.2069 16.7502 56.1269C16.6742 56.0469 16.5742 55.9749 16.4502 55.9109C16.3302 55.8429 16.1902 55.7849 16.0302 55.7369L13.7982 55.0769C13.6062 55.0209 13.3982 54.9469 13.1742 54.8549C12.9542 54.7589 12.7442 54.6289 12.5442 54.4649C12.3482 54.2969 12.1862 54.0849 12.0582 53.8289C11.9342 53.5689 11.8722 53.2489 11.8722 52.8689C11.8722 52.3129 12.0122 51.8469 12.2922 51.4709C12.5762 51.0909 12.9562 50.8069 13.4322 50.6189C13.9122 50.4309 14.4442 50.3389 15.0282 50.3429C15.6202 50.3469 16.1482 50.4489 16.6122 50.6489C17.0762 50.8449 17.4642 51.1309 17.7762 51.5069C18.0882 51.8829 18.3082 52.3369 18.4362 52.8689L16.8822 53.1389C16.8182 52.8349 16.6942 52.5769 16.5102 52.3649C16.3302 52.1489 16.1082 51.9849 15.8442 51.8729C15.5842 51.7609 15.3062 51.7009 15.0102 51.6929C14.7222 51.6889 14.4542 51.7329 14.2062 51.8249C13.9622 51.9129 13.7642 52.0409 13.6122 52.2089C13.4642 52.3769 13.3902 52.5729 13.3902 52.7969C13.3902 53.0089 13.4542 53.1829 13.5822 53.3189C13.7102 53.4509 13.8682 53.5569 14.0562 53.6369C14.2482 53.7129 14.4422 53.7769 14.6382 53.8289L16.1862 54.2609C16.3982 54.3169 16.6362 54.3929 16.9002 54.4889C17.1642 54.5849 17.4182 54.7189 17.6622 54.8909C17.9062 55.0629 18.1062 55.2889 18.2622 55.5689C18.4222 55.8489 18.5022 56.2049 18.5022 56.6369C18.5022 57.0849 18.4082 57.4789 18.2202 57.8189C18.0362 58.1549 17.7862 58.4349 17.4702 58.6589C17.1542 58.8829 16.7922 59.0509 16.3842 59.1629C15.9802 59.2749 15.5562 59.3309 15.1122 59.3309ZM23.5989 59.1509C23.1709 59.2309 22.7509 59.2649 22.3389 59.2529C21.9309 59.2449 21.5649 59.1709 21.2409 59.0309C20.9169 58.8869 20.6709 58.6609 20.5029 58.3529C20.3549 58.0729 20.2769 57.7869 20.2689 57.4949C20.2609 57.2029 20.2569 56.8729 20.2569 56.5049V50.8709H21.6969V56.4209C21.6969 56.6809 21.6989 56.9089 21.7029 57.1049C21.7109 57.3009 21.7529 57.4609 21.8289 57.5849C21.9729 57.8249 22.2029 57.9589 22.5189 57.9869C22.8349 58.0149 23.1949 57.9989 23.5989 57.9389V59.1509ZM19.0809 53.8049V52.6709H23.5989V53.8049H19.0809ZM27.6102 59.3309C26.9542 59.3309 26.3782 59.1889 25.8822 58.9049C25.3862 58.6209 24.9982 58.2269 24.7182 57.7229C24.4422 57.2189 24.3042 56.6389 24.3042 55.9829C24.3042 55.2749 24.4402 54.6609 24.7122 54.1409C24.9842 53.6169 25.3622 53.2109 25.8462 52.9229C26.3302 52.6349 26.8902 52.4909 27.5262 52.4909C28.1982 52.4909 28.7682 52.6489 29.2362 52.9649C29.7082 53.2769 30.0582 53.7189 30.2862 54.2909C30.5142 54.8629 30.6002 55.5369 30.5442 56.3129H29.1102V55.7849C29.1062 55.0809 28.9822 54.5669 28.7382 54.2429C28.4942 53.9189 28.1102 53.7569 27.5862 53.7569C26.9942 53.7569 26.5542 53.9409 26.2662 54.3089C25.9782 54.6729 25.8342 55.2069 25.8342 55.9109C25.8342 56.5669 25.9782 57.0749 26.2662 57.4349C26.5542 57.7949 26.9742 57.9749 27.5262 57.9749C27.8822 57.9749 28.1882 57.8969 28.4442 57.7409C28.7042 57.5809 28.9042 57.3509 29.0442 57.0509L30.4722 57.4829C30.2242 58.0669 29.8402 58.5209 29.3202 58.8449C28.8042 59.1689 28.2342 59.3309 27.6102 59.3309ZM25.3782 56.3129V55.2209H29.8362V56.3129H25.3782ZM34.8212 59.3309C34.1892 59.3309 33.6592 59.1809 33.2312 58.8809C32.8032 58.5809 32.4812 58.1729 32.2652 57.6569C32.0492 57.1369 31.9412 56.5549 31.9412 55.9109C31.9412 55.2589 32.0492 54.6749 32.2652 54.1589C32.4812 53.6429 32.7972 53.2369 33.2132 52.9409C33.6332 52.6409 34.1512 52.4909 34.7672 52.4909C35.3792 52.4909 35.9092 52.6409 36.3572 52.9409C36.8092 53.2369 37.1592 53.6429 37.4072 54.1589C37.6552 54.6709 37.7792 55.2549 37.7792 55.9109C37.7792 56.5589 37.6572 57.1409 37.4132 57.6569C37.1692 58.1729 36.8252 58.5809 36.3812 58.8809C35.9372 59.1809 35.4172 59.3309 34.8212 59.3309ZM31.6952 62.0309V52.6709H32.9732V57.2189H33.1532V62.0309H31.6952ZM34.5992 58.0349C34.9752 58.0349 35.2852 57.9409 35.5292 57.7529C35.7732 57.5649 35.9532 57.3109 36.0692 56.9909C36.1892 56.6669 36.2492 56.3069 36.2492 55.9109C36.2492 55.5189 36.1892 55.1629 36.0692 54.8429C35.9492 54.5189 35.7632 54.2629 35.5112 54.0749C35.2592 53.8829 34.9392 53.7869 34.5512 53.7869C34.1832 53.7869 33.8832 53.8769 33.6512 54.0569C33.4192 54.2329 33.2472 54.4809 33.1352 54.8009C33.0272 55.1169 32.9732 55.4869 32.9732 55.9109C32.9732 56.3309 33.0272 56.7009 33.1352 57.0209C33.2472 57.3409 33.4212 57.5909 33.6572 57.7709C33.8972 57.9469 34.2112 58.0349 34.5992 58.0349ZM43.0041 59.1509V52.0889L41.3841 53.0789V51.4829L43.0041 50.5109H44.4801V59.1509H43.0041Z" fill="#3578DB"/>
<path d="M31.1228 17.4433C30.5961 17.4433 30.1211 17.3517 29.6978 17.1683C29.2778 16.985 28.9311 16.7233 28.6578 16.3833C28.3878 16.04 28.2161 15.6333 28.1428 15.1633L29.3928 14.9733C29.4995 15.4 29.7178 15.73 30.0478 15.9633C30.3811 16.1967 30.7645 16.3133 31.1978 16.3133C31.4545 16.3133 31.6961 16.2733 31.9228 16.1933C32.1495 16.1133 32.3328 15.9967 32.4728 15.8433C32.6161 15.69 32.6878 15.5017 32.6878 15.2783C32.6878 15.1783 32.6711 15.0867 32.6378 15.0033C32.6045 14.9167 32.5545 14.84 32.4878 14.7733C32.4245 14.7067 32.3411 14.6467 32.2378 14.5933C32.1378 14.5367 32.0211 14.4883 31.8878 14.4483L30.0278 13.8983C29.8678 13.8517 29.6945 13.79 29.5078 13.7133C29.3245 13.6333 29.1495 13.525 28.9828 13.3883C28.8195 13.2483 28.6845 13.0717 28.5778 12.8583C28.4745 12.6417 28.4228 12.375 28.4228 12.0583C28.4228 11.595 28.5395 11.2067 28.7728 10.8933C29.0095 10.5767 29.3261 10.34 29.7228 10.1833C30.1228 10.0267 30.5661 9.95 31.0528 9.95333C31.5461 9.95667 31.9861 10.0417 32.3728 10.2083C32.7595 10.3717 33.0828 10.61 33.3428 10.9233C33.6028 11.2367 33.7861 11.615 33.8928 12.0583L32.5978 12.2833C32.5445 12.03 32.4411 11.815 32.2878 11.6383C32.1378 11.4583 31.9528 11.3217 31.7328 11.2283C31.5161 11.135 31.2845 11.085 31.0378 11.0783C30.7978 11.075 30.5745 11.1117 30.3678 11.1883C30.1645 11.2617 29.9995 11.3683 29.8728 11.5083C29.7495 11.6483 29.6878 11.8117 29.6878 11.9983C29.6878 12.175 29.7411 12.32 29.8478 12.4333C29.9545 12.5433 30.0861 12.6317 30.2428 12.6983C30.4028 12.7617 30.5645 12.815 30.7278 12.8583L32.0178 13.2183C32.1945 13.265 32.3928 13.3283 32.6128 13.4083C32.8328 13.4883 33.0445 13.6 33.2478 13.7433C33.4511 13.8867 33.6178 14.075 33.7478 14.3083C33.8811 14.5417 33.9478 14.8383 33.9478 15.1983C33.9478 15.5717 33.8695 15.9 33.7128 16.1833C33.5595 16.4633 33.3511 16.6967 33.0878 16.8833C32.8245 17.07 32.5228 17.21 32.1828 17.3033C31.8461 17.3967 31.4928 17.4433 31.1228 17.4433ZM37.4851 17.4433C36.9384 17.4433 36.4584 17.325 36.0451 17.0883C35.6317 16.8517 35.3084 16.5233 35.0751 16.1033C34.8451 15.6833 34.7301 15.2 34.7301 14.6533C34.7301 14.0633 34.8434 13.5517 35.0701 13.1183C35.2967 12.6817 35.6117 12.3433 36.0151 12.1033C36.4184 11.8633 36.8851 11.7433 37.4151 11.7433C37.9751 11.7433 38.4501 11.875 38.8401 12.1383C39.2334 12.3983 39.5251 12.7667 39.7151 13.2433C39.9051 13.72 39.9767 14.2817 39.9301 14.9283H38.7351V14.4883C38.7317 13.9017 38.6284 13.4733 38.4251 13.2033C38.2217 12.9333 37.9017 12.7983 37.4651 12.7983C36.9717 12.7983 36.6051 12.9517 36.3651 13.2583C36.1251 13.5617 36.0051 14.0067 36.0051 14.5933C36.0051 15.14 36.1251 15.5633 36.3651 15.8633C36.6051 16.1633 36.9551 16.3133 37.4151 16.3133C37.7117 16.3133 37.9667 16.2483 38.1801 16.1183C38.3967 15.985 38.5634 15.7933 38.6801 15.5433L39.8701 15.9033C39.6634 16.39 39.3434 16.7683 38.9101 17.0383C38.4801 17.3083 38.0051 17.4433 37.4851 17.4433ZM35.6251 14.9283V14.0183H39.3401V14.9283H35.6251ZM41.1457 17.2933V9.94333H42.3507V17.2933H41.1457ZM46.3034 17.4433C45.7568 17.4433 45.2768 17.325 44.8634 17.0883C44.4501 16.8517 44.1268 16.5233 43.8934 16.1033C43.6634 15.6833 43.5484 15.2 43.5484 14.6533C43.5484 14.0633 43.6618 13.5517 43.8884 13.1183C44.1151 12.6817 44.4301 12.3433 44.8334 12.1033C45.2368 11.8633 45.7034 11.7433 46.2334 11.7433C46.7934 11.7433 47.2684 11.875 47.6584 12.1383C48.0518 12.3983 48.3434 12.7667 48.5334 13.2433C48.7234 13.72 48.7951 14.2817 48.7484 14.9283H47.5534V14.4883C47.5501 13.9017 47.4468 13.4733 47.2434 13.2033C47.0401 12.9333 46.7201 12.7983 46.2834 12.7983C45.7901 12.7983 45.4234 12.9517 45.1834 13.2583C44.9434 13.5617 44.8234 14.0067 44.8234 14.5933C44.8234 15.14 44.9434 15.5633 45.1834 15.8633C45.4234 16.1633 45.7734 16.3133 46.2334 16.3133C46.5301 16.3133 46.7851 16.2483 46.9984 16.1183C47.2151 15.985 47.3818 15.7933 47.4984 15.5433L48.6884 15.9033C48.4818 16.39 48.1618 16.7683 47.7284 17.0383C47.2984 17.3083 46.8234 17.4433 46.3034 17.4433ZM44.4434 14.9283V14.0183H48.1584V14.9283H44.4434ZM52.2091 17.4433C51.6524 17.4433 51.1774 17.32 50.7841 17.0733C50.3907 16.8233 50.0891 16.4833 49.8791 16.0533C49.6724 15.6233 49.5674 15.1367 49.5641 14.5933C49.5674 14.04 49.6757 13.55 49.8891 13.1233C50.1057 12.6933 50.4124 12.3567 50.8091 12.1133C51.2057 11.8667 51.6774 11.7433 52.2241 11.7433C52.8374 11.7433 53.3557 11.8983 53.7791 12.2083C54.2057 12.515 54.4841 12.935 54.6141 13.4683L53.4141 13.7933C53.3207 13.5033 53.1657 13.2783 52.9491 13.1183C52.7324 12.955 52.4857 12.8733 52.2091 12.8733C51.8957 12.8733 51.6374 12.9483 51.4341 13.0983C51.2307 13.245 51.0807 13.4483 50.9841 13.7083C50.8874 13.9683 50.8391 14.2633 50.8391 14.5933C50.8391 15.1067 50.9541 15.5217 51.1841 15.8383C51.4141 16.155 51.7557 16.3133 52.2091 16.3133C52.5291 16.3133 52.7807 16.24 52.9641 16.0933C53.1507 15.9467 53.2907 15.735 53.3841 15.4583L54.6141 15.7333C54.4474 16.2833 54.1557 16.7067 53.7391 17.0033C53.3224 17.2967 52.8124 17.4433 52.2091 17.4433ZM58.781 17.2933C58.4243 17.36 58.0743 17.3883 57.731 17.3783C57.391 17.3717 57.086 17.31 56.816 17.1933C56.546 17.0733 56.341 16.885 56.201 16.6283C56.0777 16.395 56.0127 16.1567 56.006 15.9133C55.9993 15.67 55.996 15.395 55.996 15.0883V10.3933H57.196V15.0183C57.196 15.235 57.1977 15.425 57.201 15.5883C57.2077 15.7517 57.2427 15.885 57.306 15.9883C57.426 16.1883 57.6177 16.3 57.881 16.3233C58.1443 16.3467 58.4443 16.3333 58.781 16.2833V17.2933ZM55.016 12.8383V11.8933H58.781V12.8383H55.016ZM22.9939 31.2933V24.0933H25.9689C26.0389 24.0933 26.1289 24.0967 26.2389 24.1033C26.3489 24.1067 26.4506 24.1167 26.5439 24.1333C26.9606 24.1967 27.3039 24.335 27.5739 24.5483C27.8473 24.7617 28.0489 25.0317 28.1789 25.3583C28.3123 25.6817 28.3789 26.0417 28.3789 26.4383C28.3789 26.8317 28.3123 27.1917 28.1789 27.5183C28.0456 27.8417 27.8423 28.11 27.5689 28.3233C27.2989 28.5367 26.9573 28.675 26.5439 28.7383C26.4506 28.7517 26.3473 28.7617 26.2339 28.7683C26.1239 28.775 26.0356 28.7783 25.9689 28.7783H24.1989V31.2933H22.9939ZM24.1989 27.6533H25.9189C25.9856 27.6533 26.0606 27.65 26.1439 27.6433C26.2273 27.6367 26.3039 27.6233 26.3739 27.6033C26.5739 27.5533 26.7306 27.465 26.8439 27.3383C26.9606 27.2117 27.0423 27.0683 27.0889 26.9083C27.1389 26.7483 27.1639 26.5917 27.1639 26.4383C27.1639 26.285 27.1389 26.1283 27.0889 25.9683C27.0423 25.805 26.9606 25.66 26.8439 25.5333C26.7306 25.4067 26.5739 25.3183 26.3739 25.2683C26.3039 25.2483 26.2273 25.2367 26.1439 25.2333C26.0606 25.2267 25.9856 25.2233 25.9189 25.2233H24.1989V27.6533ZM29.3807 31.2933V25.8933H30.4457V27.2083L30.3157 27.0383C30.3823 26.8583 30.4707 26.695 30.5807 26.5483C30.694 26.3983 30.829 26.275 30.9857 26.1783C31.119 26.0883 31.2657 26.0183 31.4257 25.9683C31.589 25.915 31.7557 25.8833 31.9257 25.8733C32.0957 25.86 32.2607 25.8667 32.4207 25.8933V27.0183C32.2607 26.9717 32.0757 26.9567 31.8657 26.9733C31.659 26.99 31.4723 27.0483 31.3057 27.1483C31.139 27.2383 31.0023 27.3533 30.8957 27.4933C30.7923 27.6333 30.7157 27.7933 30.6657 27.9733C30.6157 28.15 30.5907 28.3417 30.5907 28.5483V31.2933H29.3807ZM35.6621 31.4433C35.1221 31.4433 34.6505 31.3217 34.2471 31.0783C33.8438 30.835 33.5305 30.5 33.3071 30.0733C33.0871 29.6433 32.9771 29.15 32.9771 28.5933C32.9771 28.0267 33.0905 27.53 33.3171 27.1033C33.5438 26.6767 33.8588 26.3433 34.2621 26.1033C34.6655 25.8633 35.1321 25.7433 35.6621 25.7433C36.2055 25.7433 36.6788 25.865 37.0821 26.1083C37.4855 26.3517 37.7988 26.6883 38.0221 27.1183C38.2455 27.545 38.3571 28.0367 38.3571 28.5933C38.3571 29.1533 38.2438 29.6483 38.0171 30.0783C37.7938 30.505 37.4805 30.84 37.0771 31.0833C36.6738 31.3233 36.2021 31.4433 35.6621 31.4433ZM35.6621 30.3133C36.1421 30.3133 36.4988 30.1533 36.7321 29.8333C36.9655 29.5133 37.0821 29.1 37.0821 28.5933C37.0821 28.07 36.9638 27.6533 36.7271 27.3433C36.4905 27.03 36.1355 26.8733 35.6621 26.8733C35.3388 26.8733 35.0721 26.9467 34.8621 27.0933C34.6555 27.2367 34.5021 27.4383 34.4021 27.6983C34.3021 27.955 34.2521 28.2533 34.2521 28.5933C34.2521 29.1167 34.3705 29.535 34.6071 29.8483C34.8471 30.1583 35.1988 30.3133 35.6621 30.3133ZM42.0538 31.4433C41.5271 31.4433 41.0855 31.3183 40.7288 31.0683C40.3721 30.8183 40.1038 30.4783 39.9238 30.0483C39.7438 29.615 39.6538 29.13 39.6538 28.5933C39.6538 28.05 39.7438 27.5633 39.9238 27.1333C40.1038 26.7033 40.3671 26.365 40.7138 26.1183C41.0638 25.8683 41.4955 25.7433 42.0088 25.7433C42.5188 25.7433 42.9605 25.8683 43.3338 26.1183C43.7105 26.365 44.0021 26.7033 44.2088 27.1333C44.4155 27.56 44.5188 28.0467 44.5188 28.5933C44.5188 29.1333 44.4171 29.6183 44.2138 30.0483C44.0105 30.4783 43.7238 30.8183 43.3538 31.0683C42.9838 31.3183 42.5505 31.4433 42.0538 31.4433ZM39.4488 33.6933V25.8933H40.5138V29.6833H40.6638V33.6933H39.4488ZM41.8688 30.3633C42.1821 30.3633 42.4405 30.285 42.6438 30.1283C42.8471 29.9717 42.9971 29.76 43.0938 29.4933C43.1938 29.2233 43.2438 28.9233 43.2438 28.5933C43.2438 28.2667 43.1938 27.97 43.0938 27.7033C42.9938 27.4333 42.8388 27.22 42.6288 27.0633C42.4188 26.9033 42.1521 26.8233 41.8288 26.8233C41.5221 26.8233 41.2721 26.8983 41.0788 27.0483C40.8855 27.195 40.7421 27.4017 40.6488 27.6683C40.5588 27.9317 40.5138 28.24 40.5138 28.5933C40.5138 28.9433 40.5588 29.2517 40.6488 29.5183C40.7421 29.785 40.8871 29.9933 41.0838 30.1433C41.2838 30.29 41.5455 30.3633 41.8688 30.3633ZM48.0759 31.4433C47.5292 31.4433 47.0492 31.325 46.6359 31.0883C46.2226 30.8517 45.8992 30.5233 45.6659 30.1033C45.4359 29.6833 45.3209 29.2 45.3209 28.6533C45.3209 28.0633 45.4342 27.5517 45.6609 27.1183C45.8876 26.6817 46.2026 26.3433 46.6059 26.1033C47.0092 25.8633 47.4759 25.7433 48.0059 25.7433C48.5659 25.7433 49.0409 25.875 49.4309 26.1383C49.8242 26.3983 50.1159 26.7667 50.3059 27.2433C50.4959 27.72 50.5676 28.2817 50.5209 28.9283H49.3259V28.4883C49.3226 27.9017 49.2192 27.4733 49.0159 27.2033C48.8126 26.9333 48.4926 26.7983 48.0559 26.7983C47.5626 26.7983 47.1959 26.9517 46.9559 27.2583C46.7159 27.5617 46.5959 28.0067 46.5959 28.5933C46.5959 29.14 46.7159 29.5633 46.9559 29.8633C47.1959 30.1633 47.5459 30.3133 48.0059 30.3133C48.3026 30.3133 48.5576 30.2483 48.7709 30.1183C48.9876 29.985 49.1542 29.7933 49.2709 29.5433L50.4609 29.9033C50.2542 30.39 49.9342 30.7683 49.5009 31.0383C49.0709 31.3083 48.5959 31.4433 48.0759 31.4433ZM46.2159 28.9283V28.0183H49.9309V28.9283H46.2159ZM51.6365 31.2933V25.8933H52.7015V27.2083L52.5715 27.0383C52.6382 26.8583 52.7265 26.695 52.8365 26.5483C52.9499 26.3983 53.0849 26.275 53.2415 26.1783C53.3749 26.0883 53.5215 26.0183 53.6815 25.9683C53.8449 25.915 54.0115 25.8833 54.1815 25.8733C54.3515 25.86 54.5165 25.8667 54.6765 25.8933V27.0183C54.5165 26.9717 54.3315 26.9567 54.1215 26.9733C53.9149 26.99 53.7282 27.0483 53.5615 27.1483C53.3949 27.2383 53.2582 27.3533 53.1515 27.4933C53.0482 27.6333 52.9715 27.7933 52.9215 27.9733C52.8715 28.15 52.8465 28.3417 52.8465 28.5483V31.2933H51.6365ZM58.7957 31.2933C58.439 31.36 58.089 31.3883 57.7457 31.3783C57.4057 31.3717 57.1007 31.31 56.8307 31.1933C56.5607 31.0733 56.3557 30.885 56.2157 30.6283C56.0923 30.395 56.0273 30.1567 56.0207 29.9133C56.014 29.67 56.0107 29.395 56.0107 29.0883V24.3933H57.2107V29.0183C57.2107 29.235 57.2123 29.425 57.2157 29.5883C57.2223 29.7517 57.2573 29.885 57.3207 29.9883C57.4407 30.1883 57.6323 30.3 57.8957 30.3233C58.159 30.3467 58.459 30.3333 58.7957 30.2833V31.2933ZM55.0307 26.8383V25.8933H58.7957V26.8383H55.0307ZM60.5204 33.6933L61.5604 30.8383L61.5804 31.6783L59.2254 25.8933H60.4804L62.1504 30.1733H61.8304L63.4554 25.8933H64.6604L61.6504 33.6933H60.5204Z" fill="#3578DB"/>
<path d="M189.257 59.3309C188.625 59.3309 188.055 59.2209 187.547 59.0009C187.043 58.7809 186.627 58.4669 186.299 58.0589C185.975 57.6469 185.769 57.1589 185.681 56.5949L187.181 56.3669C187.309 56.8789 187.571 57.2749 187.967 57.5549C188.367 57.8349 188.827 57.9749 189.347 57.9749C189.655 57.9749 189.945 57.9269 190.217 57.8309C190.489 57.7349 190.709 57.5949 190.877 57.4109C191.049 57.2269 191.135 57.0009 191.135 56.7329C191.135 56.6129 191.115 56.5029 191.075 56.4029C191.035 56.2989 190.975 56.2069 190.895 56.1269C190.819 56.0469 190.719 55.9749 190.595 55.9109C190.475 55.8429 190.335 55.7849 190.175 55.7369L187.943 55.0769C187.751 55.0209 187.543 54.9469 187.319 54.8549C187.099 54.7589 186.889 54.6289 186.689 54.4649C186.493 54.2969 186.331 54.0849 186.203 53.8289C186.079 53.5689 186.017 53.2489 186.017 52.8689C186.017 52.3129 186.157 51.8469 186.437 51.4709C186.721 51.0909 187.101 50.8069 187.577 50.6189C188.057 50.4309 188.589 50.3389 189.173 50.3429C189.765 50.3469 190.293 50.4489 190.757 50.6489C191.221 50.8449 191.609 51.1309 191.921 51.5069C192.233 51.8829 192.453 52.3369 192.581 52.8689L191.027 53.1389C190.963 52.8349 190.839 52.5769 190.655 52.3649C190.475 52.1489 190.253 51.9849 189.989 51.8729C189.729 51.7609 189.451 51.7009 189.155 51.6929C188.867 51.6889 188.599 51.7329 188.351 51.8249C188.107 51.9129 187.909 52.0409 187.757 52.2089C187.609 52.3769 187.535 52.5729 187.535 52.7969C187.535 53.0089 187.599 53.1829 187.727 53.3189C187.855 53.4509 188.013 53.5569 188.201 53.6369C188.393 53.7129 188.587 53.7769 188.783 53.8289L190.331 54.2609C190.543 54.3169 190.781 54.3929 191.045 54.4889C191.309 54.5849 191.563 54.7189 191.807 54.8909C192.051 55.0629 192.251 55.2889 192.407 55.5689C192.567 55.8489 192.647 56.2049 192.647 56.6369C192.647 57.0849 192.553 57.4789 192.365 57.8189C192.181 58.1549 191.931 58.4349 191.615 58.6589C191.299 58.8829 190.937 59.0509 190.529 59.1629C190.125 59.2749 189.701 59.3309 189.257 59.3309ZM197.743 59.1509C197.315 59.2309 196.895 59.2649 196.483 59.2529C196.075 59.2449 195.709 59.1709 195.385 59.0309C195.061 58.8869 194.815 58.6609 194.647 58.3529C194.499 58.0729 194.421 57.7869 194.413 57.4949C194.405 57.2029 194.401 56.8729 194.401 56.5049V50.8709H195.841V56.4209C195.841 56.6809 195.843 56.9089 195.847 57.1049C195.855 57.3009 195.897 57.4609 195.973 57.5849C196.117 57.8249 196.347 57.9589 196.663 57.9869C196.979 58.0149 197.339 57.9989 197.743 57.9389V59.1509ZM193.225 53.8049V52.6709H197.743V53.8049H193.225ZM201.755 59.3309C201.099 59.3309 200.523 59.1889 200.027 58.9049C199.531 58.6209 199.143 58.2269 198.863 57.7229C198.587 57.2189 198.449 56.6389 198.449 55.9829C198.449 55.2749 198.585 54.6609 198.857 54.1409C199.129 53.6169 199.507 53.2109 199.991 52.9229C200.475 52.6349 201.035 52.4909 201.671 52.4909C202.343 52.4909 202.913 52.6489 203.381 52.9649C203.853 53.2769 204.203 53.7189 204.431 54.2909C204.659 54.8629 204.745 55.5369 204.689 56.3129H203.255V55.7849C203.251 55.0809 203.127 54.5669 202.883 54.2429C202.639 53.9189 202.255 53.7569 201.731 53.7569C201.139 53.7569 200.699 53.9409 200.411 54.3089C200.123 54.6729 199.979 55.2069 199.979 55.9109C199.979 56.5669 200.123 57.0749 200.411 57.4349C200.699 57.7949 201.119 57.9749 201.671 57.9749C202.027 57.9749 202.333 57.8969 202.589 57.7409C202.849 57.5809 203.049 57.3509 203.189 57.0509L204.617 57.4829C204.369 58.0669 203.985 58.5209 203.465 58.8449C202.949 59.1689 202.379 59.3309 201.755 59.3309ZM199.523 56.3129V55.2209H203.981V56.3129H199.523ZM208.966 59.3309C208.334 59.3309 207.804 59.1809 207.376 58.8809C206.948 58.5809 206.626 58.1729 206.41 57.6569C206.194 57.1369 206.086 56.5549 206.086 55.9109C206.086 55.2589 206.194 54.6749 206.41 54.1589C206.626 53.6429 206.942 53.2369 207.358 52.9409C207.778 52.6409 208.296 52.4909 208.912 52.4909C209.524 52.4909 210.054 52.6409 210.502 52.9409C210.954 53.2369 211.304 53.6429 211.552 54.1589C211.8 54.6709 211.924 55.2549 211.924 55.9109C211.924 56.5589 211.802 57.1409 211.558 57.6569C211.314 58.1729 210.97 58.5809 210.526 58.8809C210.082 59.1809 209.562 59.3309 208.966 59.3309ZM205.84 62.0309V52.6709H207.118V57.2189H207.298V62.0309H205.84ZM208.744 58.0349C209.12 58.0349 209.43 57.9409 209.674 57.7529C209.918 57.5649 210.098 57.3109 210.214 56.9909C210.334 56.6669 210.394 56.3069 210.394 55.9109C210.394 55.5189 210.334 55.1629 210.214 54.8429C210.094 54.5189 209.908 54.2629 209.656 54.0749C209.404 53.8829 209.084 53.7869 208.696 53.7869C208.328 53.7869 208.028 53.8769 207.796 54.0569C207.564 54.2329 207.392 54.4809 207.28 54.8009C207.172 55.1169 207.118 55.4869 207.118 55.9109C207.118 56.3309 207.172 56.7009 207.28 57.0209C207.392 57.3409 207.566 57.5909 207.802 57.7709C208.042 57.9469 208.356 58.0349 208.744 58.0349ZM218.121 59.3129C217.689 59.3129 217.281 59.2289 216.897 59.0609C216.513 58.8929 216.179 58.6549 215.895 58.3469C215.615 58.0389 215.413 57.6749 215.289 57.2549L216.687 56.8769C216.787 57.2209 216.969 57.4869 217.233 57.6749C217.501 57.8589 217.795 57.9489 218.115 57.9449C218.399 57.9449 218.653 57.8789 218.877 57.7469C219.101 57.6149 219.277 57.4369 219.405 57.2129C219.533 56.9849 219.597 56.7309 219.597 56.4509C219.597 56.0229 219.459 55.6649 219.183 55.3769C218.907 55.0889 218.551 54.9449 218.115 54.9449C217.983 54.9449 217.853 54.9629 217.725 54.9989C217.601 55.0349 217.481 55.0849 217.365 55.1489L216.705 54.0089L219.609 51.5249L219.735 51.8729H215.625V50.5109H220.923V51.8789L218.589 54.1229L218.577 53.6969C219.101 53.7329 219.547 53.8789 219.915 54.1349C220.287 54.3909 220.571 54.7209 220.767 55.1249C220.967 55.5289 221.067 55.9709 221.067 56.4509C221.067 56.9949 220.933 57.4829 220.665 57.9149C220.401 58.3469 220.045 58.6889 219.597 58.9409C219.153 59.1889 218.661 59.3129 218.121 59.3129Z" fill="#3578DB"/>
<path d="M234.547 42.5042H164.873L179.9 22.4245L179.9 22.4245L179.904 22.4178C180.096 22.1526 180.199 21.8335 180.199 21.5063C180.199 21.1791 180.096 20.86 179.904 20.5948L179.904 20.5948L179.9 20.5883L164.872 0.5H234.545C234.683 0.501294 234.819 0.534488 234.943 0.597162L235.169 0.15113L234.943 0.597166C235.067 0.660086 235.175 0.751095 235.259 0.863362L235.26 0.863742L250.321 20.9571C250.322 20.9575 250.322 20.9579 250.322 20.9583C250.438 21.1155 250.5 21.3061 250.5 21.5021C250.5 21.6982 250.437 21.8888 250.322 22.0461C250.322 22.0464 250.321 22.0468 250.321 22.0471L235.261 42.1475C235.261 42.1478 235.26 42.1481 235.26 42.1484C235.176 42.2592 235.068 42.3488 234.945 42.4104C234.821 42.4722 234.685 42.5042 234.547 42.5042Z" fill="#3578DB" stroke="#3578DB"/>
<path d="M188.867 17.2933V10.0933H191.842C191.912 10.0933 192.002 10.0967 192.112 10.1033C192.222 10.1067 192.324 10.1167 192.417 10.1333C192.834 10.1967 193.177 10.335 193.447 10.5483C193.72 10.7617 193.922 11.0317 194.052 11.3583C194.185 11.6817 194.252 12.0417 194.252 12.4383C194.252 12.8317 194.185 13.1917 194.052 13.5183C193.919 13.8417 193.715 14.11 193.442 14.3233C193.172 14.5367 192.83 14.675 192.417 14.7383C192.324 14.7517 192.22 14.7617 192.107 14.7683C191.997 14.775 191.909 14.7783 191.842 14.7783H190.072V17.2933H188.867ZM190.072 13.6533H191.792C191.859 13.6533 191.934 13.65 192.017 13.6433C192.1 13.6367 192.177 13.6233 192.247 13.6033C192.447 13.5533 192.604 13.465 192.717 13.3383C192.834 13.2117 192.915 13.0683 192.962 12.9083C193.012 12.7483 193.037 12.5917 193.037 12.4383C193.037 12.285 193.012 12.1283 192.962 11.9683C192.915 11.805 192.834 11.66 192.717 11.5333C192.604 11.4067 192.447 11.3183 192.247 11.2683C192.177 11.2483 192.1 11.2367 192.017 11.2333C191.934 11.2267 191.859 11.2233 191.792 11.2233H190.072V13.6533ZM196.627 17.4433C196.237 17.4433 195.907 17.37 195.637 17.2233C195.367 17.0733 195.162 16.875 195.022 16.6283C194.885 16.3817 194.817 16.11 194.817 15.8133C194.817 15.5533 194.86 15.32 194.947 15.1133C195.034 14.9033 195.167 14.7233 195.347 14.5733C195.527 14.42 195.76 14.295 196.047 14.1983C196.264 14.1283 196.517 14.065 196.807 14.0083C197.1 13.9517 197.417 13.9 197.757 13.8533C198.1 13.8033 198.459 13.75 198.832 13.6933L198.402 13.9383C198.405 13.565 198.322 13.29 198.152 13.1133C197.982 12.9367 197.695 12.8483 197.292 12.8483C197.049 12.8483 196.814 12.905 196.587 13.0183C196.36 13.1317 196.202 13.3267 196.112 13.6033L195.012 13.2583C195.145 12.8017 195.399 12.435 195.772 12.1583C196.149 11.8817 196.655 11.7433 197.292 11.7433C197.772 11.7433 198.194 11.8217 198.557 11.9783C198.924 12.135 199.195 12.3917 199.372 12.7483C199.469 12.9383 199.527 13.1333 199.547 13.3333C199.567 13.53 199.577 13.745 199.577 13.9783V17.2933H198.522V16.1233L198.697 16.3133C198.454 16.7033 198.169 16.99 197.842 17.1733C197.519 17.3533 197.114 17.4433 196.627 17.4433ZM196.867 16.4833C197.14 16.4833 197.374 16.435 197.567 16.3383C197.76 16.2417 197.914 16.1233 198.027 15.9833C198.144 15.8433 198.222 15.7117 198.262 15.5883C198.325 15.435 198.36 15.26 198.367 15.0633C198.377 14.8633 198.382 14.7017 198.382 14.5783L198.752 14.6883C198.389 14.745 198.077 14.795 197.817 14.8383C197.557 14.8817 197.334 14.9233 197.147 14.9633C196.96 15 196.795 15.0417 196.652 15.0883C196.512 15.1383 196.394 15.1967 196.297 15.2633C196.2 15.33 196.125 15.4067 196.072 15.4933C196.022 15.58 195.997 15.6817 195.997 15.7983C195.997 15.9317 196.03 16.05 196.097 16.1533C196.164 16.2533 196.26 16.3333 196.387 16.3933C196.517 16.4533 196.677 16.4833 196.867 16.4833ZM201.286 19.6933L202.326 16.8383L202.346 17.6783L199.991 11.8933H201.246L202.916 16.1733H202.596L204.221 11.8933H205.426L202.416 19.6933H201.286ZM212.657 17.2933V14.0133C212.657 13.6433 212.565 13.355 212.382 13.1483C212.198 12.9383 211.95 12.8333 211.637 12.8333C211.443 12.8333 211.27 12.8783 211.117 12.9683C210.963 13.055 210.842 13.185 210.752 13.3583C210.662 13.5283 210.617 13.7317 210.617 13.9683L210.082 13.6533C210.078 13.28 210.162 12.9517 210.332 12.6683C210.505 12.3817 210.738 12.1583 211.032 11.9983C211.325 11.8383 211.652 11.7583 212.012 11.7583C212.608 11.7583 213.065 11.9383 213.382 12.2983C213.702 12.655 213.862 13.125 213.862 13.7083V17.2933H212.657ZM206.162 17.2933V11.8933H207.227V13.5683H207.377V17.2933H206.162ZM209.417 17.2933V14.0283C209.417 13.6517 209.325 13.3583 209.142 13.1483C208.958 12.9383 208.708 12.8333 208.392 12.8333C208.085 12.8333 207.838 12.9383 207.652 13.1483C207.468 13.3583 207.377 13.6317 207.377 13.9683L206.837 13.6083C206.837 13.2583 206.923 12.9433 207.097 12.6633C207.27 12.3833 207.503 12.1633 207.797 12.0033C208.093 11.84 208.425 11.7583 208.792 11.7583C209.195 11.7583 209.532 11.845 209.802 12.0183C210.075 12.1883 210.278 12.4217 210.412 12.7183C210.548 13.0117 210.617 13.3433 210.617 13.7133V17.2933H209.417ZM217.533 17.4433C216.986 17.4433 216.506 17.325 216.093 17.0883C215.68 16.8517 215.356 16.5233 215.123 16.1033C214.893 15.6833 214.778 15.2 214.778 14.6533C214.778 14.0633 214.891 13.5517 215.118 13.1183C215.345 12.6817 215.66 12.3433 216.063 12.1033C216.466 11.8633 216.933 11.7433 217.463 11.7433C218.023 11.7433 218.498 11.875 218.888 12.1383C219.281 12.3983 219.573 12.7667 219.763 13.2433C219.953 13.72 220.025 14.2817 219.978 14.9283H218.783V14.4883C218.78 13.9017 218.676 13.4733 218.473 13.2033C218.27 12.9333 217.95 12.7983 217.513 12.7983C217.02 12.7983 216.653 12.9517 216.413 13.2583C216.173 13.5617 216.053 14.0067 216.053 14.5933C216.053 15.14 216.173 15.5633 216.413 15.8633C216.653 16.1633 217.003 16.3133 217.463 16.3133C217.76 16.3133 218.015 16.2483 218.228 16.1183C218.445 15.985 218.611 15.7933 218.728 15.5433L219.918 15.9033C219.711 16.39 219.391 16.7683 218.958 17.0383C218.528 17.3083 218.053 17.4433 217.533 17.4433ZM215.673 14.9283V14.0183H219.388V14.9283H215.673ZM224.682 17.2933V14.6933C224.682 14.5233 224.67 14.335 224.647 14.1283C224.624 13.9217 224.569 13.7233 224.482 13.5333C224.399 13.34 224.272 13.1817 224.102 13.0583C223.935 12.935 223.709 12.8733 223.422 12.8733C223.269 12.8733 223.117 12.8983 222.967 12.9483C222.817 12.9983 222.68 13.085 222.557 13.2083C222.437 13.3283 222.34 13.495 222.267 13.7083C222.194 13.9183 222.157 14.1883 222.157 14.5183L221.442 14.2133C221.442 13.7533 221.53 13.3367 221.707 12.9633C221.887 12.59 222.15 12.2933 222.497 12.0733C222.844 11.85 223.27 11.7383 223.777 11.7383C224.177 11.7383 224.507 11.805 224.767 11.9383C225.027 12.0717 225.234 12.2417 225.387 12.4483C225.54 12.655 225.654 12.875 225.727 13.1083C225.8 13.3417 225.847 13.5633 225.867 13.7733C225.89 13.98 225.902 14.1483 225.902 14.2783V17.2933H224.682ZM220.937 17.2933V11.8933H222.012V13.5683H222.157V17.2933H220.937ZM230.372 17.2933C230.015 17.36 229.665 17.3883 229.322 17.3783C228.982 17.3717 228.677 17.31 228.407 17.1933C228.137 17.0733 227.932 16.885 227.792 16.6283C227.669 16.395 227.604 16.1567 227.597 15.9133C227.59 15.67 227.587 15.395 227.587 15.0883V10.3933H228.787V15.0183C228.787 15.235 228.789 15.425 228.792 15.5883C228.799 15.7517 228.834 15.885 228.897 15.9883C229.017 16.1883 229.209 16.3 229.472 16.3233C229.735 16.3467 230.035 16.3333 230.372 16.2833V17.2933ZM226.607 12.8383V11.8933H230.372V12.8383H226.607ZM191.445 31.2933V24.0933H192.53L195.02 29.1933L197.51 24.0933H198.595V31.2933H197.47V26.6783L195.26 31.2933H194.78L192.575 26.6783V31.2933H191.445ZM202.455 31.4433C201.908 31.4433 201.428 31.325 201.015 31.0883C200.601 30.8517 200.278 30.5233 200.045 30.1033C199.815 29.6833 199.7 29.2 199.7 28.6533C199.7 28.0633 199.813 27.5517 200.04 27.1183C200.266 26.6817 200.581 26.3433 200.985 26.1033C201.388 25.8633 201.855 25.7433 202.385 25.7433C202.945 25.7433 203.42 25.875 203.81 26.1383C204.203 26.3983 204.495 26.7667 204.685 27.2433C204.875 27.72 204.946 28.2817 204.9 28.9283H203.705V28.4883C203.701 27.9017 203.598 27.4733 203.395 27.2033C203.191 26.9333 202.871 26.7983 202.435 26.7983C201.941 26.7983 201.575 26.9517 201.335 27.2583C201.095 27.5617 200.975 28.0067 200.975 28.5933C200.975 29.14 201.095 29.5633 201.335 29.8633C201.575 30.1633 201.925 30.3133 202.385 30.3133C202.681 30.3133 202.936 30.2483 203.15 30.1183C203.366 29.985 203.533 29.7933 203.65 29.5433L204.84 29.9033C204.633 30.39 204.313 30.7683 203.88 31.0383C203.45 31.3083 202.975 31.4433 202.455 31.4433ZM200.595 28.9283V28.0183H204.31V28.9283H200.595ZM209.18 31.2933C208.824 31.36 208.474 31.3883 208.13 31.3783C207.79 31.3717 207.485 31.31 207.215 31.1933C206.945 31.0733 206.74 30.885 206.6 30.6283C206.477 30.395 206.412 30.1567 206.405 29.9133C206.399 29.67 206.395 29.395 206.395 29.0883V24.3933H207.595V29.0183C207.595 29.235 207.597 29.425 207.6 29.5883C207.607 29.7517 207.642 29.885 207.705 29.9883C207.825 30.1883 208.017 30.3 208.28 30.3233C208.544 30.3467 208.844 30.3333 209.18 30.2833V31.2933ZM205.415 26.8383V25.8933H209.18V26.8383H205.415ZM214.077 31.2933V28.6933C214.077 28.5233 214.065 28.335 214.042 28.1283C214.018 27.9217 213.963 27.7233 213.877 27.5333C213.793 27.34 213.667 27.1817 213.497 27.0583C213.33 26.935 213.103 26.8733 212.817 26.8733C212.663 26.8733 212.512 26.8983 212.362 26.9483C212.212 26.9983 212.075 27.085 211.952 27.2083C211.832 27.3283 211.735 27.495 211.662 27.7083C211.588 27.9183 211.552 28.1883 211.552 28.5183L210.837 28.2133C210.837 27.7533 210.925 27.3367 211.102 26.9633C211.282 26.59 211.545 26.2933 211.892 26.0733C212.238 25.85 212.665 25.7383 213.172 25.7383C213.572 25.7383 213.902 25.805 214.162 25.9383C214.422 26.0717 214.628 26.2417 214.782 26.4483C214.935 26.655 215.048 26.875 215.122 27.1083C215.195 27.3417 215.242 27.5633 215.262 27.7733C215.285 27.98 215.297 28.1483 215.297 28.2783V31.2933H214.077ZM210.332 31.2933V24.0933H211.407V27.8833H211.552V31.2933H210.332ZM218.986 31.4433C218.446 31.4433 217.975 31.3217 217.571 31.0783C217.168 30.835 216.855 30.5 216.631 30.0733C216.411 29.6433 216.301 29.15 216.301 28.5933C216.301 28.0267 216.415 27.53 216.641 27.1033C216.868 26.6767 217.183 26.3433 217.586 26.1033C217.99 25.8633 218.456 25.7433 218.986 25.7433C219.53 25.7433 220.003 25.865 220.406 26.1083C220.81 26.3517 221.123 26.6883 221.346 27.1183C221.57 27.545 221.681 28.0367 221.681 28.5933C221.681 29.1533 221.568 29.6483 221.341 30.0783C221.118 30.505 220.805 30.84 220.401 31.0833C219.998 31.3233 219.526 31.4433 218.986 31.4433ZM218.986 30.3133C219.466 30.3133 219.823 30.1533 220.056 29.8333C220.29 29.5133 220.406 29.1 220.406 28.5933C220.406 28.07 220.288 27.6533 220.051 27.3433C219.815 27.03 219.46 26.8733 218.986 26.8733C218.663 26.8733 218.396 26.9467 218.186 27.0933C217.98 27.2367 217.826 27.4383 217.726 27.6983C217.626 27.955 217.576 28.2533 217.576 28.5933C217.576 29.1167 217.695 29.535 217.931 29.8483C218.171 30.1583 218.523 30.3133 218.986 30.3133ZM224.948 31.4433C224.451 31.4433 224.018 31.3183 223.648 31.0683C223.278 30.8183 222.991 30.4783 222.788 30.0483C222.585 29.6183 222.483 29.1333 222.483 28.5933C222.483 28.0467 222.585 27.56 222.788 27.1333C222.995 26.7033 223.286 26.365 223.663 26.1183C224.04 25.8683 224.483 25.7433 224.993 25.7433C225.506 25.7433 225.936 25.8683 226.283 26.1183C226.633 26.365 226.898 26.7033 227.078 27.1333C227.258 27.5633 227.348 28.05 227.348 28.5933C227.348 29.13 227.258 29.615 227.078 30.0483C226.898 30.4783 226.63 30.8183 226.273 31.0683C225.916 31.3183 225.475 31.4433 224.948 31.4433ZM225.133 30.3633C225.456 30.3633 225.716 30.29 225.913 30.1433C226.113 29.9933 226.258 29.785 226.348 29.5183C226.441 29.2517 226.488 28.9433 226.488 28.5933C226.488 28.24 226.441 27.9317 226.348 27.6683C226.258 27.4017 226.116 27.195 225.923 27.0483C225.73 26.8983 225.48 26.8233 225.173 26.8233C224.85 26.8233 224.583 26.9033 224.373 27.0633C224.163 27.22 224.008 27.4333 223.908 27.7033C223.808 27.97 223.758 28.2667 223.758 28.5933C223.758 28.9233 223.806 29.2233 223.903 29.4933C224.003 29.76 224.155 29.9717 224.358 30.1283C224.561 30.285 224.82 30.3633 225.133 30.3633ZM226.488 31.2933V27.5033H226.338V24.0933H227.553V31.2933H226.488Z" fill="white"/>
<path d="M152.547 42.5042H82.8726L97.8995 22.4245L97.8996 22.4245L97.9044 22.4178C98.0961 22.1526 98.1991 21.8335 98.1991 21.5063C98.1991 21.1791 98.0961 20.86 97.9044 20.5948L97.9045 20.5948L97.8996 20.5883L82.8725 0.5H152.545C152.683 0.501294 152.819 0.534488 152.943 0.597162L153.169 0.15113L152.943 0.597166C153.067 0.660086 153.175 0.751095 153.259 0.863362L153.26 0.863742L168.321 20.9571C168.321 20.9575 168.322 20.9579 168.322 20.9583C168.437 21.1155 168.5 21.3061 168.5 21.5021C168.5 21.6982 168.437 21.8888 168.322 22.0461C168.322 22.0464 168.321 22.0468 168.321 22.0471L153.261 42.1475C153.261 42.1476 153.261 42.1477 153.26 42.1478C153.177 42.2589 153.068 42.3487 152.945 42.4104C152.821 42.4722 152.685 42.5042 152.547 42.5042Z" fill="white" stroke="#3578DB"/>
<path d="M96.1689 59.3309C95.5369 59.3309 94.9669 59.2209 94.4589 59.0009C93.9549 58.7809 93.5389 58.4669 93.2109 58.0589C92.8869 57.6469 92.6809 57.1589 92.5929 56.5949L94.0929 56.3669C94.2209 56.8789 94.4829 57.2749 94.8789 57.5549C95.2789 57.8349 95.7389 57.9749 96.2589 57.9749C96.5669 57.9749 96.8569 57.9269 97.1289 57.8309C97.4009 57.7349 97.6209 57.5949 97.7889 57.4109C97.9609 57.2269 98.0469 57.0009 98.0469 56.7329C98.0469 56.6129 98.0269 56.5029 97.9869 56.4029C97.9469 56.2989 97.8869 56.2069 97.8069 56.1269C97.7309 56.0469 97.6309 55.9749 97.5069 55.9109C97.3869 55.8429 97.2469 55.7849 97.0869 55.7369L94.8549 55.0769C94.6629 55.0209 94.4549 54.9469 94.2309 54.8549C94.0109 54.7589 93.8009 54.6289 93.6009 54.4649C93.4049 54.2969 93.2429 54.0849 93.1149 53.8289C92.9909 53.5689 92.9289 53.2489 92.9289 52.8689C92.9289 52.3129 93.0689 51.8469 93.3489 51.4709C93.6329 51.0909 94.0129 50.8069 94.4889 50.6189C94.9689 50.4309 95.5009 50.3389 96.0849 50.3429C96.6769 50.3469 97.2049 50.4489 97.6689 50.6489C98.1329 50.8449 98.5209 51.1309 98.8329 51.5069C99.1449 51.8829 99.3649 52.3369 99.4929 52.8689L97.9389 53.1389C97.8749 52.8349 97.7509 52.5769 97.5669 52.3649C97.3869 52.1489 97.1649 51.9849 96.9009 51.8729C96.6409 51.7609 96.3629 51.7009 96.0669 51.6929C95.7789 51.6889 95.5109 51.7329 95.2629 51.8249C95.0189 51.9129 94.8209 52.0409 94.6689 52.2089C94.5209 52.3769 94.4469 52.5729 94.4469 52.7969C94.4469 53.0089 94.5109 53.1829 94.6389 53.3189C94.7669 53.4509 94.9249 53.5569 95.1129 53.6369C95.3049 53.7129 95.4989 53.7769 95.6949 53.8289L97.2429 54.2609C97.4549 54.3169 97.6929 54.3929 97.9569 54.4889C98.2209 54.5849 98.4749 54.7189 98.7189 54.8909C98.9629 55.0629 99.1629 55.2889 99.3189 55.5689C99.4789 55.8489 99.5589 56.2049 99.5589 56.6369C99.5589 57.0849 99.4649 57.4789 99.2769 57.8189C99.0929 58.1549 98.8429 58.4349 98.5269 58.6589C98.2109 58.8829 97.8489 59.0509 97.4409 59.1629C97.0369 59.2749 96.6129 59.3309 96.1689 59.3309ZM104.656 59.1509C104.228 59.2309 103.808 59.2649 103.396 59.2529C102.988 59.2449 102.622 59.1709 102.298 59.0309C101.974 58.8869 101.728 58.6609 101.56 58.3529C101.412 58.0729 101.334 57.7869 101.326 57.4949C101.318 57.2029 101.314 56.8729 101.314 56.5049V50.8709H102.754V56.4209C102.754 56.6809 102.756 56.9089 102.76 57.1049C102.768 57.3009 102.81 57.4609 102.886 57.5849C103.03 57.8249 103.26 57.9589 103.576 57.9869C103.892 58.0149 104.252 57.9989 104.656 57.9389V59.1509ZM100.138 53.8049V52.6709H104.656V53.8049H100.138ZM108.667 59.3309C108.011 59.3309 107.435 59.1889 106.939 58.9049C106.443 58.6209 106.055 58.2269 105.775 57.7229C105.499 57.2189 105.361 56.6389 105.361 55.9829C105.361 55.2749 105.497 54.6609 105.769 54.1409C106.041 53.6169 106.419 53.2109 106.903 52.9229C107.387 52.6349 107.947 52.4909 108.583 52.4909C109.255 52.4909 109.825 52.6489 110.293 52.9649C110.765 53.2769 111.115 53.7189 111.343 54.2909C111.571 54.8629 111.657 55.5369 111.601 56.3129H110.167V55.7849C110.163 55.0809 110.039 54.5669 109.795 54.2429C109.551 53.9189 109.167 53.7569 108.643 53.7569C108.051 53.7569 107.611 53.9409 107.323 54.3089C107.035 54.6729 106.891 55.2069 106.891 55.9109C106.891 56.5669 107.035 57.0749 107.323 57.4349C107.611 57.7949 108.031 57.9749 108.583 57.9749C108.939 57.9749 109.245 57.8969 109.501 57.7409C109.761 57.5809 109.961 57.3509 110.101 57.0509L111.529 57.4829C111.281 58.0669 110.897 58.5209 110.377 58.8449C109.861 59.1689 109.291 59.3309 108.667 59.3309ZM106.435 56.3129V55.2209H110.893V56.3129H106.435ZM115.878 59.3309C115.246 59.3309 114.716 59.1809 114.288 58.8809C113.86 58.5809 113.538 58.1729 113.322 57.6569C113.106 57.1369 112.998 56.5549 112.998 55.9109C112.998 55.2589 113.106 54.6749 113.322 54.1589C113.538 53.6429 113.854 53.2369 114.27 52.9409C114.69 52.6409 115.208 52.4909 115.824 52.4909C116.436 52.4909 116.966 52.6409 117.414 52.9409C117.866 53.2369 118.216 53.6429 118.464 54.1589C118.712 54.6709 118.836 55.2549 118.836 55.9109C118.836 56.5589 118.714 57.1409 118.47 57.6569C118.226 58.1729 117.882 58.5809 117.438 58.8809C116.994 59.1809 116.474 59.3309 115.878 59.3309ZM112.752 62.0309V52.6709H114.03V57.2189H114.21V62.0309H112.752ZM115.656 58.0349C116.032 58.0349 116.342 57.9409 116.586 57.7529C116.83 57.5649 117.01 57.3109 117.126 56.9909C117.246 56.6669 117.306 56.3069 117.306 55.9109C117.306 55.5189 117.246 55.1629 117.126 54.8429C117.006 54.5189 116.82 54.2629 116.568 54.0749C116.316 53.8829 115.996 53.7869 115.608 53.7869C115.24 53.7869 114.94 53.8769 114.708 54.0569C114.476 54.2329 114.304 54.4809 114.192 54.8009C114.084 55.1169 114.03 55.4869 114.03 55.9109C114.03 56.3309 114.084 56.7009 114.192 57.0209C114.304 57.3409 114.478 57.5909 114.714 57.7709C114.954 57.9469 115.268 58.0349 115.656 58.0349ZM122.321 59.1389V57.8789L126.017 54.5849C126.305 54.3289 126.505 54.0869 126.617 53.8589C126.729 53.6309 126.785 53.4109 126.785 53.1989C126.785 52.9109 126.723 52.6549 126.599 52.4309C126.475 52.2029 126.303 52.0229 126.083 51.8909C125.867 51.7589 125.617 51.6929 125.333 51.6929C125.033 51.6929 124.767 51.7629 124.535 51.9029C124.307 52.0389 124.129 52.2209 124.001 52.4489C123.873 52.6769 123.813 52.9229 123.821 53.1869H122.333C122.333 52.6109 122.461 52.1089 122.717 51.6809C122.977 51.2529 123.333 50.9209 123.785 50.6849C124.241 50.4489 124.767 50.3309 125.363 50.3309C125.915 50.3309 126.411 50.4549 126.851 50.7029C127.291 50.9469 127.637 51.2869 127.889 51.7229C128.141 52.1549 128.267 52.6529 128.267 53.2169C128.267 53.6289 128.211 53.9749 128.099 54.2549C127.987 54.5349 127.819 54.7929 127.595 55.0289C127.375 55.2649 127.101 55.5269 126.773 55.8149L124.151 58.1369L124.019 57.7769H128.267V59.1389H122.321Z" fill="#3578DB"/>
<circle cx="139" cy="54.4761" r="5.5" stroke="#3578DB"/>
<circle cx="139" cy="54.4761" r="4" fill="#3578DB"/>
<circle cx="139" cy="54.4761" r="4" fill="#3578DB"/>
<path d="M136.412 55.0885C136.296 55.3 136.363 55.5634 136.565 55.6855L138.324 56.7507C138.461 56.8337 138.641 56.789 138.728 56.6501L140.886 53.2268C141.02 53.0128 140.958 52.7321 140.746 52.6041C140.542 52.4805 140.275 52.5457 140.142 52.7514L138.269 55.6649L137.03 54.9148C136.816 54.7853 136.536 54.8643 136.412 55.0885Z" fill="white" stroke="white" stroke-width="0.3"/>
<circle cx="55" cy="54.4761" r="5.5" stroke="#3578DB"/>
<circle cx="55" cy="54.4761" r="4" fill="#3578DB"/>
<circle cx="55" cy="54.4761" r="4" fill="#3578DB"/>
<path d="M52.4121 55.0885C52.2957 55.3 52.3629 55.5634 52.5646 55.6855L54.3235 56.7507C54.4607 56.8337 54.6405 56.789 54.7281 56.6501L56.8856 53.2268C57.0204 53.0128 56.9577 52.7321 56.7465 52.6041C56.5422 52.4805 56.2745 52.5457 56.1423 52.7514L54.269 55.6649L53.0303 54.9148C52.8165 54.7853 52.5355 54.8643 52.4121 55.0885Z" fill="white" stroke="white" stroke-width="0.3"/>
<path d="M114.113 17.2933V10.0933H118.763V11.2233H115.318V12.9983H118.163V14.1283H115.318V16.1633H118.763V17.2933H114.113ZM123.698 17.2933V14.6933C123.698 14.5233 123.686 14.335 123.663 14.1283C123.639 13.9217 123.584 13.7233 123.498 13.5333C123.414 13.34 123.288 13.1817 123.118 13.0583C122.951 12.935 122.724 12.8733 122.438 12.8733C122.284 12.8733 122.133 12.8983 121.983 12.9483C121.833 12.9983 121.696 13.085 121.573 13.2083C121.453 13.3283 121.356 13.495 121.283 13.7083C121.209 13.9183 121.173 14.1883 121.173 14.5183L120.458 14.2133C120.458 13.7533 120.546 13.3367 120.723 12.9633C120.903 12.59 121.166 12.2933 121.513 12.0733C121.859 11.85 122.286 11.7383 122.793 11.7383C123.193 11.7383 123.523 11.805 123.783 11.9383C124.043 12.0717 124.249 12.2417 124.403 12.4483C124.556 12.655 124.669 12.875 124.743 13.1083C124.816 13.3417 124.863 13.5633 124.883 13.7733C124.906 13.98 124.918 14.1483 124.918 14.2783V17.2933H123.698ZM119.953 17.2933V11.8933H121.028V13.5683H121.173V17.2933H119.953ZM129.387 17.2933C129.031 17.36 128.681 17.3883 128.337 17.3783C127.997 17.3717 127.692 17.31 127.422 17.1933C127.152 17.0733 126.947 16.885 126.807 16.6283C126.684 16.395 126.619 16.1567 126.612 15.9133C126.606 15.67 126.602 15.395 126.602 15.0883V10.3933H127.802V15.0183C127.802 15.235 127.804 15.425 127.807 15.5883C127.814 15.7517 127.849 15.885 127.912 15.9883C128.032 16.1883 128.224 16.3 128.487 16.3233C128.751 16.3467 129.051 16.3333 129.387 16.2833V17.2933ZM125.622 12.8383V11.8933H129.387V12.8383H125.622ZM132.73 17.4433C132.184 17.4433 131.704 17.325 131.29 17.0883C130.877 16.8517 130.554 16.5233 130.32 16.1033C130.09 15.6833 129.975 15.2 129.975 14.6533C129.975 14.0633 130.089 13.5517 130.315 13.1183C130.542 12.6817 130.857 12.3433 131.26 12.1033C131.664 11.8633 132.13 11.7433 132.66 11.7433C133.22 11.7433 133.695 11.875 134.085 12.1383C134.479 12.3983 134.77 12.7667 134.96 13.2433C135.15 13.72 135.222 14.2817 135.175 14.9283H133.98V14.4883C133.977 13.9017 133.874 13.4733 133.67 13.2033C133.467 12.9333 133.147 12.7983 132.71 12.7983C132.217 12.7983 131.85 12.9517 131.61 13.2583C131.37 13.5617 131.25 14.0067 131.25 14.5933C131.25 15.14 131.37 15.5633 131.61 15.8633C131.85 16.1633 132.2 16.3133 132.66 16.3133C132.957 16.3133 133.212 16.2483 133.425 16.1183C133.642 15.985 133.809 15.7933 133.925 15.5433L135.115 15.9033C134.909 16.39 134.589 16.7683 134.155 17.0383C133.725 17.3083 133.25 17.4433 132.73 17.4433ZM130.87 14.9283V14.0183H134.585V14.9283H130.87ZM136.291 17.2933V11.8933H137.356V13.2083L137.226 13.0383C137.292 12.8583 137.381 12.695 137.491 12.5483C137.604 12.3983 137.739 12.275 137.896 12.1783C138.029 12.0883 138.176 12.0183 138.336 11.9683C138.499 11.915 138.666 11.8833 138.836 11.8733C139.006 11.86 139.171 11.8667 139.331 11.8933V13.0183C139.171 12.9717 138.986 12.9567 138.776 12.9733C138.569 12.99 138.382 13.0483 138.216 13.1483C138.049 13.2383 137.912 13.3533 137.806 13.4933C137.702 13.6333 137.626 13.7933 137.576 13.9733C137.526 14.15 137.501 14.3417 137.501 14.5483V17.2933H136.291ZM103.796 31.2933V24.0933H106.651C107.137 24.0933 107.536 24.1917 107.846 24.3883C108.159 24.5817 108.391 24.83 108.541 25.1333C108.694 25.4367 108.771 25.75 108.771 26.0733C108.771 26.47 108.676 26.8067 108.486 27.0833C108.299 27.36 108.044 27.5467 107.721 27.6433V27.3933C108.174 27.4967 108.517 27.7117 108.751 28.0383C108.987 28.365 109.106 28.7367 109.106 29.1533C109.106 29.58 109.024 29.9533 108.861 30.2733C108.697 30.5933 108.454 30.8433 108.131 31.0233C107.811 31.2033 107.414 31.2933 106.941 31.2933H103.796ZM105.016 30.1583H106.791C107.001 30.1583 107.189 30.1167 107.356 30.0333C107.522 29.9467 107.652 29.8267 107.746 29.6733C107.842 29.5167 107.891 29.3317 107.891 29.1183C107.891 28.925 107.849 28.7517 107.766 28.5983C107.682 28.445 107.561 28.3233 107.401 28.2333C107.241 28.14 107.049 28.0933 106.826 28.0933H105.016V30.1583ZM105.016 26.9683H106.636C106.809 26.9683 106.964 26.935 107.101 26.8683C107.237 26.8017 107.346 26.7033 107.426 26.5733C107.506 26.4433 107.546 26.2833 107.546 26.0933C107.546 25.8433 107.466 25.635 107.306 25.4683C107.146 25.3017 106.922 25.2183 106.636 25.2183H105.016V26.9683ZM112.129 31.4483C111.729 31.4483 111.399 31.3817 111.139 31.2483C110.879 31.115 110.673 30.945 110.519 30.7383C110.366 30.5317 110.253 30.3117 110.179 30.0783C110.106 29.845 110.058 29.625 110.034 29.4183C110.014 29.2083 110.004 29.0383 110.004 28.9083V25.8933H111.224V28.4933C111.224 28.66 111.236 28.8483 111.259 29.0583C111.283 29.265 111.336 29.465 111.419 29.6583C111.506 29.8483 111.633 30.005 111.799 30.1283C111.969 30.2517 112.198 30.3133 112.484 30.3133C112.638 30.3133 112.789 30.2883 112.939 30.2383C113.089 30.1883 113.224 30.1033 113.344 29.9833C113.468 29.86 113.566 29.6917 113.639 29.4783C113.713 29.265 113.749 28.995 113.749 28.6683L114.464 28.9733C114.464 29.4333 114.374 29.85 114.194 30.2233C114.018 30.5967 113.756 30.895 113.409 31.1183C113.063 31.3383 112.636 31.4483 112.129 31.4483ZM113.894 31.2933V29.6183H113.749V25.8933H114.959V31.2933H113.894ZM117.074 33.6933L118.114 30.8383L118.134 31.6783L115.779 25.8933H117.034L118.704 30.1733H118.384L120.009 25.8933H121.214L118.204 33.6933H117.074ZM124.219 31.4433C123.673 31.4433 123.193 31.325 122.779 31.0883C122.366 30.8517 122.043 30.5233 121.809 30.1033C121.579 29.6833 121.464 29.2 121.464 28.6533C121.464 28.0633 121.578 27.5517 121.804 27.1183C122.031 26.6817 122.346 26.3433 122.749 26.1033C123.153 25.8633 123.619 25.7433 124.149 25.7433C124.709 25.7433 125.184 25.875 125.574 26.1383C125.968 26.3983 126.259 26.7667 126.449 27.2433C126.639 27.72 126.711 28.2817 126.664 28.9283H125.469V28.4883C125.466 27.9017 125.363 27.4733 125.159 27.2033C124.956 26.9333 124.636 26.7983 124.199 26.7983C123.706 26.7983 123.339 26.9517 123.099 27.2583C122.859 27.5617 122.739 28.0067 122.739 28.5933C122.739 29.14 122.859 29.5633 123.099 29.8633C123.339 30.1633 123.689 30.3133 124.149 30.3133C124.446 30.3133 124.701 30.2483 124.914 30.1183C125.131 29.985 125.298 29.7933 125.414 29.5433L126.604 29.9033C126.398 30.39 126.078 30.7683 125.644 31.0383C125.214 31.3083 124.739 31.4433 124.219 31.4433ZM122.359 28.9283V28.0183H126.074V28.9283H122.359ZM127.78 31.2933V25.8933H128.845V27.2083L128.715 27.0383C128.782 26.8583 128.87 26.695 128.98 26.5483C129.093 26.3983 129.228 26.275 129.385 26.1783C129.518 26.0883 129.665 26.0183 129.825 25.9683C129.988 25.915 130.155 25.8833 130.325 25.8733C130.495 25.86 130.66 25.8667 130.82 25.8933V27.0183C130.66 26.9717 130.475 26.9567 130.265 26.9733C130.058 26.99 129.872 27.0483 129.705 27.1483C129.538 27.2383 129.402 27.3533 129.295 27.4933C129.192 27.6333 129.115 27.7933 129.065 27.9733C129.015 28.15 128.99 28.3417 128.99 28.5483V31.2933H127.78ZM133.876 31.2933V24.0933H135.081V31.2933H133.876ZM140.314 31.2933V28.6933C140.314 28.5233 140.302 28.335 140.279 28.1283C140.256 27.9217 140.201 27.7233 140.114 27.5333C140.031 27.34 139.904 27.1817 139.734 27.0583C139.567 26.935 139.341 26.8733 139.054 26.8733C138.901 26.8733 138.749 26.8983 138.599 26.9483C138.449 26.9983 138.312 27.085 138.189 27.2083C138.069 27.3283 137.972 27.495 137.899 27.7083C137.826 27.9183 137.789 28.1883 137.789 28.5183L137.074 28.2133C137.074 27.7533 137.162 27.3367 137.339 26.9633C137.519 26.59 137.782 26.2933 138.129 26.0733C138.476 25.85 138.902 25.7383 139.409 25.7383C139.809 25.7383 140.139 25.805 140.399 25.9383C140.659 26.0717 140.866 26.2417 141.019 26.4483C141.172 26.655 141.286 26.875 141.359 27.1083C141.432 27.3417 141.479 27.5633 141.499 27.7733C141.522 27.98 141.534 28.1483 141.534 28.2783V31.2933H140.314ZM136.569 31.2933V25.8933H137.644V27.5683H137.789V31.2933H136.569ZM143.309 31.2933V25.8083C143.309 25.6717 143.314 25.5217 143.324 25.3583C143.334 25.1917 143.362 25.0267 143.409 24.8633C143.455 24.7 143.54 24.5517 143.664 24.4183C143.817 24.2483 143.982 24.1317 144.159 24.0683C144.339 24.0017 144.515 23.965 144.689 23.9583C144.862 23.9483 145.014 23.9433 145.144 23.9433H145.819V24.9233H145.194C144.964 24.9233 144.792 24.9817 144.679 25.0983C144.569 25.2117 144.514 25.3617 144.514 25.5483V31.2933H143.309ZM142.439 26.8383V25.8933H145.819V26.8383H142.439ZM148.808 31.4433C148.268 31.4433 147.796 31.3217 147.393 31.0783C146.989 30.835 146.676 30.5 146.453 30.0733C146.233 29.6433 146.123 29.15 146.123 28.5933C146.123 28.0267 146.236 27.53 146.463 27.1033C146.689 26.6767 147.004 26.3433 147.408 26.1033C147.811 25.8633 148.278 25.7433 148.808 25.7433C149.351 25.7433 149.824 25.865 150.228 26.1083C150.631 26.3517 150.944 26.6883 151.168 27.1183C151.391 27.545 151.503 28.0367 151.503 28.5933C151.503 29.1533 151.389 29.6483 151.163 30.0783C150.939 30.505 150.626 30.84 150.223 31.0833C149.819 31.3233 149.348 31.4433 148.808 31.4433ZM148.808 30.3133C149.288 30.3133 149.644 30.1533 149.878 29.8333C150.111 29.5133 150.228 29.1 150.228 28.5933C150.228 28.07 150.109 27.6533 149.873 27.3433C149.636 27.03 149.281 26.8733 148.808 26.8733C148.484 26.8733 148.218 26.9467 148.008 27.0933C147.801 27.2367 147.648 27.4383 147.548 27.6983C147.448 27.955 147.398 28.2533 147.398 28.5933C147.398 29.1167 147.516 29.535 147.753 29.8483C147.993 30.1583 148.344 30.3133 148.808 30.3133Z" fill="#3578DB"/>
</svg>
