<svg width="353" height="55" viewBox="0 0 353 55" fill="none" xmlns="http://www.w3.org/2000/svg">
<path d="M101 16.002L248 16.002" stroke="#D2D2D2" stroke-width="2"/>
<path d="M203.555 50.002V39.922H204.801V50.002H203.555ZM209.869 50.212C209.165 50.212 208.56 50.037 208.056 49.687C207.552 49.3323 207.163 48.854 206.887 48.252C206.617 47.65 206.481 46.971 206.481 46.215C206.481 45.459 206.617 44.78 206.887 44.178C207.163 43.576 207.552 43.1023 208.056 42.757C208.56 42.407 209.162 42.232 209.862 42.232C210.576 42.232 211.176 42.4046 211.661 42.75C212.147 43.0953 212.513 43.569 212.76 44.171C213.012 44.773 213.138 45.4543 213.138 46.215C213.138 46.9663 213.012 47.6453 212.76 48.252C212.513 48.854 212.147 49.3323 211.661 49.687C211.176 50.037 210.579 50.212 209.869 50.212ZM210.023 49.071C210.532 49.071 210.95 48.9496 211.276 48.707C211.603 48.4596 211.843 48.1213 211.997 47.692C212.156 47.258 212.235 46.7656 212.235 46.215C212.235 45.655 212.156 45.1626 211.997 44.738C211.843 44.3086 211.605 43.975 211.283 43.737C210.961 43.4943 210.553 43.373 210.058 43.373C209.545 43.373 209.12 43.499 208.784 43.751C208.453 44.003 208.206 44.3436 208.042 44.773C207.884 45.2023 207.804 45.683 207.804 46.215C207.804 46.7516 207.886 47.237 208.049 47.671C208.213 48.1003 208.458 48.441 208.784 48.693C209.116 48.945 209.529 49.071 210.023 49.071ZM212.235 50.002V44.437H212.095V39.922H213.348V50.002H212.235ZM218.586 50.212C217.844 50.212 217.195 50.0486 216.64 49.722C216.089 49.3906 215.66 48.931 215.352 48.343C215.044 47.7503 214.89 47.0596 214.89 46.271C214.89 45.445 215.041 44.731 215.345 44.129C215.648 43.5223 216.07 43.0556 216.612 42.729C217.158 42.3976 217.797 42.232 218.53 42.232C219.29 42.232 219.937 42.407 220.469 42.757C221.005 43.107 221.407 43.6063 221.673 44.255C221.943 44.9036 222.06 45.676 222.023 46.572H220.763V46.124C220.749 45.1953 220.56 44.5023 220.196 44.045C219.832 43.583 219.29 43.352 218.572 43.352C217.802 43.352 217.216 43.5993 216.815 44.094C216.413 44.5886 216.213 45.298 216.213 46.222C216.213 47.1133 216.413 47.804 216.815 48.294C217.216 48.784 217.788 49.029 218.53 49.029C219.029 49.029 219.463 48.9146 219.832 48.686C220.2 48.4573 220.49 48.1283 220.7 47.699L221.897 48.112C221.603 48.7793 221.159 49.2973 220.567 49.666C219.979 50.03 219.318 50.212 218.586 50.212ZM215.793 46.572V45.571H221.379V46.572H215.793ZM228.759 50.002V46.215C228.759 45.8556 228.726 45.5103 228.661 45.179C228.6 44.8476 228.491 44.5513 228.332 44.29C228.178 44.024 227.968 43.814 227.702 43.66C227.441 43.506 227.109 43.429 226.708 43.429C226.395 43.429 226.111 43.4826 225.854 43.59C225.602 43.6926 225.385 43.8513 225.203 44.066C225.021 44.2806 224.879 44.5513 224.776 44.878C224.678 45.2 224.629 45.5803 224.629 46.019L223.81 45.767C223.81 45.0343 223.941 44.4066 224.202 43.884C224.468 43.3566 224.839 42.953 225.315 42.673C225.796 42.3883 226.36 42.246 227.009 42.246C227.499 42.246 227.917 42.323 228.262 42.477C228.607 42.631 228.894 42.8363 229.123 43.093C229.352 43.345 229.531 43.6296 229.662 43.947C229.793 44.2596 229.884 44.5793 229.935 44.906C229.991 45.228 230.019 45.5336 230.019 45.823V50.002H228.759ZM223.369 50.002V42.442H224.489V44.465H224.629V50.002H223.369ZM236.06 50.002C235.612 50.0906 235.169 50.1256 234.73 50.107C234.296 50.093 233.909 50.0066 233.568 49.848C233.227 49.6846 232.968 49.4326 232.791 49.092C232.642 48.7933 232.56 48.4923 232.546 48.189C232.537 47.881 232.532 47.5333 232.532 47.146V40.342H233.778V47.09C233.778 47.398 233.78 47.6616 233.785 47.881C233.794 48.1003 233.843 48.2893 233.932 48.448C234.1 48.7466 234.366 48.9216 234.73 48.973C235.099 49.0243 235.542 49.0103 236.06 48.931V50.002ZM230.999 43.471V42.442H236.06V43.471H230.999ZM237.735 41.105V39.817H238.981V41.105H237.735ZM237.735 50.002V42.442H238.981V50.002H237.735ZM245.302 50.002C244.854 50.0906 244.411 50.1256 243.972 50.107C243.538 50.093 243.151 50.0066 242.81 49.848C242.469 49.6846 242.21 49.4326 242.033 49.092C241.884 48.7933 241.802 48.4923 241.788 48.189C241.779 47.881 241.774 47.5333 241.774 47.146V40.342H243.02V47.09C243.02 47.398 243.022 47.6616 243.027 47.881C243.036 48.1003 243.085 48.2893 243.174 48.448C243.342 48.7466 243.608 48.9216 243.972 48.973C244.341 49.0243 244.784 49.0103 245.302 48.931V50.002ZM240.241 43.471V42.442H245.302V43.471H240.241ZM247.682 53.362L249.145 49.386L249.166 50.562L245.862 42.442H247.171L249.761 48.973H249.313L251.742 42.442H253.009L248.893 53.362H247.682ZM256.968 50.002V39.922H260.076C260.178 39.922 260.358 39.9243 260.615 39.929C260.871 39.9336 261.116 39.9523 261.35 39.985C262.129 40.0876 262.78 40.3723 263.303 40.839C263.83 41.301 264.227 41.889 264.493 42.603C264.759 43.317 264.892 44.1033 264.892 44.962C264.892 45.8206 264.759 46.607 264.493 47.321C264.227 48.035 263.83 48.6253 263.303 49.092C262.78 49.554 262.129 49.8363 261.35 49.939C261.116 49.967 260.869 49.9856 260.608 49.995C260.351 49.9996 260.174 50.002 260.076 50.002H256.968ZM258.249 48.812H260.076C260.253 48.812 260.451 48.8073 260.671 48.798C260.89 48.784 261.081 48.763 261.245 48.735C261.795 48.6323 262.241 48.4013 262.582 48.042C262.922 47.6826 263.172 47.2346 263.331 46.698C263.489 46.1613 263.569 45.5826 263.569 44.962C263.569 44.3273 263.487 43.7416 263.324 43.205C263.165 42.6683 262.915 42.2226 262.575 41.868C262.234 41.5133 261.791 41.287 261.245 41.189C261.081 41.1563 260.888 41.1353 260.664 41.126C260.44 41.1166 260.244 41.112 260.076 41.112H258.249V48.812ZM269.717 50.212C268.966 50.212 268.317 50.0416 267.771 49.701C267.23 49.3603 266.812 48.889 266.518 48.287C266.224 47.685 266.077 46.9943 266.077 46.215C266.077 45.4216 266.226 44.7263 266.525 44.129C266.824 43.5316 267.246 43.0673 267.792 42.736C268.338 42.4 268.98 42.232 269.717 42.232C270.473 42.232 271.124 42.4023 271.67 42.743C272.216 43.079 272.634 43.548 272.923 44.15C273.217 44.7473 273.364 45.4356 273.364 46.215C273.364 47.0036 273.217 47.699 272.923 48.301C272.629 48.8983 272.209 49.3673 271.663 49.708C271.117 50.044 270.468 50.212 269.717 50.212ZM269.717 49.029C270.501 49.029 271.084 48.7676 271.467 48.245C271.85 47.7223 272.041 47.0456 272.041 46.215C272.041 45.361 271.847 44.682 271.46 44.178C271.073 43.6693 270.492 43.415 269.717 43.415C269.19 43.415 268.756 43.534 268.415 43.772C268.074 44.01 267.82 44.339 267.652 44.759C267.484 45.179 267.4 45.6643 267.4 46.215C267.4 47.0643 267.596 47.7456 267.988 48.259C268.38 48.7723 268.956 49.029 269.717 49.029ZM278.09 50.212C277.325 50.212 276.674 50.0416 276.137 49.701C275.605 49.3556 275.199 48.882 274.919 48.28C274.639 47.678 274.495 46.992 274.485 46.222C274.495 45.4333 274.642 44.7403 274.926 44.143C275.216 43.541 275.629 43.072 276.165 42.736C276.702 42.4 277.348 42.232 278.104 42.232C278.902 42.232 279.588 42.428 280.162 42.82C280.741 43.212 281.128 43.7486 281.324 44.43L280.092 44.801C279.934 44.3623 279.675 44.0216 279.315 43.779C278.961 43.5363 278.552 43.415 278.09 43.415C277.572 43.415 277.145 43.5363 276.809 43.779C276.473 44.017 276.224 44.3483 276.06 44.773C275.897 45.193 275.813 45.676 275.808 46.222C275.818 47.062 276.011 47.741 276.389 48.259C276.772 48.7723 277.339 49.029 278.09 49.029C278.585 49.029 278.996 48.917 279.322 48.693C279.649 48.4643 279.896 48.1353 280.064 47.706L281.324 48.035C281.063 48.7396 280.655 49.2786 280.099 49.652C279.544 50.0253 278.874 50.212 278.09 50.212ZM285.623 50.198C285.138 50.198 284.72 50.121 284.37 49.967C284.025 49.813 283.738 49.6076 283.509 49.351C283.28 49.0943 283.101 48.8096 282.97 48.497C282.839 48.1843 282.746 47.8646 282.69 47.538C282.639 47.2113 282.613 46.9056 282.613 46.621V42.442H283.873V46.229C283.873 46.5836 283.906 46.9266 283.971 47.258C284.036 47.5893 284.146 47.888 284.3 48.154C284.459 48.42 284.669 48.63 284.93 48.784C285.196 48.938 285.527 49.015 285.924 49.015C286.237 49.015 286.521 48.9613 286.778 48.854C287.035 48.7466 287.254 48.588 287.436 48.378C287.618 48.1633 287.758 47.8926 287.856 47.566C287.954 47.2393 288.003 46.859 288.003 46.425L288.822 46.677C288.822 47.405 288.689 48.0326 288.423 48.56C288.162 49.0873 287.791 49.4933 287.31 49.778C286.834 50.058 286.272 50.198 285.623 50.198ZM288.143 50.002V47.979H288.003V42.442H289.256V50.002H288.143ZM300.253 50.002L300.26 45.165C300.26 44.6003 300.108 44.1593 299.805 43.842C299.506 43.52 299.117 43.359 298.636 43.359C298.356 43.359 298.09 43.4243 297.838 43.555C297.586 43.681 297.381 43.8816 297.222 44.157C297.063 44.4276 296.984 44.7753 296.984 45.2L296.326 44.934C296.317 44.3973 296.426 43.9283 296.655 43.527C296.888 43.121 297.206 42.806 297.607 42.582C298.008 42.358 298.461 42.246 298.965 42.246C299.754 42.246 300.374 42.4863 300.827 42.967C301.28 43.443 301.506 44.0846 301.506 44.892L301.499 50.002H300.253ZM291.209 50.002V42.442H292.322V44.465H292.462V50.002H291.209ZM295.738 50.002L295.745 45.214C295.745 44.6353 295.596 44.1826 295.297 43.856C294.998 43.5246 294.602 43.359 294.107 43.359C293.617 43.359 293.22 43.527 292.917 43.863C292.614 44.199 292.462 44.6446 292.462 45.2L291.804 44.808C291.804 44.318 291.921 43.8793 292.154 43.492C292.387 43.1046 292.705 42.8013 293.106 42.582C293.507 42.358 293.962 42.246 294.471 42.246C294.98 42.246 295.423 42.3533 295.801 42.568C296.179 42.7826 296.471 43.0906 296.676 43.492C296.881 43.8886 296.984 44.3623 296.984 44.913L296.977 50.002H295.738ZM306.537 50.212C305.795 50.212 305.146 50.0486 304.591 49.722C304.04 49.3906 303.611 48.931 303.303 48.343C302.995 47.7503 302.841 47.0596 302.841 46.271C302.841 45.445 302.992 44.731 303.296 44.129C303.599 43.5223 304.021 43.0556 304.563 42.729C305.109 42.3976 305.748 42.232 306.481 42.232C307.241 42.232 307.888 42.407 308.42 42.757C308.956 43.107 309.358 43.6063 309.624 44.255C309.894 44.9036 310.011 45.676 309.974 46.572H308.714V46.124C308.7 45.1953 308.511 44.5023 308.147 44.045C307.783 43.583 307.241 43.352 306.523 43.352C305.753 43.352 305.167 43.5993 304.766 44.094C304.364 44.5886 304.164 45.298 304.164 46.222C304.164 47.1133 304.364 47.804 304.766 48.294C305.167 48.784 305.739 49.029 306.481 49.029C306.98 49.029 307.414 48.9146 307.783 48.686C308.151 48.4573 308.441 48.1283 308.651 47.699L309.848 48.112C309.554 48.7793 309.11 49.2973 308.518 49.666C307.93 50.03 307.269 50.212 306.537 50.212ZM303.744 46.572V45.571H309.33V46.572H303.744ZM316.71 50.002V46.215C316.71 45.8556 316.678 45.5103 316.612 45.179C316.552 44.8476 316.442 44.5513 316.283 44.29C316.129 44.024 315.919 43.814 315.653 43.66C315.392 43.506 315.061 43.429 314.659 43.429C314.347 43.429 314.062 43.4826 313.805 43.59C313.553 43.6926 313.336 43.8513 313.154 44.066C312.972 44.2806 312.83 44.5513 312.727 44.878C312.629 45.2 312.58 45.5803 312.58 46.019L311.761 45.767C311.761 45.0343 311.892 44.4066 312.153 43.884C312.419 43.3566 312.79 42.953 313.266 42.673C313.747 42.3883 314.312 42.246 314.96 42.246C315.45 42.246 315.868 42.323 316.213 42.477C316.559 42.631 316.846 42.8363 317.074 43.093C317.303 43.345 317.483 43.6296 317.613 43.947C317.744 44.2596 317.835 44.5793 317.886 44.906C317.942 45.228 317.97 45.5336 317.97 45.823V50.002H316.71ZM311.32 50.002V42.442H312.44V44.465H312.58V50.002H311.32ZM324.011 50.002C323.563 50.0906 323.12 50.1256 322.681 50.107C322.247 50.093 321.86 50.0066 321.519 49.848C321.178 49.6846 320.919 49.4326 320.742 49.092C320.593 48.7933 320.511 48.4923 320.497 48.189C320.488 47.881 320.483 47.5333 320.483 47.146V40.342H321.729V47.09C321.729 47.398 321.731 47.6616 321.736 47.881C321.745 48.1003 321.794 48.2893 321.883 48.448C322.051 48.7466 322.317 48.9216 322.681 48.973C323.05 49.0243 323.493 49.0103 324.011 48.931V50.002ZM318.95 43.471V42.442H324.011V43.471H318.95Z" fill="#110000" fill-opacity="0.38"/>
<rect x="248" y="0.00195312" width="32" height="32" rx="16" fill="#D2D2D2"/>
<path d="M259.915 21.502H267.352V20.252H261.844V20.2207L264.524 17.4707C266.594 15.3535 267.165 14.4238 267.165 13.1895V13.1738C267.165 11.4082 265.672 10.041 263.633 10.041C261.532 10.041 259.844 11.4863 259.844 13.4395V13.4863H261.204V13.4473C261.204 12.2363 262.25 11.2676 263.657 11.2676C264.883 11.2676 265.75 12.0957 265.758 13.2441V13.2598C265.758 14.1973 265.407 14.8066 263.883 16.3926L259.915 20.5332V21.502Z" fill="white"/>
<path d="M60.1729 50.002V39.922H64.3379C64.4359 39.922 64.5619 39.9266 64.7159 39.936C64.8699 39.9406 65.0122 39.9546 65.1429 39.978C65.7262 40.0666 66.2069 40.2603 66.5849 40.559C66.9675 40.8576 67.2499 41.2356 67.4319 41.693C67.6185 42.1456 67.7119 42.6496 67.7119 43.205C67.7119 43.7556 67.6185 44.2596 67.4319 44.717C67.2452 45.1696 66.9605 45.5453 66.5779 45.844C66.1999 46.1426 65.7215 46.3363 65.1429 46.425C65.0122 46.4436 64.8675 46.4576 64.7089 46.467C64.5549 46.4763 64.4312 46.481 64.3379 46.481H61.8599V50.002H60.1729ZM61.8599 44.906H64.2679C64.3612 44.906 64.4662 44.9013 64.5829 44.892C64.6995 44.8826 64.8069 44.864 64.9049 44.836C65.1849 44.766 65.4042 44.6423 65.5629 44.465C65.7262 44.2876 65.8405 44.087 65.9059 43.863C65.9759 43.639 66.0109 43.4196 66.0109 43.205C66.0109 42.9903 65.9759 42.771 65.9059 42.547C65.8405 42.3183 65.7262 42.1153 65.5629 41.938C65.4042 41.7606 65.1849 41.637 64.9049 41.567C64.8069 41.539 64.6995 41.5226 64.5829 41.518C64.4662 41.5086 64.3612 41.504 64.2679 41.504H61.8599V44.906ZM69.2543 41.294V39.747H70.9413V41.294H69.2543ZM69.2543 50.002V42.442H70.9413V50.002H69.2543ZM76.3211 50.212C75.5418 50.212 74.8768 50.0393 74.3261 49.694C73.7754 49.344 73.3531 48.868 73.0591 48.266C72.7698 47.664 72.6228 46.9826 72.6181 46.222C72.6228 45.4473 72.7744 44.7613 73.0731 44.164C73.3764 43.562 73.8058 43.0906 74.3611 42.75C74.9164 42.4046 75.5768 42.232 76.3421 42.232C77.2008 42.232 77.9264 42.449 78.5191 42.883C79.1164 43.3123 79.5061 43.9003 79.6881 44.647L78.0081 45.102C77.8774 44.696 77.6604 44.381 77.3571 44.157C77.0538 43.9283 76.7084 43.814 76.3211 43.814C75.8824 43.814 75.5208 43.919 75.2361 44.129C74.9514 44.3343 74.7414 44.619 74.6061 44.983C74.4708 45.347 74.4031 45.76 74.4031 46.222C74.4031 46.9406 74.5641 47.5216 74.8861 47.965C75.2081 48.4083 75.6864 48.63 76.3211 48.63C76.7691 48.63 77.1214 48.5273 77.3781 48.322C77.6394 48.1166 77.8354 47.8203 77.9661 47.433L79.6881 47.818C79.4548 48.588 79.0464 49.1806 78.4631 49.596C77.8798 50.0066 77.1658 50.212 76.3211 50.212ZM85.5218 50.002C85.0225 50.0953 84.5325 50.135 84.0518 50.121C83.5758 50.1116 83.1488 50.0253 82.7708 49.862C82.3928 49.694 82.1058 49.4303 81.9098 49.071C81.7372 48.7443 81.6462 48.4106 81.6368 48.07C81.6275 47.7293 81.6228 47.3443 81.6228 46.915V40.342H83.3028V46.817C83.3028 47.1203 83.3052 47.3863 83.3098 47.615C83.3192 47.8436 83.3682 48.0303 83.4568 48.175C83.6248 48.455 83.8932 48.6113 84.2618 48.644C84.6305 48.6766 85.0505 48.658 85.5218 48.588V50.002ZM80.2508 43.765V42.442H85.5218V43.765H80.2508ZM89.9825 50.219C89.4225 50.219 88.9605 50.1256 88.5965 49.939C88.2325 49.7523 87.9431 49.5143 87.7285 49.225C87.5138 48.9356 87.3551 48.6276 87.2525 48.301C87.1498 47.9743 87.0821 47.6663 87.0495 47.377C87.0215 47.083 87.0075 46.845 87.0075 46.663V42.442H88.7155V46.082C88.7155 46.3153 88.7318 46.579 88.7645 46.873C88.7971 47.1623 88.8718 47.4423 88.9885 47.713C89.1098 47.979 89.2871 48.1983 89.5205 48.371C89.7585 48.5436 90.0781 48.63 90.4795 48.63C90.6941 48.63 90.9065 48.595 91.1165 48.525C91.3265 48.455 91.5155 48.336 91.6835 48.168C91.8561 47.9953 91.9938 47.7596 92.0965 47.461C92.1991 47.1623 92.2505 46.7843 92.2505 46.327L93.2515 46.754C93.2515 47.398 93.1255 47.9813 92.8735 48.504C92.6261 49.0266 92.2598 49.4443 91.7745 49.757C91.2891 50.065 90.6918 50.219 89.9825 50.219ZM92.4535 50.002V47.657H92.2505V42.442H93.9445V50.002H92.4535ZM95.9112 50.002V42.442H97.4022V44.283L97.2202 44.045C97.3135 43.793 97.4372 43.5643 97.5912 43.359C97.7498 43.149 97.9388 42.9763 98.1582 42.841C98.3448 42.715 98.5502 42.617 98.7742 42.547C99.0028 42.4723 99.2362 42.428 99.4742 42.414C99.7122 42.3953 99.9432 42.4046 100.167 42.442V44.017C99.9432 43.9516 99.6842 43.9306 99.3902 43.954C99.1008 43.9773 98.8395 44.059 98.6062 44.199C98.3728 44.325 98.1815 44.486 98.0322 44.682C97.8875 44.878 97.7802 45.102 97.7102 45.354C97.6402 45.6013 97.6052 45.8696 97.6052 46.159V50.002H95.9112ZM104.803 50.212C104.038 50.212 103.366 50.0463 102.787 49.715C102.209 49.3836 101.756 48.924 101.429 48.336C101.107 47.748 100.946 47.0713 100.946 46.306C100.946 45.48 101.105 44.7636 101.422 44.157C101.74 43.5456 102.181 43.072 102.745 42.736C103.31 42.4 103.963 42.232 104.705 42.232C105.489 42.232 106.154 42.4163 106.7 42.785C107.251 43.149 107.659 43.6646 107.925 44.332C108.191 44.9993 108.292 45.7856 108.226 46.691H106.553V46.075C106.549 45.2536 106.404 44.654 106.119 44.276C105.835 43.898 105.387 43.709 104.775 43.709C104.085 43.709 103.571 43.9236 103.235 44.353C102.899 44.7776 102.731 45.4006 102.731 46.222C102.731 46.9873 102.899 47.58 103.235 48C103.571 48.42 104.061 48.63 104.705 48.63C105.121 48.63 105.478 48.539 105.776 48.357C106.08 48.1703 106.313 47.902 106.476 47.552L108.142 48.056C107.853 48.7373 107.405 49.267 106.798 49.645C106.196 50.023 105.531 50.212 104.803 50.212ZM102.199 46.691V45.417H107.4V46.691H102.199Z" fill="#323232"/>
<rect x="69.0005" y="0.00195312" width="32" height="32" rx="16" fill="#2AACE3"/>
<path d="M84.7896 21.502H86.1489V10.2285H84.7739L81.7739 12.3848V13.7988L84.7583 11.7207H84.7896V21.502Z" fill="white"/>
</svg>
