<svg width="34" height="34" viewBox="0 0 34 34" fill="none" xmlns="http://www.w3.org/2000/svg">
<rect width="34" height="34" rx="8.54932" fill="#2AACE3"/>
<mask id="mask0_12052_24366" style="mask-type:alpha" maskUnits="userSpaceOnUse" x="2" y="2" width="30" height="30">
<rect x="2.07031" y="2.06982" width="29.8609" height="29.8609" fill="#D9D9D9"/>
</mask>
<g mask="url(#mask0_12052_24366)">
<path d="M-174.99 6.8654C-174.62 5.43541 -174.22 4.01541 -173.89 2.57541C-168.27 -21.7646 -147.73 -38.3546 -122.77 -38.7146C-121.78 -38.7246 -120.8 -38.7946 -119.48 -38.8546C-114.91 -81.5346 -95.52 -115.715 -60.21 -140.245C-34.58 -158.065 -5.81 -165.555 25.33 -163.735C47.23 -162.455 67.61 -156.085 86.43 -144.845C105.4 -133.515 120.75 -118.425 132.44 -99.6946C144.03 -81.1146 150.68 -60.8246 152.49 -39.6646C159.46 -38.3746 166.11 -37.8346 172.31 -35.8746C193.96 -29.0246 208.19 -9.12459 208.24 13.5254C208.26 23.8754 208.25 34.2354 208.24 44.5854C208.22 74.7154 185.52 97.5954 155.39 97.8654C151.02 97.9054 146.66 97.8954 142.29 97.8654C133.5 97.7954 128.94 93.2354 128.94 84.4654C128.94 47.4254 128.97 10.3754 128.93 -26.6646C128.88 -73.9146 101.46 -114.545 57.8 -132.185C-5.23001 -157.655 -78.09 -119.345 -92.64 -52.8446C-94.51 -44.2746 -95.47 -35.3446 -95.55 -26.5646C-95.87 10.2254 -95.68 47.0254 -95.69 83.8154C-95.69 92.6854 -98.56 96.7854 -107.31 97.7354C-124.45 99.5954 -140.96 97.7354 -155.11 86.5154C-165.5 78.2854 -171.85 67.6054 -174.25 54.5554C-174.38 53.8554 -174.74 53.1954 -175 52.5154C-174.99 37.3054 -174.99 22.0854 -174.99 6.8654Z" fill="#F8F8F8"/>
</g>
<path d="M30.8763 15.9219C30.8504 15.8222 30.8225 15.7231 30.7995 15.6226C30.4074 13.9243 28.9742 12.7668 27.2327 12.7417C27.1636 12.741 27.0952 12.7361 27.0031 12.7319C26.6843 9.75395 25.3313 7.36909 22.8676 5.65754C21.0793 4.41417 19.0719 3.89156 16.8992 4.01855C15.3711 4.10786 13.9492 4.55232 12.636 5.33658C11.3124 6.12711 10.2414 7.18 9.42573 8.48686C8.61705 9.78326 8.15306 11.199 8.02676 12.6754C7.54044 12.7654 7.07645 12.8031 6.64385 12.9398C5.13325 13.4178 4.14037 14.8063 4.13688 16.3866C4.13548 17.1088 4.13618 17.8317 4.13688 18.5538C4.13828 20.6561 5.72214 22.2525 7.82442 22.2714C8.12933 22.2741 8.43355 22.2734 8.73846 22.2714C9.35177 22.2665 9.66994 21.9483 9.66994 21.3364C9.66994 18.752 9.66784 16.1669 9.67063 13.5824C9.67412 10.2856 11.5873 7.45072 14.6336 6.21991C19.0315 4.44278 24.1152 7.11581 25.1304 11.7558C25.2609 12.3537 25.3279 12.9768 25.3334 13.5894C25.3558 16.1564 25.3425 18.7241 25.3432 21.291C25.3432 21.9099 25.5435 22.196 26.154 22.2623C27.3499 22.3921 28.5019 22.2623 29.4892 21.4794C30.2141 20.9052 30.6572 20.16 30.8246 19.2495C30.8337 19.2006 30.8588 19.1546 30.877 19.1071C30.8763 18.0459 30.8763 16.9839 30.8763 15.9219Z" fill="#F8F8F8"/>
<path d="M17.5265 29.1952C17.9005 29.1952 18.2759 29.212 18.6492 29.1917C19.5318 29.1443 20.2219 28.3949 20.2128 27.5144C20.2037 26.629 19.4788 25.8726 18.5947 25.8538C17.8726 25.8384 17.1497 25.8398 16.4276 25.8538C15.5422 25.8698 14.8151 26.6164 14.7991 27.5039C14.783 28.3928 15.4801 29.1471 16.378 29.1931C16.7597 29.2127 17.1435 29.1966 17.5265 29.1966C17.5265 29.1966 17.5265 29.1966 17.5265 29.1959V29.1952Z" fill="#F8F8F8"/>
<path d="M27.3281 23.2338H26.4287C25.6522 25.8922 23.8687 27.1391 21.1245 27.0644V27.954C24.0767 28.3734 26.9772 26.1022 27.3274 23.2338H27.3281Z" fill="#F8F8F8"/>
</svg>
