<svg width="115" height="66" viewBox="0 0 115 66" fill="none" xmlns="http://www.w3.org/2000/svg">
<path d="M41.9637 18.6307C41.9637 18.6307 37.3823 19.1893 37.3823 23.8067V55.6085C37.3823 55.6085 37.3823 60.2254 41.9637 59.6668L108.418 51.5647C108.418 51.5647 113 51.0063 113 46.3897V14.5884C113 14.5884 113 9.97045 108.418 10.5291L41.9637 18.6307Z" stroke="#3B4161" stroke-width="3"/>
<path d="M91.2531 20.2049C91.3821 19.72 91.5827 19.2847 91.8541 18.9003C92.1257 18.5143 92.4679 18.1966 92.8819 17.9442C93.2953 17.6916 93.7865 17.531 94.3559 17.4615C94.9637 17.3874 95.4672 17.4302 95.8688 17.5896C96.2691 17.7497 96.5952 17.9931 96.8474 18.3204C97.0993 18.6487 97.2767 19.0469 97.381 19.5158C97.4842 19.9859 97.5362 20.4879 97.5362 21.0214C97.5362 21.5565 97.4716 22.0554 97.3421 22.5211C97.2131 22.9862 97.0157 23.3979 96.7507 23.7555C96.4852 24.1139 96.146 24.4094 95.7323 24.6422C95.3181 24.875 94.8266 25.0266 94.2587 25.096C93.6641 25.1687 93.1633 25.1344 92.7554 24.9955C92.3483 24.8562 92.0194 24.6359 91.7665 24.3344C91.5141 24.033 91.3331 23.6576 91.2238 23.208C91.1138 22.7594 91.059 22.2674 91.059 21.7331C91.059 21.1988 91.1234 20.6894 91.2531 20.2049ZM93.0565 22.2321C93.0691 22.4917 93.1143 22.7308 93.1926 22.9488C93.2701 23.1671 93.3925 23.3445 93.5608 23.4806C93.7284 23.6162 93.9672 23.6656 94.2777 23.6277C94.5752 23.5916 94.8115 23.4844 94.9862 23.3067C95.1603 23.1293 95.2898 22.921 95.3739 22.6827C95.4577 22.4451 95.5094 22.1973 95.5286 21.9409C95.5483 21.6845 95.5576 21.4522 95.5576 21.2435C95.5576 21.0482 95.5483 20.8117 95.5286 20.5335C95.5094 20.2553 95.4609 19.9917 95.3837 19.7398C95.3057 19.4892 95.1868 19.2825 95.0248 19.1191C94.8625 18.9569 94.6399 18.8925 94.3559 18.9271C94.0457 18.9649 93.8034 19.0795 93.6282 19.2702C93.4543 19.4606 93.321 19.6857 93.2312 19.9438C93.1401 20.2022 93.0853 20.4763 93.0661 20.765C93.0467 21.0542 93.0371 21.3094 93.0371 21.5312C93.0368 21.7397 93.0434 21.9732 93.0565 22.2321ZM104.207 16.1038L96.2174 31.6L94.5303 31.8055L102.559 16.3045L104.207 16.1038ZM101.259 25.5125C101.388 25.0412 101.59 24.6194 101.86 24.2475C102.132 23.8751 102.475 23.5666 102.888 23.3207C103.302 23.0751 103.794 22.9173 104.363 22.8478C104.97 22.7739 105.474 22.813 105.875 22.9661C106.275 23.1195 106.603 23.3533 106.854 23.6681C107.106 23.9828 107.284 24.3678 107.387 24.8241C107.491 25.281 107.543 25.7762 107.543 26.3105C107.543 26.845 107.477 27.3482 107.349 27.8194C107.219 28.2915 107.021 28.7123 106.757 29.0839C106.492 29.4546 106.152 29.7601 105.738 29.9994C105.325 30.238 104.834 30.3931 104.265 30.4623C103.67 30.5347 103.169 30.4986 102.762 30.3523C102.355 30.2069 102.025 29.9766 101.773 29.6618C101.521 29.3478 101.34 28.9624 101.23 28.5068C101.12 28.0509 101.065 27.5562 101.065 27.0217C101.066 26.4877 101.13 25.9847 101.259 25.5125ZM103.063 27.5204C103.076 27.7931 103.121 28.0447 103.199 28.2762C103.276 28.5081 103.399 28.6985 103.567 28.8466C103.735 28.9957 103.974 29.0511 104.285 29.0133C104.582 28.9767 104.818 28.8637 104.992 28.673C105.167 28.4827 105.296 28.2615 105.381 28.0101C105.465 27.759 105.516 27.4984 105.536 27.2287C105.555 26.9596 105.564 26.7207 105.564 26.5117C105.564 26.3167 105.555 26.0864 105.536 25.8215C105.516 25.5572 105.468 25.3091 105.39 25.0772C105.313 24.8454 105.193 24.652 105.031 24.4951C104.87 24.3395 104.647 24.2788 104.363 24.3131C104.052 24.3512 103.81 24.4587 103.635 24.6367C103.461 24.8141 103.328 25.0256 103.238 25.2712C103.147 25.5168 103.092 25.7777 103.073 26.0534C103.054 26.3298 103.044 26.5784 103.044 26.8002C103.044 27.0089 103.05 27.2488 103.063 27.5204ZM80.2084 22.8897C80.4736 21.9519 80.8328 21.1818 81.2851 20.5796C81.7374 19.9769 82.2647 19.5215 82.8657 19.2143C83.4672 18.9063 84.1037 18.7113 84.7761 18.6296C85.4609 18.5459 86.1043 18.585 86.7055 18.7462C87.3065 18.907 87.8368 19.2336 88.2959 19.7248C88.7548 20.2162 89.117 20.8984 89.3815 21.7717C89.6468 22.6449 89.7796 23.7463 89.7796 25.0752C89.7796 26.4428 89.6468 27.6029 89.3815 28.5539C89.117 29.5045 88.755 30.2813 88.2959 30.8846C87.8368 31.4878 87.3065 31.9436 86.7055 32.2516C86.1043 32.5584 85.4609 32.7541 84.7761 32.838C84.1037 32.92 83.4669 32.8804 82.8657 32.7188C82.2647 32.5581 81.7374 32.2308 81.2851 31.7391C80.8328 31.2472 80.4736 30.5583 80.2084 29.6716C79.9438 28.7857 79.8111 27.6577 79.8111 26.2897C79.8111 24.9617 79.9438 23.828 80.2084 22.8897ZM82.6039 27.367C82.6297 27.9176 82.7104 28.4419 82.8467 28.9401C82.9818 29.4383 83.1988 29.8521 83.4962 30.1801C83.7933 30.5086 84.2198 30.639 84.7759 30.5713C85.3445 30.5019 85.7807 30.2663 86.0848 29.8646C86.3885 29.4634 86.6081 28.9965 86.7439 28.4649C86.8797 27.9339 86.9604 27.3896 86.9862 26.8327C87.0124 26.2759 87.025 25.8022 87.025 25.4111C87.025 25.1762 87.0215 24.8933 87.0152 24.5622C87.0092 24.2304 86.9834 23.8916 86.9382 23.5455C86.8923 23.1994 86.8279 22.8589 86.7436 22.5233C86.6596 22.1882 86.5336 21.8945 86.3658 21.6409C86.1974 21.3883 85.9846 21.1928 85.7264 21.055C85.467 20.9172 85.1502 20.8706 84.7756 20.9162C84.3998 20.962 84.0871 21.0851 83.8347 21.2856C83.5825 21.4855 83.376 21.7321 83.2142 22.0251C83.0522 22.3186 82.926 22.6431 82.8359 22.9997C82.7455 23.3563 82.6809 23.7127 82.642 24.0693C82.6034 24.4254 82.5805 24.7702 82.5739 25.1033C82.5678 25.4364 82.5646 25.7198 82.5646 25.9544C82.5653 26.3453 82.5777 26.8162 82.6039 27.367ZM69.4269 24.2044C69.6916 23.2666 70.0503 22.4965 70.5031 21.894C70.9552 21.2918 71.4825 20.8362 72.0832 20.529C72.6847 20.221 73.3212 20.0263 73.9936 19.9443C74.6792 19.8609 75.322 19.8992 75.9235 20.0608C76.5248 20.2217 77.0543 20.5483 77.5137 21.0395C77.9718 21.5307 78.3345 22.2128 78.5995 23.0862C78.8648 23.9595 78.9968 25.061 78.9968 26.3897C78.9968 27.7575 78.8648 28.9175 78.5995 29.8686C78.3345 30.8191 77.972 31.5963 77.5137 32.1995C77.0546 32.802 76.5248 33.2583 75.9235 33.5651C75.322 33.8733 74.6792 34.0688 73.9936 34.153C73.3212 34.2347 72.6844 34.1951 72.0832 34.0337C71.4825 33.8733 70.9552 33.5458 70.5031 33.0533C70.0503 32.5619 69.6916 31.8727 69.4269 30.9866C69.1616 30.1004 69.0296 28.9724 69.0296 27.6046C69.0296 26.2759 69.1616 25.1424 69.4269 24.2044ZM71.8219 28.6812C71.8472 29.2318 71.9287 29.7566 72.0637 30.2545C72.1993 30.753 72.4159 31.1665 72.7134 31.4945C73.0108 31.8233 73.4373 31.9534 73.9934 31.8857C74.5626 31.8166 74.9982 31.5807 75.3016 31.179C75.606 30.7778 75.8256 30.3109 75.9614 29.7794C76.0977 29.2483 76.1779 28.704 76.2045 28.1474C76.2302 27.5903 76.2426 27.1169 76.2426 26.7255C76.2426 26.4907 76.2395 26.208 76.2335 25.8767C76.2264 25.5446 76.2009 25.2058 76.155 24.86C76.1096 24.5139 76.0454 24.1731 75.9611 23.8377C75.8776 23.5024 75.7511 23.209 75.5835 22.9554C75.4154 22.7025 75.2022 22.5073 74.9432 22.3697C74.6845 22.2319 74.3677 22.1852 73.9931 22.2308C73.6181 22.277 73.3046 22.3998 73.0522 22.6002C72.8 22.8002 72.5935 23.0466 72.432 23.3398C72.2697 23.6332 72.1443 23.958 72.0534 24.3146C71.9635 24.6713 71.8987 25.0274 71.8596 25.3842C71.8214 25.7401 71.7985 26.0849 71.7922 26.4185C71.7853 26.7513 71.7818 27.0347 71.7818 27.2696C71.7826 27.6603 71.7957 28.1306 71.8219 28.6812ZM63.9479 35.1226V26.2501L60.5352 26.6661V24.575C61.0135 24.5294 61.4761 24.4374 61.9214 24.2986C62.3679 24.1593 62.7684 23.9608 63.1241 23.7022C63.4797 23.444 63.7801 23.1233 64.0254 22.7421C64.2713 22.3602 64.4333 21.9041 64.5105 21.3733L66.7019 21.1061V34.787L63.9479 35.1226Z" fill="#3B4161"/>
<path d="M107.482 40.1804V41.1961L104.607 41.5462V42.7218L107.245 42.4003V43.3371L104.607 43.6588V45.0041L107.543 44.646V45.6602L103.41 46.1639V40.6774L107.482 40.1804ZM102.54 40.7831V41.7976L99.6658 42.1489V43.3235L102.304 43.002V43.94L99.6658 44.2618V45.6058L102.602 45.2484V46.2631L98.4688 46.7671V41.2791L102.54 40.7831ZM93.3829 42.9143V41.8998L97.8436 41.3553V42.3707L96.2123 42.57V47.0423L95.0149 47.1879V42.7151L93.3829 42.9143ZM89.3497 42.3913L91.6221 45.7958L91.637 45.7935V42.1126L92.7582 41.9758V47.4628L91.5608 47.6084L89.2965 44.2114L89.2811 44.2129V47.8868L88.1601 48.0232V42.5369L89.3497 42.3913ZM85.6512 42.8429L87.6871 48.0816L86.4438 48.2329L86.0326 47.0601L83.997 47.3094L83.5699 48.5828L82.3657 48.7294L84.4243 42.9915L85.6512 42.8429ZM85.7204 46.2005L85.0343 44.2696L85.0187 44.2721L84.3092 46.3724L85.7204 46.2005ZM80.3671 43.4862C80.6117 43.4569 80.8315 43.4691 81.0274 43.5248C81.2233 43.5804 81.3904 43.6691 81.53 43.7897C81.67 43.9112 81.7771 44.0591 81.85 44.2322C81.9242 44.4049 81.9608 44.5961 81.9608 44.8064C81.9608 45.1282 81.8937 45.4171 81.7591 45.6685C81.6246 45.9208 81.4048 46.1266 81.0994 46.2872V46.3017C81.2468 46.3246 81.3692 46.3724 81.4653 46.4453C81.5623 46.5178 81.6405 46.609 81.7018 46.717C81.7632 46.825 81.8076 46.9453 81.8354 47.0806C81.8631 47.216 81.8826 47.3523 81.8922 47.4891C81.8977 47.5756 81.9028 47.6776 81.9081 47.7936C81.9129 47.9121 81.9219 48.0314 81.9343 48.152C81.9469 48.2735 81.9669 48.3875 81.9949 48.4943C82.0226 48.6013 82.0648 48.69 82.1213 48.7592L80.9239 48.9061C80.8575 48.7389 80.8169 48.5377 80.8023 48.2976C80.7866 48.059 80.7644 47.8315 80.7336 47.6154C80.693 47.3332 80.6064 47.133 80.4741 47.016C80.3421 46.8984 80.1263 46.8591 79.8262 46.8957L78.6296 47.0408V49.1857L77.4319 49.3311V43.8445L80.3671 43.4862ZM79.9406 46.0213C80.2147 45.987 80.4206 45.9005 80.5582 45.7607C80.6955 45.6218 80.7642 45.4128 80.7642 45.1364C80.7642 44.8703 80.6955 44.6848 80.5582 44.5816C80.4206 44.4781 80.2147 44.4427 79.9406 44.4758L78.6293 44.6362V46.1815L79.9406 46.0213ZM74.9227 44.1505L76.9592 49.3892L75.7163 49.5406L75.3041 48.3693L73.2685 48.6171L72.8419 49.8904L71.6372 50.0375L73.6958 44.2994L74.9227 44.1505ZM74.9917 47.5082L74.3056 45.5772L74.2905 45.5797L73.5815 47.6801L74.9917 47.5082ZM70.5622 49.7496C70.1498 50.1616 69.5806 50.4117 68.8537 50.5004C68.1169 50.5899 67.546 50.4799 67.1424 50.1706C66.738 49.8614 66.5356 49.3336 66.5356 48.5853V45.173L67.7327 45.0274V48.4387C67.7327 48.5878 67.7454 48.7321 67.7711 48.872C67.7964 49.0131 67.8496 49.1339 67.9314 49.2336C68.0122 49.3336 68.1255 49.41 68.2706 49.4609C68.4152 49.512 68.6101 49.5223 68.8539 49.4927C69.281 49.4403 69.5753 49.3098 69.7389 49.0973C69.9009 48.8855 69.9824 48.5755 69.9824 48.1645V44.7522L71.1796 44.6066V48.0192C71.1793 48.7615 70.9734 49.3391 70.5622 49.7496ZM63.9969 50.9267C63.7379 51.0688 63.4757 51.1563 63.2119 51.1881C62.7944 51.2395 62.4196 51.2111 62.0864 51.1061C61.7538 51.0006 61.4731 50.8332 61.2447 50.6062C61.0155 50.3774 60.8398 50.0977 60.7184 49.7666C60.596 49.4361 60.5349 49.071 60.5349 48.6705C60.5349 48.261 60.5957 47.8733 60.7184 47.5069C60.8396 47.141 61.0155 46.8132 61.2447 46.5245C61.4731 46.2358 61.7538 45.9973 62.0864 45.8073C62.4196 45.6183 62.7944 45.499 63.2119 45.4477C63.4908 45.4133 63.7619 45.4216 64.0239 45.475C64.2851 45.5274 64.5222 45.6228 64.7327 45.7614C64.9444 45.8993 65.1181 46.081 65.2559 46.305C65.3917 46.528 65.4767 46.7952 65.507 47.1044L64.3629 47.2433C64.2915 46.9453 64.1552 46.7305 63.9512 46.602C63.7478 46.4732 63.5012 46.4268 63.2119 46.4616C62.9418 46.4947 62.7134 46.5744 62.5256 46.703C62.3366 46.8303 62.1841 46.9904 62.0675 47.1816C61.9509 47.3718 61.8656 47.5831 61.8126 47.8152C61.7591 48.047 61.7321 48.2833 61.7321 48.5246C61.7321 48.7554 61.7591 48.976 61.8126 49.1875C61.8656 49.398 61.9509 49.5842 62.0675 49.7438C62.1844 49.904 62.3366 50.0245 62.5256 50.1065C62.7134 50.1892 62.9416 50.2132 63.2119 50.1804C63.6079 50.1328 63.9141 49.9939 64.1302 49.7651C64.346 49.5368 64.4719 49.2273 64.5075 48.8399L63.3033 48.9862V48.0871L65.5906 47.8086V50.7741L64.8276 50.8673L64.7062 50.2601C64.4926 50.5628 64.2559 50.7856 63.9969 50.9267Z" fill="#3B4161"/>
<path d="M104.076 33.0735V35.133L106.003 32.8392L107.357 32.6748L105.429 34.8716L107.543 37.6203L106.182 37.7859L104.698 35.7337L104.076 36.4419V38.0433L102.992 38.1751V33.2071L104.076 33.0735ZM101.039 34.7701C100.974 34.6731 100.894 34.5914 100.797 34.5245C100.7 34.4576 100.591 34.4098 100.469 34.3802C100.347 34.3506 100.219 34.3436 100.086 34.3606C99.8409 34.3902 99.6342 34.4631 99.4643 34.5792C99.2932 34.6952 99.1554 34.8395 99.0494 35.0125C98.9436 35.1854 98.8666 35.3761 98.8182 35.5866C98.7702 35.7971 98.7455 36.0106 98.7455 36.2292C98.7455 36.4372 98.7702 36.6374 98.8182 36.8296C98.8666 37.0206 98.9436 37.1877 99.0494 37.3333C99.1554 37.4777 99.2932 37.5885 99.4643 37.6621C99.6342 37.7363 99.8409 37.7591 100.086 37.7295C100.416 37.6884 100.676 37.5556 100.862 37.3278C101.049 37.1018 101.162 36.8186 101.204 36.4795L102.253 36.351C102.225 36.666 102.154 36.9547 102.039 37.2198C101.924 37.4835 101.772 37.7158 101.583 37.9158C101.394 38.1145 101.174 38.2761 100.921 38.4002C100.667 38.5227 100.389 38.6039 100.085 38.6403C99.7069 38.6866 99.3682 38.6618 99.0663 38.5661C98.7652 38.4706 98.511 38.3195 98.3035 38.1135C98.0966 37.9067 97.9378 37.6529 97.827 37.3539C97.7169 37.0537 97.6617 36.7229 97.6617 36.3612C97.6617 35.9906 97.7172 35.6392 97.827 35.3082C97.9375 34.9761 98.0963 34.6804 98.3035 34.4178C98.511 34.1564 98.7652 33.9401 99.0663 33.7685C99.3682 33.5965 99.7069 33.4875 100.085 33.4419C100.356 33.4091 100.613 33.4171 100.855 33.467C101.097 33.5158 101.313 33.6048 101.504 33.7324C101.695 33.8597 101.853 34.0281 101.977 34.2348C102.101 34.4418 102.179 34.6887 102.212 34.9716L101.162 35.0989C101.144 34.9759 101.103 34.8666 101.039 34.7701ZM95.6041 34.1073L97.4481 38.8503L96.3224 38.9878L95.9498 37.9268L94.1058 38.1521L93.7193 39.3051L92.6282 39.4382L94.493 34.2426L95.6041 34.1073ZM95.6666 37.1469L95.0452 35.3999L95.0316 35.4012L94.3887 37.3025L95.6666 37.1469ZM90.5294 38.8442C90.6355 38.8317 90.7367 38.8092 90.8336 38.7773C90.9303 38.7443 91.0151 38.6989 91.089 38.6408C91.1625 38.5829 91.2213 38.5102 91.265 38.4212C91.3084 38.3325 91.3306 38.2225 91.3306 38.0924C91.3306 37.8376 91.2589 37.6649 91.1165 37.5729C90.9737 37.4807 90.7854 37.4501 90.5499 37.4784L89.3696 37.6215V38.9861L90.5294 38.8442ZM90.6054 34.7165C90.8404 34.6869 91.0537 34.6812 91.2481 34.6995C91.4411 34.7188 91.607 34.7669 91.7453 34.8451C91.8826 34.9235 91.9896 35.0363 92.0661 35.1851C92.1421 35.334 92.1797 35.5242 92.1797 35.7558C92.1797 36.0059 92.1231 36.2219 92.0108 36.4028C91.8982 36.5835 91.7309 36.7404 91.51 36.8737C91.8134 36.9259 92.0406 37.0522 92.19 37.2534C92.3397 37.4561 92.4147 37.713 92.4147 38.0233C92.4147 38.2734 92.3667 38.4977 92.2693 38.6919C92.1729 38.8874 92.0431 39.0523 91.8793 39.1878C91.716 39.3242 91.5297 39.4322 91.3202 39.5144C91.1107 39.5948 90.8959 39.6494 90.6743 39.6758L88.2853 39.967V34.9987L90.6054 34.7165ZM90.4676 36.7439C90.6604 36.7204 90.8197 36.6544 90.9439 36.5462C91.0681 36.4379 91.1297 36.2798 91.1297 36.072C91.1297 35.9547 91.1095 35.8625 91.0681 35.7946C91.0264 35.7252 90.9712 35.6728 90.902 35.64C90.8336 35.6069 90.7538 35.5876 90.664 35.5821C90.5746 35.5773 90.481 35.5798 90.3846 35.5924L89.3696 35.7149V36.8772L90.4676 36.7439ZM81.2288 35.8593L82.4439 35.7104L83.5966 37.5323L84.7431 35.4307L85.9516 35.2829L84.1216 38.5678V40.4747L83.0378 40.6068V38.6726L81.2288 35.8593ZM80.9734 35.8901V36.8091L78.3698 37.1263V38.1907L80.7596 37.8997V38.749L78.3698 39.0402V40.2579L81.0287 39.9339V40.8516L77.2863 41.3087V36.3392L80.9734 35.8901ZM73.247 36.8319L75.3044 39.9146L75.3188 39.9133V36.579L76.3334 36.4565V41.4245L75.2494 41.5563L73.1986 38.4806L73.1847 38.4829V41.8082L72.1698 41.932V36.9639L73.247 36.8319ZM66.7496 39.0959C66.8602 38.7651 67.0187 38.4681 67.2262 38.2065C67.4336 37.9448 67.6878 37.7278 67.9894 37.5559C68.2903 37.3852 68.6295 37.2762 69.0074 37.2306C69.3895 37.1837 69.7295 37.21 70.0294 37.3083C70.3282 37.406 70.5816 37.5606 70.7886 37.7724C70.9958 37.9837 71.1549 38.2405 71.2657 38.5453C71.376 38.8503 71.431 39.1878 71.431 39.5587C71.431 39.9214 71.3757 40.2647 71.2657 40.5912C71.1551 40.9185 70.9961 41.21 70.7886 41.4679C70.5816 41.7247 70.3282 41.9375 70.0294 42.1059C69.7295 42.2741 69.3895 42.3823 69.0074 42.4287C68.6295 42.4755 68.2903 42.4502 67.9894 42.3548C67.6878 42.259 67.4334 42.1079 67.2262 41.9022C67.0189 41.6952 66.8604 41.4415 66.7496 41.1426C66.6391 40.8423 66.584 40.5113 66.584 40.1499C66.5838 39.778 66.6391 39.4277 66.7496 39.0959ZM67.7408 40.617C67.7885 40.8093 67.8655 40.9767 67.9715 41.122C68.0775 41.2664 68.2153 41.3769 68.3862 41.4508C68.5556 41.5247 68.7628 41.5475 69.0074 41.518C69.2515 41.4874 69.4589 41.4145 69.6288 41.2997C69.7989 41.1839 69.937 41.0406 70.0428 40.8687C70.1488 40.698 70.2262 40.5115 70.275 40.3095C70.3229 40.1058 70.3472 39.8998 70.3472 39.6921C70.3472 39.4735 70.3229 39.2653 70.275 39.0665C70.2262 38.8686 70.1488 38.6959 70.0428 38.549C69.937 38.4012 69.7989 38.2912 69.6288 38.2162C69.4589 38.142 69.2515 38.1192 69.0074 38.1501C68.7628 38.1796 68.5556 38.2523 68.3862 38.3681C68.2153 38.4844 68.0775 38.6287 67.9715 38.8014C67.8655 38.9741 67.7885 39.1653 67.7408 39.3758C67.6921 39.586 67.6674 39.7998 67.6674 40.0181C67.6674 40.2261 67.6921 40.4263 67.7408 40.617ZM62.061 38.1962L63.2137 41.4724L63.2283 41.4699L64.3182 37.9208L65.8448 37.7346V42.7023L64.8298 42.8266V39.3046L64.8162 39.3069L63.6072 42.9755L62.7725 43.0778L61.5637 39.7392L61.5498 39.7404V43.2269L60.5349 43.3507V38.3814L62.061 38.1962Z" fill="#3B4161"/>
<path d="M31.8814 8.85326L29.8885 5.50941L27.7736 3.22664L22.8241 1.58691L18.5534 2.49587L16.8295 3.37299L16.1622 5.39138L16.5534 7.15565L17.8073 11.2729L18.5681 15.441C18.5681 15.441 17.5317 19.2439 16.9158 20.3549C16.3005 21.4653 14.1553 23.6388 14.1553 23.6388C14.1553 23.6388 13.866 24.0588 13.2921 24.6801C12.7184 25.2998 13.1283 25.0249 11.8145 25.6264C10.5015 26.2273 8.01706 27.1255 8.01706 27.1255L3.96268 31.765L2.15773 36.6075L1.90381 43.9365L3.51567 48.6865L6.82369 54.2196L9.50347 56.2984L13.0977 57.0319L14.6975 57.3013L19.5467 60.6685L25.8406 62.838L29.5363 63.153L33.807 63.6409L40.7987 63.5262L45.9515 61.5371L52.1614 56.5004L54.7476 49.5994L52.7654 45.7489L53.8414 44.339L56.632 39.3947L56.7862 36.6724L55.3882 34.257L51.9691 31.5577L49.7164 31.3472L50.7066 29.8551L54.1441 24.9314L53.897 21.4661L52.7457 18.3262C52.7457 18.3262 51.8012 17.1441 50.1591 16.8494C48.5154 16.5529 42.5506 16.6777 42.5506 16.6777L37.9929 18.1976L34.8623 20.4719L32.7374 22.0014L31.9463 20.8909L31.7509 17.9147L32.0379 14.5092L31.8814 8.85326Z" fill="#E6E3DE"/>
<path d="M32.6966 8.96205C29.2525 -1.64239 17.1878 0.101086 15.5535 4.1544C13.9197 8.20597 17.3955 9.91009 17.6108 14.7917C17.7895 18.8104 15.3533 21.6525 13.0115 24.6448C9.16714 24.2827 -0.947485 30.7255 1.33022 43.0458C3.56072 55.0985 10.282 58.9819 14.1542 57.5322C19.281 62.8869 27.3244 63.5771 30.3899 63.634C33.6499 65.0734 37.8207 65.4714 42.2521 64.3627C48.5032 62.8014 56.5988 53.733 55.043 47.9347C54.7649 46.9007 54.227 46.0276 53.5061 45.2905C55.1069 44.1946 58.6481 41.0876 57.0996 35.7853C56.3866 33.3494 53.9695 31.5269 50.7471 30.6205C52.7418 29.073 56.7674 25.1731 54.7734 20.0632C52.5023 14.2504 43.2895 14.6887 38.305 17.0582C36.4105 17.9601 34.1585 19.2835 32.2135 20.8874C32.1923 20.6534 32.1511 20.3942 32.0845 20.1113C31.5176 17.7403 34.2045 13.601 32.6966 8.96205ZM53.1374 20.7992C54.7674 24.8748 51.4263 28.6159 49.5234 30.328C46.5892 29.7474 43.1386 29.8752 39.7417 30.9152C37.7139 31.5352 35.8405 32.3858 34.1999 33.3654C32.5156 32.9699 30.0325 32.0562 29.2783 30.0221C28.1031 26.8559 31.9356 21.7169 38.9547 18.7282C45.9751 15.7372 51.4427 16.5675 53.1374 20.7992ZM55.7843 36.0524C56.9411 40.3701 53.5985 43.529 52.5005 44.4284C48.8773 41.8254 42.5331 41.5389 38.7573 42.2655C36.0258 42.7887 33.477 43.7551 31.4419 44.9901C30.506 44.4718 29.4277 43.4982 29.3691 41.7472C29.2639 38.6199 32.9853 34.8846 40.1882 32.5752C47.3891 30.2659 54.9097 32.7968 55.7843 36.0524ZM16.9851 5.19943C19.0483 0.745897 28.8477 1.91147 31.1357 9.58556C32.347 13.6542 30.3101 18.4347 30.8765 20.806C30.9747 21.217 31.0918 21.5302 31.2152 21.7638C28.5743 24.2348 26.8279 27.2483 28.0281 30.3737C29.0847 33.1276 31.1877 34.0932 32.5767 34.431C29.4547 36.7007 27.5829 39.4343 27.8991 41.7314C28.2161 44.0332 29.4529 45.1735 30.3588 45.7128C27.8302 47.5525 26.4135 49.8508 27.0407 52.185C27.8252 55.095 32.0843 57.8354 37.2255 57.3685C37.9544 58.7183 40.4585 59.8463 42.288 59.7646C40.1352 58.7226 39.0908 57.9462 38.8202 57.1262C40.769 56.7012 42.8006 55.7992 44.7873 54.2698C35.9001 57.9885 29.1879 54.368 28.3633 51.4111C27.5367 48.4534 33.5568 44.9274 38.719 43.8039C42.1825 43.0486 51.6219 42.8316 53.1535 48.5369C54.6854 54.2385 46.7056 60.9986 41.8756 62.4794C37.7848 63.7322 29.878 63.9031 25.7522 60.1448C26.3234 60.8713 27.0061 61.5309 27.7813 62.1153C25.2527 61.9549 12.09 60.3813 9.64419 44.9875C9.64292 49.8343 10.9527 53.4175 12.9244 56.0772C10.4299 56.3388 4.51582 54.0395 2.8969 43.423C1.28832 32.8682 8.33698 27.4982 11.7939 26.2624C10.4153 28.1776 9.25094 30.2361 8.95739 32.7659C8.39882 37.5886 9.93142 40.5007 9.93142 40.5007C9.31429 36.9107 9.74944 33.5017 11.1712 30.2338C13.8649 24.0441 19.4065 21.5974 19.1296 15.2713C18.8961 9.92563 15.9182 7.50376 16.9851 5.19943Z" fill="#19959E"/>
<path d="M32.6966 8.96205C29.2525 -1.64239 17.1878 0.101086 15.5535 4.1544C13.9197 8.20597 17.3955 9.91009 17.6108 14.7917C17.7895 18.8104 15.3533 21.6525 13.0115 24.6448C9.16714 24.2827 -0.947485 30.7255 1.33022 43.0458C3.56072 55.0985 10.282 58.9819 14.1542 57.5322C19.281 62.8869 27.3244 63.5771 30.3899 63.634C33.6499 65.0734 37.8207 65.4714 42.2521 64.3627C48.5032 62.8014 56.5988 53.733 55.043 47.9347C54.7649 46.9007 54.227 46.0276 53.5061 45.2905C55.1069 44.1946 58.6481 41.0876 57.0996 35.7853C56.3866 33.3494 53.9695 31.5269 50.7471 30.6205C52.7418 29.073 56.7674 25.1731 54.7734 20.0632C52.5023 14.2504 43.2895 14.6887 38.305 17.0582C36.4105 17.9601 34.1585 19.2835 32.2135 20.8874C32.1923 20.6534 32.1511 20.3942 32.0845 20.1113C31.5176 17.7403 34.2045 13.601 32.6966 8.96205ZM53.1374 20.7992C54.7674 24.8748 51.4263 28.6159 49.5234 30.328C46.5892 29.7474 43.1386 29.8752 39.7417 30.9152C37.7139 31.5352 35.8405 32.3858 34.1999 33.3654C32.5156 32.9699 30.0325 32.0562 29.2783 30.0221C28.1031 26.8559 31.9356 21.7169 38.9547 18.7282C45.9751 15.7372 51.4427 16.5675 53.1374 20.7992ZM55.7843 36.0524C56.9411 40.3701 53.5985 43.529 52.5005 44.4284C48.8773 41.8254 42.5331 41.5389 38.7573 42.2655C36.0258 42.7887 33.477 43.7551 31.4419 44.9901C30.506 44.4718 29.4277 43.4982 29.3691 41.7472C29.2639 38.6199 32.9853 34.8846 40.1882 32.5752C47.3891 30.2659 54.9097 32.7968 55.7843 36.0524ZM16.9851 5.19943C19.0483 0.745897 28.8477 1.91147 31.1357 9.58556C32.347 13.6542 30.3101 18.4347 30.8765 20.806C30.9747 21.217 31.0918 21.5302 31.2152 21.7638C28.5743 24.2348 26.8279 27.2483 28.0281 30.3737C29.0847 33.1276 31.1877 34.0932 32.5767 34.431C29.4547 36.7007 27.5829 39.4343 27.8991 41.7314C28.2161 44.0332 29.4529 45.1735 30.3588 45.7128C27.8302 47.5525 26.4135 49.8508 27.0407 52.185C27.8252 55.095 32.0843 57.8354 37.2255 57.3685C37.9544 58.7183 40.4586 59.8463 42.288 59.7646C40.1352 58.7226 39.0908 57.9462 38.8202 57.1262C40.769 56.7012 42.8006 55.7992 44.7873 54.2698C35.9001 57.9885 29.1879 54.368 28.3633 51.4111C27.5367 48.4534 33.5568 44.9274 38.719 43.8039C42.1825 43.0486 51.6219 42.8316 53.1535 48.5369C54.6854 54.2385 46.7056 60.9986 41.8756 62.4794C37.7848 63.7322 29.878 63.9031 25.7522 60.1448C26.3234 60.8713 27.0061 61.5309 27.7813 62.1153C25.2527 61.9549 12.09 60.3813 9.64419 44.9875C9.64292 49.8343 10.9527 53.4175 12.9244 56.0772C10.4299 56.3388 4.51582 54.0395 2.8969 43.423C1.28832 32.8682 8.33698 27.4982 11.7939 26.2624C10.4153 28.1776 9.25094 30.2361 8.95739 32.7659C8.39882 37.5886 9.93142 40.5007 9.93142 40.5007C9.31429 36.9107 9.74944 33.5017 11.1712 30.2338C13.8649 24.0441 19.4065 21.5974 19.1296 15.2713C18.8961 9.92563 15.9182 7.50376 16.9851 5.19943Z" stroke="#19959E" stroke-miterlimit="10"/>
</svg>
