<svg width="52" height="24" viewBox="0 0 52 24" fill="none" xmlns="http://www.w3.org/2000/svg">
<g clip-path="url(#clip0_11582_35876)">
<path d="M12.1707 0C13.673 0.750939 15.1753 1.50235 16.6781 2.25235C18.8651 3.34424 21.0527 4.43566 23.2397 5.52755C23.3073 5.56136 23.3739 5.59706 23.4893 5.6567H0.488281C0.585369 5.60363 0.643059 5.56935 0.702626 5.53976C4.33241 3.7284 7.96219 1.9175 11.592 0.106606C11.6609 0.0723231 11.7285 0.0356919 11.7965 0C11.9212 0 12.046 0 12.1707 0Z" fill="black"/>
<path d="M0 23.1085C0.238734 22.5736 0.527184 22.0702 0.885988 21.6038C1.11487 21.3056 1.38222 21.1812 1.764 21.1816C8.59066 21.1906 15.4168 21.1896 22.2435 21.1831C22.5878 21.1831 22.8387 21.292 23.0465 21.563C23.3851 22.0044 23.6919 22.4628 23.8987 22.9822C24.1126 23.5185 23.7955 23.998 23.2233 23.998C15.7334 23.999 8.24405 23.998 0.754192 24.0013C0.372406 24.0013 0.151026 23.8031 0 23.4842V23.1095L0 23.1085Z" fill="black"/>
<path d="M0 7.07812H24C23.863 7.42377 23.7552 7.745 23.6112 8.04885C23.3354 8.63166 22.9503 9.14215 22.5179 9.61789C22.3448 9.80809 22.1356 9.89215 21.8753 9.89215C15.2832 9.88933 8.6915 9.88886 2.09935 9.89262C1.80903 9.89262 1.59187 9.7832 1.40614 9.57233C0.791245 8.87493 0.28376 8.11601 0.0272034 7.20962C0.0234512 7.19553 0.0093805 7.18473 0 7.17205C0 7.14059 0 7.10959 0 7.07812H0Z" fill="black"/>
<path d="M2.82617 11.3066H7.05443V19.7675H2.82617V11.3066Z" fill="black"/>
<path d="M16.9102 19.7615V11.3105H21.1398V19.7615H16.9102Z" fill="black"/>
<path d="M14.0739 19.7669H9.89062V11.3145H14.0739V19.7669Z" fill="black"/>
</g>
<rect x="28" width="24" height="24" rx="3" fill="#2AACE3"/>
<g clip-path="url(#clip1_11582_35876)">
<path d="M49.9997 18.1964C49.863 18.5533 49.6444 18.6673 49.3469 18.6666C43.1102 18.659 36.8741 18.6611 30.6374 18.659C30.5346 18.659 30.4277 18.6513 30.3306 18.6124C30.1297 18.531 30.0117 18.3084 30.0013 18.0315C29.9992 17.971 30.0003 17.9098 30.0003 17.8493C30.0003 13.9532 30.0003 10.0571 30.0003 6.16107C29.9997 5.5705 30.1714 5.33956 30.6103 5.33956C33.9888 5.33956 37.3673 5.33956 40.7462 5.33956C41.026 5.33956 41.1648 5.46755 41.1689 5.7291C41.1736 5.99552 41.0296 6.13185 40.7374 6.13185C38.3029 6.13185 35.868 6.13185 33.4335 6.13185H33.1622C33.1622 6.26054 33.1622 6.3621 33.1622 6.46296C33.1622 8.66733 33.1622 10.871 33.1622 13.0754C33.1622 13.1533 33.1663 13.2326 33.1596 13.3098C33.1408 13.524 33.0082 13.6736 32.8522 13.6632C32.7045 13.6534 32.5907 13.5039 32.5777 13.2952C32.5725 13.2089 32.5746 13.122 32.5746 13.035C32.5746 10.848 32.5746 8.66177 32.5746 6.47479V6.14994H30.5999V17.8486H32.574C32.574 17.386 32.574 16.9367 32.574 16.488C32.574 16.3579 32.5709 16.2272 32.5756 16.0978C32.584 15.8536 32.6982 15.6992 32.8658 15.6992C33.0322 15.6992 33.1569 15.855 33.1596 16.095C33.1653 16.5805 33.1616 17.0667 33.1616 17.553C33.1616 17.6469 33.1616 17.7408 33.1616 17.8521H49.4022V6.13185H49.1632C47.1452 6.13185 45.1272 6.13185 43.1092 6.13185C43.0309 6.13185 42.9526 6.13464 42.8754 6.12281C42.7105 6.09777 42.614 5.95517 42.6113 5.74579C42.6087 5.53085 42.7152 5.36947 42.8817 5.34443C42.9396 5.33539 42.9986 5.34026 43.0575 5.34026C45.1538 5.34026 47.2501 5.34513 49.3459 5.334C49.6433 5.33261 49.8625 5.44738 49.9987 5.80492V18.1971L49.9997 18.1964Z" fill="white"/>
<path d="M42.6942 14.2757C44.3474 14.2757 46.0011 14.2757 47.6544 14.2757C47.7259 14.2757 47.7984 14.2729 47.8689 14.2855C48.0191 14.3112 48.1173 14.4566 48.123 14.6493C48.1287 14.8433 48.0416 15.0068 47.8976 15.0506C47.8355 15.0701 47.7681 15.0659 47.7034 15.0659C44.3704 15.0659 41.0373 15.0659 37.7047 15.0659C37.64 15.0659 37.5732 15.0722 37.5101 15.0548C37.3624 15.0145 37.258 14.8239 37.2705 14.6367C37.2831 14.4545 37.3927 14.3049 37.5383 14.2834C37.6092 14.2729 37.6812 14.2757 37.7527 14.2757C39.3997 14.2757 41.0467 14.2757 42.6936 14.2757H42.6942Z" fill="white"/>
<path d="M42.7032 13.5021C41.0369 13.5021 39.3701 13.5021 37.7038 13.5007C37.6266 13.5007 37.5462 13.4979 37.4737 13.4687C37.3406 13.4152 37.2587 13.2406 37.2707 13.0701C37.2827 12.8983 37.3845 12.7502 37.5201 12.7209C37.5838 12.707 37.6496 12.707 37.7148 12.707C41.0411 12.707 44.3679 12.707 47.6942 12.707C47.7526 12.707 47.8116 12.707 47.8695 12.7189C48.0229 12.7509 48.1174 12.8907 48.1231 13.084C48.1289 13.2795 48.0438 13.4388 47.8972 13.484C47.8288 13.5049 47.7552 13.5014 47.6837 13.5014C46.0237 13.5021 44.3637 13.5014 42.7037 13.5014L42.7032 13.5021Z" fill="white"/>
<path d="M35.7952 8.41654C36.2701 8.41654 36.745 8.41445 37.2193 8.41862C37.2955 8.41932 37.3769 8.43115 37.4463 8.4694C37.5659 8.53479 37.6217 8.67182 37.6128 8.84503C37.6039 9.01823 37.5335 9.13997 37.4093 9.18657C37.3357 9.21439 37.2553 9.21857 37.1781 9.21857C36.2544 9.22066 35.3313 9.21996 34.4076 9.21857C34.3429 9.21857 34.2771 9.21579 34.214 9.1984C34.0658 9.15875 33.9844 9.03076 33.9771 8.84155C33.9692 8.64609 34.0522 8.4854 34.1973 8.43671C34.2589 8.41584 34.3262 8.41723 34.3909 8.41723C34.859 8.41584 35.3276 8.41654 35.7957 8.41654H35.7952Z" fill="white"/>
<path d="M46.2525 15.9362C46.7138 15.9362 47.1751 15.9362 47.6359 15.9362C47.6881 15.9362 47.7398 15.9341 47.7919 15.9376C48.009 15.9529 48.1265 16.0955 48.1238 16.3375C48.1212 16.5754 47.997 16.7305 47.7852 16.7312C46.9925 16.7354 46.2003 16.7333 45.4076 16.7333C45.1999 16.7333 44.9912 16.7201 44.784 16.7368C44.4829 16.7605 44.3665 16.5469 44.3634 16.3417C44.3592 16.0669 44.4944 15.9369 44.7903 15.9362C45.2777 15.9348 45.7645 15.9362 46.252 15.9362H46.2525Z" fill="white"/>
<path d="M35.1217 7.16226C35.3879 7.16226 35.6545 7.15879 35.9207 7.16365C36.0955 7.16713 36.215 7.28121 36.2468 7.45998C36.2938 7.72153 36.1743 7.9469 35.9572 7.95177C35.3988 7.96429 34.8399 7.9629 34.2815 7.95317C34.0811 7.94969 33.971 7.78413 33.9768 7.54693C33.982 7.32017 34.1046 7.16852 34.3035 7.16365C34.5764 7.1567 34.8493 7.16226 35.1217 7.16226Z" fill="white"/>
</g>
<defs>
<clipPath id="clip0_11582_35876">
<rect width="24" height="24" fill="white"/>
</clipPath>
<clipPath id="clip1_11582_35876">
<rect width="20" height="13.3333" fill="white" transform="translate(30 5.33398)"/>
</clipPath>
</defs>
</svg>
