<svg width="286" height="175" viewBox="0 0 286 175" fill="none" xmlns="http://www.w3.org/2000/svg">
<g clip-path="url(#clip0_10604_38662)">
<path opacity="0.1" d="M286 112.398C286.005 117.14 285.428 121.864 284.283 126.467C283.898 128.017 283.45 129.536 282.94 131.022C282.317 132.857 281.594 134.657 280.774 136.414C280.362 137.303 279.925 138.174 279.466 139.028C279.473 143.89 278.467 148.701 276.511 153.156C272.974 161.15 266.668 167.614 258.741 171.37C253.785 173.722 248.368 174.959 242.877 174.993H54.2924C45.9019 175.011 37.6563 172.818 30.3939 168.638L30.2822 168.575C29.2478 167.972 28.2393 167.335 27.2567 166.662C25.0458 165.142 22.9687 163.439 21.0477 161.57C18.4477 159.042 16.1566 156.218 14.222 153.156C9.67833 145.979 7.27132 137.668 7.27976 129.187C2.67829 121.155 -0.00488281 111.534 -0.00488281 101.195C-0.00488281 88.1511 4.25906 76.2521 11.2645 67.2444C12.725 65.3626 14.3247 63.5918 16.0505 61.9471C17.7532 60.3196 19.5834 58.8293 21.5237 57.4904C23.076 56.418 24.6984 55.4497 26.3801 54.5917C27.0819 54.2366 27.786 53.9009 28.5024 53.5893C29.1313 53.3115 29.7675 53.053 30.4109 52.809C31.1831 52.5176 31.965 52.2494 32.7566 52.0047C33.5482 51.7599 34.3293 51.5457 35.0998 51.3621C36.233 51.0868 37.3856 50.8629 38.5576 50.6906C39.5289 50.5481 40.5002 50.449 41.4715 50.3742C42.2436 50.3162 43.0231 50.2848 43.8074 50.2751H44.2323C45.0968 50.2751 45.9564 50.3089 46.8087 50.3669C46.8985 50.1882 46.9956 50.007 47.0855 49.8307C47.4254 49.1857 47.7775 48.5432 48.132 47.9151C48.1312 47.9095 48.1312 47.9038 48.132 47.8982C48.1928 47.7871 48.2535 47.6784 48.3166 47.5721C48.6031 47.0576 48.9018 46.5479 49.2078 46.0431C49.3486 45.8015 49.487 45.5744 49.6303 45.3474C49.6606 45.291 49.6938 45.2361 49.7298 45.1831C49.8755 44.9416 50.0236 44.7 50.1742 44.4585C50.9237 43.2668 51.7031 42.096 52.5125 40.9462L52.7189 40.6515C52.8452 40.4728 52.9618 40.2989 53.1026 40.1201C53.4377 39.6539 53.7825 39.1853 54.1297 38.7263C54.3726 38.3978 54.6154 38.0717 54.8776 37.7601C55.509 36.9549 56.1565 36.1497 56.8202 35.3446C57.4839 34.5394 58.1735 33.7447 58.889 32.9604C58.9862 32.8517 59.0833 32.7454 59.1853 32.6391L60.2221 31.5135C60.2731 31.4603 60.3168 31.412 60.3654 31.3637C60.4892 31.2309 60.6082 31.098 60.7418 30.97C61.2978 30.383 61.8685 29.8081 62.4415 29.2356C65.3579 26.346 68.4648 23.6531 71.7416 21.1749C71.8703 21.0734 72.0014 20.9768 72.1301 20.8802C72.7469 20.4188 73.3733 19.9623 73.9998 19.513C77.4457 17.0538 81.0478 14.8188 84.7835 12.8219C85.0409 12.6745 85.3032 12.5369 85.5678 12.4016C88.917 10.639 92.3614 9.06163 95.8853 7.67674C97.806 6.92067 99.7705 6.2105 101.747 5.56071C103.063 5.13075 104.384 4.72252 105.722 4.33844C107.814 3.73938 109.92 3.20232 112.04 2.72726C118.288 1.33273 124.644 0.471269 131.039 0.152278C132.981 0.0540453 134.946 0.00331918 136.932 9.8435e-05C146.516 -0.0125238 156.063 1.18881 165.342 3.57512C165.438 3.71936 165.569 3.83694 165.723 3.9168C165.878 3.99667 166.05 4.0362 166.223 4.03167H167.039C167.394 4.12829 167.746 4.22491 168.1 4.32636C170.08 4.89321 172.032 5.5124 173.955 6.18393L174.44 6.35785C179.187 8.03689 183.805 10.0551 188.259 12.3967C192.274 14.5025 196.14 16.8785 199.83 19.5082C200.398 19.914 200.958 20.323 201.51 20.7353C202.18 20.3085 202.862 19.8995 203.555 19.5082C206.23 17.9922 209.072 16.787 212.024 15.9162C218.196 14.0993 224.727 13.8452 231.023 15.1771C239.097 16.88 246.406 21.1073 252.309 27.1196C254.712 29.5795 256.851 32.2818 258.692 35.1827C258.826 35.3905 258.959 35.6006 259.088 35.8132C260.67 38.3807 262.03 41.0773 263.153 43.8739C263.194 43.9778 263.235 44.0744 263.272 44.1758C264.309 46.7946 265.145 49.4875 265.773 52.2317C265.802 52.3718 265.836 52.5095 265.865 52.6496C266.453 55.3053 266.852 57.9989 267.06 60.7103C267.06 60.807 267.06 60.906 267.079 61.0075C267.181 62.4101 267.233 63.8272 267.235 65.2588C267.235 66.5391 267.191 67.8097 267.111 69.0706C267.111 69.2083 267.091 69.3508 267.079 69.4933C267.057 69.8581 267.026 70.218 266.994 70.5852C268.849 72.0733 270.585 73.7022 272.186 75.4573C272.893 76.2255 273.578 77.0226 274.24 77.8487C276.257 80.3631 278.029 83.0621 279.534 85.9095C283.64 93.6199 286 102.69 286 112.398Z" fill="#00B0FF"/>
<path opacity="0.1" d="M258.561 170.475C258.561 172.125 252.848 173.671 242.877 175H54.2924C45.9019 175.017 37.6563 172.825 30.3939 168.644L30.2822 168.582C33.1475 167.543 38.3196 166.574 45.359 165.7L45.6747 165.661C48.8314 165.277 52.3596 164.912 56.2156 164.567C56.3127 164.567 56.4122 164.552 56.5094 164.54C59.5689 164.27 62.8235 164.016 66.2732 163.779C66.3825 163.779 66.4893 163.76 66.5986 163.755C67.9293 163.66 69.2875 163.57 70.6732 163.485L71.2074 163.451C81.2966 162.828 92.765 162.33 105.202 162.002H105.217C106.959 161.953 108.719 161.911 110.498 161.874C112.476 161.827 114.479 161.786 116.506 161.75C118.052 161.717 119.619 161.692 121.19 161.668H121.226C128.314 161.562 135.638 161.509 143.126 161.509C161.644 161.509 179.146 161.845 194.655 162.448H194.699C197.084 162.54 199.424 162.642 201.707 162.746L203.65 162.837C206.225 162.96 208.734 163.091 211.177 163.231C239.903 164.857 258.561 167.497 258.561 170.475Z" fill="#00B0FF"/>
<g opacity="0.2">
<path d="M165.186 160.4C165.178 160.66 165.148 160.92 165.096 161.175C163.406 160.908 161.707 160.666 159.997 160.45C159.997 160.383 159.997 160.313 159.997 160.243C160.013 159.518 160.222 158.811 160.604 158.194C161.104 157.407 161.864 156.914 162.702 156.94C163.54 156.967 164.266 157.506 164.715 158.32C165.055 158.959 165.217 159.677 165.186 160.4Z" fill="#3F3D56"/>
<path d="M165.326 156.272C165.385 154.404 164.27 152.853 162.836 152.808C161.402 152.763 160.191 154.241 160.132 156.109C160.073 157.977 161.187 159.528 162.621 159.573C164.056 159.618 165.266 158.14 165.326 156.272Z" fill="#3F3D56"/>
<path d="M165.458 152.136C165.518 150.268 164.403 148.717 162.969 148.672C161.535 148.627 160.324 150.105 160.265 151.973C160.205 153.841 161.32 155.392 162.754 155.437C164.188 155.482 165.399 154.004 165.458 152.136Z" fill="#3F3D56"/>
<path d="M165.588 148.001C165.648 146.133 164.533 144.582 163.099 144.537C161.665 144.492 160.454 145.97 160.395 147.838C160.335 149.706 161.45 151.257 162.884 151.302C164.318 151.347 165.529 149.87 165.588 148.001Z" fill="#3F3D56"/>
<path d="M165.718 143.866C165.778 141.998 164.663 140.447 163.229 140.402C161.795 140.356 160.584 141.834 160.524 143.702C160.465 145.571 161.58 147.122 163.014 147.167C164.448 147.212 165.659 145.734 165.718 143.866Z" fill="#3F3D56"/>
<path d="M154.284 115.171C153.942 114.71 153.633 114.226 153.361 113.722L160.223 112.821L152.836 112.644C152.177 111.089 151.844 109.416 151.857 107.728C151.87 106.04 152.229 104.373 152.912 102.828L162.654 108.25L153.73 101.284C154.63 99.8356 155.821 98.5874 157.228 97.6174C158.635 96.6473 160.228 95.9763 161.907 95.6461C163.586 95.316 165.316 95.3339 166.988 95.6986C168.66 96.0634 170.239 96.7672 171.625 97.7661C173.011 98.765 174.176 100.038 175.046 101.504C175.916 102.971 176.472 104.6 176.68 106.29C176.889 107.981 176.744 109.696 176.257 111.328C175.769 112.96 174.948 114.475 173.845 115.777C174.377 116.494 174.829 117.266 175.193 118.079L166.187 122.379L175.737 119.521C176.338 121.496 176.435 123.588 176.019 125.609C175.602 127.629 174.686 129.515 173.352 131.094C174.739 132.966 175.568 135.188 175.745 137.506C175.922 139.824 175.44 142.145 174.353 144.203C173.266 146.261 171.619 147.974 169.601 149.145C167.582 150.316 165.272 150.898 162.936 150.825C160.601 150.751 158.333 150.026 156.392 148.73C154.451 147.435 152.916 145.623 151.962 143.501C151.008 141.378 150.673 139.032 150.997 136.73C151.32 134.427 152.288 132.262 153.791 130.481C152.134 128.244 151.281 125.519 151.369 122.742C151.458 119.966 152.481 117.299 154.276 115.171H154.284Z" fill="#00B0FF"/>
<path opacity="0.1" d="M176.266 123.524C176.181 126.302 175.154 128.97 173.352 131.095C174.739 132.966 175.568 135.188 175.745 137.506C175.922 139.824 175.44 142.145 174.353 144.203C173.266 146.261 171.619 147.974 169.601 149.145C167.582 150.316 165.272 150.898 162.936 150.825C160.601 150.751 158.333 150.026 156.392 148.731C154.451 147.435 152.916 145.623 151.962 143.501C151.008 141.379 150.673 139.032 150.997 136.73C151.32 134.427 152.288 132.262 153.791 130.481C152.195 128.324 176.31 122.135 176.266 123.524Z" fill="black"/>
</g>
<g opacity="0.2">
<path d="M128.278 160.4C128.27 160.66 128.24 160.92 128.188 161.175C126.498 160.908 124.798 160.666 123.089 160.45C123.089 160.383 123.089 160.313 123.089 160.243C123.105 159.518 123.314 158.811 123.696 158.194C124.196 157.407 124.956 156.914 125.794 156.94C126.632 156.967 127.358 157.506 127.807 158.32C128.147 158.959 128.309 159.677 128.278 160.4Z" fill="#3F3D56"/>
<path d="M128.415 156.273C128.474 154.405 127.359 152.854 125.925 152.809C124.491 152.764 123.28 154.242 123.221 156.11C123.161 157.978 124.276 159.529 125.71 159.574C127.144 159.619 128.355 158.141 128.415 156.273Z" fill="#3F3D56"/>
<path d="M128.547 152.137C128.607 150.269 127.492 148.718 126.058 148.673C124.624 148.628 123.413 150.106 123.354 151.974C123.294 153.842 124.409 155.393 125.843 155.438C127.277 155.483 128.488 154.005 128.547 152.137Z" fill="#3F3D56"/>
<path d="M128.677 148.002C128.737 146.134 127.622 144.583 126.188 144.538C124.754 144.493 123.543 145.971 123.483 147.839C123.424 149.707 124.539 151.258 125.973 151.303C127.407 151.348 128.618 149.871 128.677 148.002Z" fill="#3F3D56"/>
<path d="M128.807 143.867C128.866 141.999 127.752 140.448 126.318 140.403C124.883 140.357 123.673 141.835 123.613 143.703C123.554 145.572 124.669 147.122 126.103 147.168C127.537 147.213 128.748 145.735 128.807 143.867Z" fill="#3F3D56"/>
<path d="M117.375 115.171C117.033 114.71 116.725 114.226 116.453 113.722L123.315 112.821L115.928 112.644C115.269 111.089 114.936 109.416 114.949 107.728C114.962 106.04 115.32 104.373 116.003 102.828L125.745 108.25L116.822 101.284C117.722 99.8356 118.913 98.5874 120.32 97.6174C121.727 96.6473 123.319 95.9763 124.999 95.6461C126.678 95.316 128.408 95.3339 130.08 95.6986C131.752 96.0634 133.331 96.7672 134.717 97.7661C136.103 98.765 137.268 100.038 138.138 101.504C139.007 102.971 139.564 104.6 139.772 106.29C139.98 107.981 139.836 109.696 139.348 111.328C138.861 112.96 138.04 114.475 136.937 115.777C137.469 116.494 137.921 117.266 138.285 118.079L129.278 122.379L138.829 119.521C139.43 121.496 139.527 123.588 139.111 125.609C138.694 127.629 137.778 129.515 136.444 131.094C137.831 132.966 138.66 135.188 138.837 137.506C139.014 139.824 138.531 142.145 137.445 144.203C136.358 146.261 134.711 147.974 132.692 149.145C130.673 150.316 128.364 150.898 126.028 150.825C123.692 150.751 121.424 150.026 119.484 148.73C117.543 147.435 116.008 145.623 115.054 143.501C114.1 141.378 113.765 139.032 114.089 136.73C114.412 134.427 115.38 132.262 116.882 130.481C115.226 128.244 114.373 125.519 114.461 122.742C114.549 119.966 115.573 117.299 117.368 115.171H117.375Z" fill="#00B0FF"/>
<path opacity="0.1" d="M139.358 123.524C139.273 126.302 138.246 128.97 136.444 131.095C137.831 132.966 138.66 135.188 138.837 137.506C139.014 139.824 138.531 142.145 137.445 144.203C136.358 146.261 134.711 147.974 132.692 149.145C130.673 150.316 128.364 150.898 126.028 150.825C123.692 150.751 121.424 150.026 119.484 148.731C117.543 147.435 116.008 145.623 115.054 143.501C114.1 141.379 113.765 139.032 114.089 136.73C114.412 134.427 115.38 132.262 116.882 130.481C115.287 128.324 139.402 122.135 139.358 123.524Z" fill="black"/>
</g>
<g opacity="0.2">
<path d="M229.097 163.044C229.078 163.537 229.019 164.028 228.92 164.512C225.666 163.995 222.389 163.533 219.088 163.126C219.088 162.995 219.088 162.862 219.088 162.727C219.119 161.332 219.523 159.971 220.258 158.783C221.23 157.268 222.687 156.319 224.296 156.367C225.906 156.415 227.307 157.456 228.182 159.024C228.841 160.259 229.157 161.647 229.097 163.044Z" fill="#3F3D56"/>
<path d="M229.361 155.091C229.476 151.493 227.329 148.506 224.566 148.419C221.804 148.333 219.472 151.179 219.357 154.776C219.243 158.374 221.39 161.36 224.152 161.447C226.915 161.534 229.247 158.688 229.361 155.091Z" fill="#3F3D56"/>
<path d="M229.614 147.129C229.729 143.531 227.582 140.544 224.819 140.458C222.057 140.371 219.725 143.217 219.61 146.814C219.496 150.412 221.643 153.399 224.405 153.485C227.168 153.572 229.5 150.726 229.614 147.129Z" fill="#3F3D56"/>
<path d="M229.869 139.167C229.984 135.569 227.837 132.582 225.074 132.496C222.312 132.409 219.979 135.255 219.865 138.852C219.751 142.45 221.898 145.437 224.66 145.523C227.423 145.61 229.755 142.764 229.869 139.167Z" fill="#3F3D56"/>
<path d="M229.836 130.843C229.945 127.244 227.792 124.259 225.028 124.177C222.265 124.094 219.936 126.945 219.827 130.544C219.719 134.144 221.871 137.128 224.635 137.211C227.399 137.293 229.728 134.442 229.836 130.843Z" fill="#3F3D56"/>
<path d="M208.105 75.9722C207.45 75.0855 206.857 74.1549 206.33 73.1871L219.54 71.4527L205.323 71.1121C204.053 68.118 203.41 64.8976 203.435 61.648C203.459 58.3984 204.149 55.1878 205.464 52.2128L224.222 62.6504L207.044 49.2392C208.781 46.4575 211.075 44.0614 213.784 42.2003C216.492 40.3392 219.557 39.053 222.787 38.4218C226.017 37.7906 229.343 37.828 232.558 38.5316C235.773 39.2352 238.808 40.59 241.473 42.5115C244.139 44.433 246.378 46.8801 248.051 49.7001C249.725 52.5202 250.796 55.6529 251.199 58.9029C251.602 62.153 251.327 65.4507 250.393 68.5907C249.458 71.7306 247.884 74.6454 245.767 77.1534C246.79 78.5338 247.66 80.0199 248.363 81.586L231.023 89.8689L249.407 84.3615C250.566 88.1573 250.754 92.1808 249.956 96.0675C249.157 99.9541 247.397 103.581 244.835 106.621C247.503 110.224 249.099 114.501 249.439 118.963C249.78 123.426 248.851 127.893 246.759 131.856C244.667 135.818 241.497 139.114 237.61 141.368C233.724 143.622 229.278 144.743 224.781 144.602C220.285 144.461 215.919 143.064 212.183 140.571C208.447 138.077 205.491 134.589 203.655 130.504C201.818 126.418 201.174 121.901 201.796 117.469C202.418 113.037 204.281 108.868 207.173 105.44C203.986 101.134 202.345 95.8885 202.514 90.5442C202.683 85.2 204.652 80.0673 208.105 75.9698V75.9722Z" fill="#00B0FF"/>
<path opacity="0.1" d="M250.429 92.0501C250.27 97.3955 248.302 102.531 244.844 106.626C247.513 110.228 249.109 114.506 249.449 118.968C249.789 123.431 248.861 127.898 246.769 131.86C244.677 135.822 241.506 139.119 237.62 141.373C233.733 143.627 229.288 144.747 224.791 144.606C220.295 144.465 215.929 143.068 212.193 140.575C208.457 138.082 205.501 134.594 203.664 130.508C201.828 126.423 201.183 121.906 201.806 117.474C202.428 113.041 204.291 108.873 207.183 105.444C204.089 101.287 250.514 89.3761 250.429 92.0501Z" fill="black"/>
</g>
<path d="M38.3223 163.468L40.8695 163.461H44.4608L49.0016 90.0809L93.9697 15.4328L92.0149 13.3458V8.06055L43.3827 88.3513L38.3223 163.468Z" fill="#F1C0C0"/>
<path opacity="0.1" d="M41.1416 163.461H44.461L49.0017 90.0808L93.9698 15.4327L92.0151 13.3457L45.6314 88.9624L41.1416 163.461Z" fill="black"/>
<path d="M30.8164 164.079L147.334 172.949L147.434 172.956L260.198 166.057L260.283 166.052V161.315L136.031 159.047L32.368 158.948H31.6104L31.5279 159.48L30.8164 164.079Z" fill="#F1C0C0"/>
<path opacity="0.1" d="M30.8164 164.079L147.334 172.949L147.434 172.956L260.198 166.057L260.283 165.965V161.415H260.183L147.334 165.163L32.368 158.948H32.351L32.1471 159.081L31.5279 159.48L30.8164 164.079Z" fill="black"/>
<path opacity="0.1" d="M30.8164 164.079L147.334 172.949V165.163L32.1471 159.081L31.5279 159.48L30.8164 164.079Z" fill="black"/>
<path d="M92 13.2469L143.369 68.0945L141.781 164.572L146.144 165.096L146.217 165.106H150.581L151.103 72.2372L247.292 104.2L248.914 161.11L252.425 161.502L253.615 161.635L250.861 100.253L150.309 65.1355L95.1737 8.11621H92V13.2469Z" fill="#F1C0C0"/>
<path opacity="0.1" d="M150.707 70.4619L151.103 72.2373L247.292 104.2L248.914 161.111L252.425 161.502L249.671 103.016L150.707 70.4619Z" fill="black"/>
<path opacity="0.1" d="M92 13.2469L143.369 68.0945L141.781 164.572L146.144 165.096L147.334 64.9374L92 8.11621V13.2469Z" fill="black"/>
<path d="M150.895 109.181L186.174 116.092L186.186 116.094L247.977 128.204L250.806 127.075L250.796 126.877L250.612 122.952L150.931 102.915L150.895 109.181Z" fill="#F1C0C0"/>
<path opacity="0.1" d="M186.186 116.094L247.976 128.203L250.805 127.075L250.795 126.877L186.186 116.094Z" fill="black"/>
<path d="M188.549 84.6797L189.503 136.938L189.996 163.748L194.34 163.603L197.074 163.511L196.224 85.4358L194.34 84.8125L193.927 84.6797H188.549Z" fill="#F1C0C0"/>
<path opacity="0.1" d="M188.587 84.668V84.68L189.502 136.938L189.995 163.749L194.339 163.604V84.668H188.587Z" fill="black"/>
<path d="M120.503 98.026C120.757 98.1638 121.001 98.3213 121.231 98.4971C121.503 98.734 121.747 99.0006 121.959 99.2918C123.001 100.632 123.963 102.19 123.861 103.881C123.863 104.127 123.816 104.371 123.723 104.599C123.63 104.827 123.493 105.035 123.319 105.21C122.889 105.575 122.273 105.592 121.709 105.592C121.097 105.592 120.454 105.592 119.925 105.278C119.395 104.964 118.953 104.352 118.327 104.367C118.238 104.381 118.148 104.381 118.06 104.367C117.844 104.297 117.8 104.014 117.659 103.835C117.416 103.514 116.904 103.594 116.523 103.734C116.141 103.874 115.719 104.084 115.343 103.922C115.124 103.808 114.946 103.63 114.83 103.413C113.929 101.963 113.738 100.222 113.568 98.5381C113.463 97.5139 112.667 94.021 114.864 94.8158C115.836 95.1636 116.744 95.8593 117.628 96.369L120.503 98.026Z" fill="#3F3D56"/>
<path d="M118.332 98.3713C118.528 98.5118 118.766 98.5828 119.007 98.5732C119.249 98.5636 119.48 98.4738 119.665 98.3182C120.026 97.9932 120.257 97.5484 120.313 97.0669C120.556 96.992 120.68 97.3085 120.835 97.5017C121.107 97.8302 121.661 97.8254 121.908 98.1757C122.081 98.4172 122.042 98.753 122.163 99.0259C122.321 99.3786 122.712 99.5622 122.979 99.8472C123.231 100.159 123.414 100.52 123.513 100.908L123.912 102.096C124.102 102.59 124.225 103.108 124.276 103.635C124.301 103.898 124.273 104.164 124.194 104.417C124.115 104.669 123.986 104.903 123.815 105.106C123.28 105.678 122.404 105.739 121.629 105.722C121.371 105.727 121.112 105.697 120.862 105.632C120.175 105.42 119.735 104.731 119.553 104.038C119.371 103.345 119.39 102.618 119.284 101.908C119.168 101.21 118.964 100.53 118.676 99.8835C118.463 99.381 117.875 98.6322 117.885 98.0984C118.06 98.0984 118.186 98.2578 118.332 98.3713Z" fill="#3F3D56"/>
<path d="M119.204 95.9242C119.09 95.5812 119.024 95.2245 119.007 94.8638C119.007 94.1391 119.34 93.4579 119.675 92.8105L116.9 93.185C116.564 93.2309 116.19 93.2985 116.001 93.5763C115.929 93.7139 115.892 93.8668 115.892 94.0219C115.892 94.1771 115.929 94.33 116.001 94.4676C116.14 94.7432 116.251 95.0321 116.331 95.33C116.338 95.5906 116.368 95.8501 116.421 96.1054C116.508 96.2929 116.629 96.4625 116.778 96.6054C117.572 97.4798 118.167 98.5113 118.76 99.533C118.743 99.5041 120.433 98.2021 120.365 97.7769C120.326 97.5354 119.838 97.2455 119.682 97.0136C119.468 96.677 119.306 96.3096 119.204 95.9242Z" fill="#BE6F72"/>
<path d="M143 86.4863V88.8657L102.043 96.8128L99.9187 98.0931H92.5879V96.7525L132.828 87.0806L143 86.4863Z" fill="#F1C0C0"/>
<path opacity="0.1" d="M143 88.8662L102.043 96.8134L99.9187 98.0936H92.5879L133.127 89.4628L143 88.8662Z" fill="black"/>
<path d="M110.117 154.031C109.661 153.481 109.031 153.101 108.33 152.953C107.629 152.805 106.898 152.897 106.256 153.214C106.119 153.279 105.998 153.373 105.902 153.49C105.659 153.828 105.814 154.294 105.836 154.712C105.892 155.731 105.076 156.56 104.343 157.272C103.949 157.654 103.549 158.062 103.371 158.582C103.194 159.101 103.325 159.76 103.801 160.031C104.009 160.135 104.235 160.197 104.467 160.215C105.243 160.365 106.039 160.387 106.822 160.28C107.597 160.132 108.357 159.695 108.692 158.985C108.756 158.793 108.863 158.617 109.005 158.471C109.432 158.135 110.088 158.529 110.574 158.289C110.974 158.091 110.991 157.78 110.996 157.369C111.011 156.234 110.841 154.949 110.117 154.031Z" fill="#00B0FF"/>
<path d="M115.945 153.987C116.244 154.77 116.285 155.623 116.324 156.458C116.346 156.941 116.36 157.458 116.098 157.867C115.836 158.275 115.324 158.49 114.833 158.591C113.821 158.799 112.648 158.603 111.995 157.804C111.494 157.193 111.39 156.355 111.482 155.562C111.56 154.912 111.725 154.152 111.256 153.69C111.135 153.567 110.977 153.48 110.865 153.347C110.623 153.052 110.661 152.608 110.793 152.246C110.963 151.899 111.091 151.533 111.174 151.156C111.193 150.977 114.462 151.282 114.763 151.429C115.173 151.63 115.11 151.965 115.234 152.371C115.406 152.936 115.736 153.446 115.945 153.987Z" fill="#00B0FF"/>
<path d="M116.545 119.285C117.186 119.698 117.433 120.509 117.533 121.263C117.807 123.328 117.326 125.415 117.29 127.5C117.256 130.42 118.106 133.394 117.38 136.223C116.945 137.914 117.314 139.846 116.906 141.554C116.785 142.061 116.562 142.539 116.445 143.047C116.202 144.146 116.457 145.296 116.8 146.37C116.909 146.66 116.978 146.963 117.006 147.271C116.99 147.746 116.868 148.211 116.651 148.634L115.195 152.061C115.032 152.446 114.391 152.508 113.98 152.559C113.208 152.651 112.346 152.716 111.732 152.24C111.118 151.764 110.969 150.967 110.875 150.223C110.693 148.795 110.612 147.356 110.632 145.916C110.659 145.541 110.625 145.163 110.532 144.798C110.399 144.385 110.105 144.027 110.025 143.59C109.923 143.025 110.212 142.469 110.319 141.899C110.392 141.379 110.384 140.85 110.294 140.332C110.2 139.559 110.09 138.786 109.967 138.017C109.792 136.942 110.042 135.882 110.209 134.805C110.367 133.793 110.166 132.761 109.967 131.756C109.984 132.572 109.882 133.386 109.663 134.172C109.534 134.556 109.35 134.923 109.238 135.314C108.74 137.071 109.801 138.914 109.651 140.733C109.58 141.583 109.245 142.423 109.34 143.262C109.406 143.875 109.692 144.438 109.889 145.023C110.086 145.607 110.188 146.276 109.889 146.822C109.1 148.305 109.69 150.322 110.396 151.844C110.54 152.114 110.665 152.393 110.77 152.68C110.979 153.366 110.804 154.103 110.86 154.818C110.657 154.851 110.449 154.837 110.251 154.778C110.054 154.719 109.873 154.616 109.721 154.477C109.614 154.366 109.527 154.235 109.423 154.12C109.131 153.843 108.786 153.628 108.408 153.489C108.186 153.366 107.933 153.308 107.679 153.322C107.412 153.397 107.172 153.545 106.987 153.75C106.747 153.96 106.492 154.153 106.225 154.327C106.111 154.414 105.978 154.473 105.836 154.499C105.765 154.51 105.692 154.498 105.628 154.466C105.564 154.433 105.512 154.381 105.479 154.318C105.464 154.277 105.455 154.235 105.453 154.192C105.362 153.463 105.315 152.729 105.309 151.994C105.309 150.731 103.789 149.861 103.597 148.612C103.444 147.605 103.728 146.578 103.634 145.564C103.588 145.042 103.442 144.53 103.452 144.008C103.452 143.67 103.529 143.339 103.556 143.003C103.578 142.63 103.573 142.257 103.539 141.885L103.464 140.718C103.391 139.566 103.311 138.389 102.854 137.336C102.313 136.106 101.992 134.792 101.907 133.452C101.859 132.607 101.89 131.761 101.793 130.913C101.706 130.148 101.512 129.387 101.567 128.618C101.614 128.024 101.81 127.449 101.856 126.855C101.951 125.713 101.514 124.601 101.172 123.507C100.829 122.413 100.577 121.2 101.026 120.145C101.09 119.971 101.197 119.817 101.337 119.695C101.509 119.582 101.705 119.509 101.91 119.483C106.076 118.612 110.346 118.341 114.59 118.678C115.282 118.717 115.953 118.926 116.545 119.285Z" fill="#3F3D56"/>
<path d="M102.759 93.6291C104.908 93.6291 106.649 91.8966 106.649 89.7594C106.649 87.6222 104.908 85.8896 102.759 85.8896C100.611 85.8896 98.8691 87.6222 98.8691 89.7594C98.8691 91.8966 100.611 93.6291 102.759 93.6291Z" fill="#BE6F72"/>
<path d="M102.006 94.5932C102.062 94.8144 102.062 95.0459 102.006 95.2671C101.945 95.4217 101.859 95.5653 101.752 95.6923C101.375 96.1755 100.958 96.6264 100.506 97.0402C100.736 97.5523 101.151 97.9599 101.669 98.1827C102.183 98.4004 102.722 98.5537 103.274 98.6393C103.55 98.7113 103.836 98.731 104.119 98.6972C104.38 98.6321 104.626 98.5208 104.848 98.3687L107.009 97.0812C107.335 96.9055 107.637 96.6888 107.907 96.4363C108.303 96.031 108.528 95.4895 108.534 94.9241C108.544 94.8229 108.516 94.7214 108.456 94.6391C108.373 94.5674 108.269 94.5242 108.16 94.5159C107.4 94.3492 106.8 93.7357 106.46 93.04C106.153 92.3269 105.954 91.5722 105.87 90.8008L103.565 92.0086C103.223 92.1897 102.883 92.3709 102.529 92.5279C102.303 92.6294 101.846 92.7139 101.686 92.9192C101.38 93.2985 101.926 94.1367 102.006 94.5932Z" fill="#BE6F72"/>
<path d="M100.521 96.3375C100.193 96.6051 99.9368 96.9496 99.7756 97.34C99.6251 97.8231 99.7756 98.3328 99.9116 98.8111C100.549 100.85 101.036 102.932 101.369 105.041C101.573 106.49 101.648 107.961 101.747 109.427C101.951 112.418 102.248 117.186 102.643 120.157C104.1 120.223 105.521 119.8 106.966 119.645C109.666 119.36 112.446 120.012 115.09 119.404C114.449 116.884 113.808 112.582 113.167 110.065C112.884 109.073 112.687 108.059 112.58 107.034C112.524 106.297 112.558 105.558 112.567 104.816C112.589 103.367 112.509 101.917 112.429 100.468C112.337 98.7772 112.245 97.0864 111.841 95.4317C111.813 95.2209 111.714 95.0258 111.56 94.8785C111.317 94.7022 111.001 94.765 110.712 94.8037C109.828 94.9154 108.932 94.7043 108.192 94.2094C107.871 93.992 107.441 93.7263 107.143 93.9679C107.015 94.1136 106.931 94.2918 106.9 94.4824C106.768 94.8241 106.564 95.1338 106.302 95.3909C106.04 95.6479 105.725 95.8463 105.38 95.9728C104.688 96.2221 103.963 96.3702 103.229 96.4124C103.004 96.4604 102.769 96.4341 102.561 96.3375C102.216 96.1274 102.192 95.3713 101.757 95.3206C101.376 95.2771 100.778 96.0936 100.521 96.3375Z" fill="#3F3D56"/>
<path d="M106.266 102.236C105.37 101.384 104.977 100.147 104.324 99.0961C103.879 98.3895 103.31 97.7678 102.646 97.2603C102.311 97.0407 102.005 96.782 101.733 96.4897C101.502 96.2071 101.327 95.8303 100.977 95.7216C100.833 95.6903 100.683 95.6944 100.54 95.7335C100.398 95.7726 100.267 95.8456 100.159 95.9462C99.9451 96.1491 99.7424 96.3636 99.5521 96.5887C98.5225 97.6492 96.7135 97.7965 95.8976 99.0236C95.6775 99.2838 95.5279 99.5956 95.463 99.9295C95.2281 101.715 95.6923 103.523 96.7596 104.978C96.9663 105.315 97.2836 105.571 97.6581 105.703C97.6073 106.153 97.6673 106.609 97.8329 107.031C98.2825 108.56 98.835 110.057 99.4865 111.512C99.3307 112.081 99.2219 112.662 99.1611 113.249C98.9912 114.725 99.149 116.222 98.9887 117.701C98.8576 118.909 98.5031 120.085 98.491 121.295C98.491 121.488 98.508 121.718 98.6755 121.817C98.7646 121.862 98.8644 121.883 98.9645 121.877L101.951 121.967C103.685 122.017 105.436 122.068 107.143 121.749C107.37 121.716 107.591 121.646 107.796 121.544C108.374 121.223 108.566 120.498 108.658 119.853C108.778 119.016 108.826 118.171 108.801 117.326C109.163 118.464 109.593 119.64 110.685 120.133C111.263 120.394 111.924 120.375 112.558 120.358C113.924 120.297 115.285 120.158 116.635 119.94C116.718 119.95 116.802 119.941 116.881 119.913C116.96 119.885 117.031 119.839 117.089 119.779C117.147 119.718 117.19 119.645 117.214 119.565C117.239 119.486 117.244 119.401 117.229 119.319L117.244 118C117.273 115.321 116.605 112.761 116.346 110.094C116.263 109.254 116.27 108.403 116.064 107.58C115.979 107.234 115.855 106.896 115.78 106.548C115.715 106.208 115.674 105.863 115.658 105.517L115.469 102.86C115.379 101.63 115.25 100.444 115.156 99.2169C115.104 98.022 114.93 96.8355 114.636 95.6757C114.425 94.951 113.985 94.1297 113.225 94.0403C112.82 93.9944 112.426 94.1708 112.04 94.294C111.091 94.5912 110.073 94.5869 109.127 94.2819C108.834 94.167 108.529 94.086 108.218 94.0403C108.062 94.0191 107.902 94.0397 107.756 94.1C107.611 94.1603 107.483 94.2581 107.388 94.3833C107.294 94.5721 107.249 94.7816 107.259 94.9921C107.145 97.4052 106.934 99.8908 106.266 102.236Z" fill="#00B0FF"/>
<path d="M102.359 102.309C101.24 101.135 100.092 99.9392 98.6491 99.1927C98.0809 98.898 97.435 98.6758 96.8061 98.7869C96.1772 98.8981 95.592 99.4416 95.6212 100.077C95.6406 100.471 95.881 100.818 95.9563 101.205C96.0437 101.64 95.9174 102.103 96.0534 102.524C96.1639 102.801 96.329 103.053 96.539 103.265L98.2582 105.292C98.9867 106.137 99.7151 106.995 100.652 107.58C101.59 108.164 102.804 108.437 103.833 108.022C104.566 107.683 105.175 107.127 105.577 106.43C106.004 105.753 106.305 105.014 106.706 104.316C107.33 103.201 108.152 102.208 109.134 101.386C108.629 101.256 107.995 101.072 107.677 100.661C107.587 100.531 107.509 100.392 107.447 100.246L107.053 99.4005C106.919 99.3936 106.786 99.4142 106.66 99.4612C106.535 99.5082 106.421 99.5804 106.325 99.6734C106.156 99.8674 105.975 100.051 105.783 100.222C105.441 100.478 104.977 100.548 104.666 100.84C104.546 100.966 104.437 101.101 104.341 101.246C104.106 101.553 103.807 101.807 103.466 101.99C103.124 102.174 102.747 102.282 102.359 102.309Z" fill="#3F3D56"/>
<path d="M109.223 97.2575C110.066 95.7285 110.027 93.8951 110.267 92.1679C110.293 91.7106 110.455 91.271 110.731 90.9046C111.217 90.3587 112.074 90.3514 112.807 90.4215C113.023 90.4456 113.293 90.5471 113.281 90.7621C113.264 90.8391 113.226 90.9101 113.171 90.9674C112.461 91.88 112.043 92.9843 111.972 94.1366C112.353 94.3999 112.943 93.8588 113.31 94.1366C113.553 94.3395 113.441 94.7405 113.295 95.0304C112.957 95.7019 112.608 96.3686 112.249 97.0305C111.962 97.6138 111.588 98.1506 111.139 98.6223C110.831 98.917 110.469 99.1489 110.156 99.4388C109.427 100.118 108.988 101.077 108.235 101.738C108.171 101.807 108.085 101.851 107.992 101.862C107.896 101.855 107.806 101.815 107.737 101.748C107.361 101.444 107.049 101.069 106.819 100.644C106.533 100.118 106.576 99.9629 107.028 99.5909C107.873 98.9267 108.696 98.2141 109.223 97.2575Z" fill="#BE6F72"/>
<path d="M100.95 101.269C101.096 101.359 101.276 101.46 101.436 101.385C101.501 101.346 101.557 101.292 101.599 101.228C101.876 100.86 102.108 100.459 102.288 100.035C102.319 99.9752 102.337 99.9092 102.339 99.8419C102.339 99.6873 102.201 99.5737 102.072 99.4844C101.383 99.0472 100.641 98.6966 99.8649 98.4409C99.2238 98.1993 98.5536 97.9891 97.8737 98.0495C97.6183 98.0666 97.3689 98.1349 97.1406 98.2503C96.9124 98.3657 96.7099 98.5258 96.5455 98.7211C96.0599 99.3419 96.8733 99.5303 97.3832 99.7549C98.5633 100.289 99.8406 100.598 100.95 101.269Z" fill="#00B0FF"/>
<path opacity="0.1" d="M100.185 105.376C100.177 105.431 100.182 105.488 100.2 105.54C100.218 105.593 100.248 105.641 100.287 105.681C100.358 105.338 100.266 104.975 100.338 104.63C100.445 104.11 100.953 103.719 100.997 103.197C100.067 103.016 100.193 104.816 100.185 105.376Z" fill="black"/>
<path opacity="0.2" d="M143 86.4863V88.8657L133.127 89.4623L132.828 87.0806L143 86.4863Z" fill="black"/>
<path d="M99.2577 90.3343C99.8745 89.8343 99.5176 88.7859 99.9352 88.1144C100.178 87.7472 100.588 87.554 100.991 87.3897C101.478 87.1633 101.999 87.0196 102.533 86.9646C102.801 86.939 103.071 86.9737 103.323 87.0662C103.575 87.1586 103.803 87.3063 103.99 87.4984C104.148 87.6772 104.255 87.8946 104.403 88.0806C104.587 88.2976 104.826 88.4611 105.095 88.5538C105.364 88.6465 105.654 88.665 105.933 88.6072C106.256 88.5347 106.591 88.2907 106.569 87.9622C106.533 87.7624 106.43 87.5805 106.278 87.4453L105.583 86.6796C104.794 85.81 103.917 84.8872 102.759 84.6698C101.953 84.5176 101.127 84.7326 100.35 84.9911C100.037 85.095 99.6851 85.2495 99.5977 85.566C99.5394 85.7834 99.6268 86.0201 99.5758 86.2399C99.4763 86.6771 98.9129 86.8245 98.6507 87.1917C98.3884 87.5588 98.4686 87.9936 98.3933 88.3994C98.318 88.8053 98.0995 89.2014 98.0728 89.6217C98.0558 89.8753 98.1845 90.3464 98.471 90.4382C98.7575 90.53 99.0805 90.0324 99.2577 90.3343Z" fill="#3F3D56"/>
<path d="M106.334 87.6152C106.129 86.5524 105.688 85.5488 105.042 84.6779C104.468 83.8642 103.67 83.2333 102.743 82.8614C102.28 82.6813 101.781 82.608 101.285 82.6469C100.79 82.6858 100.309 82.8359 99.8799 83.086C99.2428 83.5384 98.7471 84.1605 98.4497 84.8808C97.8208 86.2287 97.5877 87.8761 98.3186 89.1708C98.61 88.8182 99.1102 88.9776 99.5521 88.8496C100.106 88.6925 100.574 88.3254 101.101 88.0959C102.692 87.3978 104.634 87.963 106.334 87.6152Z" fill="#FED253"/>
<path opacity="0.1" d="M98.6901 87.5403C98.6342 87.1055 98.5978 86.6007 98.9086 86.2915C98.9241 86.2725 98.9437 86.2574 98.9661 86.2474C98.9884 86.2373 99.0128 86.2326 99.0373 86.2335C99.059 86.2405 99.079 86.2518 99.0961 86.2668C99.1132 86.2817 99.1271 86.3 99.1369 86.3205C99.3163 86.6021 99.4691 86.8997 99.5934 87.2094C99.4124 87.1679 99.2231 87.1814 99.0499 87.2482C98.8767 87.3149 98.7277 87.4319 98.6221 87.5838" fill="black"/>
<path opacity="0.1" d="M104.365 86.313L104.278 85.4507C104.264 85.3796 104.269 85.3061 104.295 85.2381C104.331 85.1812 104.388 85.1399 104.453 85.122C104.519 85.1042 104.589 85.1111 104.649 85.1415C104.769 85.2073 104.867 85.3053 104.933 85.4241C105.135 85.7328 105.303 86.0624 105.434 86.4072C105.042 86.3323 104.64 86.3372 104.251 86.4217" fill="black"/>
<path opacity="0.1" d="M106.538 121.312V123.283L104.865 123.394H96.0654V121.312H106.538Z" fill="black"/>
<path d="M106.538 121.312V123.394H96.0647L68.2422 88.7237V87.0859H74.0748L106.538 121.312Z" fill="#F1C0C0"/>
<path opacity="0.1" d="M106.538 121.312V123.394H96.0647L68.2422 88.7237V87.0859H74.0748L106.538 121.312Z" fill="black"/>
<path opacity="0.1" d="M106.538 121.312V123.394H96.0647L68.2422 88.7237V87.0859L96.2152 121.312H106.538Z" fill="black"/>
<path d="M71.8893 156.062C71.9076 156.16 71.9054 156.261 71.8828 156.358C71.8602 156.455 71.8177 156.547 71.758 156.627C71.6983 156.707 71.6227 156.774 71.5358 156.823C71.4489 156.873 71.3527 156.904 71.2531 156.915C70.578 157.142 69.8617 157.367 69.3834 157.881C68.905 158.396 68.8103 159.35 69.3834 159.768C69.6763 159.944 70.0126 160.035 70.3546 160.031C71.4546 160.106 72.6007 160.091 73.5987 159.628C74.3126 159.299 74.9853 158.739 75.7696 158.789C76.1751 158.814 76.6073 159.002 76.9691 158.818C77.3309 158.635 77.4329 158.123 77.4353 157.695C77.4445 156.803 77.3093 155.914 77.0347 155.065C76.9982 154.949 75.4539 154.859 75.2694 154.823L73.3972 154.582C73.0427 154.536 72.2778 154.27 71.9986 154.565C71.7193 154.859 71.8893 155.712 71.8893 156.062Z" fill="#00B0FF"/>
<path d="M83.062 150.032C83.1413 150.467 83.27 150.892 83.4456 151.298C83.7055 151.955 84.0381 152.653 84.6743 152.972C85.2522 153.26 85.9613 153.156 86.5489 152.883C86.7942 152.782 87.0091 152.619 87.173 152.412C87.3625 152.083 87.4472 151.705 87.4158 151.327C87.4158 150.392 87.3599 149.426 86.9301 148.595C86.5611 147.87 85.9176 147.247 85.9079 146.445L83.6958 146.87C83.5773 146.882 83.4645 146.926 83.3704 146.998C83.3003 147.072 83.2516 147.163 83.2295 147.262C82.9934 148.166 82.9364 149.107 83.062 150.032Z" fill="#00B0FF"/>
<path d="M56.645 127.085C56.5527 127.863 56.5915 128.696 56.9995 129.368C57.4074 130.039 58.267 130.484 59.01 130.216C59.0481 130.206 59.0838 130.189 59.1151 130.165C59.1464 130.141 59.1726 130.112 59.1922 130.078C59.2119 129.996 59.2007 129.91 59.1606 129.836C58.8326 128.966 58.8596 128.002 59.2359 127.15C59.2844 127.039 59.3888 126.909 59.503 126.952C59.5507 126.976 59.5891 127.015 59.6122 127.063C59.7298 127.266 59.7886 127.496 59.7822 127.73C59.7479 127.942 59.7414 128.157 59.7628 128.37C59.8089 128.578 60.0323 128.774 60.2266 128.684C60.2827 128.65 60.3313 128.605 60.3693 128.551C60.4073 128.497 60.4339 128.437 60.4475 128.373C60.989 126.815 60.7438 125.112 60.4961 123.481C60.4982 123.444 60.492 123.406 60.4779 123.371C60.4638 123.337 60.4422 123.305 60.4147 123.28C60.3871 123.254 60.3542 123.235 60.3184 123.223C60.2825 123.212 60.2446 123.208 60.2072 123.213C59.061 123.099 58.4346 122.826 57.7789 123.887C57.2156 124.781 56.645 126.01 56.645 127.085Z" fill="#00B0FF"/>
<path d="M70.044 123.121C69.7041 124.527 69.3617 125.95 69.3398 127.395C69.3458 128.294 69.414 129.193 69.5438 130.083L69.7988 132.175C69.8862 132.88 69.9712 133.583 70.095 134.281C70.174 134.641 70.2171 135.007 70.2237 135.376C70.1999 135.738 70.1422 136.098 70.0513 136.45C69.8986 137.19 69.8133 137.942 69.7963 138.697C69.7696 139.905 69.9202 141.112 70.0149 142.32C70.2039 144.727 70.1755 147.146 69.9299 149.548C69.8318 150.196 69.9733 150.858 70.3281 151.41C70.4721 151.584 70.5906 151.778 70.6802 151.985C70.8623 152.538 70.4374 153.091 70.3281 153.659C70.2582 154.102 70.3678 154.554 70.6328 154.916C70.8978 155.278 71.2965 155.521 71.7414 155.591C73.6839 155.821 75.6799 155.717 77.4307 156.601C77.6152 156.065 77.2121 155.456 77.3967 154.91C77.5132 154.572 77.8337 154.352 78.0523 154.067C78.3459 153.633 78.4922 153.117 78.4699 152.594C78.4785 151.911 78.3566 151.233 78.1106 150.596C77.9042 150.065 77.6079 149.54 77.6249 148.97C77.6249 148.69 77.7245 148.395 77.6103 148.137C77.5321 147.988 77.4257 147.856 77.2971 147.748C76.5714 146.957 76.1254 145.952 76.0271 144.886C75.9325 143.827 75.9667 142.762 76.1291 141.712C76.2481 140.711 76.4084 139.656 77.047 138.876C76.7509 136.51 76.9249 134.109 77.5594 131.81C77.6225 131.598 77.722 131.351 77.9406 131.3C78.0274 131.292 78.1151 131.304 78.1962 131.336C78.2774 131.368 78.3496 131.418 78.4068 131.484C78.788 131.839 78.9701 132.354 79.1353 132.846C79.3174 133.38 79.5019 133.95 79.3635 134.496C79.3052 134.738 79.1887 134.95 79.1207 135.182C78.973 135.648 78.9988 136.152 79.1935 136.6C79.2884 136.764 79.348 136.946 79.3684 137.134C79.3459 137.296 79.2966 137.452 79.2227 137.598C79.1326 137.884 79.104 138.185 79.1387 138.483C79.1735 138.78 79.2707 139.067 79.4242 139.325C79.7337 139.838 80.1156 140.304 80.5582 140.709C80.3467 141.636 80.4014 142.604 80.716 143.501C80.7387 143.542 80.7532 143.586 80.7586 143.632C80.764 143.678 80.7603 143.725 80.7476 143.77C80.7039 143.861 80.5922 143.895 80.5048 143.96C80.262 144.158 80.4125 144.533 80.5752 144.791C81.0211 145.501 81.5135 146.18 82.0491 146.825C82.5348 147.403 82.4911 148.516 83.2147 148.724C83.5187 148.789 83.8333 148.789 84.1374 148.724C84.8513 148.615 85.6477 148.41 85.9974 147.782C86.1407 147.523 86.1989 147.209 86.4223 147.016C86.6457 146.823 86.9347 146.789 87.0585 146.557C87.1824 146.325 87.044 146.021 87.0852 145.753C87.1265 145.485 87.3621 145.27 87.4373 144.987C87.617 144.335 86.8521 143.799 86.7477 143.132C86.5972 142.166 87.821 141.441 87.77 140.475C87.6632 138.376 87.5952 136.267 87.4859 134.168C87.3488 132.287 87.3293 130.4 87.4276 128.518C87.5126 127.346 87.6704 126.119 87.2382 125.03C86.6166 123.493 84.9023 122.631 83.2438 122.467C81.5853 122.303 79.9317 122.694 78.2878 122.95C75.5595 123.368 72.7875 123.426 70.044 123.121Z" fill="#3F3D56"/>
<path d="M74.974 100.033C77.1224 100.033 78.864 98.3009 78.864 96.1637C78.864 94.0265 77.1224 92.2939 74.974 92.2939C72.8256 92.2939 71.084 94.0265 71.084 96.1637C71.084 98.3009 72.8256 100.033 74.974 100.033Z" fill="#FBBEBE"/>
<path d="M73.3907 100.755C73.2586 101.061 73.0364 101.32 72.7533 101.498C72.4703 101.677 72.1397 101.765 71.8051 101.753C71.6643 102.333 72.0018 102.917 72.3879 103.374C73.1896 104.302 74.2256 105 75.3892 105.397C76.5527 105.794 77.8016 105.875 79.0072 105.632C79.4763 105.549 79.9214 105.364 80.3111 105.091C80.8366 104.655 81.1893 104.047 81.3067 103.376C81.4185 102.71 81.4502 102.033 81.4014 101.359C81.415 101.226 81.3768 101.093 81.2946 100.987C81.1974 100.912 81.0774 100.873 80.9546 100.876C80.1339 100.804 79.2767 100.772 78.5555 100.371C77.8343 99.9701 77.322 99.0643 77.6692 98.3203C77.6134 98.4363 76.1953 98.4918 76.0083 98.516C75.4231 98.5981 74.8379 98.6899 74.2552 98.7962C73.9751 98.8115 73.6984 98.8634 73.432 98.9508C73.0799 99.1319 73.211 99.0426 73.2936 99.3711C73.4174 99.8735 73.5995 100.233 73.3907 100.755Z" fill="#FBBEBE"/>
<path d="M76.3499 103.109C75.826 103.115 75.3033 103.057 74.7934 102.937C74.2786 102.817 73.8248 102.516 73.5162 102.089C73.3365 101.819 73.2199 101.478 72.9334 101.326C72.4648 101.084 71.9306 101.493 71.5566 101.867C71.2161 102.236 70.8216 102.552 70.3862 102.804C69.8666 103.077 69.2595 103.174 68.769 103.495C68.3858 103.783 68.057 104.136 67.7977 104.539L64.357 109.201C62.9753 111.075 61.7733 113.087 60.5422 115.066C59.4763 116.778 58.9178 118.749 58.114 120.597C58.0504 120.71 58.024 120.84 58.0387 120.969C58.0679 121.095 58.2209 121.196 58.3277 121.124C57.9659 121.481 58.284 122.09 58.199 122.592C58.1024 122.944 57.9009 123.258 57.6211 123.493C58.1556 123.424 58.6981 123.449 59.2237 123.568C59.7669 123.721 60.2795 123.967 60.7389 124.293C61.0327 124.247 61.006 123.728 61.2246 123.534C61.3557 123.421 61.5499 123.435 61.7223 123.402C62.3707 123.276 62.6281 122.501 63.1259 122.063C63.5411 121.699 64.1287 121.58 64.5682 121.237C65.2821 120.679 65.4351 119.687 65.809 118.863C66.1271 118.165 66.6273 117.556 66.9066 116.841C67.0887 116.377 67.1761 115.875 67.4359 115.447C67.8512 114.756 68.633 114.389 69.3785 114.058C69.8496 113.848 70.3498 113.631 70.8573 113.665C70.8306 114.788 70.6873 115.894 70.9326 116.991C71.0176 117.377 71.1365 117.754 71.2385 118.138C71.7023 119.868 71.8116 121.67 71.8334 123.452C72.9491 123.198 74.0886 123.062 75.2329 123.047C76.1338 123.02 77.0322 123.136 77.9331 123.119C79.0015 123.1 80.0578 122.894 81.1262 122.822C82.1946 122.749 83.3116 122.822 84.2562 123.305C84.1795 121.774 84.2225 120.24 84.3849 118.715L84.6423 116.314C84.7004 115.617 84.8083 114.924 84.9652 114.242C85.1061 113.691 85.31 113.16 85.4654 112.611C86.0118 110.679 85.9122 108.616 85.8078 106.604C85.7544 105.57 85.3537 104.553 84.8827 103.633C84.7122 103.291 84.5174 102.962 84.2999 102.647C83.7306 101.867 82.972 101.243 82.0948 100.833C81.2175 100.423 80.2503 100.241 79.2832 100.304C79.1597 100.308 79.0379 100.334 78.9238 100.381C78.7189 100.512 78.5588 100.702 78.4649 100.925C77.9625 101.823 77.2336 102.576 76.3499 103.109Z" fill="#3F3D56"/>
<path d="M71.5521 97.4464C71.6613 97.2048 71.9551 97.1154 72.1348 96.9222C72.4796 96.555 72.3242 95.968 72.3777 95.4728C72.4651 94.7482 73.0697 94.1419 73.7617 93.8834C74.4675 93.6581 75.2184 93.6108 75.9471 93.7457C76.2979 93.7712 76.6367 93.8833 76.933 94.0718C77.0593 94.1636 77.1758 94.282 77.2948 94.3665C77.5117 94.4969 77.7712 94.5378 78.018 94.4805C78.2648 94.4232 78.4793 94.2722 78.6157 94.0597C77.7562 93.0307 76.8043 91.9437 75.4979 91.6273C75.0497 91.5363 74.5931 91.4933 74.1357 91.4992C73.5311 91.4872 72.907 91.4775 72.3485 91.707C71.5885 92.0186 71.0543 92.736 70.7799 93.509C70.5399 94.2925 70.4116 95.1056 70.3987 95.9245C70.3489 96.471 70.3489 97.0207 70.3987 97.5671C70.4925 98.3133 70.7712 99.0247 71.2097 99.6373C71.269 99.7324 71.3528 99.81 71.4525 99.8619C72.5598 100.345 71.4622 97.6468 71.5521 97.4464Z" fill="#3F3D56"/>
<path d="M78.49 93.4632C78.3564 92.3255 77.5406 91.3858 76.6737 90.6298C75.975 89.9742 75.1427 89.4758 74.2333 89.1684C73.3179 88.9002 72.2641 88.9582 71.4797 89.5017C70.8484 89.9389 70.4478 90.6346 70.1394 91.3351C69.7343 92.1618 69.5336 93.0728 69.5542 93.9922C69.6149 94.9053 70.0617 95.8305 70.8581 96.2918C71.1446 95.8715 71.6424 95.6541 72.1208 95.4826C74.2057 94.6957 76.3319 94.0216 78.49 93.4632Z" fill="#FED253"/>
<path opacity="0.1" d="M71.1244 92.9894C71.2021 92.9894 71.2531 93.0691 71.292 93.1343C71.4897 93.4407 71.6595 93.7641 71.7995 94.1005C71.5154 94.1609 71.0273 94.2286 70.8865 93.9798C70.8112 93.8542 70.901 92.9773 71.1244 92.9894Z" fill="black"/>
<path opacity="0.1" d="M76.6588 92.4438C76.6005 92.4993 76.5325 92.3858 76.5325 92.3037V91.3664C76.5309 91.3404 76.5368 91.3144 76.5495 91.2915C76.5595 91.2801 76.5718 91.2708 76.5856 91.2641C76.5994 91.2575 76.6143 91.2537 76.6296 91.2529C76.8263 91.2312 76.989 91.3978 77.1153 91.5573C77.3069 91.8156 77.4735 92.0914 77.613 92.381L76.5859 92.3496" fill="black"/>
<path d="M89.4772 107.963C89.7007 107.752 89.9393 107.558 90.1911 107.381C90.8637 106.934 91.6772 106.758 92.4324 106.473C93.1875 106.188 93.9548 105.726 94.2487 104.978C94.3957 104.509 94.4437 104.016 94.3895 103.528C94.3965 103.324 94.3601 103.121 94.2827 102.932C94.1902 102.764 94.0586 102.622 93.899 102.516C92.8743 101.762 91.4999 101.702 90.2275 101.779C87.4223 101.952 84.6727 102.635 82.1149 103.794C81.9796 103.838 81.8611 103.923 81.7749 104.035C81.7251 104.14 81.7026 104.256 81.7094 104.371C81.6641 105.084 81.7573 105.798 81.9837 106.475C82.3188 107.335 83.0085 108.028 83.2974 108.905C83.4285 109.299 83.4722 109.717 83.5864 110.113C83.68 110.522 83.9232 110.882 84.2687 111.123C85.2278 111.693 86.1336 110.927 86.7989 110.333L89.4772 107.963Z" fill="#3F3D56"/>
<path d="M76.9163 111.309L75.6852 108.637C75.5047 108.267 75.3489 107.885 75.2189 107.494C75.0781 107.028 75.0101 106.545 74.879 106.077C74.4468 104.516 73.3565 103.216 72.8247 101.687C72.7911 101.549 72.7226 101.422 72.6256 101.318C72.548 101.263 72.4593 101.226 72.3657 101.21C72.2721 101.193 72.176 101.197 72.0841 101.221C71.3411 101.349 70.7608 101.912 70.0809 102.231C69.7652 102.376 69.4252 102.472 69.1096 102.639C68.9518 102.714 68.812 102.821 68.6997 102.954C68.5874 103.087 68.5052 103.242 68.4588 103.41C68.3835 103.779 68.5681 104.134 68.7235 104.494C69.3839 105.977 69.5345 107.635 69.5636 109.258C69.5855 110.35 69.5296 111.521 68.8813 112.398C67.6356 114.089 68.4321 116.572 68.8983 118.618C68.9542 118.86 69.0197 119.121 69.0586 119.377C69.0997 119.697 69.1183 120.02 69.1144 120.343C69.1144 121.427 69.0537 122.546 68.5972 123.529C69.0479 123.767 69.5446 123.907 70.0541 123.94C71.4641 124.118 72.8798 124.244 74.3011 124.316C74.7464 124.358 75.1954 124.335 75.6342 124.249C76.1552 124.109 76.6145 123.8 76.9394 123.371C77.2644 122.943 77.4365 122.418 77.4286 121.882C77.5063 122.551 77.6496 123.278 78.1377 123.741C78.6257 124.205 79.3372 124.275 80.0001 124.312C81.871 124.41 83.7469 124.358 85.6093 124.155C85.7282 124.149 85.845 124.122 85.9541 124.075C86.3135 123.896 86.3329 123.403 86.3038 123.007C86.2503 122.266 86.1945 121.524 86.1046 120.787C86.0285 120.318 85.9895 119.843 85.9881 119.367C86.0251 118.878 86.1064 118.392 86.2309 117.918C86.5563 116.41 86.8137 114.872 86.7044 113.328C86.6612 112.952 86.6458 112.573 86.6583 112.195C86.7214 111.342 87.1731 110.531 87.0881 109.683C86.8452 107.19 86.6486 104.632 85.9492 102.226C85.823 101.796 85.6627 101.335 85.2863 101.088C84.8007 100.765 84.1184 100.934 83.5623 100.728C83.3014 100.608 83.0533 100.461 82.8217 100.291C82.3185 99.9782 81.7417 99.8016 81.1487 99.7791C80.7019 99.7622 80.2041 99.8613 79.9345 100.219C79.8097 100.42 79.7271 100.644 79.6917 100.878C79.3396 102.352 78.9268 103.808 78.514 105.265L78.1182 106.661L77.0571 110.41C76.9527 110.809 77.0231 110.932 76.9163 111.309Z" fill="#00B0FF"/>
<path d="M83.1247 96.6826L106.613 121.237V123.319H96.14L78.4893 100.403" fill="#F1C0C0"/>
<path opacity="0.1" d="M83.1247 96.6826L106.613 121.237V123.319H96.14L78.4893 100.403" fill="black"/>
<path opacity="0.1" d="M78.8632 100.079L78.9385 100.106L96.2905 121.237H106.613V123.319H96.14L78.4893 100.403L78.8632 100.079Z" fill="black"/>
<path d="M81.566 100.596C80.7162 100.966 79.7716 101.439 79.5166 102.328C79.4663 102.484 79.4554 102.65 79.4851 102.811C79.5472 103.001 79.6656 103.167 79.8247 103.288C79.9838 103.41 80.1761 103.48 80.3762 103.49C80.7761 103.5 81.1737 103.428 81.5442 103.278L86.5584 101.63C86.6944 101.587 86.8498 101.522 86.8838 101.389C86.8926 101.305 86.8756 101.221 86.8353 101.147C86.6799 100.77 86.5269 99.9997 86.2015 99.7364C85.9344 99.5239 85.405 99.5988 85.0821 99.6036C83.8388 99.6133 82.6709 100.113 81.566 100.596Z" fill="#00B0FF"/>
<path d="M86.0367 101.826C86.8814 101.823 87.7213 101.953 88.5256 102.21C89.3335 102.471 90.049 102.957 90.5871 103.611C90.7438 103.794 90.8553 104.01 90.9125 104.244C90.9611 104.485 91.7527 104.63 91.5779 104.795C92.1096 104.71 91.9834 104.959 92.5224 104.954C93.0615 104.949 93.6443 104.811 93.9672 104.384C94.1916 104.033 94.2916 103.617 94.2513 103.203C94.2584 102.916 94.2037 102.631 94.091 102.367C93.8482 101.86 93.2897 101.587 92.775 101.352L88.4382 99.3788C88.1866 99.2457 87.9165 99.1505 87.6369 99.0962C87.4015 99.0741 87.1643 99.0798 86.9302 99.1131L84.9658 99.3378C85.3954 99.6143 85.7452 99.9975 85.9806 100.449C86.2161 100.901 86.3291 101.407 86.3086 101.915" fill="#3F3D56"/>
</g>
<defs>
<clipPath id="clip0_10604_38662">
<rect width="286" height="175" fill="white"/>
</clipPath>
</defs>
</svg>
