<svg width="106" height="21" viewBox="0 0 106 21" fill="none" xmlns="http://www.w3.org/2000/svg">
<rect width="106" height="21" rx="4" fill="#2AACE3"/>
<path d="M24.6208 16V7.502H21.3588V5.92H29.5698V7.502H26.3078V16H24.6208ZM29.9917 16V8.44H31.4827V10.281L31.3007 10.043C31.3941 9.791 31.5177 9.56233 31.6717 9.357C31.8304 9.147 32.0194 8.97433 32.2387 8.839C32.4254 8.713 32.6307 8.615 32.8547 8.545C33.0834 8.47033 33.3167 8.426 33.5547 8.412C33.7927 8.39333 34.0237 8.40267 34.2477 8.44V10.015C34.0237 9.94967 33.7647 9.92867 33.4707 9.952C33.1814 9.97533 32.9201 10.057 32.6867 10.197C32.4534 10.323 32.2621 10.484 32.1127 10.68C31.9681 10.876 31.8607 11.1 31.7907 11.352C31.7207 11.5993 31.6857 11.8677 31.6857 12.157V16H29.9917ZM36.3451 19.36L37.8011 15.363L37.8291 16.539L34.5321 8.44H36.2891L38.6271 14.432H38.1791L40.4541 8.44H42.1411L37.9271 19.36H36.3451ZM45.2878 16L48.4658 5.92H50.9368L54.1148 16H52.3788L49.4948 6.956H49.8728L47.0238 16H45.2878ZM47.0588 13.816V12.241H52.3508V13.816H47.0588ZM58.5584 19.57C58.1384 19.57 57.7347 19.5047 57.3474 19.374C56.9647 19.2433 56.6194 19.0543 56.3114 18.807C56.0034 18.5643 55.7514 18.2703 55.5554 17.925L57.1094 17.155C57.2541 17.4303 57.4571 17.6333 57.7184 17.764C57.9844 17.8993 58.2667 17.967 58.5654 17.967C58.9154 17.967 59.2281 17.904 59.5034 17.778C59.7787 17.6567 59.9911 17.4747 60.1404 17.232C60.2944 16.994 60.3667 16.6953 60.3574 16.336V14.187H60.5674V8.44H62.0444V16.364C62.0444 16.5553 62.0351 16.7373 62.0164 16.91C62.0024 17.0873 61.9767 17.26 61.9394 17.428C61.8274 17.918 61.6127 18.3193 61.2954 18.632C60.9781 18.9493 60.5837 19.185 60.1124 19.339C59.6457 19.493 59.1277 19.57 58.5584 19.57ZM58.4114 16.21C57.7161 16.21 57.1094 16.035 56.5914 15.685C56.0734 15.335 55.6721 14.859 55.3874 14.257C55.1027 13.655 54.9604 12.976 54.9604 12.22C54.9604 11.4547 55.1027 10.7733 55.3874 10.176C55.6767 9.574 56.0851 9.10033 56.6124 8.755C57.1397 8.405 57.7604 8.23 58.4744 8.23C59.1931 8.23 59.7951 8.405 60.2804 8.755C60.7704 9.10033 61.1414 9.574 61.3934 10.176C61.6454 10.778 61.7714 11.4593 61.7714 12.22C61.7714 12.9713 61.6454 13.6503 61.3934 14.257C61.1414 14.859 60.7657 15.335 60.2664 15.685C59.7671 16.035 59.1487 16.21 58.4114 16.21ZM58.6704 14.698C59.1231 14.698 59.4871 14.5953 59.7624 14.39C60.0424 14.18 60.2454 13.8883 60.3714 13.515C60.5021 13.1417 60.5674 12.71 60.5674 12.22C60.5674 11.7253 60.5021 11.2937 60.3714 10.925C60.2454 10.5517 60.0471 10.2623 59.7764 10.057C59.5057 9.847 59.1557 9.742 58.7264 9.742C58.2737 9.742 57.9004 9.854 57.6064 10.078C57.3124 10.2973 57.0954 10.596 56.9554 10.974C56.8154 11.3473 56.7454 11.7627 56.7454 12.22C56.7454 12.682 56.8131 13.102 56.9484 13.48C57.0884 13.8533 57.3007 14.1497 57.5854 14.369C57.8701 14.5883 58.2317 14.698 58.6704 14.698ZM66.1213 16.21C65.5753 16.21 65.1133 16.1073 64.7353 15.902C64.3573 15.692 64.0703 15.4143 63.8743 15.069C63.683 14.7237 63.5873 14.3433 63.5873 13.928C63.5873 13.564 63.648 13.2373 63.7693 12.948C63.8907 12.654 64.0773 12.402 64.3293 12.192C64.5813 11.9773 64.908 11.8023 65.3093 11.667C65.6127 11.569 65.9673 11.4803 66.3733 11.401C66.784 11.3217 67.2273 11.2493 67.7033 11.184C68.184 11.114 68.6857 11.0393 69.2083 10.96L68.6063 11.303C68.611 10.7803 68.4943 10.3953 68.2563 10.148C68.0183 9.90067 67.617 9.777 67.0523 9.777C66.7117 9.777 66.3827 9.85633 66.0653 10.015C65.748 10.1737 65.5263 10.4467 65.4003 10.834L63.8603 10.351C64.047 9.71167 64.4017 9.19833 64.9243 8.811C65.4517 8.42367 66.161 8.23 67.0523 8.23C67.7243 8.23 68.3147 8.33967 68.8233 8.559C69.3367 8.77833 69.717 9.13767 69.9643 9.637C70.0997 9.903 70.1813 10.176 70.2093 10.456C70.2373 10.7313 70.2513 11.0323 70.2513 11.359V16H68.7743V14.362L69.0193 14.628C68.6787 15.174 68.2797 15.5753 67.8223 15.832C67.3697 16.084 66.8027 16.21 66.1213 16.21ZM66.4573 14.866C66.84 14.866 67.1667 14.7983 67.4373 14.663C67.708 14.5277 67.9227 14.362 68.0813 14.166C68.2447 13.97 68.3543 13.7857 68.4103 13.613C68.499 13.3983 68.548 13.1533 68.5573 12.878C68.5713 12.598 68.5783 12.3717 68.5783 12.199L69.0963 12.353C68.5877 12.4323 68.1513 12.5023 67.7873 12.563C67.4233 12.6237 67.1107 12.682 66.8493 12.738C66.588 12.7893 66.357 12.8477 66.1563 12.913C65.9603 12.983 65.7947 13.0647 65.6593 13.158C65.524 13.2513 65.419 13.3587 65.3443 13.48C65.2743 13.6013 65.2393 13.7437 65.2393 13.907C65.2393 14.0937 65.286 14.2593 65.3793 14.404C65.4727 14.544 65.608 14.656 65.7853 14.74C65.9673 14.824 66.1913 14.866 66.4573 14.866ZM72.2138 7.292V5.745H73.9008V7.292H72.2138ZM72.2138 16V8.44H73.9008V16H72.2138ZM81.2266 16V12.36C81.2266 12.122 81.2102 11.8583 81.1776 11.569C81.1449 11.2797 81.0679 11.002 80.9466 10.736C80.8299 10.4653 80.6526 10.2437 80.4146 10.071C80.1812 9.89833 79.8639 9.812 79.4626 9.812C79.2479 9.812 79.0356 9.847 78.8256 9.917C78.6156 9.987 78.4242 10.1083 78.2516 10.281C78.0836 10.449 77.9482 10.6823 77.8456 10.981C77.7429 11.275 77.6916 11.653 77.6916 12.115L76.6906 11.688C76.6906 11.044 76.8142 10.4607 77.0616 9.938C77.3136 9.41533 77.6822 9 78.1676 8.692C78.6529 8.37933 79.2502 8.223 79.9596 8.223C80.5196 8.223 80.9816 8.31633 81.3456 8.503C81.7096 8.68967 81.9989 8.92767 82.2136 9.217C82.4282 9.50633 82.5869 9.81433 82.6896 10.141C82.7922 10.4677 82.8576 10.778 82.8856 11.072C82.9182 11.3613 82.9346 11.597 82.9346 11.779V16H81.2266ZM75.9836 16V8.44H77.4886V10.785H77.6916V16H75.9836Z" fill="white"/>
</svg>
