<svg width="50" height="51" viewBox="0 0 50 51" fill="none" xmlns="http://www.w3.org/2000/svg">
<path d="M0 33.6792H4.27471V46.2935H13.1868C17.0027 46.2935 17.3296 46.725 16.4835 50.6579H0V33.6792Z" fill="white"/>
<path d="M33.791 50.6579V46.3492H45.6509V33.6792H49.9998V50.6579H33.791Z" fill="white"/>
<path d="M16.4835 0V4.31426H4.39559V16.0936L0 15.8653V0H16.4835Z" fill="white"/>
<path d="M49.9998 16.1434H45.7471V4.4671H33.7334C33.8515 2.86943 33.9587 1.4332 34.0658 0.0136719H49.9998V16.1434Z" fill="white"/>
<path d="M25.0188 42.0624H10.7331C8.94192 42.0624 8.87599 41.9371 8.81005 40.2031C8.66994 37.1024 9.81005 34.7031 12.4309 33.0581C14.3705 31.839 16.2935 30.5865 18.2633 29.4174C19.7194 28.5518 20.2194 27.5498 19.6369 25.9438C19.1342 24.5827 18.3705 23.3162 17.8897 21.9496C17.3787 20.4855 16.1315 18.9853 17.7276 17.3932C17.8622 17.2596 17.6809 16.7947 17.6424 16.483C17.2111 13.1012 18.7084 10.6629 21.3595 8.83701C23.832 7.14471 26.4144 6.9944 28.9803 8.53084C32.7358 10.7798 33.5408 12.6447 32.8951 17.0397C32.8362 17.4307 32.874 17.8305 33.005 18.2031C33.4254 19.3165 32.9528 22.1556 32.0133 22.8653C30.7688 23.8089 30.7248 25.17 30.5133 26.4837C30.2798 27.9506 30.7276 28.8663 32.2083 29.59C34.332 30.631 36.277 32.0617 38.2523 33.3921C40.9226 35.1874 41.6039 37.8734 41.3896 40.924C41.31 42.0373 40.549 42.0596 39.7138 42.0596C34.81 42.054 29.9144 42.0624 25.0188 42.0624Z" fill="white"/>
</svg>
