<svg width="9" height="6" viewBox="0 0 9 6" fill="none" xmlns="http://www.w3.org/2000/svg">
<path d="M4.95703 0.586914C4.72412 0.591309 4.53955 0.67041 4.35498 0.859375L1.12061 4.16846C0.984375 4.30908 0.914063 4.47168 0.914063 4.67383C0.914062 5.07812 1.24365 5.41211 1.64355 5.41211C1.8457 5.41211 2.03027 5.32861 2.18408 5.1748L4.95264 2.30957L7.72998 5.1748C7.87939 5.32861 8.06396 5.41211 8.27051 5.41211C8.67041 5.41211 9 5.07813 9 4.67383C9 4.47607 8.93408 4.30908 8.79346 4.16846L5.55908 0.859375C5.37451 0.67041 5.18555 0.586914 4.95703 0.586914Z" fill="currentColor"/>
</svg>
