<svg width="353" height="55" viewBox="0 0 353 55" fill="none" xmlns="http://www.w3.org/2000/svg">
<path d="M101 16.002L248 16.002" stroke="#2AACE3" stroke-width="2"/>
<path d="M244.046 50.212C243.244 50.212 242.537 50.0486 241.925 49.722C241.319 49.3953 240.843 48.9356 240.497 48.343C240.157 47.7503 239.986 47.055 239.986 46.257V39.936L241.694 39.922V46.215C241.694 46.593 241.757 46.9313 241.883 47.23C242.014 47.5286 242.189 47.783 242.408 47.993C242.628 48.1983 242.88 48.3546 243.164 48.462C243.449 48.5693 243.743 48.623 244.046 48.623C244.359 48.623 244.655 48.5693 244.935 48.462C245.22 48.35 245.472 48.1913 245.691 47.986C245.911 47.776 246.083 47.5216 246.209 47.223C246.335 46.9243 246.398 46.5883 246.398 46.215V39.922H248.106V46.257C248.106 47.055 247.934 47.7503 247.588 48.343C247.248 48.9356 246.772 49.3953 246.16 49.722C245.554 50.0486 244.849 50.212 244.046 50.212ZM253.696 50.212C252.958 50.212 252.34 50.037 251.841 49.687C251.341 49.337 250.966 48.861 250.714 48.259C250.462 47.6523 250.336 46.9733 250.336 46.222C250.336 45.4613 250.462 44.78 250.714 44.178C250.966 43.576 251.334 43.1023 251.82 42.757C252.31 42.407 252.914 42.232 253.633 42.232C254.347 42.232 254.965 42.407 255.488 42.757C256.015 43.1023 256.423 43.576 256.713 44.178C257.002 44.7753 257.147 45.4566 257.147 46.222C257.147 46.978 257.004 47.657 256.72 48.259C256.435 48.861 256.034 49.337 255.516 49.687C254.998 50.037 254.391 50.212 253.696 50.212ZM250.049 53.362V42.442H251.54V47.748H251.75V53.362H250.049ZM253.437 48.7C253.875 48.7 254.237 48.5903 254.522 48.371C254.806 48.1516 255.016 47.8553 255.152 47.482C255.292 47.104 255.362 46.684 255.362 46.222C255.362 45.7646 255.292 45.3493 255.152 44.976C255.012 44.598 254.795 44.2993 254.501 44.08C254.207 43.856 253.833 43.744 253.381 43.744C252.951 43.744 252.601 43.849 252.331 44.059C252.06 44.2643 251.859 44.5536 251.729 44.927C251.603 45.2956 251.54 45.7273 251.54 46.222C251.54 46.712 251.603 47.1436 251.729 47.517C251.859 47.8903 252.062 48.182 252.338 48.392C252.618 48.5973 252.984 48.7 253.437 48.7ZM258.829 50.002V39.712H260.516V50.002H258.829ZM265.952 50.212C265.196 50.212 264.536 50.0416 263.971 49.701C263.407 49.3603 262.968 48.8913 262.655 48.294C262.347 47.692 262.193 47.0013 262.193 46.222C262.193 45.4286 262.352 44.7333 262.669 44.136C262.987 43.5386 263.428 43.072 263.992 42.736C264.557 42.4 265.21 42.232 265.952 42.232C266.713 42.232 267.376 42.4023 267.94 42.743C268.505 43.0836 268.944 43.555 269.256 44.157C269.569 44.7543 269.725 45.4426 269.725 46.222C269.725 47.006 269.567 47.699 269.249 48.301C268.937 48.8983 268.498 49.3673 267.933 49.708C267.369 50.044 266.708 50.212 265.952 50.212ZM265.952 48.63C266.624 48.63 267.124 48.406 267.45 47.958C267.777 47.51 267.94 46.9313 267.94 46.222C267.94 45.4893 267.775 44.906 267.443 44.472C267.112 44.0333 266.615 43.814 265.952 43.814C265.5 43.814 265.126 43.9166 264.832 44.122C264.543 44.3226 264.328 44.605 264.188 44.969C264.048 45.3283 263.978 45.746 263.978 46.222C263.978 46.9546 264.144 47.5403 264.475 47.979C264.811 48.413 265.304 48.63 265.952 48.63ZM273.382 50.212C272.836 50.212 272.374 50.1093 271.996 49.904C271.618 49.694 271.331 49.4163 271.135 49.071C270.943 48.7256 270.848 48.3453 270.848 47.93C270.848 47.566 270.908 47.2393 271.03 46.95C271.151 46.656 271.338 46.404 271.59 46.194C271.842 45.9793 272.168 45.8043 272.57 45.669C272.873 45.571 273.228 45.4823 273.634 45.403C274.044 45.3236 274.488 45.2513 274.964 45.186C275.444 45.116 275.946 45.0413 276.469 44.962L275.867 45.305C275.871 44.7823 275.755 44.3973 275.517 44.15C275.279 43.9026 274.877 43.779 274.313 43.779C273.972 43.779 273.643 43.8583 273.326 44.017C273.008 44.1756 272.787 44.4486 272.661 44.836L271.121 44.353C271.307 43.7136 271.662 43.2003 272.185 42.813C272.712 42.4256 273.421 42.232 274.313 42.232C274.985 42.232 275.575 42.3416 276.084 42.561C276.597 42.7803 276.977 43.1396 277.225 43.639C277.36 43.905 277.442 44.178 277.47 44.458C277.498 44.7333 277.512 45.0343 277.512 45.361V50.002H276.035V48.364L276.28 48.63C275.939 49.176 275.54 49.5773 275.083 49.834C274.63 50.086 274.063 50.212 273.382 50.212ZM273.718 48.868C274.1 48.868 274.427 48.8003 274.698 48.665C274.968 48.5296 275.183 48.364 275.342 48.168C275.505 47.972 275.615 47.7876 275.671 47.615C275.759 47.4003 275.808 47.1553 275.818 46.88C275.832 46.6 275.839 46.3736 275.839 46.201L276.357 46.355C275.848 46.4343 275.412 46.5043 275.048 46.565C274.684 46.6256 274.371 46.684 274.11 46.74C273.848 46.7913 273.617 46.8496 273.417 46.915C273.221 46.985 273.055 47.0666 272.92 47.16C272.784 47.2533 272.679 47.3606 272.605 47.482C272.535 47.6033 272.5 47.7456 272.5 47.909C272.5 48.0956 272.546 48.2613 272.64 48.406C272.733 48.546 272.868 48.658 273.046 48.742C273.228 48.826 273.452 48.868 273.718 48.868ZM282.365 50.212C281.67 50.212 281.063 50.037 280.545 49.687C280.027 49.337 279.626 48.861 279.341 48.259C279.056 47.657 278.914 46.978 278.914 46.222C278.914 45.4566 279.056 44.7753 279.341 44.178C279.63 43.576 280.039 43.1023 280.566 42.757C281.093 42.407 281.714 42.232 282.428 42.232C283.147 42.232 283.749 42.407 284.234 42.757C284.724 43.1023 285.095 43.576 285.347 44.178C285.599 44.78 285.725 45.4613 285.725 46.222C285.725 46.9733 285.599 47.6523 285.347 48.259C285.095 48.861 284.719 49.337 284.22 49.687C283.721 50.037 283.102 50.212 282.365 50.212ZM282.624 48.7C283.077 48.7 283.441 48.5973 283.716 48.392C283.996 48.182 284.199 47.8903 284.325 47.517C284.456 47.1436 284.521 46.712 284.521 46.222C284.521 45.7273 284.456 45.2956 284.325 44.927C284.199 44.5536 284.001 44.2643 283.73 44.059C283.459 43.849 283.109 43.744 282.68 43.744C282.227 43.744 281.854 43.856 281.56 44.08C281.266 44.2993 281.049 44.598 280.909 44.976C280.769 45.3493 280.699 45.7646 280.699 46.222C280.699 46.684 280.767 47.104 280.902 47.482C281.042 47.8553 281.254 48.1516 281.539 48.371C281.824 48.5903 282.185 48.7 282.624 48.7ZM284.521 50.002V44.696H284.311V39.922H286.012V50.002H284.521Z" fill="#323232"/>
<rect x="248" y="0.00195312" width="32" height="32" rx="16" fill="#2AACE3"/>
<path d="M259.915 21.502H267.352V20.252H261.844V20.2207L264.524 17.4707C266.594 15.3535 267.165 14.4238 267.165 13.1895V13.1738C267.165 11.4082 265.672 10.041 263.633 10.041C261.532 10.041 259.844 11.4863 259.844 13.4395V13.4863H261.204V13.4473C261.204 12.2363 262.25 11.2676 263.657 11.2676C264.883 11.2676 265.75 12.0957 265.758 13.2441V13.2598C265.758 14.1973 265.407 14.8066 263.883 16.3926L259.915 20.5332V21.502Z" fill="white"/>
<path d="M67.6651 50.212C66.9604 50.212 66.3257 50.0953 65.7611 49.862C65.2011 49.624 64.7367 49.288 64.3681 48.854C64.0041 48.42 63.7661 47.9043 63.6541 47.307L64.7041 47.132C64.8721 47.7853 65.2267 48.2986 65.7681 48.672C66.3094 49.0406 66.9557 49.225 67.7071 49.225C68.2017 49.225 68.6451 49.148 69.0371 48.994C69.4291 48.8353 69.7371 48.6113 69.9611 48.322C70.1851 48.0326 70.2971 47.6896 70.2971 47.293C70.2971 47.0316 70.2504 46.81 70.1571 46.628C70.0637 46.4413 69.9401 46.2873 69.7861 46.166C69.6321 46.0446 69.4641 45.9443 69.2821 45.865C69.1001 45.781 68.9227 45.7133 68.7501 45.662L66.1951 44.899C65.8871 44.8103 65.6024 44.6983 65.3411 44.563C65.0797 44.423 64.8511 44.2573 64.6551 44.066C64.4637 43.87 64.3144 43.6413 64.2071 43.38C64.0997 43.1186 64.0461 42.82 64.0461 42.484C64.0461 41.9146 64.1954 41.4223 64.4941 41.007C64.7927 40.5916 65.2011 40.272 65.7191 40.048C66.2371 39.824 66.8274 39.7143 67.4901 39.719C68.1621 39.719 68.7617 39.838 69.2891 40.076C69.8211 40.314 70.2597 40.6546 70.6051 41.098C70.9504 41.5366 71.1791 42.057 71.2911 42.659L70.2131 42.855C70.1431 42.4163 69.9821 42.036 69.7301 41.714C69.4781 41.392 69.1561 41.1446 68.7641 40.972C68.3767 40.7946 67.9497 40.7036 67.4831 40.699C67.0304 40.699 66.6267 40.776 66.2721 40.93C65.9221 41.0793 65.6444 41.2846 65.4391 41.546C65.2337 41.8073 65.1311 42.106 65.1311 42.442C65.1311 42.7826 65.2244 43.0556 65.4111 43.261C65.6024 43.4663 65.8357 43.6273 66.1111 43.744C66.3911 43.8606 66.6617 43.9563 66.9231 44.031L68.8971 44.612C69.1024 44.668 69.3427 44.7496 69.6181 44.857C69.8981 44.9596 70.1687 45.109 70.4301 45.305C70.6961 45.4963 70.9154 45.7483 71.0881 46.061C71.2607 46.3736 71.3471 46.7703 71.3471 47.251C71.3471 47.7176 71.2537 48.1353 71.0671 48.504C70.8851 48.8726 70.6261 49.183 70.2901 49.435C69.9587 49.687 69.5691 49.8783 69.1211 50.009C68.6777 50.1443 68.1924 50.212 67.6651 50.212ZM75.991 50.212C75.2537 50.212 74.6143 50.0486 74.073 49.722C73.5363 49.3953 73.1187 48.9356 72.82 48.343C72.5213 47.7503 72.372 47.055 72.372 46.257C72.372 45.431 72.519 44.717 72.813 44.115C73.107 43.513 73.52 43.0486 74.052 42.722C74.5887 42.3953 75.221 42.232 75.949 42.232C76.6957 42.232 77.3327 42.4046 77.86 42.75C78.3873 43.0906 78.7863 43.5806 79.057 44.22C79.3277 44.8593 79.4513 45.6223 79.428 46.509H78.378V46.145C78.3593 45.165 78.147 44.4253 77.741 43.926C77.3397 43.4266 76.7517 43.177 75.977 43.177C75.165 43.177 74.542 43.4406 74.108 43.968C73.6787 44.4953 73.464 45.2466 73.464 46.222C73.464 47.174 73.6787 47.9136 74.108 48.441C74.542 48.9636 75.1557 49.225 75.949 49.225C76.4903 49.225 76.9617 49.1013 77.363 48.854C77.769 48.602 78.0887 48.2403 78.322 47.769L79.281 48.14C78.9823 48.798 78.5413 49.309 77.958 49.673C77.3793 50.0323 76.7237 50.212 75.991 50.212ZM73.1 46.509V45.648H78.875V46.509H73.1ZM81.1215 50.002V39.712H82.1505V50.002H81.1215ZM87.448 50.212C86.7107 50.212 86.0714 50.0486 85.53 49.722C84.9934 49.3953 84.5757 48.9356 84.277 48.343C83.9784 47.7503 83.829 47.055 83.829 46.257C83.829 45.431 83.976 44.717 84.27 44.115C84.564 43.513 84.977 43.0486 85.509 42.722C86.0457 42.3953 86.678 42.232 87.406 42.232C88.1527 42.232 88.7897 42.4046 89.317 42.75C89.8444 43.0906 90.2434 43.5806 90.514 44.22C90.7847 44.8593 90.9084 45.6223 90.885 46.509H89.835V46.145C89.8164 45.165 89.604 44.4253 89.198 43.926C88.7967 43.4266 88.2087 43.177 87.434 43.177C86.622 43.177 85.999 43.4406 85.565 43.968C85.1357 44.4953 84.921 45.2466 84.921 46.222C84.921 47.174 85.1357 47.9136 85.565 48.441C85.999 48.9636 86.6127 49.225 87.406 49.225C87.9474 49.225 88.4187 49.1013 88.82 48.854C89.226 48.602 89.5457 48.2403 89.779 47.769L90.738 48.14C90.4394 48.798 89.9984 49.309 89.415 49.673C88.8364 50.0323 88.1807 50.212 87.448 50.212ZM84.557 46.509V45.648H90.332V46.509H84.557ZM95.5745 50.212C94.8138 50.212 94.1698 50.0416 93.6425 49.701C93.1152 49.3603 92.7138 48.8913 92.4385 48.294C92.1678 47.692 92.0278 47.0013 92.0185 46.222C92.0278 45.4286 92.1725 44.7333 92.4525 44.136C92.7325 43.534 93.1362 43.0673 93.6635 42.736C94.1908 42.4 94.8302 42.232 95.5815 42.232C96.3468 42.232 97.0118 42.4186 97.5765 42.792C98.1458 43.1653 98.5355 43.6763 98.7455 44.325L97.7375 44.647C97.5602 44.1943 97.2778 43.8443 96.8905 43.597C96.5078 43.345 96.0692 43.219 95.5745 43.219C95.0192 43.219 94.5595 43.3473 94.1955 43.604C93.8315 43.856 93.5608 44.2083 93.3835 44.661C93.2062 45.1136 93.1152 45.634 93.1105 46.222C93.1198 47.1273 93.3298 47.8553 93.7405 48.406C94.1512 48.952 94.7625 49.225 95.5745 49.225C96.0878 49.225 96.5242 49.1083 96.8835 48.875C97.2475 48.637 97.5228 48.2916 97.7095 47.839L98.7455 48.147C98.4655 48.819 98.0548 49.3323 97.5135 49.687C96.9722 50.037 96.3258 50.212 95.5745 50.212ZM104.306 50.002C103.882 50.0906 103.462 50.1256 103.046 50.107C102.636 50.0883 102.267 49.9996 101.94 49.841C101.618 49.6823 101.373 49.435 101.205 49.099C101.07 48.819 100.995 48.5366 100.981 48.252C100.972 47.9626 100.967 47.6336 100.967 47.265V40.342H101.989V47.223C101.989 47.5403 101.992 47.8063 101.996 48.021C102.006 48.231 102.055 48.4176 102.143 48.581C102.311 48.8936 102.577 49.0803 102.941 49.141C103.31 49.2016 103.765 49.1876 104.306 49.099V50.002ZM99.3504 43.324V42.442H104.306V43.324H99.3504Z" fill="#323232"/>
<rect x="69.0005" y="0.00195312" width="32" height="32" rx="16" fill="#81C784"/>
<path d="M82.0004 20.2021L77.8004 16.0021L76.4004 17.4021L82.0004 23.0021L94.0004 11.0021L92.6004 9.60205L82.0004 20.2021Z" fill="white"/>
</svg>
