<svg width="124" height="32" viewBox="0 0 124 32" fill="none" xmlns="http://www.w3.org/2000/svg">
<rect width="124" height="32" rx="16" fill="white"/>
<g clip-path="url(#clip0_3176_5731)">
<path d="M27 20.9538C27.0487 20.7918 27.0845 20.6246 27.1482 20.4685C27.2876 20.1277 27.5253 19.8361 27.831 19.6309C28.1367 19.4257 28.4966 19.3162 28.8648 19.3164H40.1396C41.1558 19.3164 41.9974 20.1545 41.9953 21.1686C41.9953 21.5827 42.0179 22.0014 41.9677 22.4105C41.8691 23.2133 41.2379 23.8331 40.4398 23.9713C40.4121 23.9788 40.3851 23.9886 40.3591 24.0006H28.6406C28.6145 23.9889 28.5875 23.9791 28.56 23.9713C27.8677 23.8375 27.3906 23.4402 27.125 22.7911C27.0687 22.6532 27.0408 22.5035 27 22.3591V20.9538ZM34.5048 22.8319H39.9829C40.5595 22.8319 40.8309 22.5581 40.8312 21.9774C40.8312 21.7285 40.8383 21.4785 40.8274 21.2308C40.8252 21.1143 40.8001 20.9993 40.7535 20.8925C40.6067 20.585 40.3412 20.4796 40.0093 20.4799C36.3373 20.4828 32.6657 20.4833 28.9945 20.4814C28.9505 20.4814 28.9065 20.4814 28.8628 20.484C28.6802 20.49 28.5069 20.5657 28.3783 20.6954C28.2498 20.8252 28.1758 20.9992 28.1714 21.1818C28.1656 21.3286 28.1688 21.4753 28.1685 21.622C28.1685 21.7634 28.1685 21.9052 28.1685 22.0466C28.1717 22.5346 28.4643 22.8319 28.9552 22.8319C30.8047 22.8319 32.6546 22.8319 34.5048 22.8319Z" fill="black"/>
<path d="M36.7265 13.7262V13.9228C36.7265 15.0359 36.7089 16.1492 36.7321 17.2616C36.7506 18.144 36.002 18.6156 35.3823 18.6083C34.7769 18.6006 34.1715 18.6097 33.5661 18.6056C32.9458 18.6015 32.3976 18.1517 32.2905 17.561C32.2759 17.4596 32.2701 17.3572 32.2732 17.2549C32.2732 16.1322 32.2703 15.0095 32.2756 13.887C32.2756 13.7568 32.2398 13.7204 32.1115 13.7233C31.7944 13.73 31.4772 13.7279 31.1599 13.7171C30.9149 13.7089 30.6657 13.6661 30.5545 13.4131C30.4433 13.1602 30.5935 12.9486 30.7517 12.7667C31.6174 11.7596 32.4858 10.755 33.3569 9.753C33.459 9.63562 33.5594 9.51531 33.6633 9.39852C34.1328 8.87266 34.8699 8.86357 35.3321 9.39294C36.3143 10.518 37.2914 11.6473 38.2633 12.7808C38.3168 12.8438 38.3629 12.9127 38.4009 12.9862C38.5729 13.3148 38.4546 13.6001 38.0925 13.6766C37.8853 13.7204 37.6667 13.7174 37.4531 13.7239C37.2148 13.7318 36.9771 13.7262 36.7265 13.7262Z" fill="black"/>
<path d="M37.546 21.6543C37.546 21.1284 37.9568 20.7217 38.485 20.7223C38.7318 20.7219 38.9686 20.8195 39.1434 20.9936C39.3183 21.1676 39.4169 21.404 39.4176 21.6507C39.4187 21.7741 39.3952 21.8965 39.3486 22.0108C39.3019 22.125 39.2331 22.2289 39.1459 22.3162C39.0588 22.4036 38.9551 22.4728 38.841 22.5198C38.7269 22.5667 38.6046 22.5905 38.4812 22.5898C38.3579 22.5916 38.2354 22.5686 38.1212 22.5222C38.0069 22.4758 37.903 22.4069 37.8158 22.3197C37.7286 22.2325 37.6598 22.1286 37.6135 22.0143C37.5671 21.9 37.5442 21.7776 37.546 21.6543V21.6543Z" fill="black"/>
</g>
<path d="M52.4841 21.18C51.7961 21.18 51.1901 21.04 50.6661 20.76C50.1461 20.48 49.7381 20.086 49.4421 19.578C49.1501 19.07 49.0041 18.474 49.0041 17.79V12.372L50.4681 12.36V17.754C50.4681 18.078 50.5221 18.368 50.6301 18.624C50.7421 18.88 50.8921 19.098 51.0801 19.278C51.2681 19.454 51.4841 19.588 51.7281 19.68C51.9721 19.772 52.2241 19.818 52.4841 19.818C52.7521 19.818 53.0061 19.772 53.2461 19.68C53.4901 19.584 53.7061 19.448 53.8941 19.272C54.0821 19.092 54.2301 18.874 54.3381 18.618C54.4461 18.362 54.5001 18.074 54.5001 17.754V12.36H55.9641V17.79C55.9641 18.474 55.8161 19.07 55.5201 19.578C55.2281 20.086 54.8201 20.48 54.2961 20.76C53.7761 21.04 53.1721 21.18 52.4841 21.18ZM57.6408 21V12.36H61.2108C61.2948 12.36 61.4028 12.364 61.5348 12.372C61.6668 12.376 61.7888 12.388 61.9008 12.408C62.4008 12.484 62.8128 12.65 63.1368 12.906C63.4648 13.162 63.7068 13.486 63.8628 13.878C64.0228 14.266 64.1028 14.698 64.1028 15.174C64.1028 15.646 64.0228 16.078 63.8628 16.47C63.7028 16.858 63.4588 17.18 63.1308 17.436C62.8068 17.692 62.3968 17.858 61.9008 17.934C61.7888 17.95 61.6648 17.962 61.5288 17.97C61.3968 17.978 61.2908 17.982 61.2108 17.982H59.0868V21H57.6408ZM59.0868 16.632H61.1508C61.2308 16.632 61.3208 16.628 61.4208 16.62C61.5208 16.612 61.6128 16.596 61.6968 16.572C61.9368 16.512 62.1248 16.406 62.2608 16.254C62.4008 16.102 62.4988 15.93 62.5548 15.738C62.6148 15.546 62.6448 15.358 62.6448 15.174C62.6448 14.99 62.6148 14.802 62.5548 14.61C62.4988 14.414 62.4008 14.24 62.2608 14.088C62.1248 13.936 61.9368 13.83 61.6968 13.77C61.6128 13.746 61.5208 13.732 61.4208 13.728C61.3208 13.72 61.2308 13.716 61.1508 13.716H59.0868V16.632ZM65.4248 21V12.36H66.8708V19.644H70.6868V21H65.4248ZM75.1229 21.18C74.2589 21.18 73.5189 20.992 72.9029 20.616C72.2869 20.236 71.8129 19.708 71.4809 19.032C71.1529 18.356 70.9889 17.572 70.9889 16.68C70.9889 15.788 71.1529 15.004 71.4809 14.328C71.8129 13.652 72.2869 13.126 72.9029 12.75C73.5189 12.37 74.2589 12.18 75.1229 12.18C75.9869 12.18 76.7269 12.37 77.3429 12.75C77.9629 13.126 78.4369 13.652 78.7649 14.328C79.0969 15.004 79.2629 15.788 79.2629 16.68C79.2629 17.572 79.0969 18.356 78.7649 19.032C78.4369 19.708 77.9629 20.236 77.3429 20.616C76.7269 20.992 75.9869 21.18 75.1229 21.18ZM75.1229 19.818C75.7029 19.822 76.1849 19.694 76.5689 19.434C76.9569 19.174 77.2469 18.808 77.4389 18.336C77.6349 17.864 77.7329 17.312 77.7329 16.68C77.7329 16.048 77.6349 15.5 77.4389 15.036C77.2469 14.568 76.9569 14.204 76.5689 13.944C76.1849 13.684 75.7029 13.55 75.1229 13.542C74.5429 13.538 74.0609 13.666 73.6769 13.926C73.2929 14.186 73.0029 14.552 72.8069 15.024C72.6149 15.496 72.5189 16.048 72.5189 16.68C72.5189 17.312 72.6149 17.862 72.8069 18.33C72.9989 18.794 73.2869 19.156 73.6709 19.416C74.0589 19.676 74.5429 19.81 75.1229 19.818ZM79.6228 21L82.3468 12.36H84.4648L87.1888 21H85.7008L83.2288 13.248H83.5528L81.1108 21H79.6228ZM81.1408 19.128V17.778H85.6768V19.128H81.1408ZM88.2736 21V12.36H91.0276C91.0996 12.36 91.2416 12.362 91.4536 12.366C91.6696 12.37 91.8776 12.384 92.0776 12.408C92.7616 12.496 93.3396 12.74 93.8116 13.14C94.2876 13.536 94.6476 14.042 94.8916 14.658C95.1356 15.274 95.2576 15.948 95.2576 16.68C95.2576 17.412 95.1356 18.086 94.8916 18.702C94.6476 19.318 94.2876 19.826 93.8116 20.226C93.3396 20.622 92.7616 20.864 92.0776 20.952C91.8816 20.976 91.6756 20.99 91.4596 20.994C91.2436 20.998 91.0996 21 91.0276 21H88.2736ZM89.7436 19.638H91.0276C91.1476 19.638 91.2996 19.634 91.4836 19.626C91.6716 19.618 91.8376 19.6 91.9816 19.572C92.3896 19.496 92.7216 19.314 92.9776 19.026C93.2336 18.738 93.4216 18.388 93.5416 17.976C93.6656 17.564 93.7276 17.132 93.7276 16.68C93.7276 16.212 93.6656 15.772 93.5416 15.36C93.4176 14.948 93.2256 14.602 92.9656 14.322C92.7096 14.042 92.3816 13.864 91.9816 13.788C91.8376 13.756 91.6716 13.738 91.4836 13.734C91.2996 13.726 91.1476 13.722 91.0276 13.722H89.7436V19.638Z" fill="black"/>
<defs>
<clipPath id="clip0_3176_5731">
<rect width="15" height="14.9994" fill="white" transform="translate(27 9)"/>
</clipPath>
</defs>
</svg>
