<svg width="24" height="25" viewBox="0 0 24 25" fill="none" xmlns="http://www.w3.org/2000/svg">
<g clip-path="url(#clip0_12522_16022)">
<path d="M18.6053 9.66828V10.0176C18.6053 14.3414 18.6073 18.6653 18.5999 22.9891C18.5999 23.2166 18.5671 23.4629 18.4761 23.6683C18.2031 24.2845 17.4651 24.492 16.8642 24.1347C15.975 23.6067 15.0857 23.0788 14.2118 22.5261C13.9255 22.3454 13.712 22.3414 13.4216 22.5241C12.4674 23.1216 11.4885 23.6783 10.5297 24.2685C10.0272 24.5776 9.56213 24.5783 9.05694 24.2638C8.07267 23.6516 7.06765 23.0741 6.07936 22.4686C5.86323 22.3361 5.69997 22.3421 5.48652 22.4739C4.57049 23.038 3.64844 23.5913 2.72037 24.1353C2.01847 24.5468 1.2008 24.219 1.0101 23.4609C0.979993 23.3418 0.976647 23.2133 0.976647 23.0888C0.97464 16.6111 0.973302 10.1333 0.976647 3.65557C0.977316 1.87303 2.3537 0.503346 4.13891 0.502007C9.3808 0.499331 14.6234 0.499331 19.8652 0.502007C21.6397 0.503346 23.0108 1.86701 23.0201 3.63684C23.0275 4.98913 23.0255 6.34142 23.0201 7.69371C23.0161 8.84794 22.2025 9.65958 21.0469 9.66695C20.2466 9.6723 19.4457 9.66761 18.6046 9.66761L18.6053 9.66828ZM2.57785 22.3521C3.32124 21.9038 4.01646 21.4916 4.70432 21.0674C5.42228 20.6251 6.13356 20.6285 6.85018 21.0627C7.77022 21.6201 8.69361 22.1715 9.60896 22.7349C9.75149 22.8225 9.84918 22.8185 9.98769 22.7342C10.8917 22.1828 11.8064 21.6489 12.7077 21.0935C13.4611 20.6291 14.1965 20.6412 14.9425 21.1049C15.5514 21.4829 16.1697 21.8463 16.7846 22.215C16.8455 22.2518 16.9117 22.2792 17.0021 22.3247V21.9948C17.0021 16.2451 16.9981 10.4953 17.0061 4.74557C17.0074 3.86166 16.8656 2.95701 17.3239 2.10321C17.2249 2.10321 17.1673 2.10321 17.1091 2.10321C12.7866 2.10321 8.46343 2.10321 4.14092 2.10388C4.04122 2.10388 3.93951 2.10723 3.84182 2.12529C3.05962 2.26848 2.57718 2.87203 2.57718 3.71445C2.57651 9.83155 2.57718 15.9486 2.57718 22.0657C2.57718 22.146 2.57718 22.227 2.57718 22.3521H2.57785ZM18.6093 8.06306C19.4651 8.06306 20.2968 8.06842 21.1285 8.05905C21.3427 8.05637 21.4209 7.90314 21.4209 7.69906C21.4189 6.32335 21.427 4.94831 21.4156 3.5726C21.4096 2.81315 20.8221 2.1922 20.0673 2.1099C19.3299 2.02894 18.6254 2.57896 18.616 3.30027C18.5952 4.87538 18.6093 6.45048 18.6093 8.06306Z" fill="#2AACE3"/>
<path d="M9.21189 6.55528C10.2463 6.55528 11.2815 6.55394 12.3159 6.55528C12.8566 6.55595 13.2085 6.87044 13.2099 7.34953C13.2112 7.82594 12.8532 8.15582 12.322 8.15649C10.2356 8.15849 8.15 8.15849 6.06368 8.15649C5.59864 8.15649 5.26609 7.87077 5.20787 7.44254C5.15769 7.07452 5.39389 6.7045 5.76258 6.59476C5.87164 6.56197 5.99275 6.55729 6.10784 6.55729C7.1423 6.55461 8.17743 6.55595 9.21189 6.55595V6.55528Z" fill="#2AACE3"/>
<path d="M9.19268 12.4379C8.14149 12.4379 7.0903 12.4439 6.03911 12.4359C5.45698 12.4312 5.08227 11.9381 5.23885 11.4081C5.33921 11.0682 5.63697 10.8481 6.03443 10.8387C6.43456 10.83 6.83537 10.836 7.2355 10.836C8.92904 10.836 10.6226 10.8347 12.3168 10.8374C12.8354 10.838 13.186 11.1391 13.2087 11.5881C13.2328 12.0705 12.8996 12.4285 12.3964 12.4359C11.7788 12.4452 11.1619 12.4386 10.5443 12.4386C10.094 12.4386 9.64299 12.4386 9.19268 12.4386V12.4379Z" fill="#2AACE3"/>
<path d="M9.21332 15.2249C10.2478 15.2249 11.2829 15.2242 12.3174 15.2249C12.8547 15.2249 13.2093 15.5434 13.2106 16.0212C13.212 16.4982 12.854 16.8261 12.3227 16.8268C10.2451 16.8281 8.16682 16.8281 6.0892 16.8268C5.56863 16.8268 5.19392 16.4788 5.20128 16.0138C5.20931 15.5488 5.56796 15.2262 6.08318 15.2256C7.12634 15.2242 8.16949 15.2256 9.21265 15.2256L9.21332 15.2249Z" fill="#2AACE3"/>
</g>
<defs>
<clipPath id="clip0_12522_16022">
<rect width="22.0509" height="24" fill="white" transform="translate(0.974609 0.5)"/>
</clipPath>
</defs>
</svg>
