<svg width="106" height="96" viewBox="0 0 106 96" fill="none" xmlns="http://www.w3.org/2000/svg">
<g clip-path="url(#clip0_4429_11024)">
<path d="M46.6917 90.932C71.5989 90.932 91.7902 70.9304 91.7902 46.2572C91.7902 21.5841 71.5989 1.58252 46.6917 1.58252C21.7845 1.58252 1.59326 21.5841 1.59326 46.2572C1.59326 70.9304 21.7845 90.932 46.6917 90.932Z" fill="white" stroke="#3578DB" stroke-linecap="round" stroke-linejoin="round"/>
<path d="M14.8022 77.1159C15.9184 75.6402 17.5285 74.5554 19.4012 74.0852C23.6689 73.0146 29.5153 71.8817 33.3349 70.7941C35.3561 70.2163 36.7349 68.3781 36.7349 66.2991V62.7473C36.7349 62.2573 36.4894 61.8127 36.1011 61.5068C33.5376 59.4731 31.782 56.0488 31.1539 52.8652C31.1083 52.6358 31.0683 52.4064 31.034 52.1742C31.034 52.1742 29.1671 52.1912 28.8959 50.4861C28.0595 45.2745 27.4571 45.0508 27.4571 42.7622C27.4571 40.4737 28.3021 39.9327 29.3184 40.5219C29.1499 39.9356 28.8131 38.712 28.8017 37.0126C28.736 26.7056 36.5236 20.1572 45.9841 20.1572C55.4446 20.1572 63.3977 26.4847 63.1665 37.0126C63.1294 38.712 62.8182 39.9356 62.6498 40.5219C63.6661 39.9299 64.5111 40.4737 64.5111 42.7622C64.5111 45.0508 63.9087 45.2774 63.0723 50.4861C62.7982 52.1912 60.9341 52.1742 60.9341 52.1742C60.8513 52.7293 60.6629 53.3637 60.4146 54.0209C59.3669 56.7796 57.5856 59.6402 55.279 61.5096C54.905 61.8127 54.6709 62.2488 54.6709 62.7275V66.2991C54.6709 68.3837 56.064 70.2219 58.0966 70.8025C61.9161 71.8902 68.7275 72.7059 72.9867 73.7765C75.1277 74.3147 76.9233 75.6544 78.0309 77.4614L78.402 78.0392" fill="white"/>
<path d="M14.8022 77.1159C15.9184 75.6402 17.5285 74.5554 19.4012 74.0852C23.6689 73.0146 29.5153 71.8817 33.3349 70.7941C35.3561 70.2163 36.7349 68.3781 36.7349 66.2991V62.7473C36.7349 62.2573 36.4894 61.8127 36.1011 61.5068C33.5376 59.4731 31.782 56.0488 31.1539 52.8652C31.1083 52.6358 31.0683 52.4064 31.034 52.1742C31.034 52.1742 29.1671 52.1912 28.8959 50.4861C28.0595 45.2745 27.4571 45.0508 27.4571 42.7622C27.4571 40.4737 28.3021 39.9327 29.3184 40.5219C29.1499 39.9356 28.8131 38.712 28.8017 37.0126C28.736 26.7056 36.5236 20.1572 45.9841 20.1572C55.4446 20.1572 63.3977 26.4847 63.1665 37.0126C63.1294 38.712 62.8182 39.9356 62.6498 40.5219C63.6661 39.9299 64.5111 40.4737 64.5111 42.7622C64.5111 45.0508 63.9087 45.2774 63.0723 50.4861C62.7982 52.1912 60.9341 52.1742 60.9341 52.1742C60.8513 52.7293 60.6629 53.3637 60.4146 54.0209C59.3669 56.7796 57.5856 59.6402 55.279 61.5096C54.905 61.8127 54.6709 62.2488 54.6709 62.7275V66.2991C54.6709 68.3837 56.064 70.2219 58.0966 70.8025C61.9161 71.8902 68.7275 72.7059 72.9867 73.7765C75.1277 74.3147 76.9233 75.6544 78.0309 77.4614L78.402 78.0392" stroke="#3578DB" stroke-linecap="round" stroke-linejoin="round"/>
<path d="M34.4907 59.9346C40.6911 66.0779 50.7168 65.7041 56.372 60.4586L34.4907 59.9346Z" fill="white"/>
<path d="M34.4907 59.9346C40.6911 66.0779 50.7168 65.7041 56.372 60.4586" stroke="#3578DB" stroke-linecap="round" stroke-linejoin="round"/>
<path d="M63.3518 41.1446L64.0798 33.5681C64.6422 28.0677 62.0529 22.6607 57.2314 19.5933C56.786 19.31 56.2436 19.0409 55.9525 18.8965C49.1269 15.543 41.051 16.5258 41.051 16.5258C38.6844 16.6703 36.5291 17.8712 35.2359 19.7632L33.8714 21.76C30.3544 22.3803 27.8565 25.3854 28.0278 28.7927L29.3182 40.5244L32.347 33.9986C32.4926 33.7834 32.7124 33.5681 32.9607 33.3585C34.5451 32.0358 35.8754 30.4582 36.7803 28.6426L37.4626 27.2689L38.5902 27.7674C43.78 30.0701 49.5351 30.7556 55.2302 30.1863C56.1609 30.0928 56.8717 30.2656 57.043 30.9198C60.0004 42.3541 63.3575 41.1418 63.3575 41.1418L63.3518 41.1446Z" fill="#E0E0E0" stroke="#3578DB" stroke-linecap="round" stroke-linejoin="round"/>
<path d="M98.5995 87.7281C106.461 79.9278 106.461 67.2811 98.5995 59.4809C90.7377 51.6807 77.9913 51.6807 70.1295 59.4809C62.2678 67.2811 62.2678 79.9278 70.1295 87.7281C77.9913 95.5283 90.7377 95.5283 98.5995 87.7281Z" fill="white" stroke="#3578DB" stroke-linecap="round" stroke-linejoin="round"/>
<path d="M72.8779 71.5864H81.4335V63.0752H87.2485V71.5864H95.8525V77.3559H87.2485V85.8218H81.4335V77.3559H72.8779V71.5864Z" fill="#FF9A2E"/>
</g>
<defs>
<clipPath id="clip0_4429_11024">
<rect width="105.929" height="95" fill="white" transform="translate(0.000488281 0.00195312)"/>
</clipPath>
</defs>
</svg>
