<svg width="323" height="360" viewBox="0 0 323 360" fill="none" xmlns="http://www.w3.org/2000/svg">
<path d="M33.4303 75.1536C14.9969 94.5517 11.1073 130.208 32.6617 146.074C38.7633 150.567 46.1667 153.015 52.3344 157.413C73.1478 172.261 73.1718 203.775 63.7955 227.55C54.4191 251.324 38.0116 272.29 32.0169 297.133C26.0221 321.977 36.071 354.11 61.1163 359.274C98.4922 366.984 127.385 310.501 164.391 319.816C177.195 323.039 186.595 333.616 197.727 340.709C207.563 346.977 218.874 350.557 230.528 351.09C242.182 351.623 253.772 349.091 264.14 343.746C274.508 338.402 283.291 330.433 289.612 320.634C295.933 310.836 299.571 299.552 300.161 287.909C301.782 255.876 280.453 226.242 280.927 194.169C281.204 175.54 288.82 157.929 295.366 140.483C301.912 123.037 307.568 104.243 303.779 85.9968C299.991 67.7507 283.623 50.8546 265.079 52.7962C249.115 54.4679 231.384 68.4635 219.349 57.8507C207.441 47.353 218.591 26.6505 211.915 12.2504C205.584 -1.40925 185.711 -2.92726 172.407 4.15038C145.704 18.3597 136.196 43.183 103.985 47.3854C77.3917 50.857 53.6757 53.8475 33.4303 75.1536Z" fill="#F4F4F4"/>
<path d="M89.8374 211.43V217.557C87.0035 217.518 84.2268 216.753 81.7722 215.335L3.75356 170.307C0.349286 168.349 -1.63556 159.39 1.76132 157.412C1.15803 158.58 1.02846 159.935 1.39961 161.197C1.77075 162.458 2.61399 163.527 3.75356 164.181L81.7722 209.214C84.2272 210.63 87.0039 211.393 89.8374 211.43Z" fill="#C9C9C9"/>
<path d="M177.11 163.349L98.3421 209.186C95.8263 210.651 92.9682 211.426 90.0572 211.431C87.1461 211.436 84.2854 210.671 81.7647 209.214L3.75345 164.181C2.61387 163.527 1.77064 162.458 1.3995 161.197C1.02835 159.935 1.15792 158.58 1.76121 157.412C2.20438 156.542 2.89169 155.822 3.73865 155.338L91.2834 104.392L177.096 153.921C177.811 154.329 178.423 154.896 178.884 155.578C179.304 156.197 179.591 156.896 179.729 157.631C179.867 158.365 179.852 159.121 179.686 159.85C179.519 160.579 179.205 161.265 178.762 161.867C178.318 162.47 177.756 162.974 177.11 163.349Z" fill="#EAEAEA"/>
<path d="M177.11 169.474L98.3422 215.305C95.7624 216.81 92.8231 217.586 89.8374 217.551V211.424C92.8231 211.46 95.7626 210.685 98.3422 209.18L177.11 163.343C177.755 162.968 178.316 162.464 178.759 161.863C179.201 161.262 179.516 160.576 179.682 159.848C179.849 159.12 179.864 158.366 179.727 157.632C179.59 156.898 179.304 156.2 178.886 155.581C182.505 157.684 180.729 167.37 177.11 169.474Z" fill="#AEAFAF"/>
<path d="M89.9189 198.85V204.145C87.47 204.113 85.0703 203.453 82.949 202.228L15.5221 163.31C12.5811 161.618 10.8656 153.877 13.8007 152.166C13.2798 153.175 13.168 154.347 13.4887 155.436C13.8093 156.526 14.5377 157.45 15.5221 158.016L82.949 196.941C85.071 198.163 87.4707 198.82 89.9189 198.85Z" fill="#C9C9C9"/>
<path d="M165.335 157.298L97.2632 196.91C95.0898 198.175 92.6211 198.844 90.1065 198.849C87.5919 198.853 85.1208 198.193 82.943 196.935L15.522 158.016C14.5376 157.45 13.8093 156.526 13.4886 155.436C13.168 154.347 13.2797 153.175 13.8006 152.166C14.185 151.416 14.7789 150.795 15.5102 150.377L91.1695 106.347L165.324 149.148C165.942 149.5 166.471 149.99 166.87 150.58C167.233 151.115 167.482 151.719 167.601 152.354C167.72 152.989 167.707 153.643 167.563 154.273C167.419 154.903 167.147 155.497 166.764 156.017C166.381 156.537 165.894 156.973 165.335 157.298Z" fill="#EAEAEA"/>
<path d="M165.335 162.591L97.2631 202.204C95.0334 203.504 92.4932 204.175 89.9128 204.145V198.85C92.4933 198.881 95.0337 198.21 97.2631 196.91L165.335 157.298C165.894 156.974 166.379 156.539 166.762 156.019C167.145 155.5 167.417 154.907 167.562 154.278C167.706 153.649 167.72 152.997 167.602 152.362C167.484 151.727 167.237 151.124 166.876 150.589C170.004 152.401 168.47 160.772 165.335 162.591Z" fill="#AEAFAF"/>
<path d="M74.9088 175.019L133.042 141.829V115.18L74.9088 142.747V175.019Z" fill="#969696"/>
<path d="M93.4576 157.206L80.5776 166.354L79.0294 165.516V145.005L93.4576 136.695L95.0058 137.534L93.4576 157.206Z" fill="#AFB2B2"/>
<path d="M95.0059 158.044L80.5776 166.354V145.844L95.0059 137.534V158.044Z" fill="white"/>
<path d="M82.1217 162.46V163.676L93.458 157.15V140.207L92.2369 140.909V156.63L82.1217 162.46Z" fill="#247F78"/>
<path d="M82.1217 146.74V162.46L92.2369 156.63V140.909L82.1217 146.74Z" fill="#3578DB"/>
<path d="M92.2369 156.63L93.458 157.15L82.1217 163.676V162.46L92.2369 156.63Z" fill="#4286EB"/>
<path d="M79.0294 145.005L80.5785 145.844V166.354L79.0294 165.516V145.005Z" fill="#858C8C"/>
<path d="M129.289 138.714L116.409 147.862L114.86 147.025V126.514L129.289 118.204L130.837 119.042L129.289 138.714Z" fill="#AFB2B2"/>
<path d="M130.837 139.552L116.409 147.862V127.352L130.837 119.042V139.552Z" fill="white"/>
<path d="M117.952 143.969V145.186L129.289 138.658V121.717L128.067 122.417V138.138L117.952 143.969Z" fill="#2264C7"/>
<path d="M117.952 128.249V143.969L128.067 138.138V122.417L117.952 128.249Z" fill="#3578DB"/>
<path d="M128.067 138.138L129.289 138.658L117.952 145.186V143.969L128.067 138.138Z" fill="#4286EB"/>
<path d="M114.86 126.514L116.41 127.352V147.862L114.86 147.025V126.514Z" fill="#858C8C"/>
<path d="M28.4479 148.261L74.9089 175.019V142.747L28.4479 115.987V148.261Z" fill="#E5E5E5"/>
<path d="M92.9754 187.039C96.3777 187.039 99.1357 185.621 99.1357 183.873C99.1357 182.124 96.3777 180.706 92.9754 180.706C89.5732 180.706 86.8152 182.124 86.8152 183.873C86.8152 185.621 89.5732 187.039 92.9754 187.039Z" fill="#EDEFEF"/>
<path d="M99.1357 183.873V185.04C99.1357 186.787 96.3768 188.206 92.9754 188.206C89.5741 188.206 86.8152 186.787 86.8152 185.04V183.873C86.8152 185.622 89.5741 187.039 92.9754 187.039C96.3768 187.039 99.1357 185.622 99.1357 183.873Z" fill="#AEAFAF"/>
<path d="M92.9753 180.228C95.5249 180.228 97.5918 179.165 97.5918 177.854C97.5918 176.543 95.5249 175.48 92.9753 175.48C90.4256 175.48 88.3588 176.543 88.3588 177.854C88.3588 179.165 90.4256 180.228 92.9753 180.228Z" fill="#EDEFEF"/>
<path d="M97.5932 177.852V183.264C97.5932 184.575 95.5211 185.634 92.9753 185.634C90.4295 185.634 88.3588 184.572 88.3588 183.264V177.852C88.3588 179.163 90.4309 180.222 92.9753 180.222C95.5196 180.222 97.5932 179.169 97.5932 177.852Z" fill="#AEAFAF"/>
<path d="M92.9753 154.667C94.6633 154.667 96.0317 153.964 96.0317 153.096C96.0317 152.228 94.6633 151.525 92.9753 151.525C91.2872 151.525 89.9188 152.228 89.9188 153.096C89.9188 153.964 91.2872 154.667 92.9753 154.667Z" fill="url(#paint0_linear_681_711)" stroke="#D1541F" stroke-miterlimit="10"/>
<path d="M96.0317 153.103V177.615C96.0317 178.483 94.6641 179.187 92.9753 179.187C91.2865 179.187 89.9188 178.483 89.9188 177.615V153.103C89.9188 153.97 91.2879 154.675 92.9753 154.675C94.6626 154.675 96.0317 153.962 96.0317 153.103Z" fill="#C0C4C4"/>
<path d="M92.9753 151.578C95.5249 151.578 97.5918 150.515 97.5918 149.204C97.5918 147.893 95.5249 146.83 92.9753 146.83C90.4256 146.83 88.3588 147.893 88.3588 149.204C88.3588 150.515 90.4256 151.578 92.9753 151.578Z" fill="#CDD1D1"/>
<path d="M97.5932 149.204V154.614C97.5932 155.925 95.5211 156.984 92.9753 156.984C90.4295 156.984 88.3588 155.92 88.3588 154.614V149.204C88.3588 150.513 90.4309 151.574 92.9753 151.574C95.5196 151.574 97.5932 150.513 97.5932 149.204Z" fill="#AEAFAF"/>
<path d="M109.44 177.414C112.842 177.414 115.6 175.996 115.6 174.248C115.6 172.499 112.842 171.081 109.44 171.081C106.038 171.081 103.28 172.499 103.28 174.248C103.28 175.996 106.038 177.414 109.44 177.414Z" fill="#EDEFEF"/>
<path d="M115.603 174.248V175.415C115.603 177.162 112.846 178.581 109.443 178.581C106.04 178.581 103.284 177.162 103.284 175.415V174.248C103.284 175.995 106.042 177.414 109.443 177.414C112.844 177.414 115.603 175.995 115.603 174.248Z" fill="#AEAFAF"/>
<path d="M109.44 170.601C111.99 170.601 114.057 169.538 114.057 168.227C114.057 166.916 111.99 165.853 109.44 165.853C106.89 165.853 104.824 166.916 104.824 168.227C104.824 169.538 106.89 170.601 109.44 170.601Z" fill="#EDEFEF"/>
<path d="M114.058 168.227V173.638C114.058 174.948 111.986 176.007 109.44 176.007C106.894 176.007 104.824 174.944 104.824 173.638V168.227C104.824 169.538 106.896 170.597 109.44 170.597C111.984 170.597 114.058 169.543 114.058 168.227Z" fill="#AEAFAF"/>
<path d="M109.44 145.042C111.128 145.042 112.497 144.339 112.497 143.471C112.497 142.603 111.128 141.9 109.44 141.9C107.752 141.9 106.384 142.603 106.384 143.471C106.384 144.339 107.752 145.042 109.44 145.042Z" fill="url(#paint1_linear_681_711)" stroke="#D1541F" stroke-miterlimit="10"/>
<path d="M112.495 143.477V167.989C112.495 168.857 111.127 169.56 109.439 169.56C107.75 169.56 106.382 168.857 106.382 167.989V143.477C106.382 144.345 107.751 145.048 109.439 145.048C111.126 145.048 112.495 144.337 112.495 143.477Z" fill="#C0C4C4"/>
<path d="M109.44 141.953C111.99 141.953 114.057 140.89 114.057 139.579C114.057 138.268 111.99 137.205 109.44 137.205C106.89 137.205 104.824 138.268 104.824 139.579C104.824 140.89 106.89 141.953 109.44 141.953Z" fill="#CDD1D1"/>
<path d="M114.058 139.578V144.989C114.058 146.298 111.986 147.359 109.44 147.359C106.894 147.359 104.824 146.295 104.824 144.989V139.578C104.824 140.888 106.896 141.947 109.44 141.947C111.984 141.947 114.058 140.888 114.058 139.578Z" fill="#AEAFAF"/>
<path d="M125.905 167.789C129.307 167.789 132.065 166.371 132.065 164.623C132.065 162.874 129.307 161.456 125.905 161.456C122.503 161.456 119.745 162.874 119.745 164.623C119.745 166.371 122.503 167.789 125.905 167.789Z" fill="#EDEFEF"/>
<path d="M132.065 164.621V165.788C132.065 167.537 129.308 168.956 125.905 168.956C122.502 168.956 119.746 167.537 119.746 165.788V164.621C119.746 166.37 122.504 167.789 125.905 167.789C129.306 167.789 132.065 166.37 132.065 164.621Z" fill="#AEAFAF"/>
<path d="M125.905 160.976C128.455 160.976 130.521 159.914 130.521 158.602C130.521 157.291 128.455 156.228 125.905 156.228C123.355 156.228 121.288 157.291 121.288 158.602C121.288 159.914 123.355 160.976 125.905 160.976Z" fill="#EDEFEF"/>
<path d="M130.523 158.601V164.013C130.523 165.323 128.451 166.382 125.905 166.382C123.359 166.382 121.288 165.319 121.288 164.013V158.601C121.288 159.912 123.361 160.971 125.905 160.971C128.449 160.971 130.523 159.916 130.523 158.601Z" fill="#AEAFAF"/>
<path d="M125.905 135.416C127.593 135.416 128.961 134.712 128.961 133.845C128.961 132.977 127.593 132.273 125.905 132.273C124.217 132.273 122.848 132.977 122.848 133.845C122.848 134.712 124.217 135.416 125.905 135.416Z" fill="url(#paint2_linear_681_711)" stroke="#D1541F" stroke-miterlimit="10"/>
<path d="M128.963 133.85V158.362C128.963 159.23 127.594 159.934 125.906 159.934C124.219 159.934 122.848 159.23 122.848 158.362V133.85C122.848 134.718 124.217 135.422 125.906 135.422C127.595 135.422 128.963 134.712 128.963 133.85Z" fill="#C0C4C4"/>
<path d="M125.905 132.327C128.455 132.327 130.521 131.264 130.521 129.952C130.521 128.641 128.455 127.578 125.905 127.578C123.355 127.578 121.288 128.641 121.288 129.952C121.288 131.264 123.355 132.327 125.905 132.327Z" fill="#CDD1D1"/>
<path d="M130.523 129.953V135.363C130.523 136.673 128.451 137.732 125.905 137.732C123.359 137.732 121.288 136.669 121.288 135.363V129.953C121.288 131.263 123.361 132.322 125.905 132.322C128.449 132.322 130.523 131.263 130.523 129.953Z" fill="#AEAFAF"/>
<path d="M142.37 158.163C145.772 158.163 148.53 156.745 148.53 154.996C148.53 153.247 145.772 151.83 142.37 151.83C138.968 151.83 136.21 153.247 136.21 154.996C136.21 156.745 138.968 158.163 142.37 158.163Z" fill="#EDEFEF"/>
<path d="M148.53 154.996V156.163C148.53 157.911 145.773 159.33 142.371 159.33C138.97 159.33 136.211 157.911 136.211 156.163V154.996C136.211 156.744 138.969 158.163 142.371 158.163C145.774 158.163 148.53 156.744 148.53 154.996Z" fill="#AEAFAF"/>
<path d="M142.37 151.351C144.92 151.351 146.986 150.288 146.986 148.977C146.986 147.666 144.92 146.603 142.37 146.603C139.82 146.603 137.753 147.666 137.753 148.977C137.753 150.288 139.82 151.351 142.37 151.351Z" fill="#EDEFEF"/>
<path d="M146.982 148.976V154.388C146.982 155.697 144.91 156.757 142.365 156.757C139.821 156.757 137.747 155.694 137.747 154.388V148.976C137.747 150.287 139.82 151.346 142.365 151.346C144.911 151.346 146.982 150.29 146.982 148.976Z" fill="#AEAFAF"/>
<path d="M142.37 125.791C144.058 125.791 145.426 125.087 145.426 124.219C145.426 123.352 144.058 122.648 142.37 122.648C140.682 122.648 139.313 123.352 139.313 124.219C139.313 125.087 140.682 125.791 142.37 125.791Z" fill="url(#paint3_linear_681_711)" stroke="#D1541F" stroke-miterlimit="10"/>
<path d="M145.428 124.224V148.736C145.428 149.602 144.059 150.307 142.371 150.307C140.684 150.307 139.315 149.602 139.315 148.736V124.224C139.315 125.09 140.683 125.795 142.371 125.795C144.06 125.795 145.428 125.086 145.428 124.224Z" fill="#C0C4C4"/>
<path d="M142.37 122.701C144.92 122.701 146.986 121.639 146.986 120.327C146.986 119.016 144.92 117.953 142.37 117.953C139.82 117.953 137.753 119.016 137.753 120.327C137.753 121.639 139.82 122.701 142.37 122.701Z" fill="#CDD1D1"/>
<path d="M146.982 120.326V125.738C146.982 127.048 144.91 128.107 142.365 128.107C139.821 128.107 137.747 127.044 137.747 125.738V120.326C137.747 121.637 139.82 122.696 142.365 122.696C144.911 122.696 146.982 121.637 146.982 120.326Z" fill="#AEAFAF"/>
<path d="M126.589 103.299L159.374 109.198L91.9658 70.5303L59.1797 64.633L126.589 103.299Z" fill="#2264C7"/>
<path d="M25.8414 115.516L92.9753 154.183V147.793L25.8414 109.125V115.516Z" fill="#2264C7"/>
<path d="M159.373 109.198L126.589 103.299L92.9751 147.793V154.183L159.373 114.935V109.198Z" fill="#0A47A0"/>
<path d="M156.28 111.784V113.17L96.1576 148.709L100.537 142.91L152.143 112.407V111.042L156.28 111.784Z" fill="#98BFF9"/>
<path d="M152.143 111.042V112.407L100.537 142.91L127.909 106.679L152.143 111.042Z" fill="#4286EB"/>
<path d="M92.9753 147.793L126.589 103.299L59.455 64.633L25.8414 109.125L92.9753 147.793Z" fill="#3578DB"/>
<path d="M125.921 102.915L92.7029 146.886L26.2351 108.604L25.8414 109.125L92.9753 147.793L126.589 103.299L125.921 102.915Z" fill="url(#paint4_linear_681_711)"/>
<path d="M43.0317 148.745L55.9132 157.893L57.4614 157.056V136.544L43.0317 128.234L41.485 129.073L43.0317 148.745Z" fill="#AFB2B2"/>
<path d="M41.485 149.583L55.9132 157.893V137.383L41.485 129.073V149.583Z" fill="white"/>
<path d="M54.3677 153.999V155.217L43.0315 148.689V131.747L44.2541 132.448V148.169L54.3677 153.999Z" fill="#2264C7"/>
<path d="M54.3678 138.279V153.999L44.2542 148.169V132.448L54.3678 138.279Z" fill="#3578DB"/>
<path d="M44.2541 148.169L43.0315 148.689L54.3677 155.217V153.999L44.2541 148.169Z" fill="#4286EB"/>
<path d="M57.4618 136.544L55.9127 137.383V157.893L57.4618 157.056V136.544Z" fill="#858C8C"/>
<path d="M214.171 40.663L178.525 61.5777C177.303 62.2956 176.29 63.3206 175.586 64.5508C174.883 65.7811 174.512 67.1741 174.512 68.5917V109.078C174.512 113.574 181.746 117.194 184.223 115.742L215.923 91.2791C217.165 90.5504 218.194 89.5095 218.91 88.2596C219.626 87.0098 220.002 85.5944 220.002 84.154L224.774 44.8039C224.77 41.8078 217.815 38.5792 214.171 40.663Z" fill="#2264C7"/>
<path d="M219.61 43.6428L183.964 64.5545C182.741 65.2722 181.727 66.2973 181.023 67.5282C180.318 68.7591 179.947 70.153 179.947 71.5715V112.058C179.947 112.713 180.12 113.356 180.448 113.923C180.777 114.489 181.249 114.959 181.817 115.285C182.385 115.611 183.029 115.781 183.683 115.777C184.338 115.774 184.98 115.598 185.545 115.267L221.364 94.256C222.606 93.5272 223.635 92.4863 224.351 91.2365C225.066 89.9866 225.443 88.5713 225.443 87.1309V46.9839C225.444 46.3012 225.264 45.6304 224.922 45.0396C224.58 44.4488 224.088 43.9589 223.495 43.6197C222.903 43.2805 222.232 43.104 221.55 43.108C220.867 43.1121 220.198 43.2966 219.61 43.6428Z" fill="#3578DB"/>
<path d="M188.721 78.8298C188.721 78.8298 193.184 82.7026 196.187 86.5829C199.19 90.4631 200.924 96.6092 200.924 96.6092C200.924 96.6092 205.808 86.4436 208.69 81.0202C212.211 74.3898 216.752 71.4441 216.752 71.4441L212.8 62.0575C212.8 62.0575 209.069 65.9244 206.761 71.0827C203.696 77.9427 201.729 83.7838 201.729 83.7838C201.729 83.7838 200.739 80.7077 197.626 75.8486C195.326 72.2601 191.899 70.3304 191.899 70.3304L188.721 78.8298Z" fill="white"/>
<path d="M181.008 112.589V72.1031C181.008 70.685 181.378 69.2913 182.082 68.0605C182.786 66.8296 183.799 65.8042 185.021 65.0861L220.665 44.1744C221.133 43.8966 221.655 43.7222 222.196 43.6629C222.737 43.6037 223.285 43.6609 223.802 43.8308C223.195 43.3958 222.476 43.1463 221.731 43.113C220.986 43.0796 220.247 43.2636 219.604 43.6427L183.964 64.5544C182.741 65.2721 181.727 66.2972 181.023 67.5281C180.318 68.759 179.947 70.1529 179.947 71.5714V112.057C179.945 112.85 180.198 113.622 180.667 114.26C181.136 114.898 181.797 115.369 182.554 115.603C182.073 115.262 181.682 114.81 181.413 114.285C181.144 113.76 181.005 113.179 181.008 112.589Z" fill="url(#paint5_linear_681_711)"/>
<path d="M77.2888 255.413L132.28 287.387C134.093 288.441 136.152 288.998 138.25 289.002C140.347 289.006 142.408 288.457 144.226 287.409L229.062 238.832C232.358 236.933 232.367 232.178 229.08 230.266L173.81 198.128C172.111 197.14 170.182 196.618 168.217 196.614C166.252 196.61 164.321 197.125 162.618 198.106L77.3051 246.96C74.0533 248.835 74.0444 253.527 77.2888 255.413Z" fill="#2264C7"/>
<path d="M77.2888 252.216L132.28 284.189C134.093 285.243 136.152 285.801 138.25 285.805C140.347 285.809 142.408 285.26 144.226 284.213L229.062 235.636C232.358 233.737 232.367 228.982 229.08 227.07L173.81 194.932C172.111 193.944 170.182 193.422 168.217 193.418C166.252 193.414 164.321 193.929 162.618 194.91L77.3051 243.764C74.0533 245.637 74.0444 250.33 77.2888 252.216Z" fill="#3578DB"/>
<path d="M139.276 280.555C137.692 280.554 136.136 280.135 134.766 279.339L83.4713 249.515C83.1068 249.303 82.8044 249 82.5943 248.634C82.3843 248.269 82.2742 247.855 82.2749 247.433C82.2757 247.012 82.3873 246.598 82.5986 246.233C82.8099 245.868 83.1135 245.566 83.4787 245.356L163.059 199.786C164.32 199.058 165.75 198.677 167.205 198.68C168.661 198.683 170.09 199.07 171.348 199.802L222.903 229.777C223.276 229.995 223.586 230.306 223.801 230.681C224.016 231.056 224.128 231.48 224.127 231.912C224.127 232.344 224.012 232.769 223.796 233.143C223.579 233.516 223.268 233.827 222.894 234.042L143.758 279.361C142.396 280.146 140.851 280.56 139.279 280.561L139.276 280.555Z" fill="white"/>
<path d="M147.99 223.898L141.505 219.998C140.847 219.603 140.853 218.979 141.519 218.606L148.079 214.924C148.745 214.551 149.818 214.569 150.476 214.964L156.961 218.862C157.619 219.259 157.612 219.883 156.947 220.256L150.388 223.938C149.726 224.311 148.648 224.293 147.99 223.898Z" fill="#19959E"/>
<path d="M193.609 242.441L160.108 222.3C159.746 222.082 159.749 221.737 160.108 221.532C160.314 221.431 160.541 221.381 160.771 221.385C161.001 221.388 161.226 221.447 161.429 221.555L194.93 241.696C195.292 241.912 195.289 242.259 194.93 242.463C194.724 242.564 194.497 242.615 194.267 242.611C194.037 242.607 193.812 242.549 193.609 242.441Z" fill="#D9DBDB"/>
<path d="M189.621 244.679L156.12 224.537C155.759 224.32 155.763 223.975 156.129 223.77C156.335 223.669 156.562 223.619 156.792 223.622C157.021 223.626 157.246 223.684 157.449 223.791L190.95 243.933C191.312 244.15 191.309 244.495 190.95 244.701C190.743 244.803 190.514 244.854 190.283 244.85C190.052 244.846 189.825 244.788 189.621 244.679Z" fill="#D9DBDB"/>
<path d="M170.855 238.031L152.134 226.775C151.773 226.557 151.776 226.212 152.134 226.006C152.341 225.906 152.568 225.856 152.798 225.86C153.027 225.864 153.253 225.922 153.456 226.029L172.176 237.284C172.538 237.502 172.535 237.847 172.176 238.053C171.97 238.154 171.743 238.204 171.513 238.2C171.283 238.196 171.058 238.138 170.855 238.031Z" fill="#D9DBDB"/>
<path d="M146.283 217.122C146.283 217.122 146.875 218.169 146.858 219.207C146.848 219.832 146.633 220.436 146.245 220.925C147.576 220.623 148.928 220.428 150.29 220.342C151.509 220.304 152.728 220.376 153.934 220.556L154.128 218.818C153.162 218.807 152.197 218.865 151.239 218.991C150.381 219.095 149.531 219.25 148.692 219.455C148.784 219.002 148.834 218.542 148.84 218.08C148.84 217.349 148.692 217.218 148.692 217.218L146.283 217.122Z" fill="white"/>
<path d="M133.924 231.791L127.44 227.892C126.781 227.496 126.789 226.873 127.453 226.5L134.013 222.818C134.679 222.445 135.752 222.463 136.411 222.858L142.895 226.756C143.554 227.151 143.546 227.776 142.882 228.15L136.322 231.83C135.656 232.205 134.583 232.187 133.924 231.791Z" fill="#19959E"/>
<path d="M179.543 250.342L146.042 230.201C145.681 229.983 145.684 229.638 146.05 229.434C146.256 229.333 146.483 229.282 146.713 229.286C146.943 229.289 147.168 229.347 147.371 229.454L180.872 249.596C181.234 249.814 181.231 250.159 180.872 250.365C180.665 250.466 180.436 250.517 180.205 250.514C179.974 250.51 179.747 250.451 179.543 250.342Z" fill="#D9DBDB"/>
<path d="M175.556 252.573L142.056 232.431C141.693 232.213 141.698 231.868 142.056 231.663C142.262 231.562 142.489 231.512 142.719 231.516C142.948 231.52 143.173 231.578 143.376 231.685L176.877 251.826C177.238 252.044 177.235 252.389 176.877 252.595C176.671 252.696 176.443 252.746 176.214 252.742C175.984 252.738 175.759 252.68 175.556 252.573Z" fill="#D9DBDB"/>
<path d="M156.789 245.925L138.069 234.669C137.707 234.451 137.71 234.106 138.069 233.9C138.275 233.8 138.502 233.749 138.732 233.753C138.962 233.757 139.187 233.815 139.39 233.923L158.111 245.178C158.472 245.396 158.469 245.741 158.111 245.947C157.904 246.047 157.677 246.097 157.447 246.093C157.218 246.09 156.992 246.032 156.789 245.925Z" fill="#D9DBDB"/>
<path d="M132.218 225.017C132.218 225.017 132.81 226.064 132.792 227.101C132.783 227.726 132.568 228.331 132.179 228.82C133.51 228.519 134.863 228.323 136.224 228.237C137.443 228.199 138.663 228.271 139.868 228.452L140.062 226.713C139.096 226.701 138.131 226.759 137.173 226.886C136.316 226.991 135.465 227.146 134.626 227.35C134.718 226.897 134.768 226.437 134.774 225.975C134.774 225.244 134.626 225.114 134.626 225.114L132.218 225.017Z" fill="white"/>
<path d="M119.859 239.679L113.374 235.78C112.717 235.384 112.723 234.761 113.389 234.386L119.949 230.706C120.614 230.331 121.688 230.35 122.345 230.746L128.83 234.644C129.488 235.039 129.482 235.663 128.816 236.037L122.257 239.718C121.59 240.098 120.517 240.08 119.859 239.679Z" fill="#19959E"/>
<path d="M165.477 258.229L131.976 238.087C131.615 237.869 131.62 237.524 131.985 237.319C132.192 237.218 132.419 237.168 132.648 237.172C132.877 237.176 133.103 237.234 133.306 237.341L166.807 257.482C167.168 257.7 167.165 258.045 166.799 258.251C166.593 258.352 166.365 258.402 166.136 258.398C165.906 258.394 165.68 258.336 165.477 258.229Z" fill="#D9DBDB"/>
<path d="M161.49 260.466L127.99 240.325C127.629 240.107 127.632 239.762 127.99 239.556C128.197 239.456 128.424 239.405 128.654 239.409C128.884 239.413 129.109 239.471 129.312 239.578L162.812 259.72C163.173 259.938 163.17 260.283 162.812 260.489C162.605 260.589 162.378 260.639 162.148 260.635C161.919 260.631 161.693 260.574 161.49 260.466Z" fill="#D9DBDB"/>
<path d="M142.724 253.818L124.003 242.563C123.642 242.345 123.645 242 124.003 241.794C124.21 241.693 124.437 241.643 124.667 241.647C124.896 241.651 125.122 241.709 125.325 241.816L144.045 253.072C144.407 253.29 144.404 253.635 144.038 253.839C143.833 253.939 143.607 253.989 143.378 253.985C143.15 253.981 142.926 253.924 142.724 253.818Z" fill="#D9DBDB"/>
<path d="M118.152 232.909C118.152 232.909 118.744 233.956 118.727 234.993C118.718 235.618 118.503 236.223 118.115 236.713C119.446 236.411 120.799 236.215 122.16 236.129C123.379 236.091 124.598 236.163 125.803 236.344L125.997 234.605C125.031 234.593 124.065 234.65 123.108 234.777C122.253 234.88 121.405 235.034 120.568 235.236C120.66 234.784 120.709 234.323 120.716 233.862C120.716 233.13 120.568 233 120.568 233L118.152 232.909Z" fill="white"/>
<path d="M105.795 247.577L99.3087 243.678C98.6515 243.282 98.6574 242.659 99.3235 242.284L105.883 238.604C106.549 238.229 107.623 238.247 108.28 238.644L114.764 242.542C115.423 242.937 115.417 243.561 114.751 243.935L108.191 247.616C107.525 247.992 106.452 247.973 105.795 247.577Z" fill="#19959E"/>
<path d="M151.412 266.122L117.913 245.981C117.55 245.763 117.554 245.418 117.913 245.212C118.119 245.112 118.346 245.061 118.575 245.065C118.805 245.069 119.03 245.127 119.233 245.234L152.734 265.376C153.095 265.594 153.092 265.939 152.734 266.145C152.527 266.245 152.3 266.295 152.07 266.291C151.841 266.287 151.615 266.23 151.412 266.122Z" fill="#D9DBDB"/>
<path d="M147.426 268.36L113.925 248.219C113.564 248.001 113.567 247.656 113.932 247.45C114.139 247.349 114.366 247.299 114.596 247.303C114.825 247.307 115.051 247.365 115.254 247.472L148.755 267.614C149.116 267.832 149.112 268.177 148.746 268.382C148.54 268.483 148.313 268.533 148.083 268.529C147.854 268.525 147.629 268.467 147.426 268.36Z" fill="#D9DBDB"/>
<path d="M128.658 261.71L109.938 250.455C109.577 250.239 109.58 249.892 109.938 249.688C110.144 249.587 110.372 249.536 110.601 249.54C110.831 249.544 111.057 249.602 111.259 249.71L129.98 260.965C130.341 261.183 130.338 261.528 129.973 261.733C129.767 261.832 129.541 261.882 129.313 261.878C129.084 261.875 128.86 261.817 128.658 261.71Z" fill="#D9DBDB"/>
<path d="M104.087 240.803C104.087 240.803 104.671 241.85 104.661 242.887C104.652 243.512 104.437 244.116 104.05 244.606C105.38 244.305 106.733 244.109 108.095 244.023C109.313 243.985 110.532 244.057 111.737 244.238L111.931 242.497C110.965 242.486 110 242.544 109.042 242.671C108.185 242.775 107.335 242.93 106.496 243.136C106.588 242.683 106.638 242.223 106.644 241.761C106.644 241.03 106.496 240.899 106.496 240.899L104.087 240.803Z" fill="white"/>
<path d="M186.591 227.162L167.452 216.034C166.86 215.69 166.98 215.106 167.715 214.736C168.455 214.367 169.54 214.347 170.132 214.69L189.272 225.817C189.864 226.162 189.744 226.746 189.007 227.114C188.27 227.485 187.183 227.505 186.591 227.162Z" fill="#3B4161"/>
<path d="M213.251 215.777L206.859 212.313C207.023 212.232 207.184 212.147 207.34 212.057C210.115 210.453 210.43 208.104 208.046 206.813C205.661 205.521 201.48 205.776 198.706 207.378C198.549 207.469 198.41 207.562 198.262 207.657L191.868 204.193C190.9 203.667 189.204 203.771 188.073 204.422L185.203 206.083C182.879 207.427 182.614 209.396 184.611 210.478L202.27 220.044C204.268 221.127 207.773 220.913 210.097 219.569L212.967 217.908C214.092 217.257 214.221 216.303 213.251 215.777ZM200.977 210.902C199.871 210.309 200.018 209.213 201.304 208.469C202.59 207.724 204.53 207.608 205.636 208.206C206.742 208.805 206.595 209.895 205.309 210.638C204.023 211.382 202.084 211.5 200.977 210.902Z" fill="#E38968"/>
<path d="M212.896 214.863L206.503 211.399C206.668 211.318 206.829 211.234 206.986 211.143C209.76 209.539 210.075 207.19 207.69 205.899C205.306 204.608 201.125 204.862 198.351 206.465C198.194 206.555 198.055 206.648 197.907 206.743L191.514 203.279C190.545 202.753 188.85 202.857 187.718 203.509L184.849 205.172C182.525 206.517 182.26 208.485 184.257 209.567L201.911 219.133C203.909 220.216 207.414 220.003 209.739 218.658L212.609 216.998C213.737 216.343 213.866 215.391 212.896 214.863ZM200.623 209.988C199.517 209.396 199.662 208.3 200.948 207.555C202.235 206.81 204.175 206.694 205.281 207.293C206.386 207.891 206.24 208.981 204.954 209.724C203.667 210.468 201.729 210.586 200.623 209.988Z" fill="#FFA585"/>
<path d="M229.061 235.223L144.225 283.8C142.407 284.847 140.346 285.396 138.248 285.392C136.151 285.388 134.092 284.83 132.278 283.776L77.289 251.806C76.5781 251.396 75.9832 250.812 75.5605 250.109C75.1378 249.406 74.9014 248.606 74.8735 247.786C74.8295 248.675 75.0317 249.56 75.458 250.341C75.8842 251.123 76.5178 251.772 77.289 252.216L132.28 284.189C134.093 285.243 136.153 285.801 138.25 285.805C140.347 285.809 142.409 285.259 144.226 284.211L229.062 235.635C229.847 235.187 230.493 234.53 230.929 233.738C231.364 232.945 231.571 232.047 231.528 231.144C231.499 231.978 231.257 232.791 230.825 233.505C230.393 234.219 229.786 234.81 229.061 235.223Z" fill="url(#paint6_linear_681_711)"/>
<path d="M244.806 172.105L302.831 138.643L271.553 120.443L213.53 153.905L244.806 172.105Z" fill="#19959E"/>
<path d="M218.863 153.915L271.547 123.534L297.497 138.633L244.812 169.014L218.863 153.915Z" fill="#FFF6FB"/>
<path d="M260.152 152.332C267.639 152.332 273.71 148.826 273.71 144.502C273.71 140.177 267.639 136.672 260.152 136.672C252.664 136.672 246.594 140.177 246.594 144.502C246.594 148.826 252.664 152.332 260.152 152.332Z" fill="#19959E"/>
<path d="M276.453 137.895C279.077 137.895 281.205 136.666 281.205 135.151C281.205 133.635 279.077 132.406 276.453 132.406C273.828 132.406 271.7 133.635 271.7 135.151C271.7 136.666 273.828 137.895 276.453 137.895Z" fill="#D0D5E2"/>
<path d="M240.838 158.493C243.463 158.493 245.59 157.264 245.59 155.748C245.59 154.233 243.463 153.004 240.838 153.004C238.213 153.004 236.085 154.233 236.085 155.748C236.085 157.264 238.213 158.493 240.838 158.493Z" fill="#D0D5E2"/>
<path d="M257.195 160.186L246.39 166.429C245.688 166.835 244.489 166.777 243.726 166.301C242.962 165.824 242.912 165.101 243.613 164.697L254.418 158.451C255.12 158.047 256.318 158.105 257.082 158.582C257.843 159.059 257.896 159.781 257.195 160.186Z" fill="#D0D5E2"/>
<path d="M273.217 126.828L262.412 133.071C261.711 133.477 260.512 133.418 259.748 132.941C258.984 132.464 258.932 131.743 259.634 131.337L270.439 125.093C271.14 124.687 272.339 124.747 273.103 125.224C273.867 125.705 273.917 126.422 273.217 126.828Z" fill="#D0D5E2"/>
<path d="M260.154 151.217C253.884 151.217 248.785 148.204 248.785 144.502C248.785 140.799 253.884 137.787 260.154 137.787C266.424 137.787 271.521 140.798 271.521 144.502C271.521 148.206 266.428 151.217 260.154 151.217ZM260.154 138.493C254.275 138.493 249.497 141.189 249.497 144.502C249.497 147.815 254.279 150.509 260.154 150.509C266.028 150.509 270.811 147.813 270.811 144.502C270.811 141.19 266.031 138.493 260.154 138.493Z" fill="#F2F2F2"/>
<path d="M302.831 138.643L244.806 172.105V194.157L302.831 160.695V138.643Z" fill="#0B868F"/>
<path d="M213.53 153.905V175.958L244.806 194.157V172.105L213.53 153.905Z" fill="#2BB2BC"/>
<path opacity="0.33" d="M213.53 157.73L244.806 175.929L302.831 142.467" stroke="#050D19" stroke-width="3" stroke-miterlimit="10"/>
<path opacity="0.33" d="M213.53 162.897L244.806 181.096L302.831 147.634" stroke="#050D19" stroke-width="3" stroke-miterlimit="10"/>
<path opacity="0.33" d="M213.53 168.066L244.806 186.264L302.831 152.803" stroke="#050D19" stroke-width="3" stroke-miterlimit="10"/>
<path opacity="0.33" d="M213.53 173.235L244.806 191.433L302.831 157.971" stroke="#050D19" stroke-width="3" stroke-miterlimit="10"/>
<path d="M322.135 180.471C322.135 180.546 322.119 180.619 322.119 180.68V180.906H322.101C321.709 185.874 314.626 189.835 305.919 189.835C297.211 189.835 290.138 185.874 289.744 180.906H289.702V176.232C289.702 181.399 296.97 185.597 305.919 185.597C314.693 185.597 321.825 181.576 322.119 176.562V180.274C322.119 180.336 322.135 180.403 322.135 180.471Z" fill="url(#paint7_linear_681_711)"/>
<path d="M322.135 176.232C322.138 176.341 322.132 176.45 322.119 176.558C321.823 181.576 314.693 185.592 305.919 185.592C296.97 185.592 289.702 181.395 289.702 176.228C289.702 171.061 296.97 166.862 305.919 166.862C314.867 166.862 322.135 171.063 322.135 176.232Z" fill="url(#paint8_linear_681_711)"/>
<path d="M305.922 184.264C298.423 184.264 292.325 180.66 292.325 176.232C292.325 171.804 298.423 168.201 305.922 168.201C313.42 168.201 319.518 171.803 319.518 176.232C319.518 180.662 313.418 184.264 305.922 184.264ZM305.922 169.046C298.891 169.046 293.17 172.269 293.17 176.232C293.17 180.195 298.891 183.417 305.922 183.417C312.952 183.417 318.671 180.194 318.671 176.232C318.671 172.271 312.952 169.046 305.922 169.046Z" fill="#F2F2F2"/>
<path d="M322.135 174.898C322.135 174.973 322.119 175.046 322.119 175.107V175.333H322.101C321.709 180.3 314.626 184.264 305.919 184.264C297.211 184.264 290.138 180.3 289.744 175.333H289.702V170.659C289.702 175.828 296.97 180.025 305.919 180.025C314.693 180.025 321.825 176.004 322.119 170.991V174.693C322.119 174.765 322.135 174.831 322.135 174.898Z" fill="url(#paint9_linear_681_711)"/>
<path d="M322.135 170.659C322.138 170.769 322.132 170.878 322.119 170.987C321.823 176.004 314.693 180.021 305.919 180.021C296.97 180.021 289.702 175.823 289.702 170.655C289.702 165.486 296.97 161.29 305.919 161.29C314.867 161.29 322.135 165.491 322.135 170.659Z" fill="url(#paint10_linear_681_711)"/>
<path d="M305.922 178.691C298.423 178.691 292.325 175.087 292.325 170.659C292.325 166.231 298.423 162.628 305.922 162.628C313.42 162.628 319.518 166.231 319.518 170.659C319.518 175.087 313.418 178.691 305.922 178.691ZM305.922 163.475C298.891 163.475 293.17 166.698 293.17 170.659C293.17 174.621 298.891 177.845 305.922 177.845C312.952 177.845 318.671 174.621 318.671 170.659C318.671 166.698 312.952 163.47 305.922 163.47V163.475Z" fill="#F2F2F2"/>
<path d="M322.135 169.326C322.135 169.4 322.119 169.474 322.119 169.535V169.762H322.101C321.709 174.729 314.626 178.691 305.919 178.691C297.211 178.691 290.138 174.729 289.744 169.762H289.702V165.088C289.702 170.255 296.97 174.452 305.919 174.452C314.693 174.452 321.825 170.431 322.119 165.418V169.129C322.119 169.191 322.135 169.258 322.135 169.326Z" fill="url(#paint11_linear_681_711)"/>
<path d="M322.135 165.088C322.138 165.197 322.132 165.305 322.119 165.414C321.823 170.431 314.693 174.448 305.919 174.448C296.97 174.448 289.702 170.25 289.702 165.083C289.702 159.916 296.97 155.717 305.919 155.717C314.867 155.717 322.135 159.916 322.135 165.088Z" fill="url(#paint12_linear_681_711)"/>
<path d="M305.922 173.119C298.423 173.119 292.325 169.516 292.325 165.086C292.325 160.657 298.423 157.056 305.922 157.056C313.42 157.056 319.518 160.658 319.518 165.086C319.518 169.514 313.418 173.119 305.922 173.119ZM305.922 157.902C298.891 157.902 293.17 161.125 293.17 165.086C293.17 169.048 298.891 172.272 305.922 172.272C312.952 172.272 318.671 169.049 318.671 165.086C318.671 161.123 312.952 157.902 305.922 157.902Z" fill="#F2F2F2"/>
<path d="M322.135 163.753C322.135 163.829 322.119 163.901 322.119 163.962V164.189H322.101C321.709 169.156 314.626 173.119 305.919 173.119C297.211 173.119 290.138 169.156 289.744 164.189H289.702V159.515C289.702 164.683 296.97 168.881 305.919 168.881C314.693 168.881 321.825 164.86 322.119 159.847V163.549C322.119 163.619 322.135 163.687 322.135 163.753Z" fill="url(#paint13_linear_681_711)"/>
<path d="M322.135 159.515C322.137 159.624 322.132 159.733 322.119 159.842C321.823 164.86 314.693 168.876 305.919 168.876C296.97 168.876 289.702 164.679 289.702 159.51C289.702 154.341 296.97 150.144 305.919 150.144C314.867 150.144 322.135 154.346 322.135 159.515Z" fill="url(#paint14_linear_681_711)"/>
<path d="M305.922 167.546C298.423 167.546 292.325 163.943 292.325 159.515C292.325 155.087 298.423 151.483 305.922 151.483C313.42 151.483 319.518 155.087 319.518 159.515C319.518 163.943 313.418 167.546 305.922 167.546ZM305.922 152.329C298.891 152.329 293.17 155.553 293.17 159.515C293.17 163.476 298.891 166.701 305.922 166.701C312.952 166.701 318.676 163.47 318.676 159.515C318.676 155.559 312.952 152.329 305.922 152.329Z" fill="#F2F2F2"/>
<path d="M322.135 158.18C322.135 158.256 322.119 158.328 322.119 158.391V158.617H322.101C321.709 163.585 314.626 167.546 305.919 167.546C297.211 167.546 290.138 163.585 289.744 158.617H289.702V153.942C289.702 159.11 296.97 163.308 305.919 163.308C314.693 163.308 321.825 159.287 322.119 154.274V157.985C322.119 158.047 322.135 158.114 322.135 158.18Z" fill="url(#paint15_linear_681_711)"/>
<path d="M322.135 153.942C322.138 154.051 322.132 154.16 322.119 154.269C321.823 159.287 314.693 163.303 305.919 163.303C296.97 163.303 289.702 159.106 289.702 153.937C289.702 148.769 296.97 144.573 305.919 144.573C314.867 144.573 322.135 148.775 322.135 153.942Z" fill="url(#paint16_linear_681_711)"/>
<path d="M305.922 161.973C298.423 161.973 292.325 158.37 292.325 153.942C292.325 149.514 298.423 145.912 305.922 145.912C313.42 145.912 319.518 149.514 319.518 153.942C319.518 158.37 313.418 161.973 305.922 161.973ZM305.922 146.757C298.891 146.757 293.17 149.98 293.17 153.942C293.17 157.903 298.891 161.128 305.922 161.128C312.952 161.128 318.671 157.903 318.671 153.942C318.671 149.98 312.952 146.757 305.922 146.757Z" fill="#F2F2F2"/>
<path d="M294.443 196.298C294.443 196.372 294.426 196.446 294.426 196.507V196.734H294.409C294.016 201.701 286.933 205.663 278.227 205.663C269.521 205.663 262.446 201.701 262.052 196.734H262.011V192.054C262.011 197.221 269.277 201.418 278.227 201.418C287 201.418 294.133 197.397 294.426 192.384V196.095C294.426 196.163 294.443 196.23 294.443 196.298Z" fill="url(#paint17_linear_681_711)"/>
<path d="M294.443 192.054C294.446 192.163 294.44 192.272 294.426 192.38C294.13 197.397 287 201.414 278.227 201.414C269.277 201.414 262.011 197.217 262.011 192.049C262.011 186.882 269.277 182.683 278.227 182.683C287.177 182.683 294.443 186.891 294.443 192.054Z" fill="url(#paint18_linear_681_711)"/>
<path d="M278.229 200.091C270.732 200.091 264.634 196.488 264.634 192.058C264.634 187.628 270.732 184.028 278.229 184.028C285.725 184.028 291.825 187.63 291.825 192.058C291.825 196.486 285.727 200.091 278.229 200.091ZM278.229 184.874C271.199 184.874 265.479 188.096 265.479 192.058C265.479 196.02 271.199 199.244 278.229 199.244C285.258 199.244 290.98 196.021 290.98 192.058C290.98 188.095 285.259 184.874 278.229 184.874Z" fill="#F2F2F2"/>
<path d="M294.443 190.721C294.443 190.796 294.426 190.869 294.426 190.93V191.165H294.409C294.016 196.132 286.933 200.095 278.227 200.095C269.521 200.095 262.446 196.132 262.052 191.165H262.011V186.491C262.011 191.66 269.277 195.857 278.227 195.857C287 195.857 294.133 191.836 294.426 186.823V190.533C294.426 190.59 294.443 190.659 294.443 190.721Z" fill="url(#paint19_linear_681_711)"/>
<path d="M294.443 186.487C294.446 186.596 294.44 186.706 294.426 186.814C294.13 191.832 287 195.848 278.227 195.848C269.277 195.848 262.011 191.651 262.011 186.482C262.011 181.314 269.277 177.117 278.227 177.117C287.177 177.117 294.443 181.318 294.443 186.487Z" fill="url(#paint20_linear_681_711)"/>
<path d="M278.229 194.518C270.732 194.518 264.634 190.915 264.634 186.487C264.634 182.059 270.732 178.455 278.229 178.455C285.725 178.455 291.825 182.059 291.825 186.487C291.825 190.915 285.727 194.518 278.229 194.518ZM278.229 179.302C271.199 179.302 265.479 182.525 265.479 186.487C265.479 190.448 271.199 193.673 278.229 193.673C285.258 193.673 290.98 190.448 290.98 186.487C290.98 182.525 285.259 179.302 278.229 179.302Z" fill="#F2F2F2"/>
<path d="M294.443 185.152C294.443 185.228 294.426 185.3 294.426 185.362V185.589H294.409C294.016 190.556 286.933 194.518 278.227 194.518C269.521 194.518 262.446 190.556 262.052 185.589H262.011V180.914C262.011 186.082 269.277 190.279 278.227 190.279C287 190.279 294.133 186.258 294.426 181.245V184.957C294.426 185.019 294.443 185.093 294.443 185.152Z" fill="url(#paint21_linear_681_711)"/>
<path d="M294.443 180.914C294.446 181.023 294.44 181.132 294.426 181.241C294.13 186.259 287 190.275 278.227 190.275C269.277 190.275 262.011 186.078 262.011 180.909C262.011 175.74 269.277 171.545 278.227 171.545C287.177 171.545 294.443 175.746 294.443 180.914Z" fill="url(#paint22_linear_681_711)"/>
<path d="M278.229 188.944C270.732 188.944 264.634 185.34 264.634 180.912C264.634 176.484 270.732 172.882 278.229 172.882C285.725 172.882 291.825 176.484 291.825 180.912C291.825 185.34 285.727 188.944 278.229 188.944ZM278.229 173.728C271.199 173.728 265.479 176.95 265.479 180.912C265.479 184.874 271.199 188.098 278.229 188.098C285.258 188.098 290.98 184.874 290.98 180.912C290.98 176.95 285.259 173.729 278.229 173.729V173.728Z" fill="#F2F2F2"/>
<path d="M294.443 179.581C294.443 179.656 294.426 179.729 294.426 179.79V180.016H294.409C294.016 184.983 286.933 188.945 278.227 188.945C269.521 188.945 262.446 184.983 262.052 180.016H262.011V175.342C262.011 180.511 269.277 184.706 278.227 184.706C287 184.706 294.133 180.686 294.426 175.672V179.384C294.426 179.446 294.443 179.514 294.443 179.581Z" fill="url(#paint23_linear_681_711)"/>
<path d="M294.443 175.342C294.446 175.451 294.44 175.56 294.426 175.668C294.13 180.686 287 184.702 278.227 184.702C269.277 184.702 262.011 180.506 262.011 175.338C262.011 170.169 269.277 165.972 278.227 165.972C287.177 165.972 294.443 170.173 294.443 175.342Z" fill="url(#paint24_linear_681_711)"/>
<path d="M278.229 183.374C270.732 183.374 264.634 179.77 264.634 175.342C264.634 170.914 270.732 167.311 278.229 167.311C285.725 167.311 291.825 170.914 291.825 175.342C291.825 179.77 285.727 183.374 278.229 183.374ZM278.229 168.156C271.199 168.156 265.479 171.38 265.479 175.342C265.479 179.304 271.199 182.528 278.229 182.528C285.258 182.528 290.98 179.304 290.98 175.342C290.98 171.38 285.259 168.156 278.229 168.156Z" fill="#F2F2F2"/>
<path d="M222.28 139.82C222.28 139.82 198.56 141.802 196.567 145.094C194.575 148.386 200.638 156.53 203.755 163.029C205.731 167.105 208.002 171.031 210.55 174.776C210.55 174.776 211.269 175.289 212.967 173.405C214.017 172.22 214.877 170.88 215.517 169.431L208.923 152.293L239.785 148.059C239.785 148.059 227.037 145.29 222.28 139.82Z" fill="#2D2F4F"/>
<path d="M211.19 174.777C211.19 174.777 211.042 177.664 208.687 180.447C206.332 183.23 205.857 184.135 207.905 185.28C209.954 186.425 212.23 185.708 214.557 181.894C216.884 178.081 221.17 175.875 220.399 173.521C219.628 171.166 215.322 169.861 215.322 169.861C215.322 169.861 213.521 173.001 211.19 174.777Z" fill="#2D2F4F"/>
<path d="M243.968 144.958C243.968 144.958 248.49 151.83 239.322 156.49C230.154 161.151 219.706 166.024 219.706 166.024C219.706 166.024 221.641 169.726 221.343 177.519C221.046 185.312 221.232 191.292 221.232 191.292C221.232 191.292 222.086 193.28 218.153 193.259C214.221 193.239 214.062 192.465 214.062 192.465C214.062 192.465 212.378 174.231 211.022 168.769C209.666 163.308 208.226 158.551 210.55 155.021C212.874 151.492 228.051 144.506 228.051 144.506C228.051 144.506 237.73 148.229 243.968 144.958Z" fill="#45496D"/>
<path d="M228.64 106.55C228.64 106.55 223.469 110.993 221.767 115.757C220.064 120.521 219.073 127.941 218.12 129.208C217.166 130.474 211.791 133.406 211.791 133.406C211.791 133.406 214.24 133.883 214.649 135.45C215.057 137.017 214.92 137.553 214.92 137.553C214.92 137.553 221.659 134.216 222.68 132.104C223.701 129.992 226.809 124.477 226.809 124.477L228.64 106.55Z" fill="#2264C7"/>
<path d="M228.64 106.55C228.64 106.55 226.506 108.623 225.323 110.477C224.141 112.331 221.919 115.997 222.28 117.053C222.641 118.109 224.013 119.975 224.104 120.52C224.194 121.065 223.296 140.845 223.296 140.845C223.296 140.845 225.425 144.862 233.243 146.094C241.167 147.342 245.127 145.541 245.127 145.541C245.127 145.541 242.521 139.813 244.25 133.442C245.978 127.07 248.141 117.989 246.412 115.587C244.683 113.185 231.37 105.322 228.64 106.55Z" fill="#3578DB"/>
<path d="M230.07 92.4151C230.07 92.4151 223.069 94.1256 225.829 102.19C226.57 104.334 224.031 105.586 225.165 107.797C226.299 110.008 233.693 110.532 233.705 110.463C233.717 110.393 235.202 96.0968 235.202 96.0968L230.07 92.4151Z" fill="#2D2F4F"/>
<path d="M229.763 94.752C229.763 94.752 227.463 95.5725 227.626 101.667C227.733 105.651 229.177 107.147 229.95 107.758C230.723 108.37 231.793 108.414 231.793 108.414L231.466 110.766C231.466 110.766 231.139 112.511 234.199 113.208C237.26 113.906 239.438 110.627 239.438 110.627C239.438 110.627 238.899 108.094 239.426 105.668C239.953 103.243 240.503 97.1113 238.042 95.7339C235.58 94.3566 229.763 94.752 229.763 94.752Z" fill="#FFD7BF"/>
<path d="M231.793 108.41C231.793 108.41 233.76 108.468 234.767 107.572C235.773 106.676 236.075 106.44 236.075 106.44C235.646 107.312 235.088 108.115 234.42 108.822C233.3 110.017 233.591 113.038 233.591 113.038C233.591 113.038 231.29 112.594 231.464 111.139C231.639 109.685 231.793 108.41 231.793 108.41Z" fill="#FFBF99"/>
<path d="M232.814 101.779C232.806 101.851 232.819 101.924 232.851 101.988C232.884 102.052 232.935 102.105 232.998 102.141C233.061 102.176 233.133 102.192 233.204 102.186C233.276 102.18 233.345 102.154 233.402 102.109C233.458 102.064 233.5 102.004 233.523 101.935C233.545 101.867 233.546 101.793 233.527 101.724C233.507 101.655 233.467 101.593 233.413 101.546C233.358 101.499 233.29 101.469 233.219 101.461C233.171 101.455 233.123 101.459 233.077 101.472C233.031 101.485 232.988 101.507 232.95 101.536C232.913 101.566 232.881 101.602 232.858 101.644C232.835 101.686 232.82 101.732 232.814 101.779Z" fill="#2D2F4F"/>
<path d="M228.455 100.886C228.432 100.955 228.429 101.029 228.448 101.099C228.466 101.169 228.505 101.232 228.56 101.28C228.614 101.328 228.681 101.358 228.753 101.368C228.825 101.377 228.898 101.365 228.963 101.333C229.028 101.301 229.082 101.25 229.118 101.188C229.154 101.125 229.171 101.053 229.166 100.98C229.161 100.908 229.135 100.839 229.091 100.782C229.046 100.724 228.986 100.681 228.917 100.658C228.872 100.643 228.824 100.637 228.776 100.64C228.729 100.643 228.682 100.655 228.639 100.677C228.596 100.698 228.558 100.727 228.526 100.763C228.495 100.799 228.471 100.841 228.455 100.886Z" fill="#2D2F4F"/>
<path d="M232.424 105.095C231.854 105.355 231.219 105.434 230.603 105.322C229.639 105.119 229.419 104.852 229.419 104.852C229.419 104.852 229.452 105.806 230.667 106.088C231.882 106.369 232.424 105.095 232.424 105.095Z" fill="white"/>
<path d="M229.842 104.239H229.882C230.575 104.303 230.814 104.35 230.814 104.35L230.852 104.174C230.844 104.174 230.605 104.124 229.9 104.059C229.736 104.044 229.53 103.994 229.481 103.842C229.432 103.691 229.574 103.398 229.86 103.149C230.414 102.659 230.577 101.68 230.583 101.64L230.405 101.611C230.405 101.621 230.245 102.567 229.74 103.013C229.391 103.323 229.229 103.654 229.309 103.902C229.351 104.034 229.479 104.195 229.842 104.239Z" fill="#DD9292"/>
<path d="M232.142 100.46C232.142 100.46 232.873 100.236 234.123 100.561C234.969 100.78 235.202 101.169 235.202 101.169" stroke="#2D2F4F" stroke-width="0.75" stroke-linecap="round" stroke-linejoin="round"/>
<path d="M230.017 100.174C230.017 100.174 228.655 99.1907 227.648 99.8778" stroke="#2D2F4F" stroke-width="0.75" stroke-linecap="round" stroke-linejoin="round"/>
<path d="M232.354 101.526C232.354 101.526 233.224 101.162 234.259 101.956" stroke="#2D2F4F" stroke-width="0.75" stroke-linecap="round" stroke-linejoin="round"/>
<path d="M227.953 100.76C227.953 100.76 228.893 100.301 229.833 101.122" stroke="#2D2F4F" stroke-width="0.75" stroke-linecap="round" stroke-linejoin="round"/>
<path d="M228.388 96.3574C228.388 96.3574 228.465 98.496 231.868 99.7637C235.207 101.005 236.571 101.459 236.571 101.459C236.571 101.459 237.015 99.8393 237.863 100.589C239.124 101.701 236.175 105.138 236.994 107.231C237.812 109.324 238.065 110.856 242.586 112.835C247.106 114.814 247.89 120.29 247.89 120.29C247.89 120.29 253.456 120.902 255.039 117.54C256.679 114.061 254.945 110.541 249.821 109.184C244.696 107.828 243.24 105.834 243.9 102.462C244.711 98.3153 243.792 93.0148 237.812 91.0051C231.833 88.9954 228.301 93.154 228.388 96.3574Z" fill="#3B3E5E"/>
<path d="M199.617 121.441L223.37 135.007V155.421L199.617 141.854L198.674 121.903L199.617 121.441Z" fill="#C6C6C6"/>
<path d="M198.674 121.903L222.427 135.469V155.883L198.674 142.317V121.903Z" fill="#EFEFEF"/>
<path d="M222.427 155.883L237.175 146.046L222.427 137.403V155.883Z" fill="#B2B1B1"/>
<path d="M237.175 146.046V147.074L222.427 155.883V135.469L223.369 135.007V154.488L237.175 146.046Z" fill="#C6C6C6"/>
<path d="M223.37 143.381L229.192 146.95L223.37 150.325V143.381Z" fill="#827F7F"/>
<path d="M246.412 116.182C244.932 115.679 242.284 117.33 242.148 122.302C242.011 127.273 242.148 134.05 242.148 134.05L230.78 141.441C230.78 141.441 233.163 141.645 233.912 143.278C234.661 144.912 234.8 145.541 234.8 145.541C234.8 145.541 247.936 138.239 248.417 136.401C248.898 134.563 249.451 117.214 246.412 116.182Z" fill="#2264C7"/>
<path d="M231.777 141.649C231.777 141.649 229.112 142.982 227.354 144.14C225.596 145.298 224.777 147.941 224.838 148.212C224.898 148.483 227.002 150.045 227.65 150.045C228.298 150.045 229.993 147.601 231.35 146.787C232.708 145.972 234.321 144.226 234.321 144.226C234.321 144.226 234.503 142.144 231.777 141.649Z" fill="#FFD7BF"/>
<path d="M221.191 192.236C221.191 192.236 222.726 195.244 222.105 196.054C221.485 196.864 215.593 200.053 214.062 201.919C212.532 203.785 209.526 203.588 207.905 202.253C206.284 200.919 206.398 199.774 209.32 197.437C211.109 195.994 212.701 194.322 214.057 192.466C214.057 192.466 218.128 194.275 221.191 192.236Z" fill="#2D2F4F"/>
<ellipse cx="57.3054" cy="295.198" rx="30.4201" ry="13.3043" transform="rotate(24.71 57.3054 295.198)" fill="#3B4161" fill-opacity="0.12"/>
<ellipse cx="211.899" cy="192.467" rx="30.4201" ry="13.3043" transform="rotate(24.71 211.899 192.467)" fill="#3B4161" fill-opacity="0.12"/>
<path d="M42.2995 288.043C42.2995 288.043 41.7149 291.845 41.9117 292.338C42.1086 292.831 45.9983 294.855 47.1306 294.506C48.2629 294.156 55.3527 285.835 55.3039 285.146C55.255 284.457 54.3388 282.628 51.9558 283.421C49.5728 284.213 48.8046 284.21 48.8046 284.21L42.2995 288.043Z" fill="#20233A"/>
<path d="M57.3253 293.506C57.3253 293.506 56.4046 296.836 56.7332 297.629C57.0618 298.423 60.1493 299.928 60.546 299.851C60.9427 299.774 70.6108 294.539 70.9276 293.903C71.2443 293.268 69.0256 290.811 66.8854 291.682C64.7451 292.553 61.0211 292.718 61.0211 292.718L57.3253 293.506Z" fill="#2D2F4F"/>
<path d="M40.319 233.93C40.319 233.93 38.7693 239.881 40.319 244.316C41.8687 248.752 41.734 249.558 41.734 249.558L43.6152 264.341C43.6152 264.341 41.247 270.523 41.623 277.914C41.9989 285.306 41.623 287.322 41.623 287.322C41.623 287.322 42.5407 288.934 45.7673 289.339C48.994 289.743 49.5979 287.994 49.5979 287.994C49.5979 287.994 49.1242 276.839 51.67 270.12C54.2159 263.4 56.2377 236.649 56.2377 236.649L40.319 233.93Z" fill="#2D2F4F"/>
<path d="M47.9357 240.033C47.9357 240.033 46.4156 243.753 49.1198 248.136C51.8239 252.518 56.2332 254.504 56.2332 254.504L57.0458 267.965C57.0458 267.965 56.0467 274.957 56.2332 281.426C56.4197 287.895 57.0458 292.905 57.0458 292.905C57.0458 292.905 57.4632 294.47 59.858 294.682C62.2529 294.894 63.0906 293.847 63.0906 293.847C63.0906 293.847 64.3428 278.821 65.9028 272.038C67.4629 265.255 64.5989 235.869 64.5989 235.869C64.5989 235.869 57.068 241.323 47.9357 240.033Z" fill="#444866"/>
<path d="M61.0643 171.044C61.0643 171.044 61.7171 176.606 61.5261 177.427C61.3352 178.247 60.9341 178.513 60.9341 178.513C60.9341 178.513 61.8221 180.325 61.501 181.919C61.1798 183.512 59.8417 187.938 59.192 188.539C58.5422 189.14 55.3644 189.223 55.3644 189.223L55.0861 192.431L46.46 188.449C46.46 188.449 47.1186 181.574 47.0727 181.415C47.0268 181.257 53.5246 168.418 53.5246 168.418L61.0643 171.044Z" fill="#FFD7BF"/>
<path d="M37.31 189.638C37.31 189.638 34.7257 191.542 34.1707 198.789C33.6156 206.035 34.0922 217.676 35.7396 218.739C37.387 219.803 47.5954 219.13 47.5954 219.13L37.31 189.638Z" fill="#2264C7"/>
<path d="M61.5056 198.789C61.5056 198.789 56.6775 195.424 56.0647 194.607C55.4519 193.789 55.5541 191.024 55.5541 191.024C55.5541 191.024 47.3808 187.248 46.2574 187.35C45.134 187.452 43.3963 188.883 43.3963 188.883C43.3963 188.883 36.8587 187.154 36.2459 191.8C35.6331 196.446 39.514 212.444 40.5382 218.348C41.5625 224.253 39.6354 235.417 39.6354 235.417C39.6354 235.417 41.6602 241.218 51.3653 241.218C61.0705 241.218 64.8507 236.822 64.8507 236.822C64.8507 236.822 64.0958 202.145 63.4831 200.815C62.8703 199.485 61.5056 198.789 61.5056 198.789Z" fill="#3578DB"/>
<path d="M56.1043 200.063C53.6547 203.904 55.5833 207.965 58.7508 212.733C61.9183 217.5 66.5954 223.947 68.5285 224.354C70.4615 224.761 86.2899 223.862 86.2899 223.862C86.2899 223.862 87.326 221.247 86.7947 219.419L86.2618 217.598C86.2618 217.598 72.1015 217.059 71.3866 216.512C70.6717 215.966 66.0952 201.628 61.9819 199.584C57.8686 197.541 56.1043 200.063 56.1043 200.063Z" fill="#2264C7"/>
<path d="M63.0329 171.096C60.6114 173.517 58.4357 174.465 58.3528 176.792C58.2699 179.118 58.6488 180.748 57.9709 181.116C57.293 181.485 57.9369 179.508 56.1503 179.413C54.3638 179.318 55.1453 182.317 55.4473 183.182C55.7492 184.047 54.275 184.515 50.8145 184.754C47.354 184.992 46.7205 183.32 46.3283 182.328C45.936 181.335 44.3878 177.132 45.0642 174.858C45.7407 172.583 46.978 172.107 46.978 172.107C46.978 172.107 46.7901 168.067 51.3533 167.866C55.9165 167.664 59.4836 169.292 61.5039 168.754C63.5243 168.217 63.0329 171.096 63.0329 171.096Z" fill="#2D2F4F"/>
<path d="M86.5729 218.658C86.5729 218.658 89.6175 216.437 90.9155 216.124C92.2136 215.812 94.3923 215.461 94.3923 215.461C94.3923 215.461 94.7461 216.373 93.3903 216.743C92.0345 217.113 94.3923 218.008 97.7537 217.059C101.115 216.109 97.5761 219.773 95.159 221.157C92.742 222.54 86.527 223.171 86.527 223.171C86.527 223.171 87.4195 219.732 86.5729 218.658Z" fill="url(#paint25_linear_681_711)"/>
<defs>
<linearGradient id="paint0_linear_681_711" x1="93.9374" y1="154.863" x2="92.0114" y2="151.332" gradientUnits="userSpaceOnUse">
<stop stop-color="#CC4B23"/>
<stop offset="1" stop-color="#F25227"/>
</linearGradient>
<linearGradient id="paint1_linear_681_711" x1="4700.1" y1="2375" x2="4674.84" y2="2284.85" gradientUnits="userSpaceOnUse">
<stop stop-color="#CC4B23"/>
<stop offset="1" stop-color="#F25227"/>
</linearGradient>
<linearGradient id="paint2_linear_681_711" x1="5396.57" y1="2161.13" x2="5371.31" y2="2070.98" gradientUnits="userSpaceOnUse">
<stop stop-color="#CC4B23"/>
<stop offset="1" stop-color="#F25227"/>
</linearGradient>
<linearGradient id="paint3_linear_681_711" x1="6093.03" y1="1947.23" x2="6067.77" y2="1857.11" gradientUnits="userSpaceOnUse">
<stop stop-color="#CC4B23"/>
<stop offset="1" stop-color="#F25227"/>
</linearGradient>
<linearGradient id="paint4_linear_681_711" x1="133.369" y1="105.833" x2="27.7506" y2="137.819" gradientUnits="userSpaceOnUse">
<stop stop-color="white"/>
<stop offset="1" stop-color="#70A9FF"/>
</linearGradient>
<linearGradient id="paint5_linear_681_711" x1="179.947" y1="79.3556" x2="223.808" y2="79.3556" gradientUnits="userSpaceOnUse">
<stop stop-color="#609CF5"/>
<stop offset="1" stop-color="white"/>
</linearGradient>
<linearGradient id="paint6_linear_681_711" x1="156.474" y1="235.405" x2="124.031" y2="284.124" gradientUnits="userSpaceOnUse">
<stop stop-color="#98BDF3"/>
<stop offset="1" stop-color="white"/>
</linearGradient>
<linearGradient id="paint7_linear_681_711" x1="289.702" y1="183.033" x2="322.135" y2="183.033" gradientUnits="userSpaceOnUse">
<stop stop-color="#B58252"/>
<stop offset="0.3" stop-color="#DDB277"/>
<stop offset="0.48" stop-color="#BB8958"/>
<stop offset="0.72" stop-color="#B27E4F"/>
<stop offset="1" stop-color="#B27E4F"/>
</linearGradient>
<linearGradient id="paint8_linear_681_711" x1="289.702" y1="176.232" x2="322.135" y2="176.232" gradientUnits="userSpaceOnUse">
<stop stop-color="#DCB274"/>
<stop offset="1" stop-color="#FFDC96"/>
</linearGradient>
<linearGradient id="paint9_linear_681_711" x1="75800.5" y1="16815.3" x2="82907.1" y2="16815.3" gradientUnits="userSpaceOnUse">
<stop stop-color="#B58252"/>
<stop offset="0.3" stop-color="#DDB277"/>
<stop offset="0.48" stop-color="#BB8958"/>
<stop offset="0.72" stop-color="#B27E4F"/>
<stop offset="1" stop-color="#B27E4F"/>
</linearGradient>
<linearGradient id="paint10_linear_681_711" x1="75802.1" y1="22216.8" x2="82908.8" y2="22216.8" gradientUnits="userSpaceOnUse">
<stop stop-color="#DCB274"/>
<stop offset="1" stop-color="#FFDC96"/>
</linearGradient>
<linearGradient id="paint11_linear_681_711" x1="75800.5" y1="16296" x2="82907.1" y2="16296" gradientUnits="userSpaceOnUse">
<stop stop-color="#B58252"/>
<stop offset="0.3" stop-color="#DDB277"/>
<stop offset="0.48" stop-color="#BB8958"/>
<stop offset="0.72" stop-color="#B27E4F"/>
<stop offset="1" stop-color="#B27E4F"/>
</linearGradient>
<linearGradient id="paint12_linear_681_711" x1="75802.1" y1="21506.6" x2="82908.8" y2="21506.6" gradientUnits="userSpaceOnUse">
<stop stop-color="#DCB274"/>
<stop offset="1" stop-color="#FFDC96"/>
</linearGradient>
<linearGradient id="paint13_linear_681_711" x1="75800.5" y1="15780.4" x2="82907.1" y2="15780.4" gradientUnits="userSpaceOnUse">
<stop stop-color="#B58252"/>
<stop offset="0.3" stop-color="#DDB277"/>
<stop offset="0.48" stop-color="#BB8958"/>
<stop offset="0.72" stop-color="#B27E4F"/>
<stop offset="1" stop-color="#B27E4F"/>
</linearGradient>
<linearGradient id="paint14_linear_681_711" x1="75802" y1="20797.9" x2="82908.8" y2="20797.9" gradientUnits="userSpaceOnUse">
<stop stop-color="#DCB274"/>
<stop offset="1" stop-color="#FFDC96"/>
</linearGradient>
<linearGradient id="paint15_linear_681_711" x1="75800.5" y1="15262.9" x2="82907.1" y2="15262.9" gradientUnits="userSpaceOnUse">
<stop stop-color="#B58252"/>
<stop offset="0.3" stop-color="#DDB277"/>
<stop offset="0.48" stop-color="#BB8958"/>
<stop offset="0.72" stop-color="#B27E4F"/>
<stop offset="1" stop-color="#B27E4F"/>
</linearGradient>
<linearGradient id="paint16_linear_681_711" x1="75802.1" y1="20085.9" x2="82908.8" y2="20085.9" gradientUnits="userSpaceOnUse">
<stop stop-color="#DCB274"/>
<stop offset="1" stop-color="#FFDC96"/>
</linearGradient>
<linearGradient id="paint17_linear_681_711" x1="69705" y1="18808.5" x2="76811.6" y2="18808.5" gradientUnits="userSpaceOnUse">
<stop stop-color="#B58252"/>
<stop offset="0.3" stop-color="#DDB277"/>
<stop offset="0.48" stop-color="#BB8958"/>
<stop offset="0.72" stop-color="#B27E4F"/>
<stop offset="1" stop-color="#B27E4F"/>
</linearGradient>
<linearGradient id="paint18_linear_681_711" x1="69706.6" y1="24944.7" x2="76813.4" y2="24944.7" gradientUnits="userSpaceOnUse">
<stop stop-color="#DCB274"/>
<stop offset="1" stop-color="#FFDC96"/>
</linearGradient>
<linearGradient id="paint19_linear_681_711" x1="69705" y1="18285.1" x2="76811.6" y2="18285.1" gradientUnits="userSpaceOnUse">
<stop stop-color="#B58252"/>
<stop offset="0.3" stop-color="#DDB277"/>
<stop offset="0.48" stop-color="#BB8958"/>
<stop offset="0.72" stop-color="#B27E4F"/>
<stop offset="1" stop-color="#B27E4F"/>
</linearGradient>
<linearGradient id="paint20_linear_681_711" x1="69706.6" y1="24236.3" x2="76813.4" y2="24236.3" gradientUnits="userSpaceOnUse">
<stop stop-color="#DCB274"/>
<stop offset="1" stop-color="#FFDC96"/>
</linearGradient>
<linearGradient id="paint21_linear_681_711" x1="69705" y1="17767.5" x2="76811.6" y2="17767.5" gradientUnits="userSpaceOnUse">
<stop stop-color="#B58252"/>
<stop offset="0.3" stop-color="#DDB277"/>
<stop offset="0.48" stop-color="#BB8958"/>
<stop offset="0.72" stop-color="#B27E4F"/>
<stop offset="1" stop-color="#B27E4F"/>
</linearGradient>
<linearGradient id="paint22_linear_681_711" x1="69706.6" y1="23524" x2="76813.4" y2="23524" gradientUnits="userSpaceOnUse">
<stop stop-color="#DCB274"/>
<stop offset="1" stop-color="#FFDC96"/>
</linearGradient>
<linearGradient id="paint23_linear_681_711" x1="69705" y1="17248.3" x2="76811.6" y2="17248.3" gradientUnits="userSpaceOnUse">
<stop stop-color="#B58252"/>
<stop offset="0.3" stop-color="#DDB277"/>
<stop offset="0.48" stop-color="#BB8958"/>
<stop offset="0.72" stop-color="#B27E4F"/>
<stop offset="1" stop-color="#B27E4F"/>
</linearGradient>
<linearGradient id="paint24_linear_681_711" x1="69706.6" y1="22813.8" x2="76813.4" y2="22813.8" gradientUnits="userSpaceOnUse">
<stop stop-color="#DCB274"/>
<stop offset="1" stop-color="#FFDC96"/>
</linearGradient>
<linearGradient id="paint25_linear_681_711" x1="65136.7" y1="12197.8" x2="66210.2" y2="12197.8" gradientUnits="userSpaceOnUse">
<stop stop-color="#FFD9D9"/>
<stop offset="1" stop-color="#EFB4B4"/>
</linearGradient>
</defs>
</svg>
