<svg width="337" height="280" viewBox="0 0 337 280" fill="none" xmlns="http://www.w3.org/2000/svg">
<path fill-rule="evenodd" clip-rule="evenodd" d="M153.465 0C238.495 0 337 32.0804 337 117.027C337 212.829 249.36 280 153.465 280C65.999 280 0 204.409 0 117.027C0 41.7044 78.0693 0 153.465 0Z" fill="#F4F4F4"/>
<path fill-rule="evenodd" clip-rule="evenodd" d="M206.549 255.882C202.439 247.518 176.777 228.025 175.04 233.723C172.768 241.18 174.238 215.034 167.185 217.25C163.821 218.305 160.043 215.096 157.36 212.484C150.765 206.069 145.051 193.538 136.419 193.33C131.454 193.209 127.193 197.645 123.461 201.976C117.783 208.565 112.401 216.921 105.549 220.873C95.4281 226.713 84.0744 219.572 73.7077 223.795C58.0595 230.173 49.2753 258.539 55.78 279.75H203.165C203.165 279.75 214.145 271.341 206.549 255.882Z" fill="#19959E"/>
<path fill-rule="evenodd" clip-rule="evenodd" d="M64.1244 37.7848C63.865 37.6351 63.5707 37.5563 63.2711 37.5563C62.9715 37.5563 62.6772 37.6351 62.4178 37.7848L21.2036 61.5439C20.9465 61.6941 20.7334 61.9091 20.5857 62.1673C20.438 62.4256 20.3608 62.7182 20.3618 63.0156V110.534C20.3608 110.831 20.438 111.124 20.5857 111.382C20.7334 111.64 20.9465 111.855 21.2036 112.006L62.4178 135.766C62.6776 135.914 62.9717 135.993 63.2711 135.993C63.5705 135.993 63.8646 135.914 64.1244 135.766L105.316 112.007C105.573 111.856 105.786 111.641 105.934 111.383C106.081 111.125 106.158 110.832 106.157 110.535V63.0156C106.158 62.7182 106.081 62.4256 105.934 62.1673C105.786 61.9091 105.573 61.6941 105.316 61.5439L64.1244 37.7848ZM63.2596 41.2196L102.768 64.0024V109.557L63.2596 132.324L23.7509 109.552V64.0024L63.2596 41.2196Z" fill="#2CB9C3"/>
<path fill-rule="evenodd" clip-rule="evenodd" d="M54.1912 56.2514L95.4065 80.0105V127.525L54.1912 151.288L13 127.525V80.0105L54.1912 56.2514Z" fill="#3578DB"/>
<path fill-rule="evenodd" clip-rule="evenodd" d="M98.9872 132L110.588 138.688V152.069L98.9872 158.757L87.3943 152.069V138.692L98.9872 132Z" fill="#2CB9C3"/>
<path fill-rule="evenodd" clip-rule="evenodd" d="M87.3755 162.946L94.3281 166.953V174.975L87.3755 178.983L80.426 174.975V166.953L87.3755 162.946Z" fill="#2CB9C3"/>
<path fill-rule="evenodd" clip-rule="evenodd" d="M54.9744 106.92L46.9419 103.612L36.2483 129.521L42.2097 126.592L44.2808 132.828L54.9744 106.92Z" fill="#E8E8E8"/>
<path fill-rule="evenodd" clip-rule="evenodd" d="M50.3792 106.823L58.5453 103.858L68.1309 130.196L62.2989 127.018L59.9647 133.158L50.3792 106.823Z" fill="#E8E8E8"/>
<path fill-rule="evenodd" clip-rule="evenodd" d="M53.9654 77.5082L56.5419 80.8585L60.2924 78.9028L61.389 82.9853L65.6032 82.6119L65.0549 86.8051L69.0925 88.0724L66.9745 91.7315L70.2121 94.4435L66.8565 97.0199L68.8158 100.766L64.728 101.861L65.0977 106.07L60.9023 105.519L59.6334 109.551L55.9707 107.442L53.2552 110.676L50.6818 107.331L46.9324 109.283L45.8358 105.204L41.6206 105.577L42.1689 101.387L38.1354 100.12L40.2472 96.4618L37.0095 93.7446L40.3641 91.1714L38.4101 87.4267L42.4937 86.3315L42.1229 82.1186L46.3183 82.6693L47.5872 78.6368L51.251 80.7501L53.9654 77.5082Z" fill="white"/>
<path d="M53.6246 103.761C58.9636 103.761 63.2862 99.4329 63.2794 94.0939C63.2726 88.755 58.939 84.4268 53.6 84.4268C48.261 84.4268 43.9384 88.755 43.9452 94.0939C43.952 99.4329 48.2856 103.761 53.6246 103.761Z" fill="#3578DB"/>
<path fill-rule="evenodd" clip-rule="evenodd" d="M48.7247 95.6847L51.7409 99.1957C51.8661 99.3412 52.0235 99.4557 52.2006 99.53C52.3778 99.6044 52.5698 99.6366 52.7615 99.6242C52.9532 99.6117 53.1394 99.555 53.3054 99.4583C53.4714 99.3617 53.6126 99.2279 53.718 99.0674L59.2355 90.655C59.4063 90.3801 59.4626 90.0494 59.3925 89.7335C59.3223 89.4177 59.1313 89.1418 58.8602 88.9647C58.5891 88.7876 58.2594 88.7235 57.9416 88.786C57.6238 88.8484 57.343 89.0326 57.1593 89.299L52.5493 96.3324L50.6067 94.0742C50.5031 93.9435 50.3741 93.835 50.2275 93.7553C50.0808 93.6756 49.9196 93.6263 49.7534 93.6103C49.5873 93.5943 49.4196 93.612 49.2604 93.6624C49.1013 93.7127 48.954 93.7946 48.8273 93.9032C48.7006 94.0118 48.5972 94.1448 48.5233 94.2943C48.4493 94.4438 48.4064 94.6066 48.397 94.7731C48.3876 94.9395 48.412 95.1062 48.4686 95.263C48.5253 95.4198 48.6131 95.5636 48.7268 95.6857L48.7247 95.6847Z" fill="white"/>
<path fill-rule="evenodd" clip-rule="evenodd" d="M245.769 242.813C255.96 237.18 248.88 203.489 248.88 203.489C248.88 203.489 189.618 195.425 160.419 225.683C148.067 238.483 153.631 278.577 153.631 278.577H199.455L191.894 248.776C191.894 248.776 225.157 254.198 245.769 242.813Z" fill="#3B4161"/>
<path fill-rule="evenodd" clip-rule="evenodd" d="M266.927 210.162L222.992 202.522L237.668 278.581H283.492C273.078 249.841 278.821 220.369 266.927 210.162Z" fill="#3B4161"/>
<path fill-rule="evenodd" clip-rule="evenodd" d="M225.802 4.84884C225.285 3.81641 224.569 2.89606 223.695 2.1405C222.821 1.38494 221.806 0.809031 220.709 0.445769C219.612 0.0825059 218.454 -0.0609726 217.301 0.023555C216.148 0.108083 215.023 0.418958 213.991 0.938363L98.6701 58.7579C97.6367 59.2751 96.7153 59.9906 95.9588 60.8635C95.2023 61.7364 94.6254 62.7496 94.2611 63.8453C93.8968 64.9409 93.7523 66.0975 93.8357 67.249C93.9191 68.4005 94.2289 69.5242 94.7474 70.5561C102.879 86.7352 121.404 123.588 129.532 139.759C130.051 140.79 130.768 141.71 131.643 142.465C132.518 143.22 133.533 143.795 134.631 144.158C135.728 144.521 136.887 144.664 138.04 144.58C139.193 144.495 140.318 144.185 141.351 143.666L256.672 85.8465C257.705 85.33 258.627 84.6149 259.383 83.7422C260.14 82.8694 260.716 81.8562 261.08 80.7605C261.444 79.6647 261.588 78.5081 261.503 77.3569C261.418 76.2056 261.107 75.0823 260.587 74.0514C252.461 57.8796 233.935 21.0279 225.802 4.84884Z" fill="#3578DB"/>
<path fill-rule="evenodd" clip-rule="evenodd" d="M223.635 14.5192C222.695 14.9914 221.67 15.2739 220.621 15.3505C219.571 15.4272 218.517 15.2964 217.518 14.9658C216.519 14.6352 215.595 14.1112 214.798 13.4237C214.002 12.7362 213.35 11.8988 212.878 10.9592L107.378 63.8586C108.329 65.756 108.488 67.9526 107.82 69.9667C107.151 71.9808 105.71 73.6479 103.813 74.6022L131.698 130.083C132.638 129.61 133.663 129.327 134.713 129.25C135.763 129.173 136.817 129.304 137.817 129.635C138.816 129.965 139.74 130.49 140.536 131.178C141.332 131.866 141.984 132.704 142.456 133.644L247.964 80.7449C247.489 79.8063 247.204 78.7831 247.125 77.7341C247.047 76.6851 247.178 75.6311 247.509 74.6325C247.84 73.634 248.366 72.7108 249.056 71.916C249.746 71.1212 250.586 70.4704 251.529 70.0012L223.635 14.5192Z" fill="white"/>
<path d="M122.141 83.5397L123.559 83.3139C123.714 84.0905 123.656 84.754 123.386 85.3044C123.117 85.8549 122.646 86.2986 121.975 86.6357C121.142 87.0528 120.317 87.1117 119.501 86.8125C118.684 86.5133 118.027 85.8725 117.53 84.8902C117.009 83.8495 116.872 82.906 117.12 82.0595C117.368 81.2131 117.93 80.5704 118.806 80.1314C119.571 79.747 120.306 79.6611 121.01 79.8738C121.428 79.9975 121.834 80.2743 122.228 80.7043L121.127 81.6299C120.917 81.3552 120.615 81.1653 120.277 81.0947C119.938 81.0241 119.586 81.0776 119.284 81.2454C119.067 81.3457 118.875 81.4937 118.723 81.6782C118.571 81.8627 118.462 82.0791 118.405 82.3113C118.284 82.7887 118.411 83.4004 118.784 84.1462C119.18 84.9363 119.605 85.4278 120.059 85.6207C120.275 85.7163 120.51 85.7613 120.746 85.7521C120.982 85.743 121.213 85.6799 121.42 85.5678C121.742 85.4142 121.994 85.1447 122.126 84.8133C122.26 84.473 122.265 84.0511 122.141 83.5397Z" fill="#3578DB"/>
<path d="M127.493 81.9259L128.788 81.526C128.863 81.9938 128.783 82.473 128.562 82.8918C128.346 83.2866 127.99 83.6092 127.492 83.8597C126.704 84.2557 125.992 84.291 125.356 83.9655C124.85 83.7028 124.439 83.2574 124.124 82.6294C123.748 81.8778 123.649 81.1912 123.827 80.5697C123.91 80.2679 124.058 79.9877 124.26 79.7485C124.461 79.5092 124.712 79.3165 124.996 79.1837C125.669 78.8453 126.312 78.8008 126.926 79.0501C127.54 79.2993 128.068 79.8879 128.511 80.8157L125.509 82.3238C125.695 82.6749 125.931 82.9031 126.215 83.0081C126.35 83.0602 126.496 83.0825 126.64 83.0737C126.785 83.065 126.927 83.0252 127.055 82.9572C127.228 82.8767 127.369 82.7384 127.452 82.566C127.531 82.362 127.545 82.1384 127.493 81.9259ZM126.953 80.6764C126.77 80.3342 126.548 80.1153 126.287 80.0199C126.165 79.9725 126.034 79.9518 125.903 79.9591C125.773 79.9664 125.645 80.0015 125.529 80.0622C125.405 80.1205 125.295 80.2055 125.208 80.3112C125.12 80.4169 125.058 80.5406 125.024 80.6735C124.949 80.949 124.995 81.2499 125.162 81.576L126.953 80.6764Z" fill="#3578DB"/>
<path d="M131.598 81.6683L130.4 82.27L128.127 77.739L129.24 77.1796L129.562 77.8246C129.601 77.4234 129.672 77.1351 129.775 76.9595C129.881 76.7841 130.036 76.6432 130.221 76.5539C130.5 76.4161 130.812 76.3573 131.123 76.3838L131.276 77.616C131.052 77.5799 130.823 77.61 130.615 77.7025C130.459 77.7752 130.333 77.8999 130.258 78.0552C130.188 78.2058 130.18 78.4189 130.234 78.6944C130.288 78.97 130.509 79.4931 130.897 80.264L131.598 81.6683Z" fill="#3578DB"/>
<path d="M133.654 74.964L134.134 75.9194L133.315 76.3308L134.231 78.157C134.332 78.3766 134.448 78.5886 134.579 78.7914C134.626 78.8449 134.691 78.8791 134.761 78.8875C134.842 78.8991 134.923 78.8842 134.994 78.8452C135.154 78.7501 135.297 78.6297 135.419 78.4886L135.987 79.3671C135.75 79.6417 135.458 79.8645 135.13 80.0217C134.932 80.1253 134.715 80.1881 134.492 80.2062C134.312 80.2261 134.131 80.1951 133.969 80.1168C133.807 80.0207 133.669 79.8893 133.565 79.7324C133.391 79.4687 133.237 79.1928 133.103 78.9067L132.113 76.9315L131.562 77.2084L131.082 76.253L131.631 75.9761L131.18 75.0755L132.031 73.7722L132.834 75.3725L133.654 74.964Z" fill="#3578DB"/>
<path d="M134.177 73.9319L133.621 72.8227L134.819 72.221L135.375 73.3302L134.177 73.9319ZM136.76 79.077L134.486 74.546L135.684 73.9443L137.958 78.4753L136.76 79.077Z" fill="#3578DB"/>
<path d="M136.418 73.5762L137.083 73.2417L136.912 72.9005C136.72 72.516 136.617 72.211 136.605 71.9855C136.598 71.7396 136.674 71.4984 136.822 71.3021C137.015 71.0471 137.269 70.844 137.559 70.711C137.899 70.5401 138.263 70.4221 138.638 70.3611L138.896 71.279C138.694 71.3251 138.498 71.3948 138.312 71.4866C138.139 71.5741 138.034 71.6789 137.999 71.7961C137.965 71.9134 138.005 72.0845 138.121 72.32L138.282 72.64L139.177 72.1902L139.651 73.1331L138.755 73.5829L140.555 77.171L139.357 77.7727L137.557 74.1846L136.892 74.5191L136.418 73.5762ZM139.475 71.2694L138.918 70.1602L140.117 69.5585L140.673 70.6677L139.475 71.2694ZM142.057 76.4145L139.784 71.8836L140.982 71.2819L143.255 75.8128L142.057 76.4145Z" fill="#3578DB"/>
<path d="M146.869 70.0044L145.794 70.8108C145.668 70.6179 145.477 70.477 145.255 70.4139C145.038 70.3673 144.811 70.4015 144.617 70.51C144.479 70.5725 144.357 70.6655 144.261 70.7821C144.164 70.8986 144.095 71.0357 144.058 71.1828C143.984 71.4782 144.068 71.8675 144.311 72.3506C144.581 72.8889 144.862 73.2234 145.154 73.3541C145.295 73.4187 145.449 73.4494 145.604 73.4438C145.759 73.4381 145.911 73.3962 146.047 73.3214C146.256 73.2275 146.42 73.0577 146.508 72.8466C146.589 72.6448 146.58 72.3708 146.48 72.0248L147.758 71.6346C147.907 72.2363 147.878 72.7623 147.67 73.2128C147.462 73.6633 147.067 74.033 146.484 74.322C145.821 74.6546 145.188 74.7106 144.585 74.4902C143.981 74.2698 143.494 73.7892 143.123 73.0484C142.747 72.3007 142.651 71.6192 142.835 71.004C143.019 70.3889 143.449 69.9118 144.126 69.5729C144.677 69.2961 145.175 69.1945 145.62 69.2682C146.064 69.3419 146.48 69.5873 146.869 70.0044Z" fill="#3578DB"/>
<path d="M148.694 69.1403L147.509 69.4912C147.411 68.9914 147.458 68.5614 147.652 68.2013C147.845 67.8412 148.236 67.5128 148.824 67.2161C149.358 66.9476 149.788 66.8111 150.113 66.8066C150.393 66.7896 150.671 66.8612 150.908 67.0114C151.112 67.153 151.344 67.4839 151.606 68.0042L152.295 69.4104C152.436 69.7091 152.603 69.9941 152.796 70.262C152.947 70.4499 153.122 70.6179 153.316 70.7618L152.13 71.3578C152.059 71.2934 151.961 71.1953 151.837 71.0617C151.782 71.0002 151.741 70.9608 151.724 70.9416C151.629 71.2256 151.483 71.4896 151.292 71.7201C151.106 71.9386 150.877 72.1168 150.62 72.2439C150.153 72.4785 149.722 72.5365 149.326 72.4179C149.134 72.362 148.955 72.2656 148.802 72.1349C148.649 72.0043 148.527 71.8426 148.442 71.6605C148.317 71.4217 148.261 71.1527 148.281 70.8839C148.305 70.6212 148.405 70.3712 148.569 70.1649C148.807 69.879 149.08 69.6243 149.382 69.4066C149.889 69.0221 150.228 68.729 150.399 68.5271L150.338 68.4079C150.223 68.1773 150.084 68.0414 149.92 68.0004C149.757 67.9594 149.518 68.0183 149.202 68.1773C149.022 68.2551 148.871 68.3863 148.767 68.5531C148.683 68.7367 148.658 68.9417 148.694 69.1403ZM150.787 69.3086C150.659 69.4367 150.446 69.6196 150.15 69.8574C149.852 70.0957 149.669 70.2755 149.601 70.3947C149.552 70.4756 149.525 70.5675 149.521 70.6619C149.517 70.7563 149.537 70.8502 149.579 70.9348C149.619 71.0168 149.676 71.0895 149.746 71.1483C149.816 71.207 149.897 71.2506 149.985 71.2761C150.079 71.3054 150.178 71.3154 150.276 71.3057C150.374 71.2959 150.469 71.2666 150.555 71.2194C150.778 71.1043 150.957 70.9206 151.066 70.6955C151.154 70.53 151.185 70.34 151.153 70.1553C151.096 69.943 151.014 69.7386 150.906 69.5469L150.787 69.3086Z" fill="#3578DB"/>
<path d="M154.041 64.7257L154.522 65.6811L153.703 66.0925L154.62 67.9187C154.721 68.138 154.837 68.35 154.967 68.5531C155.014 68.6066 155.079 68.6408 155.15 68.6492C155.23 68.6603 155.311 68.6455 155.382 68.6069C155.542 68.5114 155.685 68.3911 155.806 68.2503L156.376 69.1288C156.138 69.4032 155.846 69.6259 155.519 69.7834C155.32 69.8869 155.103 69.9497 154.88 69.9679C154.701 69.9882 154.519 69.9568 154.357 69.8776C154.195 69.7819 154.057 69.6504 153.954 69.4931C153.78 69.2297 153.625 68.9537 153.492 68.6675L152.5 66.6923L151.95 66.9691L151.47 66.0127L152.021 65.7369L151.569 64.8363L152.42 63.5329L153.223 65.1333L154.041 64.7257Z" fill="#3578DB"/>
<path d="M159.046 66.079L160.341 65.6801C160.416 66.1478 160.337 66.6269 160.116 67.046C159.899 67.4413 159.542 67.7639 159.045 68.0139C158.257 68.4099 157.545 68.4451 156.909 68.1196C156.404 67.8569 155.993 67.4112 155.677 66.7826C155.301 66.0316 155.202 65.345 155.381 64.7228C155.464 64.4213 155.612 64.1415 155.813 63.9024C156.015 63.6633 156.266 63.4707 156.549 63.3378C157.223 62.9995 157.867 62.9549 158.479 63.2042C159.092 63.4534 159.62 64.042 160.065 64.9698L157.062 66.4818C157.249 66.8323 157.484 67.0601 157.768 67.1651C157.904 67.2173 158.049 67.2398 158.193 67.2312C158.338 67.2226 158.48 67.183 158.608 67.1152C158.782 67.035 158.922 66.8966 159.005 66.724C159.085 66.5186 159.1 66.2931 159.046 66.079ZM158.506 64.8295C158.324 64.4861 158.102 64.2672 157.84 64.173C157.718 64.1258 157.587 64.105 157.457 64.1121C157.326 64.1193 157.198 64.1541 157.082 64.2144C156.958 64.2729 156.849 64.358 156.761 64.4637C156.674 64.5693 156.611 64.6929 156.577 64.8257C156.502 65.1025 156.548 65.4037 156.715 65.7292L158.506 64.8295Z" fill="#3578DB"/>
<path d="M162.634 62.2151C162.314 61.5782 162.141 60.9957 162.115 60.4677C162.096 60.0773 162.148 59.6867 162.267 59.3143C162.374 58.9589 162.553 58.6292 162.792 58.3455C163.134 57.9578 163.55 57.6433 164.016 57.4208C164.938 56.9576 165.819 56.873 166.658 57.1671C167.497 57.4612 168.172 58.1174 168.684 59.1356C169.191 60.1461 169.313 61.0752 169.05 61.9229C168.787 62.7707 168.197 63.4253 167.279 63.8866C166.349 64.3537 165.468 64.4415 164.634 64.15C163.801 63.8584 163.134 63.2135 162.634 62.2151ZM163.914 61.5193C164.269 62.228 164.702 62.6829 165.213 62.8841C165.457 62.9775 165.718 63.019 165.979 63.0061C166.24 62.9932 166.496 62.9262 166.729 62.8092C166.963 62.6923 167.17 62.528 167.337 62.3267C167.504 62.1255 167.627 61.8918 167.699 61.6404C167.84 61.1156 167.728 60.4905 167.364 59.7651C167 59.0398 166.574 58.5839 166.085 58.3974C165.594 58.2052 165.088 58.2372 164.568 58.4935C164.048 58.7498 163.718 59.1391 163.578 59.6613C163.441 60.181 163.552 60.8003 163.914 61.5193Z" fill="#3578DB"/>
<path d="M168.427 57.5007L169.093 57.1662L168.921 56.825C168.729 56.4405 168.628 56.1387 168.615 55.9109C168.607 55.6648 168.684 55.4234 168.833 55.2275C169.025 54.9718 169.278 54.7682 169.569 54.6354C169.909 54.4645 170.273 54.3466 170.648 54.2856L170.906 55.2035C170.704 55.2493 170.508 55.319 170.322 55.4111C170.148 55.4986 170.044 55.6033 170.01 55.7206C169.976 55.8379 170.015 56.0147 170.131 56.2444L170.291 56.5645L171.187 56.1147L171.658 57.0624L170.761 57.5122L172.562 61.1002L171.364 61.7019L169.563 58.1148L168.898 58.4484L168.427 57.5007Z" fill="#3578DB"/>
<path d="M174.764 56.1242C174.444 55.486 174.271 54.9045 174.245 54.3759C174.227 53.9854 174.278 53.5948 174.397 53.2225C174.505 52.8678 174.685 52.539 174.925 52.2565C175.266 51.869 175.682 51.5545 176.148 51.3319C177.069 50.8692 177.95 50.785 178.79 51.0791C179.63 51.3732 180.305 52.0293 180.816 53.0475C181.322 54.0568 181.444 54.9859 181.182 55.8349C180.92 56.684 180.33 57.3372 179.411 57.7947C178.481 58.2619 177.599 58.3497 176.765 58.0581C175.932 57.7666 175.265 57.1219 174.764 56.1242ZM176.044 55.4284C176.399 56.1332 176.832 56.5878 177.342 56.7922C177.586 56.8856 177.847 56.9271 178.108 56.9143C178.37 56.9014 178.625 56.8343 178.859 56.7174C179.093 56.6004 179.3 56.4362 179.467 56.2349C179.634 56.0337 179.758 55.8 179.83 55.5485C179.97 55.0237 179.858 54.3989 179.494 53.6742C179.13 52.9495 178.705 52.4936 178.218 52.3065C177.726 52.1143 177.22 52.1463 176.7 52.4026C176.18 52.6589 175.85 53.0482 175.711 53.5704C175.571 54.0895 175.682 54.7088 176.044 55.4284Z" fill="#3578DB"/>
<path d="M184.2 55.2525L180.497 51.4415L181.662 50.8561L184 53.3994L183.291 50.0353L184.444 49.4586L186.69 52.0489L186.065 48.6445L187.246 48.0515L188.066 53.3129L186.913 53.8896L184.669 51.3675L185.364 54.6672L184.2 55.2525Z" fill="#3578DB"/>
<path d="M194.271 50.1959L193.072 50.7975L191.912 48.485C191.666 47.9961 191.481 47.6923 191.358 47.5738C191.245 47.4611 191.098 47.3877 190.94 47.3642C190.775 47.3428 190.607 47.374 190.46 47.4536C190.259 47.5515 190.094 47.7094 189.987 47.9054C189.881 48.0941 189.841 48.3132 189.875 48.5273C189.909 48.7454 190.052 49.104 190.306 49.6143L191.335 51.6664L190.137 52.2691L187.869 47.7391L188.981 47.1807L189.316 47.8468C189.454 47.1355 189.823 46.6293 190.423 46.3281C190.67 46.2 190.941 46.1248 191.219 46.107C191.452 46.0866 191.686 46.1263 191.899 46.2224C192.087 46.3146 192.254 46.4457 192.387 46.6068C192.571 46.846 192.728 47.1037 192.857 47.3758L194.271 50.1959Z" fill="#3578DB"/>
<path d="M197.385 46.8249L198.681 46.4261C198.755 46.8938 198.676 47.3731 198.455 47.7919C198.239 48.1872 197.882 48.5099 197.384 48.7598C196.597 49.1558 195.885 49.191 195.249 48.8655C194.742 48.6028 194.331 48.1571 194.017 47.5285C193.639 46.7782 193.541 46.0916 193.72 45.4687C193.803 45.1672 193.951 44.8872 194.152 44.6481C194.354 44.409 194.605 44.2165 194.888 44.0837C195.561 43.7454 196.205 43.7008 196.819 43.9501C197.432 44.1993 197.961 44.7879 198.404 45.7157L195.401 47.2238C195.593 47.5747 195.823 47.8005 196.107 47.9082C196.243 47.9602 196.388 47.9826 196.533 47.9738C196.678 47.965 196.819 47.9252 196.947 47.8572C197.121 47.7767 197.261 47.6385 197.344 47.466C197.423 47.2617 197.438 47.0378 197.385 46.8249ZM196.845 45.5754C196.663 45.2326 196.441 45.0138 196.18 44.9189C196.054 44.8734 195.92 44.8544 195.787 44.8631C195.654 44.8718 195.524 44.9079 195.405 44.9693C195.286 45.0307 195.182 45.116 195.097 45.2198C195.013 45.3236 194.952 45.4437 194.916 45.5725C194.841 45.8481 194.887 46.1489 195.054 46.4751L196.845 45.5754Z" fill="#3578DB"/>
<path d="M201.491 46.5693L200.293 47.171L198.02 42.6448L199.132 42.0854L199.455 42.7294C199.494 42.3296 199.564 42.0431 199.668 41.8701C199.774 41.6947 199.929 41.5539 200.113 41.4645C200.393 41.3263 200.705 41.2674 201.016 41.2944L201.169 42.5266C200.945 42.4906 200.716 42.5206 200.508 42.6131C200.352 42.6855 200.225 42.8102 200.151 42.9659C200.08 43.1171 200.072 43.3301 200.127 43.605C200.181 43.8799 200.402 44.4031 200.789 45.1746L201.491 46.5693Z" fill="#3578DB"/>
<path d="M202.673 44.3577L203.784 43.5695C203.924 43.7599 204.129 43.8933 204.36 43.9454C204.577 43.9876 204.826 43.938 205.108 43.7964C205.418 43.6407 205.622 43.4667 205.722 43.2745C205.754 43.213 205.771 43.1446 205.771 43.075C205.771 43.0055 205.754 42.937 205.722 42.8756C205.702 42.8334 205.675 42.7954 205.641 42.7638C205.607 42.7323 205.567 42.7079 205.524 42.692C205.434 42.6651 205.275 42.6795 205.043 42.7352C203.969 43.0069 203.258 43.1197 202.911 43.0736C202.686 43.0502 202.471 42.9688 202.287 42.8374C202.104 42.706 201.957 42.529 201.862 42.3239C201.765 42.1355 201.712 41.9276 201.706 41.7157C201.701 41.5038 201.743 41.2934 201.83 41.1003C202.006 40.6774 202.419 40.3025 203.071 39.9757C203.69 39.6643 204.202 39.5339 204.608 39.5845C205.025 39.642 205.406 39.8494 205.681 40.168L204.655 40.9446C204.533 40.8002 204.362 40.7052 204.175 40.6774C203.948 40.661 203.722 40.7129 203.526 40.8264C203.211 40.9853 203.007 41.1429 202.915 41.2993C202.886 41.3457 202.869 41.3988 202.867 41.4536C202.864 41.5083 202.876 41.5627 202.901 41.6116C202.923 41.6545 202.956 41.6912 202.995 41.7186C203.035 41.7461 203.081 41.7635 203.129 41.7693C203.277 41.7943 203.707 41.719 204.418 41.5434C205.129 41.3678 205.664 41.322 206.022 41.4059C206.38 41.4937 206.654 41.7279 206.845 42.1086C207.054 42.5238 207.059 42.9678 206.862 43.4407C206.665 43.9136 206.225 44.3212 205.544 44.6633C204.927 44.9741 204.376 45.0943 203.89 45.0238C203.416 44.9596 202.983 44.7223 202.673 44.3577Z" fill="#3578DB"/>
<path d="M206.656 36.1436L207.809 38.4436C207.97 37.7964 208.319 37.3383 208.856 37.0692C209.111 36.9361 209.392 36.8607 209.679 36.8481C209.92 36.8321 210.161 36.8805 210.378 36.9884C210.569 37.0917 210.738 37.2322 210.873 37.4017C211.071 37.6734 211.243 37.963 211.387 38.2668L212.721 40.9244L211.522 41.5261L210.321 39.1328C210.083 38.658 209.909 38.3696 209.799 38.2677C209.692 38.1641 209.553 38.0992 209.404 38.0832C209.235 38.0692 209.065 38.1056 208.915 38.188C208.726 38.2791 208.566 38.4221 208.455 38.6003C208.345 38.7834 208.301 38.999 208.331 39.2106C208.356 39.4413 208.464 39.7473 208.656 40.1285L209.794 42.3988L208.596 43.0005L205.457 36.7452L206.656 36.1436Z" fill="#3578DB"/>
<path d="M211.355 35.1737L210.799 34.0635L211.997 33.4619L212.554 34.571L211.355 35.1737ZM213.934 40.3188L211.659 35.7879L212.858 35.1862L215.132 39.7171L213.934 40.3188Z" fill="#3578DB"/>
<path d="M214.056 34.5864L215.174 34.0251L215.507 34.6902C215.54 34.3858 215.646 34.094 215.818 33.8406C215.997 33.5715 216.244 33.3549 216.534 33.2129C216.788 33.0827 217.067 33.0103 217.352 33.001C217.638 32.9917 217.921 33.0457 218.183 33.1591C218.76 33.3879 219.232 33.8704 219.599 34.6066C219.978 35.364 220.088 36.0452 219.93 36.6501C219.866 36.9301 219.741 37.1924 219.563 37.4179C219.385 37.6435 219.159 37.8267 218.902 37.9544C218.669 38.0758 218.41 38.1416 218.147 38.1466C217.838 38.1372 217.533 38.0721 217.248 37.9544L218.394 40.2371L217.195 40.8388L214.056 34.5864ZM216.341 36.1801C216.597 36.6882 216.885 37.0134 217.205 37.1556C217.349 37.2259 217.507 37.262 217.667 37.2612C217.826 37.2603 217.984 37.2226 218.127 37.1508C218.261 37.0853 218.379 36.9894 218.47 36.8707C218.562 36.7519 218.624 36.6135 218.653 36.4665C218.726 36.1506 218.635 35.7379 218.379 35.2285C218.141 34.7537 217.869 34.4487 217.563 34.3135C217.425 34.2468 217.274 34.213 217.121 34.2147C216.968 34.2163 216.818 34.2534 216.682 34.3231C216.541 34.3906 216.417 34.4894 216.321 34.6118C216.224 34.7342 216.156 34.877 216.122 35.0295C216.046 35.3525 216.118 35.736 216.341 36.1801Z" fill="#3578DB"/>
<path d="M175.003 70.0936L155.93 79.6576L165.506 98.7067L184.579 89.1426L175.003 70.0936Z" fill="#3578DB"/>
<path d="M198.462 74.5474L187.882 79.8524L193.194 90.4187L203.774 85.1137L198.462 74.5474Z" fill="#3578DB"/>
<path d="M187.674 92.7019L179.746 96.6773L183.727 104.595L191.655 100.62L187.674 92.7019Z" fill="#3578DB"/>
<path fill-rule="evenodd" clip-rule="evenodd" d="M230.906 135.619C232.462 126.977 274.77 102.98 274.77 102.98L253.62 60.0325C250.15 58.2958 240.513 55.4211 240.165 49.6143C239.977 46.3349 247.593 50.1004 247.615 48.2239L242.958 38.9406C251.141 37.7807 255.379 46.9347 264.571 52.4849C264.571 52.4849 313.465 85.2644 305.672 113.296C298.894 137.696 277.891 151.108 265.427 154.831C252.963 158.554 229.349 144.261 230.906 135.619Z" fill="#FFD7BF"/>
<path fill-rule="evenodd" clip-rule="evenodd" d="M309.092 144.43C308.696 141.489 307.144 138.588 305.757 136.022C302.609 130.175 298.393 125.038 293.904 120.168C288.817 114.658 283.287 109.334 276.664 105.678C272.827 103.563 268.659 101.95 264.347 101.099C260.472 100.337 256.371 100.049 252.505 101.023C242.298 103.603 235.96 114.523 233.543 123.992C228.758 142.73 232.594 166.763 250.797 177.188C253.541 178.782 256.528 179.914 259.64 180.54C267.245 182.016 274.391 180.676 281.631 178.29L309.092 144.43Z" fill="#FFB83A"/>
<path fill-rule="evenodd" clip-rule="evenodd" d="M267.452 129.27C259.742 113.17 203.212 120.498 205.264 137.427C210.657 181.885 201.632 205.601 201.632 205.601C218.589 204.662 243.207 229.3 268.675 212.529C268.675 212.529 278.257 151.856 267.452 129.27Z" fill="#FFB83A"/>
<path fill-rule="evenodd" clip-rule="evenodd" d="M206.507 154.9C209.431 160.337 210.359 167.512 211.425 173.474C213.976 187.738 215.652 202.318 212.328 216.586C210.586 224.054 207.591 234.08 199.194 236.272C191.109 238.376 184.886 231.381 181.284 225.024C172.615 209.703 174.808 190.823 182.591 175.638L206.507 154.9Z" fill="#3B4161" fill-opacity="0.25"/>
<path fill-rule="evenodd" clip-rule="evenodd" d="M211.91 127.989C204.05 128.295 170.35 163.511 170.35 163.511L130.398 138.782C129.467 135.027 133.967 123.789 128.367 122.168C125.205 121.254 127.401 131.305 125.556 130.919L120.198 121.061C117.259 128.779 117.224 137.611 120.607 147.79C120.607 147.79 144.509 197.291 173.604 195.892C198.93 194.677 211.152 172.976 217.54 161.662C223.133 151.747 219.778 127.682 211.91 127.989Z" fill="#FFD7BF"/>
<path fill-rule="evenodd" clip-rule="evenodd" d="M178.875 135.232C178.317 138.146 178.868 141.386 179.368 144.26C180.498 150.804 182.866 157.011 185.577 163.054C188.652 169.89 192.207 176.69 197.327 182.254C200.296 185.475 203.736 188.326 207.555 190.495C210.988 192.445 214.786 194.016 218.763 194.316C229.262 195.102 238.738 186.752 244.037 178.538C254.522 162.281 258.513 138.275 244.559 122.622C242.463 120.242 239.989 118.222 237.236 116.643C230.491 112.836 223.289 111.845 215.665 111.815L178.875 135.232Z" fill="#FFB83A"/>
<path fill-rule="evenodd" clip-rule="evenodd" d="M238.668 108.75H227.082C229.017 114.278 229.657 118.129 227.909 121.893C231.823 124.357 239.651 123.875 241.232 120.3C238.649 116.91 237.871 113.731 238.668 108.75Z" fill="#FFD7BF"/>
<path fill-rule="evenodd" clip-rule="evenodd" d="M225.46 114.817C226.087 114.631 226.748 114.546 227.384 114.381C228.758 114.009 230.116 113.538 231.457 113.053C232.537 112.66 231.562 111.238 232.638 110.838C233.653 110.46 234.654 110.053 235.666 109.653C235.916 109.548 236.574 109.209 236.853 109.402C236.957 109.481 236.882 109.653 236.839 109.731C236.714 109.958 236.566 110.171 236.395 110.367C235.687 111.224 234.893 112.01 234.114 112.795C231.482 115.453 230.595 119.095 226.825 119.882C225.259 120.203 223.207 120.153 222.727 118.288C222.643 117.935 222.604 117.572 222.613 117.21L225.46 114.817Z" fill="#3B4161" fill-opacity="0.25"/>
<path fill-rule="evenodd" clip-rule="evenodd" d="M232.153 92.0361C236.974 92.0361 240.887 97.2223 240.887 103.608C240.887 109.994 232.466 116.294 227.65 116.294C222.834 116.294 222.446 109.194 222.446 102.808C222.446 96.4223 227.339 92.0361 232.153 92.0361Z" fill="#FFD7BF"/>
<path fill-rule="evenodd" clip-rule="evenodd" d="M218.204 101.657C219.684 102.957 223.983 104.557 227.015 103.639C226.979 103.939 227.13 104.254 227.224 104.532C227.488 105.317 226.544 108.789 227.374 108.761C229.605 108.674 232.044 111.831 236.299 111.489C236.493 111.989 237.143 112.324 237.615 112.482C239.303 113.053 241.263 111.746 242.307 110.517C244.853 107.545 245.176 102.774 243.23 99.4314C242.672 98.4739 242.686 97.2316 242.193 96.2605C240.87 93.6674 238.703 91.3455 235.913 90.3671C234.147 89.7413 232.258 89.71 230.413 89.9812C230.292 89.5452 229.72 89.5452 229.341 89.5525C228.29 89.602 227.253 89.8091 226.265 90.1669C222.811 91.3674 219.476 93.8958 218.133 95.8099C217.012 97.3964 216.734 100.361 218.204 101.657Z" fill="#3B4161"/>
<path d="M230.828 109C231.283 107.91 231.048 106.776 230.302 106.465C229.557 106.155 228.584 106.786 228.129 107.876C227.674 108.965 227.91 110.1 228.655 110.41C229.4 110.721 230.373 110.089 230.828 109Z" fill="#FFD7BF"/>
<path fill-rule="evenodd" clip-rule="evenodd" d="M316.455 249.277C317.512 249.22 318.565 249.445 319.506 249.928C320.447 250.412 321.242 251.137 321.81 252.028C322.379 252.92 322.699 253.947 322.739 255.003C322.779 256.059 322.537 257.107 322.037 258.039C319.27 263.14 314.79 269.441 308.092 273.696C301.393 277.952 293.783 279.329 287.981 279.675C286.923 279.732 285.869 279.507 284.927 279.023C283.985 278.54 283.189 277.814 282.621 276.921C282.053 276.029 281.732 275.001 281.693 273.944C281.653 272.887 281.896 271.839 282.396 270.906C285.166 265.809 289.645 259.509 296.344 255.253C303.043 250.997 310.656 249.618 316.455 249.277Z" fill="#2CB9C3"/>
<path fill-rule="evenodd" clip-rule="evenodd" d="M312.704 257.421L312.691 257.43C313.08 255.865 313.165 254.529 313.606 253.16C313.618 253.123 313.623 253.084 313.621 253.045C313.618 253.006 313.607 252.968 313.589 252.933C313.571 252.898 313.547 252.867 313.517 252.841C313.487 252.816 313.452 252.797 313.415 252.785C313.377 252.773 313.338 252.768 313.298 252.771C313.259 252.774 313.221 252.785 313.186 252.803C313.151 252.821 313.119 252.846 313.094 252.876C313.068 252.906 313.049 252.94 313.037 252.978C312.534 254.524 312.493 256.031 311.953 257.871C311.953 257.881 311.946 257.89 311.942 257.899L311.195 258.372L299.899 265.498L299.645 265.657C300.282 263.258 301.667 257.139 302.129 255.718C302.141 255.681 302.146 255.641 302.143 255.602C302.139 255.563 302.129 255.524 302.111 255.489C302.093 255.454 302.068 255.423 302.038 255.397C302.008 255.372 301.973 255.353 301.936 255.34C301.898 255.328 301.859 255.324 301.819 255.327C301.78 255.33 301.742 255.341 301.707 255.359C301.672 255.377 301.64 255.401 301.615 255.431C301.589 255.461 301.57 255.496 301.558 255.533C301.058 257.077 299.469 264.184 298.924 266.02C298.915 266.054 298.911 266.09 298.911 266.125L298.061 266.659L288.425 272.745L288.217 272.878C288.767 270.964 289.634 267.383 290.305 265.024C290.61 263.954 290.862 263.147 291.028 262.892C291.052 262.86 291.07 262.822 291.079 262.783C291.088 262.744 291.09 262.703 291.083 262.663C291.076 262.623 291.061 262.585 291.038 262.551C291.016 262.517 290.987 262.487 290.954 262.465C290.92 262.442 290.882 262.427 290.842 262.42C290.802 262.412 290.761 262.413 290.721 262.422C290.682 262.431 290.644 262.448 290.611 262.472C290.578 262.495 290.551 262.526 290.53 262.561C290.349 262.834 290.058 263.708 289.729 264.861C288.99 267.455 288.015 271.536 287.486 273.23C287.474 273.268 287.471 273.308 287.476 273.347L287.242 273.493C286.623 273.887 286.003 274.279 285.381 274.67L285.034 274.889C284.986 274.892 284.94 274.908 284.9 274.933C284.859 274.959 284.826 274.995 284.802 275.037L284.681 275.115C283.651 275.766 282.622 276.418 281.594 277.071L280.139 277.994C279.826 278.195 279.507 278.395 279.192 278.598L278.887 278.794L278.816 278.839L278.751 278.88L278.728 278.895L278.693 278.928C278.668 278.955 278.647 278.986 278.633 279.02C278.62 279.054 278.613 279.089 278.612 279.125C278.611 279.156 278.615 279.188 278.623 279.218C278.633 279.245 278.645 279.27 278.66 279.294C278.677 279.319 278.696 279.342 278.719 279.362C278.778 279.409 278.852 279.433 278.928 279.429C278.971 279.43 279.014 279.418 279.052 279.396C279.061 279.393 279.069 279.389 279.077 279.383L279.143 279.341L279.213 279.296L279.518 279.101C279.697 278.986 279.876 278.87 280.057 278.758L282.192 277.402C283.132 276.808 284.072 276.214 285.012 275.622L285.24 275.476C287.932 275.292 296.062 275.775 297.369 275.952C297.408 275.957 297.447 275.955 297.485 275.945C297.523 275.935 297.559 275.917 297.59 275.894C297.622 275.87 297.648 275.84 297.668 275.806C297.688 275.772 297.701 275.735 297.706 275.696C297.715 275.617 297.694 275.538 297.645 275.475C297.597 275.412 297.526 275.371 297.447 275.36C296.27 275.202 289.6 274.795 286.243 274.839L286.442 274.711C289.212 272.959 291.983 271.208 294.756 269.459L294.768 269.451C294.816 269.498 294.878 269.528 294.945 269.537C299.352 270.099 303.79 270.337 308.217 270.705C308.256 270.708 308.295 270.704 308.333 270.692C308.37 270.68 308.405 270.661 308.435 270.636C308.465 270.611 308.49 270.58 308.508 270.545C308.526 270.51 308.537 270.472 308.54 270.433C308.543 270.394 308.539 270.355 308.527 270.317C308.515 270.28 308.496 270.245 308.471 270.215C308.446 270.185 308.415 270.161 308.38 270.143C308.345 270.125 308.307 270.114 308.268 270.11C304.004 269.755 299.728 269.52 295.479 269.002L295.656 268.888L305.667 262.572L306.175 262.259C306.208 262.273 306.243 262.282 306.279 262.284C308.749 262.397 315.165 262.076 316.387 262.16C316.426 262.163 316.466 262.158 316.503 262.146C316.541 262.134 316.575 262.114 316.605 262.089C316.635 262.063 316.66 262.032 316.677 261.996C316.695 261.961 316.705 261.923 316.708 261.884C316.712 261.804 316.685 261.727 316.633 261.667C316.581 261.607 316.507 261.571 316.428 261.564C315.314 261.487 309.869 261.746 307.044 261.705L307.413 261.476C310.764 259.36 314.117 257.246 317.473 255.132L320.44 253.254C320.578 253.17 320.712 253.084 320.85 252.999C320.893 252.971 320.929 252.932 320.954 252.887C320.979 252.844 320.991 252.795 320.991 252.745C320.991 252.696 320.979 252.647 320.954 252.603C320.941 252.577 320.923 252.554 320.902 252.534C320.88 252.511 320.855 252.492 320.827 252.478C320.794 252.463 320.759 252.452 320.722 252.446C320.685 252.445 320.648 252.448 320.612 252.456C320.584 252.464 320.558 252.476 320.534 252.492C320.397 252.577 320.261 252.664 320.125 252.747C319.961 252.852 319.796 252.956 319.634 253.06C319.135 253.373 318.637 253.686 318.137 253.999C317.44 254.441 316.741 254.881 316.037 255.321C314.922 256.025 313.811 256.725 312.704 257.421Z" fill="white"/>
<path fill-rule="evenodd" clip-rule="evenodd" d="M303.323 216.794C304.178 216.265 305.153 215.96 306.158 215.907C307.162 215.855 308.164 216.056 309.07 216.493C309.976 216.93 310.757 217.588 311.34 218.406C311.924 219.224 312.292 220.177 312.409 221.175C313.267 229.081 313.294 241.284 307.898 252.434C302.502 263.585 292.913 271.147 286.174 275.388C285.319 275.916 284.343 276.22 283.338 276.272C282.333 276.324 281.332 276.122 280.426 275.685C279.52 275.247 278.739 274.589 278.156 273.77C277.573 272.951 277.205 271.999 277.088 271.001C276.23 263.095 276.208 250.895 281.604 239.743C287.001 228.592 296.578 221.029 303.323 216.794Z" fill="#19959E"/>
<path fill-rule="evenodd" clip-rule="evenodd" d="M301.683 230.73L301.675 230.748C301.016 228.698 300.173 227.123 299.712 225.261C299.7 225.211 299.678 225.163 299.647 225.12C299.616 225.078 299.577 225.043 299.532 225.016C299.488 224.988 299.438 224.971 299.386 224.963C299.334 224.955 299.282 224.958 299.231 224.97C299.18 224.983 299.132 225.005 299.089 225.036C299.047 225.067 299.011 225.107 298.984 225.152C298.956 225.196 298.938 225.246 298.93 225.298C298.922 225.35 298.925 225.403 298.937 225.454C299.46 227.56 300.466 229.299 301.147 231.767C301.147 231.782 301.154 231.792 301.156 231.806L300.64 232.865C298.039 238.202 295.436 243.537 292.832 248.872L292.655 249.231C291.693 246.063 288.961 238.146 288.486 236.212C288.476 236.158 288.455 236.108 288.424 236.063C288.393 236.018 288.354 235.98 288.308 235.951C288.263 235.922 288.211 235.902 288.158 235.893C288.104 235.885 288.05 235.887 287.997 235.9C287.944 235.913 287.895 235.936 287.851 235.969C287.808 236.001 287.772 236.042 287.745 236.089C287.718 236.136 287.701 236.188 287.694 236.242C287.688 236.296 287.693 236.35 287.708 236.402C288.23 238.505 291.414 247.687 292.095 250.149C292.108 250.193 292.127 250.234 292.151 250.273L291.563 251.475C289.345 256.029 287.126 260.584 284.907 265.139L284.766 265.435C284.044 262.878 282.511 258.207 281.614 255.061C281.207 253.632 280.925 252.537 280.935 252.134C280.937 252.082 280.928 252.03 280.91 251.981C280.892 251.931 280.864 251.887 280.828 251.848C280.792 251.81 280.749 251.779 280.701 251.758C280.654 251.736 280.602 251.724 280.55 251.722C280.497 251.72 280.445 251.729 280.396 251.747C280.347 251.766 280.302 251.793 280.264 251.829C280.225 251.865 280.194 251.908 280.173 251.955C280.151 252.003 280.139 252.055 280.137 252.107C280.124 252.544 280.405 253.735 280.845 255.278C281.83 258.74 283.589 264.05 284.187 266.348C284.2 266.399 284.225 266.447 284.258 266.488L284.095 266.817C283.669 267.698 283.241 268.578 282.811 269.457L282.571 269.95C282.519 269.987 282.477 270.038 282.449 270.095C282.421 270.153 282.409 270.217 282.412 270.281L282.328 270.455C281.616 271.915 280.907 273.375 280.201 274.835C279.868 275.523 279.534 276.212 279.198 276.903C278.983 277.353 278.764 277.802 278.549 278.253L278.34 278.689L278.292 278.793L278.247 278.887L278.231 278.919C278.224 278.942 278.22 278.962 278.214 278.982C278.206 279.03 278.206 279.079 278.214 279.127C278.233 279.215 278.277 279.297 278.342 279.36C278.372 279.383 278.404 279.402 278.438 279.419C278.474 279.437 278.514 279.45 278.554 279.456C278.653 279.468 278.753 279.443 278.835 279.386C278.884 279.355 278.925 279.312 278.953 279.261C278.96 279.252 278.967 279.242 278.972 279.231L279.017 279.137L279.065 279.033L279.273 278.597C279.396 278.341 279.518 278.085 279.644 277.831L281.112 274.791C281.758 273.458 282.406 272.126 283.053 270.796L283.209 270.471C286.133 268.375 295.7 263.223 297.308 262.506C297.356 262.485 297.4 262.455 297.436 262.417C297.472 262.379 297.501 262.334 297.52 262.285C297.538 262.236 297.548 262.184 297.546 262.132C297.545 262.079 297.533 262.028 297.512 261.98C297.467 261.884 297.387 261.809 297.288 261.772C297.189 261.734 297.079 261.737 296.982 261.78C295.535 262.426 287.681 266.641 283.905 269.05L284.041 268.765C285.952 264.834 287.867 260.906 289.785 256.978L289.794 256.959C289.881 256.98 289.973 256.97 290.055 256.933C295.452 254.481 300.654 251.638 305.936 248.953C305.984 248.93 306.027 248.898 306.062 248.858C306.097 248.818 306.124 248.772 306.141 248.722C306.158 248.672 306.165 248.619 306.162 248.566C306.158 248.513 306.144 248.461 306.12 248.414C306.096 248.367 306.063 248.325 306.022 248.29C305.982 248.256 305.935 248.23 305.885 248.214C305.834 248.198 305.781 248.192 305.728 248.196C305.675 248.201 305.624 248.216 305.577 248.241C300.487 250.828 295.471 253.561 290.286 255.951L290.407 255.698C292.713 250.97 295.019 246.241 297.326 241.512L297.678 240.795C297.728 240.788 297.776 240.772 297.82 240.748C300.701 239.144 307.756 234.281 309.204 233.519C309.251 233.495 309.292 233.462 309.326 233.422C309.36 233.382 309.385 233.336 309.401 233.286C309.417 233.235 309.423 233.183 309.418 233.131C309.413 233.078 309.398 233.028 309.373 232.981C309.323 232.888 309.238 232.819 309.137 232.788C309.035 232.757 308.926 232.767 308.832 232.815C307.512 233.509 301.521 237.62 298.284 239.556L298.541 239.034C300.858 234.284 303.176 229.533 305.496 224.781C306.18 223.381 306.864 221.979 307.547 220.576C307.645 220.383 307.735 220.192 307.833 219.999C307.861 219.937 307.874 219.869 307.87 219.801C307.865 219.708 307.828 219.62 307.766 219.551C307.738 219.522 307.706 219.498 307.672 219.479C307.639 219.459 307.604 219.445 307.567 219.436C307.527 219.426 307.485 219.422 307.444 219.425C307.395 219.431 307.347 219.444 307.302 219.464C307.258 219.488 307.218 219.518 307.183 219.554C307.157 219.582 307.136 219.613 307.12 219.648C307.024 219.841 306.931 220.036 306.836 220.224C306.723 220.459 306.609 220.692 306.498 220.922C306.151 221.628 305.808 222.337 305.461 223.043C304.978 224.035 304.494 225.026 304.008 226.016C303.224 227.591 302.449 229.163 301.683 230.73Z" fill="white"/>
<path fill-rule="evenodd" clip-rule="evenodd" d="M261.43 256.122C261.402 254.99 261.696 253.873 262.28 252.902C262.863 251.931 263.711 251.146 264.724 250.639C265.738 250.131 266.875 249.922 268.003 250.036C269.131 250.149 270.203 250.581 271.095 251.281C273.706 253.315 276.351 256.029 278.092 259.507C279.833 262.986 280.436 266.734 280.505 270.042C280.532 271.175 280.237 272.291 279.653 273.262C279.069 274.233 278.221 275.018 277.207 275.525C276.194 276.033 275.056 276.242 273.928 276.128C272.8 276.015 271.727 275.583 270.836 274.883C268.225 272.849 265.582 270.133 263.838 266.656C262.094 263.178 261.498 259.431 261.43 256.122Z" fill="#2CB9C3"/>
<path fill-rule="evenodd" clip-rule="evenodd" d="M266.965 255.646V255.655C265.889 255.321 264.947 255.204 264.017 254.843C263.964 254.823 263.905 254.824 263.853 254.844C263.8 254.865 263.757 254.905 263.732 254.955C263.719 254.979 263.712 255.006 263.71 255.033C263.709 255.06 263.713 255.087 263.723 255.112C263.733 255.138 263.748 255.16 263.768 255.179C263.787 255.198 263.811 255.212 263.836 255.221C264.887 255.631 265.955 255.727 267.212 256.177C267.218 256.179 267.224 256.182 267.23 256.185L267.495 256.713C268.818 259.376 270.143 262.039 271.47 264.702L271.558 264.881C269.915 264.341 265.695 263.127 264.729 262.75C264.675 262.731 264.617 262.732 264.564 262.753C264.511 262.774 264.467 262.814 264.442 262.865C264.429 262.889 264.422 262.915 264.421 262.942C264.419 262.969 264.424 262.996 264.434 263.021C264.444 263.046 264.459 263.069 264.478 263.088C264.498 263.107 264.521 263.121 264.546 263.13C265.597 263.538 270.499 264.94 271.753 265.387C271.775 265.395 271.799 265.4 271.823 265.401L272.12 266.002L275.517 272.817L275.592 272.963C274.283 272.504 271.821 271.755 270.208 271.19C269.477 270.934 268.924 270.727 268.762 270.604C268.715 270.571 268.658 270.556 268.602 270.563C268.546 270.57 268.494 270.597 268.457 270.64C268.438 270.66 268.424 270.683 268.415 270.709C268.406 270.734 268.402 270.761 268.404 270.788C268.406 270.815 268.413 270.841 268.426 270.865C268.439 270.889 268.456 270.91 268.477 270.927C268.654 271.062 269.244 271.298 270.036 271.573C271.811 272.191 274.614 273.033 275.772 273.471C275.798 273.481 275.825 273.485 275.853 273.484L275.935 273.648C276.155 274.086 276.374 274.525 276.591 274.965L276.714 275.211C276.711 275.243 276.718 275.276 276.732 275.305C276.747 275.334 276.77 275.358 276.797 275.376L276.84 275.461C277.203 276.191 277.571 276.921 277.932 277.645L278.448 278.674C278.561 278.897 278.673 279.121 278.787 279.345L278.891 279.56L278.916 279.611L278.94 279.656L278.948 279.673L278.968 279.698C278.985 279.717 279.005 279.731 279.027 279.742C279.05 279.753 279.075 279.76 279.101 279.762C279.123 279.764 279.146 279.764 279.168 279.762C279.188 279.756 279.207 279.749 279.225 279.74C279.245 279.73 279.263 279.717 279.28 279.702C279.318 279.667 279.342 279.618 279.348 279.566C279.352 279.536 279.347 279.506 279.335 279.479C279.336 279.474 279.336 279.468 279.335 279.462L279.311 279.415L279.286 279.366L279.182 279.151C279.117 279.023 279.052 278.897 278.99 278.769L278.23 277.258C277.897 276.594 277.565 275.93 277.235 275.267L277.153 275.107C277.284 273.27 278.414 267.771 278.666 266.892C278.673 266.867 278.676 266.84 278.672 266.813C278.669 266.787 278.66 266.761 278.645 266.738C278.631 266.715 278.612 266.696 278.59 266.681C278.568 266.666 278.543 266.656 278.516 266.651C278.46 266.642 278.403 266.652 278.354 266.682C278.306 266.712 278.27 266.758 278.253 266.812C278.025 267.605 277.092 272.115 276.8 274.396L276.728 274.255C275.753 272.297 274.777 270.337 273.798 268.376V268.367C273.835 268.337 273.863 268.297 273.876 268.25C274.702 265.283 275.301 262.28 275.991 259.292C275.997 259.265 275.998 259.238 275.994 259.212C275.989 259.186 275.978 259.16 275.963 259.138C275.948 259.116 275.928 259.098 275.905 259.084C275.882 259.07 275.856 259.062 275.829 259.059C275.773 259.051 275.715 259.064 275.668 259.095C275.621 259.127 275.587 259.175 275.573 259.23C274.908 262.109 274.327 265.002 273.547 267.863L273.483 267.738C272.309 265.379 271.134 263.019 269.959 260.658L269.782 260.299C269.796 260.277 269.806 260.252 269.811 260.226C270.13 258.557 270.523 254.184 270.701 253.357C270.707 253.331 270.707 253.304 270.702 253.278C270.697 253.251 270.686 253.226 270.67 253.205C270.655 253.183 270.634 253.165 270.611 253.151C270.588 253.138 270.562 253.13 270.535 253.127C270.478 253.121 270.422 253.135 270.375 253.168C270.329 253.2 270.295 253.248 270.281 253.303C270.118 254.056 269.776 257.764 269.473 259.682L269.345 259.421C268.162 257.05 266.982 254.678 265.807 252.305L264.763 250.207C264.716 250.109 264.667 250.015 264.62 249.917C264.604 249.887 264.58 249.862 264.551 249.843C264.509 249.817 264.459 249.806 264.411 249.813C264.389 249.816 264.369 249.822 264.349 249.831C264.307 249.847 264.271 249.875 264.245 249.911C264.23 249.933 264.219 249.957 264.211 249.982C264.207 250.007 264.207 250.032 264.211 250.057C264.214 250.076 264.22 250.094 264.229 250.111C264.276 250.208 264.325 250.305 264.371 250.4C264.43 250.517 264.487 250.634 264.545 250.748C264.72 251.101 264.896 251.454 265.067 251.807C265.313 252.302 265.558 252.797 265.804 253.292C266.19 254.08 266.577 254.864 266.965 255.646Z" fill="white"/>
<path fill-rule="evenodd" clip-rule="evenodd" d="M143.959 279.166C143.959 279.166 148.241 271.335 148.798 267.257C148.976 265.944 149.456 263.462 148.236 262.452C147.454 261.804 146.282 262.384 145.568 262.843C143.681 264.057 142.404 265.972 141.136 267.775C140.92 268.077 139.216 270.247 139.226 268.658C139.245 265.697 141.315 262.29 142.308 259.584C144.439 253.789 146.628 247.676 147.051 241.47C147.276 238.206 146.273 231.143 141.401 234.194C138.655 235.914 136.869 238.984 135.467 241.802C133.053 246.67 131.511 251.887 130.35 257.179C129.956 258.976 129.581 260.779 129.246 262.588C129.078 263.494 129.087 264.954 128.515 265.737C127.888 266.587 126.542 264.227 126.321 263.881C125.266 262.167 123.585 257.39 121.503 261.129C121.247 261.601 121.042 262.099 120.893 262.615C119.386 267.441 121.512 278.841 121.512 278.841L143.959 279.166Z" fill="#2CB9C4"/>
<path fill-rule="evenodd" clip-rule="evenodd" d="M90.7043 279.167C90.7043 279.167 95.3978 273.326 96.0025 270.277C96.1968 269.298 96.7232 267.445 95.3874 266.692C94.531 266.208 93.2484 266.642 92.463 266.984C90.3972 267.89 88.9998 269.324 87.6118 270.664C87.3758 270.891 85.5094 272.509 85.523 271.323C85.5439 269.114 87.804 266.571 88.8975 264.555C91.2317 260.23 93.6275 255.668 94.0902 251.036C94.3377 248.6 93.239 243.328 87.9042 245.605C84.8974 246.889 82.9423 249.181 81.407 251.284C78.7636 254.917 77.0759 258.811 75.8048 262.758C75.3735 264.098 74.963 265.444 74.5954 266.794C74.4116 267.47 74.422 268.56 73.7912 269.144C73.103 269.779 71.6314 268.018 71.3943 267.759C70.234 266.484 68.3958 262.916 66.1138 265.709C65.843 266.047 65.6185 266.42 65.4464 266.817C63.7963 270.419 66.1243 278.927 66.1243 278.927L90.7043 279.167Z" fill="#2CB9C4"/>
<path d="M324.873 278.252H55.863V280H324.873V278.252Z" fill="#3B4161"/>
</svg>
