<svg width="324" height="300" viewBox="0 0 324 300" fill="none" xmlns="http://www.w3.org/2000/svg">
<path d="M37.4342 59.5249C14.0932 76.2849 3.51216 113.868 24.0722 133.946C30.2612 139.989 38.5722 143.885 43.5342 150.969C55.1942 167.611 42.5512 190.094 29.5672 205.723C16.5832 221.352 2.00816 241.611 10.5542 260.047C18.6642 277.538 43.2421 280.461 61.2742 273.637C79.3062 266.813 94.0891 253.294 111.774 245.61C129.459 237.926 153.646 238.25 164.194 254.39C168.948 261.665 169.971 270.764 173.894 278.519C184.106 298.693 211.886 304.319 233.219 296.819C254.552 289.319 270.87 272.243 286.328 255.74C296.528 244.856 306.961 233.591 312.263 219.652C317.565 205.713 316.533 188.272 305.795 177.924C303.998 176.207 301.931 174.8 299.675 173.757C283.827 166.341 278.149 146.804 288.65 132.812C289.901 131.145 291.15 129.494 292.372 127.858C305.64 110.139 317.387 85.6519 303.049 67.1899C297.524 60.0759 289.185 55.8169 280.301 54.3759C276.977 53.8388 273.611 53.6145 270.245 53.7059C263.276 53.9335 256.454 51.6682 251.005 47.317C245.556 42.9657 241.838 36.8139 240.518 29.9669C240.034 27.435 239.271 24.9644 238.244 22.5999C232.004 8.26691 216.083 -1.21409 200.506 0.125907C171.806 2.59691 149.636 30.2789 121.578 37.6779C92.7502 45.2759 63.1622 41.0509 37.4342 59.5249Z" fill="#F4F4F4"/>
<path d="M202.265 139.683L160.447 115.522L21.1345 195.958L161.197 276.869L300.659 196.433L202.265 139.683Z" fill="#DAE9EA"/>
<path style="mix-blend-mode:multiply" d="M160.422 10L20.2839 90.9111V196.458L160.422 115.522L300.584 196.458V90.9111L160.422 10Z" fill="url(#paint0_linear_681_712)"/>
<path d="M133.36 290L154.344 277.895L151.718 276.369L130.733 288.499L133.36 290Z" fill="#3578DB"/>
<path d="M142.239 284.298L9.67932 208.464L12.2805 206.938L144.865 282.772L142.239 284.298Z" fill="#3578DB"/>
<path d="M2.62617 215.392L23.6356 203.261L21.0094 201.761L0 213.891L2.62617 215.392Z" fill="#3578DB"/>
<path d="M200.364 142.259L160.347 119.199L27.3872 195.983L161.172 273.217L294.231 196.433L200.364 142.259ZM116.327 194.182L158.496 169.821L201.84 194.832L159.671 219.168L116.327 194.182ZM156.72 220.894L116.702 244.054L73.3577 219.043L113.376 195.908L156.72 220.894ZM113.376 192.481L76.3841 171.122L118.553 146.761L155.594 168.121L113.376 192.481ZM161.422 168.121L200.364 145.61L243.709 170.622L204.791 193.132L161.422 168.121ZM204.791 196.558L246.46 220.619L204.291 244.955L162.623 220.894L204.791 196.558ZM207.718 194.857L246.66 172.347L288.329 196.433L249.411 218.943L207.718 194.857ZM197.413 143.91L158.496 166.42L121.504 145.06L160.422 122.55L197.413 143.91ZM73.4327 172.773L110.424 194.132L70.4064 217.267L33.4149 195.933L73.4327 172.773ZM119.553 245.705L159.571 222.545L201.24 246.606L161.222 269.766L119.553 245.705Z" fill="#3B4161"/>
<path d="M189.96 290L168.975 277.895L171.602 276.369L192.586 288.499L189.96 290Z" fill="#3578DB"/>
<path d="M181.081 284.298L313.665 208.464L311.039 206.938L178.455 282.772L181.081 284.298Z" fill="#3578DB"/>
<path d="M320.693 215.392L299.709 203.261L302.335 201.761L323.319 213.891L320.693 215.392Z" fill="#3578DB"/>
<path d="M57.8258 246.706L57.4007 246.956C56.7732 247.347 56.0745 247.611 55.3447 247.731C54.615 247.851 53.8686 247.826 53.1487 247.656C53.824 248.557 53.1488 249.407 51.8482 250.157L50.8727 250.733C49.8932 251.316 48.7741 251.624 47.6338 251.624C46.4935 251.624 45.3744 251.316 44.3948 250.733C42.2939 249.532 42.494 248.231 44.5449 246.981L45.5453 246.406C46.1873 246.004 46.9022 245.734 47.649 245.609C48.3958 245.485 49.1599 245.509 49.8973 245.68C49.247 244.83 49.7472 244.004 51.0978 243.179L51.523 242.954C52.4913 242.364 53.6032 242.052 54.737 242.052C55.8707 242.052 56.9826 242.364 57.9509 242.954C60.0268 244.18 59.8768 245.53 57.8258 246.706ZM47.1961 247.281L46.0706 247.906C44.695 248.707 44.67 249.432 45.7454 250.057C46.321 250.368 46.9713 250.514 47.6244 250.478C48.2776 250.443 48.9083 250.228 49.4471 249.857L50.5476 249.207C51.8482 248.456 51.8982 247.781 50.7977 247.131C50.2445 246.813 49.6126 246.659 48.9752 246.685C48.3378 246.712 47.7209 246.918 47.1961 247.281ZM53.0487 243.954L52.3984 244.33C51.0978 245.055 51.1729 245.755 52.2233 246.356C52.7548 246.691 53.3706 246.869 53.9991 246.869C54.6277 246.869 55.2434 246.691 55.7749 246.356L56.4252 245.98C57.7758 245.205 57.7758 244.48 56.7253 243.854C56.1635 243.528 55.5221 243.365 54.8728 243.383C54.2235 243.401 53.592 243.598 53.0487 243.954Z" fill="#3B4161"/>
<path d="M59.0265 247.481C59.9788 246.877 61.0766 246.542 62.2038 246.511C63.3309 246.481 64.4454 246.755 65.4293 247.306C67.4802 248.507 67.1801 249.807 65.1542 251.008L58.3012 254.985C57.3399 255.591 56.2319 255.926 55.0955 255.952C53.959 255.979 52.8367 255.696 51.8483 255.135C49.7974 253.959 50.1225 252.633 52.1484 251.433L59.0265 247.481ZM53.524 252.333C52.3235 253.034 52.1234 253.734 53.1989 254.359C53.744 254.653 54.3598 254.789 54.9779 254.754C55.596 254.718 56.1922 254.513 56.7004 254.159L63.7286 250.107C64.9541 249.407 65.1792 248.707 64.0787 248.081C63.5289 247.789 62.9093 247.653 62.2874 247.688C61.6656 247.723 61.0653 247.928 60.5521 248.282L53.524 252.333Z" fill="#3B4161"/>
<path d="M64.4038 262.213L63.0532 261.462L71.432 253.959L60.8272 260.087L59.5266 259.336L72.8326 251.658L74.9085 252.858L66.4797 260.362L79.2354 255.36L81.3364 256.56L68.0554 264.264L66.6298 263.438L77.3346 257.26L64.4038 262.213Z" fill="#3B4161"/>
<path d="M244.934 261.462C244.634 260.812 244.934 260.187 245.81 259.686C246.697 259.23 247.692 259.025 248.688 259.091C249.683 259.157 250.642 259.492 251.462 260.062L253.963 261.562C255.989 262.738 256.339 264.063 254.313 265.264C253.329 265.805 252.216 266.07 251.093 266.03C249.971 265.991 248.879 265.648 247.935 265.039L247.035 264.539L248.436 263.713L249.436 264.288C249.939 264.642 250.532 264.849 251.146 264.884C251.76 264.919 252.372 264.782 252.913 264.489C253.988 263.863 253.763 263.163 252.563 262.488L250.061 260.987C249.553 260.633 248.957 260.428 248.339 260.392C247.721 260.357 247.105 260.494 246.56 260.787C245.734 261.262 245.634 261.837 246.56 262.488L246.86 262.663L245.459 263.463L238.381 258.961L243.659 255.91L244.984 256.685L241.057 258.961L244.934 261.462Z" fill="#3B4161"/>
<path d="M248.511 256.86C246.485 255.685 246.185 254.359 248.236 253.158C249.224 252.609 250.34 252.334 251.47 252.36C252.6 252.387 253.703 252.714 254.664 253.309L261.517 257.285C263.568 258.461 263.868 259.786 261.817 261.012C260.828 261.562 259.71 261.837 258.579 261.806C257.448 261.775 256.346 261.44 255.389 260.837L248.511 256.86ZM256.94 260.036C257.457 260.38 258.058 260.578 258.679 260.609C259.3 260.64 259.917 260.503 260.466 260.212C261.542 259.586 261.317 258.886 260.116 258.186L253.138 254.134C252.625 253.781 252.025 253.575 251.403 253.54C250.781 253.505 250.161 253.641 249.611 253.934C248.536 254.559 248.761 255.259 249.962 255.96L256.94 260.036Z" fill="#3B4161"/>
<path d="M274.047 253.759L272.622 254.584L259.816 249.757L270.421 255.885L269.12 256.635L255.814 248.957L257.89 247.731L270.721 252.733L262.217 245.38L264.318 244.18L277.624 251.858L276.198 252.658L265.494 246.456L274.047 253.759Z" fill="#3B4161"/>
<defs>
<linearGradient id="paint0_linear_681_712" x1="160.422" y1="70.477" x2="160.422" y2="153.239" gradientUnits="userSpaceOnUse">
<stop stop-color="white"/>
<stop offset="1" stop-color="#F0F0F0"/>
</linearGradient>
</defs>
</svg>
