<svg width="41" height="52" viewBox="0 0 41 52" fill="none" xmlns="http://www.w3.org/2000/svg">
<g clip-path="url(#clip0_5792_13365)">
<path fill-rule="evenodd" clip-rule="evenodd" d="M34.2751 32.2587C42.0877 36.7951 42.0877 44.1036 34.2751 48.64C26.4625 53.1763 13.6935 53.1763 5.88094 48.64C-1.93167 44.1036 -1.93167 36.7951 5.88094 32.2587C13.6935 27.7224 26.4625 27.7224 34.2751 32.2587Z" fill="#F5F5F5"/>
<path fill-rule="evenodd" clip-rule="evenodd" d="M31.754 33.6868C38.2225 37.3831 38.2225 43.5155 31.754 47.2118C25.2855 50.9921 14.7847 50.9921 8.31622 47.2118C1.84772 43.4315 1.84772 37.3831 8.31622 33.6868C14.7847 29.9065 25.2855 29.9065 31.754 33.6868Z" fill="#E9E9EB"/>
<path fill-rule="evenodd" clip-rule="evenodd" d="M29.3179 35.1143C34.4423 38.0546 34.4423 42.8429 29.3179 45.7832C24.1935 48.7234 15.9609 48.7234 10.8365 45.7832C5.71207 42.8429 5.71207 38.0546 10.8365 35.1143C15.9609 32.1741 24.1935 32.1741 29.3179 35.1143Z" fill="#DDDEE1"/>
<path fill-rule="evenodd" clip-rule="evenodd" d="M26.8817 36.5424C30.662 38.7266 30.662 42.1709 26.8817 44.355C23.1015 46.5392 17.053 46.5392 13.3567 44.355C9.57641 42.1709 9.57641 38.7266 13.3567 36.5424C17.137 34.3583 23.1855 34.3583 26.8817 36.5424Z" fill="#D1D2D6"/>
<path fill-rule="evenodd" clip-rule="evenodd" d="M11.0045 37.7193C8.65227 37.6353 5.20801 36.3752 5.20801 33.5189V18.3138C5.20801 15.7936 5.62804 14.7855 7.89621 13.4414C14.1967 9.82911 19.3211 6.80488 25.6216 3.1926L26.2936 2.85658L26.9657 2.52055H27.1337L27.3017 2.35254H28.3938L30.1579 4.70472C30.83 4.36869 31.334 4.36869 31.9221 4.70472L33.0141 5.29277H31.8381L31.67 5.46078C24.9495 9.32508 19.5731 12.5173 12.8526 16.3816L12.1805 16.7176H12.0125V16.8857H11.8445V17.0537H11.6765V17.2217H11.5085V17.3897H11.3405V17.5577H11.1725V17.7257H11.0045V17.9777H10.8364V18.2298H10.7524V18.4818H10.6684V18.7338H10.5844V18.9858V19.2378V19.4899V19.7419V19.9939V37.2152L10.7524 37.3832H10.8364V37.6353L11.4245 37.8033L11.0045 37.7193Z" fill="#A65600"/>
<path fill-rule="evenodd" clip-rule="evenodd" d="M31.5027 5.46082C32.5108 4.87277 33.5189 5.2928 33.5189 6.5529C33.5189 15.2896 33.4349 14.1975 33.4349 22.9342C33.4349 24.1103 32.5948 25.6224 31.5867 26.2104C26.4623 29.2346 17.1376 34.5271 12.0132 37.5513C11.0051 38.1393 10.0811 37.6353 10.0811 36.4592V20.0779C10.0811 18.8178 11.0051 17.3897 12.0972 16.7177C18.9857 12.6854 24.6142 9.40912 31.5867 5.46082H31.5027Z" fill="#FF9A2E"/>
<path fill-rule="evenodd" clip-rule="evenodd" d="M25.8744 22.9341L25.1184 22.598L25.0344 22.43L24.8663 22.262L24.7823 22.094L24.6983 21.842L24.6143 21.59L24.5303 21.3379L24.4463 21.0019V20.7499L24.3623 20.4139V20.0778V19.6578V19.3218V18.9858L24.4463 18.5657V18.2297L24.5303 17.8097L24.6143 17.4736L24.6983 17.1376L24.7823 16.8016L24.8663 16.4656L25.0344 16.2135L25.2024 15.8775L25.2864 15.6255L25.4544 15.3735L25.6224 15.2055L25.8744 15.0375L26.0424 14.8694L33.519 10.5851V9.99707H33.603H33.687L33.771 10.0811L34.2751 10.3331L34.5271 10.5011L34.9471 10.7531L34.8631 10.6691H34.7791L34.6111 10.7531L26.7985 15.2895L26.5465 15.4575L26.3785 15.6255L26.2104 15.7935L26.0424 16.0455L25.8744 16.2976L25.7064 16.5496L25.6224 16.8856L25.5384 17.2216L25.3704 17.5577L25.2864 17.8937L25.2024 18.2297V18.6497L25.1184 18.9858V19.4058V19.7418V20.0778V20.4139V20.8339V21.1699L25.2024 21.4219V21.758L25.2864 22.01L25.3704 22.262L25.5384 22.514L25.6224 22.682L25.7064 22.8501L25.8744 22.9341Z" fill="#BAB8B8"/>
<path fill-rule="evenodd" clip-rule="evenodd" d="M34.6104 18.3973L26.7138 22.9337C24.4457 24.1938 24.4457 16.5492 26.7138 15.2891L34.6104 10.7527C35.8705 9.99666 35.9545 17.6412 34.6104 18.3973Z" fill="#93939C"/>
<path fill-rule="evenodd" clip-rule="evenodd" d="M27.302 21.1696L26.798 20.8336L26.546 20.5815L26.378 20.2455V19.8255L26.21 19.3214V18.5654L26.378 18.3134V18.0613L26.546 17.8093V17.5573L26.798 17.3053L26.966 17.0533L27.134 16.8012L27.302 16.5492L27.4701 16.3812L27.6381 16.2132L27.8061 16.0452L27.9741 15.8772C28.5621 15.4571 28.9822 15.3731 29.6542 15.6252L30.1583 15.9612H29.8222L29.4862 15.7932H29.0662L28.6462 16.0452L28.3941 16.2132L28.2261 16.3812L28.0581 16.5492L27.8901 16.7172L27.7221 16.8853L27.5541 17.1373L27.3861 17.3893L27.218 17.6413L27.05 17.8933V18.1454L26.798 18.3974V18.6494L26.63 18.9014V20.4975L26.882 20.8336L27.134 21.0856L27.302 21.1696Z" fill="#C2CED1"/>
<path fill-rule="evenodd" clip-rule="evenodd" d="M28.73 16.1291C29.9061 15.4571 30.8302 15.9611 30.8302 17.3892C30.8302 18.8174 29.9061 20.4135 28.73 21.0855C27.554 21.7576 26.6299 21.1695 26.6299 19.8254C26.6299 18.4813 27.554 16.8012 28.73 16.1291Z" fill="#E6EAEB"/>
<path fill-rule="evenodd" clip-rule="evenodd" d="M9.24086 15.2896L8.73682 14.9536C8.73682 14.9536 8.31679 14.3656 8.56881 14.1135V13.9455C10.921 10.5013 13.1052 7.05699 15.2893 3.52872V3.2767H15.4573V3.02468H15.6254V2.85667H15.7934V2.68865H15.9614V2.52064H16.1294V2.35263H16.3814V2.18461H16.6334V2.0166H17.8095L18.9016 2.60465H17.6415V2.77266H17.3895V2.94067H17.2215V3.10869H17.0535V3.2767H16.8854V3.44471H16.7174V3.61272H16.5494V3.86474H16.3814V4.11676C13.9452 7.81305 11.593 11.5093 9.24086 15.2056V15.2896Z" fill="#B2C1C4"/>
<path fill-rule="evenodd" clip-rule="evenodd" d="M13.1055 12.6854L11.5934 15.2896L11.3414 15.4576C11.3414 15.4576 10.2493 15.8776 9.91324 15.6256L9.3252 15.2896C11.6774 11.5933 14.0296 7.89699 16.3817 4.2007C17.2218 2.8566 18.4819 2.26855 19.238 2.77259L21.5061 4.53673L13.1055 12.6854Z" fill="#BDBDBD"/>
<path fill-rule="evenodd" clip-rule="evenodd" d="M12.9365 12.8527L15.0367 10.8365C15.0367 10.8365 15.0367 10.5005 15.0367 10.3325L17.5569 6.38416C17.5569 6.38416 17.8929 6.04814 17.9769 6.13215L18.2289 6.30016C18.2289 6.30016 18.3129 6.63618 18.2289 6.8042L16.8848 8.90436L19.9091 5.96413L18.649 4.95605C18.649 4.95605 17.8929 4.95605 17.5569 5.46009L12.9365 12.7687V12.8527Z" fill="#27AE60"/>
<path fill-rule="evenodd" clip-rule="evenodd" d="M13.2733 14.3651L11.3412 15.4572C11.3412 15.4572 10.2491 15.8772 9.91309 15.6252L25.1183 0.756036L25.2863 0.588023L25.4543 0.42001L25.6223 0.251997H25.7903L25.9583 0.0839844H26.9664L28.1425 0.756036H26.8824L26.7144 1.00806L26.5464 1.17607L26.3784 1.34408L26.2103 1.51209L13.2733 14.3651Z" fill="#B2C1C4"/>
<path fill-rule="evenodd" clip-rule="evenodd" d="M29.9907 4.36816V4.70419L28.5626 5.54425L27.8906 3.6121C27.8906 3.6121 27.3025 3.19207 26.8825 3.6121L19.5739 10.6686L13.2734 14.2809L26.2944 1.42793C27.3865 0.419856 28.4786 0.419856 28.8986 1.42793L29.7387 3.69611L29.9907 4.36816Z" fill="#BDBDBD"/>
<path fill-rule="evenodd" clip-rule="evenodd" d="M28.5619 5.54459L19.5732 10.753L26.8818 3.69645C26.8818 3.69645 27.7219 3.27641 27.8899 3.69645L28.5619 5.6286V5.54459Z" fill="#27AE60"/>
<path fill-rule="evenodd" clip-rule="evenodd" d="M23.4376 7.56082L26.5458 4.53659C26.5458 4.53659 26.8818 4.36857 26.9658 4.53659L27.1339 4.87261C27.1339 4.87261 27.1339 5.29264 26.9658 5.46066L24.3616 7.98085L23.3536 8.5689L23.1855 8.23287C23.1855 8.23287 23.1855 7.81284 23.3536 7.64483L23.4376 7.56082Z" fill="#BDBDBD"/>
<path fill-rule="evenodd" clip-rule="evenodd" d="M10.5004 18.4812L5.62804 15.625C5.29201 16.2971 5.29201 17.2211 5.20801 18.3132V33.5184C5.20801 36.3746 8.56827 37.6347 10.9204 37.7187L10.4164 37.5507H10.3324V37.2987L10.1644 37.1307V36.7946L9.99638 36.6266V20.0773V19.8253V19.5733V19.3213V19.0693V18.8172H10.0804V18.5652H10.1644L10.5004 18.4812Z" fill="#E37600"/>
</g>
<defs>
<clipPath id="clip0_5792_13365">
<rect width="40.1551" height="52" fill="white"/>
</clipPath>
</defs>
</svg>
