<svg width="12" height="19" viewBox="0 0 12 19" fill="none" xmlns="http://www.w3.org/2000/svg">
<path d="M11.4286 9.69238C11.4186 9.1739 11.2395 8.76303 10.8115 8.35217L3.31674 1.15217C2.99824 0.848905 2.62998 0.692383 2.17213 0.692383C1.25644 0.692383 0.5 1.42608 0.5 2.3163C0.5 2.7663 0.68911 3.17717 1.03747 3.51956L7.52693 9.6826L1.03747 15.8652C0.68911 16.1978 0.5 16.6087 0.5 17.0685C0.5 17.9587 1.25644 18.6924 2.17213 18.6924C2.62002 18.6924 2.99824 18.5456 3.31674 18.2326L10.8115 11.0326C11.2395 10.6217 11.4286 10.2011 11.4286 9.69238Z" fill="white"/>
</svg>
