<svg width="19" height="16" viewBox="0 0 19 16" fill="none" xmlns="http://www.w3.org/2000/svg">
<path d="M13.2692 0C16.158 0 18.5 2.24097 18.5 5.00526V10.9947C18.5 13.759 16.158 16 13.2692 16H5.73084C2.84197 16 0.5 13.759 0.5 10.9947V5.00526C0.5 2.24097 2.84197 0 5.73084 0H13.2692ZM13.2692 1.2518H5.73084C3.56448 1.2518 1.80822 2.93232 1.80822 5.00526V10.9947C1.80822 13.0677 3.56448 14.7482 5.73084 14.7482H13.2692C15.4355 14.7482 17.1918 13.0677 17.1918 10.9947L17.1914 10.7613L14.3149 10.762C12.6575 10.761 11.3143 9.47627 11.3133 7.8901C11.3133 6.35717 12.5691 5.10522 14.1506 5.02258L14.3153 5.01824L17.1914 5.01811L17.1918 5.00526C17.1918 2.99329 15.5373 1.351 13.4592 1.25613L13.2692 1.2518ZM17.1914 6.26947L14.3157 6.27004C13.3798 6.27059 12.6215 6.99573 12.6215 7.88971C12.622 8.742 13.3096 9.44018 14.183 9.50521L14.3153 9.51016L17.1914 9.5099V6.26947ZM14.7148 7.21278C15.076 7.21278 15.3689 7.49301 15.3689 7.83868C15.3689 8.15555 15.1228 8.41743 14.8035 8.45887L14.7148 8.46458H14.4429C14.0817 8.46458 13.7888 8.18436 13.7888 7.83868C13.7888 7.52181 14.0349 7.25994 14.3542 7.2185L14.4429 7.21278H14.7148ZM9.81849 3.78725C10.1797 3.78725 10.4726 4.06748 10.4726 4.41316C10.4726 4.73002 10.2265 4.9919 9.90725 5.03334L9.81849 5.03906H5.10982C4.74857 5.03906 4.45571 4.75883 4.45571 4.41316C4.45571 4.09629 4.70179 3.83441 5.02106 3.79297L5.10982 3.78725H9.81849Z" fill="#3578DB"/>
</svg>
