<svg width="139" height="97" viewBox="0 0 139 97" fill="none" xmlns="http://www.w3.org/2000/svg">
<path d="M137.944 1.00195H13.5854V84.3462H137.944V1.00195Z" fill="#E0E0E0" stroke="#3578DB" stroke-linecap="round" stroke-linejoin="round"/>
<path d="M125.36 12.6582H1.00146V96.0025H125.36V12.6582Z" fill="white" stroke="#3578DB" stroke-linecap="round" stroke-linejoin="round"/>
<path d="M62.8647 35.377H110.781" stroke="#FF9A2E" stroke-linecap="round" stroke-linejoin="round"/>
<path d="M62.8647 47.9629H110.781" stroke="#FF9A2E" stroke-linecap="round" stroke-linejoin="round"/>
<path d="M62.8647 60.5449H110.781" stroke="#FF9A2E" stroke-linecap="round" stroke-linejoin="round"/>
<path d="M106.085 73.1328H110.782H106.085Z" fill="white"/>
<path d="M106.085 73.1328H110.782" stroke="#FF9A2E" stroke-linecap="round" stroke-linejoin="round"/>
<path d="M78.769 73.1328H95.0902H78.769Z" fill="white"/>
<path d="M78.769 73.1328H95.0902" stroke="#FF9A2E" stroke-linecap="round" stroke-linejoin="round"/>
<path d="M62.8647 73.1328H67.9283H62.8647Z" fill="white"/>
<path d="M62.8647 73.1328H67.9283" stroke="#FF9A2E" stroke-linecap="round" stroke-linejoin="round"/>
<path d="M9.10498 73.5678L11.5158 63.577C11.9287 61.8617 13.2426 60.5192 14.9319 60.083C17.3594 59.4561 20.6795 58.7912 22.8568 58.1559C24.0163 57.8171 24.8088 56.7371 24.8088 55.5132V52.9721L24.4751 52.5909C23.5909 51.5829 23.0153 50.3335 22.8192 48.9995C22.8192 48.9995 21.935 49.0079 21.8015 48.1905C21.4053 45.6875 21.1175 45.5817 21.1175 44.4805C21.1175 43.3794 21.5179 43.121 22.0017 43.4048C21.9225 43.121 21.7807 42.5366 21.7556 41.7192C21.5888 35.8068 25.4219 31.9316 29.9141 31.9316C34.4063 31.9316 38.2353 35.8068 38.0726 41.7192C38.0517 42.5366 37.9058 43.121 37.8265 43.4048C38.3103 43.121 38.7108 43.3836 38.7108 44.4805C38.7108 45.5774 38.423 45.6875 38.0267 48.1905C37.8974 49.0079 37.009 48.9995 37.009 48.9995C36.813 50.3335 36.2374 51.5829 35.3531 52.5909L35.0194 52.9721V55.5132C35.0194 56.7371 35.8119 57.8171 36.9714 58.1559C39.1487 58.7955 42.4688 59.4561 44.8963 60.083C46.5814 60.5192 47.8995 61.8617 48.3124 63.577L50.7232 73.5678" fill="white"/>
<path d="M9.10498 73.5678L11.5158 63.577C11.9287 61.8617 13.2426 60.5192 14.9319 60.083C17.3594 59.4561 20.6795 58.7912 22.8568 58.1559C24.0163 57.8171 24.8088 56.7371 24.8088 55.5132V52.9721L24.4751 52.5909C23.5909 51.5829 23.0153 50.3335 22.8192 48.9995C22.8192 48.9995 21.935 49.0079 21.8015 48.1905C21.4053 45.6875 21.1175 45.5817 21.1175 44.4805C21.1175 43.3794 21.5179 43.121 22.0017 43.4048C21.9225 43.121 21.7807 42.5366 21.7556 41.7192C21.5888 35.8068 25.4219 31.9316 29.9141 31.9316C34.4063 31.9316 38.2353 35.8068 38.0726 41.7192C38.0517 42.5366 37.9058 43.121 37.8265 43.4048C38.3103 43.121 38.7108 43.3836 38.7108 44.4805C38.7108 45.5774 38.423 45.6875 38.0267 48.1905C37.8974 49.0079 37.009 48.9995 37.009 48.9995C36.813 50.3335 36.2374 51.5829 35.3531 52.5909L35.0194 52.9721V55.5132C35.0194 56.7371 35.8119 57.8171 36.9714 58.1559C39.1487 58.7955 42.4688 59.4561 44.8963 60.083C46.5814 60.5192 47.8995 61.8617 48.3124 63.577L50.7232 73.5678" stroke="#FF9A2E" stroke-linecap="round" stroke-linejoin="round"/>
</svg>
