<svg width="19" height="16" viewBox="0 0 19 16" fill="none" xmlns="http://www.w3.org/2000/svg">
<path d="M15.1058 6.36613C15.1058 6.83172 14.7298 7.20863 14.2653 7.20863C13.8008 7.20863 13.4248 6.83172 13.4248 6.36613L13.1931 2.29613C13.1931 1.70279 13.6734 1.22241 14.2653 1.22241C14.8572 1.22241 15.3365 1.70279 15.3365 2.29613L15.1058 6.36613Z" fill="#3578DB" fill-opacity="0.54"/>
<path d="M17.7081 9.09859C17.9756 9.21261 18.2021 9.41849 18.3464 9.6761C18.4496 9.88197 18.5001 10.0995 18.5001 10.3265C18.4906 10.5629 18.3358 11.0074 18.2631 11.1827C17.8113 12.3377 16.3283 14.5453 15.4236 15.392C15.3311 15.4841 15.226 15.581 15.1517 15.6495C15.1101 15.6878 15.0781 15.7172 15.0634 15.732C14.8359 15.9073 14.5589 16.0002 14.2608 16.0002C13.9923 16.0002 13.7247 15.9178 13.5088 15.7521C13.3593 15.6465 13.1181 15.4015 13.1181 15.4015C12.1807 14.5358 10.7715 12.3789 10.3186 11.2851C10.308 11.2851 10.0405 10.6358 10.03 10.3265V10.2853C10.03 9.81018 10.2975 9.36676 10.7304 9.13977C10.908 9.04716 11.3397 8.95989 11.549 8.91756C11.6189 8.90343 11.6641 8.8943 11.6667 8.89166C12.2839 8.79875 13.2308 8.73752 14.2703 8.73752C15.3615 8.73752 16.3494 8.79875 16.9571 8.91278C16.9666 8.91278 17.5227 9.02574 17.7081 9.09859Z" fill="#3578DB" fill-opacity="0.54"/>
<path fill-rule="evenodd" clip-rule="evenodd" d="M4.73478 8.79152C4.2703 8.79152 3.89429 9.16842 3.89429 9.634L3.66258 13.7039C3.66258 14.2972 4.14286 14.7776 4.73478 14.7776C5.3267 14.7776 5.80592 14.2972 5.80592 13.7039L5.57526 9.634C5.57526 9.16842 5.19926 8.79152 4.73478 8.79152Z" fill="#3578DB" fill-opacity="0.54"/>
<path fill-rule="evenodd" clip-rule="evenodd" d="M5.88205 0.598609C5.88205 0.598609 5.64086 0.353676 5.4913 0.247045C5.27433 0.0823484 5.00681 0 4.74034 0C4.44122 0 4.16317 0.0929059 3.93672 0.26816C3.89564 0.309334 3.72081 0.464529 3.57651 0.609167C2.67073 1.45482 1.18882 3.66239 0.735926 4.81844C0.664305 4.99369 0.509479 5.43711 0.5 5.67465C0.5 5.90058 0.550555 6.11806 0.653773 6.32393C0.798067 6.58154 1.02451 6.78846 1.29204 6.90143C1.47741 6.97428 2.03246 7.08724 2.043 7.08724C2.65071 7.20126 3.63865 7.26249 4.72981 7.26249C5.76936 7.26249 6.71622 7.20126 7.33342 7.10836C7.34395 7.0978 8.03277 6.98483 8.26975 6.86025C8.70158 6.63327 8.97015 6.18985 8.97015 5.71582V5.67465C8.95962 5.36531 8.69104 4.71497 8.68156 4.71497C8.22867 3.62122 6.81838 1.46538 5.88205 0.598609Z" fill="#3578DB" fill-opacity="0.54"/>
</svg>
