<svg width="16" height="16" viewBox="0 0 16 16" fill="none" xmlns="http://www.w3.org/2000/svg">
<path fill-rule="evenodd" clip-rule="evenodd" d="M6.54545 10.7065V15.2438C6.54545 15.6612 6.21964 16 5.81818 16H0.727273C0.325818 16 0 15.6612 0 15.2438V6.89593C0 6.20701 0.301091 5.55516 0.818909 5.12487L6.18255 0.662444C7.24509 -0.220815 8.75491 -0.220815 9.81745 0.662444L15.1811 5.12487C15.6989 5.55516 16 6.20701 16 6.89593V15.2438C16 15.6612 15.6742 16 15.2727 16H10.1818C9.78036 16 9.45455 15.6612 9.45455 15.2438V10.7065C9.45455 10.0312 8.82545 9.35741 8 9.20314C7.17455 9.35741 6.54545 10.0312 6.54545 10.7065Z" fill="#3578DB" fill-opacity="0.54"/>
</svg>
