<svg width="19" height="4" viewBox="0 0 19 4" fill="none" xmlns="http://www.w3.org/2000/svg">
<path fill-rule="evenodd" clip-rule="evenodd" d="M16.25 4C15.1453 4 14.25 3.10473 14.25 2C14.25 0.895273 15.1453 0 16.25 0C17.3547 0 18.25 0.895273 18.25 2C18.25 3.10473 17.3547 4 16.25 4ZM9.25 4C8.14527 4 7.25 3.10473 7.25 2C7.25 0.895273 8.14527 0 9.25 0C10.3547 0 11.25 0.895273 11.25 2C11.25 3.10473 10.3547 4 9.25 4ZM2.25 4C1.14527 4 0.25 3.10473 0.25 2C0.25 0.895273 1.14527 0 2.25 0C3.35473 0 4.25 0.895273 4.25 2C4.25 3.10473 3.35473 4 2.25 4Z" fill="#3578DB" fill-opacity="0.54"/>
</svg>
