<svg width="16" height="20" viewBox="0 0 16 20" fill="none" xmlns="http://www.w3.org/2000/svg">
<ellipse cx="8.004" cy="5.47411" rx="4.41562" ry="4.47411" stroke="#3B4161" stroke-width="1.5" stroke-linecap="round" stroke-linejoin="round"/>
<path fill-rule="evenodd" clip-rule="evenodd" d="M1.00001 16.1708C0.998829 15.8563 1.06825 15.5456 1.20303 15.2623C1.62598 14.4052 2.81871 13.9509 3.80842 13.7452C4.52219 13.5909 5.24583 13.4878 5.97393 13.4367C7.32196 13.3167 8.67778 13.3167 10.0258 13.4367C10.7539 13.4884 11.4774 13.5915 12.1913 13.7452C13.181 13.9509 14.3738 14.3623 14.7967 15.2623C15.0678 15.8399 15.0678 16.5104 14.7967 17.088C14.3738 17.9879 13.181 18.3993 12.1913 18.5965C11.4784 18.7572 10.7545 18.8632 10.0258 18.9136C8.92863 19.0078 7.82632 19.025 6.72679 18.965C6.47302 18.965 6.2277 18.965 5.97393 18.9136C5.24798 18.8638 4.52685 18.7578 3.81688 18.5965C2.81871 18.3993 1.63444 17.9879 1.20303 17.088C1.06894 16.8013 0.999586 16.488 1.00001 16.1708Z" stroke="#3B4161" stroke-width="1.5" stroke-linecap="round" stroke-linejoin="round"/>
</svg>
